%TF.GenerationSoftware,KiCad,Pcbnew,7.0.1*%
%TF.CreationDate,2023-09-23T10:11:30-05:00*%
%TF.ProjectId,Power_Supply,506f7765-725f-4537-9570-706c792e6b69,1*%
%TF.SameCoordinates,Original*%
%TF.FileFunction,Copper,L2,Inr*%
%TF.FilePolarity,Positive*%
%FSLAX46Y46*%
G04 Gerber Fmt 4.6, Leading zero omitted, Abs format (unit mm)*
G04 Created by KiCad (PCBNEW 7.0.1) date 2023-09-23 10:11:30*
%MOMM*%
%LPD*%
G01*
G04 APERTURE LIST*
%TA.AperFunction,ComponentPad*%
%ADD10C,1.800000*%
%TD*%
%TA.AperFunction,ComponentPad*%
%ADD11C,4.500000*%
%TD*%
%TA.AperFunction,ComponentPad*%
%ADD12R,1.700000X1.700000*%
%TD*%
%TA.AperFunction,ComponentPad*%
%ADD13O,1.700000X1.700000*%
%TD*%
%TA.AperFunction,ComponentPad*%
%ADD14R,4.000000X4.000000*%
%TD*%
%TA.AperFunction,ComponentPad*%
%ADD15C,3.300000*%
%TD*%
%TA.AperFunction,ComponentPad*%
%ADD16C,3.500000*%
%TD*%
%TA.AperFunction,ComponentPad*%
%ADD17C,2.600000*%
%TD*%
%TA.AperFunction,ComponentPad*%
%ADD18C,2.000000*%
%TD*%
%TA.AperFunction,ViaPad*%
%ADD19C,0.800000*%
%TD*%
%TA.AperFunction,Conductor*%
%ADD20C,0.090000*%
%TD*%
%TA.AperFunction,Conductor*%
%ADD21C,0.500000*%
%TD*%
G04 APERTURE END LIST*
D10*
%TO.N,ADC*%
%TO.C,VR1*%
X140970000Y-94996000D03*
%TO.N,CW*%
X140970000Y-97496000D03*
X140970000Y-99996000D03*
D11*
%TO.N,GND*%
X147970000Y-93096000D03*
X147970000Y-101896000D03*
%TD*%
D12*
%TO.N,ADC*%
%TO.C,+*%
X115321000Y-106167000D03*
D13*
X115321000Y-108707000D03*
%TO.N,GND*%
X112781000Y-106167000D03*
X112781000Y-108707000D03*
%TD*%
D14*
%TO.N,/MCU_POWER/JACK_OUT*%
%TO.C,J1*%
X148500000Y-60250000D03*
D15*
%TO.N,GND*%
X148500000Y-54250000D03*
D16*
%TO.N,N/C*%
X153000000Y-53250000D03*
X144000000Y-53250000D03*
%TD*%
D12*
%TO.N,+3.3V*%
%TO.C,J3*%
X109750000Y-59250000D03*
D13*
%TO.N,SCL*%
X109750000Y-61790000D03*
%TO.N,SDA*%
X109750000Y-64330000D03*
%TO.N,GND*%
X109750000Y-66870000D03*
%TD*%
D17*
%TO.N,ADC*%
%TO.C,+*%
X116332000Y-100000000D03*
%TD*%
D18*
%TO.N,GND*%
%TO.C,RST*%
X129000000Y-102000000D03*
X122500000Y-102000000D03*
%TO.N,/NRST*%
X129000000Y-97500000D03*
X122500000Y-97500000D03*
%TD*%
D17*
%TO.N,GND*%
%TO.C,-*%
X110998000Y-99822000D03*
%TD*%
D12*
%TO.N,+3.3V*%
%TO.C,J4*%
X127870000Y-57750000D03*
D13*
%TO.N,SWCLK*%
X125330000Y-57750000D03*
%TO.N,GND*%
X122790000Y-57750000D03*
%TO.N,SWDIO*%
X120250000Y-57750000D03*
%TO.N,SWO*%
X117710000Y-57750000D03*
%TD*%
D12*
%TO.N,ADC*%
%TO.C,J5*%
X160782000Y-106172000D03*
D13*
X160782000Y-108712000D03*
%TO.N,GND*%
X158242000Y-106172000D03*
X158242000Y-108712000D03*
%TD*%
D19*
%TO.N,Net-(U1-PA1)*%
X119500000Y-80250000D03*
X117750000Y-93250000D03*
%TO.N,+3.3V*%
X151500000Y-86500000D03*
X151500000Y-87750000D03*
X156500000Y-87750000D03*
X152750000Y-86500000D03*
X159000000Y-87750000D03*
X154000000Y-87750000D03*
X130749999Y-77500000D03*
X115862500Y-87250000D03*
X157750000Y-86500000D03*
X152750000Y-87750000D03*
X159000000Y-86500000D03*
X126500000Y-87250000D03*
X123250000Y-66250000D03*
X157750000Y-87750000D03*
X117000000Y-66250000D03*
X118250000Y-52500000D03*
X156500000Y-86500000D03*
X154000000Y-86500000D03*
X155250000Y-86500000D03*
X119294269Y-66455731D03*
X120000000Y-87250000D03*
X155250000Y-87750000D03*
%TO.N,/NRST*%
X126000000Y-94000000D03*
X119000000Y-76500000D03*
%TO.N,SCL*%
X120500000Y-69750000D03*
%TO.N,SDA*%
X120000000Y-73500000D03*
%TO.N,SWCLK*%
X126500000Y-69750000D03*
%TO.N,SWDIO*%
X125750000Y-74250000D03*
%TO.N,SWO*%
X124250000Y-69750000D03*
%TO.N,ADC*%
X144018000Y-88870000D03*
X142748000Y-88860000D03*
X142748000Y-86828000D03*
X142748000Y-87884000D03*
X144018000Y-86838000D03*
X142748000Y-85852000D03*
X114500000Y-95750000D03*
X144018000Y-87884000D03*
X144018000Y-85852000D03*
%TO.N,CW*%
X139750000Y-84000000D03*
X135636000Y-85852000D03*
%TD*%
D20*
%TO.N,SWCLK*%
X126500000Y-65000000D02*
X126500000Y-69750000D01*
X125330000Y-57750000D02*
X125330000Y-63830000D01*
X125330000Y-63830000D02*
X126500000Y-65000000D01*
%TO.N,SWDIO*%
X125750000Y-64750000D02*
X125750000Y-74250000D01*
X120250000Y-59250000D02*
X125750000Y-64750000D01*
X120250000Y-57750000D02*
X120250000Y-59250000D01*
%TO.N,SWO*%
X117710000Y-57750000D02*
X117710000Y-58960000D01*
X117710000Y-58960000D02*
X124250000Y-65500000D01*
X124250000Y-65500000D02*
X124250000Y-69750000D01*
D21*
%TO.N,CW*%
X137488000Y-84000000D02*
X135636000Y-85852000D01*
X139750000Y-84000000D02*
X137488000Y-84000000D01*
%TD*%
%TA.AperFunction,Conductor*%
%TO.N,ADC*%
G36*
X146438000Y-84642613D02*
G01*
X146483387Y-84688000D01*
X146500000Y-84750000D01*
X146500000Y-91071852D01*
X146486484Y-91128148D01*
X146448884Y-91172171D01*
X146404904Y-91204123D01*
X146180129Y-91415202D01*
X145983585Y-91652781D01*
X145818363Y-91913131D01*
X145687078Y-92192124D01*
X145591794Y-92485377D01*
X145534015Y-92788268D01*
X145514654Y-93096000D01*
X145534015Y-93403731D01*
X145591794Y-93706622D01*
X145687078Y-93999875D01*
X145818363Y-94278868D01*
X145983585Y-94539218D01*
X146180129Y-94776797D01*
X146404905Y-94987877D01*
X146654359Y-95169116D01*
X146778373Y-95237293D01*
X146924565Y-95317663D01*
X147034838Y-95361323D01*
X147211256Y-95431172D01*
X147368878Y-95471642D01*
X147509914Y-95507854D01*
X147764115Y-95539967D01*
X147815827Y-95546500D01*
X147815828Y-95546500D01*
X148124172Y-95546500D01*
X148124173Y-95546500D01*
X148168407Y-95540911D01*
X148430086Y-95507854D01*
X148728743Y-95431172D01*
X149015435Y-95317663D01*
X149285640Y-95169116D01*
X149437628Y-95058690D01*
X149472873Y-95040861D01*
X149511936Y-95035022D01*
X166907264Y-95237293D01*
X166968662Y-95254388D01*
X167013459Y-95299724D01*
X167029820Y-95361323D01*
X167024538Y-112493374D01*
X167007916Y-112555353D01*
X166962538Y-112600723D01*
X166900557Y-112617336D01*
X152825319Y-112619478D01*
X152795255Y-112615783D01*
X152784532Y-112613105D01*
X152735937Y-112588674D01*
X152702473Y-112545797D01*
X152690577Y-112492728D01*
X152692889Y-108711999D01*
X157186417Y-108711999D01*
X157206699Y-108917932D01*
X157206700Y-108917934D01*
X157266768Y-109115954D01*
X157364315Y-109298450D01*
X157415608Y-109360952D01*
X157495589Y-109458410D01*
X157575570Y-109524047D01*
X157655550Y-109589685D01*
X157838046Y-109687232D01*
X158036066Y-109747300D01*
X158242000Y-109767583D01*
X158447934Y-109747300D01*
X158645954Y-109687232D01*
X158828450Y-109589685D01*
X158988410Y-109458410D01*
X159119685Y-109298450D01*
X159217232Y-109115954D01*
X159277300Y-108917934D01*
X159297583Y-108712000D01*
X159277300Y-108506066D01*
X159217232Y-108308046D01*
X159119685Y-108125550D01*
X159054047Y-108045570D01*
X158988410Y-107965589D01*
X158890952Y-107885609D01*
X158828450Y-107834315D01*
X158645954Y-107736768D01*
X158546943Y-107706733D01*
X158447932Y-107676699D01*
X158242000Y-107656417D01*
X158036067Y-107676699D01*
X157838043Y-107736769D01*
X157655551Y-107834314D01*
X157495589Y-107965589D01*
X157364314Y-108125551D01*
X157266769Y-108308043D01*
X157206699Y-108506067D01*
X157186417Y-108711999D01*
X152692889Y-108711999D01*
X152694443Y-106172000D01*
X157186417Y-106172000D01*
X157206699Y-106377932D01*
X157206700Y-106377934D01*
X157266768Y-106575954D01*
X157364315Y-106758450D01*
X157415609Y-106820952D01*
X157495589Y-106918410D01*
X157575570Y-106984047D01*
X157655550Y-107049685D01*
X157838046Y-107147232D01*
X158036066Y-107207300D01*
X158242000Y-107227583D01*
X158447934Y-107207300D01*
X158645954Y-107147232D01*
X158828450Y-107049685D01*
X158988410Y-106918410D01*
X159119685Y-106758450D01*
X159217232Y-106575954D01*
X159277300Y-106377934D01*
X159297583Y-106172000D01*
X159277300Y-105966066D01*
X159217232Y-105768046D01*
X159119685Y-105585550D01*
X159054047Y-105505570D01*
X158988410Y-105425589D01*
X158890952Y-105345609D01*
X158828450Y-105294315D01*
X158645954Y-105196768D01*
X158546943Y-105166733D01*
X158447932Y-105136699D01*
X158242000Y-105116417D01*
X158036067Y-105136699D01*
X157838043Y-105196769D01*
X157655551Y-105294314D01*
X157495589Y-105425589D01*
X157364314Y-105585551D01*
X157266769Y-105768043D01*
X157206699Y-105966067D01*
X157186417Y-106172000D01*
X152694443Y-106172000D01*
X152695410Y-104591961D01*
X152696541Y-104580061D01*
X152696298Y-104579273D01*
X152688857Y-104570285D01*
X152642982Y-104503460D01*
X152640537Y-104499650D01*
X152640160Y-104499389D01*
X152635859Y-104498449D01*
X152569026Y-104481743D01*
X152560510Y-104478933D01*
X152551860Y-104479498D01*
X148743190Y-104479484D01*
X148685741Y-104465373D01*
X148641367Y-104426252D01*
X148620168Y-104371024D01*
X148626968Y-104312259D01*
X148660219Y-104263333D01*
X148712352Y-104235380D01*
X148728743Y-104231172D01*
X149015435Y-104117663D01*
X149285640Y-103969116D01*
X149535096Y-103787876D01*
X149759869Y-103576799D01*
X149956416Y-103339216D01*
X150121635Y-103078871D01*
X150252922Y-102799873D01*
X150348206Y-102506619D01*
X150405984Y-102203736D01*
X150425345Y-101896000D01*
X150405984Y-101588264D01*
X150348206Y-101285381D01*
X150320733Y-101200829D01*
X150252921Y-100992124D01*
X150121636Y-100713131D01*
X150035764Y-100577818D01*
X149956416Y-100452784D01*
X149908820Y-100395251D01*
X149759870Y-100215202D01*
X149535094Y-100004122D01*
X149285640Y-99822883D01*
X149015433Y-99674336D01*
X148728743Y-99560827D01*
X148430088Y-99484146D01*
X148124173Y-99445500D01*
X148124172Y-99445500D01*
X147815828Y-99445500D01*
X147815827Y-99445500D01*
X147509911Y-99484146D01*
X147211256Y-99560827D01*
X146924566Y-99674336D01*
X146654359Y-99822883D01*
X146404905Y-100004122D01*
X146180129Y-100215202D01*
X145983585Y-100452781D01*
X145818363Y-100713131D01*
X145687078Y-100992124D01*
X145591794Y-101285377D01*
X145534015Y-101588268D01*
X145514654Y-101896000D01*
X145534015Y-102203731D01*
X145591794Y-102506622D01*
X145687078Y-102799875D01*
X145818363Y-103078868D01*
X145983585Y-103339218D01*
X146180129Y-103576797D01*
X146404905Y-103787877D01*
X146654359Y-103969116D01*
X146789462Y-104043389D01*
X146924565Y-104117663D01*
X147067910Y-104174417D01*
X147211256Y-104231172D01*
X147227622Y-104235374D01*
X147279757Y-104263328D01*
X147313008Y-104312255D01*
X147319807Y-104371019D01*
X147298607Y-104426247D01*
X147254233Y-104465367D01*
X147196785Y-104479478D01*
X121240354Y-104479378D01*
X121233927Y-104478334D01*
X121224605Y-104479032D01*
X121220039Y-104479202D01*
X121216585Y-104480762D01*
X121207414Y-104484596D01*
X121202455Y-104488126D01*
X121178115Y-104500345D01*
X121176641Y-104500806D01*
X121159823Y-104509526D01*
X121159824Y-104509527D01*
X121159677Y-104509603D01*
X121159252Y-104510103D01*
X121146741Y-104524664D01*
X121145861Y-104526184D01*
X121113391Y-104565148D01*
X121109524Y-104569397D01*
X121109216Y-104570246D01*
X121109491Y-104576262D01*
X121099542Y-112386864D01*
X121087956Y-112439043D01*
X121055483Y-112481497D01*
X121008157Y-112506340D01*
X120975959Y-112515118D01*
X120943326Y-112519484D01*
X107485198Y-112517502D01*
X107436988Y-112507739D01*
X107415933Y-112498850D01*
X107377048Y-112472859D01*
X107350557Y-112434313D01*
X107345896Y-112423659D01*
X107335500Y-112373959D01*
X107335500Y-108707000D01*
X111725417Y-108707000D01*
X111745699Y-108912932D01*
X111775733Y-109011943D01*
X111805768Y-109110954D01*
X111903315Y-109293450D01*
X111954608Y-109355952D01*
X112034589Y-109453410D01*
X112114570Y-109519047D01*
X112194550Y-109584685D01*
X112377046Y-109682232D01*
X112575066Y-109742300D01*
X112781000Y-109762583D01*
X112986934Y-109742300D01*
X113184954Y-109682232D01*
X113367450Y-109584685D01*
X113527410Y-109453410D01*
X113658685Y-109293450D01*
X113756232Y-109110954D01*
X113816300Y-108912934D01*
X113836583Y-108707000D01*
X113816300Y-108501066D01*
X113756232Y-108303046D01*
X113658685Y-108120550D01*
X113593047Y-108040570D01*
X113527410Y-107960589D01*
X113429952Y-107880609D01*
X113367450Y-107829315D01*
X113184954Y-107731768D01*
X113085944Y-107701734D01*
X112986932Y-107671699D01*
X112781000Y-107651417D01*
X112575067Y-107671699D01*
X112377043Y-107731769D01*
X112194551Y-107829314D01*
X112034589Y-107960589D01*
X111903314Y-108120551D01*
X111805769Y-108303043D01*
X111745699Y-108501067D01*
X111725417Y-108707000D01*
X107335500Y-108707000D01*
X107335500Y-106167000D01*
X111725417Y-106167000D01*
X111745699Y-106372932D01*
X111775734Y-106471944D01*
X111805768Y-106570954D01*
X111903315Y-106753450D01*
X111954609Y-106815952D01*
X112034589Y-106913410D01*
X112114569Y-106979047D01*
X112194550Y-107044685D01*
X112377046Y-107142232D01*
X112575066Y-107202300D01*
X112781000Y-107222583D01*
X112986934Y-107202300D01*
X113184954Y-107142232D01*
X113367450Y-107044685D01*
X113527410Y-106913410D01*
X113658685Y-106753450D01*
X113756232Y-106570954D01*
X113816300Y-106372934D01*
X113836583Y-106167000D01*
X113816300Y-105961066D01*
X113756232Y-105763046D01*
X113658685Y-105580550D01*
X113593047Y-105500570D01*
X113527410Y-105420589D01*
X113429952Y-105340608D01*
X113367450Y-105289315D01*
X113184954Y-105191768D01*
X113085943Y-105161733D01*
X112986932Y-105131699D01*
X112781000Y-105111417D01*
X112575067Y-105131699D01*
X112377043Y-105191769D01*
X112194551Y-105289314D01*
X112034589Y-105420589D01*
X111903314Y-105580551D01*
X111805769Y-105763043D01*
X111745699Y-105961067D01*
X111725417Y-106167000D01*
X107335500Y-106167000D01*
X107335500Y-102000000D01*
X121294357Y-102000000D01*
X121314885Y-102221537D01*
X121375769Y-102435526D01*
X121474941Y-102634688D01*
X121609019Y-102812237D01*
X121773437Y-102962124D01*
X121962595Y-103079245D01*
X121962597Y-103079245D01*
X121962599Y-103079247D01*
X122170060Y-103159618D01*
X122388757Y-103200500D01*
X122611241Y-103200500D01*
X122611243Y-103200500D01*
X122829940Y-103159618D01*
X123037401Y-103079247D01*
X123226562Y-102962124D01*
X123390981Y-102812236D01*
X123525058Y-102634689D01*
X123624229Y-102435528D01*
X123685115Y-102221536D01*
X123705643Y-102000000D01*
X123705643Y-101999999D01*
X127794357Y-101999999D01*
X127814885Y-102221537D01*
X127875769Y-102435526D01*
X127974941Y-102634688D01*
X128109019Y-102812237D01*
X128273437Y-102962124D01*
X128462595Y-103079245D01*
X128462597Y-103079245D01*
X128462599Y-103079247D01*
X128670060Y-103159618D01*
X128888757Y-103200500D01*
X129111241Y-103200500D01*
X129111243Y-103200500D01*
X129329940Y-103159618D01*
X129537401Y-103079247D01*
X129726562Y-102962124D01*
X129890981Y-102812236D01*
X130025058Y-102634689D01*
X130124229Y-102435528D01*
X130185115Y-102221536D01*
X130205643Y-102000000D01*
X130185115Y-101778464D01*
X130131000Y-101588268D01*
X130124230Y-101564473D01*
X130025058Y-101365311D01*
X129890980Y-101187762D01*
X129726562Y-101037875D01*
X129537404Y-100920754D01*
X129426994Y-100877981D01*
X129329940Y-100840382D01*
X129111243Y-100799500D01*
X128888757Y-100799500D01*
X128670060Y-100840381D01*
X128670060Y-100840382D01*
X128462595Y-100920754D01*
X128273437Y-101037875D01*
X128109019Y-101187762D01*
X127974941Y-101365311D01*
X127875769Y-101564473D01*
X127814885Y-101778462D01*
X127794357Y-101999999D01*
X123705643Y-101999999D01*
X123685115Y-101778464D01*
X123631000Y-101588268D01*
X123624230Y-101564473D01*
X123525058Y-101365311D01*
X123390980Y-101187762D01*
X123226562Y-101037875D01*
X123037404Y-100920754D01*
X122926994Y-100877981D01*
X122829940Y-100840382D01*
X122611243Y-100799500D01*
X122388757Y-100799500D01*
X122170060Y-100840381D01*
X122170060Y-100840382D01*
X121962595Y-100920754D01*
X121773437Y-101037875D01*
X121609019Y-101187762D01*
X121474941Y-101365311D01*
X121375769Y-101564473D01*
X121314885Y-101778462D01*
X121294357Y-102000000D01*
X107335500Y-102000000D01*
X107335500Y-99821999D01*
X109492356Y-99821999D01*
X109512891Y-100069816D01*
X109512891Y-100069819D01*
X109512892Y-100069821D01*
X109573937Y-100310881D01*
X109610945Y-100395250D01*
X109673825Y-100538604D01*
X109673827Y-100538607D01*
X109809836Y-100746785D01*
X109978256Y-100929738D01*
X109978259Y-100929740D01*
X110174485Y-101082470D01*
X110174487Y-101082471D01*
X110174491Y-101082474D01*
X110393190Y-101200828D01*
X110628386Y-101281571D01*
X110873665Y-101322500D01*
X111122335Y-101322500D01*
X111367614Y-101281571D01*
X111602810Y-101200828D01*
X111821509Y-101082474D01*
X112017744Y-100929738D01*
X112186164Y-100746785D01*
X112322173Y-100538607D01*
X112422063Y-100310881D01*
X112483108Y-100069821D01*
X112489225Y-99995999D01*
X139864785Y-99995999D01*
X139883602Y-100199083D01*
X139939418Y-100395251D01*
X140030324Y-100577818D01*
X140153236Y-100740580D01*
X140303958Y-100877981D01*
X140477361Y-100985347D01*
X140477363Y-100985348D01*
X140667544Y-101059024D01*
X140868024Y-101096500D01*
X141071974Y-101096500D01*
X141071976Y-101096500D01*
X141272456Y-101059024D01*
X141462637Y-100985348D01*
X141636041Y-100877981D01*
X141786764Y-100740579D01*
X141909673Y-100577821D01*
X141909673Y-100577819D01*
X141909675Y-100577818D01*
X141955313Y-100486161D01*
X142000582Y-100395250D01*
X142056397Y-100199083D01*
X142075215Y-99996000D01*
X142056397Y-99792917D01*
X142000582Y-99596750D01*
X141982695Y-99560827D01*
X141909675Y-99414181D01*
X141786763Y-99251419D01*
X141636041Y-99114018D01*
X141462638Y-99006652D01*
X141272457Y-98932976D01*
X141205629Y-98920483D01*
X141071976Y-98895500D01*
X140868024Y-98895500D01*
X140767784Y-98914237D01*
X140667542Y-98932976D01*
X140477361Y-99006652D01*
X140303958Y-99114018D01*
X140153236Y-99251419D01*
X140030324Y-99414181D01*
X139939418Y-99596748D01*
X139883602Y-99792916D01*
X139864785Y-99995999D01*
X112489225Y-99995999D01*
X112503643Y-99822000D01*
X112483108Y-99574179D01*
X112422063Y-99333119D01*
X112322173Y-99105393D01*
X112186164Y-98897215D01*
X112017744Y-98714262D01*
X111995612Y-98697036D01*
X111821514Y-98561529D01*
X111821510Y-98561526D01*
X111821509Y-98561526D01*
X111602810Y-98443172D01*
X111602806Y-98443170D01*
X111602805Y-98443170D01*
X111367615Y-98362429D01*
X111122335Y-98321500D01*
X110873665Y-98321500D01*
X110628384Y-98362429D01*
X110393194Y-98443170D01*
X110174485Y-98561529D01*
X109978259Y-98714259D01*
X109809837Y-98897214D01*
X109673825Y-99105395D01*
X109609774Y-99251419D01*
X109573937Y-99333119D01*
X109545478Y-99445500D01*
X109512891Y-99574183D01*
X109492356Y-99821999D01*
X107335500Y-99821999D01*
X107335500Y-97499999D01*
X121294357Y-97499999D01*
X121314885Y-97721537D01*
X121375769Y-97935526D01*
X121474941Y-98134688D01*
X121609019Y-98312237D01*
X121773437Y-98462124D01*
X121962595Y-98579245D01*
X121962597Y-98579245D01*
X121962599Y-98579247D01*
X122170060Y-98659618D01*
X122388757Y-98700500D01*
X122611241Y-98700500D01*
X122611243Y-98700500D01*
X122829940Y-98659618D01*
X123037401Y-98579247D01*
X123226562Y-98462124D01*
X123390981Y-98312236D01*
X123525058Y-98134689D01*
X123624229Y-97935528D01*
X123685115Y-97721536D01*
X123705643Y-97500000D01*
X123705643Y-97499999D01*
X127794357Y-97499999D01*
X127814885Y-97721537D01*
X127875769Y-97935526D01*
X127974941Y-98134688D01*
X128109019Y-98312237D01*
X128273437Y-98462124D01*
X128462595Y-98579245D01*
X128462597Y-98579245D01*
X128462599Y-98579247D01*
X128670060Y-98659618D01*
X128888757Y-98700500D01*
X129111241Y-98700500D01*
X129111243Y-98700500D01*
X129329940Y-98659618D01*
X129537401Y-98579247D01*
X129726562Y-98462124D01*
X129890981Y-98312236D01*
X130025058Y-98134689D01*
X130124229Y-97935528D01*
X130185115Y-97721536D01*
X130205643Y-97500000D01*
X130205272Y-97495999D01*
X139864785Y-97495999D01*
X139883602Y-97699083D01*
X139939418Y-97895251D01*
X140030324Y-98077818D01*
X140153236Y-98240580D01*
X140303958Y-98377981D01*
X140477361Y-98485347D01*
X140477363Y-98485348D01*
X140667544Y-98559024D01*
X140868024Y-98596500D01*
X141071974Y-98596500D01*
X141071976Y-98596500D01*
X141272456Y-98559024D01*
X141462637Y-98485348D01*
X141636041Y-98377981D01*
X141786764Y-98240579D01*
X141909673Y-98077821D01*
X141909673Y-98077819D01*
X141909675Y-98077818D01*
X141980527Y-97935526D01*
X142000582Y-97895250D01*
X142056397Y-97699083D01*
X142075215Y-97496000D01*
X142056397Y-97292917D01*
X142000582Y-97096750D01*
X141984510Y-97064472D01*
X141909675Y-96914181D01*
X141786763Y-96751419D01*
X141636041Y-96614018D01*
X141462638Y-96506652D01*
X141272457Y-96432976D01*
X141205629Y-96420483D01*
X141071976Y-96395500D01*
X140868024Y-96395500D01*
X140767783Y-96414238D01*
X140667542Y-96432976D01*
X140477361Y-96506652D01*
X140303958Y-96614018D01*
X140153236Y-96751419D01*
X140030324Y-96914181D01*
X139939418Y-97096748D01*
X139883602Y-97292916D01*
X139864785Y-97495999D01*
X130205272Y-97495999D01*
X130185115Y-97278464D01*
X130133413Y-97096750D01*
X130124230Y-97064473D01*
X130025058Y-96865311D01*
X129890980Y-96687762D01*
X129726562Y-96537875D01*
X129537404Y-96420754D01*
X129472216Y-96395500D01*
X129329940Y-96340382D01*
X129111243Y-96299500D01*
X128888757Y-96299500D01*
X128670060Y-96340381D01*
X128670060Y-96340382D01*
X128462595Y-96420754D01*
X128273437Y-96537875D01*
X128109019Y-96687762D01*
X127974941Y-96865311D01*
X127875769Y-97064473D01*
X127814885Y-97278462D01*
X127794357Y-97499999D01*
X123705643Y-97499999D01*
X123685115Y-97278464D01*
X123633413Y-97096750D01*
X123624230Y-97064473D01*
X123525058Y-96865311D01*
X123390980Y-96687762D01*
X123226562Y-96537875D01*
X123037404Y-96420754D01*
X122972216Y-96395500D01*
X122829940Y-96340382D01*
X122611243Y-96299500D01*
X122388757Y-96299500D01*
X122170060Y-96340381D01*
X122170060Y-96340382D01*
X121962595Y-96420754D01*
X121773437Y-96537875D01*
X121609019Y-96687762D01*
X121474941Y-96865311D01*
X121375769Y-97064473D01*
X121314885Y-97278462D01*
X121294357Y-97499999D01*
X107335500Y-97499999D01*
X107335500Y-95124000D01*
X107352113Y-95062000D01*
X107397500Y-95016613D01*
X107459500Y-95000000D01*
X140000000Y-95000000D01*
X140000000Y-84750000D01*
X140016613Y-84688000D01*
X140062000Y-84642613D01*
X140124000Y-84626000D01*
X146376000Y-84626000D01*
X146438000Y-84642613D01*
G37*
%TD.AperFunction*%
%TD*%
M02*
