M48
; DRILL file {KiCad (7.0.0)} date Thu Aug 10 01:03:05 2023
; FORMAT={-:-/ absolute / metric / decimal}
; #@! TF.CreationDate,2023-08-10T01:03:05-05:00
; #@! TF.GenerationSoftware,Kicad,Pcbnew,(7.0.0)
; #@! TF.FileFunction,MixedPlating,1,4
FMAT,2
METRIC
; #@! TA.AperFunction,Plated,PTH,ViaDrill
T1C0.400
; #@! TA.AperFunction,Plated,PTH,ComponentDrill
T2C1.000
; #@! TA.AperFunction,Plated,PTH,ComponentDrill
T3C1.100
; #@! TA.AperFunction,Plated,PTH,ComponentDrill
T4C2.200
; #@! TA.AperFunction,Plated,PTH,ComponentDrill
T5C2.300
; #@! TA.AperFunction,Plated,PTH,ComponentDrill
T6C2.500
; #@! TA.AperFunction,Plated,PTH,ComponentDrill
T7C3.000
; #@! TA.AperFunction,NonPlated,NPTH,ComponentDrill
T8C1.600
; #@! TA.AperFunction,NonPlated,NPTH,ComponentDrill
T9C3.200
%
G90
G05
T1
X114.5Y-95.75
X115.862Y-87.25
X117.0Y-66.25
X117.75Y-93.25
X118.25Y-52.5
X119.0Y-76.5
X119.294Y-66.456
X119.5Y-80.25
X120.0Y-73.5
X120.0Y-87.25
X120.5Y-69.75
X121.25Y-80.25
X121.25Y-87.25
X122.25Y-81.0
X122.5Y-87.25
X123.25Y-66.25
X124.25Y-69.75
X125.75Y-74.25
X126.0Y-94.0
X126.5Y-69.75
X126.5Y-87.25
X130.0Y-93.25
X130.75Y-77.5
X133.5Y-93.25
X134.831Y-91.669
X135.0Y-85.75
X139.75Y-84.0
X141.0Y-93.5
X141.0Y-94.75
X142.5Y-93.5
X142.5Y-94.75
X144.0Y-93.5
X144.0Y-94.75
X145.5Y-93.5
X145.5Y-94.75
X151.5Y-86.5
X151.5Y-87.75
X152.75Y-86.5
X152.75Y-87.75
X154.0Y-86.5
X154.0Y-87.75
X155.25Y-86.5
X155.25Y-87.75
X156.5Y-86.5
X156.5Y-87.75
X157.75Y-86.5
X157.75Y-87.75
X159.0Y-86.5
X159.0Y-87.75
T2
X109.75Y-59.25
X109.75Y-61.79
X109.75Y-64.33
X109.75Y-66.87
X113.455Y-105.905
X113.455Y-108.445
X115.995Y-105.905
X115.995Y-108.445
X117.71Y-57.75
X120.25Y-57.75
X122.79Y-57.75
X125.33Y-57.75
X127.87Y-57.75
X158.2Y-106.17
X158.2Y-108.71
X160.74Y-106.17
X160.74Y-108.71
T3
X122.5Y-97.5
X122.5Y-102.0
X129.0Y-97.5
X129.0Y-102.0
X134.75Y-97.25
X134.75Y-101.75
X141.25Y-97.25
X141.25Y-101.75
X147.25Y-97.5
X147.25Y-102.0
X153.75Y-97.5
X153.75Y-102.0
T4
X111.0Y-100.0
X116.25Y-100.0
T5
X148.5Y-54.25
T6
X144.0Y-53.25
X153.0Y-53.25
T7
X148.5Y-60.25
T8
X148.5Y-51.25
T9
X111.75Y-92.25
X112.0Y-52.0
X162.5Y-51.75
X162.75Y-92.25
T0
M30
