%TF.GenerationSoftware,KiCad,Pcbnew,7.0.1*%
%TF.CreationDate,2023-07-11T02:04:21-05:00*%
%TF.ProjectId,Power_Supply,506f7765-725f-4537-9570-706c792e6b69,1*%
%TF.SameCoordinates,Original*%
%TF.FileFunction,Copper,L1,Top*%
%TF.FilePolarity,Positive*%
%FSLAX46Y46*%
G04 Gerber Fmt 4.6, Leading zero omitted, Abs format (unit mm)*
G04 Created by KiCad (PCBNEW 7.0.1) date 2023-07-11 02:04:21*
%MOMM*%
%LPD*%
G01*
G04 APERTURE LIST*
G04 Aperture macros list*
%AMRoundRect*
0 Rectangle with rounded corners*
0 $1 Rounding radius*
0 $2 $3 $4 $5 $6 $7 $8 $9 X,Y pos of 4 corners*
0 Add a 4 corners polygon primitive as box body*
4,1,4,$2,$3,$4,$5,$6,$7,$8,$9,$2,$3,0*
0 Add four circle primitives for the rounded corners*
1,1,$1+$1,$2,$3*
1,1,$1+$1,$4,$5*
1,1,$1+$1,$6,$7*
1,1,$1+$1,$8,$9*
0 Add four rect primitives between the rounded corners*
20,1,$1+$1,$2,$3,$4,$5,0*
20,1,$1+$1,$4,$5,$6,$7,0*
20,1,$1+$1,$6,$7,$8,$9,0*
20,1,$1+$1,$8,$9,$2,$3,0*%
G04 Aperture macros list end*
%TA.AperFunction,SMDPad,CuDef*%
%ADD10RoundRect,0.250000X-0.337500X-0.475000X0.337500X-0.475000X0.337500X0.475000X-0.337500X0.475000X0*%
%TD*%
%TA.AperFunction,SMDPad,CuDef*%
%ADD11R,1.200000X3.500000*%
%TD*%
%TA.AperFunction,ComponentPad*%
%ADD12C,2.000000*%
%TD*%
%TA.AperFunction,SMDPad,CuDef*%
%ADD13RoundRect,0.250000X0.337500X0.475000X-0.337500X0.475000X-0.337500X-0.475000X0.337500X-0.475000X0*%
%TD*%
%TA.AperFunction,SMDPad,CuDef*%
%ADD14RoundRect,0.237500X0.237500X-0.300000X0.237500X0.300000X-0.237500X0.300000X-0.237500X-0.300000X0*%
%TD*%
%TA.AperFunction,SMDPad,CuDef*%
%ADD15RoundRect,0.237500X0.300000X0.237500X-0.300000X0.237500X-0.300000X-0.237500X0.300000X-0.237500X0*%
%TD*%
%TA.AperFunction,SMDPad,CuDef*%
%ADD16RoundRect,0.250000X0.362500X0.700000X-0.362500X0.700000X-0.362500X-0.700000X0.362500X-0.700000X0*%
%TD*%
%TA.AperFunction,SMDPad,CuDef*%
%ADD17R,3.400000X0.980000*%
%TD*%
%TA.AperFunction,SMDPad,CuDef*%
%ADD18RoundRect,0.237500X-0.300000X-0.237500X0.300000X-0.237500X0.300000X0.237500X-0.300000X0.237500X0*%
%TD*%
%TA.AperFunction,SMDPad,CuDef*%
%ADD19RoundRect,0.225000X-0.375000X0.225000X-0.375000X-0.225000X0.375000X-0.225000X0.375000X0.225000X0*%
%TD*%
%TA.AperFunction,SMDPad,CuDef*%
%ADD20R,0.850000X0.300000*%
%TD*%
%TA.AperFunction,SMDPad,CuDef*%
%ADD21R,1.700000X2.500000*%
%TD*%
%TA.AperFunction,SMDPad,CuDef*%
%ADD22RoundRect,0.155000X0.155000X-0.212500X0.155000X0.212500X-0.155000X0.212500X-0.155000X-0.212500X0*%
%TD*%
%TA.AperFunction,ComponentPad*%
%ADD23C,2.600000*%
%TD*%
%TA.AperFunction,ConnectorPad*%
%ADD24C,3.800000*%
%TD*%
%TA.AperFunction,ComponentPad*%
%ADD25R,1.700000X1.700000*%
%TD*%
%TA.AperFunction,ComponentPad*%
%ADD26O,1.700000X1.700000*%
%TD*%
%TA.AperFunction,SMDPad,CuDef*%
%ADD27R,1.100000X2.000000*%
%TD*%
%TA.AperFunction,SMDPad,CuDef*%
%ADD28R,0.800000X0.800000*%
%TD*%
%TA.AperFunction,SMDPad,CuDef*%
%ADD29RoundRect,0.160000X-0.160000X0.197500X-0.160000X-0.197500X0.160000X-0.197500X0.160000X0.197500X0*%
%TD*%
%TA.AperFunction,SMDPad,CuDef*%
%ADD30RoundRect,0.160000X-0.197500X-0.160000X0.197500X-0.160000X0.197500X0.160000X-0.197500X0.160000X0*%
%TD*%
%TA.AperFunction,SMDPad,CuDef*%
%ADD31R,0.700000X1.525000*%
%TD*%
%TA.AperFunction,ComponentPad*%
%ADD32R,4.000000X4.000000*%
%TD*%
%TA.AperFunction,ComponentPad*%
%ADD33C,3.300000*%
%TD*%
%TA.AperFunction,ComponentPad*%
%ADD34C,3.500000*%
%TD*%
%TA.AperFunction,SMDPad,CuDef*%
%ADD35RoundRect,0.160000X0.160000X-0.197500X0.160000X0.197500X-0.160000X0.197500X-0.160000X-0.197500X0*%
%TD*%
%TA.AperFunction,SMDPad,CuDef*%
%ADD36R,0.600000X0.250000*%
%TD*%
%TA.AperFunction,SMDPad,CuDef*%
%ADD37R,0.250000X0.600000*%
%TD*%
%TA.AperFunction,SMDPad,CuDef*%
%ADD38R,0.250000X0.250000*%
%TD*%
%TA.AperFunction,SMDPad,CuDef*%
%ADD39R,1.350000X0.250000*%
%TD*%
%TA.AperFunction,SMDPad,CuDef*%
%ADD40R,1.700000X0.250000*%
%TD*%
%TA.AperFunction,SMDPad,CuDef*%
%ADD41RoundRect,0.250000X0.450000X-0.325000X0.450000X0.325000X-0.450000X0.325000X-0.450000X-0.325000X0*%
%TD*%
%TA.AperFunction,SMDPad,CuDef*%
%ADD42RoundRect,0.237500X-0.237500X0.300000X-0.237500X-0.300000X0.237500X-0.300000X0.237500X0.300000X0*%
%TD*%
%TA.AperFunction,SMDPad,CuDef*%
%ADD43R,0.400000X1.350000*%
%TD*%
%TA.AperFunction,SMDPad,CuDef*%
%ADD44R,1.450000X1.300000*%
%TD*%
%TA.AperFunction,SMDPad,CuDef*%
%ADD45R,1.600000X1.400000*%
%TD*%
%TA.AperFunction,SMDPad,CuDef*%
%ADD46R,1.900000X1.900000*%
%TD*%
%TA.AperFunction,SMDPad,CuDef*%
%ADD47RoundRect,0.250000X0.625000X-0.400000X0.625000X0.400000X-0.625000X0.400000X-0.625000X-0.400000X0*%
%TD*%
%TA.AperFunction,SMDPad,CuDef*%
%ADD48RoundRect,0.075000X-0.700000X-0.075000X0.700000X-0.075000X0.700000X0.075000X-0.700000X0.075000X0*%
%TD*%
%TA.AperFunction,SMDPad,CuDef*%
%ADD49RoundRect,0.075000X-0.075000X-0.700000X0.075000X-0.700000X0.075000X0.700000X-0.075000X0.700000X0*%
%TD*%
%TA.AperFunction,ViaPad*%
%ADD50C,0.800000*%
%TD*%
%TA.AperFunction,Conductor*%
%ADD51C,0.500000*%
%TD*%
%TA.AperFunction,Conductor*%
%ADD52C,0.250000*%
%TD*%
G04 APERTURE END LIST*
D10*
%TO.P,C5,1*%
%TO.N,ADC*%
X125842500Y-84060000D03*
%TO.P,C5,2*%
%TO.N,GND*%
X127917500Y-84060000D03*
%TD*%
D11*
%TO.P,Y1,1,1*%
%TO.N,Net-(U1-PH1)*%
X137525000Y-77495000D03*
%TO.P,Y1,2,2*%
%TO.N,Net-(U1-PH0)*%
X137525000Y-71995000D03*
%TD*%
D12*
%TO.P,SW3,1,1*%
%TO.N,POT_BTN_DWN*%
X142980000Y-91380000D03*
X142980000Y-97880000D03*
%TO.P,SW3,2,2*%
%TO.N,GND*%
X138480000Y-91380000D03*
X138480000Y-97880000D03*
%TD*%
D13*
%TO.P,C7,1*%
%TO.N,Main_in*%
X120567500Y-70190000D03*
%TO.P,C7,2*%
%TO.N,GND*%
X118492500Y-70190000D03*
%TD*%
D14*
%TO.P,C11,1*%
%TO.N,+3.3V*%
X114435000Y-63087500D03*
%TO.P,C11,2*%
%TO.N,GND*%
X114435000Y-61362500D03*
%TD*%
D15*
%TO.P,C16,1*%
%TO.N,GND*%
X155587500Y-85235000D03*
%TO.P,C16,2*%
%TO.N,/VCAP*%
X153862500Y-85235000D03*
%TD*%
D16*
%TO.P,FB1,1*%
%TO.N,/MCU_POWER/RAW_FILTER*%
X129757500Y-64675000D03*
%TO.P,FB1,2*%
%TO.N,Main_in*%
X126432500Y-64675000D03*
%TD*%
D17*
%TO.P,L1,1,1*%
%TO.N,/Output_circuitry/L1*%
X124375000Y-77830000D03*
%TO.P,L1,2,2*%
%TO.N,/Output_circuitry/L2*%
X124375000Y-75460000D03*
%TD*%
D18*
%TO.P,C17,1*%
%TO.N,+3.3V*%
X159250000Y-78980000D03*
%TO.P,C17,2*%
%TO.N,GND*%
X160975000Y-78980000D03*
%TD*%
%TO.P,C18,1*%
%TO.N,+3.3V*%
X159250000Y-75990000D03*
%TO.P,C18,2*%
%TO.N,GND*%
X160975000Y-75990000D03*
%TD*%
%TO.P,C23,1*%
%TO.N,+3.3V*%
X159250000Y-72630000D03*
%TO.P,C23,2*%
%TO.N,GND*%
X160975000Y-72630000D03*
%TD*%
D19*
%TO.P,D3,1,K*%
%TO.N,/MCU_POWER/RAW_FILTER*%
X136480000Y-64462500D03*
%TO.P,D3,2,A*%
%TO.N,GND*%
X136480000Y-67762500D03*
%TD*%
D20*
%TO.P,IC3,1,GND*%
%TO.N,GND*%
X118895000Y-64720000D03*
%TO.P,IC3,2,EN*%
%TO.N,Main_in*%
X118895000Y-63770000D03*
%TO.P,IC3,3,VIN*%
X118895000Y-62820000D03*
%TO.P,IC3,4,VOUT*%
%TO.N,+3.3V*%
X115995000Y-62820000D03*
%TO.P,IC3,5,VSENSE*%
X115995000Y-63770000D03*
%TO.P,IC3,6,ADJ/NC*%
%TO.N,unconnected-(IC3-ADJ{slash}NC-Pad6)*%
X115995000Y-64720000D03*
D21*
%TO.P,IC3,7,EP*%
%TO.N,GND*%
X117445000Y-63770000D03*
%TD*%
D22*
%TO.P,C4,1*%
%TO.N,GND*%
X117145000Y-78272500D03*
%TO.P,C4,2*%
%TO.N,/Output_circuitry/Vaux*%
X117145000Y-77137500D03*
%TD*%
D23*
%TO.P,H6,1,1*%
%TO.N,GND*%
X159350000Y-90610000D03*
D24*
X159350000Y-90610000D03*
%TD*%
D13*
%TO.P,C2,2*%
%TO.N,GND*%
X118797500Y-83935000D03*
%TO.P,C2,1*%
%TO.N,ADC*%
X120872500Y-83935000D03*
%TD*%
D25*
%TO.P,J4,1,Pin_1*%
%TO.N,+3.3V*%
X165360000Y-58830000D03*
D26*
%TO.P,J4,2,Pin_2*%
%TO.N,SWCLK*%
X165360000Y-61370000D03*
%TO.P,J4,3,Pin_3*%
%TO.N,GND*%
X165360000Y-63910000D03*
%TO.P,J4,4,Pin_4*%
%TO.N,SWDIO*%
X165360000Y-66450000D03*
%TO.P,J4,5,Pin_5*%
%TO.N,SWO*%
X165360000Y-68990000D03*
%TD*%
D18*
%TO.P,C15,1*%
%TO.N,GND*%
X132712500Y-85525000D03*
%TO.P,C15,2*%
%TO.N,/NRST*%
X134437500Y-85525000D03*
%TD*%
D27*
%TO.P,D1,1,K*%
%TO.N,/MCU_POWER/RAW_FILTER*%
X141315000Y-61645000D03*
D28*
%TO.P,D1,2,A*%
%TO.N,/MCU_POWER/JACK_OUT*%
X141315000Y-59745000D03*
%TD*%
D12*
%TO.P,SW1,1,1*%
%TO.N,GND*%
X124830000Y-97740000D03*
X124830000Y-91240000D03*
%TO.P,SW1,2,2*%
%TO.N,/NRST*%
X129330000Y-97740000D03*
X129330000Y-91240000D03*
%TD*%
D29*
%TO.P,R7,1*%
%TO.N,+3.3V*%
X153650000Y-67742500D03*
%TO.P,R7,2*%
%TO.N,/BOOT*%
X153650000Y-68937500D03*
%TD*%
D18*
%TO.P,C14,1*%
%TO.N,GND*%
X132042500Y-77465000D03*
%TO.P,C14,2*%
%TO.N,Net-(U1-PH1)*%
X133767500Y-77465000D03*
%TD*%
D30*
%TO.P,R6,1*%
%TO.N,GND*%
X132032500Y-81790000D03*
%TO.P,R6,2*%
%TO.N,Net-(U1-PA1)*%
X133227500Y-81790000D03*
%TD*%
D13*
%TO.P,C8,1*%
%TO.N,Main_in*%
X120587500Y-72280000D03*
%TO.P,C8,2*%
%TO.N,GND*%
X118512500Y-72280000D03*
%TD*%
D23*
%TO.P,H5,1,1*%
%TO.N,ADC*%
X164880000Y-90680000D03*
D24*
X164880000Y-90680000D03*
%TD*%
D31*
%TO.P,IC2,1,~{PU}*%
%TO.N,PU*%
X112865000Y-86519000D03*
%TO.P,IC2,2,~{PD}*%
%TO.N,PD*%
X114135000Y-86519000D03*
%TO.P,IC2,3,RH*%
%TO.N,ADC*%
X115405000Y-86519000D03*
%TO.P,IC2,4,VSS*%
%TO.N,GND*%
X116675000Y-86519000D03*
%TO.P,IC2,5,RW*%
%TO.N,Wiper*%
X116675000Y-81095000D03*
%TO.P,IC2,6,RL*%
%TO.N,GND*%
X115405000Y-81095000D03*
%TO.P,IC2,7,NC*%
%TO.N,unconnected-(IC2-NC-Pad7)*%
X114135000Y-81095000D03*
%TO.P,IC2,8,VCC*%
%TO.N,+3.3V*%
X112865000Y-81095000D03*
%TD*%
D18*
%TO.P,C22,1*%
%TO.N,+3.3V*%
X147675000Y-65325000D03*
%TO.P,C22,2*%
%TO.N,GND*%
X149400000Y-65325000D03*
%TD*%
D32*
%TO.P,J1,1*%
%TO.N,/MCU_POWER/JACK_OUT*%
X149995000Y-60365000D03*
D33*
%TO.P,J1,2*%
%TO.N,GND*%
X149995000Y-54365000D03*
D34*
%TO.P,J1,MP*%
%TO.N,N/C*%
X154495000Y-53365000D03*
X145495000Y-53365000D03*
%TD*%
D18*
%TO.P,C9,1*%
%TO.N,GND*%
X147707500Y-85280000D03*
%TO.P,C9,2*%
%TO.N,+3.3V*%
X149432500Y-85280000D03*
%TD*%
D35*
%TO.P,R4,1*%
%TO.N,Net-(D4-K)*%
X123865000Y-52992500D03*
%TO.P,R4,2*%
%TO.N,GND*%
X123865000Y-51797500D03*
%TD*%
D14*
%TO.P,C19,1*%
%TO.N,+3.3V*%
X143585000Y-72397500D03*
%TO.P,C19,2*%
%TO.N,GND*%
X143585000Y-70672500D03*
%TD*%
D36*
%TO.P,IC1,1,PS/S*%
%TO.N,/Output_circuitry/EN*%
X118559000Y-75745000D03*
%TO.P,IC1,2,PG*%
%TO.N,/Output_circuitry/PG*%
X118559000Y-76245000D03*
%TO.P,IC1,3,VAUX*%
%TO.N,/Output_circuitry/Vaux*%
X118559000Y-76745000D03*
%TO.P,IC1,4,GND*%
%TO.N,GND*%
X118559000Y-77245000D03*
D37*
%TO.P,IC1,5,FB*%
%TO.N,Wiper*%
X118985000Y-77895000D03*
%TO.P,IC1,6,FB2*%
%TO.N,GND*%
X119485000Y-77895000D03*
%TO.P,IC1,7,VOUT_1*%
%TO.N,ADC*%
X119985000Y-77895000D03*
D38*
%TO.P,IC1,8,VOUT_2*%
X120235000Y-77720000D03*
D37*
X120485000Y-77895000D03*
D39*
%TO.P,IC1,9,L2*%
%TO.N,/Output_circuitry/L1*%
X120485000Y-76995000D03*
D40*
%TO.P,IC1,10,PGND*%
%TO.N,GND*%
X120310000Y-76495000D03*
D39*
%TO.P,IC1,11,L1*%
%TO.N,/Output_circuitry/L2*%
X120485000Y-75995000D03*
D38*
%TO.P,IC1,12,VIN_1*%
%TO.N,Main_in*%
X120235000Y-75270000D03*
D37*
X120485000Y-75095000D03*
%TO.P,IC1,13,VIN_2*%
X119985000Y-75095000D03*
%TO.P,IC1,14,EN*%
%TO.N,/Output_circuitry/EN*%
X119485000Y-75095000D03*
%TO.P,IC1,15,VSEL*%
%TO.N,GND*%
X118985000Y-75095000D03*
%TD*%
D27*
%TO.P,D2,1,K*%
%TO.N,/MCU_POWER/RAW_FILTER*%
X136445000Y-61635000D03*
D28*
%TO.P,D2,2,A*%
%TO.N,/MCU_POWER/USB_OUT*%
X136445000Y-59735000D03*
%TD*%
D13*
%TO.P,C1,1*%
%TO.N,ADC*%
X120862500Y-81765000D03*
%TO.P,C1,2*%
%TO.N,GND*%
X118787500Y-81765000D03*
%TD*%
D41*
%TO.P,D4,1,K*%
%TO.N,Net-(D4-K)*%
X125935000Y-54210000D03*
%TO.P,D4,2,A*%
%TO.N,+3.3V*%
X125935000Y-52160000D03*
%TD*%
D42*
%TO.P,C24,1*%
%TO.N,/MCU_POWER/RAW_FILTER*%
X133130000Y-65307500D03*
%TO.P,C24,2*%
%TO.N,GND*%
X133130000Y-67032500D03*
%TD*%
%TO.P,C12,1*%
%TO.N,GND*%
X143445000Y-76725000D03*
%TO.P,C12,2*%
%TO.N,+3.3V*%
X143445000Y-78450000D03*
%TD*%
D14*
%TO.P,C20,1*%
%TO.N,+3.3V*%
X141065000Y-72487500D03*
%TO.P,C20,2*%
%TO.N,GND*%
X141065000Y-70762500D03*
%TD*%
%TO.P,C10,1*%
%TO.N,Main_in*%
X120455000Y-62867500D03*
%TO.P,C10,2*%
%TO.N,GND*%
X120455000Y-61142500D03*
%TD*%
D43*
%TO.P,J2,1,VBUS*%
%TO.N,/MCU_POWER/USB_OUT*%
X137515000Y-53740000D03*
%TO.P,J2,2,D-*%
%TO.N,unconnected-(J2-D--Pad2)*%
X136865000Y-53740000D03*
%TO.P,J2,3,D+*%
%TO.N,unconnected-(J2-D+-Pad3)*%
X136215000Y-53740000D03*
%TO.P,J2,4,GND*%
%TO.N,GND*%
X135565000Y-53740000D03*
%TO.P,J2,5,Shield*%
X134915000Y-53740000D03*
D44*
%TO.P,J2,MP1*%
%TO.N,N/C*%
X139640000Y-51065000D03*
%TO.P,J2,MP2*%
X132790000Y-51065000D03*
D45*
%TO.P,J2,MP3*%
X139415000Y-53515000D03*
%TO.P,J2,MP4*%
X133015000Y-53515000D03*
D46*
%TO.P,J2,MP5*%
X137415000Y-51065000D03*
%TO.P,J2,MP6*%
X135015000Y-51065000D03*
%TD*%
D47*
%TO.P,R1,1*%
%TO.N,ADC*%
X113435000Y-78585000D03*
%TO.P,R1,2*%
%TO.N,/Output_circuitry/PG*%
X113435000Y-75485000D03*
%TD*%
D10*
%TO.P,C3,1*%
%TO.N,ADC*%
X125787500Y-81765000D03*
%TO.P,C3,2*%
%TO.N,GND*%
X127862500Y-81765000D03*
%TD*%
D18*
%TO.P,C13,1*%
%TO.N,GND*%
X132242500Y-72015000D03*
%TO.P,C13,2*%
%TO.N,Net-(U1-PH0)*%
X133967500Y-72015000D03*
%TD*%
D13*
%TO.P,C6,1*%
%TO.N,Main_in*%
X120577500Y-68100000D03*
%TO.P,C6,2*%
%TO.N,GND*%
X118502500Y-68100000D03*
%TD*%
D12*
%TO.P,SW2,1,1*%
%TO.N,POT_BTN_UP*%
X152880000Y-91290000D03*
X152880000Y-97790000D03*
%TO.P,SW2,2,2*%
%TO.N,GND*%
X148380000Y-91290000D03*
X148380000Y-97790000D03*
%TD*%
D29*
%TO.P,R3,1*%
%TO.N,GND*%
X151250000Y-67662500D03*
%TO.P,R3,2*%
%TO.N,/BOOT*%
X151250000Y-68857500D03*
%TD*%
D30*
%TO.P,R2,1*%
%TO.N,/Output_circuitry/EN*%
X119137500Y-73877015D03*
%TO.P,R2,2*%
%TO.N,Main_in*%
X120332500Y-73877015D03*
%TD*%
D48*
%TO.P,U1,1,VBAT*%
%TO.N,+3.3V*%
X145835000Y-72505000D03*
%TO.P,U1,2,PC13*%
%TO.N,unconnected-(U1-PC13-Pad2)*%
X145835000Y-73005000D03*
%TO.P,U1,3,PC14*%
%TO.N,unconnected-(U1-PC14-Pad3)*%
X145835000Y-73505000D03*
%TO.P,U1,4,PC15*%
%TO.N,unconnected-(U1-PC15-Pad4)*%
X145835000Y-74005000D03*
%TO.P,U1,5,PH0*%
%TO.N,Net-(U1-PH0)*%
X145835000Y-74505000D03*
%TO.P,U1,6,PH1*%
%TO.N,Net-(U1-PH1)*%
X145835000Y-75005000D03*
%TO.P,U1,7,NRST*%
%TO.N,/NRST*%
X145835000Y-75505000D03*
%TO.P,U1,8,PC0*%
%TO.N,unconnected-(U1-PC0-Pad8)*%
X145835000Y-76005000D03*
%TO.P,U1,9,PC1*%
%TO.N,unconnected-(U1-PC1-Pad9)*%
X145835000Y-76505000D03*
%TO.P,U1,10,PC2*%
%TO.N,unconnected-(U1-PC2-Pad10)*%
X145835000Y-77005000D03*
%TO.P,U1,11,PC3*%
%TO.N,unconnected-(U1-PC3-Pad11)*%
X145835000Y-77505000D03*
%TO.P,U1,12,VSSA*%
%TO.N,GND*%
X145835000Y-78005000D03*
%TO.P,U1,13,VREF+*%
%TO.N,+3.3V*%
X145835000Y-78505000D03*
%TO.P,U1,14,PA0*%
%TO.N,unconnected-(U1-PA0-Pad14)*%
X145835000Y-79005000D03*
%TO.P,U1,15,PA1*%
%TO.N,Net-(U1-PA1)*%
X145835000Y-79505000D03*
%TO.P,U1,16,PA2*%
%TO.N,unconnected-(U1-PA2-Pad16)*%
X145835000Y-80005000D03*
D49*
%TO.P,U1,17,PA3*%
%TO.N,unconnected-(U1-PA3-Pad17)*%
X147760000Y-81930000D03*
%TO.P,U1,18,VSS*%
%TO.N,GND*%
X148260000Y-81930000D03*
%TO.P,U1,19,VDD*%
%TO.N,+3.3V*%
X148760000Y-81930000D03*
%TO.P,U1,20,PA4*%
%TO.N,PU*%
X149260000Y-81930000D03*
%TO.P,U1,21,PA5*%
%TO.N,PD*%
X149760000Y-81930000D03*
%TO.P,U1,22,PA6*%
%TO.N,POT_BTN_UP*%
X150260000Y-81930000D03*
%TO.P,U1,23,PA7*%
%TO.N,POT_BTN_DWN*%
X150760000Y-81930000D03*
%TO.P,U1,24,PC4*%
%TO.N,unconnected-(U1-PC4-Pad24)*%
X151260000Y-81930000D03*
%TO.P,U1,25,PC5*%
%TO.N,unconnected-(U1-PC5-Pad25)*%
X151760000Y-81930000D03*
%TO.P,U1,26,PB0*%
%TO.N,unconnected-(U1-PB0-Pad26)*%
X152260000Y-81930000D03*
%TO.P,U1,27,PB1*%
%TO.N,unconnected-(U1-PB1-Pad27)*%
X152760000Y-81930000D03*
%TO.P,U1,28,PB2*%
%TO.N,unconnected-(U1-PB2-Pad28)*%
X153260000Y-81930000D03*
%TO.P,U1,29,PB10*%
%TO.N,unconnected-(U1-PB10-Pad29)*%
X153760000Y-81930000D03*
%TO.P,U1,30,VCAP1*%
%TO.N,/VCAP*%
X154260000Y-81930000D03*
%TO.P,U1,31,VSS*%
%TO.N,GND*%
X154760000Y-81930000D03*
%TO.P,U1,32,VDD*%
%TO.N,+3.3V*%
X155260000Y-81930000D03*
D48*
%TO.P,U1,33,PB12*%
%TO.N,unconnected-(U1-PB12-Pad33)*%
X157185000Y-80005000D03*
%TO.P,U1,34,PB13*%
%TO.N,unconnected-(U1-PB13-Pad34)*%
X157185000Y-79505000D03*
%TO.P,U1,35,PB14*%
%TO.N,unconnected-(U1-PB14-Pad35)*%
X157185000Y-79005000D03*
%TO.P,U1,36,PB15*%
%TO.N,unconnected-(U1-PB15-Pad36)*%
X157185000Y-78505000D03*
%TO.P,U1,37,PC6*%
%TO.N,unconnected-(U1-PC6-Pad37)*%
X157185000Y-78005000D03*
%TO.P,U1,38,PC7*%
%TO.N,unconnected-(U1-PC7-Pad38)*%
X157185000Y-77505000D03*
%TO.P,U1,39,PC8*%
%TO.N,unconnected-(U1-PC8-Pad39)*%
X157185000Y-77005000D03*
%TO.P,U1,40,PC9*%
%TO.N,unconnected-(U1-PC9-Pad40)*%
X157185000Y-76505000D03*
%TO.P,U1,41,PA8*%
%TO.N,unconnected-(U1-PA8-Pad41)*%
X157185000Y-76005000D03*
%TO.P,U1,42,PA9*%
%TO.N,unconnected-(U1-PA9-Pad42)*%
X157185000Y-75505000D03*
%TO.P,U1,43,PA10*%
%TO.N,unconnected-(U1-PA10-Pad43)*%
X157185000Y-75005000D03*
%TO.P,U1,44,PA11*%
%TO.N,unconnected-(U1-PA11-Pad44)*%
X157185000Y-74505000D03*
%TO.P,U1,45,PA12*%
%TO.N,unconnected-(U1-PA12-Pad45)*%
X157185000Y-74005000D03*
%TO.P,U1,46,PA13*%
%TO.N,SWDIO*%
X157185000Y-73505000D03*
%TO.P,U1,47,VSS*%
%TO.N,GND*%
X157185000Y-73005000D03*
%TO.P,U1,48,VDD*%
%TO.N,+3.3V*%
X157185000Y-72505000D03*
D49*
%TO.P,U1,49,PA14*%
%TO.N,SWCLK*%
X155260000Y-70580000D03*
%TO.P,U1,50,PA15*%
%TO.N,unconnected-(U1-PA15-Pad50)*%
X154760000Y-70580000D03*
%TO.P,U1,51,PC10*%
%TO.N,unconnected-(U1-PC10-Pad51)*%
X154260000Y-70580000D03*
%TO.P,U1,52,PC11*%
%TO.N,unconnected-(U1-PC11-Pad52)*%
X153760000Y-70580000D03*
%TO.P,U1,53,PC12*%
%TO.N,unconnected-(U1-PC12-Pad53)*%
X153260000Y-70580000D03*
%TO.P,U1,54,PD2*%
%TO.N,unconnected-(U1-PD2-Pad54)*%
X152760000Y-70580000D03*
%TO.P,U1,55,PB3*%
%TO.N,SWO*%
X152260000Y-70580000D03*
%TO.P,U1,56,PB4*%
%TO.N,unconnected-(U1-PB4-Pad56)*%
X151760000Y-70580000D03*
%TO.P,U1,57,PB5*%
%TO.N,unconnected-(U1-PB5-Pad57)*%
X151260000Y-70580000D03*
%TO.P,U1,58,PB6*%
%TO.N,unconnected-(U1-PB6-Pad58)*%
X150760000Y-70580000D03*
%TO.P,U1,59,PB7*%
%TO.N,unconnected-(U1-PB7-Pad59)*%
X150260000Y-70580000D03*
%TO.P,U1,60,BOOT0*%
%TO.N,/BOOT*%
X149760000Y-70580000D03*
%TO.P,U1,61,PB8*%
%TO.N,SCL*%
X149260000Y-70580000D03*
%TO.P,U1,62,PB9*%
%TO.N,SDA*%
X148760000Y-70580000D03*
%TO.P,U1,63,VSS*%
%TO.N,GND*%
X148260000Y-70580000D03*
%TO.P,U1,64,VDD*%
%TO.N,+3.3V*%
X147760000Y-70580000D03*
%TD*%
D30*
%TO.P,R5,1*%
%TO.N,ADC*%
X132002500Y-83850000D03*
%TO.P,R5,2*%
%TO.N,Net-(U1-PA1)*%
X133197500Y-83850000D03*
%TD*%
D25*
%TO.P,J3,1,Pin_1*%
%TO.N,+3.3V*%
X165590000Y-74660000D03*
D26*
%TO.P,J3,2,Pin_2*%
%TO.N,SCL*%
X165590000Y-77200000D03*
%TO.P,J3,3,Pin_3*%
%TO.N,SDA*%
X165590000Y-79740000D03*
%TO.P,J3,4,Pin_4*%
%TO.N,GND*%
X165590000Y-82280000D03*
%TD*%
D18*
%TO.P,C21,1*%
%TO.N,+3.3V*%
X147682500Y-68315000D03*
%TO.P,C21,2*%
%TO.N,GND*%
X149407500Y-68315000D03*
%TD*%
D25*
%TO.P,J10,1,Pin_1*%
%TO.N,ADC*%
X117295000Y-109155000D03*
D26*
%TO.P,J10,2,Pin_2*%
X117295000Y-106615000D03*
%TO.P,J10,3,Pin_3*%
%TO.N,GND*%
X114755000Y-109155000D03*
%TO.P,J10,4,Pin_4*%
X114755000Y-106615000D03*
%TD*%
D25*
%TO.P,J5,1,Pin_1*%
%TO.N,ADC*%
X162275000Y-109365000D03*
D26*
%TO.P,J5,2,Pin_2*%
X162275000Y-106825000D03*
%TO.P,J5,3,Pin_3*%
%TO.N,GND*%
X159735000Y-109365000D03*
%TO.P,J5,4,Pin_4*%
X159735000Y-106825000D03*
%TD*%
D50*
%TO.N,GND*%
X133295000Y-56725000D03*
X123825000Y-50335000D03*
X124750000Y-79720000D03*
X126590000Y-73910000D03*
X134655000Y-56735000D03*
X116280000Y-78190000D03*
X122810000Y-73860000D03*
X116755000Y-68355000D03*
X150905000Y-65285000D03*
X154492205Y-72567961D03*
X160972500Y-82220000D03*
X147411000Y-77209807D03*
X132695000Y-87075000D03*
X142000000Y-76740000D03*
X116425000Y-61490000D03*
X138445000Y-67855000D03*
X123080000Y-79700000D03*
X118400000Y-61445000D03*
X116455000Y-66050000D03*
X136015000Y-56765000D03*
X126460000Y-79710000D03*
X130676250Y-72055000D03*
X119110000Y-86290000D03*
X116280000Y-79200000D03*
X116775000Y-70365000D03*
X118120000Y-86280000D03*
X124680000Y-73860000D03*
X145655000Y-70665000D03*
X117445000Y-66030000D03*
X116755000Y-74275000D03*
X130695000Y-77495000D03*
X116755000Y-72455000D03*
X117410000Y-61465000D03*
X118430000Y-66005000D03*
X154265000Y-79615000D03*
%TO.N,+3.3V*%
X125915000Y-50335000D03*
X153650000Y-65300000D03*
X110855000Y-62840000D03*
X110835000Y-63720000D03*
X141960000Y-78980000D03*
X112035000Y-63710000D03*
X145935000Y-65325000D03*
X158254799Y-71504799D03*
X110855000Y-64650000D03*
X141055000Y-73780500D03*
X112055000Y-62830000D03*
X112055000Y-64640000D03*
X148860000Y-79104500D03*
X111385000Y-81115000D03*
%TO.N,PU*%
X112815000Y-88455000D03*
X150017037Y-78614500D03*
%TO.N,PD*%
X114195000Y-88425500D03*
X151395000Y-77955000D03*
%TO.N,SCL*%
X149835000Y-73495000D03*
X163400000Y-77175000D03*
%TO.N,SDA*%
X163440000Y-79735000D03*
X148435000Y-73635000D03*
%TO.N,SWDIO*%
X155230000Y-73505000D03*
%TO.N,SWO*%
X165444998Y-71195000D03*
X152610000Y-74000000D03*
%TO.N,POT_BTN_DWN*%
X151200000Y-84340000D03*
%TO.N,ADC*%
X115415000Y-87975999D03*
X115125000Y-78585000D03*
%TD*%
D51*
%TO.N,GND*%
X132032500Y-77475000D02*
X132042500Y-77465000D01*
X132032500Y-81790000D02*
X132032500Y-77475000D01*
%TO.N,ADC*%
X130640000Y-84770000D02*
X130640000Y-86480000D01*
X130640000Y-86480000D02*
X130610000Y-86510000D01*
X131560000Y-83850000D02*
X130640000Y-84770000D01*
X132002500Y-83850000D02*
X131560000Y-83850000D01*
%TO.N,Net-(U1-PA1)*%
X133227500Y-83820000D02*
X133197500Y-83850000D01*
X133227500Y-81790000D02*
X133227500Y-83820000D01*
D52*
X133307500Y-81790000D02*
X133247500Y-81850000D01*
X143285000Y-79505000D02*
X141000000Y-81790000D01*
X141000000Y-81790000D02*
X133307500Y-81790000D01*
X145835000Y-79505000D02*
X143285000Y-79505000D01*
%TO.N,GND*%
X147411000Y-77269685D02*
X147411000Y-77209807D01*
D51*
X160975000Y-78980000D02*
X160975000Y-82217500D01*
X145655000Y-70665000D02*
X145647500Y-70672500D01*
X132242500Y-77505000D02*
X130705000Y-77505000D01*
X150865000Y-65325000D02*
X150905000Y-65285000D01*
X116675000Y-86519000D02*
X117971000Y-86519000D01*
X147707500Y-85280000D02*
X147707500Y-83952500D01*
X138445000Y-67855000D02*
X138352500Y-67762500D01*
D52*
X154760000Y-83900000D02*
X154760000Y-81930000D01*
X154760000Y-81930000D02*
X154760000Y-80110000D01*
D51*
X145647500Y-70672500D02*
X143585000Y-70672500D01*
D52*
X145835000Y-78005000D02*
X144725000Y-78005000D01*
D51*
X160975000Y-72630000D02*
X160975000Y-75990000D01*
X116210000Y-79440000D02*
X115405000Y-80245000D01*
D52*
X148260000Y-83400000D02*
X148050000Y-83610000D01*
D51*
X160975000Y-82217500D02*
X160972500Y-82220000D01*
D52*
X146675685Y-78005000D02*
X147411000Y-77269685D01*
D51*
X115405000Y-80245000D02*
X115405000Y-81095000D01*
X160975000Y-75990000D02*
X160975000Y-78980000D01*
D52*
X149407500Y-68591815D02*
X149407500Y-68315000D01*
D51*
X149400000Y-65325000D02*
X150865000Y-65325000D01*
D52*
X151250000Y-65630000D02*
X150905000Y-65285000D01*
X154760000Y-80110000D02*
X154265000Y-79615000D01*
X123865000Y-50375000D02*
X123825000Y-50335000D01*
X148260000Y-69739315D02*
X149407500Y-68591815D01*
D51*
X133860000Y-67762500D02*
X133095000Y-66997500D01*
X147650000Y-85337500D02*
X147650000Y-90560000D01*
X132223750Y-72065000D02*
X130686250Y-72065000D01*
X149400000Y-68307500D02*
X149407500Y-68315000D01*
D52*
X144725000Y-78005000D02*
X143445000Y-76725000D01*
D51*
X149400000Y-65325000D02*
X149400000Y-68307500D01*
X142015000Y-76725000D02*
X142000000Y-76740000D01*
X143495000Y-70762500D02*
X143585000Y-70672500D01*
D52*
X123865000Y-51797500D02*
X123865000Y-50375000D01*
D51*
X147707500Y-85280000D02*
X147650000Y-85337500D01*
X138352500Y-67762500D02*
X133860000Y-67762500D01*
X116682000Y-86260000D02*
X117978000Y-86260000D01*
X132752500Y-85635000D02*
X132752500Y-87017500D01*
D52*
X157185000Y-73005000D02*
X155754598Y-73005000D01*
D51*
X143445000Y-76725000D02*
X142015000Y-76725000D01*
D52*
X151250000Y-67662500D02*
X151250000Y-65630000D01*
X155754598Y-73005000D02*
X155317559Y-72567961D01*
D51*
X141065000Y-70762500D02*
X143495000Y-70762500D01*
X147707500Y-83952500D02*
X148050000Y-83610000D01*
D52*
X155587500Y-85235000D02*
X155587500Y-84727500D01*
X155587500Y-84727500D02*
X154760000Y-83900000D01*
D51*
X132752500Y-87017500D02*
X132695000Y-87075000D01*
X147650000Y-90560000D02*
X148380000Y-91290000D01*
D52*
X148260000Y-70580000D02*
X148260000Y-69739315D01*
X155317559Y-72567961D02*
X154492205Y-72567961D01*
X148260000Y-81930000D02*
X148260000Y-83400000D01*
X145835000Y-78005000D02*
X146675685Y-78005000D01*
%TO.N,/Output_circuitry/Vaux*%
X118559000Y-76745000D02*
X117537500Y-76745000D01*
X117537500Y-76745000D02*
X117145000Y-77137500D01*
D51*
%TO.N,+3.3V*%
X159065000Y-72445000D02*
X158255000Y-72445000D01*
D52*
X153650000Y-67742500D02*
X153650000Y-65300000D01*
D51*
X158944799Y-71504799D02*
X158254799Y-71504799D01*
D52*
X147760000Y-70580000D02*
X147760000Y-68392500D01*
D51*
X143445000Y-78450000D02*
X144150000Y-78450000D01*
X142490000Y-78450000D02*
X141960000Y-78980000D01*
X149432500Y-85280000D02*
X149432500Y-84112500D01*
X145935000Y-65325000D02*
X147675000Y-65325000D01*
X159250000Y-72630000D02*
X159250000Y-71810000D01*
X141065000Y-73770500D02*
X141055000Y-73780500D01*
X141065000Y-72487500D02*
X141065000Y-73770500D01*
D52*
X144205000Y-78505000D02*
X144150000Y-78450000D01*
X112085000Y-62800000D02*
X112055000Y-62830000D01*
D51*
X159250000Y-75990000D02*
X159250000Y-78980000D01*
X157607500Y-82050000D02*
X155360000Y-82050000D01*
X159250000Y-71810000D02*
X158944799Y-71504799D01*
D52*
X147760000Y-68392500D02*
X147682500Y-68315000D01*
D51*
X125935000Y-52160000D02*
X125935000Y-50355000D01*
X125935000Y-50355000D02*
X125915000Y-50335000D01*
D52*
X145835000Y-78505000D02*
X144205000Y-78505000D01*
D51*
X149432500Y-84112500D02*
X148890000Y-83570000D01*
X111405000Y-81095000D02*
X111385000Y-81115000D01*
X143495000Y-72487500D02*
X143585000Y-72397500D01*
D52*
X157185000Y-72505000D02*
X158425000Y-72505000D01*
D51*
X141065000Y-72487500D02*
X143495000Y-72487500D01*
D52*
X148760000Y-81930000D02*
X148760000Y-79204500D01*
D51*
X147675000Y-68307500D02*
X147682500Y-68315000D01*
X159250000Y-80407500D02*
X157607500Y-82050000D01*
D52*
X143692500Y-72505000D02*
X143585000Y-72397500D01*
X148760000Y-79204500D02*
X148860000Y-79104500D01*
D51*
X143445000Y-78450000D02*
X142490000Y-78450000D01*
D52*
X148760000Y-81930000D02*
X148760000Y-83440000D01*
X148760000Y-83440000D02*
X148890000Y-83570000D01*
D51*
X159250000Y-72630000D02*
X159065000Y-72445000D01*
X112865000Y-81095000D02*
X111405000Y-81095000D01*
D52*
X145835000Y-72505000D02*
X143692500Y-72505000D01*
D51*
X159250000Y-72630000D02*
X159250000Y-75990000D01*
X147675000Y-65325000D02*
X147675000Y-68307500D01*
D52*
X110885000Y-62810000D02*
X110855000Y-62840000D01*
D51*
X159250000Y-78980000D02*
X159250000Y-80407500D01*
D52*
%TO.N,Net-(U1-PH0)*%
X140035000Y-74505000D02*
X137525000Y-71995000D01*
D51*
X137505000Y-72015000D02*
X137525000Y-71995000D01*
X133967500Y-72015000D02*
X137505000Y-72015000D01*
D52*
X145835000Y-74505000D02*
X140035000Y-74505000D01*
%TO.N,Net-(U1-PH1)*%
X137585000Y-77495000D02*
X137525000Y-77495000D01*
D51*
X133767500Y-77465000D02*
X137495000Y-77465000D01*
X137495000Y-77465000D02*
X137525000Y-77495000D01*
D52*
X145835000Y-75005000D02*
X140075000Y-75005000D01*
X140075000Y-75005000D02*
X137585000Y-77495000D01*
%TO.N,/NRST*%
X147359598Y-75505000D02*
X145835000Y-75505000D01*
X134437500Y-85525000D02*
X141875000Y-85525000D01*
X131620000Y-91240000D02*
X134460000Y-88400000D01*
X141875000Y-85525000D02*
X148135500Y-79264500D01*
X148135500Y-76280902D02*
X147359598Y-75505000D01*
X129330000Y-97740000D02*
X129330000Y-91240000D01*
X134460000Y-88400000D02*
X134460000Y-85547500D01*
X148135500Y-79264500D02*
X148135500Y-76280902D01*
X129330000Y-91240000D02*
X131620000Y-91240000D01*
X134460000Y-85547500D02*
X134437500Y-85525000D01*
%TO.N,/VCAP*%
X153862500Y-85235000D02*
X153862500Y-84100000D01*
X153862500Y-84100000D02*
X154260000Y-83702500D01*
X154260000Y-83702500D02*
X154260000Y-81930000D01*
%TO.N,Net-(D4-K)*%
X123805000Y-53965000D02*
X123805000Y-53052500D01*
X125935000Y-54210000D02*
X124050000Y-54210000D01*
X124030000Y-54190000D02*
X123805000Y-53965000D01*
X124050000Y-54210000D02*
X124030000Y-54190000D01*
X123805000Y-53052500D02*
X123865000Y-52992500D01*
%TO.N,/Output_circuitry/EN*%
X119485000Y-74224515D02*
X119485000Y-75095000D01*
X119485000Y-75095000D02*
X119485000Y-75670000D01*
X119485000Y-75670000D02*
X119410000Y-75745000D01*
X119410000Y-75745000D02*
X118559000Y-75745000D01*
X119137500Y-73877015D02*
X119485000Y-74224515D01*
%TO.N,/Output_circuitry/PG*%
X116399695Y-75515000D02*
X113465000Y-75515000D01*
X117129695Y-76245000D02*
X116399695Y-75515000D01*
X113465000Y-75515000D02*
X113435000Y-75485000D01*
X118559000Y-76245000D02*
X117129695Y-76245000D01*
%TO.N,Wiper*%
X118975000Y-78415000D02*
X118975000Y-77905000D01*
X116675000Y-81095000D02*
X116675000Y-80715000D01*
X118975000Y-77905000D02*
X118985000Y-77895000D01*
X116675000Y-80715000D02*
X118975000Y-78415000D01*
%TO.N,/Output_circuitry/L1*%
X121215000Y-76995000D02*
X121635000Y-77415000D01*
D51*
X124375000Y-77830000D02*
X122050000Y-77830000D01*
D52*
X120485000Y-76995000D02*
X121215000Y-76995000D01*
D51*
X122050000Y-77830000D02*
X121635000Y-77415000D01*
D52*
%TO.N,/Output_circuitry/L2*%
X121745000Y-75685000D02*
X121435000Y-75995000D01*
D51*
X121970000Y-75460000D02*
X124375000Y-75460000D01*
X121745000Y-75685000D02*
X121970000Y-75460000D01*
D52*
X121435000Y-75995000D02*
X120485000Y-75995000D01*
%TO.N,PU*%
X150017037Y-79247561D02*
X150017037Y-78614500D01*
X112815000Y-86569000D02*
X112865000Y-86519000D01*
X149260000Y-80004598D02*
X150017037Y-79247561D01*
X112815000Y-88455000D02*
X112815000Y-86569000D01*
X149260000Y-81930000D02*
X149260000Y-80004598D01*
%TO.N,PD*%
X114135000Y-86519000D02*
X114135000Y-88365500D01*
X151395000Y-78505288D02*
X149760000Y-80140288D01*
X151395000Y-77955000D02*
X151395000Y-78505288D01*
X149760000Y-80140288D02*
X149760000Y-81930000D01*
X114135000Y-88365500D02*
X114195000Y-88425500D01*
%TO.N,SCL*%
X163425000Y-77200000D02*
X163400000Y-77175000D01*
X166175000Y-77195000D02*
X166170000Y-77200000D01*
X149835000Y-73495000D02*
X149260000Y-72920000D01*
X166170000Y-77200000D02*
X163425000Y-77200000D01*
X149260000Y-72920000D02*
X149260000Y-70580000D01*
%TO.N,SDA*%
X163445000Y-79740000D02*
X163440000Y-79735000D01*
X148435000Y-73355000D02*
X148760000Y-73030000D01*
X166170000Y-79740000D02*
X163445000Y-79740000D01*
X148760000Y-73030000D02*
X148760000Y-70580000D01*
X166175000Y-79735000D02*
X166170000Y-79740000D01*
X148435000Y-73635000D02*
X148435000Y-73355000D01*
%TO.N,SWCLK*%
X155260000Y-68730000D02*
X162575000Y-61415000D01*
X162575000Y-61415000D02*
X165315000Y-61415000D01*
X155260000Y-70580000D02*
X155260000Y-68730000D01*
X165315000Y-61415000D02*
X165360000Y-61370000D01*
%TO.N,SWDIO*%
X157185000Y-73505000D02*
X155230000Y-73505000D01*
%TO.N,SWO*%
X152260000Y-70580000D02*
X152260000Y-73650000D01*
X165360000Y-71110002D02*
X165444998Y-71195000D01*
X165360000Y-68990000D02*
X165360000Y-71110002D01*
X152260000Y-73650000D02*
X152610000Y-74000000D01*
%TO.N,/BOOT*%
X151250000Y-68857500D02*
X151257500Y-68850000D01*
X150641815Y-68857500D02*
X151250000Y-68857500D01*
X149760000Y-69739315D02*
X150641815Y-68857500D01*
X153562500Y-68850000D02*
X153650000Y-68937500D01*
X149760000Y-70580000D02*
X149760000Y-69739315D01*
X151257500Y-68850000D02*
X153562500Y-68850000D01*
%TO.N,POT_BTN_UP*%
X150260000Y-81930000D02*
X150260000Y-84774505D01*
X150260000Y-84774505D02*
X152880000Y-87394505D01*
X152880000Y-87394505D02*
X152880000Y-91290000D01*
X152880000Y-91290000D02*
X152880000Y-97790000D01*
%TO.N,POT_BTN_DWN*%
X150760000Y-81930000D02*
X150760000Y-83900000D01*
X150760000Y-83900000D02*
X151200000Y-84340000D01*
X142980000Y-91380000D02*
X142980000Y-97880000D01*
%TO.N,ADC*%
X113435000Y-78585000D02*
X115125000Y-78585000D01*
%TD*%
%TA.AperFunction,Conductor*%
%TO.N,+3.3V*%
G36*
X113124532Y-62324657D02*
G01*
X113179466Y-62337589D01*
X113222983Y-62373534D01*
X113258382Y-62420022D01*
X113258386Y-62420026D01*
X113304868Y-62466546D01*
X113304872Y-62466549D01*
X113348588Y-62499894D01*
X113348589Y-62499894D01*
X113348590Y-62499895D01*
X113399591Y-62520456D01*
X113463326Y-62536664D01*
X113517950Y-62542965D01*
X116204186Y-62490973D01*
X116253417Y-62500135D01*
X116295011Y-62528022D01*
X116309389Y-62550281D01*
X116310289Y-62549646D01*
X116348005Y-62603057D01*
X116362309Y-62618813D01*
X116386173Y-62657487D01*
X116394500Y-62702162D01*
X116394500Y-62939131D01*
X116386210Y-62983709D01*
X116362449Y-63022326D01*
X116350326Y-63035723D01*
X116321311Y-63077029D01*
X116303242Y-63124162D01*
X116288697Y-63182848D01*
X116282663Y-63232968D01*
X116283084Y-63359504D01*
X116289367Y-63409253D01*
X116304103Y-63467467D01*
X116322246Y-63514212D01*
X116351169Y-63555173D01*
X116362308Y-63567442D01*
X116386172Y-63606117D01*
X116394500Y-63650793D01*
X116394500Y-63890507D01*
X116386210Y-63935084D01*
X116362450Y-63973701D01*
X116353478Y-63983616D01*
X116353475Y-63983619D01*
X116353475Y-63983620D01*
X116324461Y-64024926D01*
X116324459Y-64024929D01*
X116324460Y-64024929D01*
X116306390Y-64072059D01*
X116291847Y-64130736D01*
X116285812Y-64180864D01*
X116286026Y-64245088D01*
X116269551Y-64307262D01*
X116224146Y-64352818D01*
X116162027Y-64369500D01*
X115550251Y-64369500D01*
X115491769Y-64381132D01*
X115425447Y-64425447D01*
X115381132Y-64491769D01*
X115369500Y-64550251D01*
X115369500Y-64889749D01*
X115381132Y-64948229D01*
X115381132Y-64948230D01*
X115381133Y-64948231D01*
X115404825Y-64983688D01*
X115425219Y-65041422D01*
X115415500Y-65101879D01*
X115378035Y-65150313D01*
X115350438Y-65171860D01*
X115305491Y-65217550D01*
X115273227Y-65260301D01*
X115273162Y-65260462D01*
X115246321Y-65301160D01*
X115205866Y-65328365D01*
X115158050Y-65337873D01*
X110328392Y-65330196D01*
X110266594Y-65313586D01*
X110221306Y-65268377D01*
X110204590Y-65206608D01*
X110201995Y-64425447D01*
X110195413Y-62444606D01*
X110211921Y-62382379D01*
X110257407Y-62336814D01*
X110319608Y-62320198D01*
X113124532Y-62324657D01*
G37*
%TD.AperFunction*%
%TD*%
%TA.AperFunction,Conductor*%
%TO.N,ADC*%
G36*
X121076265Y-77329939D02*
G01*
X121116493Y-77356819D01*
X121149887Y-77390213D01*
X121171837Y-77419954D01*
X121184045Y-77454843D01*
X121201459Y-77546887D01*
X121202651Y-77554469D01*
X121594999Y-80674999D01*
X121595000Y-80675000D01*
X127100998Y-80655440D01*
X127163057Y-80671833D01*
X127208605Y-80717060D01*
X127225437Y-80779001D01*
X127225848Y-80895445D01*
X127219704Y-80934434D01*
X127201619Y-80969516D01*
X127122207Y-81077115D01*
X127077353Y-81205303D01*
X127074500Y-81235731D01*
X127074500Y-82294269D01*
X127077353Y-82324696D01*
X127122207Y-82452882D01*
X127207783Y-82568834D01*
X127225731Y-82603501D01*
X127232012Y-82642030D01*
X127234171Y-83253690D01*
X127228027Y-83292678D01*
X127209943Y-83327760D01*
X127177207Y-83372116D01*
X127132353Y-83500303D01*
X127129500Y-83530731D01*
X127129500Y-84589269D01*
X127132353Y-84619696D01*
X127177207Y-84747882D01*
X127215658Y-84799981D01*
X127233606Y-84834648D01*
X127239887Y-84873177D01*
X127240882Y-85155000D01*
X127255000Y-89155000D01*
X119635000Y-89155000D01*
X119670588Y-86505801D01*
X119695044Y-86446762D01*
X119715682Y-86290000D01*
X119695044Y-86133238D01*
X119676205Y-86087756D01*
X119780330Y-78336926D01*
X119785903Y-78301810D01*
X119798387Y-78275643D01*
X119810500Y-78214750D01*
X119810500Y-77575253D01*
X119809555Y-77570500D01*
X119798867Y-77516769D01*
X119798865Y-77516767D01*
X119794371Y-77494172D01*
X119791999Y-77468319D01*
X119792342Y-77442829D01*
X119809505Y-77381539D01*
X119854813Y-77336836D01*
X119916331Y-77320500D01*
X120456525Y-77320500D01*
X121028812Y-77320500D01*
X121076265Y-77329939D01*
G37*
%TD.AperFunction*%
%TD*%
%TA.AperFunction,Conductor*%
%TO.N,Main_in*%
G36*
X119296107Y-62156851D02*
G01*
X119345000Y-62165000D01*
X128391582Y-62165000D01*
X128453413Y-62181516D01*
X128498774Y-62226663D01*
X128515581Y-62288416D01*
X128564413Y-72660416D01*
X128547995Y-72722663D01*
X128502582Y-72768290D01*
X128440414Y-72785000D01*
X127195167Y-72785000D01*
X127194722Y-72784999D01*
X121625000Y-72764999D01*
X121644550Y-73791417D01*
X121636758Y-73837101D01*
X121015342Y-75503626D01*
X120988674Y-75546109D01*
X120947358Y-75574551D01*
X120898156Y-75584299D01*
X119933500Y-75576520D01*
X119871924Y-75559576D01*
X119826947Y-75514235D01*
X119810500Y-75452524D01*
X119810500Y-74244134D01*
X119810972Y-74233327D01*
X119814263Y-74195706D01*
X119804486Y-74159219D01*
X119802144Y-74148655D01*
X119795588Y-74111470D01*
X119795587Y-74111469D01*
X119795400Y-74110406D01*
X119785173Y-74085716D01*
X119784554Y-74084832D01*
X119784554Y-74084831D01*
X119762878Y-74053875D01*
X119757085Y-74044781D01*
X119738194Y-74012060D01*
X119738192Y-74012058D01*
X119733522Y-74003969D01*
X119716929Y-73944109D01*
X119595017Y-66861045D01*
X119595000Y-66858912D01*
X119595000Y-64170000D01*
X119594999Y-64169999D01*
X118699255Y-64162717D01*
X118618491Y-64162060D01*
X118556919Y-64145115D01*
X118511945Y-64099774D01*
X118495500Y-64038065D01*
X118495500Y-62500251D01*
X118483867Y-62441769D01*
X118429261Y-62360046D01*
X118408538Y-62297739D01*
X118422537Y-62233586D01*
X118467332Y-62185576D01*
X118530360Y-62167171D01*
X119273739Y-62155181D01*
X119296107Y-62156851D01*
G37*
%TD.AperFunction*%
%TD*%
%TA.AperFunction,Conductor*%
%TO.N,GND*%
G36*
X121572738Y-60341916D02*
G01*
X121618312Y-60387323D01*
X121635000Y-60449454D01*
X121635000Y-61835500D01*
X121618387Y-61897500D01*
X121573000Y-61942887D01*
X121511000Y-61959500D01*
X119372274Y-61959500D01*
X119351888Y-61957813D01*
X119329895Y-61954147D01*
X119311398Y-61951919D01*
X119289035Y-61950250D01*
X119270433Y-61949708D01*
X119270427Y-61949708D01*
X119270425Y-61949708D01*
X119190066Y-61951004D01*
X118527042Y-61961697D01*
X118472760Y-61969908D01*
X118409728Y-61988314D01*
X118359556Y-62010604D01*
X118317080Y-62045382D01*
X118272282Y-62093395D01*
X118240527Y-62138179D01*
X118221760Y-62189777D01*
X118207763Y-62253923D01*
X118203327Y-62308651D01*
X118213539Y-62362595D01*
X118234260Y-62424895D01*
X118258395Y-62474218D01*
X118265399Y-62484700D01*
X118283914Y-62529399D01*
X118283915Y-62577781D01*
X118269500Y-62650253D01*
X118269500Y-62989749D01*
X118283683Y-63061052D01*
X118284660Y-63063117D01*
X118290000Y-63099116D01*
X118290000Y-63490884D01*
X118284660Y-63526883D01*
X118283683Y-63528947D01*
X118269500Y-63600251D01*
X118269500Y-63939749D01*
X118285945Y-64022422D01*
X118285231Y-64022563D01*
X118289433Y-64033737D01*
X118296930Y-64090982D01*
X118313374Y-64152690D01*
X118333698Y-64202039D01*
X118333699Y-64202041D01*
X118366045Y-64244493D01*
X118366047Y-64244495D01*
X118411019Y-64289835D01*
X118438253Y-64310937D01*
X118453208Y-64322525D01*
X118502391Y-64343249D01*
X118563963Y-64360194D01*
X118616820Y-64367553D01*
X119266507Y-64372834D01*
X119328080Y-64389780D01*
X119373054Y-64435121D01*
X119389499Y-64496830D01*
X119389500Y-66616000D01*
X119372887Y-66678000D01*
X119327500Y-66723387D01*
X119265500Y-66740000D01*
X115568142Y-66740000D01*
X115506391Y-66723530D01*
X115461043Y-66678497D01*
X115444145Y-66616861D01*
X115443129Y-66470601D01*
X115435858Y-65423684D01*
X115451989Y-65361664D01*
X115496933Y-65315977D01*
X115558684Y-65298833D01*
X116495000Y-65290000D01*
X116494462Y-65128073D01*
X116509005Y-65069393D01*
X116549568Y-65024564D01*
X116564552Y-65014552D01*
X116608867Y-64948231D01*
X116620500Y-64889748D01*
X116620500Y-64550252D01*
X116608867Y-64491769D01*
X116564552Y-64425448D01*
X116546852Y-64413621D01*
X116506484Y-64369154D01*
X116491747Y-64310937D01*
X116491312Y-64180177D01*
X116505856Y-64121497D01*
X116546418Y-64076668D01*
X116564552Y-64064552D01*
X116608867Y-63998231D01*
X116620500Y-63939748D01*
X116620500Y-63600252D01*
X116608867Y-63541769D01*
X116564552Y-63475448D01*
X116543690Y-63461508D01*
X116503321Y-63417042D01*
X116488584Y-63358823D01*
X116488163Y-63232282D01*
X116502707Y-63173601D01*
X116543269Y-63128772D01*
X116564552Y-63114552D01*
X116608867Y-63048231D01*
X116620500Y-62989748D01*
X116620500Y-62650252D01*
X116608867Y-62591769D01*
X116564552Y-62525448D01*
X116540526Y-62509394D01*
X116500157Y-62464927D01*
X116485420Y-62406707D01*
X116485000Y-62280000D01*
X113513973Y-62337503D01*
X113450238Y-62321295D01*
X113403756Y-62274775D01*
X113387598Y-62211031D01*
X113422560Y-60476055D01*
X113439913Y-60415249D01*
X113484995Y-60370904D01*
X113546079Y-60354557D01*
X119119987Y-60334190D01*
X121510547Y-60325455D01*
X121572738Y-60341916D01*
G37*
%TD.AperFunction*%
%TD*%
%TA.AperFunction,Conductor*%
%TO.N,/MCU_POWER/JACK_OUT*%
G36*
X145943357Y-57778881D02*
G01*
X154801328Y-57784915D01*
X154863221Y-57801516D01*
X154908562Y-57846799D01*
X154925242Y-57908672D01*
X154934757Y-62771060D01*
X154918275Y-62833075D01*
X154873002Y-62878548D01*
X154811061Y-62895303D01*
X143260019Y-62923590D01*
X143198885Y-62907644D01*
X143153543Y-62863649D01*
X143135763Y-62803024D01*
X143119747Y-62224853D01*
X143080693Y-60814976D01*
X143068272Y-60716745D01*
X143036940Y-60622820D01*
X143032574Y-60613045D01*
X142963570Y-60500708D01*
X142867863Y-60410034D01*
X142867862Y-60410033D01*
X142822471Y-60385421D01*
X142751966Y-60347192D01*
X142751961Y-60347190D01*
X142741969Y-60343359D01*
X142646519Y-60317148D01*
X142547778Y-60310038D01*
X142305762Y-60316379D01*
X142264900Y-60310579D01*
X142228205Y-60291689D01*
X142107333Y-60201205D01*
X142107331Y-60201204D01*
X141972483Y-60150909D01*
X141912873Y-60144500D01*
X141912869Y-60144500D01*
X140717130Y-60144500D01*
X140657515Y-60150909D01*
X140522669Y-60201204D01*
X140445584Y-60258910D01*
X140382148Y-60283165D01*
X140315450Y-60270367D01*
X140265498Y-60224354D01*
X140247276Y-60158934D01*
X140255000Y-58815000D01*
X140254304Y-58813306D01*
X140245000Y-58766181D01*
X140245000Y-57899085D01*
X140261627Y-57837061D01*
X140307049Y-57791670D01*
X140369084Y-57775085D01*
X145943357Y-57778881D01*
G37*
%TD.AperFunction*%
%TD*%
%TA.AperFunction,Conductor*%
%TO.N,/MCU_POWER/RAW_FILTER*%
G36*
X142571021Y-60819198D02*
G01*
X142575387Y-60828973D01*
X142674604Y-64410722D01*
X142672878Y-64417853D01*
X142667783Y-64423132D01*
X142660718Y-64425110D01*
X137525000Y-64465000D01*
X137475474Y-65871538D01*
X137471224Y-65881101D01*
X137461530Y-65885045D01*
X128752135Y-65914304D01*
X128742229Y-65910243D01*
X128738088Y-65900372D01*
X128721079Y-62287449D01*
X128721079Y-62287445D01*
X128713869Y-62234454D01*
X128713868Y-62234449D01*
X128697061Y-62172696D01*
X128682621Y-62138179D01*
X128676418Y-62123351D01*
X128643742Y-62081011D01*
X128598381Y-62035864D01*
X128598379Y-62035862D01*
X128555883Y-62003387D01*
X128549819Y-62000883D01*
X128521895Y-61989354D01*
X128515633Y-61984245D01*
X128513238Y-61976527D01*
X128505113Y-60969017D01*
X128506936Y-60961997D01*
X128512026Y-60956830D01*
X128519015Y-60954904D01*
X140285000Y-60875000D01*
X142561025Y-60815366D01*
X142571021Y-60819198D01*
G37*
%TD.AperFunction*%
%TD*%
%TA.AperFunction,Conductor*%
%TO.N,ADC*%
G36*
X112170205Y-85170168D02*
G01*
X112215094Y-85211961D01*
X112234462Y-85270154D01*
X112223572Y-85330512D01*
X112185088Y-85378267D01*
X112157455Y-85398952D01*
X112071204Y-85514168D01*
X112020909Y-85649016D01*
X112014500Y-85708630D01*
X112014500Y-87329369D01*
X112020909Y-87388984D01*
X112035159Y-87427190D01*
X112071204Y-87523831D01*
X112157454Y-87639046D01*
X112157455Y-87639047D01*
X112164767Y-87648814D01*
X112183154Y-87683966D01*
X112189500Y-87723125D01*
X112189500Y-87756313D01*
X112181264Y-87800751D01*
X112157652Y-87839282D01*
X112124545Y-87876051D01*
X112082464Y-87922786D01*
X111987820Y-88086715D01*
X111929326Y-88266742D01*
X111919035Y-88364656D01*
X111909540Y-88455000D01*
X111912065Y-88479020D01*
X111929326Y-88643257D01*
X111987820Y-88823284D01*
X112082466Y-88987216D01*
X112209129Y-89127889D01*
X112362269Y-89239151D01*
X112535197Y-89316144D01*
X112720352Y-89355500D01*
X112720354Y-89355500D01*
X112909646Y-89355500D01*
X112909648Y-89355500D01*
X113048434Y-89326000D01*
X113094803Y-89316144D01*
X113267730Y-89239151D01*
X113420871Y-89127888D01*
X113428761Y-89119124D01*
X113478498Y-89085576D01*
X113538167Y-89079304D01*
X113593795Y-89101779D01*
X113742269Y-89209651D01*
X113915197Y-89286644D01*
X114100352Y-89326000D01*
X114100354Y-89326000D01*
X114289646Y-89326000D01*
X114289648Y-89326000D01*
X114413084Y-89299762D01*
X114474803Y-89286644D01*
X114647730Y-89209651D01*
X114800871Y-89098388D01*
X114927533Y-88957716D01*
X115022179Y-88793784D01*
X115080674Y-88613756D01*
X115100460Y-88425500D01*
X115080674Y-88237244D01*
X115022179Y-88057216D01*
X115022179Y-88057215D01*
X114970382Y-87967500D01*
X114953769Y-87905500D01*
X114970382Y-87843500D01*
X115015769Y-87798113D01*
X115077769Y-87781500D01*
X115155000Y-87781500D01*
X115155000Y-86393000D01*
X115171613Y-86331000D01*
X115217000Y-86285613D01*
X115279000Y-86269000D01*
X115531000Y-86269000D01*
X115593000Y-86285613D01*
X115638387Y-86331000D01*
X115655000Y-86393000D01*
X115655000Y-87781500D01*
X115802824Y-87781500D01*
X115862377Y-87775097D01*
X115995952Y-87725277D01*
X116039285Y-87717459D01*
X116082618Y-87725277D01*
X116216192Y-87775097D01*
X116217517Y-87775591D01*
X116277127Y-87782000D01*
X117072872Y-87781999D01*
X117132483Y-87775591D01*
X117267331Y-87725296D01*
X117382546Y-87639046D01*
X117468796Y-87523831D01*
X117519091Y-87388983D01*
X117520030Y-87380246D01*
X117540629Y-87323998D01*
X117585192Y-87283969D01*
X117643320Y-87269500D01*
X117742538Y-87269500D01*
X117760549Y-87270815D01*
X117770802Y-87272321D01*
X119329313Y-87296054D01*
X119329313Y-87296053D01*
X119329316Y-87296054D01*
X119460541Y-87280787D01*
X119477012Y-87276636D01*
X119522851Y-87265084D01*
X119645637Y-87216337D01*
X119661199Y-87204749D01*
X119635000Y-89155000D01*
X127255000Y-89155000D01*
X127248875Y-87419817D01*
X127258386Y-87427190D01*
X127376767Y-87477249D01*
X127378815Y-87478115D01*
X127440102Y-87495101D01*
X127440106Y-87495102D01*
X127569567Y-87513436D01*
X128992720Y-87529076D01*
X129125517Y-87512831D01*
X129125519Y-87512830D01*
X129125522Y-87512830D01*
X129143023Y-87508277D01*
X129188480Y-87496455D01*
X129312357Y-87445945D01*
X129418646Y-87364708D01*
X129464652Y-87318711D01*
X129545911Y-87212435D01*
X129596445Y-87088563D01*
X129612832Y-87025604D01*
X129629102Y-86892815D01*
X129611683Y-85280337D01*
X129627845Y-85217775D01*
X129673290Y-85171837D01*
X129735676Y-85155000D01*
X131550500Y-85155000D01*
X131612500Y-85171613D01*
X131657887Y-85217000D01*
X131674500Y-85279000D01*
X131674500Y-85811676D01*
X131684825Y-85912752D01*
X131739091Y-86076515D01*
X131829661Y-86223352D01*
X131961898Y-86355589D01*
X131959884Y-86357602D01*
X131986275Y-86385167D01*
X132002000Y-86445603D01*
X132002000Y-86451279D01*
X131993764Y-86495717D01*
X131970149Y-86534252D01*
X131962466Y-86542784D01*
X131867820Y-86706715D01*
X131809326Y-86886742D01*
X131789540Y-87075000D01*
X131809326Y-87263257D01*
X131867820Y-87443284D01*
X131962466Y-87607216D01*
X132089129Y-87747889D01*
X132242269Y-87859151D01*
X132415197Y-87936144D01*
X132600352Y-87975500D01*
X132600354Y-87975500D01*
X132789646Y-87975500D01*
X132789648Y-87975500D01*
X132913084Y-87949262D01*
X132974803Y-87936144D01*
X133147730Y-87859151D01*
X133262741Y-87775591D01*
X133300870Y-87747889D01*
X133427533Y-87607216D01*
X133522179Y-87443284D01*
X133539822Y-87388984D01*
X133580674Y-87263256D01*
X133587179Y-87201355D01*
X133608925Y-87143197D01*
X133656142Y-87102870D01*
X133716990Y-87090490D01*
X133776210Y-87109162D01*
X133818953Y-87154204D01*
X133834500Y-87214320D01*
X133834500Y-88089547D01*
X133825061Y-88137000D01*
X133798181Y-88177228D01*
X131397228Y-90578181D01*
X131357000Y-90605061D01*
X131309547Y-90614500D01*
X130775150Y-90614500D01*
X130728488Y-90605385D01*
X130688685Y-90579381D01*
X130661594Y-90540310D01*
X130654174Y-90523395D01*
X130654173Y-90523393D01*
X130518164Y-90315215D01*
X130349744Y-90132262D01*
X130285120Y-90081963D01*
X130153514Y-89979529D01*
X130153510Y-89979526D01*
X130153509Y-89979526D01*
X129934810Y-89861172D01*
X129934806Y-89861170D01*
X129934805Y-89861170D01*
X129699615Y-89780429D01*
X129454335Y-89739500D01*
X129205665Y-89739500D01*
X128960384Y-89780429D01*
X128725194Y-89861170D01*
X128506485Y-89979529D01*
X128310259Y-90132259D01*
X128310256Y-90132261D01*
X128310256Y-90132262D01*
X128141836Y-90315215D01*
X128100418Y-90378610D01*
X128005825Y-90523395D01*
X127937132Y-90680001D01*
X127905937Y-90751119D01*
X127891932Y-90806423D01*
X127844891Y-90992183D01*
X127824356Y-91239999D01*
X127844891Y-91487816D01*
X127844891Y-91487819D01*
X127844892Y-91487821D01*
X127905937Y-91728881D01*
X127940828Y-91808425D01*
X128005825Y-91956604D01*
X128005827Y-91956607D01*
X128141836Y-92164785D01*
X128310256Y-92347738D01*
X128375667Y-92398650D01*
X128506485Y-92500470D01*
X128506487Y-92500471D01*
X128506491Y-92500474D01*
X128639519Y-92572465D01*
X128687023Y-92618045D01*
X128704500Y-92681519D01*
X128704500Y-96298481D01*
X128687023Y-96361955D01*
X128639519Y-96407534D01*
X128582336Y-96438481D01*
X128506485Y-96479529D01*
X128310259Y-96632259D01*
X128310256Y-96632261D01*
X128310256Y-96632262D01*
X128141836Y-96815215D01*
X128096499Y-96884607D01*
X128005825Y-97023395D01*
X127944417Y-97163393D01*
X127905937Y-97251119D01*
X127870485Y-97391117D01*
X127844891Y-97492183D01*
X127824356Y-97739999D01*
X127844891Y-97987816D01*
X127844891Y-97987819D01*
X127844892Y-97987821D01*
X127905937Y-98228881D01*
X127928141Y-98279500D01*
X128005825Y-98456604D01*
X128005827Y-98456607D01*
X128141836Y-98664785D01*
X128310256Y-98847738D01*
X128375667Y-98898650D01*
X128506485Y-99000470D01*
X128506487Y-99000471D01*
X128506491Y-99000474D01*
X128725190Y-99118828D01*
X128960386Y-99199571D01*
X129205665Y-99240500D01*
X129454335Y-99240500D01*
X129699614Y-99199571D01*
X129934810Y-99118828D01*
X130153509Y-99000474D01*
X130349744Y-98847738D01*
X130518164Y-98664785D01*
X130654173Y-98456607D01*
X130754063Y-98228881D01*
X130815108Y-97987821D01*
X130824042Y-97880000D01*
X136974356Y-97880000D01*
X136994891Y-98127816D01*
X136994891Y-98127819D01*
X136994892Y-98127821D01*
X137055937Y-98368881D01*
X137091513Y-98449986D01*
X137155825Y-98596604D01*
X137155827Y-98596607D01*
X137291836Y-98804785D01*
X137460256Y-98987738D01*
X137492867Y-99013120D01*
X137656485Y-99140470D01*
X137656487Y-99140471D01*
X137656491Y-99140474D01*
X137875190Y-99258828D01*
X138110386Y-99339571D01*
X138355665Y-99380500D01*
X138604335Y-99380500D01*
X138849614Y-99339571D01*
X139084810Y-99258828D01*
X139303509Y-99140474D01*
X139499744Y-98987738D01*
X139668164Y-98804785D01*
X139804173Y-98596607D01*
X139904063Y-98368881D01*
X139965108Y-98127821D01*
X139985643Y-97880000D01*
X141474356Y-97880000D01*
X141494891Y-98127816D01*
X141494891Y-98127819D01*
X141494892Y-98127821D01*
X141555937Y-98368881D01*
X141591513Y-98449986D01*
X141655825Y-98596604D01*
X141655827Y-98596607D01*
X141791836Y-98804785D01*
X141960256Y-98987738D01*
X141992867Y-99013120D01*
X142156485Y-99140470D01*
X142156487Y-99140471D01*
X142156491Y-99140474D01*
X142375190Y-99258828D01*
X142610386Y-99339571D01*
X142855665Y-99380500D01*
X143104335Y-99380500D01*
X143349614Y-99339571D01*
X143584810Y-99258828D01*
X143803509Y-99140474D01*
X143999744Y-98987738D01*
X144168164Y-98804785D01*
X144304173Y-98596607D01*
X144404063Y-98368881D01*
X144465108Y-98127821D01*
X144485643Y-97880000D01*
X144478185Y-97789999D01*
X146874356Y-97789999D01*
X146894891Y-98037816D01*
X146894891Y-98037819D01*
X146894892Y-98037821D01*
X146955937Y-98278881D01*
X146988545Y-98353219D01*
X147055825Y-98506604D01*
X147055827Y-98506607D01*
X147191836Y-98714785D01*
X147360256Y-98897738D01*
X147418561Y-98943119D01*
X147556485Y-99050470D01*
X147556487Y-99050471D01*
X147556491Y-99050474D01*
X147775190Y-99168828D01*
X148010386Y-99249571D01*
X148255665Y-99290500D01*
X148504335Y-99290500D01*
X148749614Y-99249571D01*
X148984810Y-99168828D01*
X149203509Y-99050474D01*
X149399744Y-98897738D01*
X149568164Y-98714785D01*
X149704173Y-98506607D01*
X149804063Y-98278881D01*
X149865108Y-98037821D01*
X149885643Y-97790000D01*
X149865108Y-97542179D01*
X149804063Y-97301119D01*
X149704173Y-97073393D01*
X149568164Y-96865215D01*
X149399744Y-96682262D01*
X149319141Y-96619526D01*
X149203514Y-96529529D01*
X149203510Y-96529526D01*
X149203509Y-96529526D01*
X148984810Y-96411172D01*
X148984806Y-96411170D01*
X148984805Y-96411170D01*
X148749615Y-96330429D01*
X148504335Y-96289500D01*
X148255665Y-96289500D01*
X148010384Y-96330429D01*
X147775194Y-96411170D01*
X147775190Y-96411171D01*
X147775190Y-96411172D01*
X147689517Y-96457536D01*
X147556485Y-96529529D01*
X147360259Y-96682259D01*
X147191837Y-96865214D01*
X147055825Y-97073395D01*
X147016349Y-97163393D01*
X146955937Y-97301119D01*
X146933146Y-97391119D01*
X146894891Y-97542183D01*
X146874356Y-97789999D01*
X144478185Y-97789999D01*
X144465108Y-97632179D01*
X144404063Y-97391119D01*
X144304173Y-97163393D01*
X144168164Y-96955215D01*
X143999744Y-96772262D01*
X143977612Y-96755036D01*
X143803514Y-96619529D01*
X143803510Y-96619526D01*
X143803509Y-96619526D01*
X143670480Y-96547534D01*
X143622977Y-96501955D01*
X143605500Y-96438481D01*
X143605500Y-92821519D01*
X143622977Y-92758045D01*
X143670480Y-92712465D01*
X143803509Y-92640474D01*
X143999744Y-92487738D01*
X144168164Y-92304785D01*
X144304173Y-92096607D01*
X144404063Y-91868881D01*
X144465108Y-91627821D01*
X144485643Y-91380000D01*
X144465108Y-91132179D01*
X144404063Y-90891119D01*
X144304173Y-90663393D01*
X144168164Y-90455215D01*
X143999744Y-90272262D01*
X143977612Y-90255036D01*
X143803514Y-90119529D01*
X143803510Y-90119526D01*
X143803509Y-90119526D01*
X143584810Y-90001172D01*
X143584806Y-90001170D01*
X143584805Y-90001170D01*
X143349615Y-89920429D01*
X143104335Y-89879500D01*
X142855665Y-89879500D01*
X142610384Y-89920429D01*
X142375194Y-90001170D01*
X142375190Y-90001171D01*
X142375190Y-90001172D01*
X142322791Y-90029529D01*
X142156485Y-90119529D01*
X141960259Y-90272259D01*
X141960256Y-90272261D01*
X141960256Y-90272262D01*
X141791836Y-90455215D01*
X141747293Y-90523393D01*
X141655825Y-90663395D01*
X141593088Y-90806423D01*
X141555937Y-90891119D01*
X141530345Y-90992179D01*
X141494891Y-91132183D01*
X141474356Y-91380000D01*
X141494891Y-91627816D01*
X141494891Y-91627819D01*
X141494892Y-91627821D01*
X141555937Y-91868881D01*
X141569859Y-91900619D01*
X141655825Y-92096604D01*
X141655827Y-92096607D01*
X141791836Y-92304785D01*
X141960256Y-92487738D01*
X142025667Y-92538649D01*
X142156485Y-92640470D01*
X142156487Y-92640471D01*
X142156491Y-92640474D01*
X142289519Y-92712465D01*
X142337023Y-92758045D01*
X142354500Y-92821519D01*
X142354500Y-96438481D01*
X142337023Y-96501955D01*
X142289519Y-96547534D01*
X142198401Y-96596845D01*
X142156485Y-96619529D01*
X141960259Y-96772259D01*
X141791837Y-96955214D01*
X141655825Y-97163395D01*
X141555938Y-97391117D01*
X141494891Y-97632183D01*
X141474356Y-97880000D01*
X139985643Y-97880000D01*
X139965108Y-97632179D01*
X139904063Y-97391119D01*
X139804173Y-97163393D01*
X139668164Y-96955215D01*
X139499744Y-96772262D01*
X139477612Y-96755036D01*
X139303514Y-96619529D01*
X139303510Y-96619526D01*
X139303509Y-96619526D01*
X139084810Y-96501172D01*
X139084806Y-96501170D01*
X139084805Y-96501170D01*
X138849615Y-96420429D01*
X138604335Y-96379500D01*
X138355665Y-96379500D01*
X138110384Y-96420429D01*
X137875194Y-96501170D01*
X137875190Y-96501171D01*
X137875190Y-96501172D01*
X137822791Y-96529529D01*
X137656485Y-96619529D01*
X137460259Y-96772259D01*
X137291837Y-96955214D01*
X137155825Y-97163395D01*
X137055938Y-97391117D01*
X136994891Y-97632183D01*
X136974356Y-97880000D01*
X130824042Y-97880000D01*
X130835643Y-97740000D01*
X130815108Y-97492179D01*
X130754063Y-97251119D01*
X130654173Y-97023393D01*
X130518164Y-96815215D01*
X130349744Y-96632262D01*
X130327612Y-96615036D01*
X130153514Y-96479529D01*
X130153510Y-96479526D01*
X130153509Y-96479526D01*
X130020480Y-96407534D01*
X129972977Y-96361955D01*
X129955500Y-96298481D01*
X129955500Y-92681519D01*
X129972977Y-92618045D01*
X130020480Y-92572465D01*
X130153509Y-92500474D01*
X130349744Y-92347738D01*
X130518164Y-92164785D01*
X130654173Y-91956607D01*
X130656851Y-91950500D01*
X130661594Y-91939690D01*
X130688685Y-91900619D01*
X130728488Y-91874615D01*
X130775150Y-91865500D01*
X131537256Y-91865500D01*
X131557762Y-91867764D01*
X131560665Y-91867672D01*
X131560667Y-91867673D01*
X131627872Y-91865561D01*
X131631768Y-91865500D01*
X131659349Y-91865500D01*
X131659350Y-91865500D01*
X131663319Y-91864998D01*
X131674965Y-91864080D01*
X131718627Y-91862709D01*
X131737859Y-91857120D01*
X131756918Y-91853174D01*
X131763196Y-91852381D01*
X131776792Y-91850664D01*
X131817407Y-91834582D01*
X131828444Y-91830803D01*
X131870390Y-91818618D01*
X131887629Y-91808422D01*
X131905102Y-91799862D01*
X131923732Y-91792486D01*
X131959064Y-91766814D01*
X131968830Y-91760400D01*
X132006418Y-91738171D01*
X132006417Y-91738171D01*
X132006420Y-91738170D01*
X132020585Y-91724004D01*
X132035373Y-91711373D01*
X132051587Y-91699594D01*
X132079438Y-91665926D01*
X132087279Y-91657309D01*
X132364588Y-91380000D01*
X136974356Y-91380000D01*
X136994891Y-91627816D01*
X136994891Y-91627819D01*
X136994892Y-91627821D01*
X137055937Y-91868881D01*
X137069859Y-91900619D01*
X137155825Y-92096604D01*
X137155827Y-92096607D01*
X137291836Y-92304785D01*
X137460256Y-92487738D01*
X137525667Y-92538649D01*
X137656485Y-92640470D01*
X137656487Y-92640471D01*
X137656491Y-92640474D01*
X137875190Y-92758828D01*
X138110386Y-92839571D01*
X138355665Y-92880500D01*
X138604335Y-92880500D01*
X138849614Y-92839571D01*
X139084810Y-92758828D01*
X139303509Y-92640474D01*
X139499744Y-92487738D01*
X139668164Y-92304785D01*
X139804173Y-92096607D01*
X139904063Y-91868881D01*
X139965108Y-91627821D01*
X139985643Y-91380000D01*
X139965108Y-91132179D01*
X139904063Y-90891119D01*
X139804173Y-90663393D01*
X139668164Y-90455215D01*
X139499744Y-90272262D01*
X139477612Y-90255036D01*
X139303514Y-90119529D01*
X139303510Y-90119526D01*
X139303509Y-90119526D01*
X139084810Y-90001172D01*
X139084806Y-90001170D01*
X139084805Y-90001170D01*
X138849615Y-89920429D01*
X138604335Y-89879500D01*
X138355665Y-89879500D01*
X138110384Y-89920429D01*
X137875194Y-90001170D01*
X137875190Y-90001171D01*
X137875190Y-90001172D01*
X137822791Y-90029529D01*
X137656485Y-90119529D01*
X137460259Y-90272259D01*
X137460256Y-90272261D01*
X137460256Y-90272262D01*
X137291836Y-90455215D01*
X137247293Y-90523393D01*
X137155825Y-90663395D01*
X137093088Y-90806423D01*
X137055937Y-90891119D01*
X137030345Y-90992179D01*
X136994891Y-91132183D01*
X136974356Y-91380000D01*
X132364588Y-91380000D01*
X134843786Y-88900802D01*
X134859887Y-88887904D01*
X134861874Y-88885787D01*
X134861877Y-88885786D01*
X134907932Y-88836741D01*
X134910613Y-88833976D01*
X134930120Y-88814470D01*
X134932581Y-88811295D01*
X134940152Y-88802431D01*
X134970062Y-88770582D01*
X134979713Y-88753026D01*
X134990393Y-88736767D01*
X135002674Y-88720936D01*
X135020018Y-88680851D01*
X135025160Y-88670356D01*
X135046197Y-88632092D01*
X135051178Y-88612688D01*
X135057480Y-88594283D01*
X135065438Y-88575895D01*
X135072270Y-88532748D01*
X135074639Y-88521316D01*
X135085500Y-88479020D01*
X135085500Y-88458984D01*
X135087027Y-88439585D01*
X135087964Y-88433667D01*
X135090160Y-88419804D01*
X135086050Y-88376325D01*
X135085500Y-88364656D01*
X135085500Y-86484153D01*
X135101223Y-86423721D01*
X135144404Y-86378614D01*
X135180600Y-86356288D01*
X135198350Y-86345340D01*
X135320340Y-86223350D01*
X135328941Y-86209404D01*
X135374048Y-86166223D01*
X135434481Y-86150500D01*
X141792256Y-86150500D01*
X141812762Y-86152764D01*
X141815665Y-86152672D01*
X141815667Y-86152673D01*
X141882872Y-86150561D01*
X141886768Y-86150500D01*
X141914349Y-86150500D01*
X141914350Y-86150500D01*
X141918319Y-86149998D01*
X141929965Y-86149080D01*
X141973627Y-86147709D01*
X141992859Y-86142120D01*
X142011918Y-86138174D01*
X142018196Y-86137381D01*
X142031792Y-86135664D01*
X142072407Y-86119582D01*
X142083444Y-86115803D01*
X142125390Y-86103618D01*
X142142629Y-86093422D01*
X142160102Y-86084862D01*
X142178732Y-86077486D01*
X142214064Y-86051814D01*
X142223830Y-86045400D01*
X142261418Y-86023171D01*
X142261417Y-86023171D01*
X142261420Y-86023170D01*
X142275585Y-86009004D01*
X142290373Y-85996373D01*
X142306587Y-85984594D01*
X142334438Y-85950926D01*
X142342279Y-85942309D01*
X143093270Y-85191318D01*
X143133498Y-85164439D01*
X143180951Y-85155000D01*
X146545500Y-85155000D01*
X146607500Y-85171613D01*
X146652887Y-85217000D01*
X146669500Y-85279000D01*
X146669500Y-85566676D01*
X146679825Y-85667752D01*
X146734091Y-85831515D01*
X146824661Y-85978352D01*
X146863180Y-86016870D01*
X146890061Y-86057099D01*
X146899500Y-86104552D01*
X146899500Y-90496294D01*
X146898191Y-90514264D01*
X146894711Y-90538023D01*
X146899028Y-90587369D01*
X146899500Y-90598176D01*
X146899500Y-90603708D01*
X146903098Y-90634496D01*
X146903464Y-90638081D01*
X146907131Y-90679999D01*
X146910110Y-90714041D01*
X146914330Y-90733078D01*
X146935975Y-90792548D01*
X146943295Y-90828695D01*
X146939659Y-90865397D01*
X146894891Y-91042183D01*
X146874356Y-91290000D01*
X146894891Y-91537816D01*
X146894891Y-91537819D01*
X146894892Y-91537821D01*
X146955937Y-91778881D01*
X146994885Y-91867673D01*
X147055825Y-92006604D01*
X147055827Y-92006607D01*
X147191836Y-92214785D01*
X147360256Y-92397738D01*
X147360259Y-92397740D01*
X147556485Y-92550470D01*
X147556487Y-92550471D01*
X147556491Y-92550474D01*
X147775190Y-92668828D01*
X148010386Y-92749571D01*
X148255665Y-92790500D01*
X148504335Y-92790500D01*
X148749614Y-92749571D01*
X148984810Y-92668828D01*
X149203509Y-92550474D01*
X149399744Y-92397738D01*
X149568164Y-92214785D01*
X149704173Y-92006607D01*
X149804063Y-91778881D01*
X149865108Y-91537821D01*
X149885643Y-91290000D01*
X149865108Y-91042179D01*
X149804063Y-90801119D01*
X149704173Y-90573393D01*
X149568164Y-90365215D01*
X149399744Y-90182262D01*
X149319141Y-90119526D01*
X149203514Y-90029529D01*
X149203510Y-90029526D01*
X149203509Y-90029526D01*
X148984810Y-89911172D01*
X148984806Y-89911170D01*
X148984805Y-89911170D01*
X148749615Y-89830429D01*
X148504091Y-89789459D01*
X148451063Y-89767065D01*
X148413861Y-89723140D01*
X148400500Y-89667150D01*
X148400500Y-86211397D01*
X148416223Y-86150964D01*
X148459405Y-86105857D01*
X148468350Y-86100340D01*
X148482317Y-86086373D01*
X148537906Y-86054277D01*
X148602094Y-86054277D01*
X148657683Y-86086373D01*
X148671650Y-86100340D01*
X148804947Y-86182558D01*
X148818484Y-86190908D01*
X148982246Y-86245174D01*
X148991614Y-86246131D01*
X149083323Y-86255500D01*
X149781676Y-86255499D01*
X149882753Y-86245174D01*
X150046516Y-86190908D01*
X150193350Y-86100340D01*
X150315340Y-85978350D01*
X150325073Y-85962569D01*
X150333694Y-85948594D01*
X150372607Y-85909110D01*
X150424837Y-85890528D01*
X150479944Y-85896564D01*
X150526914Y-85926009D01*
X152218181Y-87617276D01*
X152245061Y-87657504D01*
X152254500Y-87704957D01*
X152254500Y-89848481D01*
X152237023Y-89911955D01*
X152189519Y-89957534D01*
X152108888Y-90001170D01*
X152056485Y-90029529D01*
X151860259Y-90182259D01*
X151860256Y-90182261D01*
X151860256Y-90182262D01*
X151691837Y-90365214D01*
X151555825Y-90573395D01*
X151485266Y-90734255D01*
X151455937Y-90801119D01*
X151410286Y-90981389D01*
X151394891Y-91042183D01*
X151374356Y-91290000D01*
X151394891Y-91537816D01*
X151394891Y-91537819D01*
X151394892Y-91537821D01*
X151455937Y-91778881D01*
X151494885Y-91867673D01*
X151555825Y-92006604D01*
X151555827Y-92006607D01*
X151691836Y-92214785D01*
X151860256Y-92397738D01*
X151860259Y-92397740D01*
X152056485Y-92550470D01*
X152056487Y-92550471D01*
X152056491Y-92550474D01*
X152189519Y-92622465D01*
X152237023Y-92668045D01*
X152254500Y-92731519D01*
X152254500Y-96348481D01*
X152237023Y-96411955D01*
X152189519Y-96457534D01*
X152108888Y-96501170D01*
X152056485Y-96529529D01*
X151860259Y-96682259D01*
X151691837Y-96865214D01*
X151555825Y-97073395D01*
X151516349Y-97163393D01*
X151455937Y-97301119D01*
X151433146Y-97391119D01*
X151394891Y-97542183D01*
X151374356Y-97789999D01*
X151394891Y-98037816D01*
X151394891Y-98037819D01*
X151394892Y-98037821D01*
X151455937Y-98278881D01*
X151488545Y-98353219D01*
X151555825Y-98506604D01*
X151555827Y-98506607D01*
X151691836Y-98714785D01*
X151860256Y-98897738D01*
X151918561Y-98943119D01*
X152056485Y-99050470D01*
X152056487Y-99050471D01*
X152056491Y-99050474D01*
X152275190Y-99168828D01*
X152510386Y-99249571D01*
X152755665Y-99290500D01*
X153004335Y-99290500D01*
X153249614Y-99249571D01*
X153484810Y-99168828D01*
X153703509Y-99050474D01*
X153899744Y-98897738D01*
X154068164Y-98714785D01*
X154204173Y-98506607D01*
X154304063Y-98278881D01*
X154365108Y-98037821D01*
X154385643Y-97790000D01*
X154365108Y-97542179D01*
X154304063Y-97301119D01*
X154204173Y-97073393D01*
X154068164Y-96865215D01*
X153899744Y-96682262D01*
X153819141Y-96619526D01*
X153703514Y-96529529D01*
X153703510Y-96529526D01*
X153703509Y-96529526D01*
X153570480Y-96457534D01*
X153522977Y-96411955D01*
X153505500Y-96348481D01*
X153505500Y-92731519D01*
X153522977Y-92668045D01*
X153570480Y-92622465D01*
X153703509Y-92550474D01*
X153899744Y-92397738D01*
X154068164Y-92214785D01*
X154204173Y-92006607D01*
X154304063Y-91778881D01*
X154365108Y-91537821D01*
X154385643Y-91290000D01*
X154365108Y-91042179D01*
X154304063Y-90801119D01*
X154220230Y-90610000D01*
X156944753Y-90610000D01*
X156963719Y-90911452D01*
X157020319Y-91208163D01*
X157113658Y-91495428D01*
X157242268Y-91768739D01*
X157361491Y-91956604D01*
X157404115Y-92023768D01*
X157542571Y-92191133D01*
X157596650Y-92256503D01*
X157816839Y-92463276D01*
X158061204Y-92640816D01*
X158112158Y-92668828D01*
X158325896Y-92786332D01*
X158460360Y-92839570D01*
X158606737Y-92897525D01*
X158761141Y-92937168D01*
X158899302Y-92972642D01*
X159148314Y-93004100D01*
X159198972Y-93010500D01*
X159198973Y-93010500D01*
X159501027Y-93010500D01*
X159501028Y-93010500D01*
X159544360Y-93005025D01*
X159800698Y-92972642D01*
X160093262Y-92897525D01*
X160374104Y-92786332D01*
X160638795Y-92640816D01*
X160670137Y-92618045D01*
X160767942Y-92546986D01*
X163366564Y-92546986D01*
X163591476Y-92710395D01*
X163856110Y-92855878D01*
X164136892Y-92967048D01*
X164429393Y-93042149D01*
X164729004Y-93080000D01*
X165030996Y-93080000D01*
X165330606Y-93042149D01*
X165623107Y-92967048D01*
X165903889Y-92855878D01*
X166168523Y-92710395D01*
X166393433Y-92546986D01*
X166393434Y-92546986D01*
X164880000Y-91033553D01*
X163366564Y-92546986D01*
X160767942Y-92546986D01*
X160883160Y-92463276D01*
X160952948Y-92397740D01*
X161103349Y-92256504D01*
X161295885Y-92023768D01*
X161457733Y-91768736D01*
X161586341Y-91495430D01*
X161679681Y-91208160D01*
X161736280Y-90911457D01*
X161750842Y-90679999D01*
X162475254Y-90679999D01*
X162494216Y-90981389D01*
X162550804Y-91278036D01*
X162644124Y-91565243D01*
X162772708Y-91838498D01*
X162934521Y-92093475D01*
X163015312Y-92191134D01*
X164526447Y-90680001D01*
X165233553Y-90680001D01*
X166744686Y-92191133D01*
X166825481Y-92093471D01*
X166987291Y-91838498D01*
X167115875Y-91565243D01*
X167209195Y-91278036D01*
X167265783Y-90981389D01*
X167284745Y-90679999D01*
X167265783Y-90378610D01*
X167209195Y-90081963D01*
X167115875Y-89794756D01*
X166987291Y-89521501D01*
X166825478Y-89266524D01*
X166744686Y-89168864D01*
X165233553Y-90680000D01*
X165233553Y-90680001D01*
X164526447Y-90680001D01*
X164526447Y-90679999D01*
X163015312Y-89168864D01*
X162934517Y-89266530D01*
X162772708Y-89521501D01*
X162644124Y-89794756D01*
X162550804Y-90081963D01*
X162494216Y-90378610D01*
X162475254Y-90679999D01*
X161750842Y-90679999D01*
X161755246Y-90610000D01*
X161736280Y-90308543D01*
X161679681Y-90011840D01*
X161669182Y-89979529D01*
X161604491Y-89780429D01*
X161586341Y-89724570D01*
X161457733Y-89451264D01*
X161457732Y-89451263D01*
X161457731Y-89451260D01*
X161340497Y-89266530D01*
X161295885Y-89196232D01*
X161103349Y-88963496D01*
X161097194Y-88957716D01*
X160943101Y-88813012D01*
X163366564Y-88813012D01*
X164880000Y-90326447D01*
X164880001Y-90326447D01*
X166393434Y-88813012D01*
X166168523Y-88649604D01*
X165903889Y-88504121D01*
X165623107Y-88392951D01*
X165330606Y-88317850D01*
X165030996Y-88280000D01*
X164729004Y-88280000D01*
X164429393Y-88317850D01*
X164136892Y-88392951D01*
X163856110Y-88504121D01*
X163591472Y-88649606D01*
X163366565Y-88813010D01*
X163366564Y-88813012D01*
X160943101Y-88813012D01*
X160883160Y-88756723D01*
X160638795Y-88579183D01*
X160374102Y-88433667D01*
X160093262Y-88322474D01*
X159800700Y-88247358D01*
X159501028Y-88209500D01*
X159501027Y-88209500D01*
X159198973Y-88209500D01*
X159198972Y-88209500D01*
X158899299Y-88247358D01*
X158606737Y-88322474D01*
X158325897Y-88433667D01*
X158061204Y-88579183D01*
X157816839Y-88756723D01*
X157596650Y-88963496D01*
X157404114Y-89196233D01*
X157242268Y-89451260D01*
X157113658Y-89724571D01*
X157020319Y-90011836D01*
X156963719Y-90308547D01*
X156944753Y-90610000D01*
X154220230Y-90610000D01*
X154204173Y-90573393D01*
X154068164Y-90365215D01*
X153899744Y-90182262D01*
X153819141Y-90119526D01*
X153703514Y-90029529D01*
X153703510Y-90029526D01*
X153703509Y-90029526D01*
X153570480Y-89957534D01*
X153522977Y-89911955D01*
X153505500Y-89848481D01*
X153505500Y-87477249D01*
X153507764Y-87456741D01*
X153505561Y-87386618D01*
X153505500Y-87382724D01*
X153505500Y-87355159D01*
X153505500Y-87355155D01*
X153504997Y-87351175D01*
X153504081Y-87339533D01*
X153503427Y-87318711D01*
X153502710Y-87295878D01*
X153497118Y-87276631D01*
X153493174Y-87257590D01*
X153490664Y-87237713D01*
X153474579Y-87197088D01*
X153470808Y-87186073D01*
X153458618Y-87144115D01*
X153448414Y-87126860D01*
X153439861Y-87109400D01*
X153439767Y-87109162D01*
X153432486Y-87090773D01*
X153406808Y-87055430D01*
X153400401Y-87045676D01*
X153388532Y-87025606D01*
X153378170Y-87008085D01*
X153364005Y-86993920D01*
X153351367Y-86979122D01*
X153339595Y-86962918D01*
X153305941Y-86935078D01*
X153297299Y-86927214D01*
X151736766Y-85366681D01*
X151706516Y-85317318D01*
X151701974Y-85259602D01*
X151724129Y-85206115D01*
X151768152Y-85168515D01*
X151824447Y-85155000D01*
X152700500Y-85155000D01*
X152762500Y-85171613D01*
X152807887Y-85217000D01*
X152824500Y-85279000D01*
X152824500Y-85521676D01*
X152834825Y-85622752D01*
X152889091Y-85786515D01*
X152979661Y-85933352D01*
X153101647Y-86055338D01*
X153101649Y-86055339D01*
X153101650Y-86055340D01*
X153179921Y-86103618D01*
X153248484Y-86145908D01*
X153412246Y-86200174D01*
X153421614Y-86201131D01*
X153513323Y-86210500D01*
X154211676Y-86210499D01*
X154312753Y-86200174D01*
X154476516Y-86145908D01*
X154623350Y-86055340D01*
X154637316Y-86041373D01*
X154692906Y-86009277D01*
X154757094Y-86009277D01*
X154812683Y-86041373D01*
X154826650Y-86055340D01*
X154956876Y-86135664D01*
X154973484Y-86145908D01*
X155137246Y-86200174D01*
X155146614Y-86201131D01*
X155238323Y-86210500D01*
X155936676Y-86210499D01*
X156037753Y-86200174D01*
X156201516Y-86145908D01*
X156348350Y-86055340D01*
X156470340Y-85933350D01*
X156560908Y-85786516D01*
X156615174Y-85622753D01*
X156625500Y-85521677D01*
X156625499Y-85278997D01*
X156642112Y-85217000D01*
X156687499Y-85171613D01*
X156749499Y-85155000D01*
X168408861Y-85155000D01*
X168470872Y-85171619D01*
X168516261Y-85217022D01*
X168532860Y-85279037D01*
X168531861Y-88521316D01*
X168524538Y-112270362D01*
X168507883Y-112332396D01*
X168462427Y-112377775D01*
X168400364Y-112394324D01*
X154388261Y-112374672D01*
X154326642Y-112358178D01*
X154281375Y-112313236D01*
X154264440Y-112251739D01*
X154239646Y-109364999D01*
X158379340Y-109364999D01*
X158399936Y-109600407D01*
X158404828Y-109618663D01*
X158461097Y-109828663D01*
X158560965Y-110042830D01*
X158696505Y-110236401D01*
X158863599Y-110403495D01*
X159057170Y-110539035D01*
X159271337Y-110638903D01*
X159499592Y-110700063D01*
X159735000Y-110720659D01*
X159970408Y-110700063D01*
X160198663Y-110638903D01*
X160412830Y-110539035D01*
X160606401Y-110403495D01*
X160728717Y-110281178D01*
X160781460Y-110249885D01*
X160842752Y-110247696D01*
X160897597Y-110275149D01*
X160932577Y-110325528D01*
X160981647Y-110457088D01*
X161067811Y-110572188D01*
X161182910Y-110658352D01*
X161317624Y-110708597D01*
X161377176Y-110715000D01*
X162025000Y-110715000D01*
X162025000Y-109615000D01*
X162525000Y-109615000D01*
X162525000Y-110715000D01*
X163172824Y-110715000D01*
X163232375Y-110708597D01*
X163367089Y-110658352D01*
X163482188Y-110572188D01*
X163568352Y-110457089D01*
X163618597Y-110322375D01*
X163625000Y-110262824D01*
X163625000Y-109615000D01*
X162525000Y-109615000D01*
X162025000Y-109615000D01*
X162025000Y-107075000D01*
X162525000Y-107075000D01*
X162525000Y-109115000D01*
X163625000Y-109115000D01*
X163625000Y-108467176D01*
X163618597Y-108407624D01*
X163568352Y-108272910D01*
X163482188Y-108157811D01*
X163367088Y-108071647D01*
X163235012Y-108022385D01*
X163184633Y-107987405D01*
X163157180Y-107932561D01*
X163159369Y-107871268D01*
X163190665Y-107818521D01*
X163313109Y-107696077D01*
X163448600Y-107502576D01*
X163548430Y-107288492D01*
X163605636Y-107075000D01*
X162525000Y-107075000D01*
X162025000Y-107075000D01*
X162025000Y-105494364D01*
X162525000Y-105494364D01*
X162525000Y-106575000D01*
X163605636Y-106575000D01*
X163605635Y-106574999D01*
X163548430Y-106361507D01*
X163448599Y-106147421D01*
X163313109Y-105953921D01*
X163146081Y-105786893D01*
X162952576Y-105651399D01*
X162738492Y-105551569D01*
X162525000Y-105494364D01*
X162025000Y-105494364D01*
X162024999Y-105494364D01*
X161811507Y-105551569D01*
X161597421Y-105651400D01*
X161403921Y-105786890D01*
X161236893Y-105953918D01*
X161106880Y-106139596D01*
X161062562Y-106178461D01*
X161005305Y-106192472D01*
X160948048Y-106178461D01*
X160903730Y-106139595D01*
X160773494Y-105953598D01*
X160606404Y-105786508D01*
X160606404Y-105786507D01*
X160606401Y-105786505D01*
X160412830Y-105650965D01*
X160198663Y-105551097D01*
X160137501Y-105534709D01*
X159970407Y-105489936D01*
X159735000Y-105469340D01*
X159499592Y-105489936D01*
X159271336Y-105551097D01*
X159057170Y-105650965D01*
X158863598Y-105786505D01*
X158696505Y-105953598D01*
X158560965Y-106147170D01*
X158461097Y-106361336D01*
X158399936Y-106589592D01*
X158379340Y-106825000D01*
X158399936Y-107060407D01*
X158404828Y-107078663D01*
X158461097Y-107288663D01*
X158560965Y-107502830D01*
X158696505Y-107696401D01*
X158863599Y-107863495D01*
X159049160Y-107993426D01*
X159088024Y-108037743D01*
X159102035Y-108095000D01*
X159088024Y-108152257D01*
X159049160Y-108196574D01*
X158924876Y-108283599D01*
X158863595Y-108326508D01*
X158696505Y-108493598D01*
X158560965Y-108687170D01*
X158461097Y-108901336D01*
X158399936Y-109129592D01*
X158379340Y-109364999D01*
X154239646Y-109364999D01*
X154195531Y-104228811D01*
X154195529Y-104227126D01*
X154195540Y-104225001D01*
X154195541Y-104225000D01*
X154195540Y-104224998D01*
X154195542Y-104224680D01*
X154195380Y-104224614D01*
X154195235Y-104224555D01*
X154195100Y-104224500D01*
X154195096Y-104224499D01*
X154195091Y-104224497D01*
X154194996Y-104224458D01*
X154189977Y-104224494D01*
X154189070Y-104224497D01*
X122653556Y-104214502D01*
X122652938Y-104214500D01*
X122644776Y-104214456D01*
X122644458Y-104214774D01*
X122644458Y-104226002D01*
X122644457Y-104226450D01*
X122614959Y-112220506D01*
X122598119Y-112282442D01*
X122552568Y-112327661D01*
X122490510Y-112344047D01*
X108959050Y-112294950D01*
X108897240Y-112278188D01*
X108852038Y-112232821D01*
X108835500Y-112170951D01*
X108835500Y-109154999D01*
X113399340Y-109154999D01*
X113419936Y-109390407D01*
X113464709Y-109557501D01*
X113481097Y-109618663D01*
X113580965Y-109832830D01*
X113716505Y-110026401D01*
X113883599Y-110193495D01*
X114077170Y-110329035D01*
X114291337Y-110428903D01*
X114519592Y-110490063D01*
X114755000Y-110510659D01*
X114990408Y-110490063D01*
X115218663Y-110428903D01*
X115432830Y-110329035D01*
X115626401Y-110193495D01*
X115748717Y-110071178D01*
X115801460Y-110039885D01*
X115862752Y-110037696D01*
X115917597Y-110065149D01*
X115952577Y-110115528D01*
X116001647Y-110247088D01*
X116087811Y-110362188D01*
X116202910Y-110448352D01*
X116337624Y-110498597D01*
X116397176Y-110505000D01*
X117045000Y-110505000D01*
X117045000Y-109405000D01*
X117545000Y-109405000D01*
X117545000Y-110505000D01*
X118192824Y-110505000D01*
X118252375Y-110498597D01*
X118387089Y-110448352D01*
X118502188Y-110362188D01*
X118588352Y-110247089D01*
X118638597Y-110112375D01*
X118645000Y-110052824D01*
X118645000Y-109405000D01*
X117545000Y-109405000D01*
X117045000Y-109405000D01*
X117045000Y-106865000D01*
X117545000Y-106865000D01*
X117545000Y-108905000D01*
X118645000Y-108905000D01*
X118645000Y-108257176D01*
X118638597Y-108197624D01*
X118588352Y-108062910D01*
X118502188Y-107947811D01*
X118387088Y-107861647D01*
X118255012Y-107812385D01*
X118204633Y-107777405D01*
X118177180Y-107722561D01*
X118179369Y-107661268D01*
X118210665Y-107608521D01*
X118333109Y-107486077D01*
X118468600Y-107292576D01*
X118568430Y-107078492D01*
X118625636Y-106865000D01*
X117545000Y-106865000D01*
X117045000Y-106865000D01*
X117045000Y-105284364D01*
X117545000Y-105284364D01*
X117545000Y-106365000D01*
X118625636Y-106365000D01*
X118625635Y-106364999D01*
X118568430Y-106151507D01*
X118468599Y-105937421D01*
X118333109Y-105743921D01*
X118166081Y-105576893D01*
X117972576Y-105441399D01*
X117758492Y-105341569D01*
X117545000Y-105284364D01*
X117045000Y-105284364D01*
X117044999Y-105284364D01*
X116831507Y-105341569D01*
X116617421Y-105441400D01*
X116423921Y-105576890D01*
X116256893Y-105743918D01*
X116126880Y-105929596D01*
X116082562Y-105968461D01*
X116025305Y-105982472D01*
X115968048Y-105968461D01*
X115923730Y-105929595D01*
X115793495Y-105743599D01*
X115626401Y-105576505D01*
X115432830Y-105440965D01*
X115218663Y-105341097D01*
X115157502Y-105324709D01*
X114990407Y-105279936D01*
X114755000Y-105259340D01*
X114519592Y-105279936D01*
X114291336Y-105341097D01*
X114077170Y-105440965D01*
X113883598Y-105576505D01*
X113716505Y-105743598D01*
X113580965Y-105937170D01*
X113481097Y-106151336D01*
X113419936Y-106379592D01*
X113399340Y-106615000D01*
X113419936Y-106850407D01*
X113464709Y-107017502D01*
X113481097Y-107078663D01*
X113580965Y-107292830D01*
X113716505Y-107486401D01*
X113883599Y-107653495D01*
X114069160Y-107783426D01*
X114108024Y-107827743D01*
X114122035Y-107885000D01*
X114108024Y-107942257D01*
X114069158Y-107986575D01*
X113914312Y-108095000D01*
X113883595Y-108116508D01*
X113716505Y-108283598D01*
X113580965Y-108477170D01*
X113481097Y-108691336D01*
X113419936Y-108919592D01*
X113399340Y-109154999D01*
X108835500Y-109154999D01*
X108835500Y-100267764D01*
X113355787Y-100267764D01*
X113385413Y-100537016D01*
X113453928Y-100799087D01*
X113559871Y-101048392D01*
X113700982Y-101279611D01*
X113874253Y-101487818D01*
X113874255Y-101487820D01*
X114075998Y-101668582D01*
X114301910Y-101818044D01*
X114397855Y-101863021D01*
X114547177Y-101933021D01*
X114806562Y-102011058D01*
X114806569Y-102011060D01*
X115074561Y-102050500D01*
X115277631Y-102050500D01*
X115277634Y-102050500D01*
X115480156Y-102035677D01*
X115480156Y-102035676D01*
X115744553Y-101976780D01*
X115997558Y-101880014D01*
X116233777Y-101747441D01*
X116448177Y-101581888D01*
X116636186Y-101386881D01*
X116793799Y-101166579D01*
X116917656Y-100925675D01*
X117005118Y-100669305D01*
X117054319Y-100402933D01*
X117061817Y-100197764D01*
X159945787Y-100197764D01*
X159975413Y-100467016D01*
X159975414Y-100467018D01*
X160043928Y-100729088D01*
X160127469Y-100925675D01*
X160149871Y-100978392D01*
X160290982Y-101209611D01*
X160438507Y-101386881D01*
X160464255Y-101417820D01*
X160665998Y-101598582D01*
X160891910Y-101748044D01*
X160998211Y-101797876D01*
X161137177Y-101863021D01*
X161396562Y-101941058D01*
X161396569Y-101941060D01*
X161664561Y-101980500D01*
X161867631Y-101980500D01*
X161867634Y-101980500D01*
X162070156Y-101965677D01*
X162070155Y-101965677D01*
X162334553Y-101906780D01*
X162587558Y-101810014D01*
X162823777Y-101677441D01*
X163038177Y-101511888D01*
X163226186Y-101316881D01*
X163383799Y-101096579D01*
X163507656Y-100855675D01*
X163595118Y-100599305D01*
X163644319Y-100332933D01*
X163654212Y-100062235D01*
X163624586Y-99792982D01*
X163556072Y-99530912D01*
X163450130Y-99281610D01*
X163309018Y-99050390D01*
X163309017Y-99050388D01*
X163135746Y-98842181D01*
X163094009Y-98804785D01*
X162934002Y-98661418D01*
X162708090Y-98511956D01*
X162696680Y-98506607D01*
X162462822Y-98396978D01*
X162203437Y-98318941D01*
X162203431Y-98318940D01*
X161935439Y-98279500D01*
X161732369Y-98279500D01*
X161732366Y-98279500D01*
X161529843Y-98294322D01*
X161265449Y-98353219D01*
X161012441Y-98449986D01*
X160776223Y-98582559D01*
X160561825Y-98748109D01*
X160373813Y-98943120D01*
X160216201Y-99163420D01*
X160092342Y-99404329D01*
X160004881Y-99660695D01*
X159955680Y-99927066D01*
X159945787Y-100197764D01*
X117061817Y-100197764D01*
X117064212Y-100132235D01*
X117034586Y-99862982D01*
X116966072Y-99600912D01*
X116860130Y-99351610D01*
X116748580Y-99168829D01*
X116719017Y-99120388D01*
X116545746Y-98912181D01*
X116440758Y-98818112D01*
X116344002Y-98731418D01*
X116118090Y-98581956D01*
X116118086Y-98581954D01*
X115872822Y-98466978D01*
X115613437Y-98388941D01*
X115613431Y-98388940D01*
X115345439Y-98349500D01*
X115142369Y-98349500D01*
X115142366Y-98349500D01*
X114939843Y-98364322D01*
X114675449Y-98423219D01*
X114422441Y-98519986D01*
X114186223Y-98652559D01*
X113971825Y-98818109D01*
X113783813Y-99013120D01*
X113626201Y-99233420D01*
X113502342Y-99474329D01*
X113414881Y-99730695D01*
X113365680Y-99997066D01*
X113355787Y-100267764D01*
X108835500Y-100267764D01*
X108835500Y-97740000D01*
X123324356Y-97740000D01*
X123344891Y-97987816D01*
X123344891Y-97987819D01*
X123344892Y-97987821D01*
X123405937Y-98228881D01*
X123428141Y-98279500D01*
X123505825Y-98456604D01*
X123505827Y-98456607D01*
X123641836Y-98664785D01*
X123810256Y-98847738D01*
X123875667Y-98898650D01*
X124006485Y-99000470D01*
X124006487Y-99000471D01*
X124006491Y-99000474D01*
X124225190Y-99118828D01*
X124460386Y-99199571D01*
X124705665Y-99240500D01*
X124954335Y-99240500D01*
X125199614Y-99199571D01*
X125434810Y-99118828D01*
X125653509Y-99000474D01*
X125849744Y-98847738D01*
X126018164Y-98664785D01*
X126154173Y-98456607D01*
X126254063Y-98228881D01*
X126315108Y-97987821D01*
X126335643Y-97740000D01*
X126315108Y-97492179D01*
X126254063Y-97251119D01*
X126154173Y-97023393D01*
X126018164Y-96815215D01*
X125849744Y-96632262D01*
X125827612Y-96615036D01*
X125653514Y-96479529D01*
X125653510Y-96479526D01*
X125653509Y-96479526D01*
X125434810Y-96361172D01*
X125434806Y-96361170D01*
X125434805Y-96361170D01*
X125199615Y-96280429D01*
X124954335Y-96239500D01*
X124705665Y-96239500D01*
X124460384Y-96280429D01*
X124225194Y-96361170D01*
X124006485Y-96479529D01*
X123810259Y-96632259D01*
X123810256Y-96632261D01*
X123810256Y-96632262D01*
X123641836Y-96815215D01*
X123596499Y-96884607D01*
X123505825Y-97023395D01*
X123444417Y-97163393D01*
X123405937Y-97251119D01*
X123370485Y-97391117D01*
X123344891Y-97492183D01*
X123324356Y-97740000D01*
X108835500Y-97740000D01*
X108835500Y-91239999D01*
X123324356Y-91239999D01*
X123344891Y-91487816D01*
X123344891Y-91487819D01*
X123344892Y-91487821D01*
X123405937Y-91728881D01*
X123440828Y-91808425D01*
X123505825Y-91956604D01*
X123505827Y-91956607D01*
X123641836Y-92164785D01*
X123810256Y-92347738D01*
X123875667Y-92398650D01*
X124006485Y-92500470D01*
X124006487Y-92500471D01*
X124006491Y-92500474D01*
X124225190Y-92618828D01*
X124460386Y-92699571D01*
X124705665Y-92740500D01*
X124954335Y-92740500D01*
X125199614Y-92699571D01*
X125434810Y-92618828D01*
X125653509Y-92500474D01*
X125849744Y-92347738D01*
X126018164Y-92164785D01*
X126154173Y-91956607D01*
X126254063Y-91728881D01*
X126315108Y-91487821D01*
X126335643Y-91240000D01*
X126315108Y-90992179D01*
X126254063Y-90751119D01*
X126164016Y-90545833D01*
X126154174Y-90523395D01*
X126154173Y-90523393D01*
X126018164Y-90315215D01*
X125849744Y-90132262D01*
X125785120Y-90081963D01*
X125653514Y-89979529D01*
X125653510Y-89979526D01*
X125653509Y-89979526D01*
X125434810Y-89861172D01*
X125434806Y-89861170D01*
X125434805Y-89861170D01*
X125199615Y-89780429D01*
X124954335Y-89739500D01*
X124705665Y-89739500D01*
X124460384Y-89780429D01*
X124225194Y-89861170D01*
X124006485Y-89979529D01*
X123810259Y-90132259D01*
X123810256Y-90132261D01*
X123810256Y-90132262D01*
X123641836Y-90315215D01*
X123600418Y-90378610D01*
X123505825Y-90523395D01*
X123437132Y-90680001D01*
X123405937Y-90751119D01*
X123391932Y-90806423D01*
X123344891Y-90992183D01*
X123324356Y-91239999D01*
X108835500Y-91239999D01*
X108835500Y-85279000D01*
X108852113Y-85217000D01*
X108897500Y-85171613D01*
X108959500Y-85155000D01*
X112110778Y-85155000D01*
X112170205Y-85170168D01*
G37*
%TD.AperFunction*%
%TD*%
%TA.AperFunction,Conductor*%
%TO.N,/MCU_POWER/USB_OUT*%
G36*
X138118093Y-52499131D02*
G01*
X138179355Y-52515802D01*
X138224336Y-52560611D01*
X138241242Y-52621809D01*
X138284993Y-56734342D01*
X138285000Y-56735661D01*
X138285000Y-60478413D01*
X138267958Y-60541151D01*
X138221516Y-60586643D01*
X138158441Y-60602386D01*
X137915374Y-60597367D01*
X137265767Y-60583953D01*
X137208748Y-60568728D01*
X137165225Y-60528870D01*
X137159378Y-60520119D01*
X137139552Y-60490448D01*
X137073231Y-60446133D01*
X137073230Y-60446132D01*
X137014749Y-60434500D01*
X137014748Y-60434500D01*
X135875252Y-60434500D01*
X135875251Y-60434500D01*
X135816770Y-60446132D01*
X135750445Y-60490450D01*
X135747180Y-60495337D01*
X135701400Y-60536398D01*
X135641522Y-60550414D01*
X135016038Y-60537499D01*
X134955244Y-60520119D01*
X134910922Y-60475022D01*
X134894599Y-60413936D01*
X134885850Y-57771782D01*
X134902475Y-57709351D01*
X134948254Y-57663756D01*
X135010754Y-57647379D01*
X136677359Y-57659574D01*
X136757059Y-57649598D01*
X136819584Y-57633208D01*
X136893928Y-57602804D01*
X136957778Y-57554074D01*
X137003561Y-57508444D01*
X137052506Y-57444755D01*
X137083158Y-57370509D01*
X137099756Y-57308038D01*
X137109998Y-57228374D01*
X137100500Y-54844289D01*
X137100500Y-54839500D01*
X137090090Y-54760430D01*
X137085575Y-54743583D01*
X137082794Y-54692629D01*
X137100771Y-54644867D01*
X137136461Y-54608390D01*
X137143229Y-54603867D01*
X137143231Y-54603867D01*
X137209552Y-54559552D01*
X137253867Y-54493231D01*
X137265500Y-54434748D01*
X137265500Y-53045252D01*
X137253867Y-52986769D01*
X137253866Y-52986768D01*
X137209552Y-52920447D01*
X137143230Y-52876132D01*
X137084749Y-52864500D01*
X137084748Y-52864500D01*
X136895882Y-52864500D01*
X136834276Y-52848113D01*
X136788952Y-52803285D01*
X136771889Y-52741862D01*
X136770508Y-52616171D01*
X136786802Y-52553353D01*
X136832595Y-52507368D01*
X136895342Y-52490812D01*
X138118093Y-52499131D01*
G37*
%TD.AperFunction*%
%TD*%
%TA.AperFunction,Conductor*%
%TO.N,GND*%
G36*
X134355848Y-52865006D02*
G01*
X135593124Y-52875148D01*
X135658761Y-52894583D01*
X135704085Y-52945889D01*
X135715278Y-53013427D01*
X135714500Y-53020135D01*
X135714500Y-54459867D01*
X135717414Y-54484988D01*
X135717414Y-54484990D01*
X135717415Y-54484991D01*
X135758262Y-54577500D01*
X135762795Y-54587767D01*
X135842232Y-54667204D01*
X135842233Y-54667204D01*
X135842235Y-54667206D01*
X135945009Y-54712585D01*
X135970135Y-54715500D01*
X136459864Y-54715499D01*
X136459867Y-54715499D01*
X136470632Y-54714250D01*
X136484991Y-54712585D01*
X136489911Y-54710412D01*
X136539998Y-54699845D01*
X136590087Y-54710412D01*
X136593590Y-54711958D01*
X136595009Y-54712585D01*
X136620135Y-54715500D01*
X136620135Y-54715499D01*
X136620136Y-54715500D01*
X136671000Y-54715500D01*
X136733000Y-54732113D01*
X136778387Y-54777500D01*
X136795000Y-54839500D01*
X136795000Y-54845004D01*
X136804500Y-57229591D01*
X136787902Y-57292062D01*
X136742119Y-57337692D01*
X136679594Y-57354082D01*
X134550095Y-57338500D01*
X132828091Y-57325900D01*
X132766477Y-57308987D01*
X132721462Y-57263642D01*
X132705000Y-57201904D01*
X132705000Y-54639500D01*
X132721613Y-54577500D01*
X132767000Y-54532113D01*
X132829000Y-54515500D01*
X133859867Y-54515499D01*
X133872427Y-54514042D01*
X133884991Y-54512585D01*
X133987765Y-54467206D01*
X134067206Y-54387765D01*
X134112585Y-54284991D01*
X134115500Y-54259865D01*
X134115499Y-52989701D01*
X134131987Y-52927919D01*
X134177066Y-52882566D01*
X134238745Y-52865704D01*
X134354166Y-52865005D01*
X134355848Y-52865006D01*
G37*
%TD.AperFunction*%
%TD*%
%TA.AperFunction,Conductor*%
%TO.N,GND*%
G36*
X124639960Y-72981326D02*
G01*
X127193858Y-72990498D01*
X127194527Y-72990498D01*
X127194722Y-72990499D01*
X128440414Y-72990500D01*
X128440422Y-72990499D01*
X128443543Y-72990499D01*
X128505266Y-73006952D01*
X128550609Y-73051946D01*
X128567539Y-73113540D01*
X128625000Y-80545000D01*
X128932332Y-80545000D01*
X128993945Y-80561390D01*
X129039270Y-80606228D01*
X129056325Y-80667661D01*
X129123631Y-86898275D01*
X129107244Y-86961234D01*
X129061238Y-87007231D01*
X128998275Y-87023607D01*
X127575122Y-87007967D01*
X127513826Y-86990978D01*
X127469017Y-86945833D01*
X127452487Y-86884417D01*
X127445386Y-84872452D01*
X127442710Y-84840113D01*
X127436429Y-84801584D01*
X127416099Y-84740167D01*
X127416099Y-84740166D01*
X127398154Y-84705506D01*
X127398151Y-84705500D01*
X127381003Y-84677951D01*
X127372040Y-84665807D01*
X127354771Y-84633130D01*
X127341958Y-84596511D01*
X127335000Y-84555558D01*
X127335000Y-83564438D01*
X127341957Y-83523489D01*
X127342442Y-83522102D01*
X127354771Y-83486866D01*
X127372046Y-83454182D01*
X127375288Y-83449790D01*
X127392603Y-83421917D01*
X127410687Y-83386835D01*
X127431022Y-83324667D01*
X127437166Y-83285679D01*
X127439670Y-83252965D01*
X127437511Y-82641305D01*
X127434835Y-82608966D01*
X127428554Y-82570437D01*
X127408224Y-82509020D01*
X127408224Y-82509019D01*
X127390279Y-82474359D01*
X127390276Y-82474353D01*
X127373128Y-82446804D01*
X127317040Y-82370808D01*
X127299771Y-82338133D01*
X127286956Y-82301509D01*
X127280000Y-82260559D01*
X127280000Y-81269438D01*
X127286957Y-81228487D01*
X127299771Y-81191863D01*
X127317043Y-81159185D01*
X127366963Y-81091547D01*
X127366964Y-81091546D01*
X127384277Y-81063677D01*
X127402362Y-81028595D01*
X127422699Y-80966423D01*
X127428843Y-80927434D01*
X127431347Y-80894720D01*
X127430936Y-80778276D01*
X127423745Y-80725112D01*
X127406913Y-80663171D01*
X127386209Y-80613681D01*
X127353401Y-80571237D01*
X127307853Y-80526010D01*
X127265176Y-80493502D01*
X127215540Y-80473148D01*
X127153481Y-80456755D01*
X127119887Y-80452453D01*
X127100263Y-80449940D01*
X121885975Y-80468464D01*
X121828325Y-80454479D01*
X121783769Y-80415314D01*
X121762504Y-80359934D01*
X121735308Y-80143633D01*
X121494081Y-78225044D01*
X121501556Y-78164600D01*
X121536910Y-78115006D01*
X121591614Y-78088227D01*
X121652468Y-78090724D01*
X121704793Y-78121896D01*
X121708630Y-78125733D01*
X121717896Y-78136101D01*
X121740121Y-78163970D01*
X121770640Y-78184777D01*
X121787364Y-78196180D01*
X121791141Y-78198860D01*
X121812669Y-78214749D01*
X121841973Y-78236376D01*
X121846568Y-78238695D01*
X121852325Y-78240470D01*
X121852327Y-78240472D01*
X121877351Y-78248190D01*
X121906980Y-78257330D01*
X121911371Y-78258774D01*
X121965301Y-78277646D01*
X121965303Y-78277646D01*
X121970990Y-78279636D01*
X121976071Y-78280500D01*
X121982098Y-78280500D01*
X122039246Y-78280500D01*
X122043883Y-78280586D01*
X122101010Y-78282725D01*
X122101010Y-78282724D01*
X122107026Y-78282950D01*
X122125638Y-78280500D01*
X122360951Y-78280500D01*
X122415795Y-78293288D01*
X122459327Y-78329014D01*
X122482568Y-78380309D01*
X122486132Y-78398230D01*
X122530447Y-78464552D01*
X122596769Y-78508867D01*
X122655251Y-78520500D01*
X122655252Y-78520500D01*
X126094748Y-78520500D01*
X126094749Y-78520500D01*
X126123989Y-78514683D01*
X126153231Y-78508867D01*
X126219552Y-78464552D01*
X126263867Y-78398231D01*
X126275500Y-78339748D01*
X126275500Y-77320252D01*
X126263867Y-77261769D01*
X126249933Y-77240915D01*
X126219552Y-77195447D01*
X126153230Y-77151132D01*
X126094749Y-77139500D01*
X126094748Y-77139500D01*
X122655252Y-77139500D01*
X122655251Y-77139500D01*
X122596769Y-77151132D01*
X122530447Y-77195447D01*
X122486132Y-77261769D01*
X122482568Y-77279691D01*
X122459327Y-77330986D01*
X122415795Y-77366712D01*
X122360951Y-77379500D01*
X122287965Y-77379500D01*
X122240512Y-77370061D01*
X122200284Y-77343181D01*
X121929679Y-77072576D01*
X121847882Y-77012207D01*
X121719697Y-76967353D01*
X121693512Y-76966374D01*
X121648562Y-76956115D01*
X121610468Y-76930142D01*
X121459043Y-76778717D01*
X121451734Y-76770741D01*
X121427454Y-76741805D01*
X121394736Y-76722915D01*
X121385627Y-76717112D01*
X121354684Y-76695446D01*
X121353803Y-76694829D01*
X121329107Y-76684599D01*
X121290852Y-76677853D01*
X121280296Y-76675512D01*
X121243807Y-76665735D01*
X121206180Y-76669028D01*
X121195372Y-76669500D01*
X119790251Y-76669500D01*
X119731769Y-76681132D01*
X119665447Y-76725447D01*
X119621132Y-76791769D01*
X119609500Y-76850251D01*
X119609500Y-77139749D01*
X119625945Y-77222422D01*
X119625177Y-77222574D01*
X119631687Y-77240915D01*
X119622300Y-77301053D01*
X119611617Y-77326123D01*
X119594452Y-77387418D01*
X119586861Y-77440060D01*
X119586517Y-77465552D01*
X119587359Y-77487103D01*
X119589730Y-77512939D01*
X119592821Y-77534272D01*
X119602617Y-77583515D01*
X119605000Y-77607708D01*
X119605000Y-78179794D01*
X119599415Y-78216590D01*
X119582943Y-78269598D01*
X119577369Y-78304721D01*
X119574849Y-78334164D01*
X119470723Y-86084997D01*
X119486347Y-86166399D01*
X119488587Y-86171807D01*
X119496963Y-86203068D01*
X119506277Y-86273813D01*
X119506277Y-86306185D01*
X119496963Y-86376927D01*
X119488587Y-86408190D01*
X119480731Y-86427156D01*
X119465107Y-86503038D01*
X119462887Y-86668293D01*
X119445405Y-86730128D01*
X119399320Y-86774910D01*
X119337010Y-86790613D01*
X117778499Y-86766880D01*
X117716898Y-86749408D01*
X117672227Y-86703535D01*
X117656395Y-86641495D01*
X117729511Y-80170774D01*
X117739210Y-80124086D01*
X117765815Y-80084510D01*
X119191296Y-78659029D01*
X119199249Y-78651741D01*
X119228194Y-78627455D01*
X119247082Y-78594738D01*
X119252881Y-78585635D01*
X119274554Y-78554684D01*
X119274554Y-78554682D01*
X119275173Y-78553799D01*
X119285398Y-78529112D01*
X119285585Y-78528049D01*
X119285588Y-78528045D01*
X119292150Y-78490822D01*
X119294479Y-78480316D01*
X119304263Y-78443807D01*
X119300971Y-78406188D01*
X119300500Y-78395382D01*
X119300500Y-78277232D01*
X119302883Y-78253040D01*
X119310500Y-78214749D01*
X119310500Y-77954176D01*
X119314356Y-77924877D01*
X119314262Y-77923808D01*
X119314263Y-77923807D01*
X119310971Y-77886188D01*
X119310500Y-77875382D01*
X119310500Y-77575251D01*
X119298867Y-77516769D01*
X119254552Y-77450447D01*
X119188230Y-77406132D01*
X119129749Y-77394500D01*
X119129748Y-77394500D01*
X118840252Y-77394500D01*
X118840251Y-77394500D01*
X118781769Y-77406132D01*
X118715447Y-77450447D01*
X118671132Y-77516769D01*
X118659500Y-77575251D01*
X118659500Y-77808499D01*
X118655275Y-77840592D01*
X118645735Y-77876193D01*
X118649028Y-77913820D01*
X118649500Y-77924628D01*
X118649500Y-78228811D01*
X118640061Y-78276264D01*
X118613181Y-78316492D01*
X117286731Y-79642941D01*
X117245889Y-79670073D01*
X117197724Y-79679253D01*
X115988154Y-79666317D01*
X115926577Y-79649184D01*
X115881712Y-79603660D01*
X115865481Y-79541842D01*
X115876292Y-76778717D01*
X115879480Y-75964015D01*
X115896254Y-75902220D01*
X115941619Y-75857032D01*
X116003479Y-75840500D01*
X116213507Y-75840500D01*
X116260960Y-75849939D01*
X116301188Y-75876819D01*
X116842788Y-76418419D01*
X116873195Y-76468269D01*
X116877416Y-76526509D01*
X116854514Y-76580223D01*
X116809570Y-76617498D01*
X116780571Y-76631676D01*
X116780569Y-76631677D01*
X116696676Y-76715570D01*
X116644567Y-76822158D01*
X116644566Y-76822160D01*
X116644567Y-76822160D01*
X116634500Y-76891258D01*
X116634500Y-77383742D01*
X116637762Y-77406132D01*
X116644567Y-77452841D01*
X116661317Y-77487103D01*
X116696676Y-77559429D01*
X116780571Y-77643324D01*
X116887160Y-77695433D01*
X116956258Y-77705500D01*
X117333739Y-77705500D01*
X117333742Y-77705500D01*
X117402840Y-77695433D01*
X117509429Y-77643324D01*
X117593324Y-77559429D01*
X117645433Y-77452840D01*
X117655500Y-77383742D01*
X117655500Y-77194500D01*
X117672113Y-77132500D01*
X117717500Y-77087113D01*
X117779500Y-77070500D01*
X118878749Y-77070500D01*
X118907989Y-77064683D01*
X118937231Y-77058867D01*
X119003552Y-77014552D01*
X119047867Y-76948231D01*
X119059500Y-76889748D01*
X119059500Y-76600252D01*
X119055385Y-76579567D01*
X119043376Y-76519192D01*
X119043376Y-76470808D01*
X119059500Y-76389749D01*
X119059500Y-76194500D01*
X119076113Y-76132500D01*
X119121500Y-76087113D01*
X119183500Y-76070500D01*
X119390373Y-76070500D01*
X119401181Y-76070972D01*
X119438806Y-76074264D01*
X119438806Y-76074263D01*
X119438807Y-76074264D01*
X119460611Y-76068421D01*
X119527403Y-76069148D01*
X119584128Y-76104420D01*
X119614324Y-76164002D01*
X119621132Y-76198230D01*
X119665447Y-76264552D01*
X119731769Y-76308867D01*
X119790251Y-76320500D01*
X119790252Y-76320500D01*
X120456525Y-76320500D01*
X121179748Y-76320500D01*
X121415373Y-76320500D01*
X121426180Y-76320971D01*
X121463807Y-76324264D01*
X121500324Y-76314478D01*
X121510830Y-76312149D01*
X121548045Y-76305588D01*
X121548047Y-76305586D01*
X121549112Y-76305399D01*
X121573799Y-76295173D01*
X121574682Y-76294554D01*
X121574684Y-76294554D01*
X121605625Y-76272887D01*
X121614722Y-76267091D01*
X121647455Y-76248194D01*
X121671743Y-76219247D01*
X121679042Y-76211283D01*
X121720215Y-76170111D01*
X121749955Y-76148162D01*
X121784843Y-76135955D01*
X121841454Y-76125243D01*
X121895472Y-76115023D01*
X122015538Y-76051566D01*
X122120285Y-75946819D01*
X122160513Y-75919939D01*
X122207966Y-75910500D01*
X122360951Y-75910500D01*
X122415795Y-75923288D01*
X122459327Y-75959014D01*
X122482568Y-76010309D01*
X122486132Y-76028230D01*
X122530447Y-76094552D01*
X122596769Y-76138867D01*
X122655251Y-76150500D01*
X122655252Y-76150500D01*
X126094748Y-76150500D01*
X126094749Y-76150500D01*
X126123989Y-76144683D01*
X126153231Y-76138867D01*
X126219552Y-76094552D01*
X126263867Y-76028231D01*
X126275500Y-75969748D01*
X126275500Y-74950252D01*
X126263867Y-74891769D01*
X126263866Y-74891768D01*
X126219552Y-74825447D01*
X126153230Y-74781132D01*
X126094749Y-74769500D01*
X126094748Y-74769500D01*
X122655252Y-74769500D01*
X122655251Y-74769500D01*
X122596769Y-74781132D01*
X122530447Y-74825447D01*
X122486132Y-74891769D01*
X122482568Y-74909691D01*
X122459327Y-74960986D01*
X122415795Y-74996712D01*
X122360951Y-75009500D01*
X122002262Y-75009500D01*
X121988378Y-75008720D01*
X121952963Y-75004729D01*
X121896811Y-75015354D01*
X121892241Y-75016131D01*
X121829758Y-75025549D01*
X121824850Y-75027164D01*
X121768965Y-75056699D01*
X121764830Y-75058786D01*
X121707948Y-75086180D01*
X121703707Y-75089189D01*
X121659047Y-75133848D01*
X121655710Y-75137062D01*
X121604051Y-75184996D01*
X121545905Y-75215300D01*
X121480434Y-75211715D01*
X121425945Y-75175243D01*
X121397672Y-75116083D01*
X121403522Y-75050776D01*
X121411278Y-75029977D01*
X121829307Y-73908899D01*
X121839333Y-73871653D01*
X121847125Y-73825969D01*
X121850013Y-73787504D01*
X121836881Y-73098065D01*
X121852766Y-73034945D01*
X121898435Y-72988565D01*
X121961302Y-72971707D01*
X124639960Y-72981326D01*
G37*
%TD.AperFunction*%
%TA.AperFunction,Conductor*%
G36*
X119328516Y-66878207D02*
G01*
X119374147Y-66922756D01*
X119391604Y-66984091D01*
X119499112Y-73230381D01*
X119483221Y-73293279D01*
X119437745Y-73339545D01*
X119375130Y-73356515D01*
X118905787Y-73356515D01*
X118835713Y-73366724D01*
X118727624Y-73419566D01*
X118642551Y-73504639D01*
X118589709Y-73612727D01*
X118579500Y-73682802D01*
X118579500Y-74071227D01*
X118589709Y-74141301D01*
X118642551Y-74249390D01*
X118727625Y-74334464D01*
X118835714Y-74387306D01*
X118905785Y-74397515D01*
X119035500Y-74397514D01*
X119097499Y-74414127D01*
X119142887Y-74459514D01*
X119159500Y-74521514D01*
X119159500Y-75295500D01*
X119142887Y-75357500D01*
X119097500Y-75402887D01*
X119035500Y-75419500D01*
X118239251Y-75419500D01*
X118180769Y-75431132D01*
X118114447Y-75475447D01*
X118070132Y-75541769D01*
X118058500Y-75600251D01*
X118058500Y-75795500D01*
X118041887Y-75857500D01*
X117996500Y-75902887D01*
X117934500Y-75919500D01*
X117315883Y-75919500D01*
X117268430Y-75910061D01*
X117228202Y-75883181D01*
X116643738Y-75298717D01*
X116636429Y-75290741D01*
X116612149Y-75261805D01*
X116579431Y-75242915D01*
X116570322Y-75237112D01*
X116539379Y-75215446D01*
X116538498Y-75214829D01*
X116513802Y-75204599D01*
X116475547Y-75197853D01*
X116464991Y-75195512D01*
X116428502Y-75185735D01*
X116390875Y-75189028D01*
X116380067Y-75189500D01*
X116006996Y-75189500D01*
X115944856Y-75172806D01*
X115899448Y-75127220D01*
X115882997Y-75065015D01*
X115914520Y-67007678D01*
X115931153Y-66946126D01*
X115976173Y-66900976D01*
X116037674Y-66884166D01*
X119266786Y-66862229D01*
X119328516Y-66878207D01*
G37*
%TD.AperFunction*%
%TD*%
M02*
