M48
; DRILL file {KiCad 7.0.1} date Sat Sep 23 10:11:24 2023
; FORMAT={-:-/ absolute / metric / decimal}
; #@! TF.CreationDate,2023-09-23T10:11:24-05:00
; #@! TF.GenerationSoftware,Kicad,Pcbnew,7.0.1
; #@! TF.FileFunction,MixedPlating,1,4
FMAT,2
METRIC
; #@! TA.AperFunction,Plated,PTH,ViaDrill
T1C0.400
; #@! TA.AperFunction,Plated,PTH,ComponentDrill
T2C1.000
; #@! TA.AperFunction,Plated,PTH,ComponentDrill
T3C1.100
; #@! TA.AperFunction,Plated,PTH,ComponentDrill
T4C1.200
; #@! TA.AperFunction,Plated,PTH,ComponentDrill
T5C2.200
; #@! TA.AperFunction,Plated,PTH,ComponentDrill
T6C2.300
; #@! TA.AperFunction,Plated,PTH,ComponentDrill
T7C2.500
; #@! TA.AperFunction,Plated,PTH,ComponentDrill
T8C3.000
; #@! TA.AperFunction,Plated,PTH,ComponentDrill
T9C3.120
; #@! TA.AperFunction,NonPlated,NPTH,ComponentDrill
T10C1.600
; #@! TA.AperFunction,NonPlated,NPTH,ComponentDrill
T11C3.200
%
G90
G05
T1
X114.5Y-95.75
X115.862Y-87.25
X117.0Y-66.25
X117.75Y-93.25
X118.25Y-52.5
X119.0Y-76.5
X119.294Y-66.456
X119.5Y-80.25
X120.0Y-73.5
X120.0Y-87.25
X120.5Y-69.75
X123.25Y-66.25
X124.25Y-69.75
X125.75Y-74.25
X126.0Y-94.0
X126.5Y-69.75
X126.5Y-87.25
X130.75Y-77.5
X135.636Y-85.852
X139.75Y-84.0
X142.748Y-85.852
X142.748Y-86.828
X142.748Y-87.884
X142.748Y-88.86
X144.018Y-85.852
X144.018Y-86.838
X144.018Y-87.884
X144.018Y-88.87
X151.5Y-86.5
X151.5Y-87.75
X152.75Y-86.5
X152.75Y-87.75
X154.0Y-86.5
X154.0Y-87.75
X155.25Y-86.5
X155.25Y-87.75
X156.5Y-86.5
X156.5Y-87.75
X157.75Y-86.5
X157.75Y-87.75
X159.0Y-86.5
X159.0Y-87.75
T2
X109.75Y-59.25
X109.75Y-61.79
X109.75Y-64.33
X109.75Y-66.87
X112.781Y-106.167
X112.781Y-108.707
X115.321Y-106.167
X115.321Y-108.707
X117.71Y-57.75
X120.25Y-57.75
X122.79Y-57.75
X125.33Y-57.75
X127.87Y-57.75
X158.242Y-106.172
X158.242Y-108.712
X160.782Y-106.172
X160.782Y-108.712
T3
X122.5Y-97.5
X122.5Y-102.0
X129.0Y-97.5
X129.0Y-102.0
T4
X140.97Y-94.996
X140.97Y-97.496
X140.97Y-99.996
T5
X110.998Y-99.822
X116.332Y-100.0
T6
X148.5Y-54.25
T7
X144.0Y-53.25
X153.0Y-53.25
T8
X148.5Y-60.25
T9
X147.97Y-93.096
X147.97Y-101.896
T10
X148.5Y-51.25
T11
X111.75Y-92.25
X112.0Y-52.0
X162.5Y-51.75
X162.75Y-92.25
T0
M30
