%TF.GenerationSoftware,KiCad,Pcbnew,7.0.1*%
%TF.CreationDate,2023-09-23T10:11:31-05:00*%
%TF.ProjectId,Power_Supply,506f7765-725f-4537-9570-706c792e6b69,1*%
%TF.SameCoordinates,Original*%
%TF.FileFunction,Legend,Top*%
%TF.FilePolarity,Positive*%
%FSLAX46Y46*%
G04 Gerber Fmt 4.6, Leading zero omitted, Abs format (unit mm)*
G04 Created by KiCad (PCBNEW 7.0.1) date 2023-09-23 10:11:31*
%MOMM*%
%LPD*%
G01*
G04 APERTURE LIST*
%ADD10C,0.150000*%
%ADD11C,0.250000*%
%ADD12C,0.254000*%
%ADD13C,0.120000*%
%ADD14C,0.200000*%
%ADD15C,0.100000*%
G04 APERTURE END LIST*
D10*
X115500000Y-72400000D02*
X116500000Y-72400000D01*
X115500000Y-73400000D02*
X115500000Y-72400000D01*
X157718095Y-103382666D02*
X158480000Y-103382666D01*
D11*
X122425238Y-61988095D02*
X122377619Y-62083333D01*
X122377619Y-62083333D02*
X122377619Y-62226190D01*
X122377619Y-62226190D02*
X122425238Y-62369047D01*
X122425238Y-62369047D02*
X122520476Y-62464285D01*
X122520476Y-62464285D02*
X122615714Y-62511904D01*
X122615714Y-62511904D02*
X122806190Y-62559523D01*
X122806190Y-62559523D02*
X122949047Y-62559523D01*
X122949047Y-62559523D02*
X123139523Y-62511904D01*
X123139523Y-62511904D02*
X123234761Y-62464285D01*
X123234761Y-62464285D02*
X123330000Y-62369047D01*
X123330000Y-62369047D02*
X123377619Y-62226190D01*
X123377619Y-62226190D02*
X123377619Y-62130952D01*
X123377619Y-62130952D02*
X123330000Y-61988095D01*
X123330000Y-61988095D02*
X123282380Y-61940476D01*
X123282380Y-61940476D02*
X122949047Y-61940476D01*
X122949047Y-61940476D02*
X122949047Y-62130952D01*
X123377619Y-61511904D02*
X122377619Y-61511904D01*
X122377619Y-61511904D02*
X123377619Y-60940476D01*
X123377619Y-60940476D02*
X122377619Y-60940476D01*
X123377619Y-60464285D02*
X122377619Y-60464285D01*
X122377619Y-60464285D02*
X122377619Y-60226190D01*
X122377619Y-60226190D02*
X122425238Y-60083333D01*
X122425238Y-60083333D02*
X122520476Y-59988095D01*
X122520476Y-59988095D02*
X122615714Y-59940476D01*
X122615714Y-59940476D02*
X122806190Y-59892857D01*
X122806190Y-59892857D02*
X122949047Y-59892857D01*
X122949047Y-59892857D02*
X123139523Y-59940476D01*
X123139523Y-59940476D02*
X123234761Y-59988095D01*
X123234761Y-59988095D02*
X123330000Y-60083333D01*
X123330000Y-60083333D02*
X123377619Y-60226190D01*
X123377619Y-60226190D02*
X123377619Y-60464285D01*
D10*
X112252095Y-103382666D02*
X113014000Y-103382666D01*
D11*
X111940476Y-64830000D02*
X112083333Y-64877619D01*
X112083333Y-64877619D02*
X112321428Y-64877619D01*
X112321428Y-64877619D02*
X112416666Y-64830000D01*
X112416666Y-64830000D02*
X112464285Y-64782380D01*
X112464285Y-64782380D02*
X112511904Y-64687142D01*
X112511904Y-64687142D02*
X112511904Y-64591904D01*
X112511904Y-64591904D02*
X112464285Y-64496666D01*
X112464285Y-64496666D02*
X112416666Y-64449047D01*
X112416666Y-64449047D02*
X112321428Y-64401428D01*
X112321428Y-64401428D02*
X112130952Y-64353809D01*
X112130952Y-64353809D02*
X112035714Y-64306190D01*
X112035714Y-64306190D02*
X111988095Y-64258571D01*
X111988095Y-64258571D02*
X111940476Y-64163333D01*
X111940476Y-64163333D02*
X111940476Y-64068095D01*
X111940476Y-64068095D02*
X111988095Y-63972857D01*
X111988095Y-63972857D02*
X112035714Y-63925238D01*
X112035714Y-63925238D02*
X112130952Y-63877619D01*
X112130952Y-63877619D02*
X112369047Y-63877619D01*
X112369047Y-63877619D02*
X112511904Y-63925238D01*
X112940476Y-64877619D02*
X112940476Y-63877619D01*
X112940476Y-63877619D02*
X113178571Y-63877619D01*
X113178571Y-63877619D02*
X113321428Y-63925238D01*
X113321428Y-63925238D02*
X113416666Y-64020476D01*
X113416666Y-64020476D02*
X113464285Y-64115714D01*
X113464285Y-64115714D02*
X113511904Y-64306190D01*
X113511904Y-64306190D02*
X113511904Y-64449047D01*
X113511904Y-64449047D02*
X113464285Y-64639523D01*
X113464285Y-64639523D02*
X113416666Y-64734761D01*
X113416666Y-64734761D02*
X113321428Y-64830000D01*
X113321428Y-64830000D02*
X113178571Y-64877619D01*
X113178571Y-64877619D02*
X112940476Y-64877619D01*
X113892857Y-64591904D02*
X114369047Y-64591904D01*
X113797619Y-64877619D02*
X114130952Y-63877619D01*
X114130952Y-63877619D02*
X114464285Y-64877619D01*
X125782380Y-61690476D02*
X125830000Y-61738095D01*
X125830000Y-61738095D02*
X125877619Y-61880952D01*
X125877619Y-61880952D02*
X125877619Y-61976190D01*
X125877619Y-61976190D02*
X125830000Y-62119047D01*
X125830000Y-62119047D02*
X125734761Y-62214285D01*
X125734761Y-62214285D02*
X125639523Y-62261904D01*
X125639523Y-62261904D02*
X125449047Y-62309523D01*
X125449047Y-62309523D02*
X125306190Y-62309523D01*
X125306190Y-62309523D02*
X125115714Y-62261904D01*
X125115714Y-62261904D02*
X125020476Y-62214285D01*
X125020476Y-62214285D02*
X124925238Y-62119047D01*
X124925238Y-62119047D02*
X124877619Y-61976190D01*
X124877619Y-61976190D02*
X124877619Y-61880952D01*
X124877619Y-61880952D02*
X124925238Y-61738095D01*
X124925238Y-61738095D02*
X124972857Y-61690476D01*
X125877619Y-60785714D02*
X125877619Y-61261904D01*
X125877619Y-61261904D02*
X124877619Y-61261904D01*
X125877619Y-60452380D02*
X124877619Y-60452380D01*
X125877619Y-59880952D02*
X125306190Y-60309523D01*
X124877619Y-59880952D02*
X125449047Y-60452380D01*
D10*
X160863666Y-103758951D02*
X160863666Y-102997047D01*
X161244619Y-103377999D02*
X160482714Y-103377999D01*
D11*
X111940476Y-62330000D02*
X112083333Y-62377619D01*
X112083333Y-62377619D02*
X112321428Y-62377619D01*
X112321428Y-62377619D02*
X112416666Y-62330000D01*
X112416666Y-62330000D02*
X112464285Y-62282380D01*
X112464285Y-62282380D02*
X112511904Y-62187142D01*
X112511904Y-62187142D02*
X112511904Y-62091904D01*
X112511904Y-62091904D02*
X112464285Y-61996666D01*
X112464285Y-61996666D02*
X112416666Y-61949047D01*
X112416666Y-61949047D02*
X112321428Y-61901428D01*
X112321428Y-61901428D02*
X112130952Y-61853809D01*
X112130952Y-61853809D02*
X112035714Y-61806190D01*
X112035714Y-61806190D02*
X111988095Y-61758571D01*
X111988095Y-61758571D02*
X111940476Y-61663333D01*
X111940476Y-61663333D02*
X111940476Y-61568095D01*
X111940476Y-61568095D02*
X111988095Y-61472857D01*
X111988095Y-61472857D02*
X112035714Y-61425238D01*
X112035714Y-61425238D02*
X112130952Y-61377619D01*
X112130952Y-61377619D02*
X112369047Y-61377619D01*
X112369047Y-61377619D02*
X112511904Y-61425238D01*
X113511904Y-62282380D02*
X113464285Y-62330000D01*
X113464285Y-62330000D02*
X113321428Y-62377619D01*
X113321428Y-62377619D02*
X113226190Y-62377619D01*
X113226190Y-62377619D02*
X113083333Y-62330000D01*
X113083333Y-62330000D02*
X112988095Y-62234761D01*
X112988095Y-62234761D02*
X112940476Y-62139523D01*
X112940476Y-62139523D02*
X112892857Y-61949047D01*
X112892857Y-61949047D02*
X112892857Y-61806190D01*
X112892857Y-61806190D02*
X112940476Y-61615714D01*
X112940476Y-61615714D02*
X112988095Y-61520476D01*
X112988095Y-61520476D02*
X113083333Y-61425238D01*
X113083333Y-61425238D02*
X113226190Y-61377619D01*
X113226190Y-61377619D02*
X113321428Y-61377619D01*
X113321428Y-61377619D02*
X113464285Y-61425238D01*
X113464285Y-61425238D02*
X113511904Y-61472857D01*
X114416666Y-62377619D02*
X113940476Y-62377619D01*
X113940476Y-62377619D02*
X113940476Y-61377619D01*
X127627619Y-62357142D02*
X127627619Y-61738095D01*
X127627619Y-61738095D02*
X128008571Y-62071428D01*
X128008571Y-62071428D02*
X128008571Y-61928571D01*
X128008571Y-61928571D02*
X128056190Y-61833333D01*
X128056190Y-61833333D02*
X128103809Y-61785714D01*
X128103809Y-61785714D02*
X128199047Y-61738095D01*
X128199047Y-61738095D02*
X128437142Y-61738095D01*
X128437142Y-61738095D02*
X128532380Y-61785714D01*
X128532380Y-61785714D02*
X128580000Y-61833333D01*
X128580000Y-61833333D02*
X128627619Y-61928571D01*
X128627619Y-61928571D02*
X128627619Y-62214285D01*
X128627619Y-62214285D02*
X128580000Y-62309523D01*
X128580000Y-62309523D02*
X128532380Y-62357142D01*
X127627619Y-61452380D02*
X128627619Y-61119047D01*
X128627619Y-61119047D02*
X127627619Y-60785714D01*
X127627619Y-60547618D02*
X127627619Y-59928571D01*
X127627619Y-59928571D02*
X128008571Y-60261904D01*
X128008571Y-60261904D02*
X128008571Y-60119047D01*
X128008571Y-60119047D02*
X128056190Y-60023809D01*
X128056190Y-60023809D02*
X128103809Y-59976190D01*
X128103809Y-59976190D02*
X128199047Y-59928571D01*
X128199047Y-59928571D02*
X128437142Y-59928571D01*
X128437142Y-59928571D02*
X128532380Y-59976190D01*
X128532380Y-59976190D02*
X128580000Y-60023809D01*
X128580000Y-60023809D02*
X128627619Y-60119047D01*
X128627619Y-60119047D02*
X128627619Y-60404761D01*
X128627619Y-60404761D02*
X128580000Y-60499999D01*
X128580000Y-60499999D02*
X128532380Y-60547618D01*
X118080000Y-62559523D02*
X118127619Y-62416666D01*
X118127619Y-62416666D02*
X118127619Y-62178571D01*
X118127619Y-62178571D02*
X118080000Y-62083333D01*
X118080000Y-62083333D02*
X118032380Y-62035714D01*
X118032380Y-62035714D02*
X117937142Y-61988095D01*
X117937142Y-61988095D02*
X117841904Y-61988095D01*
X117841904Y-61988095D02*
X117746666Y-62035714D01*
X117746666Y-62035714D02*
X117699047Y-62083333D01*
X117699047Y-62083333D02*
X117651428Y-62178571D01*
X117651428Y-62178571D02*
X117603809Y-62369047D01*
X117603809Y-62369047D02*
X117556190Y-62464285D01*
X117556190Y-62464285D02*
X117508571Y-62511904D01*
X117508571Y-62511904D02*
X117413333Y-62559523D01*
X117413333Y-62559523D02*
X117318095Y-62559523D01*
X117318095Y-62559523D02*
X117222857Y-62511904D01*
X117222857Y-62511904D02*
X117175238Y-62464285D01*
X117175238Y-62464285D02*
X117127619Y-62369047D01*
X117127619Y-62369047D02*
X117127619Y-62130952D01*
X117127619Y-62130952D02*
X117175238Y-61988095D01*
X117127619Y-61654761D02*
X118127619Y-61416666D01*
X118127619Y-61416666D02*
X117413333Y-61226190D01*
X117413333Y-61226190D02*
X118127619Y-61035714D01*
X118127619Y-61035714D02*
X117127619Y-60797619D01*
X117127619Y-60226190D02*
X117127619Y-60035714D01*
X117127619Y-60035714D02*
X117175238Y-59940476D01*
X117175238Y-59940476D02*
X117270476Y-59845238D01*
X117270476Y-59845238D02*
X117460952Y-59797619D01*
X117460952Y-59797619D02*
X117794285Y-59797619D01*
X117794285Y-59797619D02*
X117984761Y-59845238D01*
X117984761Y-59845238D02*
X118080000Y-59940476D01*
X118080000Y-59940476D02*
X118127619Y-60035714D01*
X118127619Y-60035714D02*
X118127619Y-60226190D01*
X118127619Y-60226190D02*
X118080000Y-60321428D01*
X118080000Y-60321428D02*
X117984761Y-60416666D01*
X117984761Y-60416666D02*
X117794285Y-60464285D01*
X117794285Y-60464285D02*
X117460952Y-60464285D01*
X117460952Y-60464285D02*
X117270476Y-60416666D01*
X117270476Y-60416666D02*
X117175238Y-60321428D01*
X117175238Y-60321428D02*
X117127619Y-60226190D01*
X111892857Y-58877619D02*
X112511904Y-58877619D01*
X112511904Y-58877619D02*
X112178571Y-59258571D01*
X112178571Y-59258571D02*
X112321428Y-59258571D01*
X112321428Y-59258571D02*
X112416666Y-59306190D01*
X112416666Y-59306190D02*
X112464285Y-59353809D01*
X112464285Y-59353809D02*
X112511904Y-59449047D01*
X112511904Y-59449047D02*
X112511904Y-59687142D01*
X112511904Y-59687142D02*
X112464285Y-59782380D01*
X112464285Y-59782380D02*
X112416666Y-59830000D01*
X112416666Y-59830000D02*
X112321428Y-59877619D01*
X112321428Y-59877619D02*
X112035714Y-59877619D01*
X112035714Y-59877619D02*
X111940476Y-59830000D01*
X111940476Y-59830000D02*
X111892857Y-59782380D01*
X112797619Y-58877619D02*
X113130952Y-59877619D01*
X113130952Y-59877619D02*
X113464285Y-58877619D01*
X113702381Y-58877619D02*
X114321428Y-58877619D01*
X114321428Y-58877619D02*
X113988095Y-59258571D01*
X113988095Y-59258571D02*
X114130952Y-59258571D01*
X114130952Y-59258571D02*
X114226190Y-59306190D01*
X114226190Y-59306190D02*
X114273809Y-59353809D01*
X114273809Y-59353809D02*
X114321428Y-59449047D01*
X114321428Y-59449047D02*
X114321428Y-59687142D01*
X114321428Y-59687142D02*
X114273809Y-59782380D01*
X114273809Y-59782380D02*
X114226190Y-59830000D01*
X114226190Y-59830000D02*
X114130952Y-59877619D01*
X114130952Y-59877619D02*
X113845238Y-59877619D01*
X113845238Y-59877619D02*
X113750000Y-59830000D01*
X113750000Y-59830000D02*
X113702381Y-59782380D01*
X120877619Y-62011904D02*
X119877619Y-62011904D01*
X119877619Y-62011904D02*
X119877619Y-61773809D01*
X119877619Y-61773809D02*
X119925238Y-61630952D01*
X119925238Y-61630952D02*
X120020476Y-61535714D01*
X120020476Y-61535714D02*
X120115714Y-61488095D01*
X120115714Y-61488095D02*
X120306190Y-61440476D01*
X120306190Y-61440476D02*
X120449047Y-61440476D01*
X120449047Y-61440476D02*
X120639523Y-61488095D01*
X120639523Y-61488095D02*
X120734761Y-61535714D01*
X120734761Y-61535714D02*
X120830000Y-61630952D01*
X120830000Y-61630952D02*
X120877619Y-61773809D01*
X120877619Y-61773809D02*
X120877619Y-62011904D01*
X120877619Y-61011904D02*
X119877619Y-61011904D01*
X119877619Y-60345238D02*
X119877619Y-60154762D01*
X119877619Y-60154762D02*
X119925238Y-60059524D01*
X119925238Y-60059524D02*
X120020476Y-59964286D01*
X120020476Y-59964286D02*
X120210952Y-59916667D01*
X120210952Y-59916667D02*
X120544285Y-59916667D01*
X120544285Y-59916667D02*
X120734761Y-59964286D01*
X120734761Y-59964286D02*
X120830000Y-60059524D01*
X120830000Y-60059524D02*
X120877619Y-60154762D01*
X120877619Y-60154762D02*
X120877619Y-60345238D01*
X120877619Y-60345238D02*
X120830000Y-60440476D01*
X120830000Y-60440476D02*
X120734761Y-60535714D01*
X120734761Y-60535714D02*
X120544285Y-60583333D01*
X120544285Y-60583333D02*
X120210952Y-60583333D01*
X120210952Y-60583333D02*
X120020476Y-60535714D01*
X120020476Y-60535714D02*
X119925238Y-60440476D01*
X119925238Y-60440476D02*
X119877619Y-60345238D01*
D10*
%TO.C,C4*%
X133333333Y-82867380D02*
X133285714Y-82915000D01*
X133285714Y-82915000D02*
X133142857Y-82962619D01*
X133142857Y-82962619D02*
X133047619Y-82962619D01*
X133047619Y-82962619D02*
X132904762Y-82915000D01*
X132904762Y-82915000D02*
X132809524Y-82819761D01*
X132809524Y-82819761D02*
X132761905Y-82724523D01*
X132761905Y-82724523D02*
X132714286Y-82534047D01*
X132714286Y-82534047D02*
X132714286Y-82391190D01*
X132714286Y-82391190D02*
X132761905Y-82200714D01*
X132761905Y-82200714D02*
X132809524Y-82105476D01*
X132809524Y-82105476D02*
X132904762Y-82010238D01*
X132904762Y-82010238D02*
X133047619Y-81962619D01*
X133047619Y-81962619D02*
X133142857Y-81962619D01*
X133142857Y-81962619D02*
X133285714Y-82010238D01*
X133285714Y-82010238D02*
X133333333Y-82057857D01*
X134190476Y-82295952D02*
X134190476Y-82962619D01*
X133952381Y-81915000D02*
X133714286Y-82629285D01*
X133714286Y-82629285D02*
X134333333Y-82629285D01*
%TO.C,C17*%
X126607142Y-89367380D02*
X126559523Y-89415000D01*
X126559523Y-89415000D02*
X126416666Y-89462619D01*
X126416666Y-89462619D02*
X126321428Y-89462619D01*
X126321428Y-89462619D02*
X126178571Y-89415000D01*
X126178571Y-89415000D02*
X126083333Y-89319761D01*
X126083333Y-89319761D02*
X126035714Y-89224523D01*
X126035714Y-89224523D02*
X125988095Y-89034047D01*
X125988095Y-89034047D02*
X125988095Y-88891190D01*
X125988095Y-88891190D02*
X126035714Y-88700714D01*
X126035714Y-88700714D02*
X126083333Y-88605476D01*
X126083333Y-88605476D02*
X126178571Y-88510238D01*
X126178571Y-88510238D02*
X126321428Y-88462619D01*
X126321428Y-88462619D02*
X126416666Y-88462619D01*
X126416666Y-88462619D02*
X126559523Y-88510238D01*
X126559523Y-88510238D02*
X126607142Y-88557857D01*
X127559523Y-89462619D02*
X126988095Y-89462619D01*
X127273809Y-89462619D02*
X127273809Y-88462619D01*
X127273809Y-88462619D02*
X127178571Y-88605476D01*
X127178571Y-88605476D02*
X127083333Y-88700714D01*
X127083333Y-88700714D02*
X126988095Y-88748333D01*
X127892857Y-88462619D02*
X128559523Y-88462619D01*
X128559523Y-88462619D02*
X128130952Y-89462619D01*
D12*
%TO.C,IC3*%
X160760237Y-83087526D02*
X160760237Y-81817526D01*
X162090714Y-82966573D02*
X162030238Y-83027050D01*
X162030238Y-83027050D02*
X161848809Y-83087526D01*
X161848809Y-83087526D02*
X161727857Y-83087526D01*
X161727857Y-83087526D02*
X161546428Y-83027050D01*
X161546428Y-83027050D02*
X161425476Y-82906097D01*
X161425476Y-82906097D02*
X161364999Y-82785145D01*
X161364999Y-82785145D02*
X161304523Y-82543240D01*
X161304523Y-82543240D02*
X161304523Y-82361811D01*
X161304523Y-82361811D02*
X161364999Y-82119907D01*
X161364999Y-82119907D02*
X161425476Y-81998954D01*
X161425476Y-81998954D02*
X161546428Y-81878002D01*
X161546428Y-81878002D02*
X161727857Y-81817526D01*
X161727857Y-81817526D02*
X161848809Y-81817526D01*
X161848809Y-81817526D02*
X162030238Y-81878002D01*
X162030238Y-81878002D02*
X162090714Y-81938478D01*
X162514047Y-81817526D02*
X163300238Y-81817526D01*
X163300238Y-81817526D02*
X162876904Y-82301335D01*
X162876904Y-82301335D02*
X163058333Y-82301335D01*
X163058333Y-82301335D02*
X163179285Y-82361811D01*
X163179285Y-82361811D02*
X163239761Y-82422288D01*
X163239761Y-82422288D02*
X163300238Y-82543240D01*
X163300238Y-82543240D02*
X163300238Y-82845621D01*
X163300238Y-82845621D02*
X163239761Y-82966573D01*
X163239761Y-82966573D02*
X163179285Y-83027050D01*
X163179285Y-83027050D02*
X163058333Y-83087526D01*
X163058333Y-83087526D02*
X162695476Y-83087526D01*
X162695476Y-83087526D02*
X162574523Y-83027050D01*
X162574523Y-83027050D02*
X162514047Y-82966573D01*
D10*
%TO.C,C2*%
X140083333Y-87867380D02*
X140035714Y-87915000D01*
X140035714Y-87915000D02*
X139892857Y-87962619D01*
X139892857Y-87962619D02*
X139797619Y-87962619D01*
X139797619Y-87962619D02*
X139654762Y-87915000D01*
X139654762Y-87915000D02*
X139559524Y-87819761D01*
X139559524Y-87819761D02*
X139511905Y-87724523D01*
X139511905Y-87724523D02*
X139464286Y-87534047D01*
X139464286Y-87534047D02*
X139464286Y-87391190D01*
X139464286Y-87391190D02*
X139511905Y-87200714D01*
X139511905Y-87200714D02*
X139559524Y-87105476D01*
X139559524Y-87105476D02*
X139654762Y-87010238D01*
X139654762Y-87010238D02*
X139797619Y-86962619D01*
X139797619Y-86962619D02*
X139892857Y-86962619D01*
X139892857Y-86962619D02*
X140035714Y-87010238D01*
X140035714Y-87010238D02*
X140083333Y-87057857D01*
X140464286Y-87057857D02*
X140511905Y-87010238D01*
X140511905Y-87010238D02*
X140607143Y-86962619D01*
X140607143Y-86962619D02*
X140845238Y-86962619D01*
X140845238Y-86962619D02*
X140940476Y-87010238D01*
X140940476Y-87010238D02*
X140988095Y-87057857D01*
X140988095Y-87057857D02*
X141035714Y-87153095D01*
X141035714Y-87153095D02*
X141035714Y-87248333D01*
X141035714Y-87248333D02*
X140988095Y-87391190D01*
X140988095Y-87391190D02*
X140416667Y-87962619D01*
X140416667Y-87962619D02*
X141035714Y-87962619D01*
%TO.C,C11*%
X163857142Y-62687380D02*
X163809523Y-62735000D01*
X163809523Y-62735000D02*
X163666666Y-62782619D01*
X163666666Y-62782619D02*
X163571428Y-62782619D01*
X163571428Y-62782619D02*
X163428571Y-62735000D01*
X163428571Y-62735000D02*
X163333333Y-62639761D01*
X163333333Y-62639761D02*
X163285714Y-62544523D01*
X163285714Y-62544523D02*
X163238095Y-62354047D01*
X163238095Y-62354047D02*
X163238095Y-62211190D01*
X163238095Y-62211190D02*
X163285714Y-62020714D01*
X163285714Y-62020714D02*
X163333333Y-61925476D01*
X163333333Y-61925476D02*
X163428571Y-61830238D01*
X163428571Y-61830238D02*
X163571428Y-61782619D01*
X163571428Y-61782619D02*
X163666666Y-61782619D01*
X163666666Y-61782619D02*
X163809523Y-61830238D01*
X163809523Y-61830238D02*
X163857142Y-61877857D01*
X164809523Y-62782619D02*
X164238095Y-62782619D01*
X164523809Y-62782619D02*
X164523809Y-61782619D01*
X164523809Y-61782619D02*
X164428571Y-61925476D01*
X164428571Y-61925476D02*
X164333333Y-62020714D01*
X164333333Y-62020714D02*
X164238095Y-62068333D01*
X165761904Y-62782619D02*
X165190476Y-62782619D01*
X165476190Y-62782619D02*
X165476190Y-61782619D01*
X165476190Y-61782619D02*
X165380952Y-61925476D01*
X165380952Y-61925476D02*
X165285714Y-62020714D01*
X165285714Y-62020714D02*
X165190476Y-62068333D01*
%TO.C,C25*%
X154707142Y-81617380D02*
X154659523Y-81665000D01*
X154659523Y-81665000D02*
X154516666Y-81712619D01*
X154516666Y-81712619D02*
X154421428Y-81712619D01*
X154421428Y-81712619D02*
X154278571Y-81665000D01*
X154278571Y-81665000D02*
X154183333Y-81569761D01*
X154183333Y-81569761D02*
X154135714Y-81474523D01*
X154135714Y-81474523D02*
X154088095Y-81284047D01*
X154088095Y-81284047D02*
X154088095Y-81141190D01*
X154088095Y-81141190D02*
X154135714Y-80950714D01*
X154135714Y-80950714D02*
X154183333Y-80855476D01*
X154183333Y-80855476D02*
X154278571Y-80760238D01*
X154278571Y-80760238D02*
X154421428Y-80712619D01*
X154421428Y-80712619D02*
X154516666Y-80712619D01*
X154516666Y-80712619D02*
X154659523Y-80760238D01*
X154659523Y-80760238D02*
X154707142Y-80807857D01*
X155088095Y-80807857D02*
X155135714Y-80760238D01*
X155135714Y-80760238D02*
X155230952Y-80712619D01*
X155230952Y-80712619D02*
X155469047Y-80712619D01*
X155469047Y-80712619D02*
X155564285Y-80760238D01*
X155564285Y-80760238D02*
X155611904Y-80807857D01*
X155611904Y-80807857D02*
X155659523Y-80903095D01*
X155659523Y-80903095D02*
X155659523Y-80998333D01*
X155659523Y-80998333D02*
X155611904Y-81141190D01*
X155611904Y-81141190D02*
X155040476Y-81712619D01*
X155040476Y-81712619D02*
X155659523Y-81712619D01*
X156564285Y-80712619D02*
X156088095Y-80712619D01*
X156088095Y-80712619D02*
X156040476Y-81188809D01*
X156040476Y-81188809D02*
X156088095Y-81141190D01*
X156088095Y-81141190D02*
X156183333Y-81093571D01*
X156183333Y-81093571D02*
X156421428Y-81093571D01*
X156421428Y-81093571D02*
X156516666Y-81141190D01*
X156516666Y-81141190D02*
X156564285Y-81188809D01*
X156564285Y-81188809D02*
X156611904Y-81284047D01*
X156611904Y-81284047D02*
X156611904Y-81522142D01*
X156611904Y-81522142D02*
X156564285Y-81617380D01*
X156564285Y-81617380D02*
X156516666Y-81665000D01*
X156516666Y-81665000D02*
X156421428Y-81712619D01*
X156421428Y-81712619D02*
X156183333Y-81712619D01*
X156183333Y-81712619D02*
X156088095Y-81665000D01*
X156088095Y-81665000D02*
X156040476Y-81617380D01*
D12*
%TO.C,VR1*%
X145887526Y-99159094D02*
X147157526Y-98735761D01*
X147157526Y-98735761D02*
X145887526Y-98312427D01*
X147157526Y-97163380D02*
X146552764Y-97586714D01*
X147157526Y-97889095D02*
X145887526Y-97889095D01*
X145887526Y-97889095D02*
X145887526Y-97405285D01*
X145887526Y-97405285D02*
X145948002Y-97284333D01*
X145948002Y-97284333D02*
X146008478Y-97223856D01*
X146008478Y-97223856D02*
X146129430Y-97163380D01*
X146129430Y-97163380D02*
X146310859Y-97163380D01*
X146310859Y-97163380D02*
X146431811Y-97223856D01*
X146431811Y-97223856D02*
X146492288Y-97284333D01*
X146492288Y-97284333D02*
X146552764Y-97405285D01*
X146552764Y-97405285D02*
X146552764Y-97889095D01*
X147157526Y-95953856D02*
X147157526Y-96679571D01*
X147157526Y-96316714D02*
X145887526Y-96316714D01*
X145887526Y-96316714D02*
X146068954Y-96437666D01*
X146068954Y-96437666D02*
X146189907Y-96558618D01*
X146189907Y-96558618D02*
X146250383Y-96679571D01*
D10*
%TO.C,FB1*%
X156416666Y-65188809D02*
X156083333Y-65188809D01*
X156083333Y-65712619D02*
X156083333Y-64712619D01*
X156083333Y-64712619D02*
X156559523Y-64712619D01*
X157273809Y-65188809D02*
X157416666Y-65236428D01*
X157416666Y-65236428D02*
X157464285Y-65284047D01*
X157464285Y-65284047D02*
X157511904Y-65379285D01*
X157511904Y-65379285D02*
X157511904Y-65522142D01*
X157511904Y-65522142D02*
X157464285Y-65617380D01*
X157464285Y-65617380D02*
X157416666Y-65665000D01*
X157416666Y-65665000D02*
X157321428Y-65712619D01*
X157321428Y-65712619D02*
X156940476Y-65712619D01*
X156940476Y-65712619D02*
X156940476Y-64712619D01*
X156940476Y-64712619D02*
X157273809Y-64712619D01*
X157273809Y-64712619D02*
X157369047Y-64760238D01*
X157369047Y-64760238D02*
X157416666Y-64807857D01*
X157416666Y-64807857D02*
X157464285Y-64903095D01*
X157464285Y-64903095D02*
X157464285Y-64998333D01*
X157464285Y-64998333D02*
X157416666Y-65093571D01*
X157416666Y-65093571D02*
X157369047Y-65141190D01*
X157369047Y-65141190D02*
X157273809Y-65188809D01*
X157273809Y-65188809D02*
X156940476Y-65188809D01*
X158464285Y-65712619D02*
X157892857Y-65712619D01*
X158178571Y-65712619D02*
X158178571Y-64712619D01*
X158178571Y-64712619D02*
X158083333Y-64855476D01*
X158083333Y-64855476D02*
X157988095Y-64950714D01*
X157988095Y-64950714D02*
X157892857Y-64998333D01*
%TO.C,C15*%
X122607142Y-93367380D02*
X122559523Y-93415000D01*
X122559523Y-93415000D02*
X122416666Y-93462619D01*
X122416666Y-93462619D02*
X122321428Y-93462619D01*
X122321428Y-93462619D02*
X122178571Y-93415000D01*
X122178571Y-93415000D02*
X122083333Y-93319761D01*
X122083333Y-93319761D02*
X122035714Y-93224523D01*
X122035714Y-93224523D02*
X121988095Y-93034047D01*
X121988095Y-93034047D02*
X121988095Y-92891190D01*
X121988095Y-92891190D02*
X122035714Y-92700714D01*
X122035714Y-92700714D02*
X122083333Y-92605476D01*
X122083333Y-92605476D02*
X122178571Y-92510238D01*
X122178571Y-92510238D02*
X122321428Y-92462619D01*
X122321428Y-92462619D02*
X122416666Y-92462619D01*
X122416666Y-92462619D02*
X122559523Y-92510238D01*
X122559523Y-92510238D02*
X122607142Y-92557857D01*
X123559523Y-93462619D02*
X122988095Y-93462619D01*
X123273809Y-93462619D02*
X123273809Y-92462619D01*
X123273809Y-92462619D02*
X123178571Y-92605476D01*
X123178571Y-92605476D02*
X123083333Y-92700714D01*
X123083333Y-92700714D02*
X122988095Y-92748333D01*
X124464285Y-92462619D02*
X123988095Y-92462619D01*
X123988095Y-92462619D02*
X123940476Y-92938809D01*
X123940476Y-92938809D02*
X123988095Y-92891190D01*
X123988095Y-92891190D02*
X124083333Y-92843571D01*
X124083333Y-92843571D02*
X124321428Y-92843571D01*
X124321428Y-92843571D02*
X124416666Y-92891190D01*
X124416666Y-92891190D02*
X124464285Y-92938809D01*
X124464285Y-92938809D02*
X124511904Y-93034047D01*
X124511904Y-93034047D02*
X124511904Y-93272142D01*
X124511904Y-93272142D02*
X124464285Y-93367380D01*
X124464285Y-93367380D02*
X124416666Y-93415000D01*
X124416666Y-93415000D02*
X124321428Y-93462619D01*
X124321428Y-93462619D02*
X124083333Y-93462619D01*
X124083333Y-93462619D02*
X123988095Y-93415000D01*
X123988095Y-93415000D02*
X123940476Y-93367380D01*
%TO.C,C27*%
X154857142Y-76867380D02*
X154809523Y-76915000D01*
X154809523Y-76915000D02*
X154666666Y-76962619D01*
X154666666Y-76962619D02*
X154571428Y-76962619D01*
X154571428Y-76962619D02*
X154428571Y-76915000D01*
X154428571Y-76915000D02*
X154333333Y-76819761D01*
X154333333Y-76819761D02*
X154285714Y-76724523D01*
X154285714Y-76724523D02*
X154238095Y-76534047D01*
X154238095Y-76534047D02*
X154238095Y-76391190D01*
X154238095Y-76391190D02*
X154285714Y-76200714D01*
X154285714Y-76200714D02*
X154333333Y-76105476D01*
X154333333Y-76105476D02*
X154428571Y-76010238D01*
X154428571Y-76010238D02*
X154571428Y-75962619D01*
X154571428Y-75962619D02*
X154666666Y-75962619D01*
X154666666Y-75962619D02*
X154809523Y-76010238D01*
X154809523Y-76010238D02*
X154857142Y-76057857D01*
X155238095Y-76057857D02*
X155285714Y-76010238D01*
X155285714Y-76010238D02*
X155380952Y-75962619D01*
X155380952Y-75962619D02*
X155619047Y-75962619D01*
X155619047Y-75962619D02*
X155714285Y-76010238D01*
X155714285Y-76010238D02*
X155761904Y-76057857D01*
X155761904Y-76057857D02*
X155809523Y-76153095D01*
X155809523Y-76153095D02*
X155809523Y-76248333D01*
X155809523Y-76248333D02*
X155761904Y-76391190D01*
X155761904Y-76391190D02*
X155190476Y-76962619D01*
X155190476Y-76962619D02*
X155809523Y-76962619D01*
X156142857Y-75962619D02*
X156809523Y-75962619D01*
X156809523Y-75962619D02*
X156380952Y-76962619D01*
%TO.C,C9*%
X111833333Y-83617380D02*
X111785714Y-83665000D01*
X111785714Y-83665000D02*
X111642857Y-83712619D01*
X111642857Y-83712619D02*
X111547619Y-83712619D01*
X111547619Y-83712619D02*
X111404762Y-83665000D01*
X111404762Y-83665000D02*
X111309524Y-83569761D01*
X111309524Y-83569761D02*
X111261905Y-83474523D01*
X111261905Y-83474523D02*
X111214286Y-83284047D01*
X111214286Y-83284047D02*
X111214286Y-83141190D01*
X111214286Y-83141190D02*
X111261905Y-82950714D01*
X111261905Y-82950714D02*
X111309524Y-82855476D01*
X111309524Y-82855476D02*
X111404762Y-82760238D01*
X111404762Y-82760238D02*
X111547619Y-82712619D01*
X111547619Y-82712619D02*
X111642857Y-82712619D01*
X111642857Y-82712619D02*
X111785714Y-82760238D01*
X111785714Y-82760238D02*
X111833333Y-82807857D01*
X112309524Y-83712619D02*
X112500000Y-83712619D01*
X112500000Y-83712619D02*
X112595238Y-83665000D01*
X112595238Y-83665000D02*
X112642857Y-83617380D01*
X112642857Y-83617380D02*
X112738095Y-83474523D01*
X112738095Y-83474523D02*
X112785714Y-83284047D01*
X112785714Y-83284047D02*
X112785714Y-82903095D01*
X112785714Y-82903095D02*
X112738095Y-82807857D01*
X112738095Y-82807857D02*
X112690476Y-82760238D01*
X112690476Y-82760238D02*
X112595238Y-82712619D01*
X112595238Y-82712619D02*
X112404762Y-82712619D01*
X112404762Y-82712619D02*
X112309524Y-82760238D01*
X112309524Y-82760238D02*
X112261905Y-82807857D01*
X112261905Y-82807857D02*
X112214286Y-82903095D01*
X112214286Y-82903095D02*
X112214286Y-83141190D01*
X112214286Y-83141190D02*
X112261905Y-83236428D01*
X112261905Y-83236428D02*
X112309524Y-83284047D01*
X112309524Y-83284047D02*
X112404762Y-83331666D01*
X112404762Y-83331666D02*
X112595238Y-83331666D01*
X112595238Y-83331666D02*
X112690476Y-83284047D01*
X112690476Y-83284047D02*
X112738095Y-83236428D01*
X112738095Y-83236428D02*
X112785714Y-83141190D01*
%TO.C,D3*%
X130861905Y-63742619D02*
X130861905Y-62742619D01*
X130861905Y-62742619D02*
X131100000Y-62742619D01*
X131100000Y-62742619D02*
X131242857Y-62790238D01*
X131242857Y-62790238D02*
X131338095Y-62885476D01*
X131338095Y-62885476D02*
X131385714Y-62980714D01*
X131385714Y-62980714D02*
X131433333Y-63171190D01*
X131433333Y-63171190D02*
X131433333Y-63314047D01*
X131433333Y-63314047D02*
X131385714Y-63504523D01*
X131385714Y-63504523D02*
X131338095Y-63599761D01*
X131338095Y-63599761D02*
X131242857Y-63695000D01*
X131242857Y-63695000D02*
X131100000Y-63742619D01*
X131100000Y-63742619D02*
X130861905Y-63742619D01*
X131766667Y-62742619D02*
X132385714Y-62742619D01*
X132385714Y-62742619D02*
X132052381Y-63123571D01*
X132052381Y-63123571D02*
X132195238Y-63123571D01*
X132195238Y-63123571D02*
X132290476Y-63171190D01*
X132290476Y-63171190D02*
X132338095Y-63218809D01*
X132338095Y-63218809D02*
X132385714Y-63314047D01*
X132385714Y-63314047D02*
X132385714Y-63552142D01*
X132385714Y-63552142D02*
X132338095Y-63647380D01*
X132338095Y-63647380D02*
X132290476Y-63695000D01*
X132290476Y-63695000D02*
X132195238Y-63742619D01*
X132195238Y-63742619D02*
X131909524Y-63742619D01*
X131909524Y-63742619D02*
X131814286Y-63695000D01*
X131814286Y-63695000D02*
X131766667Y-63647380D01*
D12*
%TO.C,J2*%
X131376667Y-50492526D02*
X131376667Y-51399669D01*
X131376667Y-51399669D02*
X131316190Y-51581097D01*
X131316190Y-51581097D02*
X131195238Y-51702050D01*
X131195238Y-51702050D02*
X131013809Y-51762526D01*
X131013809Y-51762526D02*
X130892857Y-51762526D01*
X131920952Y-50613478D02*
X131981428Y-50553002D01*
X131981428Y-50553002D02*
X132102381Y-50492526D01*
X132102381Y-50492526D02*
X132404762Y-50492526D01*
X132404762Y-50492526D02*
X132525714Y-50553002D01*
X132525714Y-50553002D02*
X132586190Y-50613478D01*
X132586190Y-50613478D02*
X132646667Y-50734430D01*
X132646667Y-50734430D02*
X132646667Y-50855383D01*
X132646667Y-50855383D02*
X132586190Y-51036811D01*
X132586190Y-51036811D02*
X131860476Y-51762526D01*
X131860476Y-51762526D02*
X132646667Y-51762526D01*
D10*
%TO.C,C3*%
X146333333Y-91117380D02*
X146285714Y-91165000D01*
X146285714Y-91165000D02*
X146142857Y-91212619D01*
X146142857Y-91212619D02*
X146047619Y-91212619D01*
X146047619Y-91212619D02*
X145904762Y-91165000D01*
X145904762Y-91165000D02*
X145809524Y-91069761D01*
X145809524Y-91069761D02*
X145761905Y-90974523D01*
X145761905Y-90974523D02*
X145714286Y-90784047D01*
X145714286Y-90784047D02*
X145714286Y-90641190D01*
X145714286Y-90641190D02*
X145761905Y-90450714D01*
X145761905Y-90450714D02*
X145809524Y-90355476D01*
X145809524Y-90355476D02*
X145904762Y-90260238D01*
X145904762Y-90260238D02*
X146047619Y-90212619D01*
X146047619Y-90212619D02*
X146142857Y-90212619D01*
X146142857Y-90212619D02*
X146285714Y-90260238D01*
X146285714Y-90260238D02*
X146333333Y-90307857D01*
X146666667Y-90212619D02*
X147285714Y-90212619D01*
X147285714Y-90212619D02*
X146952381Y-90593571D01*
X146952381Y-90593571D02*
X147095238Y-90593571D01*
X147095238Y-90593571D02*
X147190476Y-90641190D01*
X147190476Y-90641190D02*
X147238095Y-90688809D01*
X147238095Y-90688809D02*
X147285714Y-90784047D01*
X147285714Y-90784047D02*
X147285714Y-91022142D01*
X147285714Y-91022142D02*
X147238095Y-91117380D01*
X147238095Y-91117380D02*
X147190476Y-91165000D01*
X147190476Y-91165000D02*
X147095238Y-91212619D01*
X147095238Y-91212619D02*
X146809524Y-91212619D01*
X146809524Y-91212619D02*
X146714286Y-91165000D01*
X146714286Y-91165000D02*
X146666667Y-91117380D01*
%TO.C,D2*%
X133511905Y-63962619D02*
X133511905Y-62962619D01*
X133511905Y-62962619D02*
X133750000Y-62962619D01*
X133750000Y-62962619D02*
X133892857Y-63010238D01*
X133892857Y-63010238D02*
X133988095Y-63105476D01*
X133988095Y-63105476D02*
X134035714Y-63200714D01*
X134035714Y-63200714D02*
X134083333Y-63391190D01*
X134083333Y-63391190D02*
X134083333Y-63534047D01*
X134083333Y-63534047D02*
X134035714Y-63724523D01*
X134035714Y-63724523D02*
X133988095Y-63819761D01*
X133988095Y-63819761D02*
X133892857Y-63915000D01*
X133892857Y-63915000D02*
X133750000Y-63962619D01*
X133750000Y-63962619D02*
X133511905Y-63962619D01*
X134464286Y-63057857D02*
X134511905Y-63010238D01*
X134511905Y-63010238D02*
X134607143Y-62962619D01*
X134607143Y-62962619D02*
X134845238Y-62962619D01*
X134845238Y-62962619D02*
X134940476Y-63010238D01*
X134940476Y-63010238D02*
X134988095Y-63057857D01*
X134988095Y-63057857D02*
X135035714Y-63153095D01*
X135035714Y-63153095D02*
X135035714Y-63248333D01*
X135035714Y-63248333D02*
X134988095Y-63391190D01*
X134988095Y-63391190D02*
X134416667Y-63962619D01*
X134416667Y-63962619D02*
X135035714Y-63962619D01*
D12*
%TO.C,L1*%
X150288333Y-83837526D02*
X149683571Y-83837526D01*
X149683571Y-83837526D02*
X149683571Y-82567526D01*
X151376905Y-83837526D02*
X150651190Y-83837526D01*
X151014047Y-83837526D02*
X151014047Y-82567526D01*
X151014047Y-82567526D02*
X150893095Y-82748954D01*
X150893095Y-82748954D02*
X150772143Y-82869907D01*
X150772143Y-82869907D02*
X150651190Y-82930383D01*
D10*
%TO.C,C7*%
X137083333Y-75867380D02*
X137035714Y-75915000D01*
X137035714Y-75915000D02*
X136892857Y-75962619D01*
X136892857Y-75962619D02*
X136797619Y-75962619D01*
X136797619Y-75962619D02*
X136654762Y-75915000D01*
X136654762Y-75915000D02*
X136559524Y-75819761D01*
X136559524Y-75819761D02*
X136511905Y-75724523D01*
X136511905Y-75724523D02*
X136464286Y-75534047D01*
X136464286Y-75534047D02*
X136464286Y-75391190D01*
X136464286Y-75391190D02*
X136511905Y-75200714D01*
X136511905Y-75200714D02*
X136559524Y-75105476D01*
X136559524Y-75105476D02*
X136654762Y-75010238D01*
X136654762Y-75010238D02*
X136797619Y-74962619D01*
X136797619Y-74962619D02*
X136892857Y-74962619D01*
X136892857Y-74962619D02*
X137035714Y-75010238D01*
X137035714Y-75010238D02*
X137083333Y-75057857D01*
X137416667Y-74962619D02*
X138083333Y-74962619D01*
X138083333Y-74962619D02*
X137654762Y-75962619D01*
%TO.C,D5*%
X147761905Y-75212619D02*
X147761905Y-74212619D01*
X147761905Y-74212619D02*
X148000000Y-74212619D01*
X148000000Y-74212619D02*
X148142857Y-74260238D01*
X148142857Y-74260238D02*
X148238095Y-74355476D01*
X148238095Y-74355476D02*
X148285714Y-74450714D01*
X148285714Y-74450714D02*
X148333333Y-74641190D01*
X148333333Y-74641190D02*
X148333333Y-74784047D01*
X148333333Y-74784047D02*
X148285714Y-74974523D01*
X148285714Y-74974523D02*
X148238095Y-75069761D01*
X148238095Y-75069761D02*
X148142857Y-75165000D01*
X148142857Y-75165000D02*
X148000000Y-75212619D01*
X148000000Y-75212619D02*
X147761905Y-75212619D01*
X149238095Y-74212619D02*
X148761905Y-74212619D01*
X148761905Y-74212619D02*
X148714286Y-74688809D01*
X148714286Y-74688809D02*
X148761905Y-74641190D01*
X148761905Y-74641190D02*
X148857143Y-74593571D01*
X148857143Y-74593571D02*
X149095238Y-74593571D01*
X149095238Y-74593571D02*
X149190476Y-74641190D01*
X149190476Y-74641190D02*
X149238095Y-74688809D01*
X149238095Y-74688809D02*
X149285714Y-74784047D01*
X149285714Y-74784047D02*
X149285714Y-75022142D01*
X149285714Y-75022142D02*
X149238095Y-75117380D01*
X149238095Y-75117380D02*
X149190476Y-75165000D01*
X149190476Y-75165000D02*
X149095238Y-75212619D01*
X149095238Y-75212619D02*
X148857143Y-75212619D01*
X148857143Y-75212619D02*
X148761905Y-75165000D01*
X148761905Y-75165000D02*
X148714286Y-75117380D01*
%TO.C,+*%
X114935048Y-103454666D02*
X115696953Y-103454666D01*
X115316000Y-103835619D02*
X115316000Y-103073714D01*
%TO.C,C14*%
X108867380Y-79642857D02*
X108915000Y-79690476D01*
X108915000Y-79690476D02*
X108962619Y-79833333D01*
X108962619Y-79833333D02*
X108962619Y-79928571D01*
X108962619Y-79928571D02*
X108915000Y-80071428D01*
X108915000Y-80071428D02*
X108819761Y-80166666D01*
X108819761Y-80166666D02*
X108724523Y-80214285D01*
X108724523Y-80214285D02*
X108534047Y-80261904D01*
X108534047Y-80261904D02*
X108391190Y-80261904D01*
X108391190Y-80261904D02*
X108200714Y-80214285D01*
X108200714Y-80214285D02*
X108105476Y-80166666D01*
X108105476Y-80166666D02*
X108010238Y-80071428D01*
X108010238Y-80071428D02*
X107962619Y-79928571D01*
X107962619Y-79928571D02*
X107962619Y-79833333D01*
X107962619Y-79833333D02*
X108010238Y-79690476D01*
X108010238Y-79690476D02*
X108057857Y-79642857D01*
X108962619Y-78690476D02*
X108962619Y-79261904D01*
X108962619Y-78976190D02*
X107962619Y-78976190D01*
X107962619Y-78976190D02*
X108105476Y-79071428D01*
X108105476Y-79071428D02*
X108200714Y-79166666D01*
X108200714Y-79166666D02*
X108248333Y-79261904D01*
X108295952Y-77833333D02*
X108962619Y-77833333D01*
X107915000Y-78071428D02*
X108629285Y-78309523D01*
X108629285Y-78309523D02*
X108629285Y-77690476D01*
%TO.C,R4*%
X123583333Y-49312619D02*
X123250000Y-48836428D01*
X123011905Y-49312619D02*
X123011905Y-48312619D01*
X123011905Y-48312619D02*
X123392857Y-48312619D01*
X123392857Y-48312619D02*
X123488095Y-48360238D01*
X123488095Y-48360238D02*
X123535714Y-48407857D01*
X123535714Y-48407857D02*
X123583333Y-48503095D01*
X123583333Y-48503095D02*
X123583333Y-48645952D01*
X123583333Y-48645952D02*
X123535714Y-48741190D01*
X123535714Y-48741190D02*
X123488095Y-48788809D01*
X123488095Y-48788809D02*
X123392857Y-48836428D01*
X123392857Y-48836428D02*
X123011905Y-48836428D01*
X124440476Y-48645952D02*
X124440476Y-49312619D01*
X124202381Y-48265000D02*
X123964286Y-48979285D01*
X123964286Y-48979285D02*
X124583333Y-48979285D01*
%TO.C,C10*%
X151357142Y-81617380D02*
X151309523Y-81665000D01*
X151309523Y-81665000D02*
X151166666Y-81712619D01*
X151166666Y-81712619D02*
X151071428Y-81712619D01*
X151071428Y-81712619D02*
X150928571Y-81665000D01*
X150928571Y-81665000D02*
X150833333Y-81569761D01*
X150833333Y-81569761D02*
X150785714Y-81474523D01*
X150785714Y-81474523D02*
X150738095Y-81284047D01*
X150738095Y-81284047D02*
X150738095Y-81141190D01*
X150738095Y-81141190D02*
X150785714Y-80950714D01*
X150785714Y-80950714D02*
X150833333Y-80855476D01*
X150833333Y-80855476D02*
X150928571Y-80760238D01*
X150928571Y-80760238D02*
X151071428Y-80712619D01*
X151071428Y-80712619D02*
X151166666Y-80712619D01*
X151166666Y-80712619D02*
X151309523Y-80760238D01*
X151309523Y-80760238D02*
X151357142Y-80807857D01*
X152309523Y-81712619D02*
X151738095Y-81712619D01*
X152023809Y-81712619D02*
X152023809Y-80712619D01*
X152023809Y-80712619D02*
X151928571Y-80855476D01*
X151928571Y-80855476D02*
X151833333Y-80950714D01*
X151833333Y-80950714D02*
X151738095Y-80998333D01*
X152928571Y-80712619D02*
X153023809Y-80712619D01*
X153023809Y-80712619D02*
X153119047Y-80760238D01*
X153119047Y-80760238D02*
X153166666Y-80807857D01*
X153166666Y-80807857D02*
X153214285Y-80903095D01*
X153214285Y-80903095D02*
X153261904Y-81093571D01*
X153261904Y-81093571D02*
X153261904Y-81331666D01*
X153261904Y-81331666D02*
X153214285Y-81522142D01*
X153214285Y-81522142D02*
X153166666Y-81617380D01*
X153166666Y-81617380D02*
X153119047Y-81665000D01*
X153119047Y-81665000D02*
X153023809Y-81712619D01*
X153023809Y-81712619D02*
X152928571Y-81712619D01*
X152928571Y-81712619D02*
X152833333Y-81665000D01*
X152833333Y-81665000D02*
X152785714Y-81617380D01*
X152785714Y-81617380D02*
X152738095Y-81522142D01*
X152738095Y-81522142D02*
X152690476Y-81331666D01*
X152690476Y-81331666D02*
X152690476Y-81093571D01*
X152690476Y-81093571D02*
X152738095Y-80903095D01*
X152738095Y-80903095D02*
X152785714Y-80807857D01*
X152785714Y-80807857D02*
X152833333Y-80760238D01*
X152833333Y-80760238D02*
X152928571Y-80712619D01*
%TO.C,J1*%
X143416666Y-61712619D02*
X143416666Y-62426904D01*
X143416666Y-62426904D02*
X143369047Y-62569761D01*
X143369047Y-62569761D02*
X143273809Y-62665000D01*
X143273809Y-62665000D02*
X143130952Y-62712619D01*
X143130952Y-62712619D02*
X143035714Y-62712619D01*
X144416666Y-62712619D02*
X143845238Y-62712619D01*
X144130952Y-62712619D02*
X144130952Y-61712619D01*
X144130952Y-61712619D02*
X144035714Y-61855476D01*
X144035714Y-61855476D02*
X143940476Y-61950714D01*
X143940476Y-61950714D02*
X143845238Y-61998333D01*
%TO.C,R5*%
X116083333Y-93962619D02*
X115750000Y-93486428D01*
X115511905Y-93962619D02*
X115511905Y-92962619D01*
X115511905Y-92962619D02*
X115892857Y-92962619D01*
X115892857Y-92962619D02*
X115988095Y-93010238D01*
X115988095Y-93010238D02*
X116035714Y-93057857D01*
X116035714Y-93057857D02*
X116083333Y-93153095D01*
X116083333Y-93153095D02*
X116083333Y-93295952D01*
X116083333Y-93295952D02*
X116035714Y-93391190D01*
X116035714Y-93391190D02*
X115988095Y-93438809D01*
X115988095Y-93438809D02*
X115892857Y-93486428D01*
X115892857Y-93486428D02*
X115511905Y-93486428D01*
X116988095Y-92962619D02*
X116511905Y-92962619D01*
X116511905Y-92962619D02*
X116464286Y-93438809D01*
X116464286Y-93438809D02*
X116511905Y-93391190D01*
X116511905Y-93391190D02*
X116607143Y-93343571D01*
X116607143Y-93343571D02*
X116845238Y-93343571D01*
X116845238Y-93343571D02*
X116940476Y-93391190D01*
X116940476Y-93391190D02*
X116988095Y-93438809D01*
X116988095Y-93438809D02*
X117035714Y-93534047D01*
X117035714Y-93534047D02*
X117035714Y-93772142D01*
X117035714Y-93772142D02*
X116988095Y-93867380D01*
X116988095Y-93867380D02*
X116940476Y-93915000D01*
X116940476Y-93915000D02*
X116845238Y-93962619D01*
X116845238Y-93962619D02*
X116607143Y-93962619D01*
X116607143Y-93962619D02*
X116511905Y-93915000D01*
X116511905Y-93915000D02*
X116464286Y-93867380D01*
%TO.C,D4*%
X118511905Y-49212619D02*
X118511905Y-48212619D01*
X118511905Y-48212619D02*
X118750000Y-48212619D01*
X118750000Y-48212619D02*
X118892857Y-48260238D01*
X118892857Y-48260238D02*
X118988095Y-48355476D01*
X118988095Y-48355476D02*
X119035714Y-48450714D01*
X119035714Y-48450714D02*
X119083333Y-48641190D01*
X119083333Y-48641190D02*
X119083333Y-48784047D01*
X119083333Y-48784047D02*
X119035714Y-48974523D01*
X119035714Y-48974523D02*
X118988095Y-49069761D01*
X118988095Y-49069761D02*
X118892857Y-49165000D01*
X118892857Y-49165000D02*
X118750000Y-49212619D01*
X118750000Y-49212619D02*
X118511905Y-49212619D01*
X119940476Y-48545952D02*
X119940476Y-49212619D01*
X119702381Y-48165000D02*
X119464286Y-48879285D01*
X119464286Y-48879285D02*
X120083333Y-48879285D01*
%TO.C,C8*%
X148083333Y-77367380D02*
X148035714Y-77415000D01*
X148035714Y-77415000D02*
X147892857Y-77462619D01*
X147892857Y-77462619D02*
X147797619Y-77462619D01*
X147797619Y-77462619D02*
X147654762Y-77415000D01*
X147654762Y-77415000D02*
X147559524Y-77319761D01*
X147559524Y-77319761D02*
X147511905Y-77224523D01*
X147511905Y-77224523D02*
X147464286Y-77034047D01*
X147464286Y-77034047D02*
X147464286Y-76891190D01*
X147464286Y-76891190D02*
X147511905Y-76700714D01*
X147511905Y-76700714D02*
X147559524Y-76605476D01*
X147559524Y-76605476D02*
X147654762Y-76510238D01*
X147654762Y-76510238D02*
X147797619Y-76462619D01*
X147797619Y-76462619D02*
X147892857Y-76462619D01*
X147892857Y-76462619D02*
X148035714Y-76510238D01*
X148035714Y-76510238D02*
X148083333Y-76557857D01*
X148654762Y-76891190D02*
X148559524Y-76843571D01*
X148559524Y-76843571D02*
X148511905Y-76795952D01*
X148511905Y-76795952D02*
X148464286Y-76700714D01*
X148464286Y-76700714D02*
X148464286Y-76653095D01*
X148464286Y-76653095D02*
X148511905Y-76557857D01*
X148511905Y-76557857D02*
X148559524Y-76510238D01*
X148559524Y-76510238D02*
X148654762Y-76462619D01*
X148654762Y-76462619D02*
X148845238Y-76462619D01*
X148845238Y-76462619D02*
X148940476Y-76510238D01*
X148940476Y-76510238D02*
X148988095Y-76557857D01*
X148988095Y-76557857D02*
X149035714Y-76653095D01*
X149035714Y-76653095D02*
X149035714Y-76700714D01*
X149035714Y-76700714D02*
X148988095Y-76795952D01*
X148988095Y-76795952D02*
X148940476Y-76843571D01*
X148940476Y-76843571D02*
X148845238Y-76891190D01*
X148845238Y-76891190D02*
X148654762Y-76891190D01*
X148654762Y-76891190D02*
X148559524Y-76938809D01*
X148559524Y-76938809D02*
X148511905Y-76986428D01*
X148511905Y-76986428D02*
X148464286Y-77081666D01*
X148464286Y-77081666D02*
X148464286Y-77272142D01*
X148464286Y-77272142D02*
X148511905Y-77367380D01*
X148511905Y-77367380D02*
X148559524Y-77415000D01*
X148559524Y-77415000D02*
X148654762Y-77462619D01*
X148654762Y-77462619D02*
X148845238Y-77462619D01*
X148845238Y-77462619D02*
X148940476Y-77415000D01*
X148940476Y-77415000D02*
X148988095Y-77367380D01*
X148988095Y-77367380D02*
X149035714Y-77272142D01*
X149035714Y-77272142D02*
X149035714Y-77081666D01*
X149035714Y-77081666D02*
X148988095Y-76986428D01*
X148988095Y-76986428D02*
X148940476Y-76938809D01*
X148940476Y-76938809D02*
X148845238Y-76891190D01*
%TO.C,C18*%
X131107142Y-72187380D02*
X131059523Y-72235000D01*
X131059523Y-72235000D02*
X130916666Y-72282619D01*
X130916666Y-72282619D02*
X130821428Y-72282619D01*
X130821428Y-72282619D02*
X130678571Y-72235000D01*
X130678571Y-72235000D02*
X130583333Y-72139761D01*
X130583333Y-72139761D02*
X130535714Y-72044523D01*
X130535714Y-72044523D02*
X130488095Y-71854047D01*
X130488095Y-71854047D02*
X130488095Y-71711190D01*
X130488095Y-71711190D02*
X130535714Y-71520714D01*
X130535714Y-71520714D02*
X130583333Y-71425476D01*
X130583333Y-71425476D02*
X130678571Y-71330238D01*
X130678571Y-71330238D02*
X130821428Y-71282619D01*
X130821428Y-71282619D02*
X130916666Y-71282619D01*
X130916666Y-71282619D02*
X131059523Y-71330238D01*
X131059523Y-71330238D02*
X131107142Y-71377857D01*
X132059523Y-72282619D02*
X131488095Y-72282619D01*
X131773809Y-72282619D02*
X131773809Y-71282619D01*
X131773809Y-71282619D02*
X131678571Y-71425476D01*
X131678571Y-71425476D02*
X131583333Y-71520714D01*
X131583333Y-71520714D02*
X131488095Y-71568333D01*
X132630952Y-71711190D02*
X132535714Y-71663571D01*
X132535714Y-71663571D02*
X132488095Y-71615952D01*
X132488095Y-71615952D02*
X132440476Y-71520714D01*
X132440476Y-71520714D02*
X132440476Y-71473095D01*
X132440476Y-71473095D02*
X132488095Y-71377857D01*
X132488095Y-71377857D02*
X132535714Y-71330238D01*
X132535714Y-71330238D02*
X132630952Y-71282619D01*
X132630952Y-71282619D02*
X132821428Y-71282619D01*
X132821428Y-71282619D02*
X132916666Y-71330238D01*
X132916666Y-71330238D02*
X132964285Y-71377857D01*
X132964285Y-71377857D02*
X133011904Y-71473095D01*
X133011904Y-71473095D02*
X133011904Y-71520714D01*
X133011904Y-71520714D02*
X132964285Y-71615952D01*
X132964285Y-71615952D02*
X132916666Y-71663571D01*
X132916666Y-71663571D02*
X132821428Y-71711190D01*
X132821428Y-71711190D02*
X132630952Y-71711190D01*
X132630952Y-71711190D02*
X132535714Y-71758809D01*
X132535714Y-71758809D02*
X132488095Y-71806428D01*
X132488095Y-71806428D02*
X132440476Y-71901666D01*
X132440476Y-71901666D02*
X132440476Y-72092142D01*
X132440476Y-72092142D02*
X132488095Y-72187380D01*
X132488095Y-72187380D02*
X132535714Y-72235000D01*
X132535714Y-72235000D02*
X132630952Y-72282619D01*
X132630952Y-72282619D02*
X132821428Y-72282619D01*
X132821428Y-72282619D02*
X132916666Y-72235000D01*
X132916666Y-72235000D02*
X132964285Y-72187380D01*
X132964285Y-72187380D02*
X133011904Y-72092142D01*
X133011904Y-72092142D02*
X133011904Y-71901666D01*
X133011904Y-71901666D02*
X132964285Y-71806428D01*
X132964285Y-71806428D02*
X132916666Y-71758809D01*
X132916666Y-71758809D02*
X132821428Y-71711190D01*
%TO.C,C23*%
X118357142Y-89367380D02*
X118309523Y-89415000D01*
X118309523Y-89415000D02*
X118166666Y-89462619D01*
X118166666Y-89462619D02*
X118071428Y-89462619D01*
X118071428Y-89462619D02*
X117928571Y-89415000D01*
X117928571Y-89415000D02*
X117833333Y-89319761D01*
X117833333Y-89319761D02*
X117785714Y-89224523D01*
X117785714Y-89224523D02*
X117738095Y-89034047D01*
X117738095Y-89034047D02*
X117738095Y-88891190D01*
X117738095Y-88891190D02*
X117785714Y-88700714D01*
X117785714Y-88700714D02*
X117833333Y-88605476D01*
X117833333Y-88605476D02*
X117928571Y-88510238D01*
X117928571Y-88510238D02*
X118071428Y-88462619D01*
X118071428Y-88462619D02*
X118166666Y-88462619D01*
X118166666Y-88462619D02*
X118309523Y-88510238D01*
X118309523Y-88510238D02*
X118357142Y-88557857D01*
X118738095Y-88557857D02*
X118785714Y-88510238D01*
X118785714Y-88510238D02*
X118880952Y-88462619D01*
X118880952Y-88462619D02*
X119119047Y-88462619D01*
X119119047Y-88462619D02*
X119214285Y-88510238D01*
X119214285Y-88510238D02*
X119261904Y-88557857D01*
X119261904Y-88557857D02*
X119309523Y-88653095D01*
X119309523Y-88653095D02*
X119309523Y-88748333D01*
X119309523Y-88748333D02*
X119261904Y-88891190D01*
X119261904Y-88891190D02*
X118690476Y-89462619D01*
X118690476Y-89462619D02*
X119309523Y-89462619D01*
X119642857Y-88462619D02*
X120261904Y-88462619D01*
X120261904Y-88462619D02*
X119928571Y-88843571D01*
X119928571Y-88843571D02*
X120071428Y-88843571D01*
X120071428Y-88843571D02*
X120166666Y-88891190D01*
X120166666Y-88891190D02*
X120214285Y-88938809D01*
X120214285Y-88938809D02*
X120261904Y-89034047D01*
X120261904Y-89034047D02*
X120261904Y-89272142D01*
X120261904Y-89272142D02*
X120214285Y-89367380D01*
X120214285Y-89367380D02*
X120166666Y-89415000D01*
X120166666Y-89415000D02*
X120071428Y-89462619D01*
X120071428Y-89462619D02*
X119785714Y-89462619D01*
X119785714Y-89462619D02*
X119690476Y-89415000D01*
X119690476Y-89415000D02*
X119642857Y-89367380D01*
%TO.C,C20*%
X120607142Y-66867380D02*
X120559523Y-66915000D01*
X120559523Y-66915000D02*
X120416666Y-66962619D01*
X120416666Y-66962619D02*
X120321428Y-66962619D01*
X120321428Y-66962619D02*
X120178571Y-66915000D01*
X120178571Y-66915000D02*
X120083333Y-66819761D01*
X120083333Y-66819761D02*
X120035714Y-66724523D01*
X120035714Y-66724523D02*
X119988095Y-66534047D01*
X119988095Y-66534047D02*
X119988095Y-66391190D01*
X119988095Y-66391190D02*
X120035714Y-66200714D01*
X120035714Y-66200714D02*
X120083333Y-66105476D01*
X120083333Y-66105476D02*
X120178571Y-66010238D01*
X120178571Y-66010238D02*
X120321428Y-65962619D01*
X120321428Y-65962619D02*
X120416666Y-65962619D01*
X120416666Y-65962619D02*
X120559523Y-66010238D01*
X120559523Y-66010238D02*
X120607142Y-66057857D01*
X120988095Y-66057857D02*
X121035714Y-66010238D01*
X121035714Y-66010238D02*
X121130952Y-65962619D01*
X121130952Y-65962619D02*
X121369047Y-65962619D01*
X121369047Y-65962619D02*
X121464285Y-66010238D01*
X121464285Y-66010238D02*
X121511904Y-66057857D01*
X121511904Y-66057857D02*
X121559523Y-66153095D01*
X121559523Y-66153095D02*
X121559523Y-66248333D01*
X121559523Y-66248333D02*
X121511904Y-66391190D01*
X121511904Y-66391190D02*
X120940476Y-66962619D01*
X120940476Y-66962619D02*
X121559523Y-66962619D01*
X122178571Y-65962619D02*
X122273809Y-65962619D01*
X122273809Y-65962619D02*
X122369047Y-66010238D01*
X122369047Y-66010238D02*
X122416666Y-66057857D01*
X122416666Y-66057857D02*
X122464285Y-66153095D01*
X122464285Y-66153095D02*
X122511904Y-66343571D01*
X122511904Y-66343571D02*
X122511904Y-66581666D01*
X122511904Y-66581666D02*
X122464285Y-66772142D01*
X122464285Y-66772142D02*
X122416666Y-66867380D01*
X122416666Y-66867380D02*
X122369047Y-66915000D01*
X122369047Y-66915000D02*
X122273809Y-66962619D01*
X122273809Y-66962619D02*
X122178571Y-66962619D01*
X122178571Y-66962619D02*
X122083333Y-66915000D01*
X122083333Y-66915000D02*
X122035714Y-66867380D01*
X122035714Y-66867380D02*
X121988095Y-66772142D01*
X121988095Y-66772142D02*
X121940476Y-66581666D01*
X121940476Y-66581666D02*
X121940476Y-66343571D01*
X121940476Y-66343571D02*
X121988095Y-66153095D01*
X121988095Y-66153095D02*
X122035714Y-66057857D01*
X122035714Y-66057857D02*
X122083333Y-66010238D01*
X122083333Y-66010238D02*
X122178571Y-65962619D01*
%TO.C,J3*%
X109416666Y-56382619D02*
X109416666Y-57096904D01*
X109416666Y-57096904D02*
X109369047Y-57239761D01*
X109369047Y-57239761D02*
X109273809Y-57335000D01*
X109273809Y-57335000D02*
X109130952Y-57382619D01*
X109130952Y-57382619D02*
X109035714Y-57382619D01*
X109797619Y-56382619D02*
X110416666Y-56382619D01*
X110416666Y-56382619D02*
X110083333Y-56763571D01*
X110083333Y-56763571D02*
X110226190Y-56763571D01*
X110226190Y-56763571D02*
X110321428Y-56811190D01*
X110321428Y-56811190D02*
X110369047Y-56858809D01*
X110369047Y-56858809D02*
X110416666Y-56954047D01*
X110416666Y-56954047D02*
X110416666Y-57192142D01*
X110416666Y-57192142D02*
X110369047Y-57287380D01*
X110369047Y-57287380D02*
X110321428Y-57335000D01*
X110321428Y-57335000D02*
X110226190Y-57382619D01*
X110226190Y-57382619D02*
X109940476Y-57382619D01*
X109940476Y-57382619D02*
X109845238Y-57335000D01*
X109845238Y-57335000D02*
X109797619Y-57287380D01*
%TO.C,R7*%
X126333333Y-68462619D02*
X126000000Y-67986428D01*
X125761905Y-68462619D02*
X125761905Y-67462619D01*
X125761905Y-67462619D02*
X126142857Y-67462619D01*
X126142857Y-67462619D02*
X126238095Y-67510238D01*
X126238095Y-67510238D02*
X126285714Y-67557857D01*
X126285714Y-67557857D02*
X126333333Y-67653095D01*
X126333333Y-67653095D02*
X126333333Y-67795952D01*
X126333333Y-67795952D02*
X126285714Y-67891190D01*
X126285714Y-67891190D02*
X126238095Y-67938809D01*
X126238095Y-67938809D02*
X126142857Y-67986428D01*
X126142857Y-67986428D02*
X125761905Y-67986428D01*
X126666667Y-67462619D02*
X127333333Y-67462619D01*
X127333333Y-67462619D02*
X126904762Y-68462619D01*
%TO.C,C13*%
X108867380Y-72642857D02*
X108915000Y-72690476D01*
X108915000Y-72690476D02*
X108962619Y-72833333D01*
X108962619Y-72833333D02*
X108962619Y-72928571D01*
X108962619Y-72928571D02*
X108915000Y-73071428D01*
X108915000Y-73071428D02*
X108819761Y-73166666D01*
X108819761Y-73166666D02*
X108724523Y-73214285D01*
X108724523Y-73214285D02*
X108534047Y-73261904D01*
X108534047Y-73261904D02*
X108391190Y-73261904D01*
X108391190Y-73261904D02*
X108200714Y-73214285D01*
X108200714Y-73214285D02*
X108105476Y-73166666D01*
X108105476Y-73166666D02*
X108010238Y-73071428D01*
X108010238Y-73071428D02*
X107962619Y-72928571D01*
X107962619Y-72928571D02*
X107962619Y-72833333D01*
X107962619Y-72833333D02*
X108010238Y-72690476D01*
X108010238Y-72690476D02*
X108057857Y-72642857D01*
X108962619Y-71690476D02*
X108962619Y-72261904D01*
X108962619Y-71976190D02*
X107962619Y-71976190D01*
X107962619Y-71976190D02*
X108105476Y-72071428D01*
X108105476Y-72071428D02*
X108200714Y-72166666D01*
X108200714Y-72166666D02*
X108248333Y-72261904D01*
X107962619Y-71357142D02*
X107962619Y-70738095D01*
X107962619Y-70738095D02*
X108343571Y-71071428D01*
X108343571Y-71071428D02*
X108343571Y-70928571D01*
X108343571Y-70928571D02*
X108391190Y-70833333D01*
X108391190Y-70833333D02*
X108438809Y-70785714D01*
X108438809Y-70785714D02*
X108534047Y-70738095D01*
X108534047Y-70738095D02*
X108772142Y-70738095D01*
X108772142Y-70738095D02*
X108867380Y-70785714D01*
X108867380Y-70785714D02*
X108915000Y-70833333D01*
X108915000Y-70833333D02*
X108962619Y-70928571D01*
X108962619Y-70928571D02*
X108962619Y-71214285D01*
X108962619Y-71214285D02*
X108915000Y-71309523D01*
X108915000Y-71309523D02*
X108867380Y-71357142D01*
%TO.C,Y1*%
X108486428Y-75976190D02*
X108962619Y-75976190D01*
X107962619Y-76309523D02*
X108486428Y-75976190D01*
X108486428Y-75976190D02*
X107962619Y-75642857D01*
X108962619Y-74785714D02*
X108962619Y-75357142D01*
X108962619Y-75071428D02*
X107962619Y-75071428D01*
X107962619Y-75071428D02*
X108105476Y-75166666D01*
X108105476Y-75166666D02*
X108200714Y-75261904D01*
X108200714Y-75261904D02*
X108248333Y-75357142D01*
%TO.C,+*%
X115951048Y-97181666D02*
X116712953Y-97181666D01*
X116332000Y-97562619D02*
X116332000Y-96800714D01*
%TO.C,C24*%
X163857142Y-65687380D02*
X163809523Y-65735000D01*
X163809523Y-65735000D02*
X163666666Y-65782619D01*
X163666666Y-65782619D02*
X163571428Y-65782619D01*
X163571428Y-65782619D02*
X163428571Y-65735000D01*
X163428571Y-65735000D02*
X163333333Y-65639761D01*
X163333333Y-65639761D02*
X163285714Y-65544523D01*
X163285714Y-65544523D02*
X163238095Y-65354047D01*
X163238095Y-65354047D02*
X163238095Y-65211190D01*
X163238095Y-65211190D02*
X163285714Y-65020714D01*
X163285714Y-65020714D02*
X163333333Y-64925476D01*
X163333333Y-64925476D02*
X163428571Y-64830238D01*
X163428571Y-64830238D02*
X163571428Y-64782619D01*
X163571428Y-64782619D02*
X163666666Y-64782619D01*
X163666666Y-64782619D02*
X163809523Y-64830238D01*
X163809523Y-64830238D02*
X163857142Y-64877857D01*
X164238095Y-64877857D02*
X164285714Y-64830238D01*
X164285714Y-64830238D02*
X164380952Y-64782619D01*
X164380952Y-64782619D02*
X164619047Y-64782619D01*
X164619047Y-64782619D02*
X164714285Y-64830238D01*
X164714285Y-64830238D02*
X164761904Y-64877857D01*
X164761904Y-64877857D02*
X164809523Y-64973095D01*
X164809523Y-64973095D02*
X164809523Y-65068333D01*
X164809523Y-65068333D02*
X164761904Y-65211190D01*
X164761904Y-65211190D02*
X164190476Y-65782619D01*
X164190476Y-65782619D02*
X164809523Y-65782619D01*
X165666666Y-65115952D02*
X165666666Y-65782619D01*
X165428571Y-64735000D02*
X165190476Y-65449285D01*
X165190476Y-65449285D02*
X165809523Y-65449285D01*
%TO.C,R2*%
X136985833Y-78462619D02*
X136652500Y-77986428D01*
X136414405Y-78462619D02*
X136414405Y-77462619D01*
X136414405Y-77462619D02*
X136795357Y-77462619D01*
X136795357Y-77462619D02*
X136890595Y-77510238D01*
X136890595Y-77510238D02*
X136938214Y-77557857D01*
X136938214Y-77557857D02*
X136985833Y-77653095D01*
X136985833Y-77653095D02*
X136985833Y-77795952D01*
X136985833Y-77795952D02*
X136938214Y-77891190D01*
X136938214Y-77891190D02*
X136890595Y-77938809D01*
X136890595Y-77938809D02*
X136795357Y-77986428D01*
X136795357Y-77986428D02*
X136414405Y-77986428D01*
X137366786Y-77557857D02*
X137414405Y-77510238D01*
X137414405Y-77510238D02*
X137509643Y-77462619D01*
X137509643Y-77462619D02*
X137747738Y-77462619D01*
X137747738Y-77462619D02*
X137842976Y-77510238D01*
X137842976Y-77510238D02*
X137890595Y-77557857D01*
X137890595Y-77557857D02*
X137938214Y-77653095D01*
X137938214Y-77653095D02*
X137938214Y-77748333D01*
X137938214Y-77748333D02*
X137890595Y-77891190D01*
X137890595Y-77891190D02*
X137319167Y-78462619D01*
X137319167Y-78462619D02*
X137938214Y-78462619D01*
%TO.C,C16*%
X122607142Y-89367380D02*
X122559523Y-89415000D01*
X122559523Y-89415000D02*
X122416666Y-89462619D01*
X122416666Y-89462619D02*
X122321428Y-89462619D01*
X122321428Y-89462619D02*
X122178571Y-89415000D01*
X122178571Y-89415000D02*
X122083333Y-89319761D01*
X122083333Y-89319761D02*
X122035714Y-89224523D01*
X122035714Y-89224523D02*
X121988095Y-89034047D01*
X121988095Y-89034047D02*
X121988095Y-88891190D01*
X121988095Y-88891190D02*
X122035714Y-88700714D01*
X122035714Y-88700714D02*
X122083333Y-88605476D01*
X122083333Y-88605476D02*
X122178571Y-88510238D01*
X122178571Y-88510238D02*
X122321428Y-88462619D01*
X122321428Y-88462619D02*
X122416666Y-88462619D01*
X122416666Y-88462619D02*
X122559523Y-88510238D01*
X122559523Y-88510238D02*
X122607142Y-88557857D01*
X123559523Y-89462619D02*
X122988095Y-89462619D01*
X123273809Y-89462619D02*
X123273809Y-88462619D01*
X123273809Y-88462619D02*
X123178571Y-88605476D01*
X123178571Y-88605476D02*
X123083333Y-88700714D01*
X123083333Y-88700714D02*
X122988095Y-88748333D01*
X124416666Y-88462619D02*
X124226190Y-88462619D01*
X124226190Y-88462619D02*
X124130952Y-88510238D01*
X124130952Y-88510238D02*
X124083333Y-88557857D01*
X124083333Y-88557857D02*
X123988095Y-88700714D01*
X123988095Y-88700714D02*
X123940476Y-88891190D01*
X123940476Y-88891190D02*
X123940476Y-89272142D01*
X123940476Y-89272142D02*
X123988095Y-89367380D01*
X123988095Y-89367380D02*
X124035714Y-89415000D01*
X124035714Y-89415000D02*
X124130952Y-89462619D01*
X124130952Y-89462619D02*
X124321428Y-89462619D01*
X124321428Y-89462619D02*
X124416666Y-89415000D01*
X124416666Y-89415000D02*
X124464285Y-89367380D01*
X124464285Y-89367380D02*
X124511904Y-89272142D01*
X124511904Y-89272142D02*
X124511904Y-89034047D01*
X124511904Y-89034047D02*
X124464285Y-88938809D01*
X124464285Y-88938809D02*
X124416666Y-88891190D01*
X124416666Y-88891190D02*
X124321428Y-88843571D01*
X124321428Y-88843571D02*
X124130952Y-88843571D01*
X124130952Y-88843571D02*
X124035714Y-88891190D01*
X124035714Y-88891190D02*
X123988095Y-88938809D01*
X123988095Y-88938809D02*
X123940476Y-89034047D01*
%TO.C,C21*%
X114357142Y-66617380D02*
X114309523Y-66665000D01*
X114309523Y-66665000D02*
X114166666Y-66712619D01*
X114166666Y-66712619D02*
X114071428Y-66712619D01*
X114071428Y-66712619D02*
X113928571Y-66665000D01*
X113928571Y-66665000D02*
X113833333Y-66569761D01*
X113833333Y-66569761D02*
X113785714Y-66474523D01*
X113785714Y-66474523D02*
X113738095Y-66284047D01*
X113738095Y-66284047D02*
X113738095Y-66141190D01*
X113738095Y-66141190D02*
X113785714Y-65950714D01*
X113785714Y-65950714D02*
X113833333Y-65855476D01*
X113833333Y-65855476D02*
X113928571Y-65760238D01*
X113928571Y-65760238D02*
X114071428Y-65712619D01*
X114071428Y-65712619D02*
X114166666Y-65712619D01*
X114166666Y-65712619D02*
X114309523Y-65760238D01*
X114309523Y-65760238D02*
X114357142Y-65807857D01*
X114738095Y-65807857D02*
X114785714Y-65760238D01*
X114785714Y-65760238D02*
X114880952Y-65712619D01*
X114880952Y-65712619D02*
X115119047Y-65712619D01*
X115119047Y-65712619D02*
X115214285Y-65760238D01*
X115214285Y-65760238D02*
X115261904Y-65807857D01*
X115261904Y-65807857D02*
X115309523Y-65903095D01*
X115309523Y-65903095D02*
X115309523Y-65998333D01*
X115309523Y-65998333D02*
X115261904Y-66141190D01*
X115261904Y-66141190D02*
X114690476Y-66712619D01*
X114690476Y-66712619D02*
X115309523Y-66712619D01*
X116261904Y-66712619D02*
X115690476Y-66712619D01*
X115976190Y-66712619D02*
X115976190Y-65712619D01*
X115976190Y-65712619D02*
X115880952Y-65855476D01*
X115880952Y-65855476D02*
X115785714Y-65950714D01*
X115785714Y-65950714D02*
X115690476Y-65998333D01*
%TO.C,D1*%
X137761905Y-63962619D02*
X137761905Y-62962619D01*
X137761905Y-62962619D02*
X138000000Y-62962619D01*
X138000000Y-62962619D02*
X138142857Y-63010238D01*
X138142857Y-63010238D02*
X138238095Y-63105476D01*
X138238095Y-63105476D02*
X138285714Y-63200714D01*
X138285714Y-63200714D02*
X138333333Y-63391190D01*
X138333333Y-63391190D02*
X138333333Y-63534047D01*
X138333333Y-63534047D02*
X138285714Y-63724523D01*
X138285714Y-63724523D02*
X138238095Y-63819761D01*
X138238095Y-63819761D02*
X138142857Y-63915000D01*
X138142857Y-63915000D02*
X138000000Y-63962619D01*
X138000000Y-63962619D02*
X137761905Y-63962619D01*
X139285714Y-63962619D02*
X138714286Y-63962619D01*
X139000000Y-63962619D02*
X139000000Y-62962619D01*
X139000000Y-62962619D02*
X138904762Y-63105476D01*
X138904762Y-63105476D02*
X138809524Y-63200714D01*
X138809524Y-63200714D02*
X138714286Y-63248333D01*
%TO.C,C12*%
X115107142Y-89367380D02*
X115059523Y-89415000D01*
X115059523Y-89415000D02*
X114916666Y-89462619D01*
X114916666Y-89462619D02*
X114821428Y-89462619D01*
X114821428Y-89462619D02*
X114678571Y-89415000D01*
X114678571Y-89415000D02*
X114583333Y-89319761D01*
X114583333Y-89319761D02*
X114535714Y-89224523D01*
X114535714Y-89224523D02*
X114488095Y-89034047D01*
X114488095Y-89034047D02*
X114488095Y-88891190D01*
X114488095Y-88891190D02*
X114535714Y-88700714D01*
X114535714Y-88700714D02*
X114583333Y-88605476D01*
X114583333Y-88605476D02*
X114678571Y-88510238D01*
X114678571Y-88510238D02*
X114821428Y-88462619D01*
X114821428Y-88462619D02*
X114916666Y-88462619D01*
X114916666Y-88462619D02*
X115059523Y-88510238D01*
X115059523Y-88510238D02*
X115107142Y-88557857D01*
X116059523Y-89462619D02*
X115488095Y-89462619D01*
X115773809Y-89462619D02*
X115773809Y-88462619D01*
X115773809Y-88462619D02*
X115678571Y-88605476D01*
X115678571Y-88605476D02*
X115583333Y-88700714D01*
X115583333Y-88700714D02*
X115488095Y-88748333D01*
X116440476Y-88557857D02*
X116488095Y-88510238D01*
X116488095Y-88510238D02*
X116583333Y-88462619D01*
X116583333Y-88462619D02*
X116821428Y-88462619D01*
X116821428Y-88462619D02*
X116916666Y-88510238D01*
X116916666Y-88510238D02*
X116964285Y-88557857D01*
X116964285Y-88557857D02*
X117011904Y-88653095D01*
X117011904Y-88653095D02*
X117011904Y-88748333D01*
X117011904Y-88748333D02*
X116964285Y-88891190D01*
X116964285Y-88891190D02*
X116392857Y-89462619D01*
X116392857Y-89462619D02*
X117011904Y-89462619D01*
%TO.C,C1*%
X146333333Y-87617380D02*
X146285714Y-87665000D01*
X146285714Y-87665000D02*
X146142857Y-87712619D01*
X146142857Y-87712619D02*
X146047619Y-87712619D01*
X146047619Y-87712619D02*
X145904762Y-87665000D01*
X145904762Y-87665000D02*
X145809524Y-87569761D01*
X145809524Y-87569761D02*
X145761905Y-87474523D01*
X145761905Y-87474523D02*
X145714286Y-87284047D01*
X145714286Y-87284047D02*
X145714286Y-87141190D01*
X145714286Y-87141190D02*
X145761905Y-86950714D01*
X145761905Y-86950714D02*
X145809524Y-86855476D01*
X145809524Y-86855476D02*
X145904762Y-86760238D01*
X145904762Y-86760238D02*
X146047619Y-86712619D01*
X146047619Y-86712619D02*
X146142857Y-86712619D01*
X146142857Y-86712619D02*
X146285714Y-86760238D01*
X146285714Y-86760238D02*
X146333333Y-86807857D01*
X147285714Y-87712619D02*
X146714286Y-87712619D01*
X147000000Y-87712619D02*
X147000000Y-86712619D01*
X147000000Y-86712619D02*
X146904762Y-86855476D01*
X146904762Y-86855476D02*
X146809524Y-86950714D01*
X146809524Y-86950714D02*
X146714286Y-86998333D01*
%TO.C,RST*%
X125182380Y-95712619D02*
X124849047Y-95236428D01*
X124610952Y-95712619D02*
X124610952Y-94712619D01*
X124610952Y-94712619D02*
X124991904Y-94712619D01*
X124991904Y-94712619D02*
X125087142Y-94760238D01*
X125087142Y-94760238D02*
X125134761Y-94807857D01*
X125134761Y-94807857D02*
X125182380Y-94903095D01*
X125182380Y-94903095D02*
X125182380Y-95045952D01*
X125182380Y-95045952D02*
X125134761Y-95141190D01*
X125134761Y-95141190D02*
X125087142Y-95188809D01*
X125087142Y-95188809D02*
X124991904Y-95236428D01*
X124991904Y-95236428D02*
X124610952Y-95236428D01*
X125563333Y-95665000D02*
X125706190Y-95712619D01*
X125706190Y-95712619D02*
X125944285Y-95712619D01*
X125944285Y-95712619D02*
X126039523Y-95665000D01*
X126039523Y-95665000D02*
X126087142Y-95617380D01*
X126087142Y-95617380D02*
X126134761Y-95522142D01*
X126134761Y-95522142D02*
X126134761Y-95426904D01*
X126134761Y-95426904D02*
X126087142Y-95331666D01*
X126087142Y-95331666D02*
X126039523Y-95284047D01*
X126039523Y-95284047D02*
X125944285Y-95236428D01*
X125944285Y-95236428D02*
X125753809Y-95188809D01*
X125753809Y-95188809D02*
X125658571Y-95141190D01*
X125658571Y-95141190D02*
X125610952Y-95093571D01*
X125610952Y-95093571D02*
X125563333Y-94998333D01*
X125563333Y-94998333D02*
X125563333Y-94903095D01*
X125563333Y-94903095D02*
X125610952Y-94807857D01*
X125610952Y-94807857D02*
X125658571Y-94760238D01*
X125658571Y-94760238D02*
X125753809Y-94712619D01*
X125753809Y-94712619D02*
X125991904Y-94712619D01*
X125991904Y-94712619D02*
X126134761Y-94760238D01*
X126420476Y-94712619D02*
X126991904Y-94712619D01*
X126706190Y-95712619D02*
X126706190Y-94712619D01*
%TO.C,C5*%
X140083333Y-90797380D02*
X140035714Y-90845000D01*
X140035714Y-90845000D02*
X139892857Y-90892619D01*
X139892857Y-90892619D02*
X139797619Y-90892619D01*
X139797619Y-90892619D02*
X139654762Y-90845000D01*
X139654762Y-90845000D02*
X139559524Y-90749761D01*
X139559524Y-90749761D02*
X139511905Y-90654523D01*
X139511905Y-90654523D02*
X139464286Y-90464047D01*
X139464286Y-90464047D02*
X139464286Y-90321190D01*
X139464286Y-90321190D02*
X139511905Y-90130714D01*
X139511905Y-90130714D02*
X139559524Y-90035476D01*
X139559524Y-90035476D02*
X139654762Y-89940238D01*
X139654762Y-89940238D02*
X139797619Y-89892619D01*
X139797619Y-89892619D02*
X139892857Y-89892619D01*
X139892857Y-89892619D02*
X140035714Y-89940238D01*
X140035714Y-89940238D02*
X140083333Y-89987857D01*
X140988095Y-89892619D02*
X140511905Y-89892619D01*
X140511905Y-89892619D02*
X140464286Y-90368809D01*
X140464286Y-90368809D02*
X140511905Y-90321190D01*
X140511905Y-90321190D02*
X140607143Y-90273571D01*
X140607143Y-90273571D02*
X140845238Y-90273571D01*
X140845238Y-90273571D02*
X140940476Y-90321190D01*
X140940476Y-90321190D02*
X140988095Y-90368809D01*
X140988095Y-90368809D02*
X141035714Y-90464047D01*
X141035714Y-90464047D02*
X141035714Y-90702142D01*
X141035714Y-90702142D02*
X140988095Y-90797380D01*
X140988095Y-90797380D02*
X140940476Y-90845000D01*
X140940476Y-90845000D02*
X140845238Y-90892619D01*
X140845238Y-90892619D02*
X140607143Y-90892619D01*
X140607143Y-90892619D02*
X140511905Y-90845000D01*
X140511905Y-90845000D02*
X140464286Y-90797380D01*
%TO.C,C6*%
X137083333Y-73117380D02*
X137035714Y-73165000D01*
X137035714Y-73165000D02*
X136892857Y-73212619D01*
X136892857Y-73212619D02*
X136797619Y-73212619D01*
X136797619Y-73212619D02*
X136654762Y-73165000D01*
X136654762Y-73165000D02*
X136559524Y-73069761D01*
X136559524Y-73069761D02*
X136511905Y-72974523D01*
X136511905Y-72974523D02*
X136464286Y-72784047D01*
X136464286Y-72784047D02*
X136464286Y-72641190D01*
X136464286Y-72641190D02*
X136511905Y-72450714D01*
X136511905Y-72450714D02*
X136559524Y-72355476D01*
X136559524Y-72355476D02*
X136654762Y-72260238D01*
X136654762Y-72260238D02*
X136797619Y-72212619D01*
X136797619Y-72212619D02*
X136892857Y-72212619D01*
X136892857Y-72212619D02*
X137035714Y-72260238D01*
X137035714Y-72260238D02*
X137083333Y-72307857D01*
X137940476Y-72212619D02*
X137750000Y-72212619D01*
X137750000Y-72212619D02*
X137654762Y-72260238D01*
X137654762Y-72260238D02*
X137607143Y-72307857D01*
X137607143Y-72307857D02*
X137511905Y-72450714D01*
X137511905Y-72450714D02*
X137464286Y-72641190D01*
X137464286Y-72641190D02*
X137464286Y-73022142D01*
X137464286Y-73022142D02*
X137511905Y-73117380D01*
X137511905Y-73117380D02*
X137559524Y-73165000D01*
X137559524Y-73165000D02*
X137654762Y-73212619D01*
X137654762Y-73212619D02*
X137845238Y-73212619D01*
X137845238Y-73212619D02*
X137940476Y-73165000D01*
X137940476Y-73165000D02*
X137988095Y-73117380D01*
X137988095Y-73117380D02*
X138035714Y-73022142D01*
X138035714Y-73022142D02*
X138035714Y-72784047D01*
X138035714Y-72784047D02*
X137988095Y-72688809D01*
X137988095Y-72688809D02*
X137940476Y-72641190D01*
X137940476Y-72641190D02*
X137845238Y-72593571D01*
X137845238Y-72593571D02*
X137654762Y-72593571D01*
X137654762Y-72593571D02*
X137559524Y-72641190D01*
X137559524Y-72641190D02*
X137511905Y-72688809D01*
X137511905Y-72688809D02*
X137464286Y-72784047D01*
%TO.C,U1*%
X121988095Y-76212619D02*
X121988095Y-77022142D01*
X121988095Y-77022142D02*
X122035714Y-77117380D01*
X122035714Y-77117380D02*
X122083333Y-77165000D01*
X122083333Y-77165000D02*
X122178571Y-77212619D01*
X122178571Y-77212619D02*
X122369047Y-77212619D01*
X122369047Y-77212619D02*
X122464285Y-77165000D01*
X122464285Y-77165000D02*
X122511904Y-77117380D01*
X122511904Y-77117380D02*
X122559523Y-77022142D01*
X122559523Y-77022142D02*
X122559523Y-76212619D01*
X123559523Y-77212619D02*
X122988095Y-77212619D01*
X123273809Y-77212619D02*
X123273809Y-76212619D01*
X123273809Y-76212619D02*
X123178571Y-76355476D01*
X123178571Y-76355476D02*
X123083333Y-76450714D01*
X123083333Y-76450714D02*
X122988095Y-76498333D01*
%TO.C,-*%
X110617048Y-97003666D02*
X111378953Y-97003666D01*
%TO.C,R3*%
X126333333Y-65462619D02*
X126000000Y-64986428D01*
X125761905Y-65462619D02*
X125761905Y-64462619D01*
X125761905Y-64462619D02*
X126142857Y-64462619D01*
X126142857Y-64462619D02*
X126238095Y-64510238D01*
X126238095Y-64510238D02*
X126285714Y-64557857D01*
X126285714Y-64557857D02*
X126333333Y-64653095D01*
X126333333Y-64653095D02*
X126333333Y-64795952D01*
X126333333Y-64795952D02*
X126285714Y-64891190D01*
X126285714Y-64891190D02*
X126238095Y-64938809D01*
X126238095Y-64938809D02*
X126142857Y-64986428D01*
X126142857Y-64986428D02*
X125761905Y-64986428D01*
X126666667Y-64462619D02*
X127285714Y-64462619D01*
X127285714Y-64462619D02*
X126952381Y-64843571D01*
X126952381Y-64843571D02*
X127095238Y-64843571D01*
X127095238Y-64843571D02*
X127190476Y-64891190D01*
X127190476Y-64891190D02*
X127238095Y-64938809D01*
X127238095Y-64938809D02*
X127285714Y-65034047D01*
X127285714Y-65034047D02*
X127285714Y-65272142D01*
X127285714Y-65272142D02*
X127238095Y-65367380D01*
X127238095Y-65367380D02*
X127190476Y-65415000D01*
X127190476Y-65415000D02*
X127095238Y-65462619D01*
X127095238Y-65462619D02*
X126809524Y-65462619D01*
X126809524Y-65462619D02*
X126714286Y-65415000D01*
X126714286Y-65415000D02*
X126666667Y-65367380D01*
%TO.C,R1*%
X133333333Y-81462619D02*
X133000000Y-80986428D01*
X132761905Y-81462619D02*
X132761905Y-80462619D01*
X132761905Y-80462619D02*
X133142857Y-80462619D01*
X133142857Y-80462619D02*
X133238095Y-80510238D01*
X133238095Y-80510238D02*
X133285714Y-80557857D01*
X133285714Y-80557857D02*
X133333333Y-80653095D01*
X133333333Y-80653095D02*
X133333333Y-80795952D01*
X133333333Y-80795952D02*
X133285714Y-80891190D01*
X133285714Y-80891190D02*
X133238095Y-80938809D01*
X133238095Y-80938809D02*
X133142857Y-80986428D01*
X133142857Y-80986428D02*
X132761905Y-80986428D01*
X134285714Y-81462619D02*
X133714286Y-81462619D01*
X134000000Y-81462619D02*
X134000000Y-80462619D01*
X134000000Y-80462619D02*
X133904762Y-80605476D01*
X133904762Y-80605476D02*
X133809524Y-80700714D01*
X133809524Y-80700714D02*
X133714286Y-80748333D01*
%TO.C,J4*%
X130416666Y-57212619D02*
X130416666Y-57926904D01*
X130416666Y-57926904D02*
X130369047Y-58069761D01*
X130369047Y-58069761D02*
X130273809Y-58165000D01*
X130273809Y-58165000D02*
X130130952Y-58212619D01*
X130130952Y-58212619D02*
X130035714Y-58212619D01*
X131321428Y-57545952D02*
X131321428Y-58212619D01*
X131083333Y-57165000D02*
X130845238Y-57879285D01*
X130845238Y-57879285D02*
X131464285Y-57879285D01*
%TO.C,C26*%
X151607142Y-76867380D02*
X151559523Y-76915000D01*
X151559523Y-76915000D02*
X151416666Y-76962619D01*
X151416666Y-76962619D02*
X151321428Y-76962619D01*
X151321428Y-76962619D02*
X151178571Y-76915000D01*
X151178571Y-76915000D02*
X151083333Y-76819761D01*
X151083333Y-76819761D02*
X151035714Y-76724523D01*
X151035714Y-76724523D02*
X150988095Y-76534047D01*
X150988095Y-76534047D02*
X150988095Y-76391190D01*
X150988095Y-76391190D02*
X151035714Y-76200714D01*
X151035714Y-76200714D02*
X151083333Y-76105476D01*
X151083333Y-76105476D02*
X151178571Y-76010238D01*
X151178571Y-76010238D02*
X151321428Y-75962619D01*
X151321428Y-75962619D02*
X151416666Y-75962619D01*
X151416666Y-75962619D02*
X151559523Y-76010238D01*
X151559523Y-76010238D02*
X151607142Y-76057857D01*
X151988095Y-76057857D02*
X152035714Y-76010238D01*
X152035714Y-76010238D02*
X152130952Y-75962619D01*
X152130952Y-75962619D02*
X152369047Y-75962619D01*
X152369047Y-75962619D02*
X152464285Y-76010238D01*
X152464285Y-76010238D02*
X152511904Y-76057857D01*
X152511904Y-76057857D02*
X152559523Y-76153095D01*
X152559523Y-76153095D02*
X152559523Y-76248333D01*
X152559523Y-76248333D02*
X152511904Y-76391190D01*
X152511904Y-76391190D02*
X151940476Y-76962619D01*
X151940476Y-76962619D02*
X152559523Y-76962619D01*
X153416666Y-75962619D02*
X153226190Y-75962619D01*
X153226190Y-75962619D02*
X153130952Y-76010238D01*
X153130952Y-76010238D02*
X153083333Y-76057857D01*
X153083333Y-76057857D02*
X152988095Y-76200714D01*
X152988095Y-76200714D02*
X152940476Y-76391190D01*
X152940476Y-76391190D02*
X152940476Y-76772142D01*
X152940476Y-76772142D02*
X152988095Y-76867380D01*
X152988095Y-76867380D02*
X153035714Y-76915000D01*
X153035714Y-76915000D02*
X153130952Y-76962619D01*
X153130952Y-76962619D02*
X153321428Y-76962619D01*
X153321428Y-76962619D02*
X153416666Y-76915000D01*
X153416666Y-76915000D02*
X153464285Y-76867380D01*
X153464285Y-76867380D02*
X153511904Y-76772142D01*
X153511904Y-76772142D02*
X153511904Y-76534047D01*
X153511904Y-76534047D02*
X153464285Y-76438809D01*
X153464285Y-76438809D02*
X153416666Y-76391190D01*
X153416666Y-76391190D02*
X153321428Y-76343571D01*
X153321428Y-76343571D02*
X153130952Y-76343571D01*
X153130952Y-76343571D02*
X153035714Y-76391190D01*
X153035714Y-76391190D02*
X152988095Y-76438809D01*
X152988095Y-76438809D02*
X152940476Y-76534047D01*
%TO.C,C22*%
X114357142Y-69867380D02*
X114309523Y-69915000D01*
X114309523Y-69915000D02*
X114166666Y-69962619D01*
X114166666Y-69962619D02*
X114071428Y-69962619D01*
X114071428Y-69962619D02*
X113928571Y-69915000D01*
X113928571Y-69915000D02*
X113833333Y-69819761D01*
X113833333Y-69819761D02*
X113785714Y-69724523D01*
X113785714Y-69724523D02*
X113738095Y-69534047D01*
X113738095Y-69534047D02*
X113738095Y-69391190D01*
X113738095Y-69391190D02*
X113785714Y-69200714D01*
X113785714Y-69200714D02*
X113833333Y-69105476D01*
X113833333Y-69105476D02*
X113928571Y-69010238D01*
X113928571Y-69010238D02*
X114071428Y-68962619D01*
X114071428Y-68962619D02*
X114166666Y-68962619D01*
X114166666Y-68962619D02*
X114309523Y-69010238D01*
X114309523Y-69010238D02*
X114357142Y-69057857D01*
X114738095Y-69057857D02*
X114785714Y-69010238D01*
X114785714Y-69010238D02*
X114880952Y-68962619D01*
X114880952Y-68962619D02*
X115119047Y-68962619D01*
X115119047Y-68962619D02*
X115214285Y-69010238D01*
X115214285Y-69010238D02*
X115261904Y-69057857D01*
X115261904Y-69057857D02*
X115309523Y-69153095D01*
X115309523Y-69153095D02*
X115309523Y-69248333D01*
X115309523Y-69248333D02*
X115261904Y-69391190D01*
X115261904Y-69391190D02*
X114690476Y-69962619D01*
X114690476Y-69962619D02*
X115309523Y-69962619D01*
X115690476Y-69057857D02*
X115738095Y-69010238D01*
X115738095Y-69010238D02*
X115833333Y-68962619D01*
X115833333Y-68962619D02*
X116071428Y-68962619D01*
X116071428Y-68962619D02*
X116166666Y-69010238D01*
X116166666Y-69010238D02*
X116214285Y-69057857D01*
X116214285Y-69057857D02*
X116261904Y-69153095D01*
X116261904Y-69153095D02*
X116261904Y-69248333D01*
X116261904Y-69248333D02*
X116214285Y-69391190D01*
X116214285Y-69391190D02*
X115642857Y-69962619D01*
X115642857Y-69962619D02*
X116261904Y-69962619D01*
%TO.C,R6*%
X119083333Y-93962619D02*
X118750000Y-93486428D01*
X118511905Y-93962619D02*
X118511905Y-92962619D01*
X118511905Y-92962619D02*
X118892857Y-92962619D01*
X118892857Y-92962619D02*
X118988095Y-93010238D01*
X118988095Y-93010238D02*
X119035714Y-93057857D01*
X119035714Y-93057857D02*
X119083333Y-93153095D01*
X119083333Y-93153095D02*
X119083333Y-93295952D01*
X119083333Y-93295952D02*
X119035714Y-93391190D01*
X119035714Y-93391190D02*
X118988095Y-93438809D01*
X118988095Y-93438809D02*
X118892857Y-93486428D01*
X118892857Y-93486428D02*
X118511905Y-93486428D01*
X119940476Y-92962619D02*
X119750000Y-92962619D01*
X119750000Y-92962619D02*
X119654762Y-93010238D01*
X119654762Y-93010238D02*
X119607143Y-93057857D01*
X119607143Y-93057857D02*
X119511905Y-93200714D01*
X119511905Y-93200714D02*
X119464286Y-93391190D01*
X119464286Y-93391190D02*
X119464286Y-93772142D01*
X119464286Y-93772142D02*
X119511905Y-93867380D01*
X119511905Y-93867380D02*
X119559524Y-93915000D01*
X119559524Y-93915000D02*
X119654762Y-93962619D01*
X119654762Y-93962619D02*
X119845238Y-93962619D01*
X119845238Y-93962619D02*
X119940476Y-93915000D01*
X119940476Y-93915000D02*
X119988095Y-93867380D01*
X119988095Y-93867380D02*
X120035714Y-93772142D01*
X120035714Y-93772142D02*
X120035714Y-93534047D01*
X120035714Y-93534047D02*
X119988095Y-93438809D01*
X119988095Y-93438809D02*
X119940476Y-93391190D01*
X119940476Y-93391190D02*
X119845238Y-93343571D01*
X119845238Y-93343571D02*
X119654762Y-93343571D01*
X119654762Y-93343571D02*
X119559524Y-93391190D01*
X119559524Y-93391190D02*
X119511905Y-93438809D01*
X119511905Y-93438809D02*
X119464286Y-93534047D01*
%TO.C,C19*%
X131107142Y-75187380D02*
X131059523Y-75235000D01*
X131059523Y-75235000D02*
X130916666Y-75282619D01*
X130916666Y-75282619D02*
X130821428Y-75282619D01*
X130821428Y-75282619D02*
X130678571Y-75235000D01*
X130678571Y-75235000D02*
X130583333Y-75139761D01*
X130583333Y-75139761D02*
X130535714Y-75044523D01*
X130535714Y-75044523D02*
X130488095Y-74854047D01*
X130488095Y-74854047D02*
X130488095Y-74711190D01*
X130488095Y-74711190D02*
X130535714Y-74520714D01*
X130535714Y-74520714D02*
X130583333Y-74425476D01*
X130583333Y-74425476D02*
X130678571Y-74330238D01*
X130678571Y-74330238D02*
X130821428Y-74282619D01*
X130821428Y-74282619D02*
X130916666Y-74282619D01*
X130916666Y-74282619D02*
X131059523Y-74330238D01*
X131059523Y-74330238D02*
X131107142Y-74377857D01*
X132059523Y-75282619D02*
X131488095Y-75282619D01*
X131773809Y-75282619D02*
X131773809Y-74282619D01*
X131773809Y-74282619D02*
X131678571Y-74425476D01*
X131678571Y-74425476D02*
X131583333Y-74520714D01*
X131583333Y-74520714D02*
X131488095Y-74568333D01*
X132535714Y-75282619D02*
X132726190Y-75282619D01*
X132726190Y-75282619D02*
X132821428Y-75235000D01*
X132821428Y-75235000D02*
X132869047Y-75187380D01*
X132869047Y-75187380D02*
X132964285Y-75044523D01*
X132964285Y-75044523D02*
X133011904Y-74854047D01*
X133011904Y-74854047D02*
X133011904Y-74473095D01*
X133011904Y-74473095D02*
X132964285Y-74377857D01*
X132964285Y-74377857D02*
X132916666Y-74330238D01*
X132916666Y-74330238D02*
X132821428Y-74282619D01*
X132821428Y-74282619D02*
X132630952Y-74282619D01*
X132630952Y-74282619D02*
X132535714Y-74330238D01*
X132535714Y-74330238D02*
X132488095Y-74377857D01*
X132488095Y-74377857D02*
X132440476Y-74473095D01*
X132440476Y-74473095D02*
X132440476Y-74711190D01*
X132440476Y-74711190D02*
X132488095Y-74806428D01*
X132488095Y-74806428D02*
X132535714Y-74854047D01*
X132535714Y-74854047D02*
X132630952Y-74901666D01*
X132630952Y-74901666D02*
X132821428Y-74901666D01*
X132821428Y-74901666D02*
X132916666Y-74854047D01*
X132916666Y-74854047D02*
X132964285Y-74806428D01*
X132964285Y-74806428D02*
X133011904Y-74711190D01*
%TO.C,R8*%
X131913333Y-84664619D02*
X131580000Y-84188428D01*
X131341905Y-84664619D02*
X131341905Y-83664619D01*
X131341905Y-83664619D02*
X131722857Y-83664619D01*
X131722857Y-83664619D02*
X131818095Y-83712238D01*
X131818095Y-83712238D02*
X131865714Y-83759857D01*
X131865714Y-83759857D02*
X131913333Y-83855095D01*
X131913333Y-83855095D02*
X131913333Y-83997952D01*
X131913333Y-83997952D02*
X131865714Y-84093190D01*
X131865714Y-84093190D02*
X131818095Y-84140809D01*
X131818095Y-84140809D02*
X131722857Y-84188428D01*
X131722857Y-84188428D02*
X131341905Y-84188428D01*
X132484762Y-84093190D02*
X132389524Y-84045571D01*
X132389524Y-84045571D02*
X132341905Y-83997952D01*
X132341905Y-83997952D02*
X132294286Y-83902714D01*
X132294286Y-83902714D02*
X132294286Y-83855095D01*
X132294286Y-83855095D02*
X132341905Y-83759857D01*
X132341905Y-83759857D02*
X132389524Y-83712238D01*
X132389524Y-83712238D02*
X132484762Y-83664619D01*
X132484762Y-83664619D02*
X132675238Y-83664619D01*
X132675238Y-83664619D02*
X132770476Y-83712238D01*
X132770476Y-83712238D02*
X132818095Y-83759857D01*
X132818095Y-83759857D02*
X132865714Y-83855095D01*
X132865714Y-83855095D02*
X132865714Y-83902714D01*
X132865714Y-83902714D02*
X132818095Y-83997952D01*
X132818095Y-83997952D02*
X132770476Y-84045571D01*
X132770476Y-84045571D02*
X132675238Y-84093190D01*
X132675238Y-84093190D02*
X132484762Y-84093190D01*
X132484762Y-84093190D02*
X132389524Y-84140809D01*
X132389524Y-84140809D02*
X132341905Y-84188428D01*
X132341905Y-84188428D02*
X132294286Y-84283666D01*
X132294286Y-84283666D02*
X132294286Y-84474142D01*
X132294286Y-84474142D02*
X132341905Y-84569380D01*
X132341905Y-84569380D02*
X132389524Y-84617000D01*
X132389524Y-84617000D02*
X132484762Y-84664619D01*
X132484762Y-84664619D02*
X132675238Y-84664619D01*
X132675238Y-84664619D02*
X132770476Y-84617000D01*
X132770476Y-84617000D02*
X132818095Y-84569380D01*
X132818095Y-84569380D02*
X132865714Y-84474142D01*
X132865714Y-84474142D02*
X132865714Y-84283666D01*
X132865714Y-84283666D02*
X132818095Y-84188428D01*
X132818095Y-84188428D02*
X132770476Y-84140809D01*
X132770476Y-84140809D02*
X132675238Y-84093190D01*
D13*
%TO.C,C4*%
X137515000Y-82511252D02*
X137515000Y-81988748D01*
X138985000Y-82511252D02*
X138985000Y-81988748D01*
%TO.C,C17*%
X127353733Y-85315000D02*
X127646267Y-85315000D01*
X127353733Y-86335000D02*
X127646267Y-86335000D01*
D14*
%TO.C,IC3*%
X157975000Y-79375000D02*
X159725000Y-79375000D01*
X160250000Y-79250000D02*
X163750000Y-79250000D01*
X160250000Y-85750000D02*
X160250000Y-79250000D01*
X163750000Y-79250000D02*
X163750000Y-85750000D01*
X163750000Y-85750000D02*
X160250000Y-85750000D01*
D13*
%TO.C,C2*%
X140511252Y-86235000D02*
X139988748Y-86235000D01*
X140511252Y-84765000D02*
X139988748Y-84765000D01*
%TO.C,C11*%
X164353733Y-63240000D02*
X164646267Y-63240000D01*
X164353733Y-64260000D02*
X164646267Y-64260000D01*
%TO.C,C25*%
X154990000Y-83646267D02*
X154990000Y-83353733D01*
X156010000Y-83646267D02*
X156010000Y-83353733D01*
D15*
%TO.C,VR1*%
X153470000Y-92646000D02*
X153470000Y-102396000D01*
X150470000Y-92646000D02*
X153470000Y-92646000D01*
X145470000Y-92646000D02*
X140970000Y-92646000D01*
X140970000Y-92646000D02*
X140970000Y-93896000D01*
D14*
X139720000Y-93921000D02*
X139720000Y-93921000D01*
X139720000Y-94021000D02*
X139720000Y-94021000D01*
D15*
X145470000Y-102346000D02*
X140970000Y-102346000D01*
X140970000Y-102346000D02*
X140970000Y-101396000D01*
X153470000Y-102396000D02*
X150470000Y-102346000D01*
D14*
X139720000Y-94021000D02*
G75*
G03*
X139720000Y-93921000I0J50000D01*
G01*
X139720000Y-93921000D02*
G75*
G03*
X139720000Y-94021000I0J-50000D01*
G01*
D13*
%TO.C,FB1*%
X158160000Y-67664758D02*
X158160000Y-69335242D01*
X156340000Y-67664758D02*
X156340000Y-69335242D01*
D14*
%TO.C,IC1*%
X140392000Y-79840000D02*
X140392000Y-79840000D01*
X140392000Y-80040000D02*
X140392000Y-80040000D01*
D15*
X140787000Y-79850000D02*
X141037000Y-79850000D01*
X140787000Y-80350000D02*
X140787000Y-79850000D01*
X140787000Y-82850000D02*
X140787000Y-82575000D01*
X141074000Y-82850000D02*
X140787000Y-82850000D01*
X143287000Y-79850000D02*
X143287000Y-80600000D01*
X143287000Y-82100000D02*
X143287000Y-82850000D01*
D14*
X140392000Y-80040000D02*
G75*
G03*
X140392000Y-79840000I0J100000D01*
G01*
X140392000Y-79840000D02*
G75*
G03*
X140392000Y-80040000I0J-100000D01*
G01*
D13*
%TO.C,C15*%
X123353733Y-93740000D02*
X123646267Y-93740000D01*
X123353733Y-94760000D02*
X123646267Y-94760000D01*
%TO.C,C27*%
X156010000Y-78603733D02*
X156010000Y-78896267D01*
X154990000Y-78603733D02*
X154990000Y-78896267D01*
%TO.C,C9*%
X114853733Y-82565000D02*
X115146267Y-82565000D01*
X114853733Y-83585000D02*
X115146267Y-83585000D01*
%TO.C,D3*%
X133860000Y-66750000D02*
X133860000Y-64750000D01*
X133860000Y-66750000D02*
X129850000Y-66750000D01*
X133860000Y-64750000D02*
X129850000Y-64750000D01*
D15*
%TO.C,J2*%
X135700000Y-49150000D02*
X135700000Y-49150000D01*
X135700000Y-49150000D02*
X135700000Y-48150000D01*
X135700000Y-48150000D02*
X135700000Y-49150000D01*
X135700000Y-48150000D02*
X135700000Y-48150000D01*
X135700000Y-48150000D02*
X135700000Y-48150000D01*
X135700000Y-48150000D02*
X127900000Y-48150000D01*
D14*
X133200000Y-54150000D02*
X133200000Y-54150000D01*
X133200000Y-54150000D02*
X133200000Y-54150000D01*
X133100000Y-54150000D02*
X133100000Y-54150000D01*
D15*
X127900000Y-48900000D02*
X127900000Y-48900000D01*
X127900000Y-48900000D02*
X127900000Y-48150000D01*
X127900000Y-48150000D02*
X135700000Y-48150000D01*
X127900000Y-48150000D02*
X127900000Y-48900000D01*
X127900000Y-48150000D02*
X127900000Y-48150000D01*
X127900000Y-48150000D02*
X127900000Y-48150000D01*
D14*
X133100000Y-54150000D02*
G75*
G03*
X133200000Y-54150000I50000J0D01*
G01*
X133200000Y-54150000D02*
G75*
G03*
X133100000Y-54150000I-50000J0D01*
G01*
X133200000Y-54150000D02*
G75*
G03*
X133100000Y-54150000I-50000J0D01*
G01*
D13*
%TO.C,C3*%
X146238748Y-88015000D02*
X146761252Y-88015000D01*
X146238748Y-89485000D02*
X146761252Y-89485000D01*
%TO.C,D2*%
X135440000Y-65390000D02*
X137060000Y-65390000D01*
X135440000Y-65390000D02*
X135440000Y-62150000D01*
X137060000Y-65390000D02*
X137060000Y-62150000D01*
D15*
%TO.C,L1*%
X146750000Y-83850000D02*
X146750000Y-83850000D01*
X146750000Y-83750000D02*
X146750000Y-83750000D01*
D14*
X144750000Y-83250000D02*
X144750000Y-79250000D01*
X148750000Y-83250000D02*
X144750000Y-83250000D01*
X144750000Y-79250000D02*
X148750000Y-79250000D01*
X148750000Y-79250000D02*
X148750000Y-83250000D01*
D15*
X146750000Y-83750000D02*
G75*
G03*
X146750000Y-83850000I0J-50000D01*
G01*
X146750000Y-83850000D02*
G75*
G03*
X146750000Y-83750000I0J50000D01*
G01*
D13*
%TO.C,C7*%
X140511252Y-76235000D02*
X139988748Y-76235000D01*
X140511252Y-74765000D02*
X139988748Y-74765000D01*
%TO.C,D5*%
X143360000Y-73940000D02*
X143360000Y-75560000D01*
X143360000Y-73940000D02*
X146600000Y-73940000D01*
X143360000Y-75560000D02*
X146600000Y-75560000D01*
%TO.C,+*%
X116651000Y-104837000D02*
X116651000Y-106167000D01*
X115321000Y-104837000D02*
X116651000Y-104837000D01*
X114051000Y-104837000D02*
X111451000Y-104837000D01*
X114051000Y-104837000D02*
X114051000Y-107437000D01*
X111451000Y-104837000D02*
X111451000Y-110037000D01*
X116651000Y-107437000D02*
X116651000Y-110037000D01*
X114051000Y-107437000D02*
X116651000Y-107437000D01*
X116651000Y-110037000D02*
X111451000Y-110037000D01*
%TO.C,C14*%
X110353733Y-80990000D02*
X110646267Y-80990000D01*
X110353733Y-82010000D02*
X110646267Y-82010000D01*
%TO.C,R4*%
X123522936Y-49765000D02*
X123977064Y-49765000D01*
X123522936Y-51235000D02*
X123977064Y-51235000D01*
%TO.C,C10*%
X151740000Y-83646267D02*
X151740000Y-83353733D01*
X152760000Y-83646267D02*
X152760000Y-83353733D01*
%TO.C,J1*%
X153610000Y-61360000D02*
X150800000Y-61360000D01*
X153610000Y-55300000D02*
X153610000Y-61360000D01*
X153610000Y-48140000D02*
X153610000Y-51200000D01*
X149500000Y-62550000D02*
X147500000Y-62550000D01*
X146200000Y-61360000D02*
X143390000Y-61360000D01*
X143390000Y-61360000D02*
X143390000Y-55300000D01*
X143390000Y-51200000D02*
X143390000Y-48140000D01*
X143390000Y-48140000D02*
X153610000Y-48140000D01*
%TO.C,R5*%
X116082379Y-94120000D02*
X116417621Y-94120000D01*
X116082379Y-94880000D02*
X116417621Y-94880000D01*
%TO.C,D4*%
X121110000Y-51460000D02*
X121110000Y-49540000D01*
X121110000Y-49540000D02*
X118250000Y-49540000D01*
X118250000Y-51460000D02*
X121110000Y-51460000D01*
%TO.C,C8*%
X144988748Y-76265000D02*
X145511252Y-76265000D01*
X144988748Y-77735000D02*
X145511252Y-77735000D01*
%TO.C,C18*%
X131603733Y-72740000D02*
X131896267Y-72740000D01*
X131603733Y-73760000D02*
X131896267Y-73760000D01*
%TO.C,C23*%
X119146267Y-86335000D02*
X118853733Y-86335000D01*
X119146267Y-85315000D02*
X118853733Y-85315000D01*
%TO.C,C20*%
X120103733Y-67240000D02*
X120396267Y-67240000D01*
X120103733Y-68260000D02*
X120396267Y-68260000D01*
%TO.C,J3*%
X108420000Y-57920000D02*
X109750000Y-57920000D01*
X108420000Y-59250000D02*
X108420000Y-57920000D01*
X108420000Y-60520000D02*
X108420000Y-68200000D01*
X108420000Y-60520000D02*
X111080000Y-60520000D01*
X108420000Y-68200000D02*
X111080000Y-68200000D01*
X111080000Y-60520000D02*
X111080000Y-68200000D01*
%TO.C,R7*%
X123582379Y-67370000D02*
X123917621Y-67370000D01*
X123582379Y-68130000D02*
X123917621Y-68130000D01*
%TO.C,C13*%
X110353733Y-69240000D02*
X110646267Y-69240000D01*
X110353733Y-70260000D02*
X110646267Y-70260000D01*
%TO.C,Y1*%
X109330000Y-79420000D02*
X110600000Y-79420000D01*
X109330000Y-79420000D02*
X109330000Y-71580000D01*
X113670000Y-79420000D02*
X112400000Y-79420000D01*
X113670000Y-79420000D02*
X113670000Y-71580000D01*
X109330000Y-71580000D02*
X110600000Y-71580000D01*
X113670000Y-71580000D02*
X112400000Y-71580000D01*
%TO.C,C24*%
X164353733Y-66240000D02*
X164646267Y-66240000D01*
X164353733Y-67260000D02*
X164646267Y-67260000D01*
%TO.C,R2*%
X140022936Y-77265000D02*
X140477064Y-77265000D01*
X140022936Y-78735000D02*
X140477064Y-78735000D01*
%TO.C,C16*%
X123353733Y-85315000D02*
X123646267Y-85315000D01*
X123353733Y-86335000D02*
X123646267Y-86335000D01*
%TO.C,C21*%
X116396267Y-68260000D02*
X116103733Y-68260000D01*
X116396267Y-67240000D02*
X116103733Y-67240000D01*
%TO.C,D1*%
X139440000Y-65390000D02*
X141060000Y-65390000D01*
X139440000Y-65390000D02*
X139440000Y-62150000D01*
X141060000Y-65390000D02*
X141060000Y-62150000D01*
%TO.C,C12*%
X114853733Y-85315000D02*
X115146267Y-85315000D01*
X114853733Y-86335000D02*
X115146267Y-86335000D01*
%TO.C,C1*%
X146238748Y-84765000D02*
X146761252Y-84765000D01*
X146238748Y-86235000D02*
X146761252Y-86235000D01*
%TO.C,RST*%
X129250000Y-100500000D02*
X129250000Y-99000000D01*
X128000000Y-96500000D02*
X123500000Y-96500000D01*
X123500000Y-103000000D02*
X128000000Y-103000000D01*
X122250000Y-99000000D02*
X122250000Y-100500000D01*
%TO.C,C5*%
X140511252Y-89485000D02*
X139988748Y-89485000D01*
X140511252Y-88015000D02*
X139988748Y-88015000D01*
%TO.C,C6*%
X140511252Y-73485000D02*
X139988748Y-73485000D01*
X140511252Y-72015000D02*
X139988748Y-72015000D01*
%TO.C,U1*%
X117640000Y-71965000D02*
X117640000Y-72915000D01*
X117640000Y-72915000D02*
X116300000Y-72915000D01*
X117640000Y-82185000D02*
X117640000Y-81235000D01*
X118590000Y-71965000D02*
X117640000Y-71965000D01*
X118590000Y-82185000D02*
X117640000Y-82185000D01*
X126910000Y-71965000D02*
X127860000Y-71965000D01*
X126910000Y-82185000D02*
X127860000Y-82185000D01*
X127860000Y-71965000D02*
X127860000Y-72915000D01*
X127860000Y-82185000D02*
X127860000Y-81235000D01*
%TO.C,R3*%
X123582379Y-64620000D02*
X123917621Y-64620000D01*
X123582379Y-65380000D02*
X123917621Y-65380000D01*
%TO.C,R1*%
X134840000Y-82477064D02*
X134840000Y-81022936D01*
X136660000Y-82477064D02*
X136660000Y-81022936D01*
%TO.C,J4*%
X129200000Y-56420000D02*
X129200000Y-57750000D01*
X127870000Y-56420000D02*
X129200000Y-56420000D01*
X126600000Y-56420000D02*
X116380000Y-56420000D01*
X126600000Y-56420000D02*
X126600000Y-59080000D01*
X116380000Y-56420000D02*
X116380000Y-59080000D01*
X126600000Y-59080000D02*
X116380000Y-59080000D01*
%TO.C,C26*%
X152760000Y-78603733D02*
X152760000Y-78896267D01*
X151740000Y-78603733D02*
X151740000Y-78896267D01*
%TO.C,C22*%
X116396267Y-71335000D02*
X116103733Y-71335000D01*
X116396267Y-70315000D02*
X116103733Y-70315000D01*
%TO.C,R6*%
X119417621Y-94880000D02*
X119082379Y-94880000D01*
X119417621Y-94120000D02*
X119082379Y-94120000D01*
%TO.C,J5*%
X162112000Y-104842000D02*
X162112000Y-106172000D01*
X160782000Y-104842000D02*
X162112000Y-104842000D01*
X159512000Y-104842000D02*
X156912000Y-104842000D01*
X159512000Y-104842000D02*
X159512000Y-107442000D01*
X156912000Y-104842000D02*
X156912000Y-110042000D01*
X162112000Y-107442000D02*
X162112000Y-110042000D01*
X159512000Y-107442000D02*
X162112000Y-107442000D01*
X162112000Y-110042000D02*
X156912000Y-110042000D01*
%TO.C,C19*%
X131603733Y-75740000D02*
X131896267Y-75740000D01*
X131603733Y-76760000D02*
X131896267Y-76760000D01*
%TO.C,R8*%
X131852936Y-85117000D02*
X132307064Y-85117000D01*
X131852936Y-86587000D02*
X132307064Y-86587000D01*
%TD*%
M02*
