%TF.GenerationSoftware,KiCad,Pcbnew,7.0.1*%
%TF.CreationDate,2023-07-11T02:04:21-05:00*%
%TF.ProjectId,Power_Supply,506f7765-725f-4537-9570-706c792e6b69,1*%
%TF.SameCoordinates,Original*%
%TF.FileFunction,Copper,L2,Inr*%
%TF.FilePolarity,Positive*%
%FSLAX46Y46*%
G04 Gerber Fmt 4.6, Leading zero omitted, Abs format (unit mm)*
G04 Created by KiCad (PCBNEW 7.0.1) date 2023-07-11 02:04:21*
%MOMM*%
%LPD*%
G01*
G04 APERTURE LIST*
%TA.AperFunction,ComponentPad*%
%ADD10C,2.000000*%
%TD*%
%TA.AperFunction,ComponentPad*%
%ADD11C,2.600000*%
%TD*%
%TA.AperFunction,ComponentPad*%
%ADD12R,1.700000X1.700000*%
%TD*%
%TA.AperFunction,ComponentPad*%
%ADD13O,1.700000X1.700000*%
%TD*%
%TA.AperFunction,ComponentPad*%
%ADD14R,4.000000X4.000000*%
%TD*%
%TA.AperFunction,ComponentPad*%
%ADD15C,3.300000*%
%TD*%
%TA.AperFunction,ComponentPad*%
%ADD16C,3.500000*%
%TD*%
%TA.AperFunction,ViaPad*%
%ADD17C,0.800000*%
%TD*%
G04 APERTURE END LIST*
D10*
%TO.N,POT_BTN_DWN*%
%TO.C,SW3*%
X142980000Y-91380000D03*
X142980000Y-97880000D03*
%TO.N,GND*%
X138480000Y-91380000D03*
X138480000Y-97880000D03*
%TD*%
D11*
%TO.N,GND*%
%TO.C,H6*%
X159350000Y-90610000D03*
%TD*%
D12*
%TO.N,+3.3V*%
%TO.C,J4*%
X165360000Y-58830000D03*
D13*
%TO.N,SWCLK*%
X165360000Y-61370000D03*
%TO.N,GND*%
X165360000Y-63910000D03*
%TO.N,SWDIO*%
X165360000Y-66450000D03*
%TO.N,SWO*%
X165360000Y-68990000D03*
%TD*%
D10*
%TO.N,GND*%
%TO.C,SW1*%
X124830000Y-97740000D03*
X124830000Y-91240000D03*
%TO.N,/NRST*%
X129330000Y-97740000D03*
X129330000Y-91240000D03*
%TD*%
D11*
%TO.N,ADC*%
%TO.C,H5*%
X164880000Y-90680000D03*
%TD*%
D14*
%TO.N,/MCU_POWER/JACK_OUT*%
%TO.C,J1*%
X149995000Y-60365000D03*
D15*
%TO.N,GND*%
X149995000Y-54365000D03*
D16*
%TO.N,N/C*%
X154495000Y-53365000D03*
X145495000Y-53365000D03*
%TD*%
D10*
%TO.N,POT_BTN_UP*%
%TO.C,SW2*%
X152880000Y-91290000D03*
X152880000Y-97790000D03*
%TO.N,GND*%
X148380000Y-91290000D03*
X148380000Y-97790000D03*
%TD*%
D12*
%TO.N,+3.3V*%
%TO.C,J3*%
X165590000Y-74660000D03*
D13*
%TO.N,SCL*%
X165590000Y-77200000D03*
%TO.N,SDA*%
X165590000Y-79740000D03*
%TO.N,GND*%
X165590000Y-82280000D03*
%TD*%
D12*
%TO.N,ADC*%
%TO.C,J10*%
X117295000Y-109155000D03*
D13*
X117295000Y-106615000D03*
%TO.N,GND*%
X114755000Y-109155000D03*
X114755000Y-106615000D03*
%TD*%
D12*
%TO.N,ADC*%
%TO.C,J5*%
X162275000Y-109365000D03*
D13*
X162275000Y-106825000D03*
%TO.N,GND*%
X159735000Y-109365000D03*
X159735000Y-106825000D03*
%TD*%
D17*
%TO.N,GND*%
X133295000Y-56725000D03*
X123825000Y-50335000D03*
X124750000Y-79720000D03*
X126590000Y-73910000D03*
X134655000Y-56735000D03*
X116280000Y-78190000D03*
X122810000Y-73860000D03*
X116755000Y-68355000D03*
X150905000Y-65285000D03*
X154492205Y-72567961D03*
X160972500Y-82220000D03*
X147411000Y-77209807D03*
X132695000Y-87075000D03*
X142000000Y-76740000D03*
X116425000Y-61490000D03*
X138445000Y-67855000D03*
X123080000Y-79700000D03*
X118400000Y-61445000D03*
X116455000Y-66050000D03*
X136015000Y-56765000D03*
X126460000Y-79710000D03*
X130676250Y-72055000D03*
X119110000Y-86290000D03*
X116280000Y-79200000D03*
X116775000Y-70365000D03*
X118120000Y-86280000D03*
X124680000Y-73860000D03*
X145655000Y-70665000D03*
X117445000Y-66030000D03*
X116755000Y-74275000D03*
X130695000Y-77495000D03*
X116755000Y-72455000D03*
X117410000Y-61465000D03*
X118430000Y-66005000D03*
X154265000Y-79615000D03*
%TO.N,+3.3V*%
X125915000Y-50335000D03*
X153650000Y-65300000D03*
X110855000Y-62840000D03*
X110835000Y-63720000D03*
X141960000Y-78980000D03*
X112035000Y-63710000D03*
X145935000Y-65325000D03*
X158254799Y-71504799D03*
X110855000Y-64650000D03*
X141055000Y-73780500D03*
X112055000Y-62830000D03*
X112055000Y-64640000D03*
X148860000Y-79104500D03*
X111385000Y-81115000D03*
%TO.N,PU*%
X112815000Y-88455000D03*
X150017037Y-78614500D03*
%TO.N,PD*%
X114195000Y-88425500D03*
X151395000Y-77955000D03*
%TO.N,SCL*%
X149835000Y-73495000D03*
X163400000Y-77175000D03*
%TO.N,SDA*%
X163440000Y-79735000D03*
X148435000Y-73635000D03*
%TO.N,SWDIO*%
X155230000Y-73505000D03*
%TO.N,SWO*%
X165444998Y-71195000D03*
X152610000Y-74000000D03*
%TO.N,POT_BTN_DWN*%
X151200000Y-84340000D03*
%TO.N,ADC*%
X115415000Y-87975999D03*
X115125000Y-78585000D03*
%TD*%
%TA.AperFunction,Conductor*%
%TO.N,GND*%
G36*
X168420648Y-47535312D02*
G01*
X168482579Y-47551994D01*
X168527891Y-47597388D01*
X168544460Y-47659350D01*
X168524538Y-112270362D01*
X168507883Y-112332396D01*
X168462427Y-112377775D01*
X168400364Y-112394324D01*
X154388261Y-112374672D01*
X154326642Y-112358178D01*
X154281375Y-112313236D01*
X154264440Y-112251739D01*
X154241793Y-109615000D01*
X158404364Y-109615000D01*
X158461569Y-109828492D01*
X158561399Y-110042576D01*
X158696893Y-110236081D01*
X158863918Y-110403106D01*
X159057423Y-110538600D01*
X159271507Y-110638430D01*
X159484999Y-110695635D01*
X159485000Y-110695636D01*
X159485000Y-110695635D01*
X159985000Y-110695635D01*
X160198492Y-110638430D01*
X160347510Y-110568942D01*
X160408866Y-110557648D01*
X160467957Y-110577660D01*
X160509824Y-110623912D01*
X160585302Y-110768407D01*
X160713891Y-110926109D01*
X160871593Y-111054698D01*
X161051951Y-111148909D01*
X161247582Y-111204886D01*
X161366963Y-111215500D01*
X163183036Y-111215499D01*
X163302418Y-111204886D01*
X163498049Y-111148909D01*
X163678407Y-111054698D01*
X163836109Y-110926109D01*
X163964698Y-110768407D01*
X164058909Y-110588049D01*
X164114886Y-110392418D01*
X164125500Y-110273037D01*
X164125499Y-108456964D01*
X164114886Y-108337582D01*
X164058909Y-108141951D01*
X163964698Y-107961593D01*
X163933103Y-107922845D01*
X163896447Y-107877889D01*
X163873707Y-107834920D01*
X163869234Y-107786510D01*
X163883715Y-107740105D01*
X163962574Y-107595689D01*
X164055077Y-107347678D01*
X164111343Y-107089026D01*
X164130227Y-106825000D01*
X164111343Y-106560974D01*
X164055077Y-106302322D01*
X163962574Y-106054311D01*
X163835716Y-105821989D01*
X163677087Y-105610085D01*
X163489915Y-105422913D01*
X163304835Y-105284364D01*
X163278009Y-105264282D01*
X163111898Y-105173579D01*
X163045689Y-105137426D01*
X162797678Y-105044923D01*
X162797673Y-105044921D01*
X162539027Y-104988657D01*
X162275000Y-104969772D01*
X162010972Y-104988657D01*
X161752326Y-105044921D01*
X161628316Y-105091174D01*
X161504311Y-105137426D01*
X161504308Y-105137427D01*
X161504307Y-105137428D01*
X161271990Y-105264282D01*
X161060082Y-105422915D01*
X160872915Y-105610082D01*
X160766299Y-105752505D01*
X160717047Y-105791660D01*
X160654919Y-105801601D01*
X160595909Y-105779769D01*
X160412579Y-105651400D01*
X160198492Y-105551569D01*
X159985000Y-105494364D01*
X159985000Y-110695635D01*
X159485000Y-110695635D01*
X159485000Y-109615000D01*
X158404364Y-109615000D01*
X154241793Y-109615000D01*
X154219977Y-107075000D01*
X158404364Y-107075000D01*
X158461569Y-107288492D01*
X158561399Y-107502576D01*
X158696893Y-107696081D01*
X158863918Y-107863106D01*
X159050031Y-107993425D01*
X159088896Y-108037743D01*
X159102907Y-108095000D01*
X159088896Y-108152257D01*
X159050031Y-108196575D01*
X158863918Y-108326893D01*
X158696890Y-108493921D01*
X158561400Y-108687421D01*
X158461569Y-108901507D01*
X158404364Y-109114999D01*
X158404364Y-109115000D01*
X159485000Y-109115000D01*
X159485000Y-107075000D01*
X158404364Y-107075000D01*
X154219977Y-107075000D01*
X154215682Y-106575000D01*
X158404364Y-106575000D01*
X159485000Y-106575000D01*
X159485000Y-105494364D01*
X159484999Y-105494364D01*
X159271507Y-105551569D01*
X159057421Y-105651400D01*
X158863921Y-105786890D01*
X158696890Y-105953921D01*
X158561400Y-106147421D01*
X158461569Y-106361507D01*
X158404364Y-106574999D01*
X158404364Y-106575000D01*
X154215682Y-106575000D01*
X154195531Y-104228811D01*
X154195529Y-104227126D01*
X154195540Y-104225001D01*
X154195541Y-104225000D01*
X154195540Y-104224998D01*
X154195542Y-104224680D01*
X154195380Y-104224614D01*
X154195235Y-104224555D01*
X154195100Y-104224500D01*
X154195096Y-104224499D01*
X154195091Y-104224497D01*
X154194996Y-104224458D01*
X154189977Y-104224494D01*
X154189070Y-104224497D01*
X122653556Y-104214502D01*
X122652938Y-104214500D01*
X122644776Y-104214456D01*
X122644458Y-104214774D01*
X122644458Y-104226002D01*
X122644457Y-104226450D01*
X122614959Y-112220506D01*
X122598119Y-112282442D01*
X122552568Y-112327661D01*
X122490510Y-112344047D01*
X108959050Y-112294950D01*
X108897240Y-112278188D01*
X108852038Y-112232821D01*
X108835500Y-112170951D01*
X108835500Y-109405000D01*
X113424364Y-109405000D01*
X113481569Y-109618492D01*
X113581399Y-109832576D01*
X113716893Y-110026081D01*
X113883918Y-110193106D01*
X114077423Y-110328600D01*
X114291507Y-110428430D01*
X114504999Y-110485635D01*
X114505000Y-110485636D01*
X114505000Y-110485635D01*
X115005000Y-110485635D01*
X115218492Y-110428430D01*
X115367510Y-110358942D01*
X115428866Y-110347648D01*
X115487957Y-110367660D01*
X115529824Y-110413912D01*
X115605302Y-110558407D01*
X115733891Y-110716109D01*
X115891593Y-110844698D01*
X116071951Y-110938909D01*
X116267582Y-110994886D01*
X116386963Y-111005500D01*
X118203036Y-111005499D01*
X118322418Y-110994886D01*
X118518049Y-110938909D01*
X118698407Y-110844698D01*
X118856109Y-110716109D01*
X118984698Y-110558407D01*
X119078909Y-110378049D01*
X119134886Y-110182418D01*
X119145500Y-110063037D01*
X119145499Y-108246964D01*
X119134886Y-108127582D01*
X119078909Y-107931951D01*
X118984698Y-107751593D01*
X118939434Y-107696081D01*
X118916447Y-107667889D01*
X118893707Y-107624920D01*
X118889234Y-107576510D01*
X118903715Y-107530105D01*
X118982574Y-107385689D01*
X119075077Y-107137678D01*
X119131343Y-106879026D01*
X119150227Y-106615000D01*
X119131343Y-106350974D01*
X119075077Y-106092322D01*
X118982574Y-105844311D01*
X118855716Y-105611989D01*
X118854288Y-105610082D01*
X118767663Y-105494364D01*
X118697087Y-105400085D01*
X118509915Y-105212913D01*
X118403962Y-105133598D01*
X118298009Y-105054282D01*
X118131898Y-104963579D01*
X118065689Y-104927426D01*
X117817678Y-104834923D01*
X117817673Y-104834921D01*
X117559027Y-104778657D01*
X117295000Y-104759772D01*
X117030972Y-104778657D01*
X116772326Y-104834921D01*
X116648316Y-104881174D01*
X116524311Y-104927426D01*
X116524308Y-104927427D01*
X116524307Y-104927428D01*
X116291990Y-105054282D01*
X116080082Y-105212915D01*
X115892915Y-105400082D01*
X115786299Y-105542505D01*
X115737047Y-105581660D01*
X115674919Y-105591601D01*
X115615909Y-105569769D01*
X115432579Y-105441400D01*
X115218492Y-105341569D01*
X115005000Y-105284364D01*
X115005000Y-110485635D01*
X114505000Y-110485635D01*
X114505000Y-109405000D01*
X113424364Y-109405000D01*
X108835500Y-109405000D01*
X108835500Y-106865000D01*
X113424364Y-106865000D01*
X113481569Y-107078492D01*
X113581399Y-107292576D01*
X113716893Y-107486081D01*
X113883918Y-107653106D01*
X114070031Y-107783425D01*
X114108896Y-107827743D01*
X114122907Y-107885000D01*
X114108896Y-107942257D01*
X114070031Y-107986575D01*
X113883918Y-108116893D01*
X113716890Y-108283921D01*
X113581400Y-108477421D01*
X113481569Y-108691507D01*
X113424364Y-108904999D01*
X113424364Y-108905000D01*
X114505000Y-108905000D01*
X114505000Y-106865000D01*
X113424364Y-106865000D01*
X108835500Y-106865000D01*
X108835500Y-106365000D01*
X113424364Y-106365000D01*
X114505000Y-106365000D01*
X114505000Y-105284364D01*
X114504999Y-105284364D01*
X114291507Y-105341569D01*
X114077421Y-105441400D01*
X113883921Y-105576890D01*
X113716890Y-105743921D01*
X113581400Y-105937421D01*
X113481569Y-106151507D01*
X113424364Y-106364999D01*
X113424364Y-106365000D01*
X108835500Y-106365000D01*
X108835500Y-100267764D01*
X113355787Y-100267764D01*
X113385413Y-100537016D01*
X113453928Y-100799087D01*
X113559871Y-101048392D01*
X113700982Y-101279611D01*
X113874253Y-101487818D01*
X113874255Y-101487820D01*
X114075998Y-101668582D01*
X114301910Y-101818044D01*
X114397855Y-101863021D01*
X114547177Y-101933021D01*
X114806562Y-102011058D01*
X114806569Y-102011060D01*
X115074561Y-102050500D01*
X115277631Y-102050500D01*
X115277634Y-102050500D01*
X115480156Y-102035677D01*
X115480156Y-102035676D01*
X115744553Y-101976780D01*
X115997558Y-101880014D01*
X116233777Y-101747441D01*
X116448177Y-101581888D01*
X116636186Y-101386881D01*
X116793799Y-101166579D01*
X116917656Y-100925675D01*
X117005118Y-100669305D01*
X117054319Y-100402933D01*
X117061817Y-100197764D01*
X159945787Y-100197764D01*
X159975413Y-100467016D01*
X159975414Y-100467018D01*
X160043928Y-100729088D01*
X160127469Y-100925675D01*
X160149871Y-100978392D01*
X160290982Y-101209611D01*
X160438507Y-101386881D01*
X160464255Y-101417820D01*
X160665998Y-101598582D01*
X160891910Y-101748044D01*
X160998211Y-101797876D01*
X161137177Y-101863021D01*
X161396562Y-101941058D01*
X161396569Y-101941060D01*
X161664561Y-101980500D01*
X161867631Y-101980500D01*
X161867634Y-101980500D01*
X162070156Y-101965677D01*
X162070155Y-101965677D01*
X162334553Y-101906780D01*
X162587558Y-101810014D01*
X162823777Y-101677441D01*
X163038177Y-101511888D01*
X163226186Y-101316881D01*
X163383799Y-101096579D01*
X163507656Y-100855675D01*
X163595118Y-100599305D01*
X163644319Y-100332933D01*
X163654212Y-100062235D01*
X163624586Y-99792982D01*
X163556072Y-99530912D01*
X163450130Y-99281610D01*
X163309018Y-99050390D01*
X163309017Y-99050388D01*
X163135746Y-98842181D01*
X163030758Y-98748112D01*
X162934002Y-98661418D01*
X162708090Y-98511956D01*
X162696172Y-98506369D01*
X162462822Y-98396978D01*
X162203437Y-98318941D01*
X162203431Y-98318940D01*
X161935439Y-98279500D01*
X161732369Y-98279500D01*
X161732366Y-98279500D01*
X161529843Y-98294322D01*
X161265449Y-98353219D01*
X161012441Y-98449986D01*
X160776223Y-98582559D01*
X160561825Y-98748109D01*
X160373813Y-98943120D01*
X160216201Y-99163420D01*
X160092342Y-99404329D01*
X160004881Y-99660695D01*
X159955680Y-99927066D01*
X159945787Y-100197764D01*
X117061817Y-100197764D01*
X117064212Y-100132235D01*
X117034586Y-99862982D01*
X116966072Y-99600912D01*
X116860130Y-99351610D01*
X116763574Y-99193397D01*
X116719017Y-99120388D01*
X116588545Y-98963610D01*
X123959942Y-98963610D01*
X124006766Y-99000055D01*
X124225393Y-99118368D01*
X124460506Y-99199083D01*
X124705707Y-99240000D01*
X124954293Y-99240000D01*
X125199493Y-99199083D01*
X125434606Y-99118368D01*
X125653233Y-99000053D01*
X125700056Y-98963609D01*
X124830000Y-98093553D01*
X123959942Y-98963609D01*
X123959942Y-98963610D01*
X116588545Y-98963610D01*
X116545746Y-98912181D01*
X116447681Y-98824315D01*
X116344002Y-98731418D01*
X116118090Y-98581956D01*
X116099329Y-98573161D01*
X115872822Y-98466978D01*
X115613437Y-98388941D01*
X115613431Y-98388940D01*
X115345439Y-98349500D01*
X115142369Y-98349500D01*
X115142366Y-98349500D01*
X114939843Y-98364322D01*
X114675449Y-98423219D01*
X114422441Y-98519986D01*
X114186223Y-98652559D01*
X113971825Y-98818109D01*
X113783813Y-99013120D01*
X113626201Y-99233420D01*
X113502342Y-99474329D01*
X113414881Y-99730695D01*
X113365680Y-99997066D01*
X113355787Y-100267764D01*
X108835500Y-100267764D01*
X108835500Y-97740000D01*
X123324858Y-97740000D01*
X123345386Y-97987732D01*
X123406413Y-98228721D01*
X123506268Y-98456370D01*
X123606563Y-98609882D01*
X123606564Y-98609882D01*
X124476447Y-97740001D01*
X125183553Y-97740001D01*
X126053434Y-98609882D01*
X126153730Y-98456369D01*
X126253586Y-98228721D01*
X126314613Y-97987732D01*
X126335141Y-97740000D01*
X127324389Y-97740000D01*
X127344804Y-98025429D01*
X127405629Y-98305041D01*
X127423599Y-98353219D01*
X127466029Y-98466980D01*
X127505634Y-98573163D01*
X127642772Y-98824313D01*
X127728517Y-98938854D01*
X127814261Y-99053395D01*
X128016605Y-99255739D01*
X128127940Y-99339083D01*
X128245686Y-99427227D01*
X128385435Y-99503535D01*
X128496839Y-99564367D01*
X128764954Y-99664369D01*
X128764957Y-99664369D01*
X128764958Y-99664370D01*
X128817217Y-99675738D01*
X129044572Y-99725196D01*
X129330000Y-99745610D01*
X129615428Y-99725196D01*
X129895046Y-99664369D01*
X130163161Y-99564367D01*
X130414315Y-99427226D01*
X130643395Y-99255739D01*
X130795524Y-99103610D01*
X137609942Y-99103610D01*
X137656766Y-99140055D01*
X137875393Y-99258368D01*
X138110506Y-99339083D01*
X138355707Y-99380000D01*
X138604293Y-99380000D01*
X138849493Y-99339083D01*
X139084606Y-99258368D01*
X139303233Y-99140053D01*
X139350056Y-99103609D01*
X138480000Y-98233553D01*
X137609942Y-99103609D01*
X137609942Y-99103610D01*
X130795524Y-99103610D01*
X130845739Y-99053395D01*
X131017226Y-98824315D01*
X131154367Y-98573161D01*
X131254369Y-98305046D01*
X131315196Y-98025428D01*
X131325597Y-97879999D01*
X136974858Y-97879999D01*
X136995386Y-98127732D01*
X137056413Y-98368721D01*
X137156268Y-98596370D01*
X137256563Y-98749882D01*
X137256564Y-98749882D01*
X138126447Y-97880001D01*
X138833553Y-97880001D01*
X139703434Y-98749882D01*
X139803730Y-98596369D01*
X139903586Y-98368721D01*
X139964613Y-98127732D01*
X139985141Y-97880000D01*
X140974389Y-97880000D01*
X140994804Y-98165429D01*
X141055629Y-98445041D01*
X141059854Y-98456369D01*
X141122065Y-98623163D01*
X141155634Y-98713163D01*
X141292772Y-98964313D01*
X141356958Y-99050055D01*
X141464261Y-99193395D01*
X141666605Y-99395739D01*
X141838415Y-99524354D01*
X141895686Y-99567227D01*
X141957376Y-99600912D01*
X142146839Y-99704367D01*
X142414954Y-99804369D01*
X142414957Y-99804369D01*
X142414958Y-99804370D01*
X142467217Y-99815738D01*
X142694572Y-99865196D01*
X142980000Y-99885610D01*
X143265428Y-99865196D01*
X143545046Y-99804369D01*
X143813161Y-99704367D01*
X144064315Y-99567226D01*
X144293395Y-99395739D01*
X144495739Y-99193395D01*
X144630324Y-99013610D01*
X147509942Y-99013610D01*
X147556766Y-99050055D01*
X147775393Y-99168368D01*
X148010506Y-99249083D01*
X148255707Y-99290000D01*
X148504293Y-99290000D01*
X148749493Y-99249083D01*
X148984606Y-99168368D01*
X149203233Y-99050053D01*
X149250056Y-99013609D01*
X148380000Y-98143553D01*
X147509942Y-99013609D01*
X147509942Y-99013610D01*
X144630324Y-99013610D01*
X144667226Y-98964315D01*
X144804367Y-98713161D01*
X144904369Y-98445046D01*
X144965196Y-98165428D01*
X144985610Y-97880000D01*
X144979173Y-97790000D01*
X146874858Y-97790000D01*
X146895386Y-98037732D01*
X146956413Y-98278721D01*
X147056268Y-98506370D01*
X147156563Y-98659882D01*
X147156564Y-98659882D01*
X148026447Y-97790001D01*
X148733553Y-97790001D01*
X149603434Y-98659882D01*
X149703730Y-98506369D01*
X149803586Y-98278721D01*
X149864613Y-98037732D01*
X149885141Y-97790000D01*
X150874389Y-97790000D01*
X150894804Y-98075429D01*
X150955629Y-98355041D01*
X150968273Y-98388940D01*
X151045640Y-98596370D01*
X151055634Y-98623163D01*
X151192772Y-98874313D01*
X151260147Y-98964315D01*
X151364261Y-99103395D01*
X151566605Y-99305739D01*
X151686827Y-99395736D01*
X151795686Y-99477227D01*
X151894003Y-99530912D01*
X152046839Y-99614367D01*
X152314954Y-99714369D01*
X152314957Y-99714369D01*
X152314958Y-99714370D01*
X152364720Y-99725195D01*
X152594572Y-99775196D01*
X152880000Y-99795610D01*
X153165428Y-99775196D01*
X153445046Y-99714369D01*
X153713161Y-99614367D01*
X153964315Y-99477226D01*
X154193395Y-99305739D01*
X154395739Y-99103395D01*
X154567226Y-98874315D01*
X154704367Y-98623161D01*
X154804369Y-98355046D01*
X154865196Y-98075428D01*
X154885610Y-97790000D01*
X154865196Y-97504572D01*
X154804369Y-97224954D01*
X154704367Y-96956839D01*
X154643535Y-96845435D01*
X154567227Y-96705686D01*
X154463112Y-96566605D01*
X154395739Y-96476605D01*
X154193395Y-96274261D01*
X154078855Y-96188517D01*
X153964313Y-96102772D01*
X153713163Y-95965634D01*
X153713162Y-95965633D01*
X153713161Y-95965633D01*
X153445046Y-95865631D01*
X153445041Y-95865629D01*
X153165429Y-95804804D01*
X152880000Y-95784389D01*
X152594570Y-95804804D01*
X152314958Y-95865629D01*
X152046836Y-95965634D01*
X151795686Y-96102772D01*
X151566602Y-96274263D01*
X151364263Y-96476602D01*
X151192772Y-96705686D01*
X151055634Y-96956836D01*
X150955629Y-97224958D01*
X150894804Y-97504570D01*
X150874389Y-97790000D01*
X149885141Y-97790000D01*
X149864613Y-97542267D01*
X149803586Y-97301278D01*
X149703730Y-97073630D01*
X149603434Y-96920116D01*
X148733553Y-97790000D01*
X148733553Y-97790001D01*
X148026447Y-97790001D01*
X148026447Y-97790000D01*
X147156564Y-96920116D01*
X147056266Y-97073634D01*
X146956413Y-97301278D01*
X146895386Y-97542267D01*
X146874858Y-97790000D01*
X144979173Y-97790000D01*
X144965196Y-97594572D01*
X144904369Y-97314954D01*
X144804367Y-97046839D01*
X144667226Y-96795685D01*
X144495739Y-96566605D01*
X144495524Y-96566390D01*
X147509942Y-96566390D01*
X148380000Y-97436447D01*
X148380001Y-97436447D01*
X149250057Y-96566390D01*
X149250056Y-96566388D01*
X149203235Y-96529947D01*
X148984606Y-96411631D01*
X148749493Y-96330916D01*
X148504293Y-96290000D01*
X148255707Y-96290000D01*
X148010506Y-96330916D01*
X147775393Y-96411631D01*
X147556764Y-96529946D01*
X147509942Y-96566388D01*
X147509942Y-96566390D01*
X144495524Y-96566390D01*
X144293395Y-96364261D01*
X144127402Y-96240000D01*
X144064313Y-96192772D01*
X143813163Y-96055634D01*
X143813162Y-96055633D01*
X143813161Y-96055633D01*
X143571865Y-95965634D01*
X143545041Y-95955629D01*
X143265429Y-95894804D01*
X142980000Y-95874389D01*
X142694570Y-95894804D01*
X142414958Y-95955629D01*
X142146836Y-96055634D01*
X141895686Y-96192772D01*
X141666602Y-96364263D01*
X141464263Y-96566602D01*
X141292772Y-96795686D01*
X141155634Y-97046836D01*
X141055629Y-97314958D01*
X140994804Y-97594570D01*
X140974389Y-97880000D01*
X139985141Y-97880000D01*
X139985141Y-97879999D01*
X139964613Y-97632267D01*
X139903586Y-97391278D01*
X139803730Y-97163630D01*
X139703434Y-97010116D01*
X138833553Y-97880000D01*
X138833553Y-97880001D01*
X138126447Y-97880001D01*
X138126447Y-97880000D01*
X137256564Y-97010116D01*
X137156266Y-97163634D01*
X137056413Y-97391278D01*
X136995386Y-97632267D01*
X136974858Y-97879999D01*
X131325597Y-97879999D01*
X131335610Y-97740000D01*
X131315196Y-97454572D01*
X131254369Y-97174954D01*
X131154367Y-96906839D01*
X131017611Y-96656390D01*
X137609942Y-96656390D01*
X138480000Y-97526447D01*
X138480001Y-97526447D01*
X139350057Y-96656390D01*
X139350056Y-96656388D01*
X139303235Y-96619947D01*
X139084606Y-96501631D01*
X138849493Y-96420916D01*
X138604293Y-96380000D01*
X138355707Y-96380000D01*
X138110506Y-96420916D01*
X137875393Y-96501631D01*
X137656764Y-96619946D01*
X137609942Y-96656388D01*
X137609942Y-96656390D01*
X131017611Y-96656390D01*
X131017226Y-96655685D01*
X130845739Y-96426605D01*
X130643395Y-96224261D01*
X130528855Y-96138517D01*
X130414313Y-96052772D01*
X130163163Y-95915634D01*
X130163162Y-95915633D01*
X130163161Y-95915633D01*
X129895046Y-95815631D01*
X129895041Y-95815629D01*
X129615429Y-95754804D01*
X129330000Y-95734389D01*
X129044570Y-95754804D01*
X128764958Y-95815629D01*
X128496836Y-95915634D01*
X128245686Y-96052772D01*
X128016602Y-96224263D01*
X127814263Y-96426602D01*
X127642772Y-96655686D01*
X127505634Y-96906836D01*
X127405629Y-97174958D01*
X127344804Y-97454570D01*
X127324389Y-97740000D01*
X126335141Y-97740000D01*
X126335141Y-97739999D01*
X126314613Y-97492267D01*
X126253586Y-97251278D01*
X126153730Y-97023630D01*
X126053434Y-96870116D01*
X125183553Y-97740000D01*
X125183553Y-97740001D01*
X124476447Y-97740001D01*
X124476447Y-97739999D01*
X123606564Y-96870116D01*
X123506266Y-97023634D01*
X123406413Y-97251278D01*
X123345386Y-97492267D01*
X123324858Y-97740000D01*
X108835500Y-97740000D01*
X108835500Y-96516390D01*
X123959942Y-96516390D01*
X124830000Y-97386447D01*
X124830001Y-97386447D01*
X125700057Y-96516390D01*
X125700056Y-96516388D01*
X125653235Y-96479947D01*
X125434606Y-96361631D01*
X125199493Y-96280916D01*
X124954293Y-96240000D01*
X124705707Y-96240000D01*
X124460506Y-96280916D01*
X124225393Y-96361631D01*
X124006764Y-96479946D01*
X123959942Y-96516388D01*
X123959942Y-96516390D01*
X108835500Y-96516390D01*
X108835500Y-92463610D01*
X123959942Y-92463610D01*
X124006766Y-92500055D01*
X124225393Y-92618368D01*
X124460506Y-92699083D01*
X124705707Y-92740000D01*
X124954293Y-92740000D01*
X125199493Y-92699083D01*
X125434606Y-92618368D01*
X125653233Y-92500053D01*
X125700056Y-92463609D01*
X124830000Y-91593553D01*
X123959942Y-92463609D01*
X123959942Y-92463610D01*
X108835500Y-92463610D01*
X108835500Y-91240000D01*
X123324858Y-91240000D01*
X123345386Y-91487732D01*
X123406413Y-91728721D01*
X123506268Y-91956370D01*
X123606563Y-92109882D01*
X123606564Y-92109882D01*
X124476447Y-91240001D01*
X125183553Y-91240001D01*
X126053434Y-92109882D01*
X126153730Y-91956369D01*
X126253586Y-91728721D01*
X126314613Y-91487732D01*
X126335141Y-91240000D01*
X126335141Y-91239999D01*
X127324389Y-91239999D01*
X127344804Y-91525429D01*
X127405629Y-91805041D01*
X127405631Y-91805046D01*
X127457848Y-91945046D01*
X127505634Y-92073163D01*
X127642772Y-92324313D01*
X127706917Y-92410000D01*
X127814261Y-92553395D01*
X128016605Y-92755739D01*
X128089016Y-92809945D01*
X128245686Y-92927227D01*
X128352286Y-92985435D01*
X128496839Y-93064367D01*
X128764954Y-93164369D01*
X128764957Y-93164369D01*
X128764958Y-93164370D01*
X128817217Y-93175738D01*
X129044572Y-93225196D01*
X129330000Y-93245610D01*
X129615428Y-93225196D01*
X129895046Y-93164369D01*
X130163161Y-93064367D01*
X130414315Y-92927226D01*
X130643395Y-92755739D01*
X130795524Y-92603610D01*
X137609942Y-92603610D01*
X137656766Y-92640055D01*
X137875393Y-92758368D01*
X138110506Y-92839083D01*
X138355707Y-92880000D01*
X138604293Y-92880000D01*
X138849493Y-92839083D01*
X139084606Y-92758368D01*
X139303233Y-92640053D01*
X139350056Y-92603609D01*
X138480000Y-91733553D01*
X137609942Y-92603609D01*
X137609942Y-92603610D01*
X130795524Y-92603610D01*
X130845739Y-92553395D01*
X131017226Y-92324315D01*
X131154367Y-92073161D01*
X131254369Y-91805046D01*
X131315196Y-91525428D01*
X131325597Y-91380000D01*
X136974858Y-91380000D01*
X136995386Y-91627732D01*
X137056413Y-91868721D01*
X137156268Y-92096370D01*
X137256563Y-92249882D01*
X137256564Y-92249882D01*
X138126447Y-91380001D01*
X138833553Y-91380001D01*
X139703434Y-92249882D01*
X139803730Y-92096369D01*
X139903586Y-91868721D01*
X139964613Y-91627732D01*
X139985141Y-91380000D01*
X140974389Y-91380000D01*
X140994804Y-91665429D01*
X141055629Y-91945041D01*
X141055631Y-91945046D01*
X141122065Y-92123163D01*
X141155634Y-92213163D01*
X141292772Y-92464313D01*
X141356958Y-92550055D01*
X141464261Y-92693395D01*
X141666605Y-92895739D01*
X141838414Y-93024354D01*
X141895686Y-93067227D01*
X141982013Y-93114365D01*
X142146839Y-93204367D01*
X142414954Y-93304369D01*
X142414957Y-93304369D01*
X142414958Y-93304370D01*
X142467217Y-93315738D01*
X142694572Y-93365196D01*
X142980000Y-93385610D01*
X143265428Y-93365196D01*
X143545046Y-93304369D01*
X143813161Y-93204367D01*
X144064315Y-93067226D01*
X144293395Y-92895739D01*
X144495739Y-92693395D01*
X144630324Y-92513610D01*
X147509942Y-92513610D01*
X147556766Y-92550055D01*
X147775393Y-92668368D01*
X148010506Y-92749083D01*
X148255707Y-92790000D01*
X148504293Y-92790000D01*
X148749493Y-92749083D01*
X148984606Y-92668368D01*
X149203233Y-92550053D01*
X149250056Y-92513609D01*
X148380000Y-91643553D01*
X147509942Y-92513609D01*
X147509942Y-92513610D01*
X144630324Y-92513610D01*
X144667226Y-92464315D01*
X144804367Y-92213161D01*
X144904369Y-91945046D01*
X144965196Y-91665428D01*
X144985610Y-91380000D01*
X144979173Y-91290000D01*
X146874858Y-91290000D01*
X146895386Y-91537732D01*
X146956413Y-91778721D01*
X147056268Y-92006370D01*
X147156563Y-92159882D01*
X147156564Y-92159882D01*
X148026447Y-91290001D01*
X148733553Y-91290001D01*
X149603434Y-92159882D01*
X149703730Y-92006369D01*
X149803586Y-91778721D01*
X149864613Y-91537732D01*
X149885141Y-91290000D01*
X150874389Y-91290000D01*
X150894804Y-91575429D01*
X150955629Y-91855041D01*
X150989197Y-91945041D01*
X151045640Y-92096370D01*
X151055634Y-92123163D01*
X151192772Y-92374313D01*
X151260147Y-92464315D01*
X151364261Y-92603395D01*
X151566605Y-92805739D01*
X151686827Y-92895736D01*
X151795686Y-92977227D01*
X151810720Y-92985436D01*
X152046839Y-93114367D01*
X152314954Y-93214369D01*
X152314957Y-93214369D01*
X152314958Y-93214370D01*
X152364720Y-93225195D01*
X152594572Y-93275196D01*
X152880000Y-93295610D01*
X153165428Y-93275196D01*
X153445046Y-93214369D01*
X153713161Y-93114367D01*
X153964315Y-92977226D01*
X154193395Y-92805739D01*
X154395739Y-92603395D01*
X154567226Y-92374315D01*
X154704367Y-92123161D01*
X154732139Y-92048702D01*
X158264848Y-92048702D01*
X158447479Y-92173217D01*
X158690542Y-92290270D01*
X158948339Y-92369791D01*
X159215109Y-92410000D01*
X159484891Y-92410000D01*
X159751660Y-92369791D01*
X160009460Y-92290270D01*
X160252523Y-92173217D01*
X160435150Y-92048702D01*
X159350000Y-90963553D01*
X158264848Y-92048702D01*
X154732139Y-92048702D01*
X154804369Y-91855046D01*
X154865196Y-91575428D01*
X154885610Y-91290000D01*
X154865196Y-91004572D01*
X154804369Y-90724954D01*
X154761493Y-90610000D01*
X157544952Y-90610000D01*
X157565113Y-90879026D01*
X157625146Y-91142049D01*
X157723708Y-91393178D01*
X157858598Y-91626816D01*
X157912295Y-91694150D01*
X158996447Y-90610001D01*
X158996447Y-90610000D01*
X159703553Y-90610000D01*
X160787703Y-91694151D01*
X160787704Y-91694150D01*
X160841400Y-91626818D01*
X160976291Y-91393178D01*
X161074853Y-91142049D01*
X161134886Y-90879026D01*
X161149801Y-90680000D01*
X162574564Y-90680000D01*
X162594287Y-90980926D01*
X162653119Y-91276689D01*
X162750054Y-91562252D01*
X162883433Y-91832717D01*
X163044092Y-92073161D01*
X163050975Y-92083461D01*
X163249811Y-92310189D01*
X163425555Y-92464313D01*
X163476539Y-92509025D01*
X163727282Y-92676566D01*
X163997747Y-92809945D01*
X164140528Y-92858412D01*
X164283309Y-92906880D01*
X164382802Y-92926670D01*
X164579073Y-92965712D01*
X164579075Y-92965712D01*
X164579080Y-92965713D01*
X164880000Y-92985436D01*
X165180920Y-92965713D01*
X165180924Y-92965712D01*
X165180926Y-92965712D01*
X165277703Y-92946461D01*
X165476691Y-92906880D01*
X165762252Y-92809945D01*
X166032718Y-92676566D01*
X166283461Y-92509025D01*
X166510189Y-92310189D01*
X166709025Y-92083461D01*
X166876566Y-91832718D01*
X167009945Y-91562252D01*
X167106880Y-91276691D01*
X167165713Y-90980920D01*
X167185436Y-90680000D01*
X167165713Y-90379080D01*
X167106880Y-90083309D01*
X167032523Y-89864261D01*
X167009945Y-89797747D01*
X166876566Y-89527282D01*
X166709025Y-89276539D01*
X166697095Y-89262936D01*
X166510189Y-89049811D01*
X166283461Y-88850975D01*
X166282313Y-88850208D01*
X166032717Y-88683433D01*
X165762252Y-88550054D01*
X165476689Y-88453119D01*
X165180926Y-88394287D01*
X164880000Y-88374564D01*
X164579073Y-88394287D01*
X164283310Y-88453119D01*
X163997747Y-88550054D01*
X163727282Y-88683433D01*
X163476539Y-88850974D01*
X163249811Y-89049811D01*
X163050974Y-89276539D01*
X162883433Y-89527282D01*
X162750054Y-89797747D01*
X162653119Y-90083310D01*
X162594287Y-90379073D01*
X162574564Y-90680000D01*
X161149801Y-90680000D01*
X161155047Y-90610000D01*
X161134886Y-90340973D01*
X161074853Y-90077950D01*
X160976291Y-89826821D01*
X160841398Y-89593178D01*
X160787704Y-89525847D01*
X159703553Y-90610000D01*
X158996447Y-90610000D01*
X157912295Y-89525848D01*
X157858598Y-89593182D01*
X157723708Y-89826821D01*
X157625146Y-90077950D01*
X157565113Y-90340973D01*
X157544952Y-90610000D01*
X154761493Y-90610000D01*
X154704367Y-90456839D01*
X154641099Y-90340973D01*
X154567227Y-90205686D01*
X154475617Y-90083310D01*
X154395739Y-89976605D01*
X154193395Y-89774261D01*
X154039785Y-89659270D01*
X153964313Y-89602772D01*
X153713163Y-89465634D01*
X153713162Y-89465633D01*
X153713161Y-89465633D01*
X153523262Y-89394804D01*
X153445041Y-89365629D01*
X153165429Y-89304804D01*
X152880000Y-89284389D01*
X152594570Y-89304804D01*
X152314958Y-89365629D01*
X152046836Y-89465634D01*
X151795686Y-89602772D01*
X151566602Y-89774263D01*
X151364263Y-89976602D01*
X151192772Y-90205686D01*
X151055634Y-90456836D01*
X150955629Y-90724958D01*
X150894804Y-91004570D01*
X150874389Y-91290000D01*
X149885141Y-91290000D01*
X149864613Y-91042267D01*
X149803586Y-90801278D01*
X149703730Y-90573630D01*
X149603434Y-90420116D01*
X148733553Y-91290000D01*
X148733553Y-91290001D01*
X148026447Y-91290001D01*
X148026447Y-91290000D01*
X147156564Y-90420116D01*
X147056266Y-90573634D01*
X146956413Y-90801278D01*
X146895386Y-91042267D01*
X146874858Y-91290000D01*
X144979173Y-91290000D01*
X144965196Y-91094572D01*
X144904369Y-90814954D01*
X144804367Y-90546839D01*
X144712763Y-90379080D01*
X144667227Y-90295686D01*
X144562951Y-90156390D01*
X144495739Y-90066605D01*
X144495524Y-90066390D01*
X147509942Y-90066390D01*
X148380000Y-90936447D01*
X148380001Y-90936447D01*
X149250057Y-90066390D01*
X149250056Y-90066388D01*
X149203235Y-90029947D01*
X148984606Y-89911631D01*
X148749493Y-89830916D01*
X148504293Y-89790000D01*
X148255707Y-89790000D01*
X148010506Y-89830916D01*
X147775393Y-89911631D01*
X147556764Y-90029946D01*
X147509942Y-90066388D01*
X147509942Y-90066390D01*
X144495524Y-90066390D01*
X144293395Y-89864261D01*
X144127402Y-89740000D01*
X144064313Y-89692772D01*
X143813163Y-89555634D01*
X143813162Y-89555633D01*
X143813161Y-89555633D01*
X143571865Y-89465634D01*
X143545041Y-89455629D01*
X143265429Y-89394804D01*
X142980000Y-89374389D01*
X142694570Y-89394804D01*
X142414958Y-89455629D01*
X142146836Y-89555634D01*
X141895686Y-89692772D01*
X141666602Y-89864263D01*
X141464263Y-90066602D01*
X141292772Y-90295686D01*
X141155634Y-90546836D01*
X141055629Y-90814958D01*
X140994804Y-91094570D01*
X140974389Y-91380000D01*
X139985141Y-91380000D01*
X139985141Y-91379999D01*
X139964613Y-91132267D01*
X139903586Y-90891278D01*
X139803730Y-90663630D01*
X139703434Y-90510116D01*
X138833553Y-91380000D01*
X138833553Y-91380001D01*
X138126447Y-91380001D01*
X138126447Y-91380000D01*
X137256564Y-90510116D01*
X137156266Y-90663634D01*
X137056413Y-90891278D01*
X136995386Y-91132267D01*
X136974858Y-91380000D01*
X131325597Y-91380000D01*
X131335610Y-91240000D01*
X131315196Y-90954572D01*
X131254369Y-90674954D01*
X131154367Y-90406839D01*
X131093535Y-90295435D01*
X131017611Y-90156390D01*
X137609942Y-90156390D01*
X138480000Y-91026447D01*
X138480001Y-91026447D01*
X139350057Y-90156390D01*
X139350056Y-90156388D01*
X139303235Y-90119947D01*
X139084606Y-90001631D01*
X138849493Y-89920916D01*
X138604293Y-89880000D01*
X138355707Y-89880000D01*
X138110506Y-89920916D01*
X137875393Y-90001631D01*
X137656764Y-90119946D01*
X137609942Y-90156388D01*
X137609942Y-90156390D01*
X131017611Y-90156390D01*
X131017227Y-90155686D01*
X130959034Y-90077950D01*
X130845739Y-89926605D01*
X130643395Y-89724261D01*
X130519438Y-89631468D01*
X130414313Y-89552772D01*
X130163163Y-89415634D01*
X130163162Y-89415633D01*
X130163161Y-89415633D01*
X129901808Y-89318153D01*
X129895041Y-89315629D01*
X129615429Y-89254804D01*
X129330000Y-89234389D01*
X129044570Y-89254804D01*
X128764958Y-89315629D01*
X128496836Y-89415634D01*
X128245686Y-89552772D01*
X128016602Y-89724263D01*
X127814263Y-89926602D01*
X127642772Y-90155686D01*
X127505634Y-90406836D01*
X127405629Y-90674958D01*
X127344804Y-90954570D01*
X127324389Y-91239999D01*
X126335141Y-91239999D01*
X126314613Y-90992267D01*
X126253586Y-90751278D01*
X126153730Y-90523630D01*
X126053434Y-90370116D01*
X125183553Y-91240000D01*
X125183553Y-91240001D01*
X124476447Y-91240001D01*
X124476447Y-91239999D01*
X123606564Y-90370116D01*
X123506266Y-90523634D01*
X123406413Y-90751278D01*
X123345386Y-90992267D01*
X123324858Y-91240000D01*
X108835500Y-91240000D01*
X108835500Y-90016390D01*
X123959942Y-90016390D01*
X124830000Y-90886447D01*
X124830001Y-90886447D01*
X125700057Y-90016390D01*
X125700056Y-90016388D01*
X125653235Y-89979947D01*
X125434606Y-89861631D01*
X125199493Y-89780916D01*
X124954293Y-89740000D01*
X124705707Y-89740000D01*
X124460506Y-89780916D01*
X124225393Y-89861631D01*
X124006764Y-89979946D01*
X123959942Y-90016388D01*
X123959942Y-90016390D01*
X108835500Y-90016390D01*
X108835500Y-88455000D01*
X111409699Y-88455000D01*
X111428865Y-88686299D01*
X111428865Y-88686301D01*
X111428866Y-88686305D01*
X111485843Y-88911300D01*
X111485844Y-88911303D01*
X111546600Y-89049811D01*
X111579076Y-89123849D01*
X111706021Y-89318153D01*
X111863216Y-89488913D01*
X112046374Y-89631470D01*
X112250497Y-89741936D01*
X112344657Y-89774261D01*
X112470015Y-89817297D01*
X112470017Y-89817297D01*
X112470019Y-89817298D01*
X112698951Y-89855500D01*
X112931048Y-89855500D01*
X112931049Y-89855500D01*
X113159981Y-89817298D01*
X113245915Y-89787797D01*
X113379503Y-89741936D01*
X113383080Y-89740000D01*
X113473237Y-89691208D01*
X113532255Y-89676263D01*
X113591273Y-89691209D01*
X113630496Y-89712436D01*
X113850015Y-89787797D01*
X113850017Y-89787797D01*
X113850019Y-89787798D01*
X114078951Y-89826000D01*
X114311048Y-89826000D01*
X114311049Y-89826000D01*
X114539981Y-89787798D01*
X114759503Y-89712436D01*
X114963626Y-89601970D01*
X115146784Y-89459413D01*
X115187761Y-89414899D01*
X115238729Y-89381600D01*
X115288675Y-89377464D01*
X115288675Y-89376499D01*
X115531048Y-89376499D01*
X115531049Y-89376499D01*
X115759981Y-89338297D01*
X115979503Y-89262935D01*
X116148837Y-89171296D01*
X158264848Y-89171296D01*
X159350000Y-90256447D01*
X159350001Y-90256447D01*
X160435150Y-89171296D01*
X160252519Y-89046780D01*
X160009460Y-88929729D01*
X159751660Y-88850208D01*
X159484891Y-88810000D01*
X159215109Y-88810000D01*
X158948339Y-88850208D01*
X158690542Y-88929729D01*
X158447476Y-89046783D01*
X158264848Y-89171296D01*
X116148837Y-89171296D01*
X116183626Y-89152469D01*
X116366784Y-89009912D01*
X116523979Y-88839152D01*
X116650924Y-88644848D01*
X116744157Y-88432299D01*
X116801134Y-88207304D01*
X116820300Y-87975999D01*
X116801134Y-87744694D01*
X116744157Y-87519699D01*
X116650924Y-87307150D01*
X116523979Y-87112846D01*
X116366784Y-86942086D01*
X116183626Y-86799529D01*
X115979503Y-86689063D01*
X115979499Y-86689061D01*
X115979498Y-86689061D01*
X115759984Y-86613701D01*
X115588282Y-86585049D01*
X115531049Y-86575499D01*
X115298951Y-86575499D01*
X115253164Y-86583139D01*
X115070015Y-86613701D01*
X114850501Y-86689061D01*
X114646372Y-86799530D01*
X114463213Y-86942088D01*
X114422238Y-86986599D01*
X114371272Y-87019897D01*
X114321324Y-87024036D01*
X114321324Y-87025000D01*
X114311049Y-87025000D01*
X114078951Y-87025000D01*
X114033164Y-87032640D01*
X113850015Y-87063202D01*
X113630494Y-87138564D01*
X113536760Y-87189290D01*
X113477744Y-87204235D01*
X113418728Y-87189291D01*
X113379500Y-87168062D01*
X113159984Y-87092702D01*
X112983197Y-87063202D01*
X112931049Y-87054500D01*
X112698951Y-87054500D01*
X112653164Y-87062140D01*
X112470015Y-87092702D01*
X112250501Y-87168062D01*
X112046372Y-87278531D01*
X111863215Y-87421087D01*
X111706020Y-87591848D01*
X111579076Y-87786150D01*
X111485844Y-87998696D01*
X111485842Y-87998700D01*
X111485843Y-87998700D01*
X111433019Y-88207298D01*
X111428865Y-88223700D01*
X111409699Y-88455000D01*
X108835500Y-88455000D01*
X108835500Y-84340000D01*
X149794699Y-84340000D01*
X149813865Y-84571299D01*
X149813865Y-84571301D01*
X149813866Y-84571305D01*
X149870843Y-84796300D01*
X149964076Y-85008849D01*
X150091021Y-85203153D01*
X150248216Y-85373913D01*
X150431374Y-85516470D01*
X150635497Y-85626936D01*
X150745257Y-85664616D01*
X150855015Y-85702297D01*
X150855017Y-85702297D01*
X150855019Y-85702298D01*
X151083951Y-85740500D01*
X151316048Y-85740500D01*
X151316049Y-85740500D01*
X151544981Y-85702298D01*
X151764503Y-85626936D01*
X151968626Y-85516470D01*
X152151784Y-85373913D01*
X152308979Y-85203153D01*
X152435924Y-85008849D01*
X152529157Y-84796300D01*
X152586134Y-84571305D01*
X152605300Y-84340000D01*
X152586134Y-84108695D01*
X152529157Y-83883700D01*
X152435924Y-83671151D01*
X152308979Y-83476847D01*
X152151784Y-83306087D01*
X151968626Y-83163530D01*
X151764503Y-83053064D01*
X151764499Y-83053062D01*
X151764498Y-83053062D01*
X151544984Y-82977702D01*
X151373281Y-82949050D01*
X151316049Y-82939500D01*
X151083951Y-82939500D01*
X151038164Y-82947140D01*
X150855015Y-82977702D01*
X150635501Y-83053062D01*
X150431372Y-83163531D01*
X150248215Y-83306087D01*
X150091020Y-83476848D01*
X149964076Y-83671150D01*
X149870844Y-83883696D01*
X149813865Y-84108700D01*
X149794699Y-84340000D01*
X108835500Y-84340000D01*
X108835500Y-82530000D01*
X164259364Y-82530000D01*
X164316569Y-82743492D01*
X164416399Y-82957576D01*
X164551893Y-83151081D01*
X164718918Y-83318106D01*
X164912423Y-83453600D01*
X165126507Y-83553430D01*
X165339999Y-83610635D01*
X165340000Y-83610636D01*
X165340000Y-82530000D01*
X165840000Y-82530000D01*
X165840000Y-83610635D01*
X166053492Y-83553430D01*
X166267576Y-83453600D01*
X166461081Y-83318106D01*
X166628106Y-83151081D01*
X166763600Y-82957576D01*
X166863430Y-82743492D01*
X166920636Y-82530000D01*
X165840000Y-82530000D01*
X165340000Y-82530000D01*
X164259364Y-82530000D01*
X108835500Y-82530000D01*
X108835500Y-81114999D01*
X109979699Y-81114999D01*
X109998865Y-81346299D01*
X109998865Y-81346301D01*
X109998866Y-81346305D01*
X110055843Y-81571300D01*
X110055844Y-81571303D01*
X110069494Y-81602421D01*
X110149076Y-81783849D01*
X110276021Y-81978153D01*
X110433216Y-82148913D01*
X110616374Y-82291470D01*
X110820497Y-82401936D01*
X110930258Y-82439617D01*
X111040015Y-82477297D01*
X111040017Y-82477297D01*
X111040019Y-82477298D01*
X111268951Y-82515500D01*
X111501048Y-82515500D01*
X111501049Y-82515500D01*
X111729981Y-82477298D01*
X111949503Y-82401936D01*
X112153626Y-82291470D01*
X112336784Y-82148913D01*
X112493979Y-81978153D01*
X112620924Y-81783849D01*
X112714157Y-81571300D01*
X112771134Y-81346305D01*
X112790300Y-81115000D01*
X112771134Y-80883695D01*
X112714157Y-80658700D01*
X112620924Y-80446151D01*
X112493979Y-80251847D01*
X112336784Y-80081087D01*
X112153626Y-79938530D01*
X111949503Y-79828064D01*
X111949499Y-79828062D01*
X111949498Y-79828062D01*
X111729984Y-79752702D01*
X111558281Y-79724050D01*
X111501049Y-79714500D01*
X111268951Y-79714500D01*
X111223164Y-79722140D01*
X111040015Y-79752702D01*
X110820501Y-79828062D01*
X110616372Y-79938531D01*
X110433215Y-80081087D01*
X110276020Y-80251848D01*
X110149076Y-80446150D01*
X110055844Y-80658696D01*
X109998865Y-80883700D01*
X109979699Y-81114999D01*
X108835500Y-81114999D01*
X108835500Y-78585000D01*
X113719699Y-78585000D01*
X113738865Y-78816299D01*
X113738865Y-78816301D01*
X113738866Y-78816305D01*
X113782577Y-78988913D01*
X113795844Y-79041303D01*
X113835395Y-79131470D01*
X113889076Y-79253849D01*
X114016021Y-79448153D01*
X114173216Y-79618913D01*
X114356374Y-79761470D01*
X114560497Y-79871936D01*
X114670258Y-79909617D01*
X114780015Y-79947297D01*
X114780017Y-79947297D01*
X114780019Y-79947298D01*
X115008951Y-79985500D01*
X115241048Y-79985500D01*
X115241049Y-79985500D01*
X115469981Y-79947298D01*
X115689503Y-79871936D01*
X115893626Y-79761470D01*
X116076784Y-79618913D01*
X116233979Y-79448153D01*
X116360924Y-79253849D01*
X116454157Y-79041300D01*
X116469680Y-78980000D01*
X140554699Y-78980000D01*
X140573865Y-79211299D01*
X140573865Y-79211301D01*
X140573866Y-79211305D01*
X140614166Y-79370445D01*
X140630844Y-79436303D01*
X140648982Y-79477653D01*
X140724076Y-79648849D01*
X140851021Y-79843153D01*
X141008216Y-80013913D01*
X141191374Y-80156470D01*
X141395497Y-80266936D01*
X141436377Y-80280970D01*
X141615015Y-80342297D01*
X141615017Y-80342297D01*
X141615019Y-80342298D01*
X141843951Y-80380500D01*
X142076048Y-80380500D01*
X142076049Y-80380500D01*
X142304981Y-80342298D01*
X142524503Y-80266936D01*
X142728626Y-80156470D01*
X142911784Y-80013913D01*
X143068979Y-79843153D01*
X143195924Y-79648849D01*
X143289157Y-79436300D01*
X143346134Y-79211305D01*
X143354984Y-79104499D01*
X147454699Y-79104499D01*
X147473865Y-79335799D01*
X147473865Y-79335801D01*
X147473866Y-79335805D01*
X147509362Y-79475974D01*
X147530844Y-79560803D01*
X147609448Y-79740000D01*
X147624076Y-79773349D01*
X147751021Y-79967653D01*
X147908216Y-80138413D01*
X148091374Y-80280970D01*
X148295497Y-80391436D01*
X148405257Y-80429116D01*
X148515015Y-80466797D01*
X148515017Y-80466797D01*
X148515019Y-80466798D01*
X148743951Y-80505000D01*
X148976048Y-80505000D01*
X148976049Y-80505000D01*
X149204981Y-80466798D01*
X149424503Y-80391436D01*
X149628626Y-80280970D01*
X149811784Y-80138413D01*
X149888554Y-80055017D01*
X149929975Y-80025444D01*
X149979785Y-80015000D01*
X150133085Y-80015000D01*
X150133086Y-80015000D01*
X150362018Y-79976798D01*
X150581540Y-79901436D01*
X150785663Y-79790970D01*
X150968821Y-79648413D01*
X151126016Y-79477653D01*
X151169119Y-79411677D01*
X151213911Y-79370445D01*
X151272928Y-79355500D01*
X151511048Y-79355500D01*
X151511049Y-79355500D01*
X151739981Y-79317298D01*
X151959503Y-79241936D01*
X152163626Y-79131470D01*
X152346784Y-78988913D01*
X152503979Y-78818153D01*
X152630924Y-78623849D01*
X152724157Y-78411300D01*
X152781134Y-78186305D01*
X152800300Y-77955000D01*
X152799561Y-77946087D01*
X152781134Y-77723700D01*
X152781134Y-77723695D01*
X152724157Y-77498700D01*
X152630924Y-77286151D01*
X152558306Y-77175000D01*
X161994699Y-77175000D01*
X162013865Y-77406299D01*
X162013865Y-77406301D01*
X162013866Y-77406305D01*
X162070843Y-77631300D01*
X162070844Y-77631303D01*
X162119489Y-77742202D01*
X162164076Y-77843849D01*
X162291021Y-78038153D01*
X162448216Y-78208913D01*
X162631374Y-78351470D01*
X162635485Y-78353695D01*
X162644969Y-78358827D01*
X162689761Y-78400059D01*
X162709529Y-78457641D01*
X162699509Y-78517692D01*
X162662116Y-78565735D01*
X162488216Y-78701086D01*
X162331020Y-78871848D01*
X162204076Y-79066150D01*
X162110844Y-79278696D01*
X162110842Y-79278700D01*
X162110843Y-79278700D01*
X162060887Y-79475972D01*
X162053865Y-79503700D01*
X162034699Y-79734999D01*
X162053865Y-79966299D01*
X162053865Y-79966301D01*
X162053866Y-79966305D01*
X162102023Y-80156470D01*
X162110844Y-80191303D01*
X162150175Y-80280968D01*
X162204076Y-80403849D01*
X162331021Y-80598153D01*
X162488216Y-80768913D01*
X162671374Y-80911470D01*
X162875497Y-81021936D01*
X162985257Y-81059616D01*
X163095015Y-81097297D01*
X163095017Y-81097297D01*
X163095019Y-81097298D01*
X163323951Y-81135500D01*
X163556048Y-81135500D01*
X163556049Y-81135500D01*
X163784981Y-81097298D01*
X164004503Y-81021936D01*
X164085680Y-80978004D01*
X164136158Y-80963354D01*
X164188173Y-80970932D01*
X164232376Y-80999378D01*
X164375085Y-81142087D01*
X164517502Y-81248699D01*
X164517504Y-81248700D01*
X164556659Y-81297951D01*
X164566601Y-81360080D01*
X164544769Y-81419090D01*
X164416400Y-81602420D01*
X164316569Y-81816507D01*
X164259364Y-82029999D01*
X164259364Y-82030000D01*
X166920636Y-82030000D01*
X166920635Y-82029999D01*
X166863430Y-81816507D01*
X166763599Y-81602421D01*
X166635230Y-81419090D01*
X166613398Y-81360080D01*
X166623340Y-81297951D01*
X166662490Y-81248704D01*
X166804915Y-81142087D01*
X166992087Y-80954915D01*
X167150716Y-80743011D01*
X167277574Y-80510689D01*
X167370077Y-80262678D01*
X167426343Y-80004026D01*
X167445227Y-79740000D01*
X167426343Y-79475974D01*
X167370077Y-79217322D01*
X167277574Y-78969311D01*
X167150716Y-78736989D01*
X167006475Y-78544306D01*
X166984579Y-78496358D01*
X166984579Y-78443642D01*
X167006475Y-78395693D01*
X167150716Y-78203011D01*
X167277574Y-77970689D01*
X167370077Y-77722678D01*
X167426343Y-77464026D01*
X167445227Y-77200000D01*
X167426343Y-76935974D01*
X167370077Y-76677322D01*
X167277574Y-76429311D01*
X167198717Y-76284896D01*
X167184234Y-76238487D01*
X167188707Y-76190077D01*
X167211448Y-76147108D01*
X167279698Y-76063407D01*
X167373909Y-75883049D01*
X167429886Y-75687418D01*
X167440500Y-75568037D01*
X167440499Y-73751964D01*
X167429886Y-73632582D01*
X167373909Y-73436951D01*
X167279698Y-73256593D01*
X167151109Y-73098891D01*
X166993407Y-72970302D01*
X166993406Y-72970301D01*
X166813050Y-72876091D01*
X166715233Y-72848102D01*
X166617418Y-72820114D01*
X166498037Y-72809500D01*
X166498033Y-72809500D01*
X165775072Y-72809500D01*
X165716054Y-72794555D01*
X165671263Y-72753321D01*
X165651495Y-72695739D01*
X165661517Y-72635689D01*
X165698911Y-72587646D01*
X165754664Y-72563191D01*
X165789980Y-72557298D01*
X165861087Y-72532886D01*
X166009501Y-72481936D01*
X166213624Y-72371470D01*
X166396782Y-72228913D01*
X166553977Y-72058153D01*
X166680922Y-71863849D01*
X166774155Y-71651300D01*
X166831132Y-71426305D01*
X166850298Y-71195000D01*
X166831132Y-70963695D01*
X166774155Y-70738700D01*
X166680922Y-70526151D01*
X166641129Y-70465244D01*
X166621891Y-70412762D01*
X166627658Y-70357161D01*
X166657255Y-70309745D01*
X166762087Y-70204915D01*
X166920716Y-69993011D01*
X167047574Y-69760689D01*
X167140077Y-69512678D01*
X167196343Y-69254026D01*
X167215227Y-68990000D01*
X167196343Y-68725974D01*
X167140077Y-68467322D01*
X167047574Y-68219311D01*
X166920716Y-67986989D01*
X166776475Y-67794306D01*
X166754579Y-67746358D01*
X166754579Y-67693642D01*
X166776475Y-67645693D01*
X166920716Y-67453011D01*
X167047574Y-67220689D01*
X167140077Y-66972678D01*
X167196343Y-66714026D01*
X167215227Y-66450000D01*
X167196343Y-66185974D01*
X167140077Y-65927322D01*
X167047574Y-65679311D01*
X166966068Y-65530045D01*
X166920717Y-65446990D01*
X166829396Y-65325000D01*
X166762087Y-65235085D01*
X166574915Y-65047913D01*
X166432494Y-64941298D01*
X166393339Y-64892048D01*
X166383398Y-64829918D01*
X166405230Y-64770908D01*
X166533600Y-64587576D01*
X166633430Y-64373492D01*
X166690636Y-64160000D01*
X164029364Y-64160000D01*
X164086569Y-64373492D01*
X164186400Y-64587579D01*
X164314769Y-64770909D01*
X164336601Y-64829919D01*
X164326660Y-64892047D01*
X164287505Y-64941299D01*
X164145082Y-65047915D01*
X163957915Y-65235082D01*
X163799282Y-65446990D01*
X163672428Y-65679307D01*
X163672426Y-65679311D01*
X163670710Y-65683912D01*
X163579921Y-65927326D01*
X163523657Y-66185972D01*
X163504772Y-66450000D01*
X163523657Y-66714027D01*
X163579921Y-66972673D01*
X163579923Y-66972678D01*
X163672426Y-67220689D01*
X163672428Y-67220692D01*
X163799284Y-67453012D01*
X163943521Y-67645690D01*
X163965420Y-67693642D01*
X163965420Y-67746358D01*
X163943521Y-67794310D01*
X163799284Y-67986987D01*
X163672428Y-68219307D01*
X163672426Y-68219311D01*
X163626174Y-68343316D01*
X163579921Y-68467326D01*
X163523657Y-68725972D01*
X163504772Y-68989999D01*
X163523657Y-69254027D01*
X163579921Y-69512673D01*
X163579923Y-69512678D01*
X163672426Y-69760689D01*
X163672428Y-69760692D01*
X163799282Y-69993009D01*
X163878598Y-70098962D01*
X163957913Y-70204915D01*
X164145085Y-70392087D01*
X164158754Y-70402319D01*
X164194373Y-70444213D01*
X164208373Y-70497392D01*
X164198000Y-70551396D01*
X164115842Y-70738696D01*
X164058863Y-70963700D01*
X164039697Y-71195000D01*
X164058863Y-71426299D01*
X164058863Y-71426301D01*
X164058864Y-71426305D01*
X164078742Y-71504799D01*
X164115842Y-71651303D01*
X164209073Y-71863848D01*
X164209074Y-71863849D01*
X164336019Y-72058153D01*
X164493214Y-72228913D01*
X164676372Y-72371470D01*
X164880495Y-72481936D01*
X164938886Y-72501981D01*
X165100014Y-72557298D01*
X165125286Y-72561514D01*
X165135333Y-72563191D01*
X165191086Y-72587646D01*
X165228480Y-72635688D01*
X165238502Y-72695739D01*
X165218734Y-72753321D01*
X165173943Y-72794554D01*
X165114925Y-72809500D01*
X164681966Y-72809500D01*
X164562582Y-72820114D01*
X164366949Y-72876091D01*
X164186593Y-72970301D01*
X164028891Y-73098891D01*
X163900301Y-73256593D01*
X163806091Y-73436949D01*
X163750114Y-73632582D01*
X163739500Y-73751966D01*
X163739500Y-75568036D01*
X163747301Y-75655784D01*
X163739507Y-75711319D01*
X163708044Y-75757741D01*
X163659348Y-75785555D01*
X163603379Y-75789072D01*
X163516049Y-75774500D01*
X163283951Y-75774500D01*
X163238164Y-75782140D01*
X163055015Y-75812702D01*
X162835501Y-75888062D01*
X162631372Y-75998531D01*
X162448215Y-76141087D01*
X162291020Y-76311848D01*
X162164076Y-76506150D01*
X162070844Y-76718696D01*
X162013865Y-76943700D01*
X161994699Y-77175000D01*
X152558306Y-77175000D01*
X152503979Y-77091847D01*
X152346784Y-76921087D01*
X152163626Y-76778530D01*
X151959503Y-76668064D01*
X151959499Y-76668062D01*
X151959498Y-76668062D01*
X151739984Y-76592702D01*
X151568281Y-76564050D01*
X151511049Y-76554500D01*
X151278951Y-76554500D01*
X151233164Y-76562140D01*
X151050015Y-76592702D01*
X150830501Y-76668062D01*
X150830497Y-76668063D01*
X150830497Y-76668064D01*
X150736937Y-76718696D01*
X150626372Y-76778531D01*
X150443215Y-76921087D01*
X150297590Y-77079279D01*
X150286021Y-77091847D01*
X150242915Y-77157824D01*
X150198126Y-77199055D01*
X150139109Y-77214000D01*
X150133086Y-77214000D01*
X149900988Y-77214000D01*
X149855201Y-77221640D01*
X149672052Y-77252202D01*
X149452538Y-77327562D01*
X149248409Y-77438031D01*
X149065252Y-77580587D01*
X148988482Y-77663983D01*
X148947062Y-77693556D01*
X148897252Y-77704000D01*
X148743951Y-77704000D01*
X148698164Y-77711640D01*
X148515015Y-77742202D01*
X148295501Y-77817562D01*
X148091372Y-77928031D01*
X147908215Y-78070587D01*
X147751020Y-78241348D01*
X147624076Y-78435650D01*
X147530844Y-78648196D01*
X147530842Y-78648200D01*
X147530843Y-78648200D01*
X147474208Y-78871847D01*
X147473865Y-78873200D01*
X147454699Y-79104499D01*
X143354984Y-79104499D01*
X143365300Y-78980000D01*
X143346134Y-78748695D01*
X143289157Y-78523700D01*
X143195924Y-78311151D01*
X143068979Y-78116847D01*
X142911784Y-77946087D01*
X142728626Y-77803530D01*
X142524503Y-77693064D01*
X142524499Y-77693062D01*
X142524498Y-77693062D01*
X142304984Y-77617702D01*
X142133282Y-77589050D01*
X142076049Y-77579500D01*
X141843951Y-77579500D01*
X141798164Y-77587140D01*
X141615015Y-77617702D01*
X141395501Y-77693062D01*
X141395497Y-77693063D01*
X141395497Y-77693064D01*
X141340775Y-77722678D01*
X141191372Y-77803531D01*
X141008215Y-77946087D01*
X140851020Y-78116848D01*
X140724076Y-78311150D01*
X140630844Y-78523696D01*
X140630842Y-78523700D01*
X140630843Y-78523700D01*
X140576831Y-78736989D01*
X140573865Y-78748700D01*
X140554699Y-78980000D01*
X116469680Y-78980000D01*
X116511134Y-78816305D01*
X116530300Y-78585000D01*
X116511134Y-78353695D01*
X116454157Y-78128700D01*
X116360924Y-77916151D01*
X116233979Y-77721847D01*
X116076784Y-77551087D01*
X115893626Y-77408530D01*
X115689503Y-77298064D01*
X115689499Y-77298062D01*
X115689498Y-77298062D01*
X115469984Y-77222702D01*
X115298281Y-77194050D01*
X115241049Y-77184500D01*
X115008951Y-77184500D01*
X114963164Y-77192140D01*
X114780015Y-77222702D01*
X114560501Y-77298062D01*
X114356372Y-77408531D01*
X114173215Y-77551087D01*
X114016020Y-77721848D01*
X113889076Y-77916150D01*
X113795844Y-78128696D01*
X113795842Y-78128700D01*
X113795843Y-78128700D01*
X113739430Y-78351470D01*
X113738865Y-78353700D01*
X113719699Y-78585000D01*
X108835500Y-78585000D01*
X108835500Y-73780500D01*
X139649699Y-73780500D01*
X139668865Y-74011799D01*
X139668865Y-74011801D01*
X139668866Y-74011805D01*
X139725843Y-74236800D01*
X139725844Y-74236803D01*
X139797785Y-74400811D01*
X139819076Y-74449349D01*
X139946021Y-74643653D01*
X140103216Y-74814413D01*
X140286374Y-74956970D01*
X140490497Y-75067436D01*
X140600258Y-75105117D01*
X140710015Y-75142797D01*
X140710017Y-75142797D01*
X140710019Y-75142798D01*
X140938951Y-75181000D01*
X141171048Y-75181000D01*
X141171049Y-75181000D01*
X141399981Y-75142798D01*
X141619503Y-75067436D01*
X141823626Y-74956970D01*
X142006784Y-74814413D01*
X142163979Y-74643653D01*
X142290924Y-74449349D01*
X142384157Y-74236800D01*
X142441134Y-74011805D01*
X142460300Y-73780500D01*
X142448244Y-73635000D01*
X147029699Y-73635000D01*
X147048865Y-73866299D01*
X147048865Y-73866301D01*
X147048866Y-73866305D01*
X147085712Y-74011805D01*
X147105844Y-74091303D01*
X147158535Y-74211425D01*
X147199076Y-74303849D01*
X147326021Y-74498153D01*
X147483216Y-74668913D01*
X147666374Y-74811470D01*
X147870497Y-74921936D01*
X147972542Y-74956968D01*
X148090015Y-74997297D01*
X148090017Y-74997297D01*
X148090019Y-74997298D01*
X148318951Y-75035500D01*
X148551048Y-75035500D01*
X148551049Y-75035500D01*
X148779981Y-74997298D01*
X148999503Y-74921936D01*
X149203626Y-74811470D01*
X149203625Y-74811470D01*
X149212664Y-74806579D01*
X149213986Y-74809023D01*
X149253197Y-74791810D01*
X149313893Y-74796833D01*
X149342280Y-74806579D01*
X149490015Y-74857297D01*
X149490017Y-74857297D01*
X149490019Y-74857298D01*
X149718951Y-74895500D01*
X149951048Y-74895500D01*
X149951049Y-74895500D01*
X150179981Y-74857298D01*
X150399503Y-74781936D01*
X150603626Y-74671470D01*
X150786784Y-74528913D01*
X150943979Y-74358153D01*
X151014217Y-74250644D01*
X151055432Y-74211425D01*
X151109828Y-74194739D01*
X151165949Y-74204104D01*
X151211980Y-74237547D01*
X151238229Y-74288027D01*
X151280842Y-74456297D01*
X151280843Y-74456300D01*
X151374076Y-74668849D01*
X151501021Y-74863153D01*
X151658216Y-75033913D01*
X151841374Y-75176470D01*
X152045497Y-75286936D01*
X152155258Y-75324617D01*
X152265015Y-75362297D01*
X152265017Y-75362297D01*
X152265019Y-75362298D01*
X152493951Y-75400500D01*
X152726048Y-75400500D01*
X152726049Y-75400500D01*
X152954981Y-75362298D01*
X153174503Y-75286936D01*
X153378626Y-75176470D01*
X153561784Y-75033913D01*
X153718979Y-74863153D01*
X153845924Y-74668849D01*
X153939157Y-74456300D01*
X153939649Y-74454355D01*
X153941230Y-74451572D01*
X153943284Y-74446891D01*
X153943769Y-74447103D01*
X153972172Y-74397114D01*
X154029414Y-74364589D01*
X154095236Y-74365949D01*
X154151084Y-74400810D01*
X154278216Y-74538913D01*
X154461374Y-74681470D01*
X154665497Y-74791936D01*
X154775258Y-74829617D01*
X154885015Y-74867297D01*
X154885017Y-74867297D01*
X154885019Y-74867298D01*
X155113951Y-74905500D01*
X155346048Y-74905500D01*
X155346049Y-74905500D01*
X155574981Y-74867298D01*
X155794503Y-74791936D01*
X155998626Y-74681470D01*
X156181784Y-74538913D01*
X156338979Y-74368153D01*
X156465924Y-74173849D01*
X156559157Y-73961300D01*
X156616134Y-73736305D01*
X156635300Y-73505000D01*
X156616134Y-73273695D01*
X156559157Y-73048700D01*
X156465924Y-72836151D01*
X156338979Y-72641847D01*
X156181784Y-72471087D01*
X155998626Y-72328530D01*
X155794503Y-72218064D01*
X155794499Y-72218062D01*
X155794498Y-72218062D01*
X155574984Y-72142702D01*
X155403282Y-72114050D01*
X155346049Y-72104500D01*
X155113951Y-72104500D01*
X155068164Y-72112140D01*
X154885015Y-72142702D01*
X154665501Y-72218062D01*
X154461372Y-72328531D01*
X154278215Y-72471087D01*
X154121020Y-72641848D01*
X153994076Y-72836150D01*
X153900840Y-73048705D01*
X153900347Y-73050655D01*
X153898763Y-73053442D01*
X153896716Y-73058109D01*
X153896231Y-73057896D01*
X153867820Y-73107891D01*
X153810579Y-73140412D01*
X153744760Y-73139049D01*
X153688914Y-73104188D01*
X153642199Y-73053442D01*
X153561784Y-72966087D01*
X153378626Y-72823530D01*
X153174503Y-72713064D01*
X153174499Y-72713062D01*
X153174498Y-72713062D01*
X152954984Y-72637702D01*
X152783282Y-72609050D01*
X152726049Y-72599500D01*
X152493951Y-72599500D01*
X152448164Y-72607140D01*
X152265015Y-72637702D01*
X152045501Y-72713062D01*
X151841372Y-72823531D01*
X151658215Y-72966087D01*
X151501018Y-73136849D01*
X151430783Y-73244353D01*
X151389566Y-73283575D01*
X151335170Y-73300260D01*
X151279049Y-73290895D01*
X151233018Y-73257452D01*
X151206770Y-73206974D01*
X151164157Y-73038700D01*
X151070924Y-72826151D01*
X150943979Y-72631847D01*
X150786784Y-72461087D01*
X150603626Y-72318530D01*
X150399503Y-72208064D01*
X150399499Y-72208062D01*
X150399498Y-72208062D01*
X150179984Y-72132702D01*
X150008281Y-72104050D01*
X149951049Y-72094500D01*
X149718951Y-72094500D01*
X149673164Y-72102140D01*
X149490015Y-72132702D01*
X149270501Y-72208062D01*
X149270497Y-72208063D01*
X149270497Y-72208064D01*
X149066374Y-72318530D01*
X149066371Y-72318531D01*
X149057339Y-72323420D01*
X149056019Y-72320982D01*
X149016773Y-72338194D01*
X148956106Y-72333165D01*
X148779984Y-72272702D01*
X148608282Y-72244050D01*
X148551049Y-72234500D01*
X148318951Y-72234500D01*
X148273164Y-72242140D01*
X148090015Y-72272702D01*
X147870501Y-72348062D01*
X147666372Y-72458531D01*
X147483215Y-72601087D01*
X147326020Y-72771848D01*
X147199076Y-72966150D01*
X147105844Y-73178696D01*
X147105842Y-73178700D01*
X147105843Y-73178700D01*
X147098684Y-73206972D01*
X147048865Y-73403700D01*
X147029699Y-73635000D01*
X142448244Y-73635000D01*
X142441134Y-73549195D01*
X142384157Y-73324200D01*
X142290924Y-73111651D01*
X142163979Y-72917347D01*
X142006784Y-72746587D01*
X141823626Y-72604030D01*
X141619503Y-72493564D01*
X141619499Y-72493562D01*
X141619498Y-72493562D01*
X141399984Y-72418202D01*
X141228281Y-72389550D01*
X141171049Y-72380000D01*
X140938951Y-72380000D01*
X140893164Y-72387640D01*
X140710015Y-72418202D01*
X140490501Y-72493562D01*
X140286372Y-72604031D01*
X140103215Y-72746587D01*
X139946020Y-72917348D01*
X139819076Y-73111650D01*
X139725844Y-73324196D01*
X139668865Y-73549200D01*
X139649699Y-73780500D01*
X108835500Y-73780500D01*
X108835500Y-71504798D01*
X156849498Y-71504798D01*
X156868664Y-71736098D01*
X156868664Y-71736100D01*
X156868665Y-71736104D01*
X156925642Y-71961099D01*
X157018875Y-72173648D01*
X157145820Y-72367952D01*
X157303015Y-72538712D01*
X157486173Y-72681269D01*
X157690296Y-72791735D01*
X157790546Y-72826151D01*
X157909814Y-72867096D01*
X157909816Y-72867096D01*
X157909818Y-72867097D01*
X158138750Y-72905299D01*
X158370847Y-72905299D01*
X158370848Y-72905299D01*
X158599780Y-72867097D01*
X158819302Y-72791735D01*
X159023425Y-72681269D01*
X159206583Y-72538712D01*
X159363778Y-72367952D01*
X159490723Y-72173648D01*
X159583956Y-71961099D01*
X159640933Y-71736104D01*
X159660099Y-71504799D01*
X159640933Y-71273494D01*
X159583956Y-71048499D01*
X159490723Y-70835950D01*
X159363778Y-70641646D01*
X159206583Y-70470886D01*
X159023425Y-70328329D01*
X158819302Y-70217863D01*
X158819298Y-70217861D01*
X158819297Y-70217861D01*
X158599783Y-70142501D01*
X158428081Y-70113849D01*
X158370848Y-70104299D01*
X158138750Y-70104299D01*
X158092963Y-70111939D01*
X157909814Y-70142501D01*
X157690300Y-70217861D01*
X157486171Y-70328330D01*
X157303014Y-70470886D01*
X157145819Y-70641647D01*
X157018875Y-70835949D01*
X156925643Y-71048495D01*
X156868664Y-71273499D01*
X156849498Y-71504798D01*
X108835500Y-71504798D01*
X108835500Y-63719999D01*
X109429699Y-63719999D01*
X109448865Y-63951299D01*
X109448865Y-63951301D01*
X109448866Y-63951305D01*
X109505843Y-64176300D01*
X109505844Y-64176304D01*
X109508366Y-64186260D01*
X109507719Y-64186423D01*
X109514236Y-64212158D01*
X109510866Y-64252840D01*
X109468865Y-64418699D01*
X109449699Y-64649999D01*
X109468865Y-64881299D01*
X109468865Y-64881301D01*
X109468866Y-64881305D01*
X109525843Y-65106300D01*
X109525844Y-65106303D01*
X109610808Y-65299999D01*
X109619076Y-65318849D01*
X109746021Y-65513153D01*
X109903216Y-65683913D01*
X110086374Y-65826470D01*
X110290497Y-65936936D01*
X110400258Y-65974617D01*
X110510015Y-66012297D01*
X110510017Y-66012297D01*
X110510019Y-66012298D01*
X110738951Y-66050500D01*
X110971048Y-66050500D01*
X110971049Y-66050500D01*
X111199981Y-66012298D01*
X111229113Y-66002297D01*
X111429222Y-65933600D01*
X111430079Y-65936098D01*
X111458537Y-65927337D01*
X111509809Y-65933566D01*
X111710015Y-66002297D01*
X111710017Y-66002297D01*
X111710019Y-66002298D01*
X111938951Y-66040500D01*
X112171048Y-66040500D01*
X112171049Y-66040500D01*
X112399981Y-66002298D01*
X112619503Y-65926936D01*
X112823626Y-65816470D01*
X113006784Y-65673913D01*
X113163979Y-65503153D01*
X113280373Y-65324999D01*
X144529699Y-65324999D01*
X144548865Y-65556299D01*
X144548865Y-65556301D01*
X144548866Y-65556305D01*
X144578649Y-65673913D01*
X144605844Y-65781303D01*
X144674112Y-65936937D01*
X144699076Y-65993849D01*
X144826021Y-66188153D01*
X144983216Y-66358913D01*
X145166374Y-66501470D01*
X145370497Y-66611936D01*
X145480258Y-66649617D01*
X145590015Y-66687297D01*
X145590017Y-66687297D01*
X145590019Y-66687298D01*
X145818951Y-66725500D01*
X146051048Y-66725500D01*
X146051049Y-66725500D01*
X146279981Y-66687298D01*
X146499503Y-66611936D01*
X146703626Y-66501470D01*
X146886784Y-66358913D01*
X147043979Y-66188153D01*
X147170924Y-65993849D01*
X147264157Y-65781300D01*
X147321134Y-65556305D01*
X147340300Y-65325000D01*
X147338228Y-65300000D01*
X147338228Y-65299999D01*
X152244699Y-65299999D01*
X152263865Y-65531299D01*
X152263865Y-65531301D01*
X152263866Y-65531305D01*
X152299980Y-65673913D01*
X152320844Y-65756303D01*
X152389458Y-65912725D01*
X152414076Y-65968849D01*
X152541021Y-66163153D01*
X152698216Y-66333913D01*
X152881374Y-66476470D01*
X153085497Y-66586936D01*
X153195258Y-66624617D01*
X153305015Y-66662297D01*
X153305017Y-66662297D01*
X153305019Y-66662298D01*
X153533951Y-66700500D01*
X153766048Y-66700500D01*
X153766049Y-66700500D01*
X153994981Y-66662298D01*
X154214503Y-66586936D01*
X154418626Y-66476470D01*
X154601784Y-66333913D01*
X154758979Y-66163153D01*
X154885924Y-65968849D01*
X154979157Y-65756300D01*
X155036134Y-65531305D01*
X155055300Y-65300000D01*
X155036134Y-65068695D01*
X154979157Y-64843700D01*
X154885924Y-64631151D01*
X154758979Y-64436847D01*
X154601784Y-64266087D01*
X154418626Y-64123530D01*
X154214503Y-64013064D01*
X154214499Y-64013062D01*
X154214498Y-64013062D01*
X153994984Y-63937702D01*
X153823282Y-63909050D01*
X153766049Y-63899500D01*
X153533951Y-63899500D01*
X153488164Y-63907140D01*
X153305015Y-63937702D01*
X153085501Y-64013062D01*
X152881372Y-64123531D01*
X152698215Y-64266087D01*
X152541020Y-64436848D01*
X152414076Y-64631150D01*
X152320844Y-64843696D01*
X152320842Y-64843700D01*
X152320843Y-64843700D01*
X152309300Y-64889284D01*
X152263865Y-65068700D01*
X152244699Y-65299999D01*
X147338228Y-65299999D01*
X147332849Y-65235082D01*
X147321134Y-65093695D01*
X147264157Y-64868700D01*
X147170924Y-64656151D01*
X147043979Y-64461847D01*
X146886784Y-64291087D01*
X146703626Y-64148530D01*
X146499503Y-64038064D01*
X146499499Y-64038062D01*
X146499498Y-64038062D01*
X146279984Y-63962702D01*
X146108281Y-63934050D01*
X146051049Y-63924500D01*
X145818951Y-63924500D01*
X145773164Y-63932140D01*
X145590015Y-63962702D01*
X145370501Y-64038062D01*
X145166372Y-64148531D01*
X144983215Y-64291087D01*
X144826020Y-64461848D01*
X144699076Y-64656150D01*
X144605844Y-64868696D01*
X144548865Y-65093700D01*
X144529699Y-65324999D01*
X113280373Y-65324999D01*
X113290924Y-65308849D01*
X113384157Y-65096300D01*
X113441134Y-64871305D01*
X113460300Y-64640000D01*
X113441134Y-64408695D01*
X113384157Y-64183700D01*
X113384156Y-64183698D01*
X113381634Y-64173738D01*
X113382280Y-64173574D01*
X113375762Y-64147843D01*
X113379132Y-64107161D01*
X113421134Y-63941305D01*
X113440300Y-63710000D01*
X113421134Y-63478695D01*
X113385993Y-63339927D01*
X113385993Y-63279050D01*
X113441134Y-63061305D01*
X113460300Y-62830000D01*
X113441134Y-62598695D01*
X113396650Y-62423033D01*
X146994500Y-62423033D01*
X147003966Y-62529508D01*
X147005114Y-62542418D01*
X147021217Y-62598695D01*
X147061091Y-62738050D01*
X147155301Y-62918406D01*
X147155302Y-62918407D01*
X147283891Y-63076109D01*
X147441593Y-63204698D01*
X147621951Y-63298909D01*
X147817582Y-63354886D01*
X147936963Y-63365500D01*
X152053036Y-63365499D01*
X152172418Y-63354886D01*
X152368049Y-63298909D01*
X152548407Y-63204698D01*
X152706109Y-63076109D01*
X152834698Y-62918407D01*
X152928909Y-62738049D01*
X152984886Y-62542418D01*
X152995500Y-62423037D01*
X152995500Y-61369999D01*
X163504772Y-61369999D01*
X163523657Y-61634027D01*
X163579921Y-61892673D01*
X163579923Y-61892678D01*
X163672426Y-62140689D01*
X163672428Y-62140692D01*
X163799282Y-62373009D01*
X163836730Y-62423033D01*
X163957913Y-62584915D01*
X164145085Y-62772087D01*
X164287502Y-62878699D01*
X164287504Y-62878700D01*
X164326659Y-62927951D01*
X164336601Y-62990080D01*
X164314769Y-63049090D01*
X164186400Y-63232420D01*
X164086569Y-63446507D01*
X164029364Y-63659999D01*
X164029364Y-63660000D01*
X166690636Y-63660000D01*
X166690635Y-63659999D01*
X166633430Y-63446507D01*
X166533599Y-63232421D01*
X166405230Y-63049090D01*
X166383398Y-62990080D01*
X166393340Y-62927951D01*
X166432490Y-62878704D01*
X166574915Y-62772087D01*
X166762087Y-62584915D01*
X166920716Y-62373011D01*
X167047574Y-62140689D01*
X167140077Y-61892678D01*
X167196343Y-61634026D01*
X167215227Y-61370000D01*
X167196343Y-61105974D01*
X167140077Y-60847322D01*
X167047574Y-60599311D01*
X166968717Y-60454896D01*
X166954234Y-60408487D01*
X166958707Y-60360077D01*
X166981448Y-60317108D01*
X167049698Y-60233407D01*
X167143909Y-60053049D01*
X167199886Y-59857418D01*
X167210500Y-59738037D01*
X167210499Y-57921964D01*
X167199886Y-57802582D01*
X167143909Y-57606951D01*
X167049698Y-57426593D01*
X166921109Y-57268891D01*
X166763407Y-57140302D01*
X166763406Y-57140301D01*
X166583050Y-57046091D01*
X166485233Y-57018102D01*
X166387418Y-56990114D01*
X166268037Y-56979500D01*
X166268033Y-56979500D01*
X164451966Y-56979500D01*
X164332582Y-56990114D01*
X164136949Y-57046091D01*
X163956593Y-57140301D01*
X163798891Y-57268891D01*
X163670301Y-57426593D01*
X163576091Y-57606949D01*
X163520114Y-57802582D01*
X163509500Y-57921966D01*
X163509500Y-59738033D01*
X163520114Y-59857417D01*
X163576090Y-60053048D01*
X163576091Y-60053049D01*
X163670302Y-60233407D01*
X163738553Y-60317110D01*
X163761292Y-60360078D01*
X163765765Y-60408487D01*
X163751282Y-60454896D01*
X163672425Y-60599310D01*
X163579922Y-60847323D01*
X163523657Y-61105972D01*
X163504772Y-61369999D01*
X152995500Y-61369999D01*
X152995499Y-58306964D01*
X152984886Y-58187582D01*
X152928909Y-57991951D01*
X152834698Y-57811593D01*
X152706109Y-57653891D01*
X152548407Y-57525302D01*
X152548406Y-57525301D01*
X152368050Y-57431091D01*
X152270233Y-57403102D01*
X152172418Y-57375114D01*
X152053037Y-57364500D01*
X152053033Y-57364500D01*
X147936966Y-57364500D01*
X147817582Y-57375114D01*
X147621949Y-57431091D01*
X147441593Y-57525301D01*
X147283891Y-57653891D01*
X147155301Y-57811593D01*
X147061091Y-57991949D01*
X147005114Y-58187582D01*
X146994500Y-58306966D01*
X146994500Y-62423033D01*
X113396650Y-62423033D01*
X113384157Y-62373700D01*
X113290924Y-62161151D01*
X113163979Y-61966847D01*
X113006784Y-61796087D01*
X112823626Y-61653530D01*
X112619503Y-61543064D01*
X112619499Y-61543062D01*
X112619498Y-61543062D01*
X112399984Y-61467702D01*
X112228281Y-61439050D01*
X112171049Y-61429500D01*
X111938951Y-61429500D01*
X111893164Y-61437140D01*
X111710015Y-61467702D01*
X111480780Y-61546400D01*
X111480007Y-61544150D01*
X111449858Y-61552795D01*
X111400191Y-61546433D01*
X111199984Y-61477702D01*
X111028281Y-61449050D01*
X110971049Y-61439500D01*
X110738951Y-61439500D01*
X110693164Y-61447140D01*
X110510015Y-61477702D01*
X110290501Y-61553062D01*
X110290497Y-61553063D01*
X110290497Y-61553064D01*
X110154414Y-61626708D01*
X110086372Y-61663531D01*
X109903215Y-61806087D01*
X109746020Y-61976848D01*
X109619076Y-62171150D01*
X109525844Y-62383696D01*
X109525842Y-62383700D01*
X109525843Y-62383700D01*
X109471399Y-62598695D01*
X109468865Y-62608700D01*
X109449699Y-62839999D01*
X109468865Y-63071301D01*
X109504006Y-63210073D01*
X109504006Y-63270952D01*
X109448865Y-63488699D01*
X109429699Y-63719999D01*
X108835500Y-63719999D01*
X108835500Y-53122764D01*
X113010787Y-53122764D01*
X113040413Y-53392016D01*
X113108928Y-53654087D01*
X113214871Y-53903392D01*
X113355982Y-54134611D01*
X113528669Y-54342116D01*
X113529255Y-54342820D01*
X113730998Y-54523582D01*
X113956910Y-54673044D01*
X114063211Y-54722875D01*
X114202177Y-54788021D01*
X114461562Y-54866058D01*
X114461569Y-54866060D01*
X114729561Y-54905500D01*
X114932631Y-54905500D01*
X114932634Y-54905500D01*
X115135156Y-54890677D01*
X115135155Y-54890677D01*
X115399553Y-54831780D01*
X115652558Y-54735014D01*
X115888777Y-54602441D01*
X116103177Y-54436888D01*
X116291186Y-54241881D01*
X116448799Y-54021579D01*
X116572656Y-53780675D01*
X116660118Y-53524305D01*
X116689543Y-53364999D01*
X142739472Y-53364999D01*
X142749109Y-53524304D01*
X142759564Y-53697142D01*
X142806191Y-53951579D01*
X142819545Y-54024446D01*
X142918534Y-54342116D01*
X142918536Y-54342121D01*
X142918537Y-54342123D01*
X143035697Y-54602440D01*
X143055102Y-54645557D01*
X143227245Y-54930318D01*
X143289446Y-55009711D01*
X143432458Y-55192252D01*
X143667748Y-55427542D01*
X143786485Y-55520566D01*
X143929681Y-55632754D01*
X144101824Y-55736818D01*
X144214443Y-55804898D01*
X144517877Y-55941463D01*
X144835559Y-56040456D01*
X145162858Y-56100436D01*
X145495000Y-56120527D01*
X145827142Y-56100436D01*
X146092026Y-56051894D01*
X148661658Y-56051894D01*
X148752244Y-56125593D01*
X149003548Y-56278413D01*
X149273323Y-56395593D01*
X149556549Y-56474950D01*
X149847936Y-56515000D01*
X150142064Y-56515000D01*
X150433450Y-56474950D01*
X150716676Y-56395593D01*
X150986451Y-56278413D01*
X151237760Y-56125590D01*
X151328340Y-56051895D01*
X151328341Y-56051894D01*
X149995001Y-54718553D01*
X149995000Y-54718553D01*
X148661658Y-56051894D01*
X146092026Y-56051894D01*
X146154441Y-56040456D01*
X146472123Y-55941463D01*
X146775557Y-55804898D01*
X147060318Y-55632754D01*
X147322252Y-55427542D01*
X147557542Y-55192252D01*
X147727933Y-54974762D01*
X147780432Y-54935734D01*
X147845487Y-54928851D01*
X147904991Y-54956032D01*
X147942383Y-55009711D01*
X148018387Y-55223562D01*
X148153705Y-55484716D01*
X148305991Y-55700453D01*
X149641446Y-54365001D01*
X150348553Y-54365001D01*
X151684007Y-55700453D01*
X151836293Y-55484715D01*
X151971613Y-55223560D01*
X152047616Y-55009712D01*
X152085007Y-54956033D01*
X152144511Y-54928851D01*
X152209567Y-54935734D01*
X152262067Y-54974764D01*
X152432458Y-55192252D01*
X152667748Y-55427542D01*
X152786485Y-55520566D01*
X152929681Y-55632754D01*
X153101824Y-55736818D01*
X153214443Y-55804898D01*
X153517877Y-55941463D01*
X153835559Y-56040456D01*
X154162858Y-56100436D01*
X154495000Y-56120527D01*
X154827142Y-56100436D01*
X155154441Y-56040456D01*
X155472123Y-55941463D01*
X155775557Y-55804898D01*
X156060318Y-55632754D01*
X156322252Y-55427542D01*
X156557542Y-55192252D01*
X156762754Y-54930318D01*
X156934898Y-54645557D01*
X157071463Y-54342123D01*
X157170456Y-54024441D01*
X157230436Y-53697142D01*
X157250527Y-53365000D01*
X157231640Y-53052764D01*
X160800787Y-53052764D01*
X160830413Y-53322016D01*
X160841651Y-53365000D01*
X160898928Y-53584088D01*
X160982469Y-53780675D01*
X161004871Y-53833392D01*
X161145982Y-54064611D01*
X161293507Y-54241881D01*
X161319255Y-54272820D01*
X161520998Y-54453582D01*
X161746910Y-54603044D01*
X161853211Y-54652875D01*
X161992177Y-54718021D01*
X162251562Y-54796058D01*
X162251569Y-54796060D01*
X162519561Y-54835500D01*
X162722631Y-54835500D01*
X162722634Y-54835500D01*
X162925156Y-54820677D01*
X162925155Y-54820677D01*
X163189553Y-54761780D01*
X163442558Y-54665014D01*
X163678777Y-54532441D01*
X163893177Y-54366888D01*
X164081186Y-54171881D01*
X164238799Y-53951579D01*
X164362656Y-53710675D01*
X164450118Y-53454305D01*
X164499319Y-53187933D01*
X164509212Y-52917235D01*
X164479586Y-52647982D01*
X164411072Y-52385912D01*
X164305130Y-52136610D01*
X164164018Y-51905390D01*
X164164017Y-51905388D01*
X163990746Y-51697181D01*
X163906768Y-51621937D01*
X163789002Y-51516418D01*
X163563090Y-51366956D01*
X163563086Y-51366954D01*
X163317822Y-51251978D01*
X163058437Y-51173941D01*
X163058431Y-51173940D01*
X162790439Y-51134500D01*
X162587369Y-51134500D01*
X162587366Y-51134500D01*
X162384843Y-51149322D01*
X162120449Y-51208219D01*
X161867441Y-51304986D01*
X161631223Y-51437559D01*
X161416825Y-51603109D01*
X161228813Y-51798120D01*
X161071201Y-52018420D01*
X160947342Y-52259329D01*
X160859881Y-52515695D01*
X160810680Y-52782066D01*
X160800787Y-53052764D01*
X157231640Y-53052764D01*
X157230436Y-53032858D01*
X157170456Y-52705559D01*
X157071463Y-52387877D01*
X156934898Y-52084443D01*
X156826657Y-51905390D01*
X156762754Y-51799681D01*
X156595672Y-51586418D01*
X156557542Y-51537748D01*
X156322252Y-51302458D01*
X156197218Y-51204500D01*
X156060318Y-51097245D01*
X155775557Y-50925102D01*
X155775556Y-50925101D01*
X155472123Y-50788537D01*
X155472121Y-50788536D01*
X155472116Y-50788534D01*
X155154446Y-50689545D01*
X154827142Y-50629564D01*
X154495000Y-50609472D01*
X154162857Y-50629564D01*
X153835553Y-50689545D01*
X153517883Y-50788534D01*
X153214442Y-50925102D01*
X152929681Y-51097245D01*
X152667745Y-51302460D01*
X152432460Y-51537745D01*
X152227245Y-51799681D01*
X152055102Y-52084442D01*
X151918534Y-52387883D01*
X151819545Y-52705553D01*
X151779300Y-52925161D01*
X151754303Y-52980091D01*
X151706335Y-53016715D01*
X151695003Y-53018549D01*
X150348553Y-54365000D01*
X150348553Y-54365001D01*
X149641446Y-54365001D01*
X149641446Y-54365000D01*
X148294995Y-53018549D01*
X148283664Y-53016715D01*
X148235696Y-52980091D01*
X148210699Y-52925161D01*
X148170456Y-52705559D01*
X148161901Y-52678104D01*
X148661657Y-52678104D01*
X149995000Y-54011446D01*
X149995001Y-54011446D01*
X151328341Y-52678104D01*
X151237755Y-52604406D01*
X150986451Y-52451586D01*
X150741301Y-52345102D01*
X150691979Y-52306398D01*
X150667894Y-52248514D01*
X150675204Y-52186246D01*
X150712040Y-52135513D01*
X150741411Y-52111409D01*
X150763542Y-52084442D01*
X150872685Y-51951450D01*
X150970232Y-51768954D01*
X151030300Y-51570934D01*
X151050583Y-51365000D01*
X151030300Y-51159066D01*
X150970232Y-50961046D01*
X150872685Y-50778550D01*
X150799640Y-50689544D01*
X150741410Y-50618589D01*
X150643952Y-50538608D01*
X150581450Y-50487315D01*
X150398954Y-50389768D01*
X150299943Y-50359733D01*
X150200932Y-50329699D01*
X150063467Y-50316160D01*
X150046608Y-50314500D01*
X149943392Y-50314500D01*
X149928193Y-50315996D01*
X149789067Y-50329699D01*
X149591043Y-50389769D01*
X149408551Y-50487314D01*
X149248589Y-50618589D01*
X149117314Y-50778551D01*
X149019769Y-50961043D01*
X148959699Y-51159067D01*
X148939417Y-51365000D01*
X148959699Y-51570932D01*
X148959700Y-51570934D01*
X149019768Y-51768954D01*
X149117315Y-51951450D01*
X149136962Y-51975390D01*
X149248589Y-52111410D01*
X149277960Y-52135514D01*
X149314795Y-52186247D01*
X149322105Y-52248514D01*
X149298020Y-52306398D01*
X149248698Y-52345102D01*
X149003548Y-52451586D01*
X148752241Y-52604409D01*
X148661657Y-52678104D01*
X148161901Y-52678104D01*
X148152514Y-52647982D01*
X148071465Y-52387883D01*
X148071464Y-52387882D01*
X148071463Y-52387877D01*
X147934898Y-52084443D01*
X147826657Y-51905390D01*
X147762754Y-51799681D01*
X147595672Y-51586418D01*
X147557542Y-51537748D01*
X147322252Y-51302458D01*
X147197218Y-51204500D01*
X147060318Y-51097245D01*
X146775557Y-50925102D01*
X146775556Y-50925101D01*
X146472123Y-50788537D01*
X146472121Y-50788536D01*
X146472116Y-50788534D01*
X146154446Y-50689545D01*
X145827142Y-50629564D01*
X145495000Y-50609472D01*
X145162857Y-50629564D01*
X144835553Y-50689545D01*
X144517883Y-50788534D01*
X144214442Y-50925102D01*
X143929681Y-51097245D01*
X143667745Y-51302460D01*
X143432460Y-51537745D01*
X143227245Y-51799681D01*
X143055102Y-52084442D01*
X142918534Y-52387883D01*
X142819545Y-52705553D01*
X142759564Y-53032857D01*
X142739472Y-53364999D01*
X116689543Y-53364999D01*
X116709319Y-53257933D01*
X116719212Y-52987235D01*
X116689586Y-52717982D01*
X116621072Y-52455912D01*
X116515130Y-52206610D01*
X116374018Y-51975390D01*
X116374017Y-51975388D01*
X116200746Y-51767181D01*
X116095758Y-51673112D01*
X115999002Y-51586418D01*
X115773090Y-51436956D01*
X115773086Y-51436954D01*
X115527822Y-51321978D01*
X115268437Y-51243941D01*
X115268431Y-51243940D01*
X115000439Y-51204500D01*
X114797369Y-51204500D01*
X114797366Y-51204500D01*
X114594843Y-51219322D01*
X114330449Y-51278219D01*
X114077441Y-51374986D01*
X113841223Y-51507559D01*
X113626825Y-51673109D01*
X113438813Y-51868120D01*
X113281201Y-52088420D01*
X113157342Y-52329329D01*
X113069881Y-52585695D01*
X113020680Y-52852066D01*
X113010787Y-53122764D01*
X108835500Y-53122764D01*
X108835500Y-50334999D01*
X124509699Y-50334999D01*
X124528865Y-50566299D01*
X124528865Y-50566301D01*
X124528866Y-50566305D01*
X124585843Y-50791300D01*
X124679076Y-51003849D01*
X124806021Y-51198153D01*
X124963216Y-51368913D01*
X125146374Y-51511470D01*
X125350497Y-51621936D01*
X125460258Y-51659617D01*
X125570015Y-51697297D01*
X125570017Y-51697297D01*
X125570019Y-51697298D01*
X125798951Y-51735500D01*
X126031048Y-51735500D01*
X126031049Y-51735500D01*
X126259981Y-51697298D01*
X126479503Y-51621936D01*
X126683626Y-51511470D01*
X126866784Y-51368913D01*
X127023979Y-51198153D01*
X127150924Y-51003849D01*
X127244157Y-50791300D01*
X127301134Y-50566305D01*
X127320300Y-50335000D01*
X127301134Y-50103695D01*
X127244157Y-49878700D01*
X127150924Y-49666151D01*
X127023979Y-49471847D01*
X126866784Y-49301087D01*
X126683626Y-49158530D01*
X126479503Y-49048064D01*
X126479499Y-49048062D01*
X126479498Y-49048062D01*
X126259984Y-48972702D01*
X126088282Y-48944050D01*
X126031049Y-48934500D01*
X125798951Y-48934500D01*
X125753164Y-48942140D01*
X125570015Y-48972702D01*
X125350501Y-49048062D01*
X125146372Y-49158531D01*
X124963215Y-49301087D01*
X124806020Y-49471848D01*
X124679076Y-49666150D01*
X124585844Y-49878696D01*
X124528865Y-50103700D01*
X124509699Y-50334999D01*
X108835500Y-50334999D01*
X108835500Y-47569688D01*
X108852144Y-47507634D01*
X108897608Y-47462239D01*
X108959686Y-47445688D01*
X168420648Y-47535312D01*
G37*
%TD.AperFunction*%
%TD*%
M02*
