%TF.GenerationSoftware,KiCad,Pcbnew,(7.0.0)*%
%TF.CreationDate,2023-08-10T01:03:11-05:00*%
%TF.ProjectId,Power_Supply,506f7765-725f-4537-9570-706c792e6b69,1*%
%TF.SameCoordinates,Original*%
%TF.FileFunction,Soldermask,Bot*%
%TF.FilePolarity,Negative*%
%FSLAX46Y46*%
G04 Gerber Fmt 4.6, Leading zero omitted, Abs format (unit mm)*
G04 Created by KiCad (PCBNEW (7.0.0)) date 2023-08-10 01:03:11*
%MOMM*%
%LPD*%
G01*
G04 APERTURE LIST*
%ADD10C,3.200000*%
%ADD11R,1.700000X1.700000*%
%ADD12O,1.700000X1.700000*%
%ADD13C,1.600000*%
%ADD14R,4.000000X4.000000*%
%ADD15C,3.300000*%
%ADD16C,3.500000*%
%ADD17C,2.600000*%
%ADD18C,2.000000*%
G04 APERTURE END LIST*
D10*
%TO.C,H3*%
X111750000Y-92250000D03*
%TD*%
%TO.C,H1*%
X112000000Y-52000000D03*
%TD*%
D11*
%TO.C,J10*%
X113454999Y-108444999D03*
D12*
X113454999Y-105904999D03*
X115994999Y-108444999D03*
X115994999Y-105904999D03*
%TD*%
D13*
%TO.C,J1*%
X148500000Y-51250000D03*
D14*
X148499999Y-60249999D03*
D15*
X148500000Y-54250000D03*
D16*
X153000000Y-53250000D03*
X144000000Y-53250000D03*
%TD*%
D10*
%TO.C,H4*%
X162750000Y-92250000D03*
%TD*%
D11*
%TO.C,J3*%
X109749999Y-59249999D03*
D12*
X109749999Y-61789999D03*
X109749999Y-64329999D03*
X109749999Y-66869999D03*
%TD*%
D17*
%TO.C,H5*%
X111000000Y-100000000D03*
%TD*%
D18*
%TO.C,SW1*%
X129000000Y-102000000D03*
X122500000Y-102000000D03*
X129000000Y-97500000D03*
X122500000Y-97500000D03*
%TD*%
%TO.C,SW3*%
X134750000Y-97250000D03*
X141250000Y-97250000D03*
X134750000Y-101750000D03*
X141250000Y-101750000D03*
%TD*%
%TO.C,SW2*%
X147250000Y-97500000D03*
X153750000Y-97500000D03*
X147250000Y-102000000D03*
X153750000Y-102000000D03*
%TD*%
D17*
%TO.C,H6*%
X116250000Y-100000000D03*
%TD*%
D11*
%TO.C,J4*%
X127869999Y-57749999D03*
D12*
X125329999Y-57749999D03*
X122789999Y-57749999D03*
X120249999Y-57749999D03*
X117709999Y-57749999D03*
%TD*%
D11*
%TO.C,J5*%
X158199999Y-108709999D03*
D12*
X158199999Y-106169999D03*
X160739999Y-108709999D03*
X160739999Y-106169999D03*
%TD*%
D10*
%TO.C,H2*%
X162500000Y-51750000D03*
%TD*%
M02*
