%TF.GenerationSoftware,KiCad,Pcbnew,(7.0.0)*%
%TF.CreationDate,2023-08-10T01:03:10-05:00*%
%TF.ProjectId,Power_Supply,506f7765-725f-4537-9570-706c792e6b69,1*%
%TF.SameCoordinates,Original*%
%TF.FileFunction,Copper,L2,Inr*%
%TF.FilePolarity,Positive*%
%FSLAX46Y46*%
G04 Gerber Fmt 4.6, Leading zero omitted, Abs format (unit mm)*
G04 Created by KiCad (PCBNEW (7.0.0)) date 2023-08-10 01:03:10*
%MOMM*%
%LPD*%
G01*
G04 APERTURE LIST*
%TA.AperFunction,ComponentPad*%
%ADD10R,1.700000X1.700000*%
%TD*%
%TA.AperFunction,ComponentPad*%
%ADD11O,1.700000X1.700000*%
%TD*%
%TA.AperFunction,ComponentPad*%
%ADD12R,4.000000X4.000000*%
%TD*%
%TA.AperFunction,ComponentPad*%
%ADD13C,3.300000*%
%TD*%
%TA.AperFunction,ComponentPad*%
%ADD14C,3.500000*%
%TD*%
%TA.AperFunction,ComponentPad*%
%ADD15C,2.600000*%
%TD*%
%TA.AperFunction,ComponentPad*%
%ADD16C,2.000000*%
%TD*%
%TA.AperFunction,ViaPad*%
%ADD17C,0.800000*%
%TD*%
%TA.AperFunction,Conductor*%
%ADD18C,0.500000*%
%TD*%
%TA.AperFunction,Conductor*%
%ADD19C,0.090000*%
%TD*%
G04 APERTURE END LIST*
D10*
%TO.N,ADC*%
%TO.C,J10*%
X113454999Y-108444999D03*
D11*
X113454999Y-105904999D03*
%TO.N,GND*%
X115994999Y-108444999D03*
X115994999Y-105904999D03*
%TD*%
D12*
%TO.N,/MCU_POWER/JACK_OUT*%
%TO.C,J1*%
X148499999Y-60249999D03*
D13*
%TO.N,GND*%
X148500000Y-54250000D03*
D14*
%TO.N,N/C*%
X153000000Y-53250000D03*
X144000000Y-53250000D03*
%TD*%
D10*
%TO.N,+3.3V*%
%TO.C,J3*%
X109749999Y-59249999D03*
D11*
%TO.N,SCL*%
X109749999Y-61789999D03*
%TO.N,SDA*%
X109749999Y-64329999D03*
%TO.N,GND*%
X109749999Y-66869999D03*
%TD*%
D15*
%TO.N,ADC*%
%TO.C,H5*%
X111000000Y-100000000D03*
%TD*%
D16*
%TO.N,GND*%
%TO.C,SW1*%
X129000000Y-102000000D03*
X122500000Y-102000000D03*
%TO.N,/NRST*%
X129000000Y-97500000D03*
X122500000Y-97500000D03*
%TD*%
%TO.N,POT_BTN_DWN*%
%TO.C,SW3*%
X134750000Y-97250000D03*
X141250000Y-97250000D03*
%TO.N,GND*%
X134750000Y-101750000D03*
X141250000Y-101750000D03*
%TD*%
%TO.N,POT_BTN_UP*%
%TO.C,SW2*%
X147250000Y-97500000D03*
X153750000Y-97500000D03*
%TO.N,GND*%
X147250000Y-102000000D03*
X153750000Y-102000000D03*
%TD*%
D15*
%TO.N,GND*%
%TO.C,H6*%
X116250000Y-100000000D03*
%TD*%
D10*
%TO.N,+3.3V*%
%TO.C,J4*%
X127869999Y-57749999D03*
D11*
%TO.N,SWCLK*%
X125329999Y-57749999D03*
%TO.N,GND*%
X122789999Y-57749999D03*
%TO.N,SWDIO*%
X120249999Y-57749999D03*
%TO.N,SWO*%
X117709999Y-57749999D03*
%TD*%
D10*
%TO.N,ADC*%
%TO.C,J5*%
X158199999Y-108709999D03*
D11*
X158199999Y-106169999D03*
%TO.N,GND*%
X160739999Y-108709999D03*
X160739999Y-106169999D03*
%TD*%
D17*
%TO.N,Net-(U1-PA1)*%
X119500000Y-80250000D03*
X117750000Y-93250000D03*
%TO.N,+3.3V*%
X151500000Y-86500000D03*
X151500000Y-87750000D03*
X156500000Y-87750000D03*
X152750000Y-86500000D03*
X159000000Y-87750000D03*
X154000000Y-87750000D03*
X130749999Y-77500000D03*
X115862500Y-87250000D03*
X157750000Y-86500000D03*
X152750000Y-87750000D03*
X159000000Y-86500000D03*
X126500000Y-87250000D03*
X130000000Y-93250000D03*
X123250000Y-66250000D03*
X157750000Y-87750000D03*
X117000000Y-66250000D03*
X118250000Y-52500000D03*
X156500000Y-86500000D03*
X154000000Y-86500000D03*
X155250000Y-86500000D03*
X119294269Y-66455731D03*
X120000000Y-87250000D03*
X155250000Y-87750000D03*
%TO.N,/NRST*%
X126000000Y-94000000D03*
X119000000Y-76500000D03*
%TO.N,Wiper*%
X139750000Y-84000000D03*
X135000000Y-85750000D03*
%TO.N,PU*%
X121250000Y-87250000D03*
X133500000Y-93250000D03*
%TO.N,PD*%
X122500000Y-87250000D03*
X134830731Y-91669269D03*
%TO.N,SCL*%
X120500000Y-69750000D03*
%TO.N,SDA*%
X120000000Y-73500000D03*
%TO.N,SWCLK*%
X126500000Y-69750000D03*
%TO.N,SWDIO*%
X125750000Y-74250000D03*
%TO.N,SWO*%
X124250000Y-69750000D03*
%TO.N,POT_BTN_UP*%
X121250000Y-80250000D03*
%TO.N,POT_BTN_DWN*%
X122250000Y-81000000D03*
%TO.N,ADC*%
X144000000Y-94750000D03*
X145500000Y-94750000D03*
X141000000Y-94750000D03*
X144000000Y-93500000D03*
X142500000Y-94750000D03*
X141000000Y-93500000D03*
X145500000Y-93500000D03*
X114500000Y-95750000D03*
X142500000Y-93500000D03*
%TD*%
D18*
%TO.N,Wiper*%
X135000000Y-85750000D02*
X136750000Y-84000000D01*
X136750000Y-84000000D02*
X139750000Y-84000000D01*
D19*
%TO.N,PU*%
X126500000Y-92500000D02*
X132750000Y-92500000D01*
X121250000Y-87250000D02*
X126500000Y-92500000D01*
X132750000Y-92500000D02*
X133500000Y-93250000D01*
%TO.N,PD*%
X126250000Y-91750000D02*
X134750000Y-91750000D01*
X134750000Y-91750000D02*
X134830731Y-91669269D01*
X122500000Y-88000000D02*
X126250000Y-91750000D01*
X122500000Y-87250000D02*
X122500000Y-88000000D01*
%TO.N,SWCLK*%
X126500000Y-65000000D02*
X126500000Y-69750000D01*
X125330000Y-57750000D02*
X125330000Y-63830000D01*
X125330000Y-63830000D02*
X126500000Y-65000000D01*
%TO.N,SWDIO*%
X125750000Y-64750000D02*
X125750000Y-74250000D01*
X120250000Y-59250000D02*
X125750000Y-64750000D01*
X120250000Y-57750000D02*
X120250000Y-59250000D01*
%TO.N,SWO*%
X117710000Y-57750000D02*
X117710000Y-58960000D01*
X117710000Y-58960000D02*
X124250000Y-65500000D01*
X124250000Y-65500000D02*
X124250000Y-69750000D01*
%TD*%
%TA.AperFunction,Conductor*%
%TO.N,ADC*%
G36*
X146438000Y-92516613D02*
G01*
X146483387Y-92562000D01*
X146500000Y-92624000D01*
X146500000Y-95000000D01*
X166907264Y-95237293D01*
X166968662Y-95254388D01*
X167013459Y-95299724D01*
X167029820Y-95361323D01*
X167024538Y-112493374D01*
X167007916Y-112555353D01*
X166962538Y-112600723D01*
X166900557Y-112617336D01*
X152825319Y-112619478D01*
X152795255Y-112615783D01*
X152784532Y-112613105D01*
X152735937Y-112588674D01*
X152702473Y-112545797D01*
X152690577Y-112492728D01*
X152692891Y-108710000D01*
X159684417Y-108710000D01*
X159685014Y-108716061D01*
X159704102Y-108909869D01*
X159704103Y-108909875D01*
X159704700Y-108915934D01*
X159764768Y-109113954D01*
X159767638Y-109119323D01*
X159767640Y-109119328D01*
X159859444Y-109291079D01*
X159862315Y-109296450D01*
X159993590Y-109456410D01*
X160153550Y-109587685D01*
X160336046Y-109685232D01*
X160534066Y-109745300D01*
X160740000Y-109765583D01*
X160945934Y-109745300D01*
X161143954Y-109685232D01*
X161326450Y-109587685D01*
X161486410Y-109456410D01*
X161617685Y-109296450D01*
X161715232Y-109113954D01*
X161775300Y-108915934D01*
X161795583Y-108710000D01*
X161775300Y-108504066D01*
X161715232Y-108306046D01*
X161617685Y-108123550D01*
X161486410Y-107963590D01*
X161326450Y-107832315D01*
X161321079Y-107829444D01*
X161149328Y-107737640D01*
X161149323Y-107737638D01*
X161143954Y-107734768D01*
X161107356Y-107723666D01*
X160951764Y-107676468D01*
X160951759Y-107676467D01*
X160945934Y-107674700D01*
X160939875Y-107674103D01*
X160939869Y-107674102D01*
X160746061Y-107655014D01*
X160740000Y-107654417D01*
X160733939Y-107655014D01*
X160540130Y-107674102D01*
X160540122Y-107674103D01*
X160534066Y-107674700D01*
X160528242Y-107676466D01*
X160528235Y-107676468D01*
X160341877Y-107732999D01*
X160341875Y-107732999D01*
X160336046Y-107734768D01*
X160330679Y-107737636D01*
X160330671Y-107737640D01*
X160158920Y-107829444D01*
X160158915Y-107829447D01*
X160153550Y-107832315D01*
X160148846Y-107836174D01*
X160148842Y-107836178D01*
X159998296Y-107959727D01*
X159998290Y-107959732D01*
X159993590Y-107963590D01*
X159989732Y-107968290D01*
X159989727Y-107968296D01*
X159866178Y-108118842D01*
X159866174Y-108118846D01*
X159862315Y-108123550D01*
X159859447Y-108128915D01*
X159859444Y-108128920D01*
X159767640Y-108300671D01*
X159767636Y-108300679D01*
X159764768Y-108306046D01*
X159762999Y-108311875D01*
X159762999Y-108311877D01*
X159706468Y-108498235D01*
X159706466Y-108498242D01*
X159704700Y-108504066D01*
X159704103Y-108510122D01*
X159704102Y-108510130D01*
X159689660Y-108656764D01*
X159684417Y-108710000D01*
X152692891Y-108710000D01*
X152694445Y-106170000D01*
X159684417Y-106170000D01*
X159685014Y-106176061D01*
X159704102Y-106369869D01*
X159704103Y-106369875D01*
X159704700Y-106375934D01*
X159764768Y-106573954D01*
X159767638Y-106579323D01*
X159767640Y-106579328D01*
X159859444Y-106751079D01*
X159862315Y-106756450D01*
X159993590Y-106916410D01*
X160153550Y-107047685D01*
X160336046Y-107145232D01*
X160534066Y-107205300D01*
X160740000Y-107225583D01*
X160945934Y-107205300D01*
X161143954Y-107145232D01*
X161326450Y-107047685D01*
X161486410Y-106916410D01*
X161617685Y-106756450D01*
X161715232Y-106573954D01*
X161775300Y-106375934D01*
X161795583Y-106170000D01*
X161775300Y-105964066D01*
X161715232Y-105766046D01*
X161617685Y-105583550D01*
X161486410Y-105423590D01*
X161326450Y-105292315D01*
X161321079Y-105289444D01*
X161149328Y-105197640D01*
X161149323Y-105197638D01*
X161143954Y-105194768D01*
X161107356Y-105183666D01*
X160951764Y-105136468D01*
X160951759Y-105136467D01*
X160945934Y-105134700D01*
X160939875Y-105134103D01*
X160939869Y-105134102D01*
X160746061Y-105115014D01*
X160740000Y-105114417D01*
X160733939Y-105115014D01*
X160540130Y-105134102D01*
X160540122Y-105134103D01*
X160534066Y-105134700D01*
X160528242Y-105136466D01*
X160528235Y-105136468D01*
X160341877Y-105192999D01*
X160341875Y-105192999D01*
X160336046Y-105194768D01*
X160330679Y-105197636D01*
X160330671Y-105197640D01*
X160158920Y-105289444D01*
X160158915Y-105289447D01*
X160153550Y-105292315D01*
X160148846Y-105296174D01*
X160148842Y-105296178D01*
X159998296Y-105419727D01*
X159998290Y-105419732D01*
X159993590Y-105423590D01*
X159989732Y-105428290D01*
X159989727Y-105428296D01*
X159866178Y-105578842D01*
X159866174Y-105578846D01*
X159862315Y-105583550D01*
X159859447Y-105588915D01*
X159859444Y-105588920D01*
X159767640Y-105760671D01*
X159767636Y-105760679D01*
X159764768Y-105766046D01*
X159762999Y-105771875D01*
X159762999Y-105771877D01*
X159706468Y-105958235D01*
X159706466Y-105958242D01*
X159704700Y-105964066D01*
X159704103Y-105970122D01*
X159704102Y-105970130D01*
X159689660Y-106116764D01*
X159684417Y-106170000D01*
X152694445Y-106170000D01*
X152695418Y-104580145D01*
X152695451Y-104580096D01*
X152695418Y-104579945D01*
X152695419Y-104579899D01*
X152695398Y-104579848D01*
X152695387Y-104579796D01*
X152695360Y-104579757D01*
X152695302Y-104579615D01*
X152695247Y-104579592D01*
X152640478Y-104499813D01*
X152640465Y-104499721D01*
X152640364Y-104499647D01*
X152640356Y-104499635D01*
X152640281Y-104499586D01*
X152640217Y-104499539D01*
X152640204Y-104499535D01*
X152640099Y-104499467D01*
X152640007Y-104499486D01*
X152623708Y-104495411D01*
X152623707Y-104495411D01*
X152576214Y-104483540D01*
X152560148Y-104479524D01*
X152560090Y-104479500D01*
X152560052Y-104479499D01*
X152560016Y-104479491D01*
X152559955Y-104479499D01*
X152549184Y-104479498D01*
X152549181Y-104479498D01*
X121230867Y-104479378D01*
X121220187Y-104479378D01*
X121220171Y-104479364D01*
X121219984Y-104479378D01*
X121219901Y-104479378D01*
X121219882Y-104479385D01*
X121219864Y-104479387D01*
X121219794Y-104479421D01*
X121219617Y-104479495D01*
X121219608Y-104479515D01*
X121214043Y-104482308D01*
X121214042Y-104482309D01*
X121213674Y-104482493D01*
X121213665Y-104482498D01*
X121211053Y-104483809D01*
X121211049Y-104483811D01*
X121165873Y-104506491D01*
X121165871Y-104506492D01*
X121159956Y-104509462D01*
X121159951Y-104509461D01*
X121159762Y-104509559D01*
X121159687Y-104509598D01*
X121159684Y-104509601D01*
X121159679Y-104509604D01*
X121159608Y-104509688D01*
X121159486Y-104509830D01*
X121159486Y-104509835D01*
X121155840Y-104514209D01*
X121155836Y-104514213D01*
X121119720Y-104557553D01*
X121119719Y-104557554D01*
X121109695Y-104569584D01*
X121109617Y-104569617D01*
X121109566Y-104569740D01*
X121109553Y-104569756D01*
X121109531Y-104569824D01*
X121109500Y-104569901D01*
X121109499Y-104569924D01*
X121109461Y-104570049D01*
X121109499Y-104570122D01*
X121109479Y-104585408D01*
X121109479Y-104585410D01*
X121099542Y-112386864D01*
X121087956Y-112439043D01*
X121055483Y-112481497D01*
X121008157Y-112506340D01*
X120975959Y-112515118D01*
X120943326Y-112519484D01*
X107485198Y-112517502D01*
X107436988Y-112507739D01*
X107415933Y-112498850D01*
X107377048Y-112472859D01*
X107350557Y-112434313D01*
X107345896Y-112423659D01*
X107335500Y-112373959D01*
X107335500Y-108445000D01*
X114939417Y-108445000D01*
X114940014Y-108451061D01*
X114959102Y-108644869D01*
X114959103Y-108644875D01*
X114959700Y-108650934D01*
X114961467Y-108656759D01*
X114961468Y-108656764D01*
X114977617Y-108710000D01*
X115019768Y-108848954D01*
X115117315Y-109031450D01*
X115248590Y-109191410D01*
X115408550Y-109322685D01*
X115591046Y-109420232D01*
X115789066Y-109480300D01*
X115995000Y-109500583D01*
X116200934Y-109480300D01*
X116398954Y-109420232D01*
X116581450Y-109322685D01*
X116741410Y-109191410D01*
X116872685Y-109031450D01*
X116970232Y-108848954D01*
X117030300Y-108650934D01*
X117050583Y-108445000D01*
X117030300Y-108239066D01*
X116970232Y-108041046D01*
X116872685Y-107858550D01*
X116741410Y-107698590D01*
X116581450Y-107567315D01*
X116576079Y-107564444D01*
X116404328Y-107472640D01*
X116404323Y-107472638D01*
X116398954Y-107469768D01*
X116362356Y-107458666D01*
X116206764Y-107411468D01*
X116206759Y-107411467D01*
X116200934Y-107409700D01*
X116194875Y-107409103D01*
X116194869Y-107409102D01*
X116001061Y-107390014D01*
X115995000Y-107389417D01*
X115988939Y-107390014D01*
X115795130Y-107409102D01*
X115795122Y-107409103D01*
X115789066Y-107409700D01*
X115783242Y-107411466D01*
X115783235Y-107411468D01*
X115596877Y-107467999D01*
X115596875Y-107467999D01*
X115591046Y-107469768D01*
X115585679Y-107472636D01*
X115585671Y-107472640D01*
X115413920Y-107564444D01*
X115413915Y-107564447D01*
X115408550Y-107567315D01*
X115403846Y-107571174D01*
X115403842Y-107571178D01*
X115253296Y-107694727D01*
X115253290Y-107694732D01*
X115248590Y-107698590D01*
X115244732Y-107703290D01*
X115244727Y-107703296D01*
X115121178Y-107853842D01*
X115121174Y-107853846D01*
X115117315Y-107858550D01*
X115114447Y-107863915D01*
X115114444Y-107863920D01*
X115022640Y-108035671D01*
X115022636Y-108035679D01*
X115019768Y-108041046D01*
X115017999Y-108046875D01*
X115017999Y-108046877D01*
X114961468Y-108233235D01*
X114961466Y-108233242D01*
X114959700Y-108239066D01*
X114959103Y-108245122D01*
X114959102Y-108245130D01*
X114940890Y-108430040D01*
X114939417Y-108445000D01*
X107335500Y-108445000D01*
X107335500Y-105905000D01*
X114939417Y-105905000D01*
X114940014Y-105911061D01*
X114959102Y-106104869D01*
X114959103Y-106104875D01*
X114959700Y-106110934D01*
X114961467Y-106116759D01*
X114961468Y-106116764D01*
X114977617Y-106170000D01*
X115019768Y-106308954D01*
X115117315Y-106491450D01*
X115248590Y-106651410D01*
X115408550Y-106782685D01*
X115591046Y-106880232D01*
X115789066Y-106940300D01*
X115995000Y-106960583D01*
X116200934Y-106940300D01*
X116398954Y-106880232D01*
X116581450Y-106782685D01*
X116741410Y-106651410D01*
X116872685Y-106491450D01*
X116970232Y-106308954D01*
X117030300Y-106110934D01*
X117050583Y-105905000D01*
X117030300Y-105699066D01*
X116970232Y-105501046D01*
X116872685Y-105318550D01*
X116741410Y-105158590D01*
X116581450Y-105027315D01*
X116576079Y-105024444D01*
X116404328Y-104932640D01*
X116404323Y-104932638D01*
X116398954Y-104929768D01*
X116362356Y-104918666D01*
X116206764Y-104871468D01*
X116206759Y-104871467D01*
X116200934Y-104869700D01*
X116194875Y-104869103D01*
X116194869Y-104869102D01*
X116001061Y-104850014D01*
X115995000Y-104849417D01*
X115988939Y-104850014D01*
X115795130Y-104869102D01*
X115795122Y-104869103D01*
X115789066Y-104869700D01*
X115783242Y-104871466D01*
X115783235Y-104871468D01*
X115596877Y-104927999D01*
X115596875Y-104927999D01*
X115591046Y-104929768D01*
X115585679Y-104932636D01*
X115585671Y-104932640D01*
X115413920Y-105024444D01*
X115413915Y-105024447D01*
X115408550Y-105027315D01*
X115403846Y-105031174D01*
X115403842Y-105031178D01*
X115253296Y-105154727D01*
X115253290Y-105154732D01*
X115248590Y-105158590D01*
X115244732Y-105163290D01*
X115244727Y-105163296D01*
X115121178Y-105313842D01*
X115121174Y-105313846D01*
X115117315Y-105318550D01*
X115114447Y-105323915D01*
X115114444Y-105323920D01*
X115022640Y-105495671D01*
X115022636Y-105495679D01*
X115019768Y-105501046D01*
X115017999Y-105506875D01*
X115017999Y-105506877D01*
X114961468Y-105693235D01*
X114961466Y-105693242D01*
X114959700Y-105699066D01*
X114959103Y-105705122D01*
X114959102Y-105705130D01*
X114940890Y-105890040D01*
X114939417Y-105905000D01*
X107335500Y-105905000D01*
X107335500Y-102000000D01*
X121294357Y-102000000D01*
X121314885Y-102221536D01*
X121316454Y-102227050D01*
X121374201Y-102430013D01*
X121374204Y-102430021D01*
X121375771Y-102435528D01*
X121378323Y-102440653D01*
X121378325Y-102440658D01*
X121472387Y-102629559D01*
X121472389Y-102629563D01*
X121474942Y-102634689D01*
X121478391Y-102639256D01*
X121478394Y-102639261D01*
X121605561Y-102807658D01*
X121605566Y-102807663D01*
X121609019Y-102812236D01*
X121613255Y-102816097D01*
X121613259Y-102816102D01*
X121713569Y-102907546D01*
X121773438Y-102962124D01*
X121962599Y-103079247D01*
X122170060Y-103159618D01*
X122388757Y-103200500D01*
X122605514Y-103200500D01*
X122611243Y-103200500D01*
X122829940Y-103159618D01*
X123037401Y-103079247D01*
X123226562Y-102962124D01*
X123390981Y-102812236D01*
X123525058Y-102634689D01*
X123624229Y-102435528D01*
X123685115Y-102221536D01*
X123705643Y-102000000D01*
X127794357Y-102000000D01*
X127814885Y-102221536D01*
X127816454Y-102227050D01*
X127874201Y-102430013D01*
X127874204Y-102430021D01*
X127875771Y-102435528D01*
X127878323Y-102440653D01*
X127878325Y-102440658D01*
X127972387Y-102629559D01*
X127972389Y-102629563D01*
X127974942Y-102634689D01*
X127978391Y-102639256D01*
X127978394Y-102639261D01*
X128105561Y-102807658D01*
X128105566Y-102807663D01*
X128109019Y-102812236D01*
X128113255Y-102816097D01*
X128113259Y-102816102D01*
X128213569Y-102907546D01*
X128273438Y-102962124D01*
X128462599Y-103079247D01*
X128670060Y-103159618D01*
X128888757Y-103200500D01*
X129105514Y-103200500D01*
X129111243Y-103200500D01*
X129329940Y-103159618D01*
X129537401Y-103079247D01*
X129726562Y-102962124D01*
X129890981Y-102812236D01*
X130025058Y-102634689D01*
X130124229Y-102435528D01*
X130185115Y-102221536D01*
X130205643Y-102000000D01*
X130185115Y-101778464D01*
X130177016Y-101750000D01*
X133544357Y-101750000D01*
X133544886Y-101755709D01*
X133546483Y-101772949D01*
X133564885Y-101971536D01*
X133566454Y-101977050D01*
X133624201Y-102180013D01*
X133624204Y-102180021D01*
X133625771Y-102185528D01*
X133628323Y-102190653D01*
X133628325Y-102190658D01*
X133722387Y-102379559D01*
X133722389Y-102379563D01*
X133724942Y-102384689D01*
X133728391Y-102389256D01*
X133728394Y-102389261D01*
X133855561Y-102557658D01*
X133855566Y-102557663D01*
X133859019Y-102562236D01*
X133863255Y-102566097D01*
X133863259Y-102566102D01*
X133938496Y-102634689D01*
X134023438Y-102712124D01*
X134212599Y-102829247D01*
X134420060Y-102909618D01*
X134638757Y-102950500D01*
X134855514Y-102950500D01*
X134861243Y-102950500D01*
X135079940Y-102909618D01*
X135287401Y-102829247D01*
X135476562Y-102712124D01*
X135640981Y-102562236D01*
X135775058Y-102384689D01*
X135874229Y-102185528D01*
X135935115Y-101971536D01*
X135955643Y-101750000D01*
X140044357Y-101750000D01*
X140044886Y-101755709D01*
X140046483Y-101772949D01*
X140064885Y-101971536D01*
X140066454Y-101977050D01*
X140124201Y-102180013D01*
X140124204Y-102180021D01*
X140125771Y-102185528D01*
X140128323Y-102190653D01*
X140128325Y-102190658D01*
X140222387Y-102379559D01*
X140222389Y-102379563D01*
X140224942Y-102384689D01*
X140228391Y-102389256D01*
X140228394Y-102389261D01*
X140355561Y-102557658D01*
X140355566Y-102557663D01*
X140359019Y-102562236D01*
X140363255Y-102566097D01*
X140363259Y-102566102D01*
X140438496Y-102634689D01*
X140523438Y-102712124D01*
X140712599Y-102829247D01*
X140920060Y-102909618D01*
X141138757Y-102950500D01*
X141355514Y-102950500D01*
X141361243Y-102950500D01*
X141579940Y-102909618D01*
X141787401Y-102829247D01*
X141976562Y-102712124D01*
X142140981Y-102562236D01*
X142275058Y-102384689D01*
X142374229Y-102185528D01*
X142427016Y-102000000D01*
X146044357Y-102000000D01*
X146064885Y-102221536D01*
X146066454Y-102227050D01*
X146124201Y-102430013D01*
X146124204Y-102430021D01*
X146125771Y-102435528D01*
X146128323Y-102440653D01*
X146128325Y-102440658D01*
X146222387Y-102629559D01*
X146222389Y-102629563D01*
X146224942Y-102634689D01*
X146228391Y-102639256D01*
X146228394Y-102639261D01*
X146355561Y-102807658D01*
X146355566Y-102807663D01*
X146359019Y-102812236D01*
X146363255Y-102816097D01*
X146363259Y-102816102D01*
X146463569Y-102907546D01*
X146523438Y-102962124D01*
X146712599Y-103079247D01*
X146920060Y-103159618D01*
X147138757Y-103200500D01*
X147355514Y-103200500D01*
X147361243Y-103200500D01*
X147579940Y-103159618D01*
X147787401Y-103079247D01*
X147976562Y-102962124D01*
X148140981Y-102812236D01*
X148275058Y-102634689D01*
X148374229Y-102435528D01*
X148435115Y-102221536D01*
X148455643Y-102000000D01*
X152544357Y-102000000D01*
X152564885Y-102221536D01*
X152566454Y-102227050D01*
X152624201Y-102430013D01*
X152624204Y-102430021D01*
X152625771Y-102435528D01*
X152628323Y-102440653D01*
X152628325Y-102440658D01*
X152722387Y-102629559D01*
X152722389Y-102629563D01*
X152724942Y-102634689D01*
X152728391Y-102639256D01*
X152728394Y-102639261D01*
X152855561Y-102807658D01*
X152855566Y-102807663D01*
X152859019Y-102812236D01*
X152863255Y-102816097D01*
X152863259Y-102816102D01*
X152963569Y-102907546D01*
X153023438Y-102962124D01*
X153212599Y-103079247D01*
X153420060Y-103159618D01*
X153638757Y-103200500D01*
X153855514Y-103200500D01*
X153861243Y-103200500D01*
X154079940Y-103159618D01*
X154287401Y-103079247D01*
X154476562Y-102962124D01*
X154640981Y-102812236D01*
X154775058Y-102634689D01*
X154874229Y-102435528D01*
X154935115Y-102221536D01*
X154955643Y-102000000D01*
X154935115Y-101778464D01*
X154874229Y-101564472D01*
X154775058Y-101365311D01*
X154771605Y-101360738D01*
X154644438Y-101192341D01*
X154644434Y-101192337D01*
X154640981Y-101187764D01*
X154636744Y-101183901D01*
X154636740Y-101183897D01*
X154480796Y-101041736D01*
X154480797Y-101041736D01*
X154476562Y-101037876D01*
X154471692Y-101034861D01*
X154471690Y-101034859D01*
X154292275Y-100923771D01*
X154292276Y-100923771D01*
X154287401Y-100920753D01*
X154079940Y-100840382D01*
X154074302Y-100839328D01*
X153866872Y-100800552D01*
X153866869Y-100800551D01*
X153861243Y-100799500D01*
X153638757Y-100799500D01*
X153633131Y-100800551D01*
X153633127Y-100800552D01*
X153425697Y-100839328D01*
X153425694Y-100839328D01*
X153420060Y-100840382D01*
X153414717Y-100842451D01*
X153414713Y-100842453D01*
X153217941Y-100918683D01*
X153217936Y-100918685D01*
X153212599Y-100920753D01*
X153207727Y-100923769D01*
X153207724Y-100923771D01*
X153028309Y-101034859D01*
X153028301Y-101034864D01*
X153023438Y-101037876D01*
X153019207Y-101041732D01*
X153019203Y-101041736D01*
X152863259Y-101183897D01*
X152863249Y-101183907D01*
X152859019Y-101187764D01*
X152855570Y-101192330D01*
X152855561Y-101192341D01*
X152728394Y-101360738D01*
X152728387Y-101360748D01*
X152724942Y-101365311D01*
X152722392Y-101370431D01*
X152722387Y-101370440D01*
X152628325Y-101559341D01*
X152628321Y-101559349D01*
X152625771Y-101564472D01*
X152624205Y-101569975D01*
X152624201Y-101569986D01*
X152571359Y-101755709D01*
X152564885Y-101778464D01*
X152544357Y-102000000D01*
X148455643Y-102000000D01*
X148435115Y-101778464D01*
X148374229Y-101564472D01*
X148275058Y-101365311D01*
X148271605Y-101360738D01*
X148144438Y-101192341D01*
X148144434Y-101192337D01*
X148140981Y-101187764D01*
X148136744Y-101183901D01*
X148136740Y-101183897D01*
X147980796Y-101041736D01*
X147980797Y-101041736D01*
X147976562Y-101037876D01*
X147971692Y-101034861D01*
X147971690Y-101034859D01*
X147792275Y-100923771D01*
X147792276Y-100923771D01*
X147787401Y-100920753D01*
X147579940Y-100840382D01*
X147574302Y-100839328D01*
X147366872Y-100800552D01*
X147366869Y-100800551D01*
X147361243Y-100799500D01*
X147138757Y-100799500D01*
X147133131Y-100800551D01*
X147133127Y-100800552D01*
X146925697Y-100839328D01*
X146925694Y-100839328D01*
X146920060Y-100840382D01*
X146914717Y-100842451D01*
X146914713Y-100842453D01*
X146717941Y-100918683D01*
X146717936Y-100918685D01*
X146712599Y-100920753D01*
X146707727Y-100923769D01*
X146707724Y-100923771D01*
X146528309Y-101034859D01*
X146528301Y-101034864D01*
X146523438Y-101037876D01*
X146519207Y-101041732D01*
X146519203Y-101041736D01*
X146363259Y-101183897D01*
X146363249Y-101183907D01*
X146359019Y-101187764D01*
X146355570Y-101192330D01*
X146355561Y-101192341D01*
X146228394Y-101360738D01*
X146228387Y-101360748D01*
X146224942Y-101365311D01*
X146222392Y-101370431D01*
X146222387Y-101370440D01*
X146128325Y-101559341D01*
X146128321Y-101559349D01*
X146125771Y-101564472D01*
X146124205Y-101569975D01*
X146124201Y-101569986D01*
X146071359Y-101755709D01*
X146064885Y-101778464D01*
X146044357Y-102000000D01*
X142427016Y-102000000D01*
X142435115Y-101971536D01*
X142455643Y-101750000D01*
X142435115Y-101528464D01*
X142374229Y-101314472D01*
X142275058Y-101115311D01*
X142271605Y-101110738D01*
X142144438Y-100942341D01*
X142144434Y-100942337D01*
X142140981Y-100937764D01*
X142136744Y-100933901D01*
X142136740Y-100933897D01*
X141980796Y-100791736D01*
X141980797Y-100791736D01*
X141976562Y-100787876D01*
X141971692Y-100784861D01*
X141971690Y-100784859D01*
X141792275Y-100673771D01*
X141792276Y-100673771D01*
X141787401Y-100670753D01*
X141579940Y-100590382D01*
X141574302Y-100589328D01*
X141366872Y-100550552D01*
X141366869Y-100550551D01*
X141361243Y-100549500D01*
X141138757Y-100549500D01*
X141133131Y-100550551D01*
X141133127Y-100550552D01*
X140925697Y-100589328D01*
X140925694Y-100589328D01*
X140920060Y-100590382D01*
X140914717Y-100592451D01*
X140914713Y-100592453D01*
X140717941Y-100668683D01*
X140717936Y-100668685D01*
X140712599Y-100670753D01*
X140707727Y-100673769D01*
X140707724Y-100673771D01*
X140528309Y-100784859D01*
X140528301Y-100784864D01*
X140523438Y-100787876D01*
X140519207Y-100791732D01*
X140519203Y-100791736D01*
X140363259Y-100933897D01*
X140363249Y-100933907D01*
X140359019Y-100937764D01*
X140355570Y-100942330D01*
X140355561Y-100942341D01*
X140228394Y-101110738D01*
X140228387Y-101110748D01*
X140224942Y-101115311D01*
X140222392Y-101120431D01*
X140222387Y-101120440D01*
X140128325Y-101309341D01*
X140128321Y-101309349D01*
X140125771Y-101314472D01*
X140124205Y-101319975D01*
X140124201Y-101319986D01*
X140073082Y-101499655D01*
X140064885Y-101528464D01*
X140044357Y-101750000D01*
X135955643Y-101750000D01*
X135935115Y-101528464D01*
X135874229Y-101314472D01*
X135775058Y-101115311D01*
X135771605Y-101110738D01*
X135644438Y-100942341D01*
X135644434Y-100942337D01*
X135640981Y-100937764D01*
X135636744Y-100933901D01*
X135636740Y-100933897D01*
X135480796Y-100791736D01*
X135480797Y-100791736D01*
X135476562Y-100787876D01*
X135471692Y-100784861D01*
X135471690Y-100784859D01*
X135292275Y-100673771D01*
X135292276Y-100673771D01*
X135287401Y-100670753D01*
X135079940Y-100590382D01*
X135074302Y-100589328D01*
X134866872Y-100550552D01*
X134866869Y-100550551D01*
X134861243Y-100549500D01*
X134638757Y-100549500D01*
X134633131Y-100550551D01*
X134633127Y-100550552D01*
X134425697Y-100589328D01*
X134425694Y-100589328D01*
X134420060Y-100590382D01*
X134414717Y-100592451D01*
X134414713Y-100592453D01*
X134217941Y-100668683D01*
X134217936Y-100668685D01*
X134212599Y-100670753D01*
X134207727Y-100673769D01*
X134207724Y-100673771D01*
X134028309Y-100784859D01*
X134028301Y-100784864D01*
X134023438Y-100787876D01*
X134019207Y-100791732D01*
X134019203Y-100791736D01*
X133863259Y-100933897D01*
X133863249Y-100933907D01*
X133859019Y-100937764D01*
X133855570Y-100942330D01*
X133855561Y-100942341D01*
X133728394Y-101110738D01*
X133728387Y-101110748D01*
X133724942Y-101115311D01*
X133722392Y-101120431D01*
X133722387Y-101120440D01*
X133628325Y-101309341D01*
X133628321Y-101309349D01*
X133625771Y-101314472D01*
X133624205Y-101319975D01*
X133624201Y-101319986D01*
X133573082Y-101499655D01*
X133564885Y-101528464D01*
X133544357Y-101750000D01*
X130177016Y-101750000D01*
X130124229Y-101564472D01*
X130025058Y-101365311D01*
X130021605Y-101360738D01*
X129894438Y-101192341D01*
X129894434Y-101192337D01*
X129890981Y-101187764D01*
X129886744Y-101183901D01*
X129886740Y-101183897D01*
X129730796Y-101041736D01*
X129730797Y-101041736D01*
X129726562Y-101037876D01*
X129721692Y-101034861D01*
X129721690Y-101034859D01*
X129542275Y-100923771D01*
X129542276Y-100923771D01*
X129537401Y-100920753D01*
X129329940Y-100840382D01*
X129324302Y-100839328D01*
X129116872Y-100800552D01*
X129116869Y-100800551D01*
X129111243Y-100799500D01*
X128888757Y-100799500D01*
X128883131Y-100800551D01*
X128883127Y-100800552D01*
X128675697Y-100839328D01*
X128675694Y-100839328D01*
X128670060Y-100840382D01*
X128664717Y-100842451D01*
X128664713Y-100842453D01*
X128467941Y-100918683D01*
X128467936Y-100918685D01*
X128462599Y-100920753D01*
X128457727Y-100923769D01*
X128457724Y-100923771D01*
X128278309Y-101034859D01*
X128278301Y-101034864D01*
X128273438Y-101037876D01*
X128269207Y-101041732D01*
X128269203Y-101041736D01*
X128113259Y-101183897D01*
X128113249Y-101183907D01*
X128109019Y-101187764D01*
X128105570Y-101192330D01*
X128105561Y-101192341D01*
X127978394Y-101360738D01*
X127978387Y-101360748D01*
X127974942Y-101365311D01*
X127972392Y-101370431D01*
X127972387Y-101370440D01*
X127878325Y-101559341D01*
X127878321Y-101559349D01*
X127875771Y-101564472D01*
X127874205Y-101569975D01*
X127874201Y-101569986D01*
X127821359Y-101755709D01*
X127814885Y-101778464D01*
X127794357Y-102000000D01*
X123705643Y-102000000D01*
X123685115Y-101778464D01*
X123624229Y-101564472D01*
X123525058Y-101365311D01*
X123521605Y-101360738D01*
X123394438Y-101192341D01*
X123394434Y-101192337D01*
X123390981Y-101187764D01*
X123386744Y-101183901D01*
X123386740Y-101183897D01*
X123230796Y-101041736D01*
X123230797Y-101041736D01*
X123226562Y-101037876D01*
X123221692Y-101034861D01*
X123221690Y-101034859D01*
X123042275Y-100923771D01*
X123042276Y-100923771D01*
X123037401Y-100920753D01*
X122829940Y-100840382D01*
X122824302Y-100839328D01*
X122616872Y-100800552D01*
X122616869Y-100800551D01*
X122611243Y-100799500D01*
X122388757Y-100799500D01*
X122383131Y-100800551D01*
X122383127Y-100800552D01*
X122175697Y-100839328D01*
X122175694Y-100839328D01*
X122170060Y-100840382D01*
X122164717Y-100842451D01*
X122164713Y-100842453D01*
X121967941Y-100918683D01*
X121967936Y-100918685D01*
X121962599Y-100920753D01*
X121957727Y-100923769D01*
X121957724Y-100923771D01*
X121778309Y-101034859D01*
X121778301Y-101034864D01*
X121773438Y-101037876D01*
X121769207Y-101041732D01*
X121769203Y-101041736D01*
X121613259Y-101183897D01*
X121613249Y-101183907D01*
X121609019Y-101187764D01*
X121605570Y-101192330D01*
X121605561Y-101192341D01*
X121478394Y-101360738D01*
X121478387Y-101360748D01*
X121474942Y-101365311D01*
X121472392Y-101370431D01*
X121472387Y-101370440D01*
X121378325Y-101559341D01*
X121378321Y-101559349D01*
X121375771Y-101564472D01*
X121374205Y-101569975D01*
X121374201Y-101569986D01*
X121321359Y-101755709D01*
X121314885Y-101778464D01*
X121294357Y-102000000D01*
X107335500Y-102000000D01*
X107335500Y-100000000D01*
X114744357Y-100000000D01*
X114744781Y-100005117D01*
X114764467Y-100242701D01*
X114764468Y-100242709D01*
X114764892Y-100247821D01*
X114766149Y-100252788D01*
X114766151Y-100252795D01*
X114824678Y-100483910D01*
X114825937Y-100488881D01*
X114827997Y-100493577D01*
X114923766Y-100711910D01*
X114923769Y-100711916D01*
X114925827Y-100716607D01*
X114928627Y-100720893D01*
X114928631Y-100720900D01*
X115006004Y-100839328D01*
X115061836Y-100924785D01*
X115065310Y-100928559D01*
X115065311Y-100928560D01*
X115226784Y-101103967D01*
X115226787Y-101103970D01*
X115230256Y-101107738D01*
X115426491Y-101260474D01*
X115645190Y-101378828D01*
X115880386Y-101459571D01*
X116125665Y-101500500D01*
X116369201Y-101500500D01*
X116374335Y-101500500D01*
X116619614Y-101459571D01*
X116854810Y-101378828D01*
X117073509Y-101260474D01*
X117269744Y-101107738D01*
X117438164Y-100924785D01*
X117574173Y-100716607D01*
X117674063Y-100488881D01*
X117735108Y-100247821D01*
X117755643Y-100000000D01*
X117735108Y-99752179D01*
X117674063Y-99511119D01*
X117574173Y-99283393D01*
X117438164Y-99075215D01*
X117269744Y-98892262D01*
X117073509Y-98739526D01*
X117068997Y-98737084D01*
X116859316Y-98623610D01*
X116859310Y-98623607D01*
X116854810Y-98621172D01*
X116849969Y-98619510D01*
X116849962Y-98619507D01*
X116624465Y-98542094D01*
X116624461Y-98542093D01*
X116619614Y-98540429D01*
X116610768Y-98538952D01*
X116379398Y-98500344D01*
X116379387Y-98500343D01*
X116374335Y-98499500D01*
X116125665Y-98499500D01*
X116120613Y-98500343D01*
X116120601Y-98500344D01*
X115885443Y-98539585D01*
X115885441Y-98539585D01*
X115880386Y-98540429D01*
X115875541Y-98542092D01*
X115875534Y-98542094D01*
X115650037Y-98619507D01*
X115650026Y-98619511D01*
X115645190Y-98621172D01*
X115640693Y-98623605D01*
X115640683Y-98623610D01*
X115431002Y-98737084D01*
X115430995Y-98737088D01*
X115426491Y-98739526D01*
X115422448Y-98742672D01*
X115422440Y-98742678D01*
X115234304Y-98889111D01*
X115230256Y-98892262D01*
X115226793Y-98896023D01*
X115226784Y-98896032D01*
X115065311Y-99071439D01*
X115065305Y-99071446D01*
X115061836Y-99075215D01*
X115059031Y-99079506D01*
X115059028Y-99079512D01*
X114928631Y-99279099D01*
X114928624Y-99279111D01*
X114925827Y-99283393D01*
X114923772Y-99288077D01*
X114923766Y-99288089D01*
X114827997Y-99506422D01*
X114825937Y-99511119D01*
X114824679Y-99516084D01*
X114824678Y-99516089D01*
X114766151Y-99747204D01*
X114766149Y-99747213D01*
X114764892Y-99752179D01*
X114764468Y-99757288D01*
X114764467Y-99757298D01*
X114744781Y-99994883D01*
X114744357Y-100000000D01*
X107335500Y-100000000D01*
X107335500Y-97500000D01*
X121294357Y-97500000D01*
X121314885Y-97721536D01*
X121316454Y-97727050D01*
X121374201Y-97930013D01*
X121374204Y-97930021D01*
X121375771Y-97935528D01*
X121378323Y-97940653D01*
X121378325Y-97940658D01*
X121472387Y-98129559D01*
X121472389Y-98129563D01*
X121474942Y-98134689D01*
X121478391Y-98139256D01*
X121478394Y-98139261D01*
X121605561Y-98307658D01*
X121605566Y-98307663D01*
X121609019Y-98312236D01*
X121613255Y-98316097D01*
X121613259Y-98316102D01*
X121713569Y-98407546D01*
X121773438Y-98462124D01*
X121962599Y-98579247D01*
X122170060Y-98659618D01*
X122388757Y-98700500D01*
X122605514Y-98700500D01*
X122611243Y-98700500D01*
X122829940Y-98659618D01*
X123037401Y-98579247D01*
X123226562Y-98462124D01*
X123390981Y-98312236D01*
X123525058Y-98134689D01*
X123624229Y-97935528D01*
X123685115Y-97721536D01*
X123705643Y-97500000D01*
X127794357Y-97500000D01*
X127814885Y-97721536D01*
X127816454Y-97727050D01*
X127874201Y-97930013D01*
X127874204Y-97930021D01*
X127875771Y-97935528D01*
X127878323Y-97940653D01*
X127878325Y-97940658D01*
X127972387Y-98129559D01*
X127972389Y-98129563D01*
X127974942Y-98134689D01*
X127978391Y-98139256D01*
X127978394Y-98139261D01*
X128105561Y-98307658D01*
X128105566Y-98307663D01*
X128109019Y-98312236D01*
X128113255Y-98316097D01*
X128113259Y-98316102D01*
X128213569Y-98407546D01*
X128273438Y-98462124D01*
X128462599Y-98579247D01*
X128670060Y-98659618D01*
X128888757Y-98700500D01*
X129105514Y-98700500D01*
X129111243Y-98700500D01*
X129329940Y-98659618D01*
X129537401Y-98579247D01*
X129726562Y-98462124D01*
X129890981Y-98312236D01*
X130025058Y-98134689D01*
X130124229Y-97935528D01*
X130185115Y-97721536D01*
X130205643Y-97500000D01*
X130185115Y-97278464D01*
X130177016Y-97250000D01*
X133544357Y-97250000D01*
X133544886Y-97255709D01*
X133546483Y-97272949D01*
X133564885Y-97471536D01*
X133566454Y-97477050D01*
X133624201Y-97680013D01*
X133624204Y-97680021D01*
X133625771Y-97685528D01*
X133628323Y-97690653D01*
X133628325Y-97690658D01*
X133722387Y-97879559D01*
X133722389Y-97879563D01*
X133724942Y-97884689D01*
X133728391Y-97889256D01*
X133728394Y-97889261D01*
X133855561Y-98057658D01*
X133855566Y-98057663D01*
X133859019Y-98062236D01*
X133863255Y-98066097D01*
X133863259Y-98066102D01*
X133938496Y-98134689D01*
X134023438Y-98212124D01*
X134212599Y-98329247D01*
X134420060Y-98409618D01*
X134638757Y-98450500D01*
X134855514Y-98450500D01*
X134861243Y-98450500D01*
X135079940Y-98409618D01*
X135287401Y-98329247D01*
X135476562Y-98212124D01*
X135640981Y-98062236D01*
X135775058Y-97884689D01*
X135874229Y-97685528D01*
X135935115Y-97471536D01*
X135955643Y-97250000D01*
X140044357Y-97250000D01*
X140044886Y-97255709D01*
X140046483Y-97272949D01*
X140064885Y-97471536D01*
X140066454Y-97477050D01*
X140124201Y-97680013D01*
X140124204Y-97680021D01*
X140125771Y-97685528D01*
X140128323Y-97690653D01*
X140128325Y-97690658D01*
X140222387Y-97879559D01*
X140222389Y-97879563D01*
X140224942Y-97884689D01*
X140228391Y-97889256D01*
X140228394Y-97889261D01*
X140355561Y-98057658D01*
X140355566Y-98057663D01*
X140359019Y-98062236D01*
X140363255Y-98066097D01*
X140363259Y-98066102D01*
X140438496Y-98134689D01*
X140523438Y-98212124D01*
X140712599Y-98329247D01*
X140920060Y-98409618D01*
X141138757Y-98450500D01*
X141355514Y-98450500D01*
X141361243Y-98450500D01*
X141579940Y-98409618D01*
X141787401Y-98329247D01*
X141976562Y-98212124D01*
X142140981Y-98062236D01*
X142275058Y-97884689D01*
X142374229Y-97685528D01*
X142427016Y-97500000D01*
X146044357Y-97500000D01*
X146064885Y-97721536D01*
X146066454Y-97727050D01*
X146124201Y-97930013D01*
X146124204Y-97930021D01*
X146125771Y-97935528D01*
X146128323Y-97940653D01*
X146128325Y-97940658D01*
X146222387Y-98129559D01*
X146222389Y-98129563D01*
X146224942Y-98134689D01*
X146228391Y-98139256D01*
X146228394Y-98139261D01*
X146355561Y-98307658D01*
X146355566Y-98307663D01*
X146359019Y-98312236D01*
X146363255Y-98316097D01*
X146363259Y-98316102D01*
X146463569Y-98407546D01*
X146523438Y-98462124D01*
X146712599Y-98579247D01*
X146920060Y-98659618D01*
X147138757Y-98700500D01*
X147355514Y-98700500D01*
X147361243Y-98700500D01*
X147579940Y-98659618D01*
X147787401Y-98579247D01*
X147976562Y-98462124D01*
X148140981Y-98312236D01*
X148275058Y-98134689D01*
X148374229Y-97935528D01*
X148435115Y-97721536D01*
X148455643Y-97500000D01*
X152544357Y-97500000D01*
X152564885Y-97721536D01*
X152566454Y-97727050D01*
X152624201Y-97930013D01*
X152624204Y-97930021D01*
X152625771Y-97935528D01*
X152628323Y-97940653D01*
X152628325Y-97940658D01*
X152722387Y-98129559D01*
X152722389Y-98129563D01*
X152724942Y-98134689D01*
X152728391Y-98139256D01*
X152728394Y-98139261D01*
X152855561Y-98307658D01*
X152855566Y-98307663D01*
X152859019Y-98312236D01*
X152863255Y-98316097D01*
X152863259Y-98316102D01*
X152963569Y-98407546D01*
X153023438Y-98462124D01*
X153212599Y-98579247D01*
X153420060Y-98659618D01*
X153638757Y-98700500D01*
X153855514Y-98700500D01*
X153861243Y-98700500D01*
X154079940Y-98659618D01*
X154287401Y-98579247D01*
X154476562Y-98462124D01*
X154640981Y-98312236D01*
X154775058Y-98134689D01*
X154874229Y-97935528D01*
X154935115Y-97721536D01*
X154955643Y-97500000D01*
X154935115Y-97278464D01*
X154874229Y-97064472D01*
X154775058Y-96865311D01*
X154771605Y-96860738D01*
X154644438Y-96692341D01*
X154644434Y-96692337D01*
X154640981Y-96687764D01*
X154636744Y-96683901D01*
X154636740Y-96683897D01*
X154480796Y-96541736D01*
X154480797Y-96541736D01*
X154476562Y-96537876D01*
X154471692Y-96534861D01*
X154471690Y-96534859D01*
X154292275Y-96423771D01*
X154292276Y-96423771D01*
X154287401Y-96420753D01*
X154079940Y-96340382D01*
X154074302Y-96339328D01*
X153866872Y-96300552D01*
X153866869Y-96300551D01*
X153861243Y-96299500D01*
X153638757Y-96299500D01*
X153633131Y-96300551D01*
X153633127Y-96300552D01*
X153425697Y-96339328D01*
X153425694Y-96339328D01*
X153420060Y-96340382D01*
X153414717Y-96342451D01*
X153414713Y-96342453D01*
X153217941Y-96418683D01*
X153217936Y-96418685D01*
X153212599Y-96420753D01*
X153207727Y-96423769D01*
X153207724Y-96423771D01*
X153028309Y-96534859D01*
X153028301Y-96534864D01*
X153023438Y-96537876D01*
X153019207Y-96541732D01*
X153019203Y-96541736D01*
X152863259Y-96683897D01*
X152863249Y-96683907D01*
X152859019Y-96687764D01*
X152855570Y-96692330D01*
X152855561Y-96692341D01*
X152728394Y-96860738D01*
X152728387Y-96860748D01*
X152724942Y-96865311D01*
X152722392Y-96870431D01*
X152722387Y-96870440D01*
X152628325Y-97059341D01*
X152628321Y-97059349D01*
X152625771Y-97064472D01*
X152624205Y-97069975D01*
X152624201Y-97069986D01*
X152571359Y-97255709D01*
X152564885Y-97278464D01*
X152544357Y-97500000D01*
X148455643Y-97500000D01*
X148435115Y-97278464D01*
X148374229Y-97064472D01*
X148275058Y-96865311D01*
X148271605Y-96860738D01*
X148144438Y-96692341D01*
X148144434Y-96692337D01*
X148140981Y-96687764D01*
X148136744Y-96683901D01*
X148136740Y-96683897D01*
X147980796Y-96541736D01*
X147980797Y-96541736D01*
X147976562Y-96537876D01*
X147971692Y-96534861D01*
X147971690Y-96534859D01*
X147792275Y-96423771D01*
X147792276Y-96423771D01*
X147787401Y-96420753D01*
X147579940Y-96340382D01*
X147574302Y-96339328D01*
X147366872Y-96300552D01*
X147366869Y-96300551D01*
X147361243Y-96299500D01*
X147138757Y-96299500D01*
X147133131Y-96300551D01*
X147133127Y-96300552D01*
X146925697Y-96339328D01*
X146925694Y-96339328D01*
X146920060Y-96340382D01*
X146914717Y-96342451D01*
X146914713Y-96342453D01*
X146717941Y-96418683D01*
X146717936Y-96418685D01*
X146712599Y-96420753D01*
X146707727Y-96423769D01*
X146707724Y-96423771D01*
X146528309Y-96534859D01*
X146528301Y-96534864D01*
X146523438Y-96537876D01*
X146519207Y-96541732D01*
X146519203Y-96541736D01*
X146363259Y-96683897D01*
X146363249Y-96683907D01*
X146359019Y-96687764D01*
X146355570Y-96692330D01*
X146355561Y-96692341D01*
X146228394Y-96860738D01*
X146228387Y-96860748D01*
X146224942Y-96865311D01*
X146222392Y-96870431D01*
X146222387Y-96870440D01*
X146128325Y-97059341D01*
X146128321Y-97059349D01*
X146125771Y-97064472D01*
X146124205Y-97069975D01*
X146124201Y-97069986D01*
X146071359Y-97255709D01*
X146064885Y-97278464D01*
X146044357Y-97500000D01*
X142427016Y-97500000D01*
X142435115Y-97471536D01*
X142455643Y-97250000D01*
X142435115Y-97028464D01*
X142374229Y-96814472D01*
X142275058Y-96615311D01*
X142214304Y-96534859D01*
X142144438Y-96442341D01*
X142144434Y-96442337D01*
X142140981Y-96437764D01*
X142136744Y-96433901D01*
X142136740Y-96433897D01*
X141980796Y-96291736D01*
X141980797Y-96291736D01*
X141976562Y-96287876D01*
X141971692Y-96284861D01*
X141971690Y-96284859D01*
X141792275Y-96173771D01*
X141792276Y-96173771D01*
X141787401Y-96170753D01*
X141579940Y-96090382D01*
X141574302Y-96089328D01*
X141366872Y-96050552D01*
X141366869Y-96050551D01*
X141361243Y-96049500D01*
X141138757Y-96049500D01*
X141133131Y-96050551D01*
X141133127Y-96050552D01*
X140925697Y-96089328D01*
X140925694Y-96089328D01*
X140920060Y-96090382D01*
X140914717Y-96092451D01*
X140914713Y-96092453D01*
X140717941Y-96168683D01*
X140717936Y-96168685D01*
X140712599Y-96170753D01*
X140707727Y-96173769D01*
X140707724Y-96173771D01*
X140528309Y-96284859D01*
X140528301Y-96284864D01*
X140523438Y-96287876D01*
X140519207Y-96291732D01*
X140519203Y-96291736D01*
X140363259Y-96433897D01*
X140363249Y-96433907D01*
X140359019Y-96437764D01*
X140355570Y-96442330D01*
X140355561Y-96442341D01*
X140228394Y-96610738D01*
X140228387Y-96610748D01*
X140224942Y-96615311D01*
X140222392Y-96620431D01*
X140222387Y-96620440D01*
X140128325Y-96809341D01*
X140128321Y-96809349D01*
X140125771Y-96814472D01*
X140124205Y-96819975D01*
X140124201Y-96819986D01*
X140066454Y-97022949D01*
X140064885Y-97028464D01*
X140044357Y-97250000D01*
X135955643Y-97250000D01*
X135935115Y-97028464D01*
X135874229Y-96814472D01*
X135775058Y-96615311D01*
X135714304Y-96534859D01*
X135644438Y-96442341D01*
X135644434Y-96442337D01*
X135640981Y-96437764D01*
X135636744Y-96433901D01*
X135636740Y-96433897D01*
X135480796Y-96291736D01*
X135480797Y-96291736D01*
X135476562Y-96287876D01*
X135471692Y-96284861D01*
X135471690Y-96284859D01*
X135292275Y-96173771D01*
X135292276Y-96173771D01*
X135287401Y-96170753D01*
X135079940Y-96090382D01*
X135074302Y-96089328D01*
X134866872Y-96050552D01*
X134866869Y-96050551D01*
X134861243Y-96049500D01*
X134638757Y-96049500D01*
X134633131Y-96050551D01*
X134633127Y-96050552D01*
X134425697Y-96089328D01*
X134425694Y-96089328D01*
X134420060Y-96090382D01*
X134414717Y-96092451D01*
X134414713Y-96092453D01*
X134217941Y-96168683D01*
X134217936Y-96168685D01*
X134212599Y-96170753D01*
X134207727Y-96173769D01*
X134207724Y-96173771D01*
X134028309Y-96284859D01*
X134028301Y-96284864D01*
X134023438Y-96287876D01*
X134019207Y-96291732D01*
X134019203Y-96291736D01*
X133863259Y-96433897D01*
X133863249Y-96433907D01*
X133859019Y-96437764D01*
X133855570Y-96442330D01*
X133855561Y-96442341D01*
X133728394Y-96610738D01*
X133728387Y-96610748D01*
X133724942Y-96615311D01*
X133722392Y-96620431D01*
X133722387Y-96620440D01*
X133628325Y-96809341D01*
X133628321Y-96809349D01*
X133625771Y-96814472D01*
X133624205Y-96819975D01*
X133624201Y-96819986D01*
X133566454Y-97022949D01*
X133564885Y-97028464D01*
X133544357Y-97250000D01*
X130177016Y-97250000D01*
X130124229Y-97064472D01*
X130025058Y-96865311D01*
X130021605Y-96860738D01*
X129894438Y-96692341D01*
X129894434Y-96692337D01*
X129890981Y-96687764D01*
X129886744Y-96683901D01*
X129886740Y-96683897D01*
X129730796Y-96541736D01*
X129730797Y-96541736D01*
X129726562Y-96537876D01*
X129721692Y-96534861D01*
X129721690Y-96534859D01*
X129542275Y-96423771D01*
X129542276Y-96423771D01*
X129537401Y-96420753D01*
X129329940Y-96340382D01*
X129324302Y-96339328D01*
X129116872Y-96300552D01*
X129116869Y-96300551D01*
X129111243Y-96299500D01*
X128888757Y-96299500D01*
X128883131Y-96300551D01*
X128883127Y-96300552D01*
X128675697Y-96339328D01*
X128675694Y-96339328D01*
X128670060Y-96340382D01*
X128664717Y-96342451D01*
X128664713Y-96342453D01*
X128467941Y-96418683D01*
X128467936Y-96418685D01*
X128462599Y-96420753D01*
X128457727Y-96423769D01*
X128457724Y-96423771D01*
X128278309Y-96534859D01*
X128278301Y-96534864D01*
X128273438Y-96537876D01*
X128269207Y-96541732D01*
X128269203Y-96541736D01*
X128113259Y-96683897D01*
X128113249Y-96683907D01*
X128109019Y-96687764D01*
X128105570Y-96692330D01*
X128105561Y-96692341D01*
X127978394Y-96860738D01*
X127978387Y-96860748D01*
X127974942Y-96865311D01*
X127972392Y-96870431D01*
X127972387Y-96870440D01*
X127878325Y-97059341D01*
X127878321Y-97059349D01*
X127875771Y-97064472D01*
X127874205Y-97069975D01*
X127874201Y-97069986D01*
X127821359Y-97255709D01*
X127814885Y-97278464D01*
X127794357Y-97500000D01*
X123705643Y-97500000D01*
X123685115Y-97278464D01*
X123624229Y-97064472D01*
X123525058Y-96865311D01*
X123521605Y-96860738D01*
X123394438Y-96692341D01*
X123394434Y-96692337D01*
X123390981Y-96687764D01*
X123386744Y-96683901D01*
X123386740Y-96683897D01*
X123230796Y-96541736D01*
X123230797Y-96541736D01*
X123226562Y-96537876D01*
X123221692Y-96534861D01*
X123221690Y-96534859D01*
X123042275Y-96423771D01*
X123042276Y-96423771D01*
X123037401Y-96420753D01*
X122829940Y-96340382D01*
X122824302Y-96339328D01*
X122616872Y-96300552D01*
X122616869Y-96300551D01*
X122611243Y-96299500D01*
X122388757Y-96299500D01*
X122383131Y-96300551D01*
X122383127Y-96300552D01*
X122175697Y-96339328D01*
X122175694Y-96339328D01*
X122170060Y-96340382D01*
X122164717Y-96342451D01*
X122164713Y-96342453D01*
X121967941Y-96418683D01*
X121967936Y-96418685D01*
X121962599Y-96420753D01*
X121957727Y-96423769D01*
X121957724Y-96423771D01*
X121778309Y-96534859D01*
X121778301Y-96534864D01*
X121773438Y-96537876D01*
X121769207Y-96541732D01*
X121769203Y-96541736D01*
X121613259Y-96683897D01*
X121613249Y-96683907D01*
X121609019Y-96687764D01*
X121605570Y-96692330D01*
X121605561Y-96692341D01*
X121478394Y-96860738D01*
X121478387Y-96860748D01*
X121474942Y-96865311D01*
X121472392Y-96870431D01*
X121472387Y-96870440D01*
X121378325Y-97059341D01*
X121378321Y-97059349D01*
X121375771Y-97064472D01*
X121374205Y-97069975D01*
X121374201Y-97069986D01*
X121321359Y-97255709D01*
X121314885Y-97278464D01*
X121294357Y-97500000D01*
X107335500Y-97500000D01*
X107335500Y-95124000D01*
X107352113Y-95062000D01*
X107397500Y-95016613D01*
X107459500Y-95000000D01*
X139983674Y-95000000D01*
X140000000Y-95000000D01*
X140000000Y-92624000D01*
X140016613Y-92562000D01*
X140062000Y-92516613D01*
X140124000Y-92500000D01*
X146376000Y-92500000D01*
X146438000Y-92516613D01*
G37*
%TD.AperFunction*%
%TD*%
M02*
