%TF.GenerationSoftware,KiCad,Pcbnew,7.0.1*%
%TF.CreationDate,2023-09-23T10:11:30-05:00*%
%TF.ProjectId,Power_Supply,506f7765-725f-4537-9570-706c792e6b69,1*%
%TF.SameCoordinates,Original*%
%TF.FileFunction,Copper,L4,Bot*%
%TF.FilePolarity,Positive*%
%FSLAX46Y46*%
G04 Gerber Fmt 4.6, Leading zero omitted, Abs format (unit mm)*
G04 Created by KiCad (PCBNEW 7.0.1) date 2023-09-23 10:11:30*
%MOMM*%
%LPD*%
G01*
G04 APERTURE LIST*
%TA.AperFunction,ComponentPad*%
%ADD10C,1.800000*%
%TD*%
%TA.AperFunction,ComponentPad*%
%ADD11C,4.500000*%
%TD*%
%TA.AperFunction,ComponentPad*%
%ADD12R,1.700000X1.700000*%
%TD*%
%TA.AperFunction,ComponentPad*%
%ADD13O,1.700000X1.700000*%
%TD*%
%TA.AperFunction,ComponentPad*%
%ADD14R,4.000000X4.000000*%
%TD*%
%TA.AperFunction,ComponentPad*%
%ADD15C,3.300000*%
%TD*%
%TA.AperFunction,ComponentPad*%
%ADD16C,3.500000*%
%TD*%
%TA.AperFunction,ComponentPad*%
%ADD17C,2.600000*%
%TD*%
%TA.AperFunction,ComponentPad*%
%ADD18C,2.000000*%
%TD*%
%TA.AperFunction,ViaPad*%
%ADD19C,0.800000*%
%TD*%
G04 APERTURE END LIST*
D10*
%TO.P,VR1,1,CCW*%
%TO.N,ADC*%
X140970000Y-94996000D03*
%TO.P,VR1,2,WIPER*%
%TO.N,CW*%
X140970000Y-97496000D03*
%TO.P,VR1,3,CW*%
X140970000Y-99996000D03*
D11*
%TO.P,VR1,MH1,MH1*%
%TO.N,GND*%
X147970000Y-93096000D03*
%TO.P,VR1,MH2,MH2*%
X147970000Y-101896000D03*
%TD*%
D12*
%TO.P,+,1,Pin_1*%
%TO.N,ADC*%
X115321000Y-106167000D03*
D13*
%TO.P,+,2,Pin_2*%
X115321000Y-108707000D03*
%TO.P,+,3,Pin_3*%
%TO.N,GND*%
X112781000Y-106167000D03*
%TO.P,+,4,Pin_4*%
X112781000Y-108707000D03*
%TD*%
D14*
%TO.P,J1,1*%
%TO.N,/MCU_POWER/JACK_OUT*%
X148500000Y-60250000D03*
D15*
%TO.P,J1,2*%
%TO.N,GND*%
X148500000Y-54250000D03*
D16*
%TO.P,J1,MP*%
%TO.N,N/C*%
X153000000Y-53250000D03*
X144000000Y-53250000D03*
%TD*%
D12*
%TO.P,J3,1,Pin_1*%
%TO.N,+3.3V*%
X109750000Y-59250000D03*
D13*
%TO.P,J3,2,Pin_2*%
%TO.N,SCL*%
X109750000Y-61790000D03*
%TO.P,J3,3,Pin_3*%
%TO.N,SDA*%
X109750000Y-64330000D03*
%TO.P,J3,4,Pin_4*%
%TO.N,GND*%
X109750000Y-66870000D03*
%TD*%
D17*
%TO.P,+,1,1*%
%TO.N,ADC*%
X116332000Y-100000000D03*
%TD*%
D18*
%TO.P,RST,1,1*%
%TO.N,GND*%
X129000000Y-102000000D03*
X122500000Y-102000000D03*
%TO.P,RST,2,2*%
%TO.N,/NRST*%
X129000000Y-97500000D03*
X122500000Y-97500000D03*
%TD*%
D17*
%TO.P,-,1,1*%
%TO.N,GND*%
X110998000Y-99822000D03*
%TD*%
D12*
%TO.P,J4,1,Pin_1*%
%TO.N,+3.3V*%
X127870000Y-57750000D03*
D13*
%TO.P,J4,2,Pin_2*%
%TO.N,SWCLK*%
X125330000Y-57750000D03*
%TO.P,J4,3,Pin_3*%
%TO.N,GND*%
X122790000Y-57750000D03*
%TO.P,J4,4,Pin_4*%
%TO.N,SWDIO*%
X120250000Y-57750000D03*
%TO.P,J4,5,Pin_5*%
%TO.N,SWO*%
X117710000Y-57750000D03*
%TD*%
D12*
%TO.P,J5,1,Pin_1*%
%TO.N,ADC*%
X160782000Y-106172000D03*
D13*
%TO.P,J5,2,Pin_2*%
X160782000Y-108712000D03*
%TO.P,J5,3,Pin_3*%
%TO.N,GND*%
X158242000Y-106172000D03*
%TO.P,J5,4,Pin_4*%
X158242000Y-108712000D03*
%TD*%
D19*
%TO.N,Net-(U1-PA1)*%
X119500000Y-80250000D03*
X117750000Y-93250000D03*
%TO.N,+3.3V*%
X151500000Y-86500000D03*
X151500000Y-87750000D03*
X156500000Y-87750000D03*
X152750000Y-86500000D03*
X159000000Y-87750000D03*
X154000000Y-87750000D03*
X130749999Y-77500000D03*
X115862500Y-87250000D03*
X157750000Y-86500000D03*
X152750000Y-87750000D03*
X159000000Y-86500000D03*
X126500000Y-87250000D03*
X123250000Y-66250000D03*
X157750000Y-87750000D03*
X117000000Y-66250000D03*
X118250000Y-52500000D03*
X156500000Y-86500000D03*
X154000000Y-86500000D03*
X155250000Y-86500000D03*
X119294269Y-66455731D03*
X120000000Y-87250000D03*
X155250000Y-87750000D03*
%TO.N,/NRST*%
X126000000Y-94000000D03*
X119000000Y-76500000D03*
%TO.N,SCL*%
X120500000Y-69750000D03*
%TO.N,SDA*%
X120000000Y-73500000D03*
%TO.N,SWCLK*%
X126500000Y-69750000D03*
%TO.N,SWDIO*%
X125750000Y-74250000D03*
%TO.N,SWO*%
X124250000Y-69750000D03*
%TO.N,ADC*%
X144018000Y-88870000D03*
X142748000Y-88860000D03*
X142748000Y-86828000D03*
X142748000Y-87884000D03*
X144018000Y-86838000D03*
X142748000Y-85852000D03*
X114500000Y-95750000D03*
X144018000Y-87884000D03*
X144018000Y-85852000D03*
%TO.N,CW*%
X139750000Y-84000000D03*
X135636000Y-85852000D03*
%TD*%
%TA.AperFunction,Conductor*%
%TO.N,+3.3V*%
G36*
X166834088Y-47758162D02*
G01*
X166883417Y-47768478D01*
X166945493Y-47795516D01*
X166976120Y-47814580D01*
X166999964Y-47841653D01*
X167024428Y-47879315D01*
X167039337Y-47911656D01*
X167044440Y-47946900D01*
X167029894Y-95122589D01*
X167013184Y-95184719D01*
X166967591Y-95230113D01*
X166905388Y-95246550D01*
X149647326Y-95176110D01*
X149590485Y-95162053D01*
X149546431Y-95123482D01*
X149524987Y-95068996D01*
X149530935Y-95010746D01*
X149562947Y-94961721D01*
X149759869Y-94776799D01*
X149956416Y-94539216D01*
X150121635Y-94278871D01*
X150252922Y-93999873D01*
X150348206Y-93706619D01*
X150405984Y-93403736D01*
X150425345Y-93096000D01*
X150405984Y-92788264D01*
X150348206Y-92485381D01*
X150293744Y-92317764D01*
X160895787Y-92317764D01*
X160925413Y-92587016D01*
X160959998Y-92719304D01*
X160993928Y-92849088D01*
X161099870Y-93098390D01*
X161099871Y-93098392D01*
X161240982Y-93329611D01*
X161330253Y-93436881D01*
X161414255Y-93537820D01*
X161615998Y-93718582D01*
X161841910Y-93868044D01*
X161900479Y-93895500D01*
X162087177Y-93983021D01*
X162346562Y-94061058D01*
X162346569Y-94061060D01*
X162614561Y-94100500D01*
X162817631Y-94100500D01*
X162817634Y-94100500D01*
X163020156Y-94085677D01*
X163020156Y-94085676D01*
X163284553Y-94026780D01*
X163537558Y-93930014D01*
X163773777Y-93797441D01*
X163988177Y-93631888D01*
X164176186Y-93436881D01*
X164333799Y-93216579D01*
X164457656Y-92975675D01*
X164545118Y-92719305D01*
X164594319Y-92452933D01*
X164604212Y-92182235D01*
X164574586Y-91912982D01*
X164506072Y-91650912D01*
X164400130Y-91401610D01*
X164279606Y-91204124D01*
X164259017Y-91170388D01*
X164085746Y-90962181D01*
X163980758Y-90868112D01*
X163884002Y-90781418D01*
X163658090Y-90631956D01*
X163658086Y-90631954D01*
X163412822Y-90516978D01*
X163153437Y-90438941D01*
X163153431Y-90438940D01*
X162885439Y-90399500D01*
X162682369Y-90399500D01*
X162682366Y-90399500D01*
X162479843Y-90414322D01*
X162215449Y-90473219D01*
X161962441Y-90569986D01*
X161726223Y-90702559D01*
X161511825Y-90868109D01*
X161323813Y-91063120D01*
X161166201Y-91283420D01*
X161042342Y-91524329D01*
X160954881Y-91780695D01*
X160905680Y-92047066D01*
X160895787Y-92317764D01*
X150293744Y-92317764D01*
X150252922Y-92192127D01*
X150248267Y-92182235D01*
X150121636Y-91913131D01*
X150121541Y-91912982D01*
X149956416Y-91652784D01*
X149954867Y-91650912D01*
X149759870Y-91415202D01*
X149535094Y-91204122D01*
X149285640Y-91022883D01*
X149015433Y-90874336D01*
X148728743Y-90760827D01*
X148430088Y-90684146D01*
X148124173Y-90645500D01*
X148124172Y-90645500D01*
X147815828Y-90645500D01*
X147815827Y-90645500D01*
X147509911Y-90684146D01*
X147211256Y-90760827D01*
X146924566Y-90874336D01*
X146654359Y-91022883D01*
X146404905Y-91204122D01*
X146180129Y-91415202D01*
X145983585Y-91652781D01*
X145818363Y-91913131D01*
X145687078Y-92192124D01*
X145591794Y-92485377D01*
X145534015Y-92788268D01*
X145514654Y-93096000D01*
X145534015Y-93403731D01*
X145591794Y-93706622D01*
X145687078Y-93999875D01*
X145818363Y-94278868D01*
X145983585Y-94539218D01*
X146180129Y-94776798D01*
X146362400Y-94947963D01*
X146394481Y-94997181D01*
X146400305Y-95055642D01*
X146378566Y-95110222D01*
X146334144Y-95148669D01*
X146277010Y-95162354D01*
X142196858Y-95145700D01*
X142131799Y-95126950D01*
X142086288Y-95076820D01*
X142073893Y-95010260D01*
X142075215Y-94996000D01*
X142056397Y-94792917D01*
X142000582Y-94596750D01*
X141964624Y-94524536D01*
X141909675Y-94414181D01*
X141786763Y-94251419D01*
X141636041Y-94114018D01*
X141462638Y-94006652D01*
X141272457Y-93932976D01*
X141205629Y-93920484D01*
X141071976Y-93895500D01*
X140868024Y-93895500D01*
X140767784Y-93914237D01*
X140667542Y-93932976D01*
X140477361Y-94006652D01*
X140303958Y-94114018D01*
X140153236Y-94251419D01*
X140030324Y-94414181D01*
X139939418Y-94596748D01*
X139883602Y-94792916D01*
X139864785Y-94996000D01*
X139865178Y-95000243D01*
X139852629Y-95067104D01*
X139806695Y-95117283D01*
X139741200Y-95135677D01*
X107458994Y-95003914D01*
X107397208Y-94987133D01*
X107352029Y-94941769D01*
X107335500Y-94879915D01*
X107335500Y-92317764D01*
X109895787Y-92317764D01*
X109925413Y-92587016D01*
X109959998Y-92719304D01*
X109993928Y-92849088D01*
X110099870Y-93098390D01*
X110099871Y-93098392D01*
X110240982Y-93329611D01*
X110330253Y-93436881D01*
X110414255Y-93537820D01*
X110615998Y-93718582D01*
X110841910Y-93868044D01*
X110900479Y-93895500D01*
X111087177Y-93983021D01*
X111346562Y-94061058D01*
X111346569Y-94061060D01*
X111614561Y-94100500D01*
X111817631Y-94100500D01*
X111817634Y-94100500D01*
X112020156Y-94085677D01*
X112020156Y-94085676D01*
X112284553Y-94026780D01*
X112354572Y-94000000D01*
X125394317Y-94000000D01*
X125414956Y-94156762D01*
X125475463Y-94302840D01*
X125571717Y-94428282D01*
X125697158Y-94524535D01*
X125697159Y-94524536D01*
X125843238Y-94585044D01*
X126000000Y-94605682D01*
X126156762Y-94585044D01*
X126302841Y-94524536D01*
X126428282Y-94428282D01*
X126524536Y-94302841D01*
X126585044Y-94156762D01*
X126605682Y-94000000D01*
X126585044Y-93843238D01*
X126524536Y-93697159D01*
X126510051Y-93678282D01*
X126428282Y-93571717D01*
X126302840Y-93475463D01*
X126156762Y-93414956D01*
X126000000Y-93394317D01*
X125843237Y-93414956D01*
X125697159Y-93475463D01*
X125571717Y-93571717D01*
X125475463Y-93697159D01*
X125414956Y-93843237D01*
X125394317Y-94000000D01*
X112354572Y-94000000D01*
X112537558Y-93930014D01*
X112773777Y-93797441D01*
X112988177Y-93631888D01*
X113176186Y-93436881D01*
X113309888Y-93250000D01*
X117144317Y-93250000D01*
X117164956Y-93406762D01*
X117225463Y-93552840D01*
X117321717Y-93678282D01*
X117374238Y-93718582D01*
X117447159Y-93774536D01*
X117593238Y-93835044D01*
X117750000Y-93855682D01*
X117906762Y-93835044D01*
X118052841Y-93774536D01*
X118178282Y-93678282D01*
X118274536Y-93552841D01*
X118335044Y-93406762D01*
X118355682Y-93250000D01*
X118335044Y-93093238D01*
X118274536Y-92947159D01*
X118199284Y-92849088D01*
X118178282Y-92821717D01*
X118052840Y-92725463D01*
X117906762Y-92664956D01*
X117750000Y-92644317D01*
X117593237Y-92664956D01*
X117447159Y-92725463D01*
X117321717Y-92821717D01*
X117225463Y-92947159D01*
X117164956Y-93093237D01*
X117144317Y-93250000D01*
X113309888Y-93250000D01*
X113333799Y-93216579D01*
X113457656Y-92975675D01*
X113545118Y-92719305D01*
X113594319Y-92452933D01*
X113604212Y-92182235D01*
X113574586Y-91912982D01*
X113506072Y-91650912D01*
X113400130Y-91401610D01*
X113279606Y-91204124D01*
X113259017Y-91170388D01*
X113085746Y-90962181D01*
X112980758Y-90868112D01*
X112884002Y-90781418D01*
X112658090Y-90631956D01*
X112658086Y-90631954D01*
X112412822Y-90516978D01*
X112153437Y-90438941D01*
X112153431Y-90438940D01*
X111885439Y-90399500D01*
X111682369Y-90399500D01*
X111682366Y-90399500D01*
X111479843Y-90414322D01*
X111215449Y-90473219D01*
X110962441Y-90569986D01*
X110726223Y-90702559D01*
X110511825Y-90868109D01*
X110323813Y-91063120D01*
X110166201Y-91283420D01*
X110042342Y-91524329D01*
X109954881Y-91780695D01*
X109905680Y-92047066D01*
X109895787Y-92317764D01*
X107335500Y-92317764D01*
X107335500Y-88860000D01*
X142142317Y-88860000D01*
X142162956Y-89016762D01*
X142223463Y-89162840D01*
X142319717Y-89288282D01*
X142445158Y-89384535D01*
X142445159Y-89384536D01*
X142591238Y-89445044D01*
X142748000Y-89465682D01*
X142904762Y-89445044D01*
X143050841Y-89384536D01*
X143176282Y-89288282D01*
X143272536Y-89162841D01*
X143272535Y-89162841D01*
X143282474Y-89149890D01*
X143285119Y-89151920D01*
X143300019Y-89131218D01*
X143351617Y-89104699D01*
X143409630Y-89104552D01*
X143461361Y-89130810D01*
X143482875Y-89160388D01*
X143483526Y-89159890D01*
X143589717Y-89298282D01*
X143702127Y-89384536D01*
X143715159Y-89394536D01*
X143861238Y-89455044D01*
X144018000Y-89475682D01*
X144174762Y-89455044D01*
X144320841Y-89394536D01*
X144446282Y-89298282D01*
X144542536Y-89172841D01*
X144603044Y-89026762D01*
X144623682Y-88870000D01*
X144603044Y-88713238D01*
X144555760Y-88599084D01*
X144542537Y-88567161D01*
X144542536Y-88567160D01*
X144542536Y-88567159D01*
X144454541Y-88452482D01*
X144431859Y-88403839D01*
X144431859Y-88350161D01*
X144454541Y-88301517D01*
X144542536Y-88186841D01*
X144603044Y-88040762D01*
X144623682Y-87884000D01*
X144603044Y-87727238D01*
X144542536Y-87581159D01*
X144446282Y-87455718D01*
X144436344Y-87442766D01*
X144437003Y-87442260D01*
X144415324Y-87415846D01*
X144402535Y-87361000D01*
X144415324Y-87306154D01*
X144437003Y-87279739D01*
X144436344Y-87279234D01*
X144472239Y-87232453D01*
X144542536Y-87140841D01*
X144603044Y-86994762D01*
X144623682Y-86838000D01*
X144603044Y-86681238D01*
X144555760Y-86567084D01*
X144542537Y-86535161D01*
X144542536Y-86535160D01*
X144542536Y-86535159D01*
X144454541Y-86420482D01*
X144431859Y-86371839D01*
X144431859Y-86318161D01*
X144454541Y-86269517D01*
X144542536Y-86154841D01*
X144603044Y-86008762D01*
X144623682Y-85852000D01*
X144603044Y-85695238D01*
X144542536Y-85549159D01*
X144446282Y-85423717D01*
X144320840Y-85327463D01*
X144174762Y-85266956D01*
X144018000Y-85246317D01*
X143861237Y-85266956D01*
X143715159Y-85327463D01*
X143589717Y-85423717D01*
X143483526Y-85562110D01*
X143481881Y-85560847D01*
X143463529Y-85586106D01*
X143411946Y-85612388D01*
X143354054Y-85612388D01*
X143302471Y-85586106D01*
X143284118Y-85560847D01*
X143282474Y-85562110D01*
X143176282Y-85423717D01*
X143050840Y-85327463D01*
X142904762Y-85266956D01*
X142748000Y-85246317D01*
X142591237Y-85266956D01*
X142445159Y-85327463D01*
X142319717Y-85423717D01*
X142223463Y-85549159D01*
X142162956Y-85695237D01*
X142142317Y-85851999D01*
X142162956Y-86008762D01*
X142223463Y-86154840D01*
X142307618Y-86264513D01*
X142330303Y-86313160D01*
X142330303Y-86366837D01*
X142307618Y-86415485D01*
X142223463Y-86525159D01*
X142162956Y-86671237D01*
X142142317Y-86828000D01*
X142162956Y-86984762D01*
X142223463Y-87130840D01*
X142319717Y-87256281D01*
X142321468Y-87257625D01*
X142357193Y-87301157D01*
X142369980Y-87356000D01*
X142357193Y-87410843D01*
X142321468Y-87454375D01*
X142319717Y-87455718D01*
X142223463Y-87581159D01*
X142162956Y-87727237D01*
X142142317Y-87883999D01*
X142162956Y-88040762D01*
X142223463Y-88186840D01*
X142307618Y-88296513D01*
X142330303Y-88345160D01*
X142330303Y-88398837D01*
X142307618Y-88447485D01*
X142223463Y-88557159D01*
X142162956Y-88703237D01*
X142142317Y-88860000D01*
X107335500Y-88860000D01*
X107335500Y-85851999D01*
X135030317Y-85851999D01*
X135050956Y-86008762D01*
X135111463Y-86154840D01*
X135207717Y-86280282D01*
X135327036Y-86371838D01*
X135333159Y-86376536D01*
X135479238Y-86437044D01*
X135636000Y-86457682D01*
X135792762Y-86437044D01*
X135938841Y-86376536D01*
X136064282Y-86280282D01*
X136160536Y-86154841D01*
X136221044Y-86008762D01*
X136241682Y-85852000D01*
X136221044Y-85695238D01*
X136160536Y-85549159D01*
X136064282Y-85423717D01*
X135938840Y-85327463D01*
X135792762Y-85266956D01*
X135636000Y-85246317D01*
X135479237Y-85266956D01*
X135333159Y-85327463D01*
X135207717Y-85423717D01*
X135111463Y-85549159D01*
X135050956Y-85695237D01*
X135030317Y-85851999D01*
X107335500Y-85851999D01*
X107335500Y-84000000D01*
X139144317Y-84000000D01*
X139164956Y-84156762D01*
X139225463Y-84302840D01*
X139321717Y-84428282D01*
X139447159Y-84524536D01*
X139593238Y-84585044D01*
X139750000Y-84605682D01*
X139906762Y-84585044D01*
X140052841Y-84524536D01*
X140178282Y-84428282D01*
X140274536Y-84302841D01*
X140335044Y-84156762D01*
X140355682Y-84000000D01*
X140335044Y-83843238D01*
X140274536Y-83697159D01*
X140178282Y-83571717D01*
X140052840Y-83475463D01*
X139906762Y-83414956D01*
X139750000Y-83394317D01*
X139593237Y-83414956D01*
X139447159Y-83475463D01*
X139321717Y-83571717D01*
X139225463Y-83697159D01*
X139164956Y-83843237D01*
X139144317Y-84000000D01*
X107335500Y-84000000D01*
X107335500Y-80250000D01*
X118894317Y-80250000D01*
X118914956Y-80406762D01*
X118975463Y-80552840D01*
X119071717Y-80678282D01*
X119197158Y-80774535D01*
X119197159Y-80774536D01*
X119343238Y-80835044D01*
X119500000Y-80855682D01*
X119656762Y-80835044D01*
X119802841Y-80774536D01*
X119928282Y-80678282D01*
X120024536Y-80552841D01*
X120085044Y-80406762D01*
X120105682Y-80250000D01*
X120085044Y-80093238D01*
X120024536Y-79947159D01*
X120024535Y-79947158D01*
X119928282Y-79821717D01*
X119802840Y-79725463D01*
X119656762Y-79664956D01*
X119500000Y-79644317D01*
X119343237Y-79664956D01*
X119197159Y-79725463D01*
X119071717Y-79821717D01*
X118975463Y-79947159D01*
X118914956Y-80093237D01*
X118894317Y-80250000D01*
X107335500Y-80250000D01*
X107335500Y-76500000D01*
X118394317Y-76500000D01*
X118414956Y-76656762D01*
X118475463Y-76802840D01*
X118571717Y-76928282D01*
X118697159Y-77024536D01*
X118843238Y-77085044D01*
X119000000Y-77105682D01*
X119156762Y-77085044D01*
X119302841Y-77024536D01*
X119428282Y-76928282D01*
X119524536Y-76802841D01*
X119585044Y-76656762D01*
X119605682Y-76500000D01*
X119585044Y-76343238D01*
X119524536Y-76197159D01*
X119524535Y-76197158D01*
X119428282Y-76071717D01*
X119302840Y-75975463D01*
X119156762Y-75914956D01*
X119000000Y-75894317D01*
X118843237Y-75914956D01*
X118697159Y-75975463D01*
X118571717Y-76071717D01*
X118475463Y-76197159D01*
X118414956Y-76343237D01*
X118394317Y-76500000D01*
X107335500Y-76500000D01*
X107335500Y-74250000D01*
X125144317Y-74250000D01*
X125164956Y-74406762D01*
X125225463Y-74552840D01*
X125321717Y-74678282D01*
X125447159Y-74774536D01*
X125593238Y-74835044D01*
X125750000Y-74855682D01*
X125906762Y-74835044D01*
X126052841Y-74774536D01*
X126178282Y-74678282D01*
X126274536Y-74552841D01*
X126335044Y-74406762D01*
X126355682Y-74250000D01*
X126335044Y-74093238D01*
X126274536Y-73947159D01*
X126260051Y-73928282D01*
X126178282Y-73821717D01*
X126052840Y-73725463D01*
X125906762Y-73664956D01*
X125750000Y-73644317D01*
X125593237Y-73664956D01*
X125447159Y-73725463D01*
X125321717Y-73821717D01*
X125225463Y-73947159D01*
X125164956Y-74093237D01*
X125144317Y-74250000D01*
X107335500Y-74250000D01*
X107335500Y-73499999D01*
X119394317Y-73499999D01*
X119414956Y-73656762D01*
X119475463Y-73802840D01*
X119571717Y-73928282D01*
X119697159Y-74024536D01*
X119843238Y-74085044D01*
X120000000Y-74105682D01*
X120156762Y-74085044D01*
X120302841Y-74024536D01*
X120428282Y-73928282D01*
X120524536Y-73802841D01*
X120585044Y-73656762D01*
X120605682Y-73500000D01*
X120585044Y-73343238D01*
X120524536Y-73197159D01*
X120524535Y-73197158D01*
X120428282Y-73071717D01*
X120302840Y-72975463D01*
X120156762Y-72914956D01*
X120000000Y-72894317D01*
X119843237Y-72914956D01*
X119697159Y-72975463D01*
X119571717Y-73071717D01*
X119475463Y-73197159D01*
X119414956Y-73343237D01*
X119394317Y-73499999D01*
X107335500Y-73499999D01*
X107335500Y-69749999D01*
X119894317Y-69749999D01*
X119914956Y-69906762D01*
X119975463Y-70052840D01*
X120071717Y-70178282D01*
X120197159Y-70274536D01*
X120343238Y-70335044D01*
X120500000Y-70355682D01*
X120656762Y-70335044D01*
X120802841Y-70274536D01*
X120928282Y-70178282D01*
X121024536Y-70052841D01*
X121085044Y-69906762D01*
X121105682Y-69750000D01*
X121105682Y-69749999D01*
X123644317Y-69749999D01*
X123664956Y-69906762D01*
X123725463Y-70052840D01*
X123821717Y-70178282D01*
X123947159Y-70274536D01*
X124093238Y-70335044D01*
X124250000Y-70355682D01*
X124406762Y-70335044D01*
X124552841Y-70274536D01*
X124678282Y-70178282D01*
X124774536Y-70052841D01*
X124835044Y-69906762D01*
X124855682Y-69750000D01*
X125894317Y-69750000D01*
X125914956Y-69906762D01*
X125975463Y-70052840D01*
X126071717Y-70178282D01*
X126197159Y-70274536D01*
X126343238Y-70335044D01*
X126500000Y-70355682D01*
X126656762Y-70335044D01*
X126802841Y-70274536D01*
X126928282Y-70178282D01*
X127024536Y-70052841D01*
X127085044Y-69906762D01*
X127105682Y-69750000D01*
X127085044Y-69593238D01*
X127024536Y-69447159D01*
X126928282Y-69321717D01*
X126802840Y-69225463D01*
X126656762Y-69164956D01*
X126500000Y-69144317D01*
X126343237Y-69164956D01*
X126197159Y-69225463D01*
X126071717Y-69321717D01*
X125975463Y-69447159D01*
X125914956Y-69593237D01*
X125894317Y-69750000D01*
X124855682Y-69750000D01*
X124835044Y-69593238D01*
X124774536Y-69447159D01*
X124678282Y-69321717D01*
X124552840Y-69225463D01*
X124406762Y-69164956D01*
X124250000Y-69144317D01*
X124093237Y-69164956D01*
X123947159Y-69225463D01*
X123821717Y-69321717D01*
X123725463Y-69447159D01*
X123664956Y-69593237D01*
X123644317Y-69749999D01*
X121105682Y-69749999D01*
X121085044Y-69593238D01*
X121024536Y-69447159D01*
X120928282Y-69321717D01*
X120802840Y-69225463D01*
X120656762Y-69164956D01*
X120500000Y-69144317D01*
X120343237Y-69164956D01*
X120197159Y-69225463D01*
X120071717Y-69321717D01*
X119975463Y-69447159D01*
X119914956Y-69593237D01*
X119894317Y-69749999D01*
X107335500Y-69749999D01*
X107335500Y-66870000D01*
X108694417Y-66870000D01*
X108714699Y-67075932D01*
X108714700Y-67075934D01*
X108774768Y-67273954D01*
X108872315Y-67456450D01*
X108923608Y-67518952D01*
X109003589Y-67616410D01*
X109083570Y-67682047D01*
X109163550Y-67747685D01*
X109346046Y-67845232D01*
X109544066Y-67905300D01*
X109750000Y-67925583D01*
X109955934Y-67905300D01*
X110153954Y-67845232D01*
X110336450Y-67747685D01*
X110496410Y-67616410D01*
X110627685Y-67456450D01*
X110725232Y-67273954D01*
X110785300Y-67075934D01*
X110805583Y-66870000D01*
X110785300Y-66664066D01*
X110725232Y-66466046D01*
X110627685Y-66283550D01*
X110562047Y-66203569D01*
X110496410Y-66123589D01*
X110398952Y-66043608D01*
X110336450Y-65992315D01*
X110153954Y-65894768D01*
X110054943Y-65864733D01*
X109955932Y-65834699D01*
X109750000Y-65814417D01*
X109544067Y-65834699D01*
X109346043Y-65894769D01*
X109163551Y-65992314D01*
X109003589Y-66123589D01*
X108872314Y-66283551D01*
X108774769Y-66466043D01*
X108714699Y-66664067D01*
X108694417Y-66870000D01*
X107335500Y-66870000D01*
X107335500Y-64329999D01*
X108694417Y-64329999D01*
X108714699Y-64535932D01*
X108714700Y-64535934D01*
X108774768Y-64733954D01*
X108872315Y-64916450D01*
X108923609Y-64978952D01*
X109003589Y-65076410D01*
X109083570Y-65142047D01*
X109163550Y-65207685D01*
X109346046Y-65305232D01*
X109544066Y-65365300D01*
X109750000Y-65385583D01*
X109955934Y-65365300D01*
X110153954Y-65305232D01*
X110336450Y-65207685D01*
X110496410Y-65076410D01*
X110627685Y-64916450D01*
X110725232Y-64733954D01*
X110785300Y-64535934D01*
X110805583Y-64330000D01*
X110785300Y-64124066D01*
X110725232Y-63926046D01*
X110627685Y-63743550D01*
X110562047Y-63663570D01*
X110496410Y-63583589D01*
X110398952Y-63503609D01*
X110336450Y-63452315D01*
X110153954Y-63354768D01*
X110054944Y-63324734D01*
X109955932Y-63294699D01*
X109750000Y-63274417D01*
X109544067Y-63294699D01*
X109346043Y-63354769D01*
X109163551Y-63452314D01*
X109003589Y-63583589D01*
X108872314Y-63743551D01*
X108774769Y-63926043D01*
X108714699Y-64124067D01*
X108694417Y-64329999D01*
X107335500Y-64329999D01*
X107335500Y-59500000D01*
X108400000Y-59500000D01*
X108400000Y-60147824D01*
X108406402Y-60207375D01*
X108456647Y-60342089D01*
X108542811Y-60457188D01*
X108657910Y-60543352D01*
X108792624Y-60593597D01*
X108852176Y-60600000D01*
X109252814Y-60600000D01*
X109315515Y-60617021D01*
X109361003Y-60663411D01*
X109376790Y-60726434D01*
X109358541Y-60788790D01*
X109311267Y-60833358D01*
X109163551Y-60912314D01*
X109003589Y-61043589D01*
X108872314Y-61203551D01*
X108774769Y-61386043D01*
X108714699Y-61584067D01*
X108694417Y-61790000D01*
X108714699Y-61995932D01*
X108714700Y-61995934D01*
X108774768Y-62193954D01*
X108872315Y-62376450D01*
X108887171Y-62394552D01*
X109003589Y-62536410D01*
X109083569Y-62602047D01*
X109163550Y-62667685D01*
X109346046Y-62765232D01*
X109544066Y-62825300D01*
X109750000Y-62845583D01*
X109955934Y-62825300D01*
X110153954Y-62765232D01*
X110336450Y-62667685D01*
X110496410Y-62536410D01*
X110627685Y-62376450D01*
X110684718Y-62269749D01*
X146299500Y-62269749D01*
X146311132Y-62328230D01*
X146355447Y-62394552D01*
X146421769Y-62438867D01*
X146480251Y-62450500D01*
X146480252Y-62450500D01*
X150519748Y-62450500D01*
X150519749Y-62450500D01*
X150548989Y-62444683D01*
X150578231Y-62438867D01*
X150644552Y-62394552D01*
X150688867Y-62328231D01*
X150700500Y-62269748D01*
X150700500Y-58230252D01*
X150688867Y-58171769D01*
X150666969Y-58138997D01*
X150644552Y-58105447D01*
X150578230Y-58061132D01*
X150519749Y-58049500D01*
X150519748Y-58049500D01*
X146480252Y-58049500D01*
X146480251Y-58049500D01*
X146421769Y-58061132D01*
X146355447Y-58105447D01*
X146311132Y-58171769D01*
X146299500Y-58230251D01*
X146299500Y-62269749D01*
X110684718Y-62269749D01*
X110725232Y-62193954D01*
X110785300Y-61995934D01*
X110805583Y-61790000D01*
X110785300Y-61584066D01*
X110725232Y-61386046D01*
X110627685Y-61203550D01*
X110562047Y-61123570D01*
X110496410Y-61043589D01*
X110398952Y-60963608D01*
X110336450Y-60912315D01*
X110188732Y-60833357D01*
X110141459Y-60788790D01*
X110123210Y-60726434D01*
X110138997Y-60663411D01*
X110184485Y-60617021D01*
X110247186Y-60600000D01*
X110647824Y-60600000D01*
X110707375Y-60593597D01*
X110842089Y-60543352D01*
X110957188Y-60457188D01*
X111043352Y-60342089D01*
X111093597Y-60207375D01*
X111100000Y-60147824D01*
X111100000Y-59500000D01*
X108400000Y-59500000D01*
X107335500Y-59500000D01*
X107335500Y-59000000D01*
X108400000Y-59000000D01*
X109500000Y-59000000D01*
X109500000Y-57900000D01*
X110000000Y-57900000D01*
X110000000Y-59000000D01*
X111100000Y-59000000D01*
X111100000Y-58352176D01*
X111093597Y-58292624D01*
X111043352Y-58157910D01*
X110957188Y-58042811D01*
X110842089Y-57956647D01*
X110707375Y-57906402D01*
X110647824Y-57900000D01*
X110000000Y-57900000D01*
X109500000Y-57900000D01*
X108852176Y-57900000D01*
X108792624Y-57906402D01*
X108657910Y-57956647D01*
X108542811Y-58042811D01*
X108456647Y-58157910D01*
X108406402Y-58292624D01*
X108400000Y-58352176D01*
X108400000Y-59000000D01*
X107335500Y-59000000D01*
X107335500Y-57750000D01*
X116654417Y-57750000D01*
X116674699Y-57955932D01*
X116734769Y-58153956D01*
X116744290Y-58171769D01*
X116832315Y-58336450D01*
X116845221Y-58352176D01*
X116963589Y-58496410D01*
X117043570Y-58562047D01*
X117123550Y-58627685D01*
X117306046Y-58725232D01*
X117504066Y-58785300D01*
X117710000Y-58805583D01*
X117915934Y-58785300D01*
X118113954Y-58725232D01*
X118296450Y-58627685D01*
X118456410Y-58496410D01*
X118587685Y-58336450D01*
X118685232Y-58153954D01*
X118745300Y-57955934D01*
X118765583Y-57750000D01*
X119194417Y-57750000D01*
X119214699Y-57955932D01*
X119274769Y-58153956D01*
X119284290Y-58171769D01*
X119372315Y-58336450D01*
X119385221Y-58352176D01*
X119503589Y-58496410D01*
X119583570Y-58562047D01*
X119663550Y-58627685D01*
X119846046Y-58725232D01*
X120044066Y-58785300D01*
X120250000Y-58805583D01*
X120455934Y-58785300D01*
X120653954Y-58725232D01*
X120836450Y-58627685D01*
X120996410Y-58496410D01*
X121127685Y-58336450D01*
X121225232Y-58153954D01*
X121285300Y-57955934D01*
X121305583Y-57750000D01*
X121734417Y-57750000D01*
X121754699Y-57955932D01*
X121814769Y-58153956D01*
X121824290Y-58171769D01*
X121912315Y-58336450D01*
X121925221Y-58352176D01*
X122043589Y-58496410D01*
X122123570Y-58562047D01*
X122203550Y-58627685D01*
X122386046Y-58725232D01*
X122584066Y-58785300D01*
X122790000Y-58805583D01*
X122995934Y-58785300D01*
X123193954Y-58725232D01*
X123376450Y-58627685D01*
X123536410Y-58496410D01*
X123667685Y-58336450D01*
X123765232Y-58153954D01*
X123825300Y-57955934D01*
X123845583Y-57750000D01*
X124274417Y-57750000D01*
X124294699Y-57955932D01*
X124354769Y-58153956D01*
X124364290Y-58171769D01*
X124452315Y-58336450D01*
X124465221Y-58352176D01*
X124583589Y-58496410D01*
X124663570Y-58562047D01*
X124743550Y-58627685D01*
X124926046Y-58725232D01*
X125124066Y-58785300D01*
X125330000Y-58805583D01*
X125535934Y-58785300D01*
X125733954Y-58725232D01*
X125916450Y-58627685D01*
X126076410Y-58496410D01*
X126207685Y-58336450D01*
X126286642Y-58188732D01*
X126331210Y-58141459D01*
X126393566Y-58123210D01*
X126456589Y-58138997D01*
X126502979Y-58184485D01*
X126520000Y-58247186D01*
X126520000Y-58647824D01*
X126526402Y-58707375D01*
X126576647Y-58842089D01*
X126662811Y-58957188D01*
X126777910Y-59043352D01*
X126912624Y-59093597D01*
X126972176Y-59100000D01*
X127620000Y-59100000D01*
X127620000Y-58000000D01*
X128120000Y-58000000D01*
X128120000Y-59100000D01*
X128767824Y-59100000D01*
X128827375Y-59093597D01*
X128962089Y-59043352D01*
X129077188Y-58957188D01*
X129163352Y-58842089D01*
X129213597Y-58707375D01*
X129220000Y-58647824D01*
X129220000Y-58000000D01*
X128120000Y-58000000D01*
X127620000Y-58000000D01*
X127620000Y-56400000D01*
X128120000Y-56400000D01*
X128120000Y-57500000D01*
X129220000Y-57500000D01*
X129220000Y-56852176D01*
X129213597Y-56792624D01*
X129163352Y-56657910D01*
X129077188Y-56542811D01*
X128962089Y-56456647D01*
X128827375Y-56406402D01*
X128767824Y-56400000D01*
X128120000Y-56400000D01*
X127620000Y-56400000D01*
X126972176Y-56400000D01*
X126912624Y-56406402D01*
X126777910Y-56456647D01*
X126662811Y-56542811D01*
X126576647Y-56657910D01*
X126526402Y-56792624D01*
X126520000Y-56852176D01*
X126520000Y-57252814D01*
X126502979Y-57315515D01*
X126456589Y-57361003D01*
X126393566Y-57376790D01*
X126331210Y-57358541D01*
X126286642Y-57311267D01*
X126255398Y-57252814D01*
X126207685Y-57163550D01*
X126142047Y-57083570D01*
X126076410Y-57003589D01*
X125978952Y-56923608D01*
X125916450Y-56872315D01*
X125733954Y-56774768D01*
X125634944Y-56744734D01*
X125535932Y-56714699D01*
X125330000Y-56694417D01*
X125124067Y-56714699D01*
X124926043Y-56774769D01*
X124743551Y-56872314D01*
X124583589Y-57003589D01*
X124452314Y-57163551D01*
X124354769Y-57346043D01*
X124294699Y-57544067D01*
X124274417Y-57750000D01*
X123845583Y-57750000D01*
X123825300Y-57544066D01*
X123765232Y-57346046D01*
X123667685Y-57163550D01*
X123602047Y-57083570D01*
X123536410Y-57003589D01*
X123438952Y-56923608D01*
X123376450Y-56872315D01*
X123193954Y-56774768D01*
X123094944Y-56744734D01*
X122995932Y-56714699D01*
X122790000Y-56694417D01*
X122584067Y-56714699D01*
X122386043Y-56774769D01*
X122203551Y-56872314D01*
X122043589Y-57003589D01*
X121912314Y-57163551D01*
X121814769Y-57346043D01*
X121754699Y-57544067D01*
X121734417Y-57750000D01*
X121305583Y-57750000D01*
X121285300Y-57544066D01*
X121225232Y-57346046D01*
X121127685Y-57163550D01*
X121062047Y-57083570D01*
X120996410Y-57003589D01*
X120898952Y-56923608D01*
X120836450Y-56872315D01*
X120653954Y-56774768D01*
X120554944Y-56744734D01*
X120455932Y-56714699D01*
X120250000Y-56694417D01*
X120044067Y-56714699D01*
X119846043Y-56774769D01*
X119663551Y-56872314D01*
X119503589Y-57003589D01*
X119372314Y-57163551D01*
X119274769Y-57346043D01*
X119214699Y-57544067D01*
X119194417Y-57750000D01*
X118765583Y-57750000D01*
X118745300Y-57544066D01*
X118685232Y-57346046D01*
X118587685Y-57163550D01*
X118522047Y-57083570D01*
X118456410Y-57003589D01*
X118358952Y-56923608D01*
X118296450Y-56872315D01*
X118113954Y-56774768D01*
X118014944Y-56744734D01*
X117915932Y-56714699D01*
X117710000Y-56694417D01*
X117504067Y-56714699D01*
X117306043Y-56774769D01*
X117123551Y-56872314D01*
X116963589Y-57003589D01*
X116832314Y-57163551D01*
X116734769Y-57346043D01*
X116674699Y-57544067D01*
X116654417Y-57750000D01*
X107335500Y-57750000D01*
X107335500Y-52067764D01*
X110145787Y-52067764D01*
X110175413Y-52337016D01*
X110185994Y-52377488D01*
X110243928Y-52599088D01*
X110341890Y-52829611D01*
X110349871Y-52848392D01*
X110490982Y-53079611D01*
X110630275Y-53246989D01*
X110664255Y-53287820D01*
X110865998Y-53468582D01*
X111091910Y-53618044D01*
X111198211Y-53667875D01*
X111337177Y-53733021D01*
X111562875Y-53800923D01*
X111596569Y-53811060D01*
X111864561Y-53850500D01*
X112067631Y-53850500D01*
X112067634Y-53850500D01*
X112270156Y-53835677D01*
X112270156Y-53835676D01*
X112534553Y-53776780D01*
X112787558Y-53680014D01*
X113023777Y-53547441D01*
X113238177Y-53381888D01*
X113365333Y-53249999D01*
X142044517Y-53249999D01*
X142064422Y-53528294D01*
X142123727Y-53800918D01*
X142123729Y-53800923D01*
X142221231Y-54062337D01*
X142221233Y-54062340D01*
X142354942Y-54307211D01*
X142438544Y-54418890D01*
X142522145Y-54530568D01*
X142719432Y-54727855D01*
X142779309Y-54772678D01*
X142942788Y-54895057D01*
X143030331Y-54942858D01*
X143187663Y-55028769D01*
X143449077Y-55126271D01*
X143449080Y-55126271D01*
X143449081Y-55126272D01*
X143487883Y-55134712D01*
X143721706Y-55185578D01*
X144000000Y-55205482D01*
X144278294Y-55185578D01*
X144550923Y-55126271D01*
X144812337Y-55028769D01*
X145057213Y-54895056D01*
X145280568Y-54727855D01*
X145477855Y-54530568D01*
X145645056Y-54307213D01*
X145676297Y-54249999D01*
X146644772Y-54249999D01*
X146663657Y-54514027D01*
X146719921Y-54772673D01*
X146719923Y-54772678D01*
X146812426Y-55020689D01*
X146816838Y-55028769D01*
X146939282Y-55253009D01*
X147018598Y-55358963D01*
X147097913Y-55464915D01*
X147285085Y-55652087D01*
X147444013Y-55771058D01*
X147496990Y-55810717D01*
X147580045Y-55856068D01*
X147729311Y-55937574D01*
X147977322Y-56030077D01*
X147977325Y-56030077D01*
X147977326Y-56030078D01*
X148025667Y-56040593D01*
X148235974Y-56086343D01*
X148500000Y-56105227D01*
X148764026Y-56086343D01*
X149022678Y-56030077D01*
X149270689Y-55937574D01*
X149503011Y-55810716D01*
X149714915Y-55652087D01*
X149902087Y-55464915D01*
X150060716Y-55253011D01*
X150187574Y-55020689D01*
X150280077Y-54772678D01*
X150336343Y-54514026D01*
X150355227Y-54250000D01*
X150336343Y-53985974D01*
X150280077Y-53727322D01*
X150187574Y-53479311D01*
X150088265Y-53297441D01*
X150062360Y-53249999D01*
X151044517Y-53249999D01*
X151064422Y-53528294D01*
X151123727Y-53800918D01*
X151123729Y-53800923D01*
X151221231Y-54062337D01*
X151221233Y-54062340D01*
X151354942Y-54307211D01*
X151438544Y-54418890D01*
X151522145Y-54530568D01*
X151719432Y-54727855D01*
X151779309Y-54772678D01*
X151942788Y-54895057D01*
X152030331Y-54942858D01*
X152187663Y-55028769D01*
X152449077Y-55126271D01*
X152449080Y-55126271D01*
X152449081Y-55126272D01*
X152487883Y-55134712D01*
X152721706Y-55185578D01*
X153000000Y-55205482D01*
X153278294Y-55185578D01*
X153550923Y-55126271D01*
X153812337Y-55028769D01*
X154057213Y-54895056D01*
X154280568Y-54727855D01*
X154477855Y-54530568D01*
X154645056Y-54307213D01*
X154778769Y-54062337D01*
X154876271Y-53800923D01*
X154935578Y-53528294D01*
X154955482Y-53250000D01*
X154935578Y-52971706D01*
X154876271Y-52699077D01*
X154778769Y-52437663D01*
X154682853Y-52262007D01*
X154645057Y-52192788D01*
X154596321Y-52127685D01*
X154477855Y-51969432D01*
X154326187Y-51817764D01*
X160645787Y-51817764D01*
X160675413Y-52087016D01*
X160711548Y-52225232D01*
X160743928Y-52349088D01*
X160797720Y-52475670D01*
X160849871Y-52598392D01*
X160990982Y-52829611D01*
X161161976Y-53035082D01*
X161164255Y-53037820D01*
X161365998Y-53218582D01*
X161591910Y-53368044D01*
X161698211Y-53417875D01*
X161837177Y-53483021D01*
X162096562Y-53561058D01*
X162096569Y-53561060D01*
X162364561Y-53600500D01*
X162567631Y-53600500D01*
X162567634Y-53600500D01*
X162770156Y-53585677D01*
X162770155Y-53585677D01*
X163034553Y-53526780D01*
X163287558Y-53430014D01*
X163523777Y-53297441D01*
X163738177Y-53131888D01*
X163926186Y-52936881D01*
X164083799Y-52716579D01*
X164207656Y-52475675D01*
X164295118Y-52219305D01*
X164344319Y-51952933D01*
X164354212Y-51682235D01*
X164324586Y-51412982D01*
X164256072Y-51150912D01*
X164150130Y-50901610D01*
X164009018Y-50670390D01*
X164009017Y-50670388D01*
X163835746Y-50462181D01*
X163730758Y-50368112D01*
X163634002Y-50281418D01*
X163408090Y-50131956D01*
X163408086Y-50131954D01*
X163162822Y-50016978D01*
X162903437Y-49938941D01*
X162903431Y-49938940D01*
X162635439Y-49899500D01*
X162432369Y-49899500D01*
X162432366Y-49899500D01*
X162229843Y-49914322D01*
X161965449Y-49973219D01*
X161712441Y-50069986D01*
X161476223Y-50202559D01*
X161261825Y-50368109D01*
X161073813Y-50563120D01*
X160916201Y-50783420D01*
X160792342Y-51024329D01*
X160704881Y-51280695D01*
X160655680Y-51547066D01*
X160645787Y-51817764D01*
X154326187Y-51817764D01*
X154280568Y-51772145D01*
X154122683Y-51653954D01*
X154057211Y-51604942D01*
X153882124Y-51509338D01*
X153812337Y-51471231D01*
X153550923Y-51373729D01*
X153550918Y-51373727D01*
X153278294Y-51314422D01*
X153000000Y-51294517D01*
X152721705Y-51314422D01*
X152449081Y-51373727D01*
X152318370Y-51422479D01*
X152187663Y-51471231D01*
X152187660Y-51471232D01*
X152187659Y-51471233D01*
X151942788Y-51604942D01*
X151719429Y-51772147D01*
X151522147Y-51969429D01*
X151354942Y-52192788D01*
X151221233Y-52437659D01*
X151221231Y-52437663D01*
X151174697Y-52562426D01*
X151123727Y-52699081D01*
X151064422Y-52971705D01*
X151044517Y-53249999D01*
X150062360Y-53249999D01*
X150060717Y-53246990D01*
X149974554Y-53131890D01*
X149902087Y-53035085D01*
X149714915Y-52847913D01*
X149539473Y-52716579D01*
X149503009Y-52689282D01*
X149336552Y-52598390D01*
X149270689Y-52562426D01*
X149113387Y-52503755D01*
X149022674Y-52469921D01*
X148942268Y-52452431D01*
X148888601Y-52425985D01*
X148853563Y-52377488D01*
X148845313Y-52318230D01*
X148865770Y-52262007D01*
X148910170Y-52221909D01*
X149086450Y-52127685D01*
X149246410Y-51996410D01*
X149377685Y-51836450D01*
X149475232Y-51653954D01*
X149535300Y-51455934D01*
X149555583Y-51250000D01*
X149535300Y-51044066D01*
X149475232Y-50846046D01*
X149377685Y-50663550D01*
X149269248Y-50531418D01*
X149246410Y-50503589D01*
X149148952Y-50423608D01*
X149086450Y-50372315D01*
X148903954Y-50274768D01*
X148804944Y-50244734D01*
X148705932Y-50214699D01*
X148568467Y-50201160D01*
X148551608Y-50199500D01*
X148448392Y-50199500D01*
X148433192Y-50200996D01*
X148294067Y-50214699D01*
X148096043Y-50274769D01*
X147913551Y-50372314D01*
X147753589Y-50503589D01*
X147622314Y-50663551D01*
X147524769Y-50846043D01*
X147464699Y-51044067D01*
X147444417Y-51250000D01*
X147464699Y-51455932D01*
X147464700Y-51455934D01*
X147524768Y-51653954D01*
X147622315Y-51836450D01*
X147673609Y-51898952D01*
X147753589Y-51996410D01*
X147833569Y-52062047D01*
X147913550Y-52127685D01*
X148089826Y-52221907D01*
X148134229Y-52262007D01*
X148154686Y-52318230D01*
X148146436Y-52377488D01*
X148111398Y-52425985D01*
X148057731Y-52452431D01*
X147977326Y-52469921D01*
X147853316Y-52516174D01*
X147729311Y-52562426D01*
X147729308Y-52562427D01*
X147729307Y-52562428D01*
X147496990Y-52689282D01*
X147285082Y-52847915D01*
X147097915Y-53035082D01*
X146939282Y-53246990D01*
X146812428Y-53479307D01*
X146812426Y-53479311D01*
X146787015Y-53547441D01*
X146719921Y-53727326D01*
X146663657Y-53985972D01*
X146644772Y-54249999D01*
X145676297Y-54249999D01*
X145778769Y-54062337D01*
X145876271Y-53800923D01*
X145935578Y-53528294D01*
X145955482Y-53250000D01*
X145935578Y-52971706D01*
X145876271Y-52699077D01*
X145778769Y-52437663D01*
X145682853Y-52262007D01*
X145645057Y-52192788D01*
X145596321Y-52127685D01*
X145477855Y-51969432D01*
X145280568Y-51772145D01*
X145122683Y-51653954D01*
X145057211Y-51604942D01*
X144882124Y-51509338D01*
X144812337Y-51471231D01*
X144550923Y-51373729D01*
X144550918Y-51373727D01*
X144278294Y-51314422D01*
X144000000Y-51294517D01*
X143721705Y-51314422D01*
X143449081Y-51373727D01*
X143318370Y-51422479D01*
X143187663Y-51471231D01*
X143187660Y-51471232D01*
X143187659Y-51471233D01*
X142942788Y-51604942D01*
X142719429Y-51772147D01*
X142522147Y-51969429D01*
X142354942Y-52192788D01*
X142221233Y-52437659D01*
X142221231Y-52437663D01*
X142174697Y-52562426D01*
X142123727Y-52699081D01*
X142064422Y-52971705D01*
X142044517Y-53249999D01*
X113365333Y-53249999D01*
X113426186Y-53186881D01*
X113583799Y-52966579D01*
X113707656Y-52725675D01*
X113795118Y-52469305D01*
X113844319Y-52202933D01*
X113854212Y-51932235D01*
X113824586Y-51662982D01*
X113756072Y-51400912D01*
X113650130Y-51151610D01*
X113509018Y-50920390D01*
X113509017Y-50920388D01*
X113335746Y-50712181D01*
X113281470Y-50663550D01*
X113134002Y-50531418D01*
X112908090Y-50381956D01*
X112887522Y-50372314D01*
X112662822Y-50266978D01*
X112403437Y-50188941D01*
X112403431Y-50188940D01*
X112135439Y-50149500D01*
X111932369Y-50149500D01*
X111932366Y-50149500D01*
X111729843Y-50164322D01*
X111465449Y-50223219D01*
X111212441Y-50319986D01*
X110976223Y-50452559D01*
X110761825Y-50618109D01*
X110573813Y-50813120D01*
X110416201Y-51033420D01*
X110292342Y-51274329D01*
X110204881Y-51530695D01*
X110155680Y-51797066D01*
X110145787Y-52067764D01*
X107335500Y-52067764D01*
X107335500Y-48028287D01*
X107347673Y-47974707D01*
X107426801Y-47809569D01*
X107457817Y-47769101D01*
X107502498Y-47744535D01*
X107732448Y-47674510D01*
X107768744Y-47669134D01*
X166834088Y-47758162D01*
G37*
%TD.AperFunction*%
%TD*%
M02*
