%TF.GenerationSoftware,KiCad,Pcbnew,7.0.1*%
%TF.CreationDate,2023-07-11T02:04:21-05:00*%
%TF.ProjectId,Power_Supply,506f7765-725f-4537-9570-706c792e6b69,1*%
%TF.SameCoordinates,Original*%
%TF.FileFunction,Copper,L4,Bot*%
%TF.FilePolarity,Positive*%
%FSLAX46Y46*%
G04 Gerber Fmt 4.6, Leading zero omitted, Abs format (unit mm)*
G04 Created by KiCad (PCBNEW 7.0.1) date 2023-07-11 02:04:21*
%MOMM*%
%LPD*%
G01*
G04 APERTURE LIST*
%TA.AperFunction,ComponentPad*%
%ADD10C,2.000000*%
%TD*%
%TA.AperFunction,ComponentPad*%
%ADD11C,2.600000*%
%TD*%
%TA.AperFunction,ComponentPad*%
%ADD12R,1.700000X1.700000*%
%TD*%
%TA.AperFunction,ComponentPad*%
%ADD13O,1.700000X1.700000*%
%TD*%
%TA.AperFunction,ComponentPad*%
%ADD14R,4.000000X4.000000*%
%TD*%
%TA.AperFunction,ComponentPad*%
%ADD15C,3.300000*%
%TD*%
%TA.AperFunction,ComponentPad*%
%ADD16C,3.500000*%
%TD*%
%TA.AperFunction,ViaPad*%
%ADD17C,0.800000*%
%TD*%
%TA.AperFunction,Conductor*%
%ADD18C,0.250000*%
%TD*%
G04 APERTURE END LIST*
D10*
%TO.P,SW3,1,1*%
%TO.N,POT_BTN_DWN*%
X142980000Y-91380000D03*
X142980000Y-97880000D03*
%TO.P,SW3,2,2*%
%TO.N,GND*%
X138480000Y-91380000D03*
X138480000Y-97880000D03*
%TD*%
D11*
%TO.P,H6,1,1*%
%TO.N,GND*%
X159350000Y-90610000D03*
%TD*%
D12*
%TO.P,J4,1,Pin_1*%
%TO.N,+3.3V*%
X165360000Y-58830000D03*
D13*
%TO.P,J4,2,Pin_2*%
%TO.N,SWCLK*%
X165360000Y-61370000D03*
%TO.P,J4,3,Pin_3*%
%TO.N,GND*%
X165360000Y-63910000D03*
%TO.P,J4,4,Pin_4*%
%TO.N,SWDIO*%
X165360000Y-66450000D03*
%TO.P,J4,5,Pin_5*%
%TO.N,SWO*%
X165360000Y-68990000D03*
%TD*%
D10*
%TO.P,SW1,1,1*%
%TO.N,GND*%
X124830000Y-97740000D03*
X124830000Y-91240000D03*
%TO.P,SW1,2,2*%
%TO.N,/NRST*%
X129330000Y-97740000D03*
X129330000Y-91240000D03*
%TD*%
D11*
%TO.P,H5,1,1*%
%TO.N,ADC*%
X164880000Y-90680000D03*
%TD*%
D14*
%TO.P,J1,1*%
%TO.N,/MCU_POWER/JACK_OUT*%
X149995000Y-60365000D03*
D15*
%TO.P,J1,2*%
%TO.N,GND*%
X149995000Y-54365000D03*
D16*
%TO.P,J1,MP*%
%TO.N,N/C*%
X154495000Y-53365000D03*
X145495000Y-53365000D03*
%TD*%
D10*
%TO.P,SW2,1,1*%
%TO.N,POT_BTN_UP*%
X152880000Y-91290000D03*
X152880000Y-97790000D03*
%TO.P,SW2,2,2*%
%TO.N,GND*%
X148380000Y-91290000D03*
X148380000Y-97790000D03*
%TD*%
D12*
%TO.P,J3,1,Pin_1*%
%TO.N,+3.3V*%
X165590000Y-74660000D03*
D13*
%TO.P,J3,2,Pin_2*%
%TO.N,SCL*%
X165590000Y-77200000D03*
%TO.P,J3,3,Pin_3*%
%TO.N,SDA*%
X165590000Y-79740000D03*
%TO.P,J3,4,Pin_4*%
%TO.N,GND*%
X165590000Y-82280000D03*
%TD*%
D12*
%TO.P,J10,1,Pin_1*%
%TO.N,ADC*%
X117295000Y-109155000D03*
D13*
%TO.P,J10,2,Pin_2*%
X117295000Y-106615000D03*
%TO.P,J10,3,Pin_3*%
%TO.N,GND*%
X114755000Y-109155000D03*
%TO.P,J10,4,Pin_4*%
X114755000Y-106615000D03*
%TD*%
D12*
%TO.P,J5,1,Pin_1*%
%TO.N,ADC*%
X162275000Y-109365000D03*
D13*
%TO.P,J5,2,Pin_2*%
X162275000Y-106825000D03*
%TO.P,J5,3,Pin_3*%
%TO.N,GND*%
X159735000Y-109365000D03*
%TO.P,J5,4,Pin_4*%
X159735000Y-106825000D03*
%TD*%
D17*
%TO.N,GND*%
X133295000Y-56725000D03*
X123825000Y-50335000D03*
X124750000Y-79720000D03*
X126590000Y-73910000D03*
X134655000Y-56735000D03*
X116280000Y-78190000D03*
X122810000Y-73860000D03*
X116755000Y-68355000D03*
X150905000Y-65285000D03*
X154492205Y-72567961D03*
X160972500Y-82220000D03*
X147411000Y-77209807D03*
X132695000Y-87075000D03*
X142000000Y-76740000D03*
X116425000Y-61490000D03*
X138445000Y-67855000D03*
X123080000Y-79700000D03*
X118400000Y-61445000D03*
X116455000Y-66050000D03*
X136015000Y-56765000D03*
X126460000Y-79710000D03*
X130676250Y-72055000D03*
X119110000Y-86290000D03*
X116280000Y-79200000D03*
X116775000Y-70365000D03*
X118120000Y-86280000D03*
X124680000Y-73860000D03*
X145655000Y-70665000D03*
X117445000Y-66030000D03*
X116755000Y-74275000D03*
X130695000Y-77495000D03*
X116755000Y-72455000D03*
X117410000Y-61465000D03*
X118430000Y-66005000D03*
X154265000Y-79615000D03*
%TO.N,+3.3V*%
X125915000Y-50335000D03*
X153650000Y-65300000D03*
X110855000Y-62840000D03*
X110835000Y-63720000D03*
X141960000Y-78980000D03*
X112035000Y-63710000D03*
X145935000Y-65325000D03*
X158254799Y-71504799D03*
X110855000Y-64650000D03*
X141055000Y-73780500D03*
X112055000Y-62830000D03*
X112055000Y-64640000D03*
X148860000Y-79104500D03*
X111385000Y-81115000D03*
%TO.N,PU*%
X112815000Y-88455000D03*
X150017037Y-78614500D03*
%TO.N,PD*%
X114195000Y-88425500D03*
X151395000Y-77955000D03*
%TO.N,SCL*%
X149835000Y-73495000D03*
X163400000Y-77175000D03*
%TO.N,SDA*%
X163440000Y-79735000D03*
X148435000Y-73635000D03*
%TO.N,SWDIO*%
X155230000Y-73505000D03*
%TO.N,SWO*%
X165444998Y-71195000D03*
X152610000Y-74000000D03*
%TO.N,POT_BTN_DWN*%
X151200000Y-84340000D03*
%TO.N,ADC*%
X115415000Y-87975999D03*
X115125000Y-78585000D03*
%TD*%
D18*
%TO.N,PU*%
X136860402Y-89535000D02*
X148015402Y-78380000D01*
X149782537Y-78380000D02*
X150017037Y-78614500D01*
X112815000Y-88455000D02*
X113895000Y-89535000D01*
X113895000Y-89535000D02*
X136860402Y-89535000D01*
X148015402Y-78380000D02*
X149782537Y-78380000D01*
%TO.N,PD*%
X151395000Y-77955000D02*
X151330000Y-77890000D01*
X147869712Y-77890000D02*
X136709213Y-89050499D01*
X136709213Y-89050499D02*
X114819999Y-89050499D01*
X114819999Y-89050499D02*
X114195000Y-88425500D01*
X151330000Y-77890000D02*
X147869712Y-77890000D01*
%TO.N,SCL*%
X153515000Y-77175000D02*
X163400000Y-77175000D01*
X149835000Y-73495000D02*
X153515000Y-77175000D01*
%TO.N,SDA*%
X148435000Y-73635000D02*
X152425000Y-77625000D01*
X152425000Y-77625000D02*
X161330000Y-77625000D01*
X161330000Y-77625000D02*
X163440000Y-79735000D01*
%TO.N,SWDIO*%
X155230000Y-72570000D02*
X161305000Y-66495000D01*
X155230000Y-73505000D02*
X155230000Y-72570000D01*
X161305000Y-66495000D02*
X165315000Y-66495000D01*
X165315000Y-66495000D02*
X165360000Y-66450000D01*
%TO.N,SWO*%
X152610000Y-74000000D02*
X153004500Y-74394500D01*
X162245500Y-74394500D02*
X165444998Y-71195000D01*
X153004500Y-74394500D02*
X162245500Y-74394500D01*
%TO.N,POT_BTN_DWN*%
X145560000Y-91380000D02*
X142980000Y-91380000D01*
X151200000Y-85740000D02*
X145560000Y-91380000D01*
X151200000Y-84340000D02*
X151200000Y-85740000D01*
%TO.N,ADC*%
X115125000Y-82945000D02*
X115415000Y-83235000D01*
X115415000Y-83235000D02*
X115415000Y-87975999D01*
X115125000Y-78585000D02*
X115125000Y-82945000D01*
%TD*%
M02*
