%TF.GenerationSoftware,KiCad,Pcbnew,7.0.1*%
%TF.CreationDate,2023-09-23T10:11:30-05:00*%
%TF.ProjectId,Power_Supply,506f7765-725f-4537-9570-706c792e6b69,1*%
%TF.SameCoordinates,Original*%
%TF.FileFunction,Copper,L1,Top*%
%TF.FilePolarity,Positive*%
%FSLAX46Y46*%
G04 Gerber Fmt 4.6, Leading zero omitted, Abs format (unit mm)*
G04 Created by KiCad (PCBNEW 7.0.1) date 2023-09-23 10:11:30*
%MOMM*%
%LPD*%
G01*
G04 APERTURE LIST*
G04 Aperture macros list*
%AMRoundRect*
0 Rectangle with rounded corners*
0 $1 Rounding radius*
0 $2 $3 $4 $5 $6 $7 $8 $9 X,Y pos of 4 corners*
0 Add a 4 corners polygon primitive as box body*
4,1,4,$2,$3,$4,$5,$6,$7,$8,$9,$2,$3,0*
0 Add four circle primitives for the rounded corners*
1,1,$1+$1,$2,$3*
1,1,$1+$1,$4,$5*
1,1,$1+$1,$6,$7*
1,1,$1+$1,$8,$9*
0 Add four rect primitives between the rounded corners*
20,1,$1+$1,$2,$3,$4,$5,0*
20,1,$1+$1,$4,$5,$6,$7,0*
20,1,$1+$1,$6,$7,$8,$9,0*
20,1,$1+$1,$8,$9,$2,$3,0*%
G04 Aperture macros list end*
%TA.AperFunction,SMDPad,CuDef*%
%ADD10RoundRect,0.250000X0.475000X-0.337500X0.475000X0.337500X-0.475000X0.337500X-0.475000X-0.337500X0*%
%TD*%
%TA.AperFunction,SMDPad,CuDef*%
%ADD11RoundRect,0.237500X-0.300000X-0.237500X0.300000X-0.237500X0.300000X0.237500X-0.300000X0.237500X0*%
%TD*%
%TA.AperFunction,SMDPad,CuDef*%
%ADD12R,1.750000X0.950000*%
%TD*%
%TA.AperFunction,SMDPad,CuDef*%
%ADD13R,1.750000X3.200000*%
%TD*%
%TA.AperFunction,SMDPad,CuDef*%
%ADD14RoundRect,0.250000X0.337500X0.475000X-0.337500X0.475000X-0.337500X-0.475000X0.337500X-0.475000X0*%
%TD*%
%TA.AperFunction,SMDPad,CuDef*%
%ADD15RoundRect,0.237500X0.237500X-0.300000X0.237500X0.300000X-0.237500X0.300000X-0.237500X-0.300000X0*%
%TD*%
%TA.AperFunction,ComponentPad*%
%ADD16C,1.800000*%
%TD*%
%TA.AperFunction,ComponentPad*%
%ADD17C,4.500000*%
%TD*%
%TA.AperFunction,SMDPad,CuDef*%
%ADD18RoundRect,0.250000X-0.700000X0.362500X-0.700000X-0.362500X0.700000X-0.362500X0.700000X0.362500X0*%
%TD*%
%TA.AperFunction,SMDPad,CuDef*%
%ADD19R,0.600000X0.250000*%
%TD*%
%TA.AperFunction,SMDPad,CuDef*%
%ADD20R,0.250000X0.600000*%
%TD*%
%TA.AperFunction,SMDPad,CuDef*%
%ADD21R,1.350000X0.250000*%
%TD*%
%TA.AperFunction,SMDPad,CuDef*%
%ADD22R,1.700000X0.250000*%
%TD*%
%TA.AperFunction,SMDPad,CuDef*%
%ADD23R,0.250000X0.250000*%
%TD*%
%TA.AperFunction,SMDPad,CuDef*%
%ADD24RoundRect,0.237500X-0.237500X0.300000X-0.237500X-0.300000X0.237500X-0.300000X0.237500X0.300000X0*%
%TD*%
%TA.AperFunction,SMDPad,CuDef*%
%ADD25RoundRect,0.225000X0.225000X0.375000X-0.225000X0.375000X-0.225000X-0.375000X0.225000X-0.375000X0*%
%TD*%
%TA.AperFunction,SMDPad,CuDef*%
%ADD26R,0.400000X1.350000*%
%TD*%
%TA.AperFunction,SMDPad,CuDef*%
%ADD27R,1.450000X1.300000*%
%TD*%
%TA.AperFunction,SMDPad,CuDef*%
%ADD28R,1.600000X1.400000*%
%TD*%
%TA.AperFunction,SMDPad,CuDef*%
%ADD29R,1.900000X1.900000*%
%TD*%
%TA.AperFunction,SMDPad,CuDef*%
%ADD30RoundRect,0.250000X-0.337500X-0.475000X0.337500X-0.475000X0.337500X0.475000X-0.337500X0.475000X0*%
%TD*%
%TA.AperFunction,SMDPad,CuDef*%
%ADD31R,1.100000X2.000000*%
%TD*%
%TA.AperFunction,SMDPad,CuDef*%
%ADD32R,0.800000X0.800000*%
%TD*%
%TA.AperFunction,SMDPad,CuDef*%
%ADD33R,3.400000X0.980000*%
%TD*%
%TA.AperFunction,SMDPad,CuDef*%
%ADD34R,2.000000X1.100000*%
%TD*%
%TA.AperFunction,ComponentPad*%
%ADD35R,1.700000X1.700000*%
%TD*%
%TA.AperFunction,ComponentPad*%
%ADD36O,1.700000X1.700000*%
%TD*%
%TA.AperFunction,SMDPad,CuDef*%
%ADD37RoundRect,0.250000X-0.350000X-0.450000X0.350000X-0.450000X0.350000X0.450000X-0.350000X0.450000X0*%
%TD*%
%TA.AperFunction,ComponentPad*%
%ADD38R,4.000000X4.000000*%
%TD*%
%TA.AperFunction,ComponentPad*%
%ADD39C,3.300000*%
%TD*%
%TA.AperFunction,ComponentPad*%
%ADD40C,3.500000*%
%TD*%
%TA.AperFunction,SMDPad,CuDef*%
%ADD41RoundRect,0.160000X-0.197500X-0.160000X0.197500X-0.160000X0.197500X0.160000X-0.197500X0.160000X0*%
%TD*%
%TA.AperFunction,SMDPad,CuDef*%
%ADD42RoundRect,0.250000X0.325000X0.450000X-0.325000X0.450000X-0.325000X-0.450000X0.325000X-0.450000X0*%
%TD*%
%TA.AperFunction,SMDPad,CuDef*%
%ADD43RoundRect,0.237500X0.300000X0.237500X-0.300000X0.237500X-0.300000X-0.237500X0.300000X-0.237500X0*%
%TD*%
%TA.AperFunction,SMDPad,CuDef*%
%ADD44R,1.200000X3.500000*%
%TD*%
%TA.AperFunction,ComponentPad*%
%ADD45C,2.600000*%
%TD*%
%TA.AperFunction,ConnectorPad*%
%ADD46C,3.800000*%
%TD*%
%TA.AperFunction,ComponentPad*%
%ADD47C,2.000000*%
%TD*%
%TA.AperFunction,SMDPad,CuDef*%
%ADD48RoundRect,0.075000X-0.700000X-0.075000X0.700000X-0.075000X0.700000X0.075000X-0.700000X0.075000X0*%
%TD*%
%TA.AperFunction,SMDPad,CuDef*%
%ADD49RoundRect,0.075000X-0.075000X-0.700000X0.075000X-0.700000X0.075000X0.700000X-0.075000X0.700000X0*%
%TD*%
%TA.AperFunction,SMDPad,CuDef*%
%ADD50RoundRect,0.250000X0.625000X-0.400000X0.625000X0.400000X-0.625000X0.400000X-0.625000X-0.400000X0*%
%TD*%
%TA.AperFunction,SMDPad,CuDef*%
%ADD51RoundRect,0.160000X0.197500X0.160000X-0.197500X0.160000X-0.197500X-0.160000X0.197500X-0.160000X0*%
%TD*%
%TA.AperFunction,ViaPad*%
%ADD52C,0.800000*%
%TD*%
%TA.AperFunction,Conductor*%
%ADD53C,0.500000*%
%TD*%
%TA.AperFunction,Conductor*%
%ADD54C,0.090000*%
%TD*%
G04 APERTURE END LIST*
D10*
%TO.P,C4,1*%
%TO.N,GND*%
X138250000Y-83287500D03*
%TO.P,C4,2*%
%TO.N,/Output_circuitry/Vaux*%
X138250000Y-81212500D03*
%TD*%
D11*
%TO.P,C17,1*%
%TO.N,+3.3V*%
X126637500Y-85825000D03*
%TO.P,C17,2*%
%TO.N,GND*%
X128362500Y-85825000D03*
%TD*%
D12*
%TO.P,IC3,1,VIN*%
%TO.N,Main_in*%
X158850000Y-80200000D03*
%TO.P,IC3,2,GND_1*%
%TO.N,GND*%
X158850000Y-82500000D03*
%TO.P,IC3,3,VOUT*%
%TO.N,+3.3V*%
X158850000Y-84800000D03*
D13*
%TO.P,IC3,4,GND_2*%
%TO.N,GND*%
X165150000Y-82500000D03*
%TD*%
D14*
%TO.P,C2,1*%
%TO.N,ADC*%
X141287500Y-85500000D03*
%TO.P,C2,2*%
%TO.N,GND*%
X139212500Y-85500000D03*
%TD*%
D11*
%TO.P,C11,1*%
%TO.N,Net-(D1-K)*%
X163637500Y-63750000D03*
%TO.P,C11,2*%
%TO.N,GND*%
X165362500Y-63750000D03*
%TD*%
D15*
%TO.P,C25,1*%
%TO.N,+3.3V*%
X155500000Y-84362500D03*
%TO.P,C25,2*%
%TO.N,GND*%
X155500000Y-82637500D03*
%TD*%
D16*
%TO.P,VR1,1,CCW*%
%TO.N,ADC*%
X140970000Y-94996000D03*
%TO.P,VR1,2,WIPER*%
%TO.N,CW*%
X140970000Y-97496000D03*
%TO.P,VR1,3,CW*%
X140970000Y-99996000D03*
D17*
%TO.P,VR1,MH1,MH1*%
%TO.N,GND*%
X147970000Y-93096000D03*
%TO.P,VR1,MH2,MH2*%
X147970000Y-101896000D03*
%TD*%
D18*
%TO.P,FB1,1*%
%TO.N,Net-(D1-K)*%
X157250000Y-66837500D03*
%TO.P,FB1,2*%
%TO.N,Main_in*%
X157250000Y-70162500D03*
%TD*%
D19*
%TO.P,IC1,1,PS/S*%
%TO.N,GND*%
X141074000Y-80600000D03*
%TO.P,IC1,2,PG*%
%TO.N,/Output_circuitry/PG*%
X141074000Y-81100000D03*
%TO.P,IC1,3,VAUX*%
%TO.N,/Output_circuitry/Vaux*%
X141074000Y-81600000D03*
%TO.P,IC1,4,GND*%
%TO.N,GND*%
X141074000Y-82100000D03*
D20*
%TO.P,IC1,5,FB*%
%TO.N,CW*%
X141500000Y-82750000D03*
%TO.P,IC1,6,FB2*%
%TO.N,GND*%
X142000000Y-82750000D03*
%TO.P,IC1,7,VOUT_1*%
%TO.N,ADC*%
X142500000Y-82750000D03*
%TO.P,IC1,8,VOUT_2*%
X143000000Y-82750000D03*
D21*
%TO.P,IC1,9,L2*%
%TO.N,/Output_circuitry/L1*%
X143000000Y-81850000D03*
D22*
%TO.P,IC1,10,PGND*%
%TO.N,GND*%
X142825000Y-81350000D03*
D21*
%TO.P,IC1,11,L1*%
%TO.N,/Output_circuitry/L2*%
X143000000Y-80850000D03*
D20*
%TO.P,IC1,12,VIN_1*%
%TO.N,/Output_circuitry/VIN*%
X143000000Y-79950000D03*
%TO.P,IC1,13,VIN_2*%
X142500000Y-79950000D03*
%TO.P,IC1,14,EN*%
%TO.N,/Output_circuitry/EN*%
X142000000Y-79950000D03*
%TO.P,IC1,15,VSEL*%
%TO.N,GND*%
X141500000Y-79950000D03*
D23*
%TO.P,IC1,16*%
%TO.N,/Output_circuitry/VIN*%
X142750000Y-80125000D03*
%TO.P,IC1,17*%
%TO.N,ADC*%
X142750000Y-82575000D03*
%TD*%
D11*
%TO.P,C15,1*%
%TO.N,GND*%
X122637500Y-94250000D03*
%TO.P,C15,2*%
%TO.N,/NRST*%
X124362500Y-94250000D03*
%TD*%
D24*
%TO.P,C27,1*%
%TO.N,Main_in*%
X155500000Y-77887500D03*
%TO.P,C27,2*%
%TO.N,GND*%
X155500000Y-79612500D03*
%TD*%
D11*
%TO.P,C9,1*%
%TO.N,GND*%
X114137500Y-83075000D03*
%TO.P,C9,2*%
%TO.N,+3.3V*%
X115862500Y-83075000D03*
%TD*%
D25*
%TO.P,D3,1,K*%
%TO.N,Net-(D1-K)*%
X133150000Y-65750000D03*
%TO.P,D3,2,A*%
%TO.N,GND*%
X129850000Y-65750000D03*
%TD*%
D26*
%TO.P,J2,1,VBUS*%
%TO.N,/MCU_POWER/USB_OUT*%
X133100000Y-52975000D03*
%TO.P,J2,2,D-*%
%TO.N,unconnected-(J2-D--Pad2)*%
X132450000Y-52975000D03*
%TO.P,J2,3,D+*%
%TO.N,unconnected-(J2-D+-Pad3)*%
X131800000Y-52975000D03*
%TO.P,J2,4,GND*%
%TO.N,GND*%
X131150000Y-52975000D03*
%TO.P,J2,5,Shield*%
X130500000Y-52975000D03*
D27*
%TO.P,J2,MP1*%
%TO.N,N/C*%
X135225000Y-50300000D03*
%TO.P,J2,MP2*%
X128375000Y-50300000D03*
D28*
%TO.P,J2,MP3*%
X135000000Y-52750000D03*
%TO.P,J2,MP4*%
X128600000Y-52750000D03*
D29*
%TO.P,J2,MP5*%
X133000000Y-50300000D03*
%TO.P,J2,MP6*%
X130600000Y-50300000D03*
%TD*%
D30*
%TO.P,C3,1*%
%TO.N,ADC*%
X145462500Y-88750000D03*
%TO.P,C3,2*%
%TO.N,GND*%
X147537500Y-88750000D03*
%TD*%
D31*
%TO.P,D2,1,K*%
%TO.N,Net-(D1-K)*%
X136250000Y-64130000D03*
D32*
%TO.P,D2,2,A*%
%TO.N,/MCU_POWER/USB_OUT*%
X136250000Y-62230000D03*
%TD*%
D33*
%TO.P,L1,1,1*%
%TO.N,/Output_circuitry/L1*%
X146750000Y-82435000D03*
%TO.P,L1,2,2*%
%TO.N,/Output_circuitry/L2*%
X146750000Y-80065000D03*
%TD*%
D14*
%TO.P,C7,1*%
%TO.N,/Output_circuitry/VIN*%
X141287500Y-75500000D03*
%TO.P,C7,2*%
%TO.N,GND*%
X139212500Y-75500000D03*
%TD*%
D34*
%TO.P,D5,1,K*%
%TO.N,/Output_circuitry/VIN*%
X144620000Y-74750000D03*
D32*
%TO.P,D5,2,A*%
%TO.N,Main_in*%
X146520000Y-74750000D03*
%TD*%
D35*
%TO.P,+,1,Pin_1*%
%TO.N,ADC*%
X115321000Y-106167000D03*
D36*
%TO.P,+,2,Pin_2*%
X115321000Y-108707000D03*
%TO.P,+,3,Pin_3*%
%TO.N,GND*%
X112781000Y-106167000D03*
%TO.P,+,4,Pin_4*%
X112781000Y-108707000D03*
%TD*%
D11*
%TO.P,C14,1*%
%TO.N,GND*%
X109637500Y-81500000D03*
%TO.P,C14,2*%
%TO.N,Net-(U1-PH1)*%
X111362500Y-81500000D03*
%TD*%
D37*
%TO.P,R4,1*%
%TO.N,Net-(D4-K)*%
X122750000Y-50500000D03*
%TO.P,R4,2*%
%TO.N,GND*%
X124750000Y-50500000D03*
%TD*%
D15*
%TO.P,C10,1*%
%TO.N,+3.3V*%
X152250000Y-84362500D03*
%TO.P,C10,2*%
%TO.N,GND*%
X152250000Y-82637500D03*
%TD*%
D38*
%TO.P,J1,1*%
%TO.N,/MCU_POWER/JACK_OUT*%
X148500000Y-60250000D03*
D39*
%TO.P,J1,2*%
%TO.N,GND*%
X148500000Y-54250000D03*
D40*
%TO.P,J1,MP*%
%TO.N,N/C*%
X153000000Y-53250000D03*
X144000000Y-53250000D03*
%TD*%
D41*
%TO.P,R5,1*%
%TO.N,ADC*%
X115652500Y-94500000D03*
%TO.P,R5,2*%
%TO.N,Net-(U1-PA1)*%
X116847500Y-94500000D03*
%TD*%
D42*
%TO.P,D4,1,K*%
%TO.N,Net-(D4-K)*%
X120275000Y-50500000D03*
%TO.P,D4,2,A*%
%TO.N,+3.3V*%
X118225000Y-50500000D03*
%TD*%
D30*
%TO.P,C8,1*%
%TO.N,/Output_circuitry/VIN*%
X144212500Y-77000000D03*
%TO.P,C8,2*%
%TO.N,GND*%
X146287500Y-77000000D03*
%TD*%
D11*
%TO.P,C18,1*%
%TO.N,+3.3V*%
X130887500Y-73250000D03*
%TO.P,C18,2*%
%TO.N,GND*%
X132612500Y-73250000D03*
%TD*%
D43*
%TO.P,C23,1*%
%TO.N,+3.3V*%
X119862500Y-85825000D03*
%TO.P,C23,2*%
%TO.N,GND*%
X118137500Y-85825000D03*
%TD*%
D11*
%TO.P,C20,1*%
%TO.N,+3.3V*%
X119387500Y-67750000D03*
%TO.P,C20,2*%
%TO.N,GND*%
X121112500Y-67750000D03*
%TD*%
D35*
%TO.P,J3,1,Pin_1*%
%TO.N,+3.3V*%
X109750000Y-59250000D03*
D36*
%TO.P,J3,2,Pin_2*%
%TO.N,SCL*%
X109750000Y-61790000D03*
%TO.P,J3,3,Pin_3*%
%TO.N,SDA*%
X109750000Y-64330000D03*
%TO.P,J3,4,Pin_4*%
%TO.N,GND*%
X109750000Y-66870000D03*
%TD*%
D41*
%TO.P,R7,1*%
%TO.N,+3.3V*%
X123152500Y-67750000D03*
%TO.P,R7,2*%
%TO.N,/BOOT*%
X124347500Y-67750000D03*
%TD*%
D11*
%TO.P,C13,1*%
%TO.N,GND*%
X109637500Y-69750000D03*
%TO.P,C13,2*%
%TO.N,Net-(U1-PH0)*%
X111362500Y-69750000D03*
%TD*%
D44*
%TO.P,Y1,1,1*%
%TO.N,Net-(U1-PH1)*%
X111500000Y-78250000D03*
%TO.P,Y1,2,2*%
%TO.N,Net-(U1-PH0)*%
X111500000Y-72750000D03*
%TD*%
D45*
%TO.P,+,1,1*%
%TO.N,ADC*%
X116332000Y-100000000D03*
D46*
X116332000Y-100000000D03*
%TD*%
D11*
%TO.P,C24,1*%
%TO.N,Net-(D1-K)*%
X163637500Y-66750000D03*
%TO.P,C24,2*%
%TO.N,GND*%
X165362500Y-66750000D03*
%TD*%
D37*
%TO.P,R2,1*%
%TO.N,/Output_circuitry/EN*%
X139250000Y-78000000D03*
%TO.P,R2,2*%
%TO.N,/Output_circuitry/VIN*%
X141250000Y-78000000D03*
%TD*%
D11*
%TO.P,C16,1*%
%TO.N,GND*%
X122637500Y-85825000D03*
%TO.P,C16,2*%
%TO.N,/VCAP*%
X124362500Y-85825000D03*
%TD*%
D43*
%TO.P,C21,1*%
%TO.N,+3.3V*%
X117112500Y-67750000D03*
%TO.P,C21,2*%
%TO.N,GND*%
X115387500Y-67750000D03*
%TD*%
D31*
%TO.P,D1,1,K*%
%TO.N,Net-(D1-K)*%
X140250000Y-64130000D03*
D32*
%TO.P,D1,2,A*%
%TO.N,/MCU_POWER/JACK_OUT*%
X140250000Y-62230000D03*
%TD*%
D11*
%TO.P,C12,1*%
%TO.N,GND*%
X114137500Y-85825000D03*
%TO.P,C12,2*%
%TO.N,+3.3V*%
X115862500Y-85825000D03*
%TD*%
D30*
%TO.P,C1,1*%
%TO.N,ADC*%
X145462500Y-85500000D03*
%TO.P,C1,2*%
%TO.N,GND*%
X147537500Y-85500000D03*
%TD*%
D47*
%TO.P,RST,1,1*%
%TO.N,GND*%
X129000000Y-102000000D03*
X122500000Y-102000000D03*
%TO.P,RST,2,2*%
%TO.N,/NRST*%
X129000000Y-97500000D03*
X122500000Y-97500000D03*
%TD*%
D14*
%TO.P,C5,1*%
%TO.N,ADC*%
X141287500Y-88750000D03*
%TO.P,C5,2*%
%TO.N,GND*%
X139212500Y-88750000D03*
%TD*%
%TO.P,C6,1*%
%TO.N,/Output_circuitry/VIN*%
X141287500Y-72750000D03*
%TO.P,C6,2*%
%TO.N,GND*%
X139212500Y-72750000D03*
%TD*%
D48*
%TO.P,U1,1,VBAT*%
%TO.N,+3.3V*%
X117075000Y-73325000D03*
%TO.P,U1,2,PC13*%
%TO.N,unconnected-(U1-PC13-Pad2)*%
X117075000Y-73825000D03*
%TO.P,U1,3,PC14*%
%TO.N,unconnected-(U1-PC14-Pad3)*%
X117075000Y-74325000D03*
%TO.P,U1,4,PC15*%
%TO.N,unconnected-(U1-PC15-Pad4)*%
X117075000Y-74825000D03*
%TO.P,U1,5,PH0*%
%TO.N,Net-(U1-PH0)*%
X117075000Y-75325000D03*
%TO.P,U1,6,PH1*%
%TO.N,Net-(U1-PH1)*%
X117075000Y-75825000D03*
%TO.P,U1,7,NRST*%
%TO.N,/NRST*%
X117075000Y-76325000D03*
%TO.P,U1,8,PC0*%
%TO.N,unconnected-(U1-PC0-Pad8)*%
X117075000Y-76825000D03*
%TO.P,U1,9,PC1*%
%TO.N,unconnected-(U1-PC1-Pad9)*%
X117075000Y-77325000D03*
%TO.P,U1,10,PC2*%
%TO.N,unconnected-(U1-PC2-Pad10)*%
X117075000Y-77825000D03*
%TO.P,U1,11,PC3*%
%TO.N,unconnected-(U1-PC3-Pad11)*%
X117075000Y-78325000D03*
%TO.P,U1,12,VSSA*%
%TO.N,GND*%
X117075000Y-78825000D03*
%TO.P,U1,13,VREF+*%
%TO.N,+3.3V*%
X117075000Y-79325000D03*
%TO.P,U1,14,PA0*%
%TO.N,unconnected-(U1-PA0-Pad14)*%
X117075000Y-79825000D03*
%TO.P,U1,15,PA1*%
%TO.N,Net-(U1-PA1)*%
X117075000Y-80325000D03*
%TO.P,U1,16,PA2*%
%TO.N,unconnected-(U1-PA2-Pad16)*%
X117075000Y-80825000D03*
D49*
%TO.P,U1,17,PA3*%
%TO.N,unconnected-(U1-PA3-Pad17)*%
X119000000Y-82750000D03*
%TO.P,U1,18,VSS*%
%TO.N,GND*%
X119500000Y-82750000D03*
%TO.P,U1,19,VDD*%
%TO.N,+3.3V*%
X120000000Y-82750000D03*
%TO.P,U1,20,PA4*%
%TO.N,unconnected-(U1-PA4-Pad20)*%
X120500000Y-82750000D03*
%TO.P,U1,21,PA5*%
%TO.N,unconnected-(U1-PA5-Pad21)*%
X121000000Y-82750000D03*
%TO.P,U1,22,PA6*%
%TO.N,unconnected-(U1-PA6-Pad22)*%
X121500000Y-82750000D03*
%TO.P,U1,23,PA7*%
%TO.N,unconnected-(U1-PA7-Pad23)*%
X122000000Y-82750000D03*
%TO.P,U1,24,PC4*%
%TO.N,unconnected-(U1-PC4-Pad24)*%
X122500000Y-82750000D03*
%TO.P,U1,25,PC5*%
%TO.N,unconnected-(U1-PC5-Pad25)*%
X123000000Y-82750000D03*
%TO.P,U1,26,PB0*%
%TO.N,unconnected-(U1-PB0-Pad26)*%
X123500000Y-82750000D03*
%TO.P,U1,27,PB1*%
%TO.N,unconnected-(U1-PB1-Pad27)*%
X124000000Y-82750000D03*
%TO.P,U1,28,PB2*%
%TO.N,unconnected-(U1-PB2-Pad28)*%
X124500000Y-82750000D03*
%TO.P,U1,29,PB10*%
%TO.N,unconnected-(U1-PB10-Pad29)*%
X125000000Y-82750000D03*
%TO.P,U1,30,VCAP1*%
%TO.N,/VCAP*%
X125500000Y-82750000D03*
%TO.P,U1,31,VSS*%
%TO.N,GND*%
X126000000Y-82750000D03*
%TO.P,U1,32,VDD*%
%TO.N,+3.3V*%
X126500000Y-82750000D03*
D48*
%TO.P,U1,33,PB12*%
%TO.N,unconnected-(U1-PB12-Pad33)*%
X128425000Y-80825000D03*
%TO.P,U1,34,PB13*%
%TO.N,unconnected-(U1-PB13-Pad34)*%
X128425000Y-80325000D03*
%TO.P,U1,35,PB14*%
%TO.N,unconnected-(U1-PB14-Pad35)*%
X128425000Y-79825000D03*
%TO.P,U1,36,PB15*%
%TO.N,unconnected-(U1-PB15-Pad36)*%
X128425000Y-79325000D03*
%TO.P,U1,37,PC6*%
%TO.N,unconnected-(U1-PC6-Pad37)*%
X128425000Y-78825000D03*
%TO.P,U1,38,PC7*%
%TO.N,unconnected-(U1-PC7-Pad38)*%
X128425000Y-78325000D03*
%TO.P,U1,39,PC8*%
%TO.N,unconnected-(U1-PC8-Pad39)*%
X128425000Y-77825000D03*
%TO.P,U1,40,PC9*%
%TO.N,unconnected-(U1-PC9-Pad40)*%
X128425000Y-77325000D03*
%TO.P,U1,41,PA8*%
%TO.N,unconnected-(U1-PA8-Pad41)*%
X128425000Y-76825000D03*
%TO.P,U1,42,PA9*%
%TO.N,unconnected-(U1-PA9-Pad42)*%
X128425000Y-76325000D03*
%TO.P,U1,43,PA10*%
%TO.N,unconnected-(U1-PA10-Pad43)*%
X128425000Y-75825000D03*
%TO.P,U1,44,PA11*%
%TO.N,unconnected-(U1-PA11-Pad44)*%
X128425000Y-75325000D03*
%TO.P,U1,45,PA12*%
%TO.N,unconnected-(U1-PA12-Pad45)*%
X128425000Y-74825000D03*
%TO.P,U1,46,PA13*%
%TO.N,SWDIO*%
X128425000Y-74325000D03*
%TO.P,U1,47,VSS*%
%TO.N,GND*%
X128425000Y-73825000D03*
%TO.P,U1,48,VDD*%
%TO.N,+3.3V*%
X128425000Y-73325000D03*
D49*
%TO.P,U1,49,PA14*%
%TO.N,SWCLK*%
X126500000Y-71400000D03*
%TO.P,U1,50,PA15*%
%TO.N,unconnected-(U1-PA15-Pad50)*%
X126000000Y-71400000D03*
%TO.P,U1,51,PC10*%
%TO.N,unconnected-(U1-PC10-Pad51)*%
X125500000Y-71400000D03*
%TO.P,U1,52,PC11*%
%TO.N,unconnected-(U1-PC11-Pad52)*%
X125000000Y-71400000D03*
%TO.P,U1,53,PC12*%
%TO.N,unconnected-(U1-PC12-Pad53)*%
X124500000Y-71400000D03*
%TO.P,U1,54,PD2*%
%TO.N,unconnected-(U1-PD2-Pad54)*%
X124000000Y-71400000D03*
%TO.P,U1,55,PB3*%
%TO.N,SWO*%
X123500000Y-71400000D03*
%TO.P,U1,56,PB4*%
%TO.N,unconnected-(U1-PB4-Pad56)*%
X123000000Y-71400000D03*
%TO.P,U1,57,PB5*%
%TO.N,unconnected-(U1-PB5-Pad57)*%
X122500000Y-71400000D03*
%TO.P,U1,58,PB6*%
%TO.N,unconnected-(U1-PB6-Pad58)*%
X122000000Y-71400000D03*
%TO.P,U1,59,PB7*%
%TO.N,unconnected-(U1-PB7-Pad59)*%
X121500000Y-71400000D03*
%TO.P,U1,60,BOOT0*%
%TO.N,/BOOT*%
X121000000Y-71400000D03*
%TO.P,U1,61,PB8*%
%TO.N,SCL*%
X120500000Y-71400000D03*
%TO.P,U1,62,PB9*%
%TO.N,SDA*%
X120000000Y-71400000D03*
%TO.P,U1,63,VSS*%
%TO.N,GND*%
X119500000Y-71400000D03*
%TO.P,U1,64,VDD*%
%TO.N,+3.3V*%
X119000000Y-71400000D03*
%TD*%
D45*
%TO.P,-,1,1*%
%TO.N,GND*%
X110998000Y-99822000D03*
D46*
X110998000Y-99822000D03*
%TD*%
D41*
%TO.P,R3,1*%
%TO.N,GND*%
X123152500Y-65000000D03*
%TO.P,R3,2*%
%TO.N,/BOOT*%
X124347500Y-65000000D03*
%TD*%
D50*
%TO.P,R1,1*%
%TO.N,ADC*%
X135750000Y-83300000D03*
%TO.P,R1,2*%
%TO.N,/Output_circuitry/PG*%
X135750000Y-80200000D03*
%TD*%
D35*
%TO.P,J4,1,Pin_1*%
%TO.N,+3.3V*%
X127870000Y-57750000D03*
D36*
%TO.P,J4,2,Pin_2*%
%TO.N,SWCLK*%
X125330000Y-57750000D03*
%TO.P,J4,3,Pin_3*%
%TO.N,GND*%
X122790000Y-57750000D03*
%TO.P,J4,4,Pin_4*%
%TO.N,SWDIO*%
X120250000Y-57750000D03*
%TO.P,J4,5,Pin_5*%
%TO.N,SWO*%
X117710000Y-57750000D03*
%TD*%
D24*
%TO.P,C26,1*%
%TO.N,Main_in*%
X152250000Y-77887500D03*
%TO.P,C26,2*%
%TO.N,GND*%
X152250000Y-79612500D03*
%TD*%
D43*
%TO.P,C22,1*%
%TO.N,+3.3V*%
X117112500Y-70825000D03*
%TO.P,C22,2*%
%TO.N,GND*%
X115387500Y-70825000D03*
%TD*%
D51*
%TO.P,R6,1*%
%TO.N,GND*%
X119847500Y-94500000D03*
%TO.P,R6,2*%
%TO.N,Net-(U1-PA1)*%
X118652500Y-94500000D03*
%TD*%
D35*
%TO.P,J5,1,Pin_1*%
%TO.N,ADC*%
X160782000Y-106172000D03*
D36*
%TO.P,J5,2,Pin_2*%
X160782000Y-108712000D03*
%TO.P,J5,3,Pin_3*%
%TO.N,GND*%
X158242000Y-106172000D03*
%TO.P,J5,4,Pin_4*%
X158242000Y-108712000D03*
%TD*%
D11*
%TO.P,C19,1*%
%TO.N,+3.3V*%
X130887500Y-76250000D03*
%TO.P,C19,2*%
%TO.N,GND*%
X132612500Y-76250000D03*
%TD*%
D37*
%TO.P,R8,1*%
%TO.N,GND*%
X131080000Y-85852000D03*
%TO.P,R8,2*%
%TO.N,CW*%
X133080000Y-85852000D03*
%TD*%
D52*
%TO.N,Net-(U1-PA1)*%
X119500000Y-80250000D03*
X117750000Y-93250000D03*
%TO.N,+3.3V*%
X151500000Y-86500000D03*
X151500000Y-87750000D03*
X156500000Y-87750000D03*
X152750000Y-86500000D03*
X159000000Y-87750000D03*
X154000000Y-87750000D03*
X130749999Y-77500000D03*
X115862500Y-87250000D03*
X157750000Y-86500000D03*
X152750000Y-87750000D03*
X159000000Y-86500000D03*
X126500000Y-87250000D03*
X123250000Y-66250000D03*
X157750000Y-87750000D03*
X117000000Y-66250000D03*
X118250000Y-52500000D03*
X156500000Y-86500000D03*
X154000000Y-86500000D03*
X155250000Y-86500000D03*
X119294269Y-66455731D03*
X120000000Y-87250000D03*
X155250000Y-87750000D03*
%TO.N,/NRST*%
X126000000Y-94000000D03*
X119000000Y-76500000D03*
%TO.N,SCL*%
X120500000Y-69750000D03*
%TO.N,SDA*%
X120000000Y-73500000D03*
%TO.N,SWCLK*%
X126500000Y-69750000D03*
%TO.N,SWDIO*%
X125750000Y-74250000D03*
%TO.N,SWO*%
X124250000Y-69750000D03*
%TO.N,ADC*%
X144018000Y-88870000D03*
X142748000Y-88860000D03*
X142748000Y-86828000D03*
X142748000Y-87884000D03*
X144018000Y-86838000D03*
X142748000Y-85852000D03*
X114500000Y-95750000D03*
X144018000Y-87884000D03*
X144018000Y-85852000D03*
%TO.N,CW*%
X139750000Y-84000000D03*
X135636000Y-85852000D03*
%TD*%
D53*
%TO.N,Net-(U1-PA1)*%
X117750000Y-94500000D02*
X117750000Y-93250000D01*
X117750000Y-94500000D02*
X118652500Y-94500000D01*
X116847500Y-94500000D02*
X117750000Y-94500000D01*
D54*
X117075000Y-80325000D02*
X117150000Y-80250000D01*
X117150000Y-80250000D02*
X119500000Y-80250000D01*
%TO.N,/Output_circuitry/Vaux*%
X140189878Y-81600000D02*
X139839878Y-81250000D01*
X141074000Y-81600000D02*
X140189878Y-81600000D01*
X139839878Y-81250000D02*
X138287500Y-81250000D01*
X138287500Y-81250000D02*
X138250000Y-81212500D01*
D53*
%TO.N,+3.3V*%
X118250000Y-71962501D02*
X118250000Y-73500000D01*
X117112499Y-70825000D02*
X117112499Y-69362499D01*
X129575000Y-73250000D02*
X129500000Y-73325000D01*
X130887500Y-73250000D02*
X129575000Y-73250000D01*
D54*
X128425000Y-73325000D02*
X129500000Y-73325000D01*
D53*
X119387500Y-66548962D02*
X119294269Y-66455731D01*
D54*
X117075000Y-73325000D02*
X118075000Y-73325000D01*
D53*
X120000000Y-85712500D02*
X120000000Y-84000000D01*
X118225000Y-50500000D02*
X118250000Y-50525000D01*
X115750000Y-79500000D02*
X115925001Y-79324999D01*
D54*
X115925002Y-79325000D02*
X115925001Y-79324999D01*
D53*
X119387500Y-67750000D02*
X119387500Y-66548962D01*
X115750000Y-85712500D02*
X115750000Y-79500000D01*
X130887500Y-76250000D02*
X130749999Y-76387501D01*
X117112500Y-67750000D02*
X117112500Y-69749999D01*
X117112499Y-70825000D02*
X118250000Y-71962501D01*
X126500000Y-84075000D02*
X126500000Y-87250000D01*
D54*
X117075000Y-79325000D02*
X115925002Y-79325000D01*
D53*
X119000000Y-69250000D02*
X119000000Y-70250000D01*
X119387500Y-67750000D02*
X119387500Y-68862500D01*
X115862500Y-85825000D02*
X115862500Y-87362500D01*
X119387500Y-68862500D02*
X119000000Y-69250000D01*
X117112500Y-66362500D02*
X117000000Y-66250000D01*
D54*
X123152500Y-66347500D02*
X123250000Y-66250000D01*
X119000000Y-71400000D02*
X119000000Y-70250000D01*
D53*
X117112500Y-67750000D02*
X117112500Y-66362500D01*
D54*
X126500000Y-82750000D02*
X126500000Y-84075000D01*
D53*
X130887500Y-73250000D02*
X130887500Y-76250000D01*
X130749999Y-76387501D02*
X130749999Y-77500000D01*
X120000000Y-87250000D02*
X120000000Y-85962500D01*
X120000000Y-85962500D02*
X119862500Y-85825000D01*
D54*
X123152500Y-67750000D02*
X123152500Y-66347500D01*
X120000000Y-82750000D02*
X120000000Y-84000000D01*
D53*
X118250000Y-50525000D02*
X118250000Y-52500000D01*
D54*
X118075000Y-73325000D02*
X118250000Y-73500000D01*
D53*
%TO.N,Net-(U1-PH0)*%
X111362500Y-69750000D02*
X111362500Y-72612500D01*
D54*
X111500000Y-72750000D02*
X111500000Y-75000000D01*
X116347452Y-75325000D02*
X117075000Y-75325000D01*
X111500000Y-75000000D02*
X112000000Y-75500000D01*
X116172452Y-75500000D02*
X116347452Y-75325000D01*
X112000000Y-75500000D02*
X116172452Y-75500000D01*
D53*
X111362500Y-72612500D02*
X111500000Y-72750000D01*
D54*
%TO.N,Net-(U1-PH1)*%
X117075000Y-75825000D02*
X111925000Y-75825000D01*
D53*
X111362500Y-78387500D02*
X111500000Y-78250000D01*
D54*
X111925000Y-75825000D02*
X111500000Y-76250000D01*
X111500000Y-76250000D02*
X111500000Y-78250000D01*
D53*
X111362500Y-81500000D02*
X111362500Y-78387500D01*
%TO.N,/NRST*%
X125750000Y-97500000D02*
X129000000Y-97500000D01*
D54*
X118825000Y-76325000D02*
X119000000Y-76500000D01*
X117075000Y-76325000D02*
X118825000Y-76325000D01*
D53*
X125750000Y-94250000D02*
X126000000Y-94000000D01*
X122500000Y-97500000D02*
X125750000Y-97500000D01*
X125750000Y-97000000D02*
X124362500Y-95612500D01*
X124362500Y-94250000D02*
X125750000Y-94250000D01*
X124362500Y-95612500D02*
X124362500Y-94250000D01*
X125750000Y-97500000D02*
X125750000Y-97000000D01*
%TO.N,/VCAP*%
X124362500Y-85825000D02*
X124362500Y-84887500D01*
X124362500Y-84887500D02*
X125175000Y-84075000D01*
X125175000Y-84075000D02*
X125500000Y-84075000D01*
D54*
X125500000Y-82750000D02*
X125500000Y-84075000D01*
D53*
%TO.N,Net-(D4-K)*%
X120275000Y-50500000D02*
X122750000Y-50500000D01*
D54*
%TO.N,/Output_circuitry/EN*%
X140000000Y-79250000D02*
X139250000Y-78500000D01*
X141715000Y-79250000D02*
X140000000Y-79250000D01*
X142000000Y-79950000D02*
X142000000Y-79535000D01*
X142000000Y-79535000D02*
X141715000Y-79250000D01*
X139250000Y-78500000D02*
X139250000Y-78000000D01*
%TO.N,/Output_circuitry/PG*%
X141074000Y-81100000D02*
X140100000Y-81100000D01*
X140100000Y-81100000D02*
X139200000Y-80200000D01*
X139200000Y-80200000D02*
X135750000Y-80200000D01*
D53*
%TO.N,/Output_circuitry/L1*%
X146750000Y-82435000D02*
X144685000Y-82435000D01*
D54*
X143000000Y-81850000D02*
X144100000Y-81850000D01*
D53*
X144685000Y-82435000D02*
X144250000Y-82000000D01*
D54*
%TO.N,/Output_circuitry/L2*%
X143000000Y-80850000D02*
X144149999Y-80850001D01*
D53*
X144935000Y-80065000D02*
X144149999Y-80850001D01*
X146750000Y-80065000D02*
X144935000Y-80065000D01*
D54*
%TO.N,SCL*%
X120500000Y-71400000D02*
X120500000Y-69750000D01*
%TO.N,SDA*%
X120000000Y-73500000D02*
X120000000Y-71400000D01*
%TO.N,SWCLK*%
X126500000Y-71400000D02*
X126500000Y-69750000D01*
%TO.N,SWDIO*%
X128425000Y-74325000D02*
X125825000Y-74325000D01*
X125825000Y-74325000D02*
X125750000Y-74250000D01*
%TO.N,SWO*%
X123500000Y-70500000D02*
X124250000Y-69750000D01*
X123500000Y-71400000D02*
X123500000Y-70500000D01*
%TO.N,/BOOT*%
X122750000Y-68500000D02*
X124000000Y-68500000D01*
X121000000Y-70250000D02*
X122750000Y-68500000D01*
X124347500Y-67750000D02*
X124347500Y-65000000D01*
X124347500Y-68152500D02*
X124347500Y-67750000D01*
X121000000Y-71400000D02*
X121000000Y-70250000D01*
X124000000Y-68500000D02*
X124347500Y-68152500D01*
D53*
%TO.N,ADC*%
X114750000Y-94750000D02*
X114500000Y-95000000D01*
X115652500Y-94500000D02*
X115000000Y-94500000D01*
X135750000Y-83300000D02*
X135750000Y-84500000D01*
X141360000Y-87250000D02*
X141380000Y-87230000D01*
X135750000Y-84500000D02*
X138500000Y-87250000D01*
X114500000Y-95000000D02*
X114500000Y-95750000D01*
X138500000Y-87250000D02*
X141360000Y-87250000D01*
X115000000Y-94500000D02*
X114750000Y-94750000D01*
D54*
%TO.N,CW*%
X141000000Y-84000000D02*
X139750000Y-84000000D01*
X134874000Y-85876000D02*
X134898000Y-85852000D01*
D53*
X135636000Y-94662000D02*
X135636000Y-85852000D01*
X140970000Y-99996000D02*
X140970000Y-97496000D01*
X133080000Y-85852000D02*
X135636000Y-85852000D01*
D54*
X141500000Y-82750000D02*
X141500000Y-83500000D01*
X134898000Y-85852000D02*
X135636000Y-85852000D01*
X141500000Y-83500000D02*
X141000000Y-84000000D01*
D53*
X140970000Y-99996000D02*
X135636000Y-94662000D01*
D54*
X133182000Y-85750000D02*
X133080000Y-85852000D01*
%TD*%
%TA.AperFunction,Conductor*%
%TO.N,/MCU_POWER/USB_OUT*%
G36*
X133991076Y-51767642D02*
G01*
X134036685Y-51815547D01*
X134051178Y-51880085D01*
X134030429Y-51942891D01*
X134011132Y-51971769D01*
X133999500Y-52030251D01*
X133999500Y-53469749D01*
X134011132Y-53528230D01*
X134055447Y-53594552D01*
X134121769Y-53638867D01*
X134180251Y-53650500D01*
X134180252Y-53650500D01*
X135819748Y-53650500D01*
X135819749Y-53650500D01*
X135848989Y-53644683D01*
X135878231Y-53638867D01*
X135944552Y-53594552D01*
X135988867Y-53528231D01*
X136000500Y-53469748D01*
X136000500Y-52030252D01*
X135988867Y-51971769D01*
X135969570Y-51942890D01*
X135948822Y-51880085D01*
X135963315Y-51815547D01*
X136008924Y-51767642D01*
X136072673Y-51750000D01*
X136626000Y-51750000D01*
X136688000Y-51766613D01*
X136733387Y-51812000D01*
X136750000Y-51874000D01*
X136750000Y-57500000D01*
X138670500Y-57500000D01*
X138732500Y-57516613D01*
X138777887Y-57562000D01*
X138794500Y-57624000D01*
X138794500Y-62570500D01*
X138777887Y-62632500D01*
X138732500Y-62677887D01*
X138670500Y-62694500D01*
X132124000Y-62694500D01*
X132062000Y-62677887D01*
X132016613Y-62632500D01*
X132000000Y-62570500D01*
X132000000Y-53956192D01*
X132012786Y-53901351D01*
X132048508Y-53857820D01*
X132099799Y-53834577D01*
X132100799Y-53834378D01*
X132149192Y-53834376D01*
X132230251Y-53850500D01*
X132230252Y-53850500D01*
X132669748Y-53850500D01*
X132669749Y-53850500D01*
X132698989Y-53844683D01*
X132728231Y-53838867D01*
X132794552Y-53794552D01*
X132838867Y-53728231D01*
X132850500Y-53669748D01*
X132850500Y-52280252D01*
X132838867Y-52221769D01*
X132794552Y-52155447D01*
X132728230Y-52111132D01*
X132669749Y-52099500D01*
X132669748Y-52099500D01*
X132230252Y-52099500D01*
X132230251Y-52099500D01*
X132149192Y-52115624D01*
X132100799Y-52115622D01*
X132099799Y-52115423D01*
X132048508Y-52092180D01*
X132012786Y-52048649D01*
X132000000Y-51993808D01*
X132000000Y-51874000D01*
X132016613Y-51812000D01*
X132062000Y-51766613D01*
X132124000Y-51750000D01*
X133927327Y-51750000D01*
X133991076Y-51767642D01*
G37*
%TD.AperFunction*%
%TD*%
%TA.AperFunction,Conductor*%
%TO.N,/MCU_POWER/JACK_OUT*%
G36*
X155438000Y-56516613D02*
G01*
X155483387Y-56562000D01*
X155500000Y-56624000D01*
X155500000Y-62570500D01*
X155483387Y-62632500D01*
X155438000Y-62677887D01*
X155376000Y-62694500D01*
X139124000Y-62694500D01*
X139062000Y-62677887D01*
X139016613Y-62632500D01*
X139000000Y-62570500D01*
X139000000Y-56624000D01*
X139016613Y-56562000D01*
X139062000Y-56516613D01*
X139124000Y-56500000D01*
X155376000Y-56500000D01*
X155438000Y-56516613D01*
G37*
%TD.AperFunction*%
%TD*%
%TA.AperFunction,Conductor*%
%TO.N,GND*%
G36*
X114047050Y-95057029D02*
G01*
X114049500Y-95075635D01*
X114049500Y-95308581D01*
X114042919Y-95348440D01*
X114023877Y-95384064D01*
X113994778Y-95421988D01*
X113975462Y-95447161D01*
X113914956Y-95593237D01*
X113894317Y-95750000D01*
X113914956Y-95906762D01*
X113975463Y-96052840D01*
X114071717Y-96178282D01*
X114197159Y-96274536D01*
X114343238Y-96335044D01*
X114500000Y-96355682D01*
X114656762Y-96335044D01*
X114802841Y-96274536D01*
X114928282Y-96178282D01*
X115024536Y-96052841D01*
X115085044Y-95906762D01*
X115105682Y-95750000D01*
X115085044Y-95593238D01*
X115024536Y-95447159D01*
X114976122Y-95384064D01*
X114957081Y-95348440D01*
X114950500Y-95308581D01*
X114950500Y-95237966D01*
X114959939Y-95190513D01*
X114986819Y-95150285D01*
X115137104Y-95000000D01*
X115329664Y-95000000D01*
X115350714Y-95010291D01*
X115420785Y-95020500D01*
X115884214Y-95020499D01*
X115954286Y-95010291D01*
X115975336Y-95000000D01*
X116524664Y-95000000D01*
X116545714Y-95010291D01*
X116615785Y-95020500D01*
X117079214Y-95020499D01*
X117149286Y-95010291D01*
X117170336Y-95000000D01*
X118329664Y-95000000D01*
X118350714Y-95010291D01*
X118420785Y-95020500D01*
X118884214Y-95020499D01*
X118954286Y-95010291D01*
X118975336Y-95000000D01*
X123912000Y-95000000D01*
X123912000Y-95580238D01*
X123911220Y-95594122D01*
X123907229Y-95629534D01*
X123917856Y-95685694D01*
X123918633Y-95690266D01*
X123928050Y-95752748D01*
X123929663Y-95757648D01*
X123959187Y-95813510D01*
X123961277Y-95817650D01*
X123988684Y-95874560D01*
X123991683Y-95878787D01*
X124036346Y-95923450D01*
X124039563Y-95926789D01*
X124082543Y-95973111D01*
X124097430Y-95984534D01*
X124619548Y-96506652D01*
X124950716Y-96837819D01*
X124980966Y-96887182D01*
X124985508Y-96944898D01*
X124963353Y-96998385D01*
X124919330Y-97035985D01*
X124863035Y-97049500D01*
X123693551Y-97049500D01*
X123628274Y-97030927D01*
X123582551Y-96980772D01*
X123564688Y-96944898D01*
X123525058Y-96865311D01*
X123517167Y-96854861D01*
X123390982Y-96687764D01*
X123226562Y-96537875D01*
X123037404Y-96420754D01*
X122972216Y-96395500D01*
X122829940Y-96340382D01*
X122611243Y-96299500D01*
X122388757Y-96299500D01*
X122170060Y-96340381D01*
X122170060Y-96340382D01*
X121962595Y-96420754D01*
X121773437Y-96537875D01*
X121609019Y-96687762D01*
X121474941Y-96865311D01*
X121375769Y-97064473D01*
X121314885Y-97278462D01*
X121294357Y-97499999D01*
X121314885Y-97721537D01*
X121375769Y-97935526D01*
X121474941Y-98134688D01*
X121609019Y-98312237D01*
X121773437Y-98462124D01*
X121962595Y-98579245D01*
X121962597Y-98579245D01*
X121962599Y-98579247D01*
X122170060Y-98659618D01*
X122388757Y-98700500D01*
X122611241Y-98700500D01*
X122611243Y-98700500D01*
X122829940Y-98659618D01*
X123037401Y-98579247D01*
X123226562Y-98462124D01*
X123390981Y-98312236D01*
X123525058Y-98134689D01*
X123582551Y-98019227D01*
X123628274Y-97969073D01*
X123693551Y-97950500D01*
X125682098Y-97950500D01*
X125685268Y-97950500D01*
X125712860Y-97953608D01*
X125715954Y-97954315D01*
X125762230Y-97950847D01*
X125771497Y-97950500D01*
X125783762Y-97950500D01*
X127806449Y-97950500D01*
X127871726Y-97969073D01*
X127917449Y-98019228D01*
X127974943Y-98134691D01*
X128109017Y-98312235D01*
X128273437Y-98462124D01*
X128462595Y-98579245D01*
X128462597Y-98579245D01*
X128462599Y-98579247D01*
X128670060Y-98659618D01*
X128888757Y-98700500D01*
X129111241Y-98700500D01*
X129111243Y-98700500D01*
X129329940Y-98659618D01*
X129537401Y-98579247D01*
X129726562Y-98462124D01*
X129818862Y-98377981D01*
X129890980Y-98312237D01*
X129915366Y-98279945D01*
X130025058Y-98134689D01*
X130124229Y-97935528D01*
X130185115Y-97721536D01*
X130205643Y-97500000D01*
X130185115Y-97278464D01*
X130133413Y-97096750D01*
X130124230Y-97064473D01*
X130025058Y-96865311D01*
X129890980Y-96687762D01*
X129726562Y-96537875D01*
X129537404Y-96420754D01*
X129472216Y-96395500D01*
X129329940Y-96340382D01*
X129111243Y-96299500D01*
X128888757Y-96299500D01*
X128670060Y-96340381D01*
X128670060Y-96340382D01*
X128462595Y-96420754D01*
X128273437Y-96537875D01*
X128109017Y-96687764D01*
X127974943Y-96865308D01*
X127917449Y-96980772D01*
X127871726Y-97030927D01*
X127806449Y-97049500D01*
X126320597Y-97049500D01*
X126265408Y-97036542D01*
X126221755Y-97000375D01*
X126198760Y-96948558D01*
X126194642Y-96926799D01*
X126193864Y-96922220D01*
X126185348Y-96865713D01*
X126185347Y-96865711D01*
X126184448Y-96859744D01*
X126182842Y-96854861D01*
X126173834Y-96837819D01*
X126153296Y-96798961D01*
X126151241Y-96794892D01*
X126126425Y-96743358D01*
X126126423Y-96743356D01*
X126123807Y-96737923D01*
X126120827Y-96733723D01*
X126076165Y-96689062D01*
X126072946Y-96685721D01*
X126029958Y-96639391D01*
X126015067Y-96627964D01*
X124849319Y-95462216D01*
X124822439Y-95421988D01*
X124813000Y-95374535D01*
X124813000Y-95000000D01*
X135335063Y-95000000D01*
X135356040Y-95022608D01*
X135370930Y-95034034D01*
X137629813Y-97292917D01*
X139886612Y-99549715D01*
X139918949Y-99606226D01*
X139918197Y-99671330D01*
X139883603Y-99792915D01*
X139864785Y-99996000D01*
X139883602Y-100199083D01*
X139939418Y-100395251D01*
X140030324Y-100577818D01*
X140153236Y-100740580D01*
X140303958Y-100877981D01*
X140477361Y-100985347D01*
X140477363Y-100985348D01*
X140667544Y-101059024D01*
X140868024Y-101096500D01*
X141071974Y-101096500D01*
X141071976Y-101096500D01*
X141272456Y-101059024D01*
X141462637Y-100985348D01*
X141636041Y-100877981D01*
X141786764Y-100740579D01*
X141909673Y-100577821D01*
X141909673Y-100577819D01*
X141909675Y-100577818D01*
X141955313Y-100486161D01*
X142000582Y-100395250D01*
X142056397Y-100199083D01*
X142075215Y-99996000D01*
X142056397Y-99792917D01*
X142056396Y-99792915D01*
X142000581Y-99596748D01*
X141909675Y-99414181D01*
X141786763Y-99251419D01*
X141636043Y-99114020D01*
X141479222Y-99016921D01*
X141436171Y-98971833D01*
X141420500Y-98911494D01*
X141420500Y-98580506D01*
X141436171Y-98520167D01*
X141479222Y-98475079D01*
X141501495Y-98461288D01*
X141636041Y-98377981D01*
X141786764Y-98240579D01*
X141909673Y-98077821D01*
X141909673Y-98077819D01*
X141909675Y-98077818D01*
X141980527Y-97935526D01*
X142000582Y-97895250D01*
X142056397Y-97699083D01*
X142075215Y-97496000D01*
X142056397Y-97292917D01*
X142000582Y-97096750D01*
X141984510Y-97064472D01*
X141909675Y-96914181D01*
X141786763Y-96751419D01*
X141636041Y-96614018D01*
X141462638Y-96506652D01*
X141272457Y-96432976D01*
X141205629Y-96420483D01*
X141071976Y-96395500D01*
X140868024Y-96395500D01*
X140767783Y-96414238D01*
X140667542Y-96432976D01*
X140477361Y-96506652D01*
X140303958Y-96614018D01*
X140153236Y-96751419D01*
X140030324Y-96914181D01*
X139939418Y-97096748D01*
X139883602Y-97292916D01*
X139864785Y-97495999D01*
X139883602Y-97699083D01*
X139939418Y-97895251D01*
X140030097Y-98077361D01*
X140042457Y-98145214D01*
X140016653Y-98209175D01*
X139960669Y-98249456D01*
X139891824Y-98253595D01*
X139831416Y-98220313D01*
X136611103Y-95000000D01*
X139865156Y-95000000D01*
X139866842Y-95018194D01*
X139883602Y-95199083D01*
X139939418Y-95395251D01*
X140030324Y-95577818D01*
X140153236Y-95740580D01*
X140303958Y-95877981D01*
X140476048Y-95984534D01*
X140477363Y-95985348D01*
X140667544Y-96059024D01*
X140868024Y-96096500D01*
X141071974Y-96096500D01*
X141071976Y-96096500D01*
X141272456Y-96059024D01*
X141462637Y-95985348D01*
X141636041Y-95877981D01*
X141702221Y-95817650D01*
X141786763Y-95740580D01*
X141786764Y-95740579D01*
X141909673Y-95577821D01*
X141909673Y-95577819D01*
X141909675Y-95577818D01*
X141967237Y-95462216D01*
X142000582Y-95395250D01*
X142056397Y-95199083D01*
X142074844Y-95000000D01*
X146750000Y-95000000D01*
X167029932Y-95000000D01*
X167027814Y-101869361D01*
X167024538Y-112493374D01*
X167007916Y-112555353D01*
X166962538Y-112600723D01*
X166900557Y-112617336D01*
X152825319Y-112619478D01*
X152795255Y-112615783D01*
X152784532Y-112613105D01*
X152735937Y-112588674D01*
X152702473Y-112545797D01*
X152690577Y-112492728D01*
X152692890Y-108711999D01*
X159726417Y-108711999D01*
X159746699Y-108917932D01*
X159746700Y-108917934D01*
X159806768Y-109115954D01*
X159904315Y-109298450D01*
X159955608Y-109360952D01*
X160035589Y-109458410D01*
X160115570Y-109524047D01*
X160195550Y-109589685D01*
X160378046Y-109687232D01*
X160576066Y-109747300D01*
X160782000Y-109767583D01*
X160987934Y-109747300D01*
X161185954Y-109687232D01*
X161368450Y-109589685D01*
X161528410Y-109458410D01*
X161659685Y-109298450D01*
X161757232Y-109115954D01*
X161817300Y-108917934D01*
X161837583Y-108712000D01*
X161817300Y-108506066D01*
X161757232Y-108308046D01*
X161659685Y-108125550D01*
X161594047Y-108045570D01*
X161528410Y-107965589D01*
X161430952Y-107885609D01*
X161368450Y-107834315D01*
X161185954Y-107736768D01*
X161086943Y-107706733D01*
X160987932Y-107676699D01*
X160782000Y-107656417D01*
X160576067Y-107676699D01*
X160378043Y-107736769D01*
X160195551Y-107834314D01*
X160035589Y-107965589D01*
X159904314Y-108125551D01*
X159806769Y-108308043D01*
X159746699Y-108506067D01*
X159726417Y-108711999D01*
X152692890Y-108711999D01*
X152693912Y-107041749D01*
X159731500Y-107041749D01*
X159743132Y-107100230D01*
X159787447Y-107166552D01*
X159853769Y-107210867D01*
X159912251Y-107222500D01*
X159912252Y-107222500D01*
X161651748Y-107222500D01*
X161651749Y-107222500D01*
X161680989Y-107216683D01*
X161710231Y-107210867D01*
X161776552Y-107166552D01*
X161820867Y-107100231D01*
X161832500Y-107041748D01*
X161832500Y-105302252D01*
X161831505Y-105297252D01*
X161820867Y-105243769D01*
X161776552Y-105177447D01*
X161710230Y-105133132D01*
X161651749Y-105121500D01*
X161651748Y-105121500D01*
X159912252Y-105121500D01*
X159912251Y-105121500D01*
X159853769Y-105133132D01*
X159787447Y-105177447D01*
X159743132Y-105243769D01*
X159731500Y-105302251D01*
X159731500Y-107041749D01*
X152693912Y-107041749D01*
X152695410Y-104591961D01*
X152696541Y-104580061D01*
X152696298Y-104579273D01*
X152688857Y-104570285D01*
X152642982Y-104503460D01*
X152640537Y-104499650D01*
X152640160Y-104499389D01*
X152635859Y-104498449D01*
X152569026Y-104481743D01*
X152560510Y-104478933D01*
X152551860Y-104479498D01*
X121240354Y-104479378D01*
X121233927Y-104478334D01*
X121224605Y-104479032D01*
X121220039Y-104479202D01*
X121216585Y-104480762D01*
X121207414Y-104484596D01*
X121202455Y-104488126D01*
X121178115Y-104500345D01*
X121176641Y-104500806D01*
X121159823Y-104509526D01*
X121159824Y-104509527D01*
X121159677Y-104509603D01*
X121159252Y-104510103D01*
X121146741Y-104524664D01*
X121145861Y-104526184D01*
X121113391Y-104565148D01*
X121109524Y-104569397D01*
X121109216Y-104570246D01*
X121109491Y-104576262D01*
X121099542Y-112386864D01*
X121087956Y-112439043D01*
X121055483Y-112481497D01*
X121008157Y-112506340D01*
X120975959Y-112515118D01*
X120943326Y-112519484D01*
X107485198Y-112517502D01*
X107436988Y-112507739D01*
X107415933Y-112498850D01*
X107377048Y-112472859D01*
X107350557Y-112434313D01*
X107345896Y-112423659D01*
X107335500Y-112373959D01*
X107335500Y-108707000D01*
X114265417Y-108707000D01*
X114285699Y-108912932D01*
X114315733Y-109011943D01*
X114345768Y-109110954D01*
X114443315Y-109293450D01*
X114494608Y-109355952D01*
X114574589Y-109453410D01*
X114654570Y-109519047D01*
X114734550Y-109584685D01*
X114917046Y-109682232D01*
X115115066Y-109742300D01*
X115321000Y-109762583D01*
X115526934Y-109742300D01*
X115724954Y-109682232D01*
X115907450Y-109584685D01*
X116067410Y-109453410D01*
X116198685Y-109293450D01*
X116296232Y-109110954D01*
X116356300Y-108912934D01*
X116376583Y-108707000D01*
X116356300Y-108501066D01*
X116296232Y-108303046D01*
X116198685Y-108120550D01*
X116133047Y-108040570D01*
X116067410Y-107960589D01*
X115969952Y-107880609D01*
X115907450Y-107829315D01*
X115724954Y-107731768D01*
X115625944Y-107701734D01*
X115526932Y-107671699D01*
X115321000Y-107651417D01*
X115115067Y-107671699D01*
X114917043Y-107731769D01*
X114734551Y-107829314D01*
X114574589Y-107960589D01*
X114443314Y-108120551D01*
X114345769Y-108303043D01*
X114285699Y-108501067D01*
X114265417Y-108707000D01*
X107335500Y-108707000D01*
X107335500Y-107036749D01*
X114270500Y-107036749D01*
X114282132Y-107095230D01*
X114326447Y-107161552D01*
X114392769Y-107205867D01*
X114451251Y-107217500D01*
X114451252Y-107217500D01*
X116190748Y-107217500D01*
X116190749Y-107217500D01*
X116224094Y-107210867D01*
X116249231Y-107205867D01*
X116315552Y-107161552D01*
X116359867Y-107095231D01*
X116370505Y-107041749D01*
X116371500Y-107036749D01*
X116371500Y-105297251D01*
X116359867Y-105238769D01*
X116315552Y-105172447D01*
X116249230Y-105128132D01*
X116190749Y-105116500D01*
X116190748Y-105116500D01*
X114451252Y-105116500D01*
X114451251Y-105116500D01*
X114392769Y-105128132D01*
X114326447Y-105172447D01*
X114282132Y-105238769D01*
X114270500Y-105297251D01*
X114270500Y-107036749D01*
X107335500Y-107036749D01*
X107335500Y-100000000D01*
X114226591Y-100000000D01*
X114246202Y-100286690D01*
X114304665Y-100568031D01*
X114400894Y-100838793D01*
X114533100Y-101093939D01*
X114698806Y-101328692D01*
X114698809Y-101328695D01*
X114698811Y-101328698D01*
X114894947Y-101538708D01*
X114894950Y-101538711D01*
X115028690Y-101647516D01*
X115117853Y-101720055D01*
X115363375Y-101869361D01*
X115626942Y-101983844D01*
X115903642Y-102061371D01*
X116188322Y-102100500D01*
X116475678Y-102100500D01*
X116760358Y-102061371D01*
X117037058Y-101983844D01*
X117300625Y-101869361D01*
X117546147Y-101720055D01*
X117769053Y-101538708D01*
X117965189Y-101328698D01*
X118130901Y-101093936D01*
X118263104Y-100838797D01*
X118359334Y-100568032D01*
X118417798Y-100286686D01*
X118437408Y-100000000D01*
X118417798Y-99713314D01*
X118359334Y-99431968D01*
X118263104Y-99161203D01*
X118130901Y-98906064D01*
X118130899Y-98906060D01*
X117965193Y-98671307D01*
X117965191Y-98671304D01*
X117965189Y-98671302D01*
X117769053Y-98461292D01*
X117769051Y-98461291D01*
X117769049Y-98461288D01*
X117546148Y-98279946D01*
X117546147Y-98279945D01*
X117376611Y-98176847D01*
X117300622Y-98130637D01*
X117037060Y-98016157D01*
X117037058Y-98016156D01*
X116802727Y-97950500D01*
X116760355Y-97938628D01*
X116475678Y-97899500D01*
X116188322Y-97899500D01*
X115903644Y-97938628D01*
X115700585Y-97995522D01*
X115626942Y-98016156D01*
X115626940Y-98016156D01*
X115626939Y-98016157D01*
X115363377Y-98130637D01*
X115117851Y-98279946D01*
X114894950Y-98461288D01*
X114698806Y-98671307D01*
X114533100Y-98906060D01*
X114400894Y-99161206D01*
X114304665Y-99431968D01*
X114246202Y-99713309D01*
X114226591Y-100000000D01*
X107335500Y-100000000D01*
X107335500Y-95000000D01*
X114049185Y-95000000D01*
X114047050Y-95057029D01*
G37*
%TD.AperFunction*%
%TD*%
%TA.AperFunction,Conductor*%
%TO.N,+3.3V*%
G36*
X159838000Y-83516613D02*
G01*
X159883387Y-83562000D01*
X159900000Y-83624000D01*
X159900000Y-88376000D01*
X159883387Y-88438000D01*
X159838000Y-88483387D01*
X159776000Y-88500000D01*
X150524000Y-88500000D01*
X150462000Y-88483387D01*
X150416613Y-88438000D01*
X150400000Y-88376000D01*
X150400000Y-83624000D01*
X150416613Y-83562000D01*
X150462000Y-83516613D01*
X150524000Y-83500000D01*
X159776000Y-83500000D01*
X159838000Y-83516613D01*
G37*
%TD.AperFunction*%
%TD*%
%TA.AperFunction,Conductor*%
%TO.N,GND*%
G36*
X166834088Y-47758162D02*
G01*
X166883417Y-47768478D01*
X166945493Y-47795516D01*
X166976120Y-47814580D01*
X166999964Y-47841653D01*
X167024428Y-47879315D01*
X167039337Y-47911656D01*
X167044440Y-47946900D01*
X167038234Y-68074145D01*
X167018838Y-68140696D01*
X166966752Y-68186436D01*
X166898254Y-68197073D01*
X166878455Y-68194500D01*
X164679500Y-68194500D01*
X164617500Y-68177887D01*
X164572113Y-68132500D01*
X164555500Y-68070500D01*
X164555500Y-63123999D01*
X164545090Y-63044933D01*
X164545090Y-63044930D01*
X164528477Y-62982930D01*
X164497958Y-62909250D01*
X164449408Y-62845979D01*
X164449406Y-62845977D01*
X164449403Y-62845973D01*
X164404026Y-62800596D01*
X164404021Y-62800592D01*
X164340750Y-62752042D01*
X164340749Y-62752041D01*
X164340747Y-62752040D01*
X164267075Y-62721524D01*
X164205066Y-62704909D01*
X164126001Y-62694500D01*
X164126000Y-62694500D01*
X155829500Y-62694500D01*
X155767500Y-62677887D01*
X155722113Y-62632500D01*
X155705500Y-62570500D01*
X155705500Y-56623999D01*
X155698498Y-56570813D01*
X155698498Y-56570812D01*
X155681885Y-56508812D01*
X155661355Y-56459250D01*
X155628697Y-56416690D01*
X155628695Y-56416688D01*
X155628692Y-56416684D01*
X155583315Y-56371307D01*
X155583310Y-56371303D01*
X155540750Y-56338645D01*
X155540746Y-56338643D01*
X155491192Y-56318116D01*
X155429186Y-56301501D01*
X155376001Y-56294500D01*
X155376000Y-56294500D01*
X139124000Y-56294500D01*
X139123999Y-56294500D01*
X139070813Y-56301501D01*
X139008807Y-56318116D01*
X138959253Y-56338643D01*
X138916684Y-56371307D01*
X138871307Y-56416684D01*
X138838643Y-56459253D01*
X138818116Y-56508807D01*
X138801501Y-56570813D01*
X138794500Y-56623999D01*
X138794500Y-57170500D01*
X138777887Y-57232500D01*
X138732500Y-57277887D01*
X138670500Y-57294500D01*
X137079500Y-57294500D01*
X137017500Y-57277887D01*
X136972113Y-57232500D01*
X136955500Y-57170500D01*
X136955500Y-53249999D01*
X142044517Y-53249999D01*
X142064422Y-53528294D01*
X142123727Y-53800918D01*
X142123729Y-53800923D01*
X142221231Y-54062337D01*
X142221233Y-54062340D01*
X142354942Y-54307211D01*
X142438544Y-54418890D01*
X142522145Y-54530568D01*
X142719432Y-54727855D01*
X142886948Y-54853255D01*
X142942788Y-54895057D01*
X143030331Y-54942858D01*
X143187663Y-55028769D01*
X143449077Y-55126271D01*
X143449080Y-55126271D01*
X143449081Y-55126272D01*
X143487883Y-55134712D01*
X143721706Y-55185578D01*
X144000000Y-55205482D01*
X144278294Y-55185578D01*
X144550923Y-55126271D01*
X144812337Y-55028769D01*
X145057213Y-54895056D01*
X145280568Y-54727855D01*
X145477855Y-54530568D01*
X145645056Y-54307213D01*
X145778769Y-54062337D01*
X145876271Y-53800923D01*
X145935578Y-53528294D01*
X145955482Y-53250000D01*
X145955482Y-53249999D01*
X151044517Y-53249999D01*
X151064422Y-53528294D01*
X151123727Y-53800918D01*
X151123729Y-53800923D01*
X151221231Y-54062337D01*
X151221233Y-54062340D01*
X151354942Y-54307211D01*
X151438544Y-54418890D01*
X151522145Y-54530568D01*
X151719432Y-54727855D01*
X151886948Y-54853255D01*
X151942788Y-54895057D01*
X152030331Y-54942858D01*
X152187663Y-55028769D01*
X152449077Y-55126271D01*
X152449080Y-55126271D01*
X152449081Y-55126272D01*
X152487883Y-55134712D01*
X152721706Y-55185578D01*
X153000000Y-55205482D01*
X153278294Y-55185578D01*
X153550923Y-55126271D01*
X153812337Y-55028769D01*
X154057213Y-54895056D01*
X154280568Y-54727855D01*
X154477855Y-54530568D01*
X154645056Y-54307213D01*
X154778769Y-54062337D01*
X154876271Y-53800923D01*
X154935578Y-53528294D01*
X154955482Y-53250000D01*
X154935578Y-52971706D01*
X154876271Y-52699077D01*
X154778769Y-52437663D01*
X154692815Y-52280251D01*
X154645057Y-52192788D01*
X154583930Y-52111132D01*
X154477855Y-51969432D01*
X154326187Y-51817764D01*
X160645787Y-51817764D01*
X160675413Y-52087016D01*
X160704209Y-52197161D01*
X160743928Y-52349088D01*
X160808059Y-52500000D01*
X160849871Y-52598392D01*
X160990982Y-52829611D01*
X161153200Y-53024536D01*
X161164255Y-53037820D01*
X161365998Y-53218582D01*
X161591910Y-53368044D01*
X161698211Y-53417875D01*
X161837177Y-53483021D01*
X162096562Y-53561058D01*
X162096569Y-53561060D01*
X162364561Y-53600500D01*
X162567631Y-53600500D01*
X162567634Y-53600500D01*
X162770156Y-53585677D01*
X162770155Y-53585677D01*
X163034553Y-53526780D01*
X163287558Y-53430014D01*
X163523777Y-53297441D01*
X163738177Y-53131888D01*
X163926186Y-52936881D01*
X164083799Y-52716579D01*
X164207656Y-52475675D01*
X164295118Y-52219305D01*
X164344319Y-51952933D01*
X164354212Y-51682235D01*
X164324586Y-51412982D01*
X164256072Y-51150912D01*
X164150130Y-50901610D01*
X164009018Y-50670390D01*
X164009017Y-50670388D01*
X163835746Y-50462181D01*
X163730758Y-50368112D01*
X163634002Y-50281418D01*
X163408090Y-50131956D01*
X163408086Y-50131954D01*
X163162822Y-50016978D01*
X162903437Y-49938941D01*
X162903431Y-49938940D01*
X162635439Y-49899500D01*
X162432369Y-49899500D01*
X162432366Y-49899500D01*
X162229843Y-49914322D01*
X161965449Y-49973219D01*
X161712441Y-50069986D01*
X161476223Y-50202559D01*
X161261825Y-50368109D01*
X161073813Y-50563120D01*
X160916201Y-50783420D01*
X160792342Y-51024329D01*
X160704881Y-51280695D01*
X160655680Y-51547066D01*
X160645787Y-51817764D01*
X154326187Y-51817764D01*
X154280568Y-51772145D01*
X154122683Y-51653954D01*
X154057211Y-51604942D01*
X153828579Y-51480100D01*
X153812337Y-51471231D01*
X153550923Y-51373729D01*
X153550918Y-51373727D01*
X153278294Y-51314422D01*
X153000000Y-51294517D01*
X152721705Y-51314422D01*
X152449081Y-51373727D01*
X152318370Y-51422479D01*
X152187663Y-51471231D01*
X152187660Y-51471232D01*
X152187659Y-51471233D01*
X151942788Y-51604942D01*
X151719429Y-51772147D01*
X151522147Y-51969429D01*
X151354942Y-52192788D01*
X151221233Y-52437659D01*
X151221231Y-52437663D01*
X151197981Y-52499999D01*
X151123727Y-52699081D01*
X151064422Y-52971705D01*
X151044517Y-53249999D01*
X145955482Y-53249999D01*
X145935578Y-52971706D01*
X145876271Y-52699077D01*
X145778769Y-52437663D01*
X145692815Y-52280251D01*
X145645057Y-52192788D01*
X145583930Y-52111132D01*
X145477855Y-51969432D01*
X145280568Y-51772145D01*
X145122683Y-51653954D01*
X145057211Y-51604942D01*
X144828579Y-51480100D01*
X144812337Y-51471231D01*
X144550923Y-51373729D01*
X144550918Y-51373727D01*
X144278294Y-51314422D01*
X144000000Y-51294517D01*
X143721705Y-51314422D01*
X143449081Y-51373727D01*
X143318370Y-51422479D01*
X143187663Y-51471231D01*
X143187660Y-51471232D01*
X143187659Y-51471233D01*
X142942788Y-51604942D01*
X142719429Y-51772147D01*
X142522147Y-51969429D01*
X142354942Y-52192788D01*
X142221233Y-52437659D01*
X142221231Y-52437663D01*
X142197981Y-52499999D01*
X142123727Y-52699081D01*
X142064422Y-52971705D01*
X142044517Y-53249999D01*
X136955500Y-53249999D01*
X136955500Y-51873999D01*
X136948498Y-51820813D01*
X136948498Y-51820812D01*
X136931885Y-51758812D01*
X136911355Y-51709250D01*
X136878697Y-51666690D01*
X136878695Y-51666688D01*
X136878692Y-51666684D01*
X136833315Y-51621307D01*
X136833310Y-51621303D01*
X136790750Y-51588645D01*
X136790746Y-51588643D01*
X136741192Y-51568116D01*
X136679186Y-51551501D01*
X136626001Y-51544500D01*
X136626000Y-51544500D01*
X136072673Y-51544500D01*
X136017864Y-51551943D01*
X135978446Y-51562852D01*
X135954114Y-51569586D01*
X135954111Y-51569587D01*
X135954112Y-51569587D01*
X135903274Y-51591379D01*
X135860092Y-51625940D01*
X135814481Y-51673848D01*
X135782080Y-51718675D01*
X135763484Y-51768704D01*
X135737061Y-51811003D01*
X135696109Y-51839470D01*
X135647254Y-51849500D01*
X134352746Y-51849500D01*
X134303891Y-51839470D01*
X134262939Y-51811003D01*
X134236516Y-51768704D01*
X134232837Y-51758807D01*
X134217920Y-51718675D01*
X134185518Y-51673847D01*
X134139909Y-51625942D01*
X134139907Y-51625940D01*
X134139906Y-51625939D01*
X134093927Y-51589139D01*
X134058515Y-51543618D01*
X134047526Y-51487001D01*
X134063336Y-51431536D01*
X134086683Y-51406327D01*
X134094550Y-51394553D01*
X134094552Y-51394552D01*
X134138867Y-51328231D01*
X134150500Y-51269748D01*
X134150500Y-51250000D01*
X147444417Y-51250000D01*
X147464699Y-51455932D01*
X147474124Y-51487001D01*
X147524768Y-51653954D01*
X147622315Y-51836450D01*
X147673609Y-51898952D01*
X147753589Y-51996410D01*
X147807275Y-52040468D01*
X147913550Y-52127685D01*
X148096046Y-52225232D01*
X148294066Y-52285300D01*
X148448392Y-52300500D01*
X148551607Y-52300500D01*
X148551608Y-52300500D01*
X148705934Y-52285300D01*
X148903954Y-52225232D01*
X149086450Y-52127685D01*
X149246410Y-51996410D01*
X149377685Y-51836450D01*
X149475232Y-51653954D01*
X149535300Y-51455934D01*
X149555583Y-51250000D01*
X149535300Y-51044066D01*
X149475232Y-50846046D01*
X149377685Y-50663550D01*
X149269248Y-50531418D01*
X149246410Y-50503589D01*
X149148952Y-50423608D01*
X149086450Y-50372315D01*
X148903954Y-50274768D01*
X148804944Y-50244734D01*
X148705932Y-50214699D01*
X148568467Y-50201160D01*
X148551608Y-50199500D01*
X148448392Y-50199500D01*
X148433192Y-50200996D01*
X148294067Y-50214699D01*
X148096043Y-50274769D01*
X147913551Y-50372314D01*
X147753589Y-50503589D01*
X147622314Y-50663551D01*
X147524769Y-50846043D01*
X147464699Y-51044067D01*
X147444417Y-51250000D01*
X134150500Y-51250000D01*
X134150500Y-51189598D01*
X134168142Y-51125849D01*
X134216047Y-51080240D01*
X134280585Y-51065747D01*
X134343391Y-51086496D01*
X134421769Y-51138867D01*
X134480251Y-51150500D01*
X134480252Y-51150500D01*
X135969748Y-51150500D01*
X135969749Y-51150500D01*
X135998989Y-51144683D01*
X136028231Y-51138867D01*
X136094552Y-51094552D01*
X136138867Y-51028231D01*
X136150500Y-50969748D01*
X136150500Y-49630252D01*
X136138867Y-49571769D01*
X136138866Y-49571768D01*
X136094552Y-49505447D01*
X136028230Y-49461132D01*
X135969749Y-49449500D01*
X135969748Y-49449500D01*
X134480252Y-49449500D01*
X134480251Y-49449500D01*
X134421769Y-49461132D01*
X134343391Y-49513504D01*
X134280585Y-49534253D01*
X134216047Y-49519760D01*
X134168142Y-49474151D01*
X134150500Y-49410402D01*
X134150500Y-49330251D01*
X134138867Y-49271769D01*
X134094552Y-49205447D01*
X134028230Y-49161132D01*
X133969749Y-49149500D01*
X133969748Y-49149500D01*
X132030252Y-49149500D01*
X132030251Y-49149500D01*
X131971769Y-49161132D01*
X131905447Y-49205448D01*
X131903101Y-49208960D01*
X131858452Y-49249426D01*
X131800000Y-49264067D01*
X131741548Y-49249426D01*
X131696899Y-49208960D01*
X131694552Y-49205448D01*
X131628230Y-49161132D01*
X131569749Y-49149500D01*
X131569748Y-49149500D01*
X129630252Y-49149500D01*
X129630251Y-49149500D01*
X129571769Y-49161132D01*
X129505447Y-49205447D01*
X129461132Y-49271769D01*
X129449500Y-49330251D01*
X129449500Y-49410402D01*
X129431858Y-49474151D01*
X129383953Y-49519760D01*
X129319415Y-49534253D01*
X129256609Y-49513504D01*
X129178230Y-49461132D01*
X129119749Y-49449500D01*
X129119748Y-49449500D01*
X127630252Y-49449500D01*
X127630251Y-49449500D01*
X127571769Y-49461132D01*
X127505447Y-49505447D01*
X127461132Y-49571769D01*
X127449500Y-49630251D01*
X127449500Y-50969749D01*
X127461132Y-51028230D01*
X127505447Y-51094552D01*
X127571769Y-51138867D01*
X127630251Y-51150500D01*
X127630252Y-51150500D01*
X129119748Y-51150500D01*
X129119749Y-51150500D01*
X129148989Y-51144683D01*
X129178231Y-51138867D01*
X129244552Y-51094552D01*
X129244551Y-51094552D01*
X129256609Y-51086496D01*
X129319415Y-51065747D01*
X129383953Y-51080240D01*
X129431858Y-51125849D01*
X129449500Y-51189598D01*
X129449500Y-51269749D01*
X129461132Y-51328230D01*
X129505447Y-51394552D01*
X129571769Y-51438867D01*
X129630251Y-51450500D01*
X129630252Y-51450500D01*
X131569748Y-51450500D01*
X131569749Y-51450500D01*
X131598989Y-51444683D01*
X131628231Y-51438867D01*
X131694552Y-51394552D01*
X131696898Y-51391040D01*
X131741547Y-51350574D01*
X131800000Y-51335932D01*
X131858453Y-51350574D01*
X131903101Y-51391040D01*
X131905448Y-51394552D01*
X131925537Y-51407975D01*
X131965033Y-51450842D01*
X131980580Y-51507019D01*
X131968741Y-51564093D01*
X131932134Y-51609452D01*
X131916686Y-51621305D01*
X131871307Y-51666684D01*
X131838643Y-51709253D01*
X131818116Y-51758807D01*
X131801501Y-51820813D01*
X131794500Y-51873999D01*
X131794500Y-51975500D01*
X131777887Y-52037500D01*
X131732500Y-52082887D01*
X131670500Y-52099500D01*
X131580251Y-52099500D01*
X131521769Y-52111132D01*
X131455447Y-52155447D01*
X131411132Y-52221769D01*
X131399500Y-52280251D01*
X131399500Y-53669749D01*
X131411132Y-53728230D01*
X131455447Y-53794552D01*
X131521769Y-53838867D01*
X131580251Y-53850500D01*
X131580252Y-53850500D01*
X131670500Y-53850500D01*
X131732500Y-53867113D01*
X131777887Y-53912500D01*
X131794500Y-53974500D01*
X131794500Y-62570500D01*
X131801501Y-62623686D01*
X131818114Y-62685685D01*
X131828224Y-62710093D01*
X131837662Y-62757543D01*
X131828225Y-62804992D01*
X131805282Y-62839333D01*
X131805540Y-62839531D01*
X131802525Y-62843459D01*
X131801350Y-62845219D01*
X131800599Y-62845969D01*
X131752040Y-62909252D01*
X131721524Y-62982924D01*
X131704909Y-63044933D01*
X131694500Y-63123999D01*
X131694500Y-68126001D01*
X131703515Y-68194478D01*
X131704910Y-68205070D01*
X131706228Y-68209989D01*
X131721524Y-68267075D01*
X131752040Y-68340747D01*
X131752041Y-68340749D01*
X131752042Y-68340750D01*
X131781482Y-68379116D01*
X131800596Y-68404026D01*
X131845973Y-68449403D01*
X131845977Y-68449406D01*
X131845979Y-68449408D01*
X131909250Y-68497958D01*
X131909251Y-68497958D01*
X131909252Y-68497959D01*
X131982924Y-68528475D01*
X131982927Y-68528475D01*
X131982930Y-68528477D01*
X132044930Y-68545090D01*
X132104232Y-68552897D01*
X132123999Y-68555500D01*
X132124000Y-68555500D01*
X145170500Y-68555500D01*
X145232500Y-68572113D01*
X145277887Y-68617500D01*
X145294500Y-68679500D01*
X145294500Y-70670500D01*
X145277887Y-70732500D01*
X145232500Y-70777887D01*
X145170500Y-70794500D01*
X140373999Y-70794500D01*
X140320813Y-70801501D01*
X140258807Y-70818116D01*
X140209253Y-70838643D01*
X140166684Y-70871307D01*
X140121307Y-70916684D01*
X140088643Y-70959253D01*
X140068116Y-71008807D01*
X140051501Y-71070813D01*
X140044500Y-71123999D01*
X140044500Y-77072518D01*
X140026106Y-77137505D01*
X139976381Y-77183213D01*
X139910078Y-77196079D01*
X139846866Y-77172288D01*
X139812882Y-77147207D01*
X139684696Y-77102353D01*
X139654269Y-77099500D01*
X139654266Y-77099500D01*
X138845734Y-77099500D01*
X138845731Y-77099500D01*
X138815303Y-77102353D01*
X138687115Y-77147207D01*
X138577849Y-77227849D01*
X138497207Y-77337115D01*
X138452353Y-77465303D01*
X138449500Y-77495731D01*
X138449500Y-78504269D01*
X138452353Y-78534696D01*
X138497207Y-78662884D01*
X138577849Y-78772150D01*
X138687115Y-78852792D01*
X138687118Y-78852793D01*
X138815301Y-78897646D01*
X138827474Y-78898787D01*
X138845731Y-78900500D01*
X138845734Y-78900500D01*
X139251949Y-78900500D01*
X139299402Y-78909939D01*
X139339630Y-78936819D01*
X139800668Y-79397857D01*
X139816089Y-79416647D01*
X139823004Y-79426996D01*
X139856685Y-79449501D01*
X139904210Y-79481256D01*
X140000000Y-79500310D01*
X140012202Y-79497883D01*
X140036393Y-79495500D01*
X141550500Y-79495500D01*
X141612500Y-79512113D01*
X141657887Y-79557500D01*
X141674500Y-79619500D01*
X141674500Y-80269749D01*
X141686132Y-80328230D01*
X141730447Y-80394552D01*
X141796769Y-80438867D01*
X141855251Y-80450500D01*
X141855252Y-80450500D01*
X142026372Y-80450500D01*
X142091419Y-80468930D01*
X142137129Y-80518743D01*
X142140960Y-80526353D01*
X142153970Y-80589708D01*
X142138147Y-80636640D01*
X142124500Y-80705251D01*
X142124500Y-80994749D01*
X142136132Y-81053230D01*
X142180447Y-81119552D01*
X142246769Y-81163867D01*
X142305251Y-81175500D01*
X142305252Y-81175500D01*
X143694748Y-81175500D01*
X143694749Y-81175500D01*
X143716606Y-81171152D01*
X143751501Y-81164211D01*
X143807225Y-81165904D01*
X143856576Y-81191840D01*
X143907609Y-81235758D01*
X143907610Y-81235758D01*
X143907611Y-81235759D01*
X144032083Y-81290066D01*
X144167034Y-81305271D01*
X144174108Y-81306068D01*
X144175278Y-81306547D01*
X144185802Y-81301720D01*
X144209263Y-81297281D01*
X144300471Y-81280024D01*
X144420537Y-81216567D01*
X144859402Y-80777699D01*
X144911084Y-80746723D01*
X144971272Y-80743767D01*
X144971766Y-80743865D01*
X144971769Y-80743867D01*
X145030252Y-80755500D01*
X148469748Y-80755500D01*
X148469749Y-80755500D01*
X148498989Y-80749683D01*
X148528231Y-80743867D01*
X148594552Y-80699552D01*
X148638867Y-80633231D01*
X148650500Y-80574748D01*
X148650500Y-79555252D01*
X148649615Y-79550805D01*
X148638867Y-79496769D01*
X148594552Y-79430447D01*
X148528230Y-79386132D01*
X148469749Y-79374500D01*
X148469748Y-79374500D01*
X145030252Y-79374500D01*
X145030251Y-79374500D01*
X144971769Y-79386132D01*
X144905447Y-79430447D01*
X144861132Y-79496769D01*
X144850922Y-79548101D01*
X144828729Y-79598009D01*
X144787245Y-79633540D01*
X144733966Y-79661698D01*
X144729830Y-79663786D01*
X144672948Y-79691180D01*
X144668707Y-79694189D01*
X144624046Y-79738849D01*
X144620709Y-79742063D01*
X144574394Y-79785037D01*
X144562968Y-79799926D01*
X144222026Y-80140870D01*
X144004862Y-80358035D01*
X143917181Y-80445716D01*
X143867818Y-80475966D01*
X143810102Y-80480508D01*
X143756615Y-80458353D01*
X143719015Y-80414330D01*
X143705500Y-80358035D01*
X143705500Y-79453640D01*
X143724019Y-79388449D01*
X143774046Y-79342731D01*
X143885272Y-79287118D01*
X145523356Y-78468078D01*
X145570084Y-78435970D01*
X145620111Y-78390252D01*
X145656289Y-78346593D01*
X145679160Y-78294710D01*
X145697679Y-78229519D01*
X145705500Y-78173364D01*
X145705500Y-77540397D01*
X145705275Y-77530790D01*
X145705135Y-77527817D01*
X145705000Y-77522020D01*
X145705000Y-76477980D01*
X145705136Y-76472178D01*
X145705275Y-76469210D01*
X145705500Y-76459603D01*
X145705500Y-76167404D01*
X145724920Y-76100779D01*
X145777096Y-76055022D01*
X145845686Y-76044465D01*
X145850427Y-76045089D01*
X145850430Y-76045090D01*
X145909723Y-76052896D01*
X145929499Y-76055500D01*
X145929500Y-76055500D01*
X150320500Y-76055500D01*
X150382500Y-76072113D01*
X150427887Y-76117500D01*
X150444500Y-76179500D01*
X150444500Y-78626001D01*
X150454909Y-78705066D01*
X150471524Y-78767075D01*
X150502040Y-78840747D01*
X150502041Y-78840749D01*
X150502042Y-78840750D01*
X150535945Y-78884933D01*
X150550596Y-78904026D01*
X150595973Y-78949403D01*
X150595977Y-78949406D01*
X150595979Y-78949408D01*
X150659250Y-78997958D01*
X150659251Y-78997958D01*
X150659252Y-78997959D01*
X150732924Y-79028475D01*
X150732927Y-79028475D01*
X150732930Y-79028477D01*
X150794930Y-79045090D01*
X150842676Y-79051376D01*
X150873999Y-79055500D01*
X150874000Y-79055500D01*
X156320500Y-79055500D01*
X156382500Y-79072113D01*
X156427887Y-79117500D01*
X156444500Y-79179500D01*
X156444500Y-80876001D01*
X156454149Y-80949295D01*
X156454910Y-80955070D01*
X156454959Y-80955252D01*
X156471524Y-81017075D01*
X156502040Y-81090747D01*
X156502041Y-81090749D01*
X156502042Y-81090750D01*
X156545340Y-81147176D01*
X156550596Y-81154026D01*
X156595973Y-81199403D01*
X156595977Y-81199406D01*
X156595979Y-81199408D01*
X156659250Y-81247958D01*
X156659251Y-81247958D01*
X156659252Y-81247959D01*
X156732924Y-81278475D01*
X156732927Y-81278475D01*
X156732930Y-81278477D01*
X156794930Y-81295090D01*
X156845289Y-81301720D01*
X156873999Y-81305500D01*
X156874000Y-81305500D01*
X163850500Y-81305500D01*
X163850501Y-81305500D01*
X163867734Y-81303231D01*
X163929570Y-81295090D01*
X163991570Y-81278477D01*
X164065250Y-81247958D01*
X164128521Y-81199408D01*
X164173908Y-81154021D01*
X164222458Y-81090750D01*
X164252977Y-81017070D01*
X164256803Y-81002792D01*
X164258381Y-80996904D01*
X164283167Y-80949293D01*
X164325751Y-80916617D01*
X164378155Y-80905000D01*
X165921845Y-80905000D01*
X165974250Y-80916618D01*
X166016835Y-80949295D01*
X166041618Y-80996904D01*
X166043654Y-81004500D01*
X166047022Y-81017072D01*
X166077539Y-81090747D01*
X166077540Y-81090749D01*
X166077541Y-81090750D01*
X166120839Y-81147176D01*
X166126095Y-81154026D01*
X166171472Y-81199403D01*
X166171476Y-81199406D01*
X166171478Y-81199408D01*
X166234749Y-81247958D01*
X166234750Y-81247958D01*
X166234751Y-81247959D01*
X166308423Y-81278475D01*
X166308426Y-81278475D01*
X166308429Y-81278477D01*
X166370429Y-81295090D01*
X166420788Y-81301720D01*
X166449498Y-81305500D01*
X166910117Y-81305500D01*
X166972128Y-81322119D01*
X167017517Y-81367522D01*
X167034116Y-81429537D01*
X167033415Y-83705986D01*
X167029932Y-95000000D01*
X142074844Y-95000000D01*
X142075215Y-94996000D01*
X142056397Y-94792917D01*
X142056124Y-94791959D01*
X142028387Y-94694475D01*
X142000582Y-94596750D01*
X141987185Y-94569845D01*
X141909675Y-94414181D01*
X141786763Y-94251419D01*
X141636041Y-94114018D01*
X141462638Y-94006652D01*
X141272457Y-93932976D01*
X141201879Y-93919783D01*
X141071976Y-93895500D01*
X140868024Y-93895500D01*
X140767784Y-93914237D01*
X140667542Y-93932976D01*
X140477361Y-94006652D01*
X140303958Y-94114018D01*
X140153236Y-94251419D01*
X140030324Y-94414181D01*
X139939418Y-94596748D01*
X139883602Y-94792916D01*
X139864785Y-94995999D01*
X139865156Y-95000000D01*
X136611103Y-95000000D01*
X136122819Y-94511716D01*
X136095939Y-94471488D01*
X136086500Y-94424035D01*
X136086500Y-92317764D01*
X160895787Y-92317764D01*
X160925413Y-92587016D01*
X160993928Y-92849087D01*
X161099871Y-93098392D01*
X161240982Y-93329611D01*
X161330253Y-93436881D01*
X161414255Y-93537820D01*
X161615998Y-93718582D01*
X161841910Y-93868044D01*
X161900479Y-93895500D01*
X162087177Y-93983021D01*
X162346562Y-94061058D01*
X162346569Y-94061060D01*
X162614561Y-94100500D01*
X162817631Y-94100500D01*
X162817634Y-94100500D01*
X163020156Y-94085677D01*
X163020156Y-94085676D01*
X163284553Y-94026780D01*
X163537558Y-93930014D01*
X163773777Y-93797441D01*
X163988177Y-93631888D01*
X164176186Y-93436881D01*
X164333799Y-93216579D01*
X164457656Y-92975675D01*
X164545118Y-92719305D01*
X164594319Y-92452933D01*
X164604212Y-92182235D01*
X164574586Y-91912982D01*
X164506072Y-91650912D01*
X164400130Y-91401610D01*
X164259018Y-91170390D01*
X164259017Y-91170388D01*
X164085746Y-90962181D01*
X163980758Y-90868112D01*
X163884002Y-90781418D01*
X163658090Y-90631956D01*
X163658086Y-90631954D01*
X163412822Y-90516978D01*
X163153437Y-90438941D01*
X163153431Y-90438940D01*
X162885439Y-90399500D01*
X162682369Y-90399500D01*
X162682366Y-90399500D01*
X162479843Y-90414322D01*
X162215449Y-90473219D01*
X161962441Y-90569986D01*
X161726223Y-90702559D01*
X161511825Y-90868109D01*
X161323813Y-91063120D01*
X161166201Y-91283420D01*
X161042342Y-91524329D01*
X160954881Y-91780695D01*
X160905680Y-92047066D01*
X160895787Y-92317764D01*
X136086500Y-92317764D01*
X136086500Y-86293419D01*
X136093081Y-86253560D01*
X136112122Y-86217935D01*
X136160536Y-86154841D01*
X136221044Y-86008762D01*
X136234829Y-85904046D01*
X136261914Y-85841570D01*
X136317909Y-85802815D01*
X136385925Y-85799473D01*
X136445449Y-85832553D01*
X138158630Y-87545733D01*
X138167896Y-87556101D01*
X138190120Y-87583969D01*
X138237364Y-87616180D01*
X138241145Y-87618863D01*
X138291973Y-87656376D01*
X138296564Y-87658694D01*
X138302325Y-87660471D01*
X138302327Y-87660472D01*
X138356983Y-87677330D01*
X138361342Y-87678765D01*
X138415300Y-87697646D01*
X138415303Y-87697646D01*
X138420991Y-87699636D01*
X138426071Y-87700500D01*
X138432098Y-87700500D01*
X138489261Y-87700500D01*
X138493898Y-87700587D01*
X138551010Y-87702724D01*
X138551010Y-87702723D01*
X138557029Y-87702949D01*
X138575635Y-87700500D01*
X139920500Y-87700500D01*
X139982500Y-87717113D01*
X140027887Y-87762500D01*
X140044500Y-87824500D01*
X140044500Y-89806001D01*
X140051501Y-89859186D01*
X140068116Y-89921192D01*
X140088643Y-89970746D01*
X140088645Y-89970750D01*
X140121303Y-90013310D01*
X140121307Y-90013315D01*
X140166684Y-90058692D01*
X140166688Y-90058695D01*
X140166690Y-90058697D01*
X140209250Y-90091355D01*
X140258812Y-90111885D01*
X140320812Y-90128498D01*
X140347405Y-90131998D01*
X140373999Y-90135500D01*
X140374000Y-90135500D01*
X146376000Y-90135500D01*
X146376001Y-90135500D01*
X146393729Y-90133166D01*
X146429188Y-90128498D01*
X146491188Y-90111885D01*
X146540750Y-90091355D01*
X146583310Y-90058697D01*
X146628697Y-90013310D01*
X146661355Y-89970750D01*
X146681885Y-89921188D01*
X146698498Y-89859188D01*
X146705500Y-89806000D01*
X146705500Y-88376001D01*
X150094500Y-88376001D01*
X150104909Y-88455066D01*
X150121524Y-88517075D01*
X150152040Y-88590747D01*
X150200596Y-88654026D01*
X150245973Y-88699403D01*
X150245977Y-88699406D01*
X150245979Y-88699408D01*
X150309250Y-88747958D01*
X150309251Y-88747958D01*
X150309252Y-88747959D01*
X150382924Y-88778475D01*
X150382927Y-88778475D01*
X150382930Y-88778477D01*
X150444930Y-88795090D01*
X150504232Y-88802897D01*
X150523999Y-88805500D01*
X150524000Y-88805500D01*
X159776000Y-88805500D01*
X159776001Y-88805500D01*
X159791814Y-88803417D01*
X159855070Y-88795090D01*
X159917070Y-88778477D01*
X159990750Y-88747958D01*
X160054021Y-88699408D01*
X160099408Y-88654021D01*
X160147958Y-88590750D01*
X160178477Y-88517070D01*
X160195090Y-88455070D01*
X160205500Y-88376000D01*
X160205500Y-83624000D01*
X160195090Y-83544930D01*
X160178477Y-83482930D01*
X160176076Y-83477134D01*
X160147959Y-83409252D01*
X160147958Y-83409251D01*
X160147958Y-83409250D01*
X160099408Y-83345979D01*
X160099406Y-83345977D01*
X160099403Y-83345973D01*
X160054026Y-83300596D01*
X160011759Y-83268163D01*
X159990750Y-83252042D01*
X159990749Y-83252041D01*
X159990747Y-83252040D01*
X159917075Y-83221524D01*
X159855066Y-83204909D01*
X159776001Y-83194500D01*
X159776000Y-83194500D01*
X150524000Y-83194500D01*
X150523999Y-83194500D01*
X150444933Y-83204909D01*
X150382924Y-83221524D01*
X150309252Y-83252040D01*
X150245973Y-83300596D01*
X150200596Y-83345973D01*
X150152040Y-83409252D01*
X150121524Y-83482924D01*
X150104909Y-83544933D01*
X150094500Y-83623999D01*
X150094500Y-88376001D01*
X146705500Y-88376001D01*
X146705500Y-84374000D01*
X146698498Y-84320812D01*
X146681885Y-84258812D01*
X146661355Y-84209250D01*
X146628697Y-84166690D01*
X146628695Y-84166688D01*
X146628692Y-84166684D01*
X146583315Y-84121307D01*
X146583310Y-84121303D01*
X146540750Y-84088645D01*
X146540746Y-84088643D01*
X146491192Y-84068116D01*
X146429186Y-84051501D01*
X146376001Y-84044500D01*
X146376000Y-84044500D01*
X144386482Y-84044500D01*
X144339029Y-84035061D01*
X144298801Y-84008181D01*
X143741819Y-83451199D01*
X143714939Y-83410971D01*
X143705500Y-83363518D01*
X143705500Y-82391967D01*
X143719015Y-82335672D01*
X143756615Y-82291649D01*
X143810102Y-82269494D01*
X143867818Y-82274036D01*
X143917181Y-82304286D01*
X144343630Y-82730733D01*
X144352896Y-82741101D01*
X144375120Y-82768969D01*
X144422364Y-82801180D01*
X144426141Y-82803860D01*
X144441645Y-82815303D01*
X144476973Y-82841376D01*
X144481568Y-82843695D01*
X144487325Y-82845470D01*
X144487327Y-82845472D01*
X144512351Y-82853190D01*
X144541980Y-82862330D01*
X144546371Y-82863774D01*
X144600301Y-82882646D01*
X144600302Y-82882646D01*
X144605989Y-82884636D01*
X144611073Y-82885500D01*
X144617098Y-82885500D01*
X144674262Y-82885500D01*
X144678897Y-82885587D01*
X144687001Y-82885890D01*
X144736010Y-82887724D01*
X144736011Y-82887723D01*
X144741048Y-82887912D01*
X144794011Y-82902014D01*
X144835721Y-82937570D01*
X144858030Y-82987632D01*
X144861132Y-83003230D01*
X144905447Y-83069552D01*
X144971769Y-83113867D01*
X145030251Y-83125500D01*
X145030252Y-83125500D01*
X148469748Y-83125500D01*
X148469749Y-83125500D01*
X148498989Y-83119683D01*
X148528231Y-83113867D01*
X148594552Y-83069552D01*
X148638867Y-83003231D01*
X148650500Y-82944748D01*
X148650500Y-81925252D01*
X148648235Y-81913867D01*
X148638867Y-81866769D01*
X148594552Y-81800447D01*
X148528230Y-81756132D01*
X148469749Y-81744500D01*
X148469748Y-81744500D01*
X145030252Y-81744500D01*
X145030251Y-81744500D01*
X144971769Y-81756132D01*
X144905447Y-81800448D01*
X144902111Y-81805441D01*
X144862757Y-81842906D01*
X144811163Y-81859949D01*
X144757236Y-81853297D01*
X144711331Y-81824227D01*
X144544678Y-81657575D01*
X144462882Y-81597207D01*
X144334699Y-81552354D01*
X144313703Y-81551568D01*
X144204217Y-81547471D01*
X144197986Y-81545676D01*
X144192318Y-81549063D01*
X144067812Y-81582423D01*
X144062928Y-81585493D01*
X143996955Y-81604500D01*
X143893163Y-81604500D01*
X143857167Y-81599160D01*
X143824272Y-81583602D01*
X143819550Y-81580447D01*
X143777507Y-81552354D01*
X143753230Y-81536132D01*
X143694749Y-81524500D01*
X143694748Y-81524500D01*
X142305252Y-81524500D01*
X142305251Y-81524500D01*
X142246769Y-81536132D01*
X142180447Y-81580447D01*
X142136132Y-81646769D01*
X142124500Y-81705251D01*
X142124500Y-81994749D01*
X142136133Y-82053231D01*
X142153331Y-82078969D01*
X142173997Y-82140256D01*
X142160990Y-82203612D01*
X142136897Y-82251475D01*
X142115018Y-82338827D01*
X142113685Y-82393152D01*
X142117571Y-82438284D01*
X142117618Y-82438519D01*
X142120000Y-82462706D01*
X142120000Y-83010867D01*
X142114662Y-83046857D01*
X142101774Y-83074109D01*
X142102281Y-83074396D01*
X142085126Y-83104676D01*
X142069565Y-83137579D01*
X142054144Y-83188418D01*
X142051295Y-83193083D01*
X142051792Y-83197107D01*
X142046725Y-83231266D01*
X142044500Y-83261430D01*
X142044500Y-83335250D01*
X142031409Y-83390704D01*
X141994900Y-83434450D01*
X141943900Y-83472700D01*
X141880636Y-83496999D01*
X141814046Y-83484409D01*
X141764019Y-83438691D01*
X141745500Y-83373500D01*
X141745500Y-83268163D01*
X141750839Y-83232168D01*
X141766398Y-83199273D01*
X141782697Y-83174879D01*
X141813867Y-83128231D01*
X141825500Y-83069748D01*
X141825500Y-82430252D01*
X141822628Y-82415816D01*
X141813867Y-82371769D01*
X141769552Y-82305447D01*
X141703230Y-82261132D01*
X141644749Y-82249500D01*
X141644748Y-82249500D01*
X141355252Y-82249500D01*
X141355251Y-82249500D01*
X141296769Y-82261132D01*
X141230447Y-82305447D01*
X141186132Y-82371769D01*
X141174500Y-82430251D01*
X141174500Y-83069749D01*
X141186132Y-83128230D01*
X141192379Y-83137579D01*
X141229466Y-83193083D01*
X141233602Y-83199272D01*
X141249160Y-83232167D01*
X141254500Y-83268163D01*
X141254500Y-83346949D01*
X141245061Y-83394402D01*
X141218181Y-83434630D01*
X140934630Y-83718181D01*
X140894402Y-83745061D01*
X140846949Y-83754500D01*
X140379686Y-83754500D01*
X140324842Y-83741712D01*
X140281310Y-83705986D01*
X140178282Y-83571717D01*
X140052840Y-83475463D01*
X139906762Y-83414956D01*
X139750000Y-83394317D01*
X139593237Y-83414956D01*
X139447159Y-83475463D01*
X139321717Y-83571717D01*
X139225463Y-83697159D01*
X139164956Y-83843237D01*
X139144317Y-84000000D01*
X139164956Y-84156762D01*
X139225463Y-84302840D01*
X139321717Y-84428282D01*
X139391232Y-84481622D01*
X139447159Y-84524536D01*
X139593238Y-84585044D01*
X139750000Y-84605682D01*
X139904315Y-84585366D01*
X139972905Y-84595923D01*
X140025081Y-84641680D01*
X140044500Y-84708305D01*
X140044500Y-86675500D01*
X140027887Y-86737500D01*
X139982500Y-86782887D01*
X139920500Y-86799500D01*
X138737965Y-86799500D01*
X138690512Y-86790061D01*
X138650284Y-86763181D01*
X136249284Y-84362181D01*
X136219034Y-84312818D01*
X136214492Y-84255102D01*
X136236647Y-84201615D01*
X136280670Y-84164015D01*
X136336965Y-84150500D01*
X136429269Y-84150500D01*
X136444482Y-84149072D01*
X136459699Y-84147646D01*
X136587882Y-84102793D01*
X136587882Y-84102792D01*
X136587884Y-84102792D01*
X136697150Y-84022150D01*
X136777792Y-83912884D01*
X136783374Y-83896931D01*
X136822646Y-83784699D01*
X136825500Y-83754266D01*
X136825500Y-82845734D01*
X136825475Y-82845472D01*
X136822646Y-82815303D01*
X136822646Y-82815301D01*
X136777793Y-82687118D01*
X136777792Y-82687115D01*
X136697150Y-82577849D01*
X136587884Y-82497207D01*
X136459696Y-82452353D01*
X136429269Y-82449500D01*
X136429266Y-82449500D01*
X135070734Y-82449500D01*
X135070731Y-82449500D01*
X135040303Y-82452353D01*
X134912115Y-82497207D01*
X134802849Y-82577849D01*
X134722207Y-82687115D01*
X134677353Y-82815303D01*
X134674500Y-82845731D01*
X134674500Y-83754269D01*
X134677353Y-83784696D01*
X134722207Y-83912884D01*
X134802849Y-84022150D01*
X134912115Y-84102792D01*
X134912118Y-84102793D01*
X135040301Y-84147646D01*
X135052474Y-84148787D01*
X135070731Y-84150500D01*
X135070734Y-84150500D01*
X135175500Y-84150500D01*
X135237500Y-84167113D01*
X135282887Y-84212500D01*
X135299500Y-84274500D01*
X135299500Y-84467738D01*
X135298720Y-84481622D01*
X135294729Y-84517034D01*
X135300235Y-84546131D01*
X135303203Y-84561819D01*
X135305356Y-84573194D01*
X135306130Y-84577751D01*
X135309607Y-84600819D01*
X135315550Y-84640248D01*
X135317163Y-84645148D01*
X135346687Y-84701010D01*
X135348777Y-84705150D01*
X135376184Y-84762060D01*
X135379183Y-84766287D01*
X135423846Y-84810950D01*
X135427063Y-84814289D01*
X135470043Y-84860611D01*
X135484930Y-84872034D01*
X135655446Y-85042550D01*
X135688526Y-85102073D01*
X135685184Y-85170089D01*
X135646430Y-85226084D01*
X135583951Y-85253170D01*
X135479237Y-85266956D01*
X135333161Y-85327462D01*
X135309525Y-85345598D01*
X135270064Y-85375877D01*
X135234440Y-85394919D01*
X135194581Y-85401500D01*
X133995091Y-85401500D01*
X133945504Y-85391154D01*
X133904192Y-85361841D01*
X133878049Y-85318454D01*
X133862595Y-85274289D01*
X133832793Y-85189118D01*
X133832792Y-85189115D01*
X133752150Y-85079849D01*
X133642884Y-84999207D01*
X133514696Y-84954353D01*
X133484269Y-84951500D01*
X133484266Y-84951500D01*
X132675734Y-84951500D01*
X132675731Y-84951500D01*
X132645303Y-84954353D01*
X132517115Y-84999207D01*
X132407849Y-85079849D01*
X132327207Y-85189115D01*
X132282353Y-85317303D01*
X132279500Y-85347731D01*
X132279500Y-86356269D01*
X132282353Y-86386696D01*
X132327207Y-86514884D01*
X132407849Y-86624150D01*
X132517115Y-86704792D01*
X132517118Y-86704793D01*
X132645301Y-86749646D01*
X132657474Y-86750787D01*
X132675731Y-86752500D01*
X132675734Y-86752500D01*
X133484266Y-86752500D01*
X133484269Y-86752500D01*
X133499482Y-86751073D01*
X133514699Y-86749646D01*
X133642882Y-86704793D01*
X133642882Y-86704792D01*
X133642884Y-86704792D01*
X133752150Y-86624150D01*
X133832792Y-86514884D01*
X133838796Y-86497725D01*
X133877646Y-86386699D01*
X133877646Y-86386697D01*
X133878049Y-86385546D01*
X133904192Y-86342159D01*
X133945504Y-86312846D01*
X133995091Y-86302500D01*
X135061500Y-86302500D01*
X135123500Y-86319113D01*
X135168887Y-86364500D01*
X135185500Y-86426500D01*
X135185500Y-94629738D01*
X135184720Y-94643622D01*
X135180729Y-94679034D01*
X135191356Y-94735194D01*
X135192133Y-94739766D01*
X135201550Y-94802248D01*
X135203163Y-94807148D01*
X135232687Y-94863010D01*
X135234777Y-94867150D01*
X135262184Y-94924060D01*
X135265183Y-94928287D01*
X135309847Y-94972951D01*
X135313064Y-94976291D01*
X135335063Y-95000000D01*
X124813000Y-95000000D01*
X124813000Y-94983394D01*
X124826306Y-94927512D01*
X124863367Y-94883623D01*
X124869472Y-94879116D01*
X124869475Y-94879116D01*
X124975711Y-94800711D01*
X125012497Y-94750866D01*
X125056386Y-94713806D01*
X125112268Y-94700500D01*
X125717738Y-94700500D01*
X125731622Y-94701280D01*
X125767033Y-94705270D01*
X125767033Y-94705269D01*
X125767035Y-94705270D01*
X125823228Y-94694636D01*
X125827726Y-94693872D01*
X125884287Y-94685348D01*
X125884288Y-94685347D01*
X125890268Y-94684446D01*
X125895128Y-94682846D01*
X125900467Y-94680023D01*
X125900472Y-94680023D01*
X125951045Y-94653292D01*
X125955136Y-94651227D01*
X126006642Y-94626425D01*
X126006642Y-94626424D01*
X126012076Y-94623808D01*
X126027380Y-94612949D01*
X126035101Y-94608869D01*
X126076847Y-94595564D01*
X126156762Y-94585044D01*
X126302841Y-94524536D01*
X126428282Y-94428282D01*
X126524536Y-94302841D01*
X126585044Y-94156762D01*
X126605682Y-94000000D01*
X126585044Y-93843238D01*
X126524536Y-93697159D01*
X126489547Y-93651560D01*
X126428282Y-93571717D01*
X126302840Y-93475463D01*
X126156762Y-93414956D01*
X126000000Y-93394317D01*
X125843237Y-93414956D01*
X125697159Y-93475463D01*
X125571717Y-93571717D01*
X125475463Y-93697159D01*
X125464780Y-93722952D01*
X125437901Y-93763181D01*
X125397672Y-93790061D01*
X125350219Y-93799500D01*
X125112268Y-93799500D01*
X125056386Y-93786194D01*
X125012497Y-93749133D01*
X124975709Y-93699286D01*
X124869478Y-93620885D01*
X124855323Y-93615932D01*
X124744849Y-93577275D01*
X124744847Y-93577274D01*
X124744845Y-93577274D01*
X124715260Y-93574500D01*
X124715256Y-93574500D01*
X124009744Y-93574500D01*
X124009740Y-93574500D01*
X123980154Y-93577274D01*
X123855521Y-93620885D01*
X123749288Y-93699288D01*
X123670885Y-93805521D01*
X123627274Y-93930154D01*
X123624500Y-93959740D01*
X123624500Y-94540260D01*
X123627274Y-94569845D01*
X123627274Y-94569847D01*
X123627275Y-94569849D01*
X123646156Y-94623808D01*
X123670885Y-94694478D01*
X123749286Y-94800709D01*
X123758011Y-94807148D01*
X123855525Y-94879116D01*
X123855527Y-94879116D01*
X123861633Y-94883623D01*
X123898694Y-94927512D01*
X123912000Y-94983394D01*
X123912000Y-95000000D01*
X118975336Y-95000000D01*
X119062375Y-94957449D01*
X119147449Y-94872375D01*
X119200291Y-94764286D01*
X119210500Y-94694215D01*
X119210499Y-94305786D01*
X119200291Y-94235714D01*
X119147449Y-94127625D01*
X119062375Y-94042551D01*
X119050816Y-94036900D01*
X118954287Y-93989709D01*
X118936768Y-93987156D01*
X118884215Y-93979500D01*
X118884212Y-93979500D01*
X118420787Y-93979500D01*
X118367628Y-93987245D01*
X118350714Y-93989709D01*
X118350713Y-93989709D01*
X118342376Y-93990924D01*
X118289731Y-93987245D01*
X118243385Y-93962008D01*
X118211730Y-93919783D01*
X118200500Y-93868219D01*
X118200500Y-93691419D01*
X118207081Y-93651560D01*
X118226122Y-93615935D01*
X118274536Y-93552841D01*
X118335044Y-93406762D01*
X118355682Y-93250000D01*
X118335044Y-93093238D01*
X118274536Y-92947159D01*
X118199284Y-92849088D01*
X118178282Y-92821717D01*
X118052840Y-92725463D01*
X117906762Y-92664956D01*
X117750000Y-92644317D01*
X117593237Y-92664956D01*
X117447159Y-92725463D01*
X117321717Y-92821717D01*
X117225463Y-92947159D01*
X117164956Y-93093237D01*
X117144317Y-93250000D01*
X117164956Y-93406762D01*
X117225462Y-93552838D01*
X117225463Y-93552840D01*
X117225464Y-93552841D01*
X117273877Y-93615935D01*
X117292919Y-93651560D01*
X117299500Y-93691419D01*
X117299500Y-93868219D01*
X117288270Y-93919783D01*
X117256615Y-93962008D01*
X117210267Y-93987245D01*
X117157623Y-93990924D01*
X117149287Y-93989709D01*
X117149286Y-93989709D01*
X117079215Y-93979500D01*
X117079212Y-93979500D01*
X116615787Y-93979500D01*
X116545713Y-93989709D01*
X116437624Y-94042551D01*
X116337920Y-94142256D01*
X116334742Y-94139078D01*
X116315449Y-94160383D01*
X116249794Y-94179063D01*
X116184201Y-94160166D01*
X116165242Y-94139093D01*
X116162080Y-94142256D01*
X116062375Y-94042551D01*
X115954287Y-93989709D01*
X115936768Y-93987156D01*
X115884215Y-93979500D01*
X115884212Y-93979500D01*
X115420787Y-93979500D01*
X115350713Y-93989709D01*
X115316057Y-94006652D01*
X115254183Y-94036900D01*
X115199724Y-94049500D01*
X115032262Y-94049500D01*
X115018378Y-94048720D01*
X114982963Y-94044729D01*
X114926811Y-94055354D01*
X114922241Y-94056131D01*
X114859758Y-94065549D01*
X114854851Y-94067163D01*
X114798985Y-94096690D01*
X114794847Y-94098779D01*
X114737936Y-94126186D01*
X114733712Y-94129183D01*
X114689059Y-94173836D01*
X114685722Y-94177051D01*
X114639393Y-94220038D01*
X114627969Y-94234926D01*
X114479463Y-94383433D01*
X114479462Y-94383434D01*
X114479462Y-94383435D01*
X114267332Y-94595564D01*
X114204264Y-94658632D01*
X114193898Y-94667895D01*
X114166031Y-94690118D01*
X114133824Y-94737356D01*
X114131144Y-94741132D01*
X114093633Y-94791959D01*
X114091301Y-94796578D01*
X114072674Y-94856966D01*
X114071225Y-94861369D01*
X114050369Y-94920973D01*
X114049500Y-94926090D01*
X114049500Y-94989262D01*
X114049412Y-94993899D01*
X114049335Y-94995999D01*
X114049185Y-95000000D01*
X107335500Y-95000000D01*
X107335500Y-92317764D01*
X109895787Y-92317764D01*
X109925413Y-92587016D01*
X109993928Y-92849087D01*
X110099871Y-93098392D01*
X110240982Y-93329611D01*
X110330253Y-93436881D01*
X110414255Y-93537820D01*
X110615998Y-93718582D01*
X110841910Y-93868044D01*
X110900479Y-93895500D01*
X111087177Y-93983021D01*
X111346562Y-94061058D01*
X111346569Y-94061060D01*
X111614561Y-94100500D01*
X111817631Y-94100500D01*
X111817634Y-94100500D01*
X112020156Y-94085677D01*
X112020156Y-94085676D01*
X112284553Y-94026780D01*
X112537558Y-93930014D01*
X112773777Y-93797441D01*
X112988177Y-93631888D01*
X113176186Y-93436881D01*
X113333799Y-93216579D01*
X113457656Y-92975675D01*
X113545118Y-92719305D01*
X113594319Y-92452933D01*
X113604212Y-92182235D01*
X113574586Y-91912982D01*
X113506072Y-91650912D01*
X113400130Y-91401610D01*
X113259018Y-91170390D01*
X113259017Y-91170388D01*
X113085746Y-90962181D01*
X112980758Y-90868112D01*
X112884002Y-90781418D01*
X112658090Y-90631956D01*
X112658086Y-90631954D01*
X112412822Y-90516978D01*
X112153437Y-90438941D01*
X112153431Y-90438940D01*
X111885439Y-90399500D01*
X111682369Y-90399500D01*
X111682366Y-90399500D01*
X111479843Y-90414322D01*
X111215449Y-90473219D01*
X110962441Y-90569986D01*
X110726223Y-90702559D01*
X110511825Y-90868109D01*
X110323813Y-91063120D01*
X110166201Y-91283420D01*
X110042342Y-91524329D01*
X109954881Y-91780695D01*
X109905680Y-92047066D01*
X109895787Y-92317764D01*
X107335500Y-92317764D01*
X107335500Y-86115260D01*
X115124500Y-86115260D01*
X115127274Y-86144845D01*
X115127274Y-86144847D01*
X115127275Y-86144849D01*
X115152848Y-86217932D01*
X115170885Y-86269478D01*
X115249286Y-86375709D01*
X115262615Y-86385546D01*
X115355525Y-86454116D01*
X115355527Y-86454116D01*
X115361633Y-86458623D01*
X115398694Y-86502512D01*
X115412000Y-86558394D01*
X115412000Y-86808581D01*
X115405419Y-86848440D01*
X115386377Y-86884064D01*
X115356098Y-86923525D01*
X115337962Y-86947161D01*
X115277456Y-87093237D01*
X115256817Y-87250000D01*
X115277456Y-87406762D01*
X115337963Y-87552840D01*
X115434217Y-87678282D01*
X115543973Y-87762500D01*
X115559659Y-87774536D01*
X115705738Y-87835044D01*
X115862500Y-87855682D01*
X116019262Y-87835044D01*
X116165341Y-87774536D01*
X116290782Y-87678282D01*
X116387036Y-87552841D01*
X116447544Y-87406762D01*
X116468182Y-87250000D01*
X116447544Y-87093238D01*
X116387036Y-86947159D01*
X116338622Y-86884064D01*
X116319581Y-86848440D01*
X116313000Y-86808581D01*
X116313000Y-86558394D01*
X116326306Y-86502512D01*
X116363367Y-86458623D01*
X116369472Y-86454116D01*
X116369475Y-86454116D01*
X116475711Y-86375711D01*
X116475711Y-86375709D01*
X116475713Y-86375709D01*
X116554114Y-86269478D01*
X116554115Y-86269476D01*
X116554116Y-86269475D01*
X116597725Y-86144849D01*
X116600500Y-86115260D01*
X119124500Y-86115260D01*
X119127274Y-86144845D01*
X119127274Y-86144847D01*
X119127275Y-86144849D01*
X119152848Y-86217932D01*
X119170885Y-86269478D01*
X119249288Y-86375711D01*
X119355521Y-86454114D01*
X119355523Y-86454114D01*
X119355525Y-86454116D01*
X119466457Y-86492933D01*
X119509841Y-86519076D01*
X119539154Y-86560387D01*
X119549500Y-86609974D01*
X119549500Y-86808581D01*
X119542919Y-86848440D01*
X119523877Y-86884064D01*
X119493598Y-86923525D01*
X119475462Y-86947161D01*
X119414956Y-87093237D01*
X119394317Y-87250000D01*
X119414956Y-87406762D01*
X119475463Y-87552840D01*
X119571717Y-87678282D01*
X119681473Y-87762500D01*
X119697159Y-87774536D01*
X119843238Y-87835044D01*
X120000000Y-87855682D01*
X120156762Y-87835044D01*
X120302841Y-87774536D01*
X120428282Y-87678282D01*
X120524536Y-87552841D01*
X120585044Y-87406762D01*
X120605682Y-87250000D01*
X120585044Y-87093238D01*
X120524536Y-86947159D01*
X120476122Y-86884064D01*
X120457081Y-86848440D01*
X120450500Y-86808581D01*
X120450500Y-86450674D01*
X120456713Y-86411915D01*
X120474730Y-86377040D01*
X120522107Y-86312846D01*
X120554116Y-86269475D01*
X120597725Y-86144849D01*
X120600500Y-86115256D01*
X120600500Y-85534744D01*
X120597725Y-85505151D01*
X120554116Y-85380525D01*
X120554113Y-85380521D01*
X120474730Y-85272960D01*
X120456713Y-85238085D01*
X120450500Y-85199326D01*
X120450500Y-83966239D01*
X120450500Y-83966238D01*
X120435689Y-83867977D01*
X120439150Y-83815172D01*
X120464315Y-83768616D01*
X120506601Y-83736792D01*
X120558303Y-83725499D01*
X120602132Y-83725499D01*
X120682495Y-83709515D01*
X120682495Y-83709514D01*
X120684132Y-83709189D01*
X120725808Y-83691926D01*
X120774191Y-83691926D01*
X120815870Y-83709189D01*
X120817503Y-83709513D01*
X120817505Y-83709515D01*
X120897867Y-83725500D01*
X121102132Y-83725499D01*
X121182495Y-83709515D01*
X121182495Y-83709514D01*
X121184132Y-83709189D01*
X121225808Y-83691926D01*
X121274191Y-83691926D01*
X121315870Y-83709189D01*
X121317503Y-83709513D01*
X121317505Y-83709515D01*
X121397867Y-83725500D01*
X121602132Y-83725499D01*
X121682495Y-83709515D01*
X121682495Y-83709514D01*
X121684132Y-83709189D01*
X121725808Y-83691926D01*
X121774191Y-83691926D01*
X121815870Y-83709189D01*
X121817503Y-83709513D01*
X121817505Y-83709515D01*
X121897867Y-83725500D01*
X122102132Y-83725499D01*
X122182495Y-83709515D01*
X122182495Y-83709514D01*
X122184132Y-83709189D01*
X122225808Y-83691926D01*
X122274191Y-83691926D01*
X122315870Y-83709189D01*
X122317503Y-83709513D01*
X122317505Y-83709515D01*
X122397867Y-83725500D01*
X122602132Y-83725499D01*
X122682495Y-83709515D01*
X122682495Y-83709514D01*
X122684132Y-83709189D01*
X122725808Y-83691926D01*
X122774191Y-83691926D01*
X122815870Y-83709189D01*
X122817503Y-83709513D01*
X122817505Y-83709515D01*
X122897867Y-83725500D01*
X123102132Y-83725499D01*
X123182495Y-83709515D01*
X123182495Y-83709514D01*
X123184132Y-83709189D01*
X123225808Y-83691926D01*
X123274191Y-83691926D01*
X123315870Y-83709189D01*
X123317503Y-83709513D01*
X123317505Y-83709515D01*
X123397867Y-83725500D01*
X123602132Y-83725499D01*
X123682495Y-83709515D01*
X123682495Y-83709514D01*
X123684132Y-83709189D01*
X123725808Y-83691926D01*
X123774191Y-83691926D01*
X123815870Y-83709189D01*
X123817503Y-83709513D01*
X123817505Y-83709515D01*
X123897867Y-83725500D01*
X124102132Y-83725499D01*
X124182495Y-83709515D01*
X124182495Y-83709514D01*
X124184132Y-83709189D01*
X124225808Y-83691926D01*
X124274191Y-83691926D01*
X124315870Y-83709189D01*
X124317503Y-83709513D01*
X124317505Y-83709515D01*
X124397867Y-83725500D01*
X124588033Y-83725499D01*
X124644328Y-83739014D01*
X124688352Y-83776613D01*
X124710507Y-83830101D01*
X124705965Y-83887817D01*
X124675715Y-83937180D01*
X124066764Y-84546131D01*
X124056398Y-84555395D01*
X124028531Y-84577618D01*
X123996324Y-84624856D01*
X123993644Y-84628632D01*
X123956133Y-84679459D01*
X123953801Y-84684078D01*
X123935174Y-84744466D01*
X123933725Y-84748869D01*
X123912869Y-84808473D01*
X123912000Y-84813590D01*
X123912000Y-84876762D01*
X123911913Y-84881399D01*
X123909550Y-84944529D01*
X123912000Y-84963135D01*
X123912000Y-85091606D01*
X123898694Y-85147488D01*
X123861633Y-85191377D01*
X123855526Y-85195883D01*
X123855525Y-85195884D01*
X123814833Y-85225915D01*
X123749286Y-85274290D01*
X123670885Y-85380521D01*
X123627274Y-85505154D01*
X123624500Y-85534740D01*
X123624500Y-86115260D01*
X123627274Y-86144845D01*
X123627274Y-86144847D01*
X123627275Y-86144849D01*
X123652848Y-86217932D01*
X123670885Y-86269478D01*
X123749288Y-86375711D01*
X123855521Y-86454114D01*
X123855523Y-86454114D01*
X123855525Y-86454116D01*
X123980151Y-86497725D01*
X123992833Y-86498914D01*
X124009740Y-86500500D01*
X124009744Y-86500500D01*
X124715256Y-86500500D01*
X124715260Y-86500500D01*
X124730052Y-86499112D01*
X124744849Y-86497725D01*
X124869475Y-86454116D01*
X124975711Y-86375711D01*
X125054116Y-86269475D01*
X125097725Y-86144849D01*
X125100500Y-86115256D01*
X125100500Y-85534744D01*
X125097725Y-85505151D01*
X125054116Y-85380525D01*
X125054114Y-85380523D01*
X125054114Y-85380521D01*
X124975711Y-85274288D01*
X124882849Y-85205753D01*
X124847954Y-85165964D01*
X124832829Y-85115250D01*
X124840227Y-85062847D01*
X124868799Y-85018304D01*
X125325284Y-84561818D01*
X125365512Y-84534939D01*
X125412965Y-84525500D01*
X125533762Y-84525500D01*
X125634287Y-84510348D01*
X125756642Y-84451425D01*
X125841159Y-84373004D01*
X125890728Y-84344879D01*
X125947641Y-84341897D01*
X125999878Y-84364688D01*
X126036403Y-84408437D01*
X126049500Y-84463904D01*
X126049500Y-85199326D01*
X126043287Y-85238085D01*
X126025270Y-85272960D01*
X125945884Y-85380523D01*
X125902274Y-85505154D01*
X125899500Y-85534740D01*
X125899500Y-86115260D01*
X125902274Y-86144845D01*
X125902274Y-86144847D01*
X125902275Y-86144849D01*
X125925526Y-86211296D01*
X125945884Y-86269476D01*
X126025270Y-86377040D01*
X126043287Y-86411915D01*
X126049500Y-86450674D01*
X126049500Y-86808581D01*
X126042919Y-86848440D01*
X126023877Y-86884064D01*
X125993598Y-86923525D01*
X125975462Y-86947161D01*
X125914956Y-87093237D01*
X125894317Y-87250000D01*
X125914956Y-87406762D01*
X125975463Y-87552840D01*
X126071717Y-87678282D01*
X126181473Y-87762500D01*
X126197159Y-87774536D01*
X126343238Y-87835044D01*
X126500000Y-87855682D01*
X126656762Y-87835044D01*
X126802841Y-87774536D01*
X126928282Y-87678282D01*
X127024536Y-87552841D01*
X127085044Y-87406762D01*
X127105682Y-87250000D01*
X127085044Y-87093238D01*
X127024536Y-86947159D01*
X126976122Y-86884064D01*
X126957081Y-86848440D01*
X126950500Y-86808581D01*
X126950500Y-86609974D01*
X126960846Y-86560387D01*
X126990159Y-86519076D01*
X127033542Y-86492933D01*
X127144475Y-86454116D01*
X127250711Y-86375711D01*
X127329116Y-86269475D01*
X127372725Y-86144849D01*
X127375500Y-86115256D01*
X127375500Y-85534744D01*
X127372725Y-85505151D01*
X127329116Y-85380525D01*
X127329114Y-85380523D01*
X127329114Y-85380521D01*
X127250711Y-85274288D01*
X127144478Y-85195885D01*
X127125139Y-85189118D01*
X127033542Y-85157066D01*
X126990159Y-85130924D01*
X126960846Y-85089613D01*
X126950500Y-85040026D01*
X126950500Y-84041238D01*
X126940308Y-83973622D01*
X126935348Y-83940713D01*
X126876425Y-83818358D01*
X126817344Y-83754683D01*
X126789867Y-83707262D01*
X126785516Y-83652626D01*
X126805142Y-83601454D01*
X126834515Y-83557495D01*
X126850500Y-83477133D01*
X126850499Y-82022868D01*
X126834515Y-81942505D01*
X126773624Y-81851376D01*
X126682495Y-81790485D01*
X126642313Y-81782492D01*
X126602134Y-81774500D01*
X126397869Y-81774500D01*
X126317504Y-81790485D01*
X126226376Y-81851375D01*
X126165485Y-81942505D01*
X126149500Y-82022865D01*
X126149500Y-83477131D01*
X126158859Y-83524181D01*
X126165485Y-83557495D01*
X126191072Y-83595789D01*
X126192854Y-83598455D01*
X126213211Y-83655767D01*
X126203867Y-83715865D01*
X126167070Y-83764291D01*
X126166031Y-83765119D01*
X126141132Y-83801639D01*
X126110065Y-83847206D01*
X126105380Y-83854077D01*
X126062907Y-83892752D01*
X126007563Y-83908137D01*
X125951224Y-83896931D01*
X125905980Y-83861537D01*
X125894552Y-83847207D01*
X125894552Y-83847206D01*
X125813059Y-83745018D01*
X125789937Y-83698678D01*
X125787759Y-83646934D01*
X125806903Y-83598818D01*
X125834515Y-83557495D01*
X125850500Y-83477133D01*
X125850499Y-82022868D01*
X125834515Y-81942505D01*
X125773624Y-81851376D01*
X125682495Y-81790485D01*
X125642313Y-81782492D01*
X125602134Y-81774500D01*
X125397870Y-81774500D01*
X125336344Y-81786737D01*
X125317505Y-81790485D01*
X125317504Y-81790485D01*
X125315872Y-81790810D01*
X125274187Y-81808075D01*
X125225806Y-81808074D01*
X125184128Y-81790810D01*
X125182495Y-81790485D01*
X125145634Y-81783153D01*
X125102134Y-81774500D01*
X124897870Y-81774500D01*
X124836344Y-81786737D01*
X124817505Y-81790485D01*
X124817504Y-81790485D01*
X124815872Y-81790810D01*
X124774187Y-81808075D01*
X124725806Y-81808074D01*
X124684128Y-81790810D01*
X124682495Y-81790485D01*
X124645634Y-81783153D01*
X124602134Y-81774500D01*
X124397870Y-81774500D01*
X124336344Y-81786737D01*
X124317505Y-81790485D01*
X124317504Y-81790485D01*
X124315872Y-81790810D01*
X124274187Y-81808075D01*
X124225806Y-81808074D01*
X124184128Y-81790810D01*
X124182495Y-81790485D01*
X124145634Y-81783153D01*
X124102134Y-81774500D01*
X123897870Y-81774500D01*
X123836344Y-81786737D01*
X123817505Y-81790485D01*
X123817504Y-81790485D01*
X123815872Y-81790810D01*
X123774187Y-81808075D01*
X123725806Y-81808074D01*
X123684128Y-81790810D01*
X123682495Y-81790485D01*
X123645634Y-81783153D01*
X123602134Y-81774500D01*
X123397870Y-81774500D01*
X123336344Y-81786737D01*
X123317505Y-81790485D01*
X123317504Y-81790485D01*
X123315872Y-81790810D01*
X123274187Y-81808075D01*
X123225806Y-81808074D01*
X123184128Y-81790810D01*
X123182495Y-81790485D01*
X123145634Y-81783153D01*
X123102134Y-81774500D01*
X122897870Y-81774500D01*
X122836344Y-81786737D01*
X122817505Y-81790485D01*
X122817504Y-81790485D01*
X122815872Y-81790810D01*
X122774187Y-81808075D01*
X122725806Y-81808074D01*
X122684128Y-81790810D01*
X122682495Y-81790485D01*
X122645634Y-81783153D01*
X122602134Y-81774500D01*
X122397870Y-81774500D01*
X122336344Y-81786737D01*
X122317505Y-81790485D01*
X122317504Y-81790485D01*
X122315872Y-81790810D01*
X122274187Y-81808075D01*
X122225806Y-81808074D01*
X122184128Y-81790810D01*
X122182495Y-81790485D01*
X122145634Y-81783153D01*
X122102134Y-81774500D01*
X121897870Y-81774500D01*
X121836344Y-81786737D01*
X121817505Y-81790485D01*
X121817504Y-81790485D01*
X121815872Y-81790810D01*
X121774187Y-81808075D01*
X121725806Y-81808074D01*
X121684128Y-81790810D01*
X121682495Y-81790485D01*
X121645634Y-81783153D01*
X121602134Y-81774500D01*
X121397870Y-81774500D01*
X121336344Y-81786737D01*
X121317505Y-81790485D01*
X121317504Y-81790485D01*
X121315872Y-81790810D01*
X121274187Y-81808075D01*
X121225806Y-81808074D01*
X121184128Y-81790810D01*
X121182495Y-81790485D01*
X121145634Y-81783153D01*
X121102134Y-81774500D01*
X120897870Y-81774500D01*
X120836344Y-81786737D01*
X120817505Y-81790485D01*
X120817504Y-81790485D01*
X120815872Y-81790810D01*
X120774187Y-81808075D01*
X120725806Y-81808074D01*
X120684128Y-81790810D01*
X120682495Y-81790485D01*
X120645634Y-81783153D01*
X120602134Y-81774500D01*
X120397870Y-81774500D01*
X120336344Y-81786737D01*
X120317505Y-81790485D01*
X120317504Y-81790485D01*
X120315872Y-81790810D01*
X120274187Y-81808075D01*
X120225806Y-81808074D01*
X120184128Y-81790810D01*
X120182495Y-81790485D01*
X120145634Y-81783153D01*
X120102134Y-81774500D01*
X119897869Y-81774500D01*
X119817504Y-81790485D01*
X119726376Y-81851375D01*
X119665485Y-81942505D01*
X119649500Y-82022865D01*
X119649500Y-83477131D01*
X119666011Y-83560139D01*
X119682601Y-83600370D01*
X119682373Y-83649131D01*
X119663362Y-83694033D01*
X119589528Y-83802326D01*
X119549500Y-83932097D01*
X119549500Y-85040026D01*
X119539154Y-85089613D01*
X119509841Y-85130924D01*
X119466457Y-85157066D01*
X119416256Y-85174633D01*
X119355521Y-85195885D01*
X119249288Y-85274288D01*
X119170885Y-85380521D01*
X119127274Y-85505154D01*
X119124500Y-85534740D01*
X119124500Y-86115260D01*
X116600500Y-86115260D01*
X116600500Y-86115256D01*
X116600500Y-85534744D01*
X116597725Y-85505151D01*
X116554116Y-85380525D01*
X116554114Y-85380523D01*
X116554114Y-85380521D01*
X116475711Y-85274288D01*
X116369478Y-85195885D01*
X116350139Y-85189118D01*
X116283542Y-85165814D01*
X116240159Y-85139672D01*
X116210846Y-85098361D01*
X116200500Y-85048774D01*
X116200500Y-83851226D01*
X116210846Y-83801639D01*
X116240159Y-83760328D01*
X116283542Y-83734185D01*
X116369475Y-83704116D01*
X116376844Y-83698678D01*
X116475711Y-83625711D01*
X116554114Y-83519478D01*
X116554114Y-83519477D01*
X116554116Y-83519475D01*
X116568933Y-83477131D01*
X118649500Y-83477131D01*
X118665485Y-83557495D01*
X118725246Y-83646934D01*
X118726376Y-83648624D01*
X118817505Y-83709515D01*
X118897867Y-83725500D01*
X119102132Y-83725499D01*
X119182495Y-83709515D01*
X119273624Y-83648624D01*
X119334515Y-83557495D01*
X119350500Y-83477133D01*
X119350499Y-82022868D01*
X119334515Y-81942505D01*
X119273624Y-81851376D01*
X119182495Y-81790485D01*
X119142313Y-81782492D01*
X119102134Y-81774500D01*
X118897869Y-81774500D01*
X118817504Y-81790485D01*
X118726376Y-81851375D01*
X118665485Y-81942505D01*
X118649500Y-82022865D01*
X118649500Y-83477131D01*
X116568933Y-83477131D01*
X116597725Y-83394849D01*
X116600500Y-83365256D01*
X116600500Y-82784744D01*
X116597725Y-82755151D01*
X116554116Y-82630525D01*
X116554114Y-82630523D01*
X116554114Y-82630521D01*
X116475711Y-82524288D01*
X116369478Y-82445885D01*
X116348427Y-82438519D01*
X116283542Y-82415814D01*
X116240159Y-82389672D01*
X116210846Y-82348361D01*
X116200500Y-82298774D01*
X116200500Y-81297281D01*
X116212406Y-81244263D01*
X116245837Y-81201427D01*
X116294373Y-81176996D01*
X116335654Y-81175984D01*
X116335654Y-81175500D01*
X116347866Y-81175499D01*
X116347867Y-81175500D01*
X117802132Y-81175499D01*
X117882495Y-81159515D01*
X117973624Y-81098624D01*
X118034515Y-81007495D01*
X118050500Y-80927133D01*
X118050499Y-80722868D01*
X118034750Y-80643686D01*
X118036084Y-80589369D01*
X118060515Y-80540835D01*
X118103351Y-80507405D01*
X118156368Y-80495500D01*
X118870314Y-80495500D01*
X118925158Y-80508288D01*
X118968690Y-80544014D01*
X119071717Y-80678282D01*
X119129825Y-80722869D01*
X119197159Y-80774536D01*
X119343238Y-80835044D01*
X119500000Y-80855682D01*
X119656762Y-80835044D01*
X119802841Y-80774536D01*
X119928282Y-80678282D01*
X120024536Y-80552841D01*
X120085044Y-80406762D01*
X120105682Y-80250000D01*
X120085044Y-80093238D01*
X120024536Y-79947159D01*
X119935021Y-79830500D01*
X119928282Y-79821717D01*
X119802840Y-79725463D01*
X119656762Y-79664956D01*
X119500000Y-79644317D01*
X119343237Y-79664956D01*
X119197159Y-79725463D01*
X119071717Y-79821717D01*
X118968690Y-79955986D01*
X118925158Y-79991712D01*
X118870314Y-80004500D01*
X118174500Y-80004500D01*
X118112500Y-79987887D01*
X118067113Y-79942500D01*
X118050500Y-79880501D01*
X118050499Y-79722869D01*
X118044840Y-79694417D01*
X118034515Y-79642505D01*
X118034513Y-79642503D01*
X118034189Y-79640870D01*
X118016925Y-79599188D01*
X118016926Y-79550805D01*
X118034189Y-79509130D01*
X118034513Y-79507496D01*
X118034515Y-79507495D01*
X118050500Y-79427133D01*
X118050499Y-79222868D01*
X118034515Y-79142505D01*
X117973624Y-79051376D01*
X117882495Y-78990485D01*
X117842313Y-78982492D01*
X117802134Y-78974500D01*
X116347868Y-78974500D01*
X116293820Y-78985251D01*
X116238096Y-78983556D01*
X116188747Y-78957621D01*
X116167389Y-78939241D01*
X116139628Y-78927129D01*
X116042917Y-78884934D01*
X116042916Y-78884933D01*
X116042914Y-78884933D01*
X115907966Y-78869728D01*
X115774531Y-78894974D01*
X115654462Y-78958433D01*
X115454264Y-79158631D01*
X115443898Y-79167895D01*
X115416031Y-79190118D01*
X115383824Y-79237356D01*
X115381144Y-79241132D01*
X115343633Y-79291959D01*
X115341301Y-79296578D01*
X115322674Y-79356966D01*
X115321225Y-79361369D01*
X115300369Y-79420973D01*
X115299500Y-79426090D01*
X115299500Y-79489262D01*
X115299413Y-79493899D01*
X115297050Y-79557029D01*
X115299500Y-79575635D01*
X115299500Y-82424633D01*
X115286194Y-82480515D01*
X115249688Y-82523746D01*
X115170885Y-82630521D01*
X115127274Y-82755154D01*
X115124500Y-82784740D01*
X115124500Y-83365260D01*
X115127274Y-83394845D01*
X115127274Y-83394847D01*
X115127275Y-83394849D01*
X115134311Y-83414956D01*
X115170885Y-83519478D01*
X115249688Y-83626253D01*
X115286194Y-83669485D01*
X115299500Y-83725367D01*
X115299500Y-85174633D01*
X115286194Y-85230515D01*
X115249688Y-85273746D01*
X115170885Y-85380521D01*
X115127274Y-85505154D01*
X115124500Y-85534740D01*
X115124500Y-86115260D01*
X107335500Y-86115260D01*
X107335500Y-81790260D01*
X110624500Y-81790260D01*
X110627274Y-81819845D01*
X110627274Y-81819847D01*
X110627275Y-81819849D01*
X110643693Y-81866769D01*
X110670885Y-81944478D01*
X110749288Y-82050711D01*
X110855521Y-82129114D01*
X110855523Y-82129114D01*
X110855525Y-82129116D01*
X110980151Y-82172725D01*
X110992833Y-82173914D01*
X111009740Y-82175500D01*
X111009744Y-82175500D01*
X111715256Y-82175500D01*
X111715260Y-82175500D01*
X111730052Y-82174112D01*
X111744849Y-82172725D01*
X111869475Y-82129116D01*
X111937423Y-82078969D01*
X111975711Y-82050711D01*
X112054114Y-81944478D01*
X112054114Y-81944477D01*
X112054116Y-81944475D01*
X112097725Y-81819849D01*
X112100500Y-81790256D01*
X112100500Y-81209744D01*
X112097725Y-81180151D01*
X112054116Y-81055525D01*
X112054114Y-81055523D01*
X112054114Y-81055521D01*
X111975713Y-80949290D01*
X111904548Y-80896769D01*
X111869475Y-80870884D01*
X111869472Y-80870883D01*
X111863367Y-80866377D01*
X111826306Y-80822488D01*
X111813000Y-80766606D01*
X111813000Y-80324500D01*
X111829613Y-80262500D01*
X111875000Y-80217113D01*
X111937000Y-80200500D01*
X112119749Y-80200500D01*
X112148989Y-80194683D01*
X112178231Y-80188867D01*
X112244552Y-80144552D01*
X112288867Y-80078231D01*
X112297794Y-80033351D01*
X112300500Y-80019749D01*
X112300500Y-76480251D01*
X112288867Y-76421769D01*
X112244552Y-76355448D01*
X112226277Y-76343237D01*
X112178231Y-76311133D01*
X112178230Y-76311132D01*
X112157980Y-76297602D01*
X112116386Y-76250795D01*
X112102967Y-76189632D01*
X112121144Y-76129710D01*
X112166282Y-76086310D01*
X112226871Y-76070500D01*
X115978713Y-76070500D01*
X116031729Y-76082405D01*
X116074566Y-76115835D01*
X116098997Y-76164369D01*
X116100331Y-76218690D01*
X116099500Y-76222867D01*
X116099500Y-76427129D01*
X116115810Y-76509129D01*
X116133074Y-76550809D01*
X116133075Y-76599190D01*
X116115809Y-76640874D01*
X116099500Y-76722865D01*
X116099500Y-76927130D01*
X116115810Y-77009132D01*
X116133073Y-77050806D01*
X116133074Y-77099186D01*
X116115809Y-77140871D01*
X116099500Y-77222864D01*
X116099500Y-77427129D01*
X116115810Y-77509129D01*
X116133074Y-77550809D01*
X116133075Y-77599190D01*
X116115809Y-77640874D01*
X116099500Y-77722865D01*
X116099500Y-77927129D01*
X116115810Y-78009129D01*
X116133074Y-78050809D01*
X116133075Y-78099190D01*
X116115809Y-78140874D01*
X116099500Y-78222865D01*
X116099500Y-78427130D01*
X116107645Y-78468078D01*
X116115485Y-78507495D01*
X116176376Y-78598624D01*
X116267505Y-78659515D01*
X116347867Y-78675500D01*
X117802132Y-78675499D01*
X117882495Y-78659515D01*
X117973624Y-78598624D01*
X118034515Y-78507495D01*
X118050500Y-78427133D01*
X118050499Y-78222868D01*
X118034515Y-78142505D01*
X118034513Y-78142503D01*
X118034189Y-78140870D01*
X118016925Y-78099188D01*
X118016926Y-78050805D01*
X118034189Y-78009130D01*
X118034513Y-78007496D01*
X118034515Y-78007495D01*
X118050500Y-77927133D01*
X118050499Y-77722868D01*
X118034515Y-77642505D01*
X118034513Y-77642503D01*
X118034189Y-77640870D01*
X118016925Y-77599188D01*
X118016926Y-77550805D01*
X118034189Y-77509130D01*
X118034513Y-77507496D01*
X118034515Y-77507495D01*
X118050500Y-77427133D01*
X118050499Y-77222868D01*
X118034515Y-77142505D01*
X118034513Y-77142503D01*
X118034189Y-77140870D01*
X118016925Y-77099188D01*
X118016926Y-77050805D01*
X118034189Y-77009130D01*
X118034513Y-77007496D01*
X118034515Y-77007495D01*
X118050500Y-76927133D01*
X118050499Y-76722868D01*
X118050499Y-76722867D01*
X118050499Y-76722865D01*
X118049668Y-76718687D01*
X118051003Y-76664367D01*
X118075434Y-76615833D01*
X118118270Y-76582405D01*
X118171286Y-76570500D01*
X118296371Y-76570500D01*
X118343824Y-76579939D01*
X118384052Y-76606819D01*
X118410932Y-76647047D01*
X118414955Y-76656761D01*
X118414956Y-76656762D01*
X118474582Y-76800711D01*
X118475464Y-76802841D01*
X118571717Y-76928282D01*
X118677081Y-77009130D01*
X118697159Y-77024536D01*
X118843238Y-77085044D01*
X119000000Y-77105682D01*
X119156762Y-77085044D01*
X119302841Y-77024536D01*
X119428282Y-76928282D01*
X119524536Y-76802841D01*
X119585044Y-76656762D01*
X119605682Y-76500000D01*
X119585044Y-76343238D01*
X119524536Y-76197159D01*
X119501704Y-76167404D01*
X119428282Y-76071717D01*
X119302840Y-75975463D01*
X119156762Y-75914956D01*
X119000000Y-75894317D01*
X118843237Y-75914956D01*
X118697159Y-75975463D01*
X118594970Y-76053876D01*
X118559342Y-76072919D01*
X118519484Y-76079500D01*
X118171287Y-76079500D01*
X118118271Y-76067595D01*
X118075434Y-76034165D01*
X118051003Y-75985631D01*
X118049669Y-75931310D01*
X118049899Y-75930154D01*
X118050500Y-75927133D01*
X118050499Y-75722868D01*
X118034515Y-75642505D01*
X118034513Y-75642503D01*
X118034189Y-75640870D01*
X118016925Y-75599188D01*
X118016926Y-75550805D01*
X118034189Y-75509130D01*
X118034513Y-75507496D01*
X118034515Y-75507495D01*
X118050500Y-75427133D01*
X118050499Y-75222868D01*
X118034515Y-75142505D01*
X118034513Y-75142503D01*
X118034189Y-75140870D01*
X118016925Y-75099188D01*
X118016926Y-75050805D01*
X118034189Y-75009130D01*
X118034513Y-75007496D01*
X118034515Y-75007495D01*
X118050500Y-74927133D01*
X118050499Y-74722868D01*
X118034515Y-74642505D01*
X118034513Y-74642503D01*
X118034189Y-74640870D01*
X118016925Y-74599188D01*
X118016926Y-74550805D01*
X118034189Y-74509130D01*
X118034513Y-74507496D01*
X118034515Y-74507495D01*
X118050500Y-74427133D01*
X118050499Y-74250000D01*
X125144317Y-74250000D01*
X125164956Y-74406762D01*
X125225463Y-74552840D01*
X125321717Y-74678282D01*
X125379825Y-74722869D01*
X125447159Y-74774536D01*
X125593238Y-74835044D01*
X125750000Y-74855682D01*
X125906762Y-74835044D01*
X126052841Y-74774536D01*
X126178282Y-74678282D01*
X126223759Y-74619014D01*
X126267292Y-74583288D01*
X126322136Y-74570500D01*
X127328713Y-74570500D01*
X127381729Y-74582405D01*
X127424566Y-74615835D01*
X127448997Y-74664369D01*
X127450331Y-74718690D01*
X127449500Y-74722867D01*
X127449500Y-74927130D01*
X127465810Y-75009132D01*
X127483073Y-75050806D01*
X127483074Y-75099186D01*
X127465809Y-75140871D01*
X127449500Y-75222864D01*
X127449500Y-75427129D01*
X127465810Y-75509129D01*
X127483074Y-75550809D01*
X127483075Y-75599190D01*
X127465809Y-75640874D01*
X127449500Y-75722865D01*
X127449500Y-75927129D01*
X127465810Y-76009129D01*
X127483074Y-76050809D01*
X127483075Y-76099190D01*
X127465809Y-76140874D01*
X127449500Y-76222865D01*
X127449500Y-76427129D01*
X127465810Y-76509129D01*
X127483074Y-76550809D01*
X127483075Y-76599190D01*
X127465809Y-76640874D01*
X127449500Y-76722865D01*
X127449500Y-76927130D01*
X127465810Y-77009132D01*
X127483073Y-77050806D01*
X127483074Y-77099186D01*
X127465809Y-77140871D01*
X127449500Y-77222864D01*
X127449500Y-77427129D01*
X127465810Y-77509129D01*
X127483074Y-77550809D01*
X127483075Y-77599190D01*
X127465809Y-77640874D01*
X127449500Y-77722865D01*
X127449500Y-77927129D01*
X127465810Y-78009129D01*
X127483074Y-78050809D01*
X127483075Y-78099190D01*
X127465809Y-78140874D01*
X127449500Y-78222865D01*
X127449500Y-78427129D01*
X127465810Y-78509129D01*
X127483074Y-78550809D01*
X127483075Y-78599190D01*
X127465809Y-78640874D01*
X127449500Y-78722865D01*
X127449500Y-78927129D01*
X127465810Y-79009129D01*
X127483074Y-79050809D01*
X127483075Y-79099190D01*
X127465809Y-79140874D01*
X127449500Y-79222865D01*
X127449500Y-79427129D01*
X127465810Y-79509129D01*
X127483074Y-79550809D01*
X127483075Y-79599190D01*
X127465809Y-79640874D01*
X127449500Y-79722865D01*
X127449500Y-79927130D01*
X127465810Y-80009132D01*
X127483073Y-80050806D01*
X127483074Y-80099186D01*
X127465809Y-80140871D01*
X127449500Y-80222864D01*
X127449500Y-80427129D01*
X127465810Y-80509129D01*
X127483074Y-80550809D01*
X127483075Y-80599190D01*
X127465809Y-80640874D01*
X127449500Y-80722865D01*
X127449500Y-80927130D01*
X127465485Y-81007495D01*
X127521114Y-81090750D01*
X127526376Y-81098624D01*
X127617505Y-81159515D01*
X127697867Y-81175500D01*
X129152132Y-81175499D01*
X129232495Y-81159515D01*
X129323624Y-81098624D01*
X129384515Y-81007495D01*
X129400500Y-80927133D01*
X129400499Y-80722868D01*
X129386855Y-80654269D01*
X134674500Y-80654269D01*
X134677353Y-80684696D01*
X134722207Y-80812884D01*
X134802849Y-80922150D01*
X134912115Y-81002792D01*
X134912118Y-81002793D01*
X135040301Y-81047646D01*
X135052474Y-81048787D01*
X135070731Y-81050500D01*
X135070734Y-81050500D01*
X136429266Y-81050500D01*
X136429269Y-81050500D01*
X136444482Y-81049072D01*
X136459699Y-81047646D01*
X136587882Y-81002793D01*
X136587882Y-81002792D01*
X136587884Y-81002792D01*
X136697150Y-80922150D01*
X136777792Y-80812884D01*
X136777793Y-80812882D01*
X136822646Y-80684699D01*
X136825500Y-80654266D01*
X136825500Y-80569500D01*
X136842113Y-80507500D01*
X136887500Y-80462113D01*
X136949500Y-80445500D01*
X137286447Y-80445500D01*
X137351434Y-80463894D01*
X137397141Y-80513618D01*
X137410008Y-80579922D01*
X137386218Y-80643133D01*
X137372207Y-80662117D01*
X137327353Y-80790303D01*
X137324500Y-80820731D01*
X137324500Y-81604269D01*
X137327353Y-81634696D01*
X137372207Y-81762884D01*
X137452849Y-81872150D01*
X137562115Y-81952792D01*
X137562118Y-81952793D01*
X137690301Y-81997646D01*
X137702474Y-81998787D01*
X137720731Y-82000500D01*
X137720734Y-82000500D01*
X138779266Y-82000500D01*
X138779269Y-82000500D01*
X138794482Y-81999073D01*
X138809699Y-81997646D01*
X138937882Y-81952793D01*
X138937882Y-81952792D01*
X138937884Y-81952792D01*
X139047150Y-81872150D01*
X139127792Y-81762884D01*
X139130028Y-81756494D01*
X139172646Y-81634699D01*
X139175157Y-81607922D01*
X139195298Y-81550931D01*
X139239991Y-81510233D01*
X139298615Y-81495500D01*
X139686827Y-81495500D01*
X139734280Y-81504939D01*
X139774508Y-81531819D01*
X139990546Y-81747857D01*
X140005967Y-81766647D01*
X140012881Y-81776995D01*
X140047982Y-81800449D01*
X140047980Y-81800448D01*
X140077011Y-81819845D01*
X140094089Y-81831256D01*
X140189878Y-81850310D01*
X140200225Y-81848251D01*
X140202080Y-81847883D01*
X140226271Y-81845500D01*
X140555837Y-81845500D01*
X140591833Y-81850840D01*
X140624728Y-81866398D01*
X140695769Y-81913867D01*
X140754251Y-81925500D01*
X140754252Y-81925500D01*
X141393748Y-81925500D01*
X141393749Y-81925500D01*
X141422989Y-81919683D01*
X141452231Y-81913867D01*
X141518552Y-81869552D01*
X141562867Y-81803231D01*
X141572164Y-81756494D01*
X141574500Y-81744749D01*
X141574500Y-81455251D01*
X141558376Y-81374192D01*
X141558376Y-81325808D01*
X141574500Y-81244749D01*
X141574500Y-80955251D01*
X141562867Y-80896769D01*
X141518552Y-80830447D01*
X141452230Y-80786132D01*
X141393749Y-80774500D01*
X141393748Y-80774500D01*
X140754252Y-80774500D01*
X140754251Y-80774500D01*
X140695769Y-80786132D01*
X140643990Y-80820731D01*
X140629450Y-80830447D01*
X140624728Y-80833602D01*
X140591833Y-80849160D01*
X140555837Y-80854500D01*
X140253051Y-80854500D01*
X140205598Y-80845061D01*
X140165370Y-80818181D01*
X139399331Y-80052142D01*
X139383909Y-80033351D01*
X139376996Y-80023004D01*
X139376994Y-80023003D01*
X139376994Y-80023002D01*
X139328327Y-79990484D01*
X139328326Y-79990483D01*
X139295791Y-79968744D01*
X139199999Y-79949689D01*
X139187798Y-79952117D01*
X139163607Y-79954500D01*
X136949500Y-79954500D01*
X136887500Y-79937887D01*
X136842113Y-79892500D01*
X136825500Y-79830500D01*
X136825500Y-79745731D01*
X136823356Y-79722868D01*
X136822646Y-79715301D01*
X136777793Y-79587118D01*
X136777792Y-79587115D01*
X136697150Y-79477849D01*
X136587884Y-79397207D01*
X136459696Y-79352353D01*
X136429269Y-79349500D01*
X136429266Y-79349500D01*
X135070734Y-79349500D01*
X135070731Y-79349500D01*
X135040303Y-79352353D01*
X134912115Y-79397207D01*
X134802849Y-79477849D01*
X134722207Y-79587115D01*
X134677353Y-79715303D01*
X134674500Y-79745731D01*
X134674500Y-80654269D01*
X129386855Y-80654269D01*
X129384515Y-80642505D01*
X129384513Y-80642503D01*
X129384189Y-80640870D01*
X129366925Y-80599188D01*
X129366926Y-80550805D01*
X129384189Y-80509130D01*
X129384513Y-80507496D01*
X129384515Y-80507495D01*
X129400500Y-80427133D01*
X129400499Y-80222868D01*
X129384515Y-80142505D01*
X129384513Y-80142503D01*
X129384189Y-80140870D01*
X129366925Y-80099188D01*
X129366926Y-80050805D01*
X129384189Y-80009130D01*
X129384513Y-80007496D01*
X129384515Y-80007495D01*
X129400500Y-79927133D01*
X129400499Y-79722868D01*
X129384515Y-79642505D01*
X129384513Y-79642503D01*
X129384189Y-79640870D01*
X129366925Y-79599188D01*
X129366926Y-79550805D01*
X129384189Y-79509130D01*
X129384513Y-79507496D01*
X129384515Y-79507495D01*
X129400500Y-79427133D01*
X129400499Y-79222868D01*
X129384515Y-79142505D01*
X129384513Y-79142503D01*
X129384189Y-79140870D01*
X129366925Y-79099188D01*
X129366926Y-79050805D01*
X129384189Y-79009130D01*
X129384513Y-79007496D01*
X129384515Y-79007495D01*
X129400500Y-78927133D01*
X129400499Y-78722868D01*
X129384515Y-78642505D01*
X129384513Y-78642503D01*
X129384189Y-78640870D01*
X129366925Y-78599188D01*
X129366926Y-78550805D01*
X129384189Y-78509130D01*
X129384513Y-78507496D01*
X129384515Y-78507495D01*
X129400500Y-78427133D01*
X129400499Y-78222868D01*
X129384515Y-78142505D01*
X129384513Y-78142503D01*
X129384189Y-78140870D01*
X129366925Y-78099188D01*
X129366926Y-78050805D01*
X129384189Y-78009130D01*
X129384513Y-78007496D01*
X129384515Y-78007495D01*
X129400500Y-77927133D01*
X129400499Y-77722868D01*
X129384515Y-77642505D01*
X129384513Y-77642503D01*
X129384189Y-77640870D01*
X129366925Y-77599188D01*
X129366926Y-77550805D01*
X129384189Y-77509130D01*
X129384513Y-77507496D01*
X129384515Y-77507495D01*
X129400500Y-77427133D01*
X129400499Y-77222868D01*
X129384515Y-77142505D01*
X129384513Y-77142503D01*
X129384189Y-77140870D01*
X129366925Y-77099188D01*
X129366926Y-77050805D01*
X129384189Y-77009130D01*
X129384513Y-77007496D01*
X129384515Y-77007495D01*
X129400500Y-76927133D01*
X129400499Y-76722868D01*
X129384515Y-76642505D01*
X129384513Y-76642503D01*
X129384189Y-76640870D01*
X129366925Y-76599188D01*
X129366926Y-76550805D01*
X129384189Y-76509130D01*
X129384513Y-76507496D01*
X129384515Y-76507495D01*
X129400500Y-76427133D01*
X129400499Y-76222868D01*
X129384515Y-76142505D01*
X129384513Y-76142503D01*
X129384189Y-76140870D01*
X129366925Y-76099188D01*
X129366926Y-76050805D01*
X129384189Y-76009130D01*
X129384513Y-76007496D01*
X129384515Y-76007495D01*
X129400500Y-75927133D01*
X129400499Y-75722868D01*
X129384515Y-75642505D01*
X129384513Y-75642503D01*
X129384189Y-75640870D01*
X129366925Y-75599188D01*
X129366926Y-75550805D01*
X129384189Y-75509130D01*
X129384513Y-75507496D01*
X129384515Y-75507495D01*
X129400500Y-75427133D01*
X129400499Y-75222868D01*
X129384515Y-75142505D01*
X129384513Y-75142503D01*
X129384189Y-75140870D01*
X129366925Y-75099188D01*
X129366926Y-75050805D01*
X129384189Y-75009130D01*
X129384513Y-75007496D01*
X129384515Y-75007495D01*
X129400500Y-74927133D01*
X129400499Y-74722868D01*
X129384515Y-74642505D01*
X129384513Y-74642503D01*
X129384189Y-74640870D01*
X129366925Y-74599188D01*
X129366926Y-74550805D01*
X129384189Y-74509130D01*
X129384513Y-74507496D01*
X129384515Y-74507495D01*
X129400500Y-74427133D01*
X129400499Y-74222868D01*
X129384515Y-74142505D01*
X129323624Y-74051376D01*
X129232495Y-73990485D01*
X129192314Y-73982492D01*
X129152134Y-73974500D01*
X127697868Y-73974500D01*
X127617504Y-73990485D01*
X127515561Y-74058602D01*
X127482665Y-74074161D01*
X127446670Y-74079500D01*
X126412208Y-74079500D01*
X126364755Y-74070061D01*
X126324527Y-74043181D01*
X126297647Y-74002953D01*
X126274536Y-73947158D01*
X126178282Y-73821717D01*
X126052840Y-73725463D01*
X125906762Y-73664956D01*
X125750000Y-73644317D01*
X125593237Y-73664956D01*
X125447159Y-73725463D01*
X125321717Y-73821717D01*
X125225463Y-73947159D01*
X125164956Y-74093237D01*
X125144317Y-74250000D01*
X118050499Y-74250000D01*
X118050499Y-74222868D01*
X118034515Y-74142505D01*
X118034513Y-74142503D01*
X118034189Y-74140870D01*
X118016926Y-74099191D01*
X118016925Y-74050811D01*
X118035438Y-74006113D01*
X118041910Y-73996426D01*
X118077088Y-73961572D01*
X118123101Y-73943264D01*
X118172604Y-73944420D01*
X118215954Y-73954315D01*
X118215955Y-73954314D01*
X118215956Y-73954315D01*
X118351378Y-73944166D01*
X118393812Y-73927512D01*
X118477794Y-73894552D01*
X118583970Y-73809879D01*
X118660472Y-73697673D01*
X118698311Y-73575000D01*
X118700500Y-73567903D01*
X118700500Y-73499999D01*
X119394317Y-73499999D01*
X119414956Y-73656762D01*
X119475463Y-73802840D01*
X119571717Y-73928282D01*
X119677084Y-74009132D01*
X119697159Y-74024536D01*
X119843238Y-74085044D01*
X120000000Y-74105682D01*
X120156762Y-74085044D01*
X120302841Y-74024536D01*
X120428282Y-73928282D01*
X120524536Y-73802841D01*
X120585044Y-73656762D01*
X120605682Y-73500000D01*
X120596089Y-73427130D01*
X127449500Y-73427130D01*
X127465485Y-73507495D01*
X127505848Y-73567903D01*
X127526376Y-73598624D01*
X127617505Y-73659515D01*
X127697867Y-73675500D01*
X129152132Y-73675499D01*
X129164344Y-73675499D01*
X129164344Y-73677446D01*
X129200979Y-73678558D01*
X129250334Y-73704495D01*
X129257610Y-73710757D01*
X129257611Y-73710757D01*
X129257612Y-73710758D01*
X129382084Y-73765065D01*
X129517035Y-73780270D01*
X129650470Y-73755024D01*
X129726445Y-73714870D01*
X129784387Y-73700500D01*
X130137732Y-73700500D01*
X130193614Y-73713806D01*
X130237503Y-73750867D01*
X130274287Y-73800709D01*
X130274289Y-73800711D01*
X130380525Y-73879116D01*
X130380527Y-73879116D01*
X130386633Y-73883623D01*
X130423694Y-73927512D01*
X130437000Y-73983394D01*
X130437000Y-75516606D01*
X130423694Y-75572488D01*
X130386633Y-75616377D01*
X130380526Y-75620883D01*
X130380525Y-75620884D01*
X130343778Y-75648004D01*
X130274286Y-75699290D01*
X130195885Y-75805521D01*
X130152274Y-75930154D01*
X130149500Y-75959740D01*
X130149500Y-76540260D01*
X130152274Y-76569845D01*
X130152274Y-76569847D01*
X130152275Y-76569849D01*
X130162542Y-76599190D01*
X130195885Y-76694478D01*
X130275269Y-76802040D01*
X130293286Y-76836914D01*
X130299499Y-76875673D01*
X130299499Y-77058581D01*
X130292918Y-77098440D01*
X130273876Y-77134064D01*
X130244547Y-77172288D01*
X130225461Y-77197161D01*
X130164955Y-77343237D01*
X130144316Y-77500000D01*
X130164955Y-77656762D01*
X130225462Y-77802840D01*
X130321716Y-77928282D01*
X130427079Y-78009129D01*
X130447158Y-78024536D01*
X130593237Y-78085044D01*
X130749999Y-78105682D01*
X130906761Y-78085044D01*
X131052840Y-78024536D01*
X131178281Y-77928282D01*
X131274535Y-77802841D01*
X131335043Y-77656762D01*
X131355681Y-77500000D01*
X131335043Y-77343238D01*
X131274535Y-77197159D01*
X131226121Y-77134064D01*
X131207080Y-77098440D01*
X131200499Y-77058581D01*
X131200499Y-77034974D01*
X131210845Y-76985387D01*
X131240158Y-76944075D01*
X131283542Y-76917933D01*
X131394475Y-76879116D01*
X131394475Y-76879115D01*
X131394477Y-76879115D01*
X131500711Y-76800711D01*
X131579114Y-76694478D01*
X131579114Y-76694477D01*
X131579116Y-76694475D01*
X131622725Y-76569849D01*
X131624112Y-76555052D01*
X131625500Y-76540260D01*
X131625500Y-75959740D01*
X131623914Y-75942833D01*
X131622725Y-75930151D01*
X131579116Y-75805525D01*
X131579114Y-75805523D01*
X131579114Y-75805521D01*
X131500713Y-75699290D01*
X131443537Y-75657093D01*
X131394475Y-75620884D01*
X131394472Y-75620883D01*
X131388367Y-75616377D01*
X131351306Y-75572488D01*
X131338000Y-75516606D01*
X131338000Y-73983394D01*
X131351306Y-73927512D01*
X131388367Y-73883623D01*
X131394472Y-73879116D01*
X131394475Y-73879116D01*
X131500711Y-73800711D01*
X131500711Y-73800709D01*
X131500713Y-73800709D01*
X131579114Y-73694478D01*
X131579114Y-73694477D01*
X131579116Y-73694475D01*
X131622725Y-73569849D01*
X131624112Y-73555052D01*
X131625500Y-73540260D01*
X131625500Y-72959740D01*
X131622725Y-72930154D01*
X131622725Y-72930151D01*
X131579116Y-72805525D01*
X131579114Y-72805523D01*
X131579114Y-72805521D01*
X131500711Y-72699288D01*
X131394478Y-72620885D01*
X131380679Y-72616056D01*
X131269849Y-72577275D01*
X131269847Y-72577274D01*
X131269845Y-72577274D01*
X131240260Y-72574500D01*
X131240256Y-72574500D01*
X130534744Y-72574500D01*
X130534740Y-72574500D01*
X130505154Y-72577274D01*
X130380521Y-72620885D01*
X130274290Y-72699286D01*
X130237503Y-72749133D01*
X130193614Y-72786194D01*
X130137732Y-72799500D01*
X129607262Y-72799500D01*
X129593378Y-72798720D01*
X129557963Y-72794729D01*
X129501811Y-72805354D01*
X129497241Y-72806131D01*
X129434758Y-72815549D01*
X129429850Y-72817164D01*
X129373965Y-72846699D01*
X129369830Y-72848786D01*
X129312948Y-72876180D01*
X129308707Y-72879189D01*
X129264049Y-72923846D01*
X129260712Y-72927060D01*
X129245261Y-72941397D01*
X129206221Y-72965928D01*
X129160918Y-72974500D01*
X127697868Y-72974500D01*
X127617504Y-72990485D01*
X127526376Y-73051375D01*
X127465485Y-73142505D01*
X127449500Y-73222865D01*
X127449500Y-73427130D01*
X120596089Y-73427130D01*
X120585044Y-73343238D01*
X120524536Y-73197159D01*
X120482599Y-73142505D01*
X120428282Y-73071717D01*
X120294014Y-72968690D01*
X120258288Y-72925158D01*
X120245500Y-72870314D01*
X120245500Y-72496287D01*
X120257405Y-72443271D01*
X120290835Y-72400434D01*
X120339369Y-72376003D01*
X120393689Y-72374669D01*
X120397867Y-72375500D01*
X120602132Y-72375499D01*
X120682495Y-72359515D01*
X120682495Y-72359514D01*
X120684132Y-72359189D01*
X120725808Y-72341926D01*
X120774191Y-72341926D01*
X120815870Y-72359189D01*
X120817503Y-72359513D01*
X120817505Y-72359515D01*
X120897867Y-72375500D01*
X121102132Y-72375499D01*
X121182495Y-72359515D01*
X121182495Y-72359514D01*
X121184132Y-72359189D01*
X121225808Y-72341926D01*
X121274191Y-72341926D01*
X121315870Y-72359189D01*
X121317503Y-72359513D01*
X121317505Y-72359515D01*
X121397867Y-72375500D01*
X121602132Y-72375499D01*
X121682495Y-72359515D01*
X121682495Y-72359514D01*
X121684132Y-72359189D01*
X121725808Y-72341926D01*
X121774191Y-72341926D01*
X121815870Y-72359189D01*
X121817503Y-72359513D01*
X121817505Y-72359515D01*
X121897867Y-72375500D01*
X122102132Y-72375499D01*
X122182495Y-72359515D01*
X122182495Y-72359514D01*
X122184132Y-72359189D01*
X122225808Y-72341926D01*
X122274191Y-72341926D01*
X122315870Y-72359189D01*
X122317503Y-72359513D01*
X122317505Y-72359515D01*
X122397867Y-72375500D01*
X122602132Y-72375499D01*
X122682495Y-72359515D01*
X122682495Y-72359514D01*
X122684132Y-72359189D01*
X122725808Y-72341926D01*
X122774191Y-72341926D01*
X122815870Y-72359189D01*
X122817503Y-72359513D01*
X122817505Y-72359515D01*
X122897867Y-72375500D01*
X123102132Y-72375499D01*
X123182495Y-72359515D01*
X123182495Y-72359514D01*
X123184132Y-72359189D01*
X123225808Y-72341926D01*
X123274191Y-72341926D01*
X123315870Y-72359189D01*
X123317503Y-72359513D01*
X123317505Y-72359515D01*
X123397867Y-72375500D01*
X123602132Y-72375499D01*
X123682495Y-72359515D01*
X123682495Y-72359514D01*
X123684132Y-72359189D01*
X123725808Y-72341926D01*
X123774191Y-72341926D01*
X123815870Y-72359189D01*
X123817503Y-72359513D01*
X123817505Y-72359515D01*
X123897867Y-72375500D01*
X124102132Y-72375499D01*
X124182495Y-72359515D01*
X124182495Y-72359514D01*
X124184132Y-72359189D01*
X124225808Y-72341926D01*
X124274191Y-72341926D01*
X124315870Y-72359189D01*
X124317503Y-72359513D01*
X124317505Y-72359515D01*
X124397867Y-72375500D01*
X124602132Y-72375499D01*
X124682495Y-72359515D01*
X124682495Y-72359514D01*
X124684132Y-72359189D01*
X124725808Y-72341926D01*
X124774191Y-72341926D01*
X124815870Y-72359189D01*
X124817503Y-72359513D01*
X124817505Y-72359515D01*
X124897867Y-72375500D01*
X125102132Y-72375499D01*
X125182495Y-72359515D01*
X125182495Y-72359514D01*
X125184132Y-72359189D01*
X125225808Y-72341926D01*
X125274191Y-72341926D01*
X125315870Y-72359189D01*
X125317503Y-72359513D01*
X125317505Y-72359515D01*
X125397867Y-72375500D01*
X125602132Y-72375499D01*
X125682495Y-72359515D01*
X125682495Y-72359514D01*
X125684132Y-72359189D01*
X125725808Y-72341926D01*
X125774191Y-72341926D01*
X125815870Y-72359189D01*
X125817503Y-72359513D01*
X125817505Y-72359515D01*
X125897867Y-72375500D01*
X126102132Y-72375499D01*
X126182495Y-72359515D01*
X126182495Y-72359514D01*
X126184132Y-72359189D01*
X126225808Y-72341926D01*
X126274191Y-72341926D01*
X126315870Y-72359189D01*
X126317503Y-72359513D01*
X126317505Y-72359515D01*
X126397867Y-72375500D01*
X126602132Y-72375499D01*
X126682495Y-72359515D01*
X126773624Y-72298624D01*
X126834515Y-72207495D01*
X126850500Y-72127133D01*
X126850499Y-70672868D01*
X126834515Y-70592505D01*
X126795917Y-70534740D01*
X126766398Y-70490561D01*
X126750839Y-70457665D01*
X126745500Y-70421670D01*
X126745500Y-70379686D01*
X126758288Y-70324842D01*
X126794014Y-70281310D01*
X126928282Y-70178282D01*
X126951913Y-70147485D01*
X127024536Y-70052841D01*
X127085044Y-69906762D01*
X127105682Y-69750000D01*
X127085044Y-69593238D01*
X127024536Y-69447159D01*
X126931288Y-69325635D01*
X126928282Y-69321717D01*
X126802840Y-69225463D01*
X126656762Y-69164956D01*
X126500000Y-69144317D01*
X126343237Y-69164956D01*
X126197159Y-69225463D01*
X126071717Y-69321717D01*
X125975463Y-69447159D01*
X125914956Y-69593237D01*
X125894317Y-69750000D01*
X125914956Y-69906762D01*
X125975463Y-70052840D01*
X126071717Y-70178282D01*
X126102789Y-70202124D01*
X126140583Y-70250064D01*
X126150921Y-70310229D01*
X126131298Y-70368035D01*
X126086471Y-70409473D01*
X126027304Y-70424500D01*
X125897870Y-70424500D01*
X125844036Y-70435208D01*
X125817505Y-70440485D01*
X125817504Y-70440485D01*
X125815872Y-70440810D01*
X125774187Y-70458075D01*
X125725806Y-70458074D01*
X125684128Y-70440810D01*
X125682495Y-70440485D01*
X125645634Y-70433153D01*
X125602134Y-70424500D01*
X125397870Y-70424500D01*
X125344036Y-70435208D01*
X125317505Y-70440485D01*
X125317504Y-70440485D01*
X125315872Y-70440810D01*
X125274187Y-70458075D01*
X125225806Y-70458074D01*
X125184128Y-70440810D01*
X125182495Y-70440485D01*
X125145634Y-70433153D01*
X125102134Y-70424500D01*
X124897870Y-70424500D01*
X124844036Y-70435208D01*
X124817505Y-70440485D01*
X124817504Y-70440485D01*
X124815872Y-70440810D01*
X124774187Y-70458075D01*
X124725806Y-70458074D01*
X124684128Y-70440810D01*
X124682495Y-70440485D01*
X124676196Y-70439232D01*
X124624902Y-70415989D01*
X124589178Y-70372456D01*
X124576391Y-70317613D01*
X124589180Y-70262770D01*
X124624904Y-70219239D01*
X124678282Y-70178282D01*
X124774536Y-70052841D01*
X124835044Y-69906762D01*
X124855682Y-69750000D01*
X124835044Y-69593238D01*
X124774536Y-69447159D01*
X124681288Y-69325635D01*
X124678282Y-69321717D01*
X124552840Y-69225463D01*
X124406762Y-69164956D01*
X124250000Y-69144317D01*
X124093237Y-69164956D01*
X123947159Y-69225463D01*
X123821717Y-69321717D01*
X123725463Y-69447159D01*
X123664956Y-69593237D01*
X123644317Y-69750000D01*
X123666408Y-69917793D01*
X123660888Y-69973837D01*
X123631150Y-70021659D01*
X123352141Y-70300668D01*
X123333355Y-70316086D01*
X123323005Y-70323002D01*
X123301171Y-70355681D01*
X123301167Y-70355683D01*
X123301168Y-70355684D01*
X123283259Y-70382485D01*
X123249048Y-70416695D01*
X123204349Y-70435209D01*
X123155968Y-70435208D01*
X123102135Y-70424500D01*
X122897870Y-70424500D01*
X122844036Y-70435208D01*
X122817505Y-70440485D01*
X122817504Y-70440485D01*
X122815872Y-70440810D01*
X122774187Y-70458075D01*
X122725806Y-70458074D01*
X122684128Y-70440810D01*
X122682495Y-70440485D01*
X122645634Y-70433153D01*
X122602134Y-70424500D01*
X122397870Y-70424500D01*
X122344036Y-70435208D01*
X122317505Y-70440485D01*
X122317504Y-70440485D01*
X122315872Y-70440810D01*
X122274187Y-70458075D01*
X122225806Y-70458074D01*
X122184128Y-70440810D01*
X122182495Y-70440485D01*
X122145634Y-70433153D01*
X122102134Y-70424500D01*
X121897870Y-70424500D01*
X121844036Y-70435208D01*
X121817505Y-70440485D01*
X121817504Y-70440485D01*
X121815872Y-70440810D01*
X121774187Y-70458075D01*
X121725806Y-70458074D01*
X121684128Y-70440810D01*
X121682495Y-70440485D01*
X121645634Y-70433153D01*
X121602134Y-70424500D01*
X121472050Y-70424500D01*
X121415755Y-70410985D01*
X121371732Y-70373385D01*
X121349577Y-70319898D01*
X121354119Y-70262182D01*
X121384367Y-70212821D01*
X122815370Y-68781818D01*
X122855598Y-68754939D01*
X122903051Y-68745500D01*
X123963607Y-68745500D01*
X123987798Y-68747883D01*
X123999999Y-68750310D01*
X123999999Y-68750309D01*
X124000000Y-68750310D01*
X124095790Y-68731256D01*
X124095789Y-68731256D01*
X124131595Y-68707331D01*
X124131600Y-68707327D01*
X124131599Y-68707327D01*
X124176996Y-68676996D01*
X124183909Y-68666648D01*
X124199328Y-68647859D01*
X124495359Y-68351828D01*
X124514149Y-68336409D01*
X124524496Y-68329496D01*
X124531619Y-68318834D01*
X124568519Y-68282874D01*
X124616845Y-68265016D01*
X124649286Y-68260291D01*
X124757375Y-68207449D01*
X124842449Y-68122375D01*
X124895291Y-68014286D01*
X124905500Y-67944215D01*
X124905499Y-67555786D01*
X124895291Y-67485714D01*
X124842449Y-67377625D01*
X124757375Y-67292551D01*
X124662539Y-67246188D01*
X124611812Y-67200449D01*
X124593000Y-67134788D01*
X124593000Y-65615212D01*
X124611812Y-65549551D01*
X124662539Y-65503812D01*
X124667836Y-65501222D01*
X124757375Y-65457449D01*
X124842449Y-65372375D01*
X124895291Y-65264286D01*
X124905500Y-65194215D01*
X124905499Y-64805786D01*
X124895291Y-64735714D01*
X124842449Y-64627625D01*
X124757375Y-64542551D01*
X124743836Y-64535932D01*
X124649287Y-64489709D01*
X124631768Y-64487156D01*
X124579215Y-64479500D01*
X124579212Y-64479500D01*
X124115787Y-64479500D01*
X124045713Y-64489709D01*
X123937624Y-64542551D01*
X123852551Y-64627624D01*
X123799709Y-64735712D01*
X123789500Y-64805787D01*
X123789500Y-65194212D01*
X123791463Y-65207685D01*
X123799709Y-65264286D01*
X123852551Y-65372375D01*
X123937625Y-65457449D01*
X124022622Y-65499002D01*
X124032461Y-65503812D01*
X124083188Y-65549551D01*
X124102000Y-65615212D01*
X124102000Y-66229097D01*
X124096642Y-66249999D01*
X124102000Y-66270903D01*
X124102000Y-67134788D01*
X124083188Y-67200449D01*
X124032461Y-67246188D01*
X123937624Y-67292551D01*
X123837920Y-67392256D01*
X123834742Y-67389078D01*
X123815449Y-67410383D01*
X123749794Y-67429063D01*
X123684201Y-67410166D01*
X123665242Y-67389093D01*
X123662080Y-67392256D01*
X123562375Y-67292551D01*
X123467539Y-67246188D01*
X123416812Y-67200449D01*
X123398000Y-67134788D01*
X123398000Y-66921528D01*
X123407439Y-66874075D01*
X123434319Y-66833847D01*
X123474547Y-66806967D01*
X123552841Y-66774536D01*
X123678282Y-66678282D01*
X123678283Y-66678281D01*
X123774536Y-66552841D01*
X123835044Y-66406762D01*
X123855060Y-66254718D01*
X123856955Y-66250000D01*
X123855061Y-66245282D01*
X123842897Y-66152890D01*
X123835044Y-66093238D01*
X123774536Y-65947159D01*
X123678282Y-65821717D01*
X123552840Y-65725463D01*
X123406762Y-65664956D01*
X123250000Y-65644317D01*
X123093237Y-65664956D01*
X122947159Y-65725463D01*
X122821717Y-65821717D01*
X122725463Y-65947159D01*
X122664956Y-66093237D01*
X122644317Y-66249999D01*
X122664956Y-66406762D01*
X122725463Y-66552840D01*
X122771235Y-66612492D01*
X122821718Y-66678282D01*
X122858486Y-66706495D01*
X122894212Y-66750027D01*
X122907000Y-66804871D01*
X122907000Y-67134788D01*
X122888188Y-67200449D01*
X122837461Y-67246188D01*
X122742624Y-67292551D01*
X122657551Y-67377624D01*
X122604709Y-67485712D01*
X122594500Y-67555787D01*
X122594500Y-67944212D01*
X122604709Y-68014286D01*
X122663070Y-68133664D01*
X122675634Y-68191115D01*
X122660316Y-68247892D01*
X122620560Y-68291227D01*
X122573004Y-68323002D01*
X122566090Y-68333351D01*
X122550668Y-68352142D01*
X121282030Y-69620779D01*
X121230344Y-69651759D01*
X121170157Y-69654715D01*
X121115684Y-69628951D01*
X121079788Y-69580550D01*
X121024536Y-69447159D01*
X120928282Y-69321717D01*
X120802840Y-69225463D01*
X120656762Y-69164956D01*
X120500000Y-69144317D01*
X120343237Y-69164956D01*
X120197159Y-69225463D01*
X120071717Y-69321717D01*
X119975463Y-69447159D01*
X119914956Y-69593237D01*
X119894317Y-69749999D01*
X119914956Y-69906762D01*
X119975463Y-70052840D01*
X120071717Y-70178282D01*
X120102789Y-70202124D01*
X120140583Y-70250064D01*
X120150921Y-70310229D01*
X120131298Y-70368035D01*
X120086471Y-70409473D01*
X120027304Y-70424500D01*
X119897869Y-70424500D01*
X119817504Y-70440485D01*
X119726376Y-70501375D01*
X119665485Y-70592505D01*
X119649500Y-70672865D01*
X119649500Y-72127131D01*
X119665485Y-72207495D01*
X119733602Y-72309439D01*
X119749161Y-72342335D01*
X119754500Y-72378330D01*
X119754500Y-72870314D01*
X119741712Y-72925158D01*
X119705986Y-72968690D01*
X119571717Y-73071717D01*
X119475463Y-73197159D01*
X119414956Y-73343237D01*
X119394317Y-73499999D01*
X118700500Y-73499999D01*
X118700500Y-72487336D01*
X118712405Y-72434319D01*
X118745835Y-72391483D01*
X118794370Y-72367052D01*
X118848691Y-72365719D01*
X118880166Y-72371979D01*
X118897867Y-72375500D01*
X119102132Y-72375499D01*
X119182495Y-72359515D01*
X119273624Y-72298624D01*
X119334515Y-72207495D01*
X119350500Y-72127133D01*
X119350499Y-70672868D01*
X119339520Y-70617668D01*
X119339635Y-70568720D01*
X119358683Y-70523631D01*
X119410472Y-70447673D01*
X119445213Y-70335044D01*
X119450500Y-70317903D01*
X119450500Y-69487967D01*
X119459939Y-69440515D01*
X119486818Y-69400286D01*
X119581582Y-69305521D01*
X119683248Y-69203853D01*
X119693598Y-69194605D01*
X119721470Y-69172379D01*
X119753691Y-69125118D01*
X119756359Y-69121359D01*
X119756710Y-69120884D01*
X119790293Y-69075382D01*
X119790294Y-69075377D01*
X119793881Y-69070518D01*
X119796192Y-69065941D01*
X119797970Y-69060175D01*
X119797972Y-69060173D01*
X119814830Y-69005514D01*
X119816275Y-69001126D01*
X119835146Y-68947199D01*
X119835146Y-68947195D01*
X119837137Y-68941506D01*
X119838000Y-68936432D01*
X119838000Y-68873254D01*
X119838087Y-68868616D01*
X119840450Y-68805473D01*
X119838000Y-68786862D01*
X119838000Y-68483394D01*
X119851306Y-68427512D01*
X119888367Y-68383623D01*
X119894472Y-68379116D01*
X119894475Y-68379116D01*
X120000711Y-68300711D01*
X120000711Y-68300709D01*
X120000713Y-68300709D01*
X120079114Y-68194478D01*
X120079114Y-68194477D01*
X120079116Y-68194475D01*
X120122725Y-68069849D01*
X120125500Y-68040256D01*
X120125500Y-67459744D01*
X120122725Y-67430151D01*
X120079116Y-67305525D01*
X120079114Y-67305523D01*
X120079114Y-67305521D01*
X120000713Y-67199290D01*
X119913314Y-67134788D01*
X119894475Y-67120884D01*
X119894472Y-67120883D01*
X119888367Y-67116377D01*
X119851306Y-67072488D01*
X119838000Y-67016606D01*
X119838000Y-66736896D01*
X119847439Y-66689443D01*
X119852062Y-66678282D01*
X119879313Y-66612493D01*
X119899951Y-66455731D01*
X119879313Y-66298969D01*
X119818805Y-66152890D01*
X119773032Y-66093237D01*
X119722551Y-66027448D01*
X119597109Y-65931194D01*
X119451031Y-65870687D01*
X119294269Y-65850048D01*
X119137506Y-65870687D01*
X118991428Y-65931194D01*
X118865986Y-66027448D01*
X118769732Y-66152890D01*
X118709225Y-66298968D01*
X118688586Y-66455731D01*
X118709225Y-66612493D01*
X118769732Y-66758571D01*
X118865986Y-66884012D01*
X118888486Y-66901277D01*
X118924212Y-66944809D01*
X118937000Y-66999653D01*
X118937000Y-67016606D01*
X118923694Y-67072488D01*
X118886633Y-67116377D01*
X118880526Y-67120883D01*
X118880525Y-67120884D01*
X118861686Y-67134788D01*
X118774286Y-67199290D01*
X118695885Y-67305521D01*
X118652274Y-67430154D01*
X118649500Y-67459740D01*
X118649500Y-68040260D01*
X118652274Y-68069845D01*
X118652274Y-68069847D01*
X118652275Y-68069849D01*
X118670655Y-68122375D01*
X118695885Y-68194478D01*
X118774286Y-68300709D01*
X118774289Y-68300711D01*
X118880525Y-68379116D01*
X118880527Y-68379116D01*
X118886633Y-68383623D01*
X118923694Y-68427512D01*
X118937000Y-68483394D01*
X118937000Y-68624535D01*
X118927561Y-68671988D01*
X118900683Y-68712213D01*
X118744280Y-68868616D01*
X118704264Y-68908632D01*
X118693898Y-68917895D01*
X118666031Y-68940118D01*
X118633824Y-68987356D01*
X118631144Y-68991132D01*
X118593633Y-69041959D01*
X118591301Y-69046578D01*
X118572674Y-69106966D01*
X118571225Y-69111369D01*
X118550369Y-69170973D01*
X118549500Y-69176090D01*
X118549500Y-69239262D01*
X118549413Y-69243899D01*
X118547050Y-69307029D01*
X118549500Y-69325635D01*
X118549500Y-70283762D01*
X118564652Y-70384287D01*
X118623575Y-70506642D01*
X118629079Y-70512574D01*
X118657491Y-70563144D01*
X118659796Y-70621103D01*
X118652419Y-70658189D01*
X118649501Y-70672865D01*
X118649500Y-70672868D01*
X118649500Y-71425536D01*
X118635985Y-71481831D01*
X118598385Y-71525854D01*
X118544898Y-71548009D01*
X118487182Y-71543467D01*
X118437819Y-71513217D01*
X117886819Y-70962217D01*
X117859939Y-70921989D01*
X117850500Y-70874536D01*
X117850500Y-70534740D01*
X117847725Y-70505154D01*
X117847725Y-70505151D01*
X117804116Y-70380525D01*
X117804114Y-70380523D01*
X117804114Y-70380521D01*
X117725711Y-70274288D01*
X117613366Y-70191374D01*
X117576305Y-70147485D01*
X117562999Y-70091604D01*
X117562999Y-69838026D01*
X117563000Y-69838020D01*
X117563000Y-68483394D01*
X117576306Y-68427512D01*
X117613367Y-68383623D01*
X117619472Y-68379116D01*
X117619475Y-68379116D01*
X117725711Y-68300711D01*
X117725711Y-68300709D01*
X117725713Y-68300709D01*
X117804114Y-68194478D01*
X117804114Y-68194477D01*
X117804116Y-68194475D01*
X117847725Y-68069849D01*
X117850500Y-68040256D01*
X117850500Y-67459744D01*
X117847725Y-67430151D01*
X117804116Y-67305525D01*
X117804114Y-67305523D01*
X117804114Y-67305521D01*
X117725713Y-67199290D01*
X117638314Y-67134788D01*
X117619475Y-67120884D01*
X117619472Y-67120883D01*
X117613367Y-67116377D01*
X117576306Y-67072488D01*
X117563000Y-67016606D01*
X117563000Y-66484646D01*
X117572437Y-66437197D01*
X117585044Y-66406762D01*
X117605682Y-66250000D01*
X117585044Y-66093238D01*
X117524536Y-65947159D01*
X117428282Y-65821717D01*
X117302840Y-65725463D01*
X117156762Y-65664956D01*
X117000000Y-65644317D01*
X116843237Y-65664956D01*
X116697159Y-65725463D01*
X116571717Y-65821717D01*
X116475463Y-65947159D01*
X116414956Y-66093237D01*
X116394317Y-66249999D01*
X116414956Y-66406762D01*
X116475463Y-66552840D01*
X116571717Y-66678282D01*
X116613486Y-66710332D01*
X116649212Y-66753864D01*
X116662000Y-66808708D01*
X116662000Y-67016606D01*
X116648694Y-67072488D01*
X116611633Y-67116377D01*
X116605526Y-67120883D01*
X116605525Y-67120884D01*
X116586686Y-67134788D01*
X116499286Y-67199290D01*
X116420885Y-67305521D01*
X116377274Y-67430154D01*
X116374500Y-67459740D01*
X116374500Y-68040260D01*
X116377274Y-68069845D01*
X116377274Y-68069847D01*
X116377275Y-68069849D01*
X116395655Y-68122375D01*
X116420885Y-68194478D01*
X116499286Y-68300709D01*
X116499289Y-68300711D01*
X116605525Y-68379116D01*
X116605527Y-68379116D01*
X116611633Y-68383623D01*
X116648694Y-68427512D01*
X116662000Y-68483394D01*
X116662000Y-69274472D01*
X116661999Y-69274478D01*
X116661999Y-70091606D01*
X116648693Y-70147488D01*
X116611632Y-70191377D01*
X116499286Y-70274290D01*
X116420885Y-70380521D01*
X116377274Y-70505154D01*
X116374500Y-70534740D01*
X116374500Y-71115260D01*
X116377274Y-71144845D01*
X116420885Y-71269478D01*
X116499288Y-71375711D01*
X116605521Y-71454114D01*
X116605523Y-71454114D01*
X116605525Y-71454116D01*
X116730151Y-71497725D01*
X116742833Y-71498914D01*
X116759740Y-71500500D01*
X116759744Y-71500500D01*
X117099533Y-71500500D01*
X117146986Y-71509939D01*
X117187214Y-71536819D01*
X117763181Y-72112786D01*
X117790061Y-72153014D01*
X117799500Y-72200467D01*
X117799500Y-72850500D01*
X117782887Y-72912500D01*
X117737500Y-72957887D01*
X117675500Y-72974500D01*
X116347868Y-72974500D01*
X116267504Y-72990485D01*
X116176376Y-73051375D01*
X116115485Y-73142505D01*
X116099500Y-73222865D01*
X116099500Y-73427129D01*
X116115810Y-73509129D01*
X116133074Y-73550809D01*
X116133075Y-73599190D01*
X116115809Y-73640874D01*
X116099500Y-73722865D01*
X116099500Y-73927130D01*
X116115810Y-74009132D01*
X116133073Y-74050806D01*
X116133074Y-74099186D01*
X116115809Y-74140871D01*
X116099500Y-74222864D01*
X116099500Y-74427129D01*
X116115810Y-74509129D01*
X116133074Y-74550809D01*
X116133075Y-74599190D01*
X116115809Y-74640874D01*
X116099500Y-74722865D01*
X116099500Y-74927130D01*
X116115810Y-75009132D01*
X116133073Y-75050806D01*
X116133074Y-75099186D01*
X116115809Y-75140871D01*
X116113060Y-75154692D01*
X116089819Y-75205987D01*
X116046287Y-75241712D01*
X115991443Y-75254500D01*
X112153051Y-75254500D01*
X112105598Y-75245061D01*
X112065370Y-75218181D01*
X111781819Y-74934630D01*
X111754939Y-74894402D01*
X111745500Y-74846949D01*
X111745500Y-74824500D01*
X111762113Y-74762500D01*
X111807500Y-74717113D01*
X111869500Y-74700500D01*
X112119749Y-74700500D01*
X112148989Y-74694683D01*
X112178231Y-74688867D01*
X112244552Y-74644552D01*
X112288867Y-74578231D01*
X112300500Y-74519748D01*
X112300500Y-70980252D01*
X112296322Y-70959250D01*
X112288867Y-70921769D01*
X112244552Y-70855447D01*
X112178230Y-70811132D01*
X112119749Y-70799500D01*
X112119748Y-70799500D01*
X111937000Y-70799500D01*
X111875000Y-70782887D01*
X111829613Y-70737500D01*
X111813000Y-70675500D01*
X111813000Y-70483394D01*
X111826306Y-70427512D01*
X111863367Y-70383623D01*
X111869472Y-70379116D01*
X111869475Y-70379116D01*
X111975711Y-70300711D01*
X111975711Y-70300709D01*
X111975713Y-70300709D01*
X112054114Y-70194478D01*
X112054114Y-70194477D01*
X112054116Y-70194475D01*
X112097725Y-70069849D01*
X112100500Y-70040256D01*
X112100500Y-69459744D01*
X112097725Y-69430151D01*
X112054116Y-69305525D01*
X112054114Y-69305523D01*
X112054114Y-69305521D01*
X111975711Y-69199288D01*
X111869478Y-69120885D01*
X111842283Y-69111369D01*
X111744849Y-69077275D01*
X111744847Y-69077274D01*
X111744845Y-69077274D01*
X111715260Y-69074500D01*
X111715256Y-69074500D01*
X111009744Y-69074500D01*
X111009740Y-69074500D01*
X110980154Y-69077274D01*
X110855521Y-69120885D01*
X110749288Y-69199288D01*
X110670885Y-69305521D01*
X110627274Y-69430154D01*
X110624500Y-69459740D01*
X110624500Y-70040260D01*
X110627274Y-70069845D01*
X110627274Y-70069847D01*
X110627275Y-70069849D01*
X110654441Y-70147485D01*
X110670885Y-70194478D01*
X110749286Y-70300709D01*
X110763626Y-70311292D01*
X110855525Y-70379116D01*
X110855527Y-70379116D01*
X110861633Y-70383623D01*
X110898694Y-70427512D01*
X110912000Y-70483394D01*
X110912000Y-70691421D01*
X110899212Y-70746265D01*
X110863487Y-70789797D01*
X110833086Y-70803571D01*
X110755447Y-70855447D01*
X110711132Y-70921769D01*
X110699500Y-70980251D01*
X110699500Y-74519749D01*
X110711132Y-74578230D01*
X110755447Y-74644552D01*
X110821769Y-74688867D01*
X110880251Y-74700500D01*
X110880252Y-74700500D01*
X111130500Y-74700500D01*
X111192500Y-74717113D01*
X111237887Y-74762500D01*
X111254500Y-74824500D01*
X111254500Y-74963607D01*
X111252117Y-74987798D01*
X111249689Y-74999999D01*
X111268743Y-75095788D01*
X111270639Y-75098625D01*
X111270644Y-75098634D01*
X111323002Y-75176994D01*
X111323003Y-75176994D01*
X111323004Y-75176996D01*
X111333354Y-75183911D01*
X111352142Y-75199331D01*
X111690129Y-75537318D01*
X111722223Y-75592905D01*
X111722223Y-75657093D01*
X111690129Y-75712680D01*
X111352141Y-76050668D01*
X111333355Y-76066086D01*
X111323005Y-76073002D01*
X111305885Y-76098625D01*
X111305884Y-76098626D01*
X111268743Y-76154210D01*
X111259697Y-76199691D01*
X111236456Y-76250987D01*
X111192924Y-76286712D01*
X111138080Y-76299500D01*
X110880251Y-76299500D01*
X110821769Y-76311132D01*
X110755447Y-76355447D01*
X110711132Y-76421769D01*
X110699500Y-76480251D01*
X110699500Y-80019749D01*
X110711132Y-80078230D01*
X110755447Y-80144552D01*
X110788501Y-80166637D01*
X110821769Y-80188867D01*
X110821770Y-80188867D01*
X110833086Y-80196428D01*
X110863487Y-80210203D01*
X110899212Y-80253735D01*
X110912000Y-80308579D01*
X110912000Y-80766606D01*
X110898694Y-80822488D01*
X110861633Y-80866377D01*
X110855526Y-80870883D01*
X110855525Y-80870884D01*
X110820452Y-80896769D01*
X110749286Y-80949290D01*
X110670885Y-81055521D01*
X110655803Y-81098623D01*
X110628903Y-81175500D01*
X110627274Y-81180154D01*
X110624500Y-81209740D01*
X110624500Y-81790260D01*
X107335500Y-81790260D01*
X107335500Y-64329999D01*
X108694417Y-64329999D01*
X108714699Y-64535932D01*
X108742514Y-64627625D01*
X108774768Y-64733954D01*
X108872315Y-64916450D01*
X108923609Y-64978952D01*
X109003589Y-65076410D01*
X109083570Y-65142047D01*
X109163550Y-65207685D01*
X109346046Y-65305232D01*
X109544066Y-65365300D01*
X109750000Y-65385583D01*
X109955934Y-65365300D01*
X110153954Y-65305232D01*
X110336450Y-65207685D01*
X110496410Y-65076410D01*
X110627685Y-64916450D01*
X110725232Y-64733954D01*
X110785300Y-64535934D01*
X110805583Y-64330000D01*
X110785300Y-64124066D01*
X110725232Y-63926046D01*
X110627685Y-63743550D01*
X110562047Y-63663570D01*
X110496410Y-63583589D01*
X110398952Y-63503609D01*
X110336450Y-63452315D01*
X110153954Y-63354768D01*
X110054944Y-63324734D01*
X109955932Y-63294699D01*
X109750000Y-63274417D01*
X109544067Y-63294699D01*
X109346043Y-63354769D01*
X109163551Y-63452314D01*
X109003589Y-63583589D01*
X108872314Y-63743551D01*
X108774769Y-63926043D01*
X108714699Y-64124067D01*
X108694417Y-64329999D01*
X107335500Y-64329999D01*
X107335500Y-61790000D01*
X108694417Y-61790000D01*
X108714699Y-61995932D01*
X108714700Y-61995934D01*
X108774768Y-62193954D01*
X108872315Y-62376450D01*
X108923609Y-62438952D01*
X109003589Y-62536410D01*
X109045129Y-62570500D01*
X109163550Y-62667685D01*
X109346046Y-62765232D01*
X109544066Y-62825300D01*
X109750000Y-62845583D01*
X109955934Y-62825300D01*
X110153954Y-62765232D01*
X110336450Y-62667685D01*
X110496410Y-62536410D01*
X110627685Y-62376450D01*
X110725232Y-62193954D01*
X110785300Y-61995934D01*
X110805583Y-61790000D01*
X110785300Y-61584066D01*
X110725232Y-61386046D01*
X110627685Y-61203550D01*
X110562047Y-61123570D01*
X110496410Y-61043589D01*
X110398952Y-60963608D01*
X110336450Y-60912315D01*
X110153954Y-60814768D01*
X110054944Y-60784734D01*
X109955932Y-60754699D01*
X109750000Y-60734417D01*
X109544067Y-60754699D01*
X109346043Y-60814769D01*
X109163551Y-60912314D01*
X109003589Y-61043589D01*
X108872314Y-61203551D01*
X108774769Y-61386043D01*
X108714699Y-61584067D01*
X108694417Y-61790000D01*
X107335500Y-61790000D01*
X107335500Y-60119749D01*
X108699500Y-60119749D01*
X108711132Y-60178230D01*
X108755447Y-60244552D01*
X108821769Y-60288867D01*
X108880251Y-60300500D01*
X108880252Y-60300500D01*
X110619748Y-60300500D01*
X110619749Y-60300500D01*
X110648989Y-60294683D01*
X110678231Y-60288867D01*
X110744552Y-60244552D01*
X110788867Y-60178231D01*
X110800500Y-60119748D01*
X110800500Y-58380252D01*
X110788867Y-58321769D01*
X110788866Y-58321768D01*
X110744552Y-58255447D01*
X110678230Y-58211132D01*
X110619749Y-58199500D01*
X110619748Y-58199500D01*
X108880252Y-58199500D01*
X108880251Y-58199500D01*
X108821769Y-58211132D01*
X108755447Y-58255447D01*
X108711132Y-58321769D01*
X108699500Y-58380251D01*
X108699500Y-60119749D01*
X107335500Y-60119749D01*
X107335500Y-57750000D01*
X116654417Y-57750000D01*
X116674699Y-57955932D01*
X116674700Y-57955934D01*
X116734768Y-58153954D01*
X116832315Y-58336450D01*
X116868262Y-58380252D01*
X116963589Y-58496410D01*
X117043570Y-58562047D01*
X117123550Y-58627685D01*
X117306046Y-58725232D01*
X117504066Y-58785300D01*
X117710000Y-58805583D01*
X117915934Y-58785300D01*
X118113954Y-58725232D01*
X118296450Y-58627685D01*
X118456410Y-58496410D01*
X118587685Y-58336450D01*
X118685232Y-58153954D01*
X118745300Y-57955934D01*
X118765583Y-57750000D01*
X119194417Y-57750000D01*
X119214699Y-57955932D01*
X119214700Y-57955934D01*
X119274768Y-58153954D01*
X119372315Y-58336450D01*
X119408262Y-58380252D01*
X119503589Y-58496410D01*
X119583570Y-58562047D01*
X119663550Y-58627685D01*
X119846046Y-58725232D01*
X120044066Y-58785300D01*
X120250000Y-58805583D01*
X120455934Y-58785300D01*
X120653954Y-58725232D01*
X120836450Y-58627685D01*
X120996410Y-58496410D01*
X121127685Y-58336450D01*
X121225232Y-58153954D01*
X121285300Y-57955934D01*
X121305583Y-57750000D01*
X124274417Y-57750000D01*
X124294699Y-57955932D01*
X124294700Y-57955934D01*
X124354768Y-58153954D01*
X124452315Y-58336450D01*
X124488262Y-58380252D01*
X124583589Y-58496410D01*
X124663570Y-58562047D01*
X124743550Y-58627685D01*
X124926046Y-58725232D01*
X125124066Y-58785300D01*
X125330000Y-58805583D01*
X125535934Y-58785300D01*
X125733954Y-58725232D01*
X125916450Y-58627685D01*
X125926120Y-58619749D01*
X126819500Y-58619749D01*
X126831132Y-58678230D01*
X126875447Y-58744552D01*
X126941769Y-58788867D01*
X127000251Y-58800500D01*
X127000252Y-58800500D01*
X128739748Y-58800500D01*
X128739749Y-58800500D01*
X128768989Y-58794683D01*
X128798231Y-58788867D01*
X128864552Y-58744552D01*
X128908867Y-58678231D01*
X128920500Y-58619748D01*
X128920500Y-56880252D01*
X128908867Y-56821769D01*
X128864552Y-56755447D01*
X128798230Y-56711132D01*
X128739749Y-56699500D01*
X128739748Y-56699500D01*
X127000252Y-56699500D01*
X127000251Y-56699500D01*
X126941769Y-56711132D01*
X126875447Y-56755447D01*
X126831132Y-56821769D01*
X126819500Y-56880251D01*
X126819500Y-58619749D01*
X125926120Y-58619749D01*
X126076410Y-58496410D01*
X126207685Y-58336450D01*
X126305232Y-58153954D01*
X126365300Y-57955934D01*
X126385583Y-57750000D01*
X126365300Y-57544066D01*
X126305232Y-57346046D01*
X126207685Y-57163550D01*
X126142047Y-57083570D01*
X126076410Y-57003589D01*
X125926121Y-56880252D01*
X125916450Y-56872315D01*
X125733954Y-56774768D01*
X125634944Y-56744734D01*
X125535932Y-56714699D01*
X125330000Y-56694417D01*
X125124067Y-56714699D01*
X124926043Y-56774769D01*
X124743551Y-56872314D01*
X124583589Y-57003589D01*
X124452314Y-57163551D01*
X124354769Y-57346043D01*
X124294699Y-57544067D01*
X124274417Y-57750000D01*
X121305583Y-57750000D01*
X121285300Y-57544066D01*
X121225232Y-57346046D01*
X121127685Y-57163550D01*
X121062047Y-57083570D01*
X120996410Y-57003589D01*
X120846121Y-56880252D01*
X120836450Y-56872315D01*
X120653954Y-56774768D01*
X120554944Y-56744734D01*
X120455932Y-56714699D01*
X120250000Y-56694417D01*
X120044067Y-56714699D01*
X119846043Y-56774769D01*
X119663551Y-56872314D01*
X119503589Y-57003589D01*
X119372314Y-57163551D01*
X119274769Y-57346043D01*
X119214699Y-57544067D01*
X119194417Y-57750000D01*
X118765583Y-57750000D01*
X118745300Y-57544066D01*
X118685232Y-57346046D01*
X118587685Y-57163550D01*
X118522047Y-57083570D01*
X118456410Y-57003589D01*
X118306121Y-56880252D01*
X118296450Y-56872315D01*
X118113954Y-56774768D01*
X118014944Y-56744734D01*
X117915932Y-56714699D01*
X117710000Y-56694417D01*
X117504067Y-56714699D01*
X117306043Y-56774769D01*
X117123551Y-56872314D01*
X116963589Y-57003589D01*
X116832314Y-57163551D01*
X116734769Y-57346043D01*
X116674699Y-57544067D01*
X116654417Y-57750000D01*
X107335500Y-57750000D01*
X107335500Y-52067764D01*
X110145787Y-52067764D01*
X110175413Y-52337016D01*
X110201725Y-52437659D01*
X110243928Y-52599088D01*
X110341890Y-52829611D01*
X110349871Y-52848392D01*
X110490982Y-53079611D01*
X110632780Y-53249999D01*
X110664255Y-53287820D01*
X110865998Y-53468582D01*
X111091910Y-53618044D01*
X111161145Y-53650500D01*
X111337177Y-53733021D01*
X111562875Y-53800923D01*
X111596569Y-53811060D01*
X111864561Y-53850500D01*
X112067631Y-53850500D01*
X112067634Y-53850500D01*
X112270156Y-53835677D01*
X112270156Y-53835676D01*
X112534553Y-53776780D01*
X112787558Y-53680014D01*
X113023777Y-53547441D01*
X113124392Y-53469749D01*
X127599500Y-53469749D01*
X127611132Y-53528230D01*
X127655447Y-53594552D01*
X127721769Y-53638867D01*
X127780251Y-53650500D01*
X127780252Y-53650500D01*
X129419748Y-53650500D01*
X129419749Y-53650500D01*
X129448989Y-53644683D01*
X129478231Y-53638867D01*
X129544552Y-53594552D01*
X129588867Y-53528231D01*
X129600500Y-53469748D01*
X129600500Y-52030252D01*
X129588867Y-51971769D01*
X129562451Y-51932235D01*
X129544552Y-51905447D01*
X129478230Y-51861132D01*
X129419749Y-51849500D01*
X129419748Y-51849500D01*
X127780252Y-51849500D01*
X127780251Y-51849500D01*
X127721769Y-51861132D01*
X127655447Y-51905447D01*
X127611132Y-51971769D01*
X127599500Y-52030251D01*
X127599500Y-53469749D01*
X113124392Y-53469749D01*
X113238177Y-53381888D01*
X113426186Y-53186881D01*
X113583799Y-52966579D01*
X113707656Y-52725675D01*
X113795118Y-52469305D01*
X113844319Y-52202933D01*
X113854212Y-51932235D01*
X113824586Y-51662982D01*
X113756072Y-51400912D01*
X113650130Y-51151610D01*
X113560209Y-51004269D01*
X117449500Y-51004269D01*
X117452353Y-51034696D01*
X117497207Y-51162884D01*
X117577849Y-51272150D01*
X117687115Y-51352792D01*
X117716454Y-51363058D01*
X117759841Y-51389201D01*
X117789154Y-51430513D01*
X117799500Y-51480100D01*
X117799500Y-52058581D01*
X117792919Y-52098440D01*
X117773877Y-52134064D01*
X117757471Y-52155447D01*
X117725462Y-52197161D01*
X117664956Y-52343237D01*
X117644317Y-52499999D01*
X117664956Y-52656762D01*
X117725463Y-52802840D01*
X117821717Y-52928282D01*
X117878308Y-52971705D01*
X117947159Y-53024536D01*
X118093238Y-53085044D01*
X118250000Y-53105682D01*
X118406762Y-53085044D01*
X118552841Y-53024536D01*
X118678282Y-52928282D01*
X118774536Y-52802841D01*
X118835044Y-52656762D01*
X118855682Y-52500000D01*
X118835044Y-52343238D01*
X118774536Y-52197159D01*
X118726122Y-52134064D01*
X118707081Y-52098440D01*
X118700500Y-52058581D01*
X118700500Y-51461431D01*
X118713806Y-51405549D01*
X118750867Y-51361660D01*
X118762880Y-51352793D01*
X118762882Y-51352793D01*
X118872150Y-51272150D01*
X118872150Y-51272148D01*
X118872152Y-51272148D01*
X118952792Y-51162884D01*
X118956981Y-51150912D01*
X118997646Y-51034699D01*
X119000500Y-51004269D01*
X119499500Y-51004269D01*
X119502353Y-51034696D01*
X119547207Y-51162884D01*
X119627849Y-51272150D01*
X119737115Y-51352792D01*
X119737118Y-51352793D01*
X119865301Y-51397646D01*
X119877474Y-51398787D01*
X119895731Y-51400500D01*
X119895734Y-51400500D01*
X120654266Y-51400500D01*
X120654269Y-51400500D01*
X120669482Y-51399072D01*
X120684699Y-51397646D01*
X120812882Y-51352793D01*
X120812882Y-51352792D01*
X120812884Y-51352792D01*
X120922150Y-51272150D01*
X121002792Y-51162884D01*
X121006981Y-51150912D01*
X121047646Y-51034699D01*
X121047646Y-51034697D01*
X121048049Y-51033546D01*
X121074192Y-50990159D01*
X121115504Y-50960846D01*
X121165091Y-50950500D01*
X121834909Y-50950500D01*
X121884496Y-50960846D01*
X121925808Y-50990159D01*
X121951951Y-51033546D01*
X121997207Y-51162884D01*
X122077849Y-51272150D01*
X122187115Y-51352792D01*
X122187118Y-51352793D01*
X122315301Y-51397646D01*
X122327474Y-51398787D01*
X122345731Y-51400500D01*
X122345734Y-51400500D01*
X123154266Y-51400500D01*
X123154269Y-51400500D01*
X123169482Y-51399072D01*
X123184699Y-51397646D01*
X123312882Y-51352793D01*
X123312882Y-51352792D01*
X123312884Y-51352792D01*
X123422150Y-51272150D01*
X123502792Y-51162884D01*
X123506981Y-51150912D01*
X123547646Y-51034699D01*
X123550500Y-51004266D01*
X123550500Y-49995734D01*
X123547646Y-49965301D01*
X123502793Y-49837118D01*
X123502792Y-49837115D01*
X123422150Y-49727849D01*
X123312884Y-49647207D01*
X123184696Y-49602353D01*
X123154269Y-49599500D01*
X123154266Y-49599500D01*
X122345734Y-49599500D01*
X122345731Y-49599500D01*
X122315303Y-49602353D01*
X122187115Y-49647207D01*
X122077849Y-49727849D01*
X121997207Y-49837115D01*
X121951951Y-49966454D01*
X121925808Y-50009841D01*
X121884496Y-50039154D01*
X121834909Y-50049500D01*
X121165091Y-50049500D01*
X121115504Y-50039154D01*
X121074192Y-50009841D01*
X121048049Y-49966454D01*
X121029807Y-49914322D01*
X121002793Y-49837118D01*
X121002792Y-49837115D01*
X120922150Y-49727849D01*
X120812884Y-49647207D01*
X120684696Y-49602353D01*
X120654269Y-49599500D01*
X120654266Y-49599500D01*
X119895734Y-49599500D01*
X119895731Y-49599500D01*
X119865303Y-49602353D01*
X119737115Y-49647207D01*
X119627849Y-49727849D01*
X119547207Y-49837115D01*
X119502353Y-49965303D01*
X119499500Y-49995731D01*
X119499500Y-51004269D01*
X119000500Y-51004269D01*
X119000500Y-51004266D01*
X119000500Y-49995734D01*
X118997646Y-49965301D01*
X118952793Y-49837118D01*
X118952792Y-49837115D01*
X118872150Y-49727849D01*
X118762884Y-49647207D01*
X118634696Y-49602353D01*
X118604269Y-49599500D01*
X118604266Y-49599500D01*
X117845734Y-49599500D01*
X117845731Y-49599500D01*
X117815303Y-49602353D01*
X117687115Y-49647207D01*
X117577849Y-49727849D01*
X117497207Y-49837115D01*
X117452353Y-49965303D01*
X117449500Y-49995731D01*
X117449500Y-51004269D01*
X113560209Y-51004269D01*
X113551598Y-50990159D01*
X113509017Y-50920388D01*
X113335746Y-50712181D01*
X113281470Y-50663550D01*
X113134002Y-50531418D01*
X112908090Y-50381956D01*
X112887522Y-50372314D01*
X112662822Y-50266978D01*
X112403437Y-50188941D01*
X112403431Y-50188940D01*
X112135439Y-50149500D01*
X111932369Y-50149500D01*
X111932366Y-50149500D01*
X111729843Y-50164322D01*
X111465449Y-50223219D01*
X111212441Y-50319986D01*
X110976223Y-50452559D01*
X110761825Y-50618109D01*
X110573813Y-50813120D01*
X110416201Y-51033420D01*
X110292342Y-51274329D01*
X110204881Y-51530695D01*
X110155680Y-51797066D01*
X110145787Y-52067764D01*
X107335500Y-52067764D01*
X107335500Y-48028287D01*
X107347673Y-47974707D01*
X107426801Y-47809569D01*
X107457817Y-47769101D01*
X107502498Y-47744535D01*
X107732448Y-47674510D01*
X107768744Y-47669134D01*
X166834088Y-47758162D01*
G37*
%TD.AperFunction*%
%TA.AperFunction,Conductor*%
G36*
X117712860Y-94953608D02*
G01*
X117715954Y-94954315D01*
X117762230Y-94950847D01*
X117771497Y-94950500D01*
X117783762Y-94950500D01*
X118199724Y-94950500D01*
X118254183Y-94963099D01*
X118329664Y-95000000D01*
X117170336Y-95000000D01*
X117245816Y-94963099D01*
X117300276Y-94950500D01*
X117682098Y-94950500D01*
X117685268Y-94950500D01*
X117712860Y-94953608D01*
G37*
%TD.AperFunction*%
%TA.AperFunction,Conductor*%
G36*
X116315667Y-94839751D02*
G01*
X116334747Y-94860916D01*
X116337920Y-94857744D01*
X116352551Y-94872375D01*
X116437625Y-94957449D01*
X116524664Y-95000000D01*
X115975336Y-95000000D01*
X116062375Y-94957449D01*
X116147449Y-94872375D01*
X116147449Y-94872374D01*
X116162080Y-94857744D01*
X116165252Y-94860916D01*
X116184333Y-94839751D01*
X116250000Y-94820936D01*
X116315667Y-94839751D01*
G37*
%TD.AperFunction*%
%TD*%
%TA.AperFunction,Conductor*%
%TO.N,/Output_circuitry/VIN*%
G36*
X145438000Y-71016613D02*
G01*
X145483387Y-71062000D01*
X145500000Y-71124000D01*
X145500000Y-76459603D01*
X145499500Y-76470287D01*
X145499500Y-77529713D01*
X145500000Y-77540397D01*
X145500000Y-78173364D01*
X145481481Y-78238555D01*
X145431454Y-78284273D01*
X143500001Y-79249998D01*
X143500000Y-79250001D01*
X143500000Y-80376000D01*
X143483387Y-80438000D01*
X143438000Y-80483387D01*
X143376000Y-80500000D01*
X142430794Y-80500000D01*
X142377777Y-80488095D01*
X142334941Y-80454665D01*
X142310510Y-80406129D01*
X142309177Y-80351808D01*
X142325500Y-80269749D01*
X142325500Y-79630251D01*
X142313867Y-79571769D01*
X142270898Y-79507462D01*
X142255339Y-79474567D01*
X142250000Y-79438571D01*
X142250000Y-79250002D01*
X142250000Y-79250000D01*
X141845506Y-78997191D01*
X141845504Y-78997190D01*
X140374218Y-78999781D01*
X140312126Y-78983241D01*
X140266649Y-78937844D01*
X140250000Y-78875781D01*
X140250000Y-71124000D01*
X140266613Y-71062000D01*
X140312000Y-71016613D01*
X140374000Y-71000000D01*
X145376000Y-71000000D01*
X145438000Y-71016613D01*
G37*
%TD.AperFunction*%
%TD*%
%TA.AperFunction,Conductor*%
%TO.N,Net-(D1-K)*%
G36*
X164188000Y-63016613D02*
G01*
X164233387Y-63062000D01*
X164250000Y-63124000D01*
X164250000Y-68070500D01*
X164233387Y-68132500D01*
X164188000Y-68177887D01*
X164126000Y-68194500D01*
X145723999Y-68194500D01*
X145644933Y-68204909D01*
X145626512Y-68209844D01*
X145582930Y-68221523D01*
X145536966Y-68240561D01*
X145489516Y-68250000D01*
X132124000Y-68250000D01*
X132062000Y-68233387D01*
X132016613Y-68188000D01*
X132000000Y-68126000D01*
X132000000Y-63124000D01*
X132016613Y-63062000D01*
X132062000Y-63016613D01*
X132124000Y-63000000D01*
X164126000Y-63000000D01*
X164188000Y-63016613D01*
G37*
%TD.AperFunction*%
%TD*%
%TA.AperFunction,Conductor*%
%TO.N,ADC*%
G36*
X143438000Y-82266613D02*
G01*
X143483387Y-82312000D01*
X143500000Y-82374000D01*
X143500000Y-83500000D01*
X144250000Y-84250000D01*
X146376000Y-84250000D01*
X146438000Y-84266613D01*
X146483387Y-84312000D01*
X146500000Y-84374000D01*
X146500000Y-89806000D01*
X146483387Y-89868000D01*
X146438000Y-89913387D01*
X146376000Y-89930000D01*
X140374000Y-89930000D01*
X140312000Y-89913387D01*
X140266613Y-89868000D01*
X140250000Y-89806000D01*
X140250000Y-84376909D01*
X140256584Y-84337040D01*
X140275638Y-84301405D01*
X140277871Y-84298496D01*
X140321399Y-84262783D01*
X140376233Y-84250000D01*
X140986225Y-84250000D01*
X141000000Y-84251357D01*
X141013775Y-84250000D01*
X141249999Y-84250000D01*
X141250000Y-84250000D01*
X142250000Y-83500000D01*
X142250000Y-83261428D01*
X142255340Y-83225432D01*
X142270895Y-83192541D01*
X142313867Y-83128231D01*
X142325500Y-83069748D01*
X142325500Y-82430252D01*
X142319123Y-82398191D01*
X142320456Y-82343871D01*
X142344887Y-82295335D01*
X142387723Y-82261905D01*
X142440740Y-82250000D01*
X143376000Y-82250000D01*
X143438000Y-82266613D01*
G37*
%TD.AperFunction*%
%TD*%
%TA.AperFunction,Conductor*%
%TO.N,Main_in*%
G36*
X166939738Y-68516202D02*
G01*
X166985006Y-68560574D01*
X167002430Y-68621521D01*
X167037498Y-70375016D01*
X167037523Y-70377533D01*
X167034287Y-80876038D01*
X167017661Y-80938022D01*
X166972276Y-80983394D01*
X166910287Y-81000000D01*
X166449499Y-81000000D01*
X166387499Y-80983387D01*
X166342112Y-80938000D01*
X166325499Y-80876000D01*
X166325499Y-80855133D01*
X166322585Y-80830011D01*
X166322585Y-80830009D01*
X166277206Y-80727235D01*
X166277204Y-80727233D01*
X166277204Y-80727232D01*
X166197767Y-80647795D01*
X166197765Y-80647794D01*
X166094991Y-80602415D01*
X166069865Y-80599500D01*
X166069863Y-80599500D01*
X164230132Y-80599500D01*
X164205011Y-80602414D01*
X164102232Y-80647795D01*
X164022795Y-80727232D01*
X163977415Y-80830009D01*
X163974500Y-80855136D01*
X163974500Y-80876000D01*
X163957887Y-80938000D01*
X163912500Y-80983387D01*
X163850500Y-81000000D01*
X156874000Y-81000000D01*
X156812000Y-80983387D01*
X156766613Y-80938000D01*
X156750000Y-80876000D01*
X156750000Y-78750000D01*
X150874000Y-78750000D01*
X150812000Y-78733387D01*
X150766613Y-78688000D01*
X150750000Y-78626000D01*
X150750000Y-75750000D01*
X145929500Y-75750000D01*
X145867500Y-75733387D01*
X145822113Y-75688000D01*
X145805500Y-75626000D01*
X145805500Y-75590833D01*
X145814939Y-75543380D01*
X145841820Y-75503151D01*
X145872205Y-75472766D01*
X145872205Y-75472765D01*
X145872206Y-75472765D01*
X145917585Y-75369991D01*
X145920500Y-75344865D01*
X145920499Y-74155136D01*
X145917585Y-74130009D01*
X145872206Y-74027235D01*
X145872205Y-74027234D01*
X145872205Y-74027233D01*
X145841820Y-73996849D01*
X145814939Y-73956620D01*
X145805500Y-73909167D01*
X145805500Y-71123999D01*
X145795090Y-71044933D01*
X145795090Y-71044930D01*
X145778477Y-70982930D01*
X145747958Y-70909250D01*
X145699408Y-70845979D01*
X145654021Y-70800592D01*
X145648510Y-70796363D01*
X145612787Y-70752832D01*
X145600000Y-70697990D01*
X145600000Y-68624000D01*
X145616613Y-68562000D01*
X145662000Y-68516613D01*
X145724000Y-68500000D01*
X166878455Y-68500000D01*
X166939738Y-68516202D01*
G37*
%TD.AperFunction*%
%TD*%
M02*
