%TF.GenerationSoftware,KiCad,Pcbnew,7.0.1*%
%TF.CreationDate,2023-07-11T02:04:21-05:00*%
%TF.ProjectId,Power_Supply,506f7765-725f-4537-9570-706c792e6b69,1*%
%TF.SameCoordinates,Original*%
%TF.FileFunction,Paste,Top*%
%TF.FilePolarity,Positive*%
%FSLAX46Y46*%
G04 Gerber Fmt 4.6, Leading zero omitted, Abs format (unit mm)*
G04 Created by KiCad (PCBNEW 7.0.1) date 2023-07-11 02:04:21*
%MOMM*%
%LPD*%
G01*
G04 APERTURE LIST*
G04 Aperture macros list*
%AMRoundRect*
0 Rectangle with rounded corners*
0 $1 Rounding radius*
0 $2 $3 $4 $5 $6 $7 $8 $9 X,Y pos of 4 corners*
0 Add a 4 corners polygon primitive as box body*
4,1,4,$2,$3,$4,$5,$6,$7,$8,$9,$2,$3,0*
0 Add four circle primitives for the rounded corners*
1,1,$1+$1,$2,$3*
1,1,$1+$1,$4,$5*
1,1,$1+$1,$6,$7*
1,1,$1+$1,$8,$9*
0 Add four rect primitives between the rounded corners*
20,1,$1+$1,$2,$3,$4,$5,0*
20,1,$1+$1,$4,$5,$6,$7,0*
20,1,$1+$1,$6,$7,$8,$9,0*
20,1,$1+$1,$8,$9,$2,$3,0*%
G04 Aperture macros list end*
%ADD10RoundRect,0.250000X-0.337500X-0.475000X0.337500X-0.475000X0.337500X0.475000X-0.337500X0.475000X0*%
%ADD11R,1.200000X3.500000*%
%ADD12RoundRect,0.250000X0.337500X0.475000X-0.337500X0.475000X-0.337500X-0.475000X0.337500X-0.475000X0*%
%ADD13RoundRect,0.237500X0.237500X-0.300000X0.237500X0.300000X-0.237500X0.300000X-0.237500X-0.300000X0*%
%ADD14RoundRect,0.237500X0.300000X0.237500X-0.300000X0.237500X-0.300000X-0.237500X0.300000X-0.237500X0*%
%ADD15RoundRect,0.250000X0.362500X0.700000X-0.362500X0.700000X-0.362500X-0.700000X0.362500X-0.700000X0*%
%ADD16R,3.400000X0.980000*%
%ADD17RoundRect,0.237500X-0.300000X-0.237500X0.300000X-0.237500X0.300000X0.237500X-0.300000X0.237500X0*%
%ADD18RoundRect,0.225000X-0.375000X0.225000X-0.375000X-0.225000X0.375000X-0.225000X0.375000X0.225000X0*%
%ADD19R,0.850000X0.300000*%
%ADD20R,1.700000X2.500000*%
%ADD21RoundRect,0.155000X0.155000X-0.212500X0.155000X0.212500X-0.155000X0.212500X-0.155000X-0.212500X0*%
%ADD22R,1.100000X2.000000*%
%ADD23R,0.800000X0.800000*%
%ADD24RoundRect,0.160000X-0.160000X0.197500X-0.160000X-0.197500X0.160000X-0.197500X0.160000X0.197500X0*%
%ADD25RoundRect,0.160000X-0.197500X-0.160000X0.197500X-0.160000X0.197500X0.160000X-0.197500X0.160000X0*%
%ADD26R,0.700000X1.525000*%
%ADD27RoundRect,0.160000X0.160000X-0.197500X0.160000X0.197500X-0.160000X0.197500X-0.160000X-0.197500X0*%
%ADD28R,0.600000X0.250000*%
%ADD29R,0.250000X0.600000*%
%ADD30R,0.250000X0.250000*%
%ADD31R,1.350000X0.250000*%
%ADD32R,1.700000X0.250000*%
%ADD33RoundRect,0.250000X0.450000X-0.325000X0.450000X0.325000X-0.450000X0.325000X-0.450000X-0.325000X0*%
%ADD34RoundRect,0.237500X-0.237500X0.300000X-0.237500X-0.300000X0.237500X-0.300000X0.237500X0.300000X0*%
%ADD35R,0.400000X1.350000*%
%ADD36R,1.450000X1.300000*%
%ADD37R,1.600000X1.400000*%
%ADD38R,1.900000X1.900000*%
%ADD39RoundRect,0.250000X0.625000X-0.400000X0.625000X0.400000X-0.625000X0.400000X-0.625000X-0.400000X0*%
%ADD40RoundRect,0.075000X-0.700000X-0.075000X0.700000X-0.075000X0.700000X0.075000X-0.700000X0.075000X0*%
%ADD41RoundRect,0.075000X-0.075000X-0.700000X0.075000X-0.700000X0.075000X0.700000X-0.075000X0.700000X0*%
G04 APERTURE END LIST*
D10*
%TO.C,C5*%
X125842500Y-84060000D03*
X127917500Y-84060000D03*
%TD*%
D11*
%TO.C,Y1*%
X137525000Y-77495000D03*
X137525000Y-71995000D03*
%TD*%
D12*
%TO.C,C7*%
X120567500Y-70190000D03*
X118492500Y-70190000D03*
%TD*%
D13*
%TO.C,C11*%
X114435000Y-63087500D03*
X114435000Y-61362500D03*
%TD*%
D14*
%TO.C,C16*%
X155587500Y-85235000D03*
X153862500Y-85235000D03*
%TD*%
D15*
%TO.C,FB1*%
X129757500Y-64675000D03*
X126432500Y-64675000D03*
%TD*%
D16*
%TO.C,L1*%
X124375000Y-77830000D03*
X124375000Y-75460000D03*
%TD*%
D17*
%TO.C,C17*%
X159250000Y-78980000D03*
X160975000Y-78980000D03*
%TD*%
%TO.C,C18*%
X159250000Y-75990000D03*
X160975000Y-75990000D03*
%TD*%
%TO.C,C23*%
X159250000Y-72630000D03*
X160975000Y-72630000D03*
%TD*%
D18*
%TO.C,D3*%
X136480000Y-64462500D03*
X136480000Y-67762500D03*
%TD*%
D19*
%TO.C,IC3*%
X118895000Y-64720000D03*
X118895000Y-63770000D03*
X118895000Y-62820000D03*
X115995000Y-62820000D03*
X115995000Y-63770000D03*
X115995000Y-64720000D03*
D20*
X117445000Y-63770000D03*
%TD*%
D21*
%TO.C,C4*%
X117145000Y-78272500D03*
X117145000Y-77137500D03*
%TD*%
D12*
%TO.C,C2*%
X118797500Y-83935000D03*
X120872500Y-83935000D03*
%TD*%
D17*
%TO.C,C15*%
X132712500Y-85525000D03*
X134437500Y-85525000D03*
%TD*%
D22*
%TO.C,D1*%
X141315000Y-61645000D03*
D23*
X141315000Y-59745000D03*
%TD*%
D24*
%TO.C,R7*%
X153650000Y-67742500D03*
X153650000Y-68937500D03*
%TD*%
D17*
%TO.C,C14*%
X132042500Y-77465000D03*
X133767500Y-77465000D03*
%TD*%
D25*
%TO.C,R6*%
X132032500Y-81790000D03*
X133227500Y-81790000D03*
%TD*%
D12*
%TO.C,C8*%
X120587500Y-72280000D03*
X118512500Y-72280000D03*
%TD*%
D26*
%TO.C,IC2*%
X112865000Y-86519000D03*
X114135000Y-86519000D03*
X115405000Y-86519000D03*
X116675000Y-86519000D03*
X116675000Y-81095000D03*
X115405000Y-81095000D03*
X114135000Y-81095000D03*
X112865000Y-81095000D03*
%TD*%
D17*
%TO.C,C22*%
X147675000Y-65325000D03*
X149400000Y-65325000D03*
%TD*%
%TO.C,C9*%
X147707500Y-85280000D03*
X149432500Y-85280000D03*
%TD*%
D27*
%TO.C,R4*%
X123865000Y-52992500D03*
X123865000Y-51797500D03*
%TD*%
D13*
%TO.C,C19*%
X143585000Y-72397500D03*
X143585000Y-70672500D03*
%TD*%
D28*
%TO.C,IC1*%
X118559000Y-75745000D03*
X118559000Y-76245000D03*
X118559000Y-76745000D03*
X118559000Y-77245000D03*
D29*
X118985000Y-77895000D03*
X119485000Y-77895000D03*
X119985000Y-77895000D03*
D30*
X120235000Y-77720000D03*
D29*
X120485000Y-77895000D03*
D31*
X120485000Y-76995000D03*
D32*
X120310000Y-76495000D03*
D31*
X120485000Y-75995000D03*
D30*
X120235000Y-75270000D03*
D29*
X120485000Y-75095000D03*
X119985000Y-75095000D03*
X119485000Y-75095000D03*
X118985000Y-75095000D03*
%TD*%
D22*
%TO.C,D2*%
X136445000Y-61635000D03*
D23*
X136445000Y-59735000D03*
%TD*%
D12*
%TO.C,C1*%
X120862500Y-81765000D03*
X118787500Y-81765000D03*
%TD*%
D33*
%TO.C,D4*%
X125935000Y-54210000D03*
X125935000Y-52160000D03*
%TD*%
D34*
%TO.C,C24*%
X133130000Y-65307500D03*
X133130000Y-67032500D03*
%TD*%
%TO.C,C12*%
X143445000Y-76725000D03*
X143445000Y-78450000D03*
%TD*%
D13*
%TO.C,C20*%
X141065000Y-72487500D03*
X141065000Y-70762500D03*
%TD*%
%TO.C,C10*%
X120455000Y-62867500D03*
X120455000Y-61142500D03*
%TD*%
D35*
%TO.C,J2*%
X137515000Y-53740000D03*
X136865000Y-53740000D03*
X136215000Y-53740000D03*
X135565000Y-53740000D03*
X134915000Y-53740000D03*
D36*
X139640000Y-51065000D03*
X132790000Y-51065000D03*
D37*
X139415000Y-53515000D03*
X133015000Y-53515000D03*
D38*
X137415000Y-51065000D03*
X135015000Y-51065000D03*
%TD*%
D39*
%TO.C,R1*%
X113435000Y-78585000D03*
X113435000Y-75485000D03*
%TD*%
D10*
%TO.C,C3*%
X125787500Y-81765000D03*
X127862500Y-81765000D03*
%TD*%
D17*
%TO.C,C13*%
X132242500Y-72015000D03*
X133967500Y-72015000D03*
%TD*%
D12*
%TO.C,C6*%
X120577500Y-68100000D03*
X118502500Y-68100000D03*
%TD*%
D24*
%TO.C,R3*%
X151250000Y-67662500D03*
X151250000Y-68857500D03*
%TD*%
D25*
%TO.C,R2*%
X119137500Y-73877015D03*
X120332500Y-73877015D03*
%TD*%
D40*
%TO.C,U1*%
X145835000Y-72505000D03*
X145835000Y-73005000D03*
X145835000Y-73505000D03*
X145835000Y-74005000D03*
X145835000Y-74505000D03*
X145835000Y-75005000D03*
X145835000Y-75505000D03*
X145835000Y-76005000D03*
X145835000Y-76505000D03*
X145835000Y-77005000D03*
X145835000Y-77505000D03*
X145835000Y-78005000D03*
X145835000Y-78505000D03*
X145835000Y-79005000D03*
X145835000Y-79505000D03*
X145835000Y-80005000D03*
D41*
X147760000Y-81930000D03*
X148260000Y-81930000D03*
X148760000Y-81930000D03*
X149260000Y-81930000D03*
X149760000Y-81930000D03*
X150260000Y-81930000D03*
X150760000Y-81930000D03*
X151260000Y-81930000D03*
X151760000Y-81930000D03*
X152260000Y-81930000D03*
X152760000Y-81930000D03*
X153260000Y-81930000D03*
X153760000Y-81930000D03*
X154260000Y-81930000D03*
X154760000Y-81930000D03*
X155260000Y-81930000D03*
D40*
X157185000Y-80005000D03*
X157185000Y-79505000D03*
X157185000Y-79005000D03*
X157185000Y-78505000D03*
X157185000Y-78005000D03*
X157185000Y-77505000D03*
X157185000Y-77005000D03*
X157185000Y-76505000D03*
X157185000Y-76005000D03*
X157185000Y-75505000D03*
X157185000Y-75005000D03*
X157185000Y-74505000D03*
X157185000Y-74005000D03*
X157185000Y-73505000D03*
X157185000Y-73005000D03*
X157185000Y-72505000D03*
D41*
X155260000Y-70580000D03*
X154760000Y-70580000D03*
X154260000Y-70580000D03*
X153760000Y-70580000D03*
X153260000Y-70580000D03*
X152760000Y-70580000D03*
X152260000Y-70580000D03*
X151760000Y-70580000D03*
X151260000Y-70580000D03*
X150760000Y-70580000D03*
X150260000Y-70580000D03*
X149760000Y-70580000D03*
X149260000Y-70580000D03*
X148760000Y-70580000D03*
X148260000Y-70580000D03*
X147760000Y-70580000D03*
%TD*%
D25*
%TO.C,R5*%
X132002500Y-83850000D03*
X133197500Y-83850000D03*
%TD*%
D17*
%TO.C,C21*%
X147682500Y-68315000D03*
X149407500Y-68315000D03*
%TD*%
M02*
