%TF.GenerationSoftware,KiCad,Pcbnew,7.0.1*%
%TF.CreationDate,2023-07-11T02:04:21-05:00*%
%TF.ProjectId,Power_Supply,506f7765-725f-4537-9570-706c792e6b69,1*%
%TF.SameCoordinates,Original*%
%TF.FileFunction,Legend,Top*%
%TF.FilePolarity,Positive*%
%FSLAX46Y46*%
G04 Gerber Fmt 4.6, Leading zero omitted, Abs format (unit mm)*
G04 Created by KiCad (PCBNEW 7.0.1) date 2023-07-11 02:04:21*
%MOMM*%
%LPD*%
G01*
G04 APERTURE LIST*
%ADD10C,0.125000*%
%ADD11C,0.150000*%
%ADD12C,0.254000*%
%ADD13C,0.120000*%
%ADD14C,0.100000*%
%ADD15C,0.200000*%
%ADD16C,0.250000*%
G04 APERTURE END LIST*
D10*
X167305238Y-83180476D02*
X167257619Y-83256666D01*
X167257619Y-83256666D02*
X167257619Y-83370952D01*
X167257619Y-83370952D02*
X167305238Y-83485238D01*
X167305238Y-83485238D02*
X167400476Y-83561428D01*
X167400476Y-83561428D02*
X167495714Y-83599523D01*
X167495714Y-83599523D02*
X167686190Y-83637619D01*
X167686190Y-83637619D02*
X167829047Y-83637619D01*
X167829047Y-83637619D02*
X168019523Y-83599523D01*
X168019523Y-83599523D02*
X168114761Y-83561428D01*
X168114761Y-83561428D02*
X168210000Y-83485238D01*
X168210000Y-83485238D02*
X168257619Y-83370952D01*
X168257619Y-83370952D02*
X168257619Y-83294761D01*
X168257619Y-83294761D02*
X168210000Y-83180476D01*
X168210000Y-83180476D02*
X168162380Y-83142380D01*
X168162380Y-83142380D02*
X167829047Y-83142380D01*
X167829047Y-83142380D02*
X167829047Y-83294761D01*
X168257619Y-82799523D02*
X167257619Y-82799523D01*
X167257619Y-82799523D02*
X168257619Y-82342380D01*
X168257619Y-82342380D02*
X167257619Y-82342380D01*
X168257619Y-81961428D02*
X167257619Y-81961428D01*
X167257619Y-81961428D02*
X167257619Y-81770952D01*
X167257619Y-81770952D02*
X167305238Y-81656666D01*
X167305238Y-81656666D02*
X167400476Y-81580476D01*
X167400476Y-81580476D02*
X167495714Y-81542381D01*
X167495714Y-81542381D02*
X167686190Y-81504285D01*
X167686190Y-81504285D02*
X167829047Y-81504285D01*
X167829047Y-81504285D02*
X168019523Y-81542381D01*
X168019523Y-81542381D02*
X168114761Y-81580476D01*
X168114761Y-81580476D02*
X168210000Y-81656666D01*
X168210000Y-81656666D02*
X168257619Y-81770952D01*
X168257619Y-81770952D02*
X168257619Y-81961428D01*
D11*
X147640000Y-72349857D02*
X147106666Y-72607000D01*
X147106666Y-72607000D02*
X147640000Y-72864142D01*
D10*
X168190000Y-77827619D02*
X168237619Y-77713333D01*
X168237619Y-77713333D02*
X168237619Y-77522857D01*
X168237619Y-77522857D02*
X168190000Y-77446666D01*
X168190000Y-77446666D02*
X168142380Y-77408571D01*
X168142380Y-77408571D02*
X168047142Y-77370476D01*
X168047142Y-77370476D02*
X167951904Y-77370476D01*
X167951904Y-77370476D02*
X167856666Y-77408571D01*
X167856666Y-77408571D02*
X167809047Y-77446666D01*
X167809047Y-77446666D02*
X167761428Y-77522857D01*
X167761428Y-77522857D02*
X167713809Y-77675238D01*
X167713809Y-77675238D02*
X167666190Y-77751428D01*
X167666190Y-77751428D02*
X167618571Y-77789523D01*
X167618571Y-77789523D02*
X167523333Y-77827619D01*
X167523333Y-77827619D02*
X167428095Y-77827619D01*
X167428095Y-77827619D02*
X167332857Y-77789523D01*
X167332857Y-77789523D02*
X167285238Y-77751428D01*
X167285238Y-77751428D02*
X167237619Y-77675238D01*
X167237619Y-77675238D02*
X167237619Y-77484761D01*
X167237619Y-77484761D02*
X167285238Y-77370476D01*
X168142380Y-76570475D02*
X168190000Y-76608571D01*
X168190000Y-76608571D02*
X168237619Y-76722856D01*
X168237619Y-76722856D02*
X168237619Y-76799047D01*
X168237619Y-76799047D02*
X168190000Y-76913333D01*
X168190000Y-76913333D02*
X168094761Y-76989523D01*
X168094761Y-76989523D02*
X167999523Y-77027618D01*
X167999523Y-77027618D02*
X167809047Y-77065714D01*
X167809047Y-77065714D02*
X167666190Y-77065714D01*
X167666190Y-77065714D02*
X167475714Y-77027618D01*
X167475714Y-77027618D02*
X167380476Y-76989523D01*
X167380476Y-76989523D02*
X167285238Y-76913333D01*
X167285238Y-76913333D02*
X167237619Y-76799047D01*
X167237619Y-76799047D02*
X167237619Y-76722856D01*
X167237619Y-76722856D02*
X167285238Y-76608571D01*
X167285238Y-76608571D02*
X167332857Y-76570475D01*
X168237619Y-75846666D02*
X168237619Y-76227618D01*
X168237619Y-76227618D02*
X167237619Y-76227618D01*
X168210000Y-80737619D02*
X168257619Y-80623333D01*
X168257619Y-80623333D02*
X168257619Y-80432857D01*
X168257619Y-80432857D02*
X168210000Y-80356666D01*
X168210000Y-80356666D02*
X168162380Y-80318571D01*
X168162380Y-80318571D02*
X168067142Y-80280476D01*
X168067142Y-80280476D02*
X167971904Y-80280476D01*
X167971904Y-80280476D02*
X167876666Y-80318571D01*
X167876666Y-80318571D02*
X167829047Y-80356666D01*
X167829047Y-80356666D02*
X167781428Y-80432857D01*
X167781428Y-80432857D02*
X167733809Y-80585238D01*
X167733809Y-80585238D02*
X167686190Y-80661428D01*
X167686190Y-80661428D02*
X167638571Y-80699523D01*
X167638571Y-80699523D02*
X167543333Y-80737619D01*
X167543333Y-80737619D02*
X167448095Y-80737619D01*
X167448095Y-80737619D02*
X167352857Y-80699523D01*
X167352857Y-80699523D02*
X167305238Y-80661428D01*
X167305238Y-80661428D02*
X167257619Y-80585238D01*
X167257619Y-80585238D02*
X167257619Y-80394761D01*
X167257619Y-80394761D02*
X167305238Y-80280476D01*
X168257619Y-79937618D02*
X167257619Y-79937618D01*
X167257619Y-79937618D02*
X167257619Y-79747142D01*
X167257619Y-79747142D02*
X167305238Y-79632856D01*
X167305238Y-79632856D02*
X167400476Y-79556666D01*
X167400476Y-79556666D02*
X167495714Y-79518571D01*
X167495714Y-79518571D02*
X167686190Y-79480475D01*
X167686190Y-79480475D02*
X167829047Y-79480475D01*
X167829047Y-79480475D02*
X168019523Y-79518571D01*
X168019523Y-79518571D02*
X168114761Y-79556666D01*
X168114761Y-79556666D02*
X168210000Y-79632856D01*
X168210000Y-79632856D02*
X168257619Y-79747142D01*
X168257619Y-79747142D02*
X168257619Y-79937618D01*
X167971904Y-79175714D02*
X167971904Y-78794761D01*
X168257619Y-79251904D02*
X167257619Y-78985237D01*
X167257619Y-78985237D02*
X168257619Y-78718571D01*
X168090000Y-67437619D02*
X168137619Y-67323333D01*
X168137619Y-67323333D02*
X168137619Y-67132857D01*
X168137619Y-67132857D02*
X168090000Y-67056666D01*
X168090000Y-67056666D02*
X168042380Y-67018571D01*
X168042380Y-67018571D02*
X167947142Y-66980476D01*
X167947142Y-66980476D02*
X167851904Y-66980476D01*
X167851904Y-66980476D02*
X167756666Y-67018571D01*
X167756666Y-67018571D02*
X167709047Y-67056666D01*
X167709047Y-67056666D02*
X167661428Y-67132857D01*
X167661428Y-67132857D02*
X167613809Y-67285238D01*
X167613809Y-67285238D02*
X167566190Y-67361428D01*
X167566190Y-67361428D02*
X167518571Y-67399523D01*
X167518571Y-67399523D02*
X167423333Y-67437619D01*
X167423333Y-67437619D02*
X167328095Y-67437619D01*
X167328095Y-67437619D02*
X167232857Y-67399523D01*
X167232857Y-67399523D02*
X167185238Y-67361428D01*
X167185238Y-67361428D02*
X167137619Y-67285238D01*
X167137619Y-67285238D02*
X167137619Y-67094761D01*
X167137619Y-67094761D02*
X167185238Y-66980476D01*
X168137619Y-66637618D02*
X167137619Y-66637618D01*
X167137619Y-66637618D02*
X167137619Y-66447142D01*
X167137619Y-66447142D02*
X167185238Y-66332856D01*
X167185238Y-66332856D02*
X167280476Y-66256666D01*
X167280476Y-66256666D02*
X167375714Y-66218571D01*
X167375714Y-66218571D02*
X167566190Y-66180475D01*
X167566190Y-66180475D02*
X167709047Y-66180475D01*
X167709047Y-66180475D02*
X167899523Y-66218571D01*
X167899523Y-66218571D02*
X167994761Y-66256666D01*
X167994761Y-66256666D02*
X168090000Y-66332856D01*
X168090000Y-66332856D02*
X168137619Y-66447142D01*
X168137619Y-66447142D02*
X168137619Y-66637618D01*
X168137619Y-65837618D02*
X167137619Y-65837618D01*
X167137619Y-65304285D02*
X167137619Y-65151904D01*
X167137619Y-65151904D02*
X167185238Y-65075714D01*
X167185238Y-65075714D02*
X167280476Y-64999523D01*
X167280476Y-64999523D02*
X167470952Y-64961428D01*
X167470952Y-64961428D02*
X167804285Y-64961428D01*
X167804285Y-64961428D02*
X167994761Y-64999523D01*
X167994761Y-64999523D02*
X168090000Y-65075714D01*
X168090000Y-65075714D02*
X168137619Y-65151904D01*
X168137619Y-65151904D02*
X168137619Y-65304285D01*
X168137619Y-65304285D02*
X168090000Y-65380476D01*
X168090000Y-65380476D02*
X167994761Y-65456666D01*
X167994761Y-65456666D02*
X167804285Y-65494762D01*
X167804285Y-65494762D02*
X167470952Y-65494762D01*
X167470952Y-65494762D02*
X167280476Y-65456666D01*
X167280476Y-65456666D02*
X167185238Y-65380476D01*
X167185238Y-65380476D02*
X167137619Y-65304285D01*
D11*
X114283095Y-111591666D02*
X115045000Y-111591666D01*
D10*
X163100000Y-69987619D02*
X163147619Y-69873333D01*
X163147619Y-69873333D02*
X163147619Y-69682857D01*
X163147619Y-69682857D02*
X163100000Y-69606666D01*
X163100000Y-69606666D02*
X163052380Y-69568571D01*
X163052380Y-69568571D02*
X162957142Y-69530476D01*
X162957142Y-69530476D02*
X162861904Y-69530476D01*
X162861904Y-69530476D02*
X162766666Y-69568571D01*
X162766666Y-69568571D02*
X162719047Y-69606666D01*
X162719047Y-69606666D02*
X162671428Y-69682857D01*
X162671428Y-69682857D02*
X162623809Y-69835238D01*
X162623809Y-69835238D02*
X162576190Y-69911428D01*
X162576190Y-69911428D02*
X162528571Y-69949523D01*
X162528571Y-69949523D02*
X162433333Y-69987619D01*
X162433333Y-69987619D02*
X162338095Y-69987619D01*
X162338095Y-69987619D02*
X162242857Y-69949523D01*
X162242857Y-69949523D02*
X162195238Y-69911428D01*
X162195238Y-69911428D02*
X162147619Y-69835238D01*
X162147619Y-69835238D02*
X162147619Y-69644761D01*
X162147619Y-69644761D02*
X162195238Y-69530476D01*
X162147619Y-69263809D02*
X163147619Y-69073333D01*
X163147619Y-69073333D02*
X162433333Y-68920952D01*
X162433333Y-68920952D02*
X163147619Y-68768571D01*
X163147619Y-68768571D02*
X162147619Y-68578095D01*
X162147619Y-68120951D02*
X162147619Y-67968570D01*
X162147619Y-67968570D02*
X162195238Y-67892380D01*
X162195238Y-67892380D02*
X162290476Y-67816189D01*
X162290476Y-67816189D02*
X162480952Y-67778094D01*
X162480952Y-67778094D02*
X162814285Y-67778094D01*
X162814285Y-67778094D02*
X163004761Y-67816189D01*
X163004761Y-67816189D02*
X163100000Y-67892380D01*
X163100000Y-67892380D02*
X163147619Y-67968570D01*
X163147619Y-67968570D02*
X163147619Y-68120951D01*
X163147619Y-68120951D02*
X163100000Y-68197142D01*
X163100000Y-68197142D02*
X163004761Y-68273332D01*
X163004761Y-68273332D02*
X162814285Y-68311428D01*
X162814285Y-68311428D02*
X162480952Y-68311428D01*
X162480952Y-68311428D02*
X162290476Y-68273332D01*
X162290476Y-68273332D02*
X162195238Y-68197142D01*
X162195238Y-68197142D02*
X162147619Y-68120951D01*
D11*
X159243095Y-111751666D02*
X160005000Y-111751666D01*
D10*
X168100000Y-62907619D02*
X168147619Y-62793333D01*
X168147619Y-62793333D02*
X168147619Y-62602857D01*
X168147619Y-62602857D02*
X168100000Y-62526666D01*
X168100000Y-62526666D02*
X168052380Y-62488571D01*
X168052380Y-62488571D02*
X167957142Y-62450476D01*
X167957142Y-62450476D02*
X167861904Y-62450476D01*
X167861904Y-62450476D02*
X167766666Y-62488571D01*
X167766666Y-62488571D02*
X167719047Y-62526666D01*
X167719047Y-62526666D02*
X167671428Y-62602857D01*
X167671428Y-62602857D02*
X167623809Y-62755238D01*
X167623809Y-62755238D02*
X167576190Y-62831428D01*
X167576190Y-62831428D02*
X167528571Y-62869523D01*
X167528571Y-62869523D02*
X167433333Y-62907619D01*
X167433333Y-62907619D02*
X167338095Y-62907619D01*
X167338095Y-62907619D02*
X167242857Y-62869523D01*
X167242857Y-62869523D02*
X167195238Y-62831428D01*
X167195238Y-62831428D02*
X167147619Y-62755238D01*
X167147619Y-62755238D02*
X167147619Y-62564761D01*
X167147619Y-62564761D02*
X167195238Y-62450476D01*
X167147619Y-62183809D02*
X168147619Y-61993333D01*
X168147619Y-61993333D02*
X167433333Y-61840952D01*
X167433333Y-61840952D02*
X168147619Y-61688571D01*
X168147619Y-61688571D02*
X167147619Y-61498095D01*
X168052380Y-60736189D02*
X168100000Y-60774285D01*
X168100000Y-60774285D02*
X168147619Y-60888570D01*
X168147619Y-60888570D02*
X168147619Y-60964761D01*
X168147619Y-60964761D02*
X168100000Y-61079047D01*
X168100000Y-61079047D02*
X168004761Y-61155237D01*
X168004761Y-61155237D02*
X167909523Y-61193332D01*
X167909523Y-61193332D02*
X167719047Y-61231428D01*
X167719047Y-61231428D02*
X167576190Y-61231428D01*
X167576190Y-61231428D02*
X167385714Y-61193332D01*
X167385714Y-61193332D02*
X167290476Y-61155237D01*
X167290476Y-61155237D02*
X167195238Y-61079047D01*
X167195238Y-61079047D02*
X167147619Y-60964761D01*
X167147619Y-60964761D02*
X167147619Y-60888570D01*
X167147619Y-60888570D02*
X167195238Y-60774285D01*
X167195238Y-60774285D02*
X167242857Y-60736189D01*
X168147619Y-60393332D02*
X167147619Y-60393332D01*
X168147619Y-59936189D02*
X167576190Y-60279047D01*
X167147619Y-59936189D02*
X167719047Y-60393332D01*
D11*
X116933095Y-111601666D02*
X117695000Y-111601666D01*
X117314047Y-111982619D02*
X117314047Y-111220714D01*
D10*
X151982619Y-68589047D02*
X151958809Y-68636666D01*
X151958809Y-68636666D02*
X151958809Y-68708095D01*
X151958809Y-68708095D02*
X151982619Y-68779523D01*
X151982619Y-68779523D02*
X152030238Y-68827142D01*
X152030238Y-68827142D02*
X152077857Y-68850952D01*
X152077857Y-68850952D02*
X152173095Y-68874761D01*
X152173095Y-68874761D02*
X152244523Y-68874761D01*
X152244523Y-68874761D02*
X152339761Y-68850952D01*
X152339761Y-68850952D02*
X152387380Y-68827142D01*
X152387380Y-68827142D02*
X152435000Y-68779523D01*
X152435000Y-68779523D02*
X152458809Y-68708095D01*
X152458809Y-68708095D02*
X152458809Y-68660476D01*
X152458809Y-68660476D02*
X152435000Y-68589047D01*
X152435000Y-68589047D02*
X152411190Y-68565238D01*
X152411190Y-68565238D02*
X152244523Y-68565238D01*
X152244523Y-68565238D02*
X152244523Y-68660476D01*
X152458809Y-68350952D02*
X151958809Y-68350952D01*
X151958809Y-68350952D02*
X152458809Y-68065238D01*
X152458809Y-68065238D02*
X151958809Y-68065238D01*
X152458809Y-67827142D02*
X151958809Y-67827142D01*
X151958809Y-67827142D02*
X151958809Y-67708094D01*
X151958809Y-67708094D02*
X151982619Y-67636666D01*
X151982619Y-67636666D02*
X152030238Y-67589047D01*
X152030238Y-67589047D02*
X152077857Y-67565237D01*
X152077857Y-67565237D02*
X152173095Y-67541428D01*
X152173095Y-67541428D02*
X152244523Y-67541428D01*
X152244523Y-67541428D02*
X152339761Y-67565237D01*
X152339761Y-67565237D02*
X152387380Y-67589047D01*
X152387380Y-67589047D02*
X152435000Y-67636666D01*
X152435000Y-67636666D02*
X152458809Y-67708094D01*
X152458809Y-67708094D02*
X152458809Y-67827142D01*
X162165238Y-64460476D02*
X162117619Y-64536666D01*
X162117619Y-64536666D02*
X162117619Y-64650952D01*
X162117619Y-64650952D02*
X162165238Y-64765238D01*
X162165238Y-64765238D02*
X162260476Y-64841428D01*
X162260476Y-64841428D02*
X162355714Y-64879523D01*
X162355714Y-64879523D02*
X162546190Y-64917619D01*
X162546190Y-64917619D02*
X162689047Y-64917619D01*
X162689047Y-64917619D02*
X162879523Y-64879523D01*
X162879523Y-64879523D02*
X162974761Y-64841428D01*
X162974761Y-64841428D02*
X163070000Y-64765238D01*
X163070000Y-64765238D02*
X163117619Y-64650952D01*
X163117619Y-64650952D02*
X163117619Y-64574761D01*
X163117619Y-64574761D02*
X163070000Y-64460476D01*
X163070000Y-64460476D02*
X163022380Y-64422380D01*
X163022380Y-64422380D02*
X162689047Y-64422380D01*
X162689047Y-64422380D02*
X162689047Y-64574761D01*
X163117619Y-64079523D02*
X162117619Y-64079523D01*
X162117619Y-64079523D02*
X163117619Y-63622380D01*
X163117619Y-63622380D02*
X162117619Y-63622380D01*
X163117619Y-63241428D02*
X162117619Y-63241428D01*
X162117619Y-63241428D02*
X162117619Y-63050952D01*
X162117619Y-63050952D02*
X162165238Y-62936666D01*
X162165238Y-62936666D02*
X162260476Y-62860476D01*
X162260476Y-62860476D02*
X162355714Y-62822381D01*
X162355714Y-62822381D02*
X162546190Y-62784285D01*
X162546190Y-62784285D02*
X162689047Y-62784285D01*
X162689047Y-62784285D02*
X162879523Y-62822381D01*
X162879523Y-62822381D02*
X162974761Y-62860476D01*
X162974761Y-62860476D02*
X163070000Y-62936666D01*
X163070000Y-62936666D02*
X163117619Y-63050952D01*
X163117619Y-63050952D02*
X163117619Y-63241428D01*
D11*
X162143095Y-111791666D02*
X162905000Y-111791666D01*
X162524047Y-112172619D02*
X162524047Y-111410714D01*
D10*
X162257619Y-59823809D02*
X163257619Y-59557142D01*
X163257619Y-59557142D02*
X162257619Y-59290476D01*
X163257619Y-59023809D02*
X162257619Y-59023809D01*
X162257619Y-59023809D02*
X162257619Y-58833333D01*
X162257619Y-58833333D02*
X162305238Y-58719047D01*
X162305238Y-58719047D02*
X162400476Y-58642857D01*
X162400476Y-58642857D02*
X162495714Y-58604762D01*
X162495714Y-58604762D02*
X162686190Y-58566666D01*
X162686190Y-58566666D02*
X162829047Y-58566666D01*
X162829047Y-58566666D02*
X163019523Y-58604762D01*
X163019523Y-58604762D02*
X163114761Y-58642857D01*
X163114761Y-58642857D02*
X163210000Y-58719047D01*
X163210000Y-58719047D02*
X163257619Y-58833333D01*
X163257619Y-58833333D02*
X163257619Y-59023809D01*
X163257619Y-58223809D02*
X162257619Y-58223809D01*
X162257619Y-58223809D02*
X162257619Y-58033333D01*
X162257619Y-58033333D02*
X162305238Y-57919047D01*
X162305238Y-57919047D02*
X162400476Y-57842857D01*
X162400476Y-57842857D02*
X162495714Y-57804762D01*
X162495714Y-57804762D02*
X162686190Y-57766666D01*
X162686190Y-57766666D02*
X162829047Y-57766666D01*
X162829047Y-57766666D02*
X163019523Y-57804762D01*
X163019523Y-57804762D02*
X163114761Y-57842857D01*
X163114761Y-57842857D02*
X163210000Y-57919047D01*
X163210000Y-57919047D02*
X163257619Y-58033333D01*
X163257619Y-58033333D02*
X163257619Y-58223809D01*
X154308809Y-68928571D02*
X154308809Y-68619047D01*
X154308809Y-68619047D02*
X154499285Y-68785714D01*
X154499285Y-68785714D02*
X154499285Y-68714285D01*
X154499285Y-68714285D02*
X154523095Y-68666666D01*
X154523095Y-68666666D02*
X154546904Y-68642857D01*
X154546904Y-68642857D02*
X154594523Y-68619047D01*
X154594523Y-68619047D02*
X154713571Y-68619047D01*
X154713571Y-68619047D02*
X154761190Y-68642857D01*
X154761190Y-68642857D02*
X154785000Y-68666666D01*
X154785000Y-68666666D02*
X154808809Y-68714285D01*
X154808809Y-68714285D02*
X154808809Y-68857142D01*
X154808809Y-68857142D02*
X154785000Y-68904761D01*
X154785000Y-68904761D02*
X154761190Y-68928571D01*
X154761190Y-68404762D02*
X154785000Y-68380952D01*
X154785000Y-68380952D02*
X154808809Y-68404762D01*
X154808809Y-68404762D02*
X154785000Y-68428571D01*
X154785000Y-68428571D02*
X154761190Y-68404762D01*
X154761190Y-68404762D02*
X154808809Y-68404762D01*
X154308809Y-68214286D02*
X154308809Y-67904762D01*
X154308809Y-67904762D02*
X154499285Y-68071429D01*
X154499285Y-68071429D02*
X154499285Y-68000000D01*
X154499285Y-68000000D02*
X154523095Y-67952381D01*
X154523095Y-67952381D02*
X154546904Y-67928572D01*
X154546904Y-67928572D02*
X154594523Y-67904762D01*
X154594523Y-67904762D02*
X154713571Y-67904762D01*
X154713571Y-67904762D02*
X154761190Y-67928572D01*
X154761190Y-67928572D02*
X154785000Y-67952381D01*
X154785000Y-67952381D02*
X154808809Y-68000000D01*
X154808809Y-68000000D02*
X154808809Y-68142857D01*
X154808809Y-68142857D02*
X154785000Y-68190476D01*
X154785000Y-68190476D02*
X154761190Y-68214286D01*
X154308809Y-67761905D02*
X154808809Y-67595239D01*
X154808809Y-67595239D02*
X154308809Y-67428572D01*
D11*
%TO.C,C5*%
X129613333Y-84547380D02*
X129565714Y-84595000D01*
X129565714Y-84595000D02*
X129422857Y-84642619D01*
X129422857Y-84642619D02*
X129327619Y-84642619D01*
X129327619Y-84642619D02*
X129184762Y-84595000D01*
X129184762Y-84595000D02*
X129089524Y-84499761D01*
X129089524Y-84499761D02*
X129041905Y-84404523D01*
X129041905Y-84404523D02*
X128994286Y-84214047D01*
X128994286Y-84214047D02*
X128994286Y-84071190D01*
X128994286Y-84071190D02*
X129041905Y-83880714D01*
X129041905Y-83880714D02*
X129089524Y-83785476D01*
X129089524Y-83785476D02*
X129184762Y-83690238D01*
X129184762Y-83690238D02*
X129327619Y-83642619D01*
X129327619Y-83642619D02*
X129422857Y-83642619D01*
X129422857Y-83642619D02*
X129565714Y-83690238D01*
X129565714Y-83690238D02*
X129613333Y-83737857D01*
X130518095Y-83642619D02*
X130041905Y-83642619D01*
X130041905Y-83642619D02*
X129994286Y-84118809D01*
X129994286Y-84118809D02*
X130041905Y-84071190D01*
X130041905Y-84071190D02*
X130137143Y-84023571D01*
X130137143Y-84023571D02*
X130375238Y-84023571D01*
X130375238Y-84023571D02*
X130470476Y-84071190D01*
X130470476Y-84071190D02*
X130518095Y-84118809D01*
X130518095Y-84118809D02*
X130565714Y-84214047D01*
X130565714Y-84214047D02*
X130565714Y-84452142D01*
X130565714Y-84452142D02*
X130518095Y-84547380D01*
X130518095Y-84547380D02*
X130470476Y-84595000D01*
X130470476Y-84595000D02*
X130375238Y-84642619D01*
X130375238Y-84642619D02*
X130137143Y-84642619D01*
X130137143Y-84642619D02*
X130041905Y-84595000D01*
X130041905Y-84595000D02*
X129994286Y-84547380D01*
%TO.C,Y1*%
X135843809Y-74596428D02*
X135843809Y-75072619D01*
X135510476Y-74072619D02*
X135843809Y-74596428D01*
X135843809Y-74596428D02*
X136177142Y-74072619D01*
X137034285Y-75072619D02*
X136462857Y-75072619D01*
X136748571Y-75072619D02*
X136748571Y-74072619D01*
X136748571Y-74072619D02*
X136653333Y-74215476D01*
X136653333Y-74215476D02*
X136558095Y-74310714D01*
X136558095Y-74310714D02*
X136462857Y-74358333D01*
%TO.C,SW3*%
X145665000Y-96053332D02*
X145712619Y-95910475D01*
X145712619Y-95910475D02*
X145712619Y-95672380D01*
X145712619Y-95672380D02*
X145665000Y-95577142D01*
X145665000Y-95577142D02*
X145617380Y-95529523D01*
X145617380Y-95529523D02*
X145522142Y-95481904D01*
X145522142Y-95481904D02*
X145426904Y-95481904D01*
X145426904Y-95481904D02*
X145331666Y-95529523D01*
X145331666Y-95529523D02*
X145284047Y-95577142D01*
X145284047Y-95577142D02*
X145236428Y-95672380D01*
X145236428Y-95672380D02*
X145188809Y-95862856D01*
X145188809Y-95862856D02*
X145141190Y-95958094D01*
X145141190Y-95958094D02*
X145093571Y-96005713D01*
X145093571Y-96005713D02*
X144998333Y-96053332D01*
X144998333Y-96053332D02*
X144903095Y-96053332D01*
X144903095Y-96053332D02*
X144807857Y-96005713D01*
X144807857Y-96005713D02*
X144760238Y-95958094D01*
X144760238Y-95958094D02*
X144712619Y-95862856D01*
X144712619Y-95862856D02*
X144712619Y-95624761D01*
X144712619Y-95624761D02*
X144760238Y-95481904D01*
X144712619Y-95148570D02*
X145712619Y-94910475D01*
X145712619Y-94910475D02*
X144998333Y-94719999D01*
X144998333Y-94719999D02*
X145712619Y-94529523D01*
X145712619Y-94529523D02*
X144712619Y-94291428D01*
X144712619Y-94005713D02*
X144712619Y-93386666D01*
X144712619Y-93386666D02*
X145093571Y-93719999D01*
X145093571Y-93719999D02*
X145093571Y-93577142D01*
X145093571Y-93577142D02*
X145141190Y-93481904D01*
X145141190Y-93481904D02*
X145188809Y-93434285D01*
X145188809Y-93434285D02*
X145284047Y-93386666D01*
X145284047Y-93386666D02*
X145522142Y-93386666D01*
X145522142Y-93386666D02*
X145617380Y-93434285D01*
X145617380Y-93434285D02*
X145665000Y-93481904D01*
X145665000Y-93481904D02*
X145712619Y-93577142D01*
X145712619Y-93577142D02*
X145712619Y-93862856D01*
X145712619Y-93862856D02*
X145665000Y-93958094D01*
X145665000Y-93958094D02*
X145617380Y-94005713D01*
%TO.C,C7*%
X122678333Y-69992380D02*
X122630714Y-70040000D01*
X122630714Y-70040000D02*
X122487857Y-70087619D01*
X122487857Y-70087619D02*
X122392619Y-70087619D01*
X122392619Y-70087619D02*
X122249762Y-70040000D01*
X122249762Y-70040000D02*
X122154524Y-69944761D01*
X122154524Y-69944761D02*
X122106905Y-69849523D01*
X122106905Y-69849523D02*
X122059286Y-69659047D01*
X122059286Y-69659047D02*
X122059286Y-69516190D01*
X122059286Y-69516190D02*
X122106905Y-69325714D01*
X122106905Y-69325714D02*
X122154524Y-69230476D01*
X122154524Y-69230476D02*
X122249762Y-69135238D01*
X122249762Y-69135238D02*
X122392619Y-69087619D01*
X122392619Y-69087619D02*
X122487857Y-69087619D01*
X122487857Y-69087619D02*
X122630714Y-69135238D01*
X122630714Y-69135238D02*
X122678333Y-69182857D01*
X123011667Y-69087619D02*
X123678333Y-69087619D01*
X123678333Y-69087619D02*
X123249762Y-70087619D01*
%TO.C,H2*%
X157133095Y-53427619D02*
X157133095Y-52427619D01*
X157133095Y-52903809D02*
X157704523Y-52903809D01*
X157704523Y-53427619D02*
X157704523Y-52427619D01*
X158133095Y-52522857D02*
X158180714Y-52475238D01*
X158180714Y-52475238D02*
X158275952Y-52427619D01*
X158275952Y-52427619D02*
X158514047Y-52427619D01*
X158514047Y-52427619D02*
X158609285Y-52475238D01*
X158609285Y-52475238D02*
X158656904Y-52522857D01*
X158656904Y-52522857D02*
X158704523Y-52618095D01*
X158704523Y-52618095D02*
X158704523Y-52713333D01*
X158704523Y-52713333D02*
X158656904Y-52856190D01*
X158656904Y-52856190D02*
X158085476Y-53427619D01*
X158085476Y-53427619D02*
X158704523Y-53427619D01*
%TO.C,C11*%
X113772142Y-60292380D02*
X113724523Y-60340000D01*
X113724523Y-60340000D02*
X113581666Y-60387619D01*
X113581666Y-60387619D02*
X113486428Y-60387619D01*
X113486428Y-60387619D02*
X113343571Y-60340000D01*
X113343571Y-60340000D02*
X113248333Y-60244761D01*
X113248333Y-60244761D02*
X113200714Y-60149523D01*
X113200714Y-60149523D02*
X113153095Y-59959047D01*
X113153095Y-59959047D02*
X113153095Y-59816190D01*
X113153095Y-59816190D02*
X113200714Y-59625714D01*
X113200714Y-59625714D02*
X113248333Y-59530476D01*
X113248333Y-59530476D02*
X113343571Y-59435238D01*
X113343571Y-59435238D02*
X113486428Y-59387619D01*
X113486428Y-59387619D02*
X113581666Y-59387619D01*
X113581666Y-59387619D02*
X113724523Y-59435238D01*
X113724523Y-59435238D02*
X113772142Y-59482857D01*
X114724523Y-60387619D02*
X114153095Y-60387619D01*
X114438809Y-60387619D02*
X114438809Y-59387619D01*
X114438809Y-59387619D02*
X114343571Y-59530476D01*
X114343571Y-59530476D02*
X114248333Y-59625714D01*
X114248333Y-59625714D02*
X114153095Y-59673333D01*
X115676904Y-60387619D02*
X115105476Y-60387619D01*
X115391190Y-60387619D02*
X115391190Y-59387619D01*
X115391190Y-59387619D02*
X115295952Y-59530476D01*
X115295952Y-59530476D02*
X115200714Y-59625714D01*
X115200714Y-59625714D02*
X115105476Y-59673333D01*
%TO.C,C16*%
X154052142Y-84272380D02*
X154004523Y-84320000D01*
X154004523Y-84320000D02*
X153861666Y-84367619D01*
X153861666Y-84367619D02*
X153766428Y-84367619D01*
X153766428Y-84367619D02*
X153623571Y-84320000D01*
X153623571Y-84320000D02*
X153528333Y-84224761D01*
X153528333Y-84224761D02*
X153480714Y-84129523D01*
X153480714Y-84129523D02*
X153433095Y-83939047D01*
X153433095Y-83939047D02*
X153433095Y-83796190D01*
X153433095Y-83796190D02*
X153480714Y-83605714D01*
X153480714Y-83605714D02*
X153528333Y-83510476D01*
X153528333Y-83510476D02*
X153623571Y-83415238D01*
X153623571Y-83415238D02*
X153766428Y-83367619D01*
X153766428Y-83367619D02*
X153861666Y-83367619D01*
X153861666Y-83367619D02*
X154004523Y-83415238D01*
X154004523Y-83415238D02*
X154052142Y-83462857D01*
X155004523Y-84367619D02*
X154433095Y-84367619D01*
X154718809Y-84367619D02*
X154718809Y-83367619D01*
X154718809Y-83367619D02*
X154623571Y-83510476D01*
X154623571Y-83510476D02*
X154528333Y-83605714D01*
X154528333Y-83605714D02*
X154433095Y-83653333D01*
X155861666Y-83367619D02*
X155671190Y-83367619D01*
X155671190Y-83367619D02*
X155575952Y-83415238D01*
X155575952Y-83415238D02*
X155528333Y-83462857D01*
X155528333Y-83462857D02*
X155433095Y-83605714D01*
X155433095Y-83605714D02*
X155385476Y-83796190D01*
X155385476Y-83796190D02*
X155385476Y-84177142D01*
X155385476Y-84177142D02*
X155433095Y-84272380D01*
X155433095Y-84272380D02*
X155480714Y-84320000D01*
X155480714Y-84320000D02*
X155575952Y-84367619D01*
X155575952Y-84367619D02*
X155766428Y-84367619D01*
X155766428Y-84367619D02*
X155861666Y-84320000D01*
X155861666Y-84320000D02*
X155909285Y-84272380D01*
X155909285Y-84272380D02*
X155956904Y-84177142D01*
X155956904Y-84177142D02*
X155956904Y-83939047D01*
X155956904Y-83939047D02*
X155909285Y-83843809D01*
X155909285Y-83843809D02*
X155861666Y-83796190D01*
X155861666Y-83796190D02*
X155766428Y-83748571D01*
X155766428Y-83748571D02*
X155575952Y-83748571D01*
X155575952Y-83748571D02*
X155480714Y-83796190D01*
X155480714Y-83796190D02*
X155433095Y-83843809D01*
X155433095Y-83843809D02*
X155385476Y-83939047D01*
%TO.C,H3*%
X161038095Y-96392619D02*
X161038095Y-95392619D01*
X161038095Y-95868809D02*
X161609523Y-95868809D01*
X161609523Y-96392619D02*
X161609523Y-95392619D01*
X161990476Y-95392619D02*
X162609523Y-95392619D01*
X162609523Y-95392619D02*
X162276190Y-95773571D01*
X162276190Y-95773571D02*
X162419047Y-95773571D01*
X162419047Y-95773571D02*
X162514285Y-95821190D01*
X162514285Y-95821190D02*
X162561904Y-95868809D01*
X162561904Y-95868809D02*
X162609523Y-95964047D01*
X162609523Y-95964047D02*
X162609523Y-96202142D01*
X162609523Y-96202142D02*
X162561904Y-96297380D01*
X162561904Y-96297380D02*
X162514285Y-96345000D01*
X162514285Y-96345000D02*
X162419047Y-96392619D01*
X162419047Y-96392619D02*
X162133333Y-96392619D01*
X162133333Y-96392619D02*
X162038095Y-96345000D01*
X162038095Y-96345000D02*
X161990476Y-96297380D01*
%TO.C,FB1*%
X127466666Y-62668809D02*
X127133333Y-62668809D01*
X127133333Y-63192619D02*
X127133333Y-62192619D01*
X127133333Y-62192619D02*
X127609523Y-62192619D01*
X128323809Y-62668809D02*
X128466666Y-62716428D01*
X128466666Y-62716428D02*
X128514285Y-62764047D01*
X128514285Y-62764047D02*
X128561904Y-62859285D01*
X128561904Y-62859285D02*
X128561904Y-63002142D01*
X128561904Y-63002142D02*
X128514285Y-63097380D01*
X128514285Y-63097380D02*
X128466666Y-63145000D01*
X128466666Y-63145000D02*
X128371428Y-63192619D01*
X128371428Y-63192619D02*
X127990476Y-63192619D01*
X127990476Y-63192619D02*
X127990476Y-62192619D01*
X127990476Y-62192619D02*
X128323809Y-62192619D01*
X128323809Y-62192619D02*
X128419047Y-62240238D01*
X128419047Y-62240238D02*
X128466666Y-62287857D01*
X128466666Y-62287857D02*
X128514285Y-62383095D01*
X128514285Y-62383095D02*
X128514285Y-62478333D01*
X128514285Y-62478333D02*
X128466666Y-62573571D01*
X128466666Y-62573571D02*
X128419047Y-62621190D01*
X128419047Y-62621190D02*
X128323809Y-62668809D01*
X128323809Y-62668809D02*
X127990476Y-62668809D01*
X129514285Y-63192619D02*
X128942857Y-63192619D01*
X129228571Y-63192619D02*
X129228571Y-62192619D01*
X129228571Y-62192619D02*
X129133333Y-62335476D01*
X129133333Y-62335476D02*
X129038095Y-62430714D01*
X129038095Y-62430714D02*
X128942857Y-62478333D01*
D12*
%TO.C,L1*%
X124962526Y-76856666D02*
X124962526Y-77461428D01*
X124962526Y-77461428D02*
X123692526Y-77461428D01*
X124962526Y-75768094D02*
X124962526Y-76493809D01*
X124962526Y-76130952D02*
X123692526Y-76130952D01*
X123692526Y-76130952D02*
X123873954Y-76251904D01*
X123873954Y-76251904D02*
X123994907Y-76372856D01*
X123994907Y-76372856D02*
X124055383Y-76493809D01*
D11*
%TO.C,C17*%
X159469642Y-77917380D02*
X159422023Y-77965000D01*
X159422023Y-77965000D02*
X159279166Y-78012619D01*
X159279166Y-78012619D02*
X159183928Y-78012619D01*
X159183928Y-78012619D02*
X159041071Y-77965000D01*
X159041071Y-77965000D02*
X158945833Y-77869761D01*
X158945833Y-77869761D02*
X158898214Y-77774523D01*
X158898214Y-77774523D02*
X158850595Y-77584047D01*
X158850595Y-77584047D02*
X158850595Y-77441190D01*
X158850595Y-77441190D02*
X158898214Y-77250714D01*
X158898214Y-77250714D02*
X158945833Y-77155476D01*
X158945833Y-77155476D02*
X159041071Y-77060238D01*
X159041071Y-77060238D02*
X159183928Y-77012619D01*
X159183928Y-77012619D02*
X159279166Y-77012619D01*
X159279166Y-77012619D02*
X159422023Y-77060238D01*
X159422023Y-77060238D02*
X159469642Y-77107857D01*
X160422023Y-78012619D02*
X159850595Y-78012619D01*
X160136309Y-78012619D02*
X160136309Y-77012619D01*
X160136309Y-77012619D02*
X160041071Y-77155476D01*
X160041071Y-77155476D02*
X159945833Y-77250714D01*
X159945833Y-77250714D02*
X159850595Y-77298333D01*
X160755357Y-77012619D02*
X161422023Y-77012619D01*
X161422023Y-77012619D02*
X160993452Y-78012619D01*
%TO.C,C18*%
X159469642Y-74927380D02*
X159422023Y-74975000D01*
X159422023Y-74975000D02*
X159279166Y-75022619D01*
X159279166Y-75022619D02*
X159183928Y-75022619D01*
X159183928Y-75022619D02*
X159041071Y-74975000D01*
X159041071Y-74975000D02*
X158945833Y-74879761D01*
X158945833Y-74879761D02*
X158898214Y-74784523D01*
X158898214Y-74784523D02*
X158850595Y-74594047D01*
X158850595Y-74594047D02*
X158850595Y-74451190D01*
X158850595Y-74451190D02*
X158898214Y-74260714D01*
X158898214Y-74260714D02*
X158945833Y-74165476D01*
X158945833Y-74165476D02*
X159041071Y-74070238D01*
X159041071Y-74070238D02*
X159183928Y-74022619D01*
X159183928Y-74022619D02*
X159279166Y-74022619D01*
X159279166Y-74022619D02*
X159422023Y-74070238D01*
X159422023Y-74070238D02*
X159469642Y-74117857D01*
X160422023Y-75022619D02*
X159850595Y-75022619D01*
X160136309Y-75022619D02*
X160136309Y-74022619D01*
X160136309Y-74022619D02*
X160041071Y-74165476D01*
X160041071Y-74165476D02*
X159945833Y-74260714D01*
X159945833Y-74260714D02*
X159850595Y-74308333D01*
X160993452Y-74451190D02*
X160898214Y-74403571D01*
X160898214Y-74403571D02*
X160850595Y-74355952D01*
X160850595Y-74355952D02*
X160802976Y-74260714D01*
X160802976Y-74260714D02*
X160802976Y-74213095D01*
X160802976Y-74213095D02*
X160850595Y-74117857D01*
X160850595Y-74117857D02*
X160898214Y-74070238D01*
X160898214Y-74070238D02*
X160993452Y-74022619D01*
X160993452Y-74022619D02*
X161183928Y-74022619D01*
X161183928Y-74022619D02*
X161279166Y-74070238D01*
X161279166Y-74070238D02*
X161326785Y-74117857D01*
X161326785Y-74117857D02*
X161374404Y-74213095D01*
X161374404Y-74213095D02*
X161374404Y-74260714D01*
X161374404Y-74260714D02*
X161326785Y-74355952D01*
X161326785Y-74355952D02*
X161279166Y-74403571D01*
X161279166Y-74403571D02*
X161183928Y-74451190D01*
X161183928Y-74451190D02*
X160993452Y-74451190D01*
X160993452Y-74451190D02*
X160898214Y-74498809D01*
X160898214Y-74498809D02*
X160850595Y-74546428D01*
X160850595Y-74546428D02*
X160802976Y-74641666D01*
X160802976Y-74641666D02*
X160802976Y-74832142D01*
X160802976Y-74832142D02*
X160850595Y-74927380D01*
X160850595Y-74927380D02*
X160898214Y-74975000D01*
X160898214Y-74975000D02*
X160993452Y-75022619D01*
X160993452Y-75022619D02*
X161183928Y-75022619D01*
X161183928Y-75022619D02*
X161279166Y-74975000D01*
X161279166Y-74975000D02*
X161326785Y-74927380D01*
X161326785Y-74927380D02*
X161374404Y-74832142D01*
X161374404Y-74832142D02*
X161374404Y-74641666D01*
X161374404Y-74641666D02*
X161326785Y-74546428D01*
X161326785Y-74546428D02*
X161279166Y-74498809D01*
X161279166Y-74498809D02*
X161183928Y-74451190D01*
%TO.C,C23*%
X159469642Y-71567380D02*
X159422023Y-71615000D01*
X159422023Y-71615000D02*
X159279166Y-71662619D01*
X159279166Y-71662619D02*
X159183928Y-71662619D01*
X159183928Y-71662619D02*
X159041071Y-71615000D01*
X159041071Y-71615000D02*
X158945833Y-71519761D01*
X158945833Y-71519761D02*
X158898214Y-71424523D01*
X158898214Y-71424523D02*
X158850595Y-71234047D01*
X158850595Y-71234047D02*
X158850595Y-71091190D01*
X158850595Y-71091190D02*
X158898214Y-70900714D01*
X158898214Y-70900714D02*
X158945833Y-70805476D01*
X158945833Y-70805476D02*
X159041071Y-70710238D01*
X159041071Y-70710238D02*
X159183928Y-70662619D01*
X159183928Y-70662619D02*
X159279166Y-70662619D01*
X159279166Y-70662619D02*
X159422023Y-70710238D01*
X159422023Y-70710238D02*
X159469642Y-70757857D01*
X159850595Y-70757857D02*
X159898214Y-70710238D01*
X159898214Y-70710238D02*
X159993452Y-70662619D01*
X159993452Y-70662619D02*
X160231547Y-70662619D01*
X160231547Y-70662619D02*
X160326785Y-70710238D01*
X160326785Y-70710238D02*
X160374404Y-70757857D01*
X160374404Y-70757857D02*
X160422023Y-70853095D01*
X160422023Y-70853095D02*
X160422023Y-70948333D01*
X160422023Y-70948333D02*
X160374404Y-71091190D01*
X160374404Y-71091190D02*
X159802976Y-71662619D01*
X159802976Y-71662619D02*
X160422023Y-71662619D01*
X160755357Y-70662619D02*
X161374404Y-70662619D01*
X161374404Y-70662619D02*
X161041071Y-71043571D01*
X161041071Y-71043571D02*
X161183928Y-71043571D01*
X161183928Y-71043571D02*
X161279166Y-71091190D01*
X161279166Y-71091190D02*
X161326785Y-71138809D01*
X161326785Y-71138809D02*
X161374404Y-71234047D01*
X161374404Y-71234047D02*
X161374404Y-71472142D01*
X161374404Y-71472142D02*
X161326785Y-71567380D01*
X161326785Y-71567380D02*
X161279166Y-71615000D01*
X161279166Y-71615000D02*
X161183928Y-71662619D01*
X161183928Y-71662619D02*
X160898214Y-71662619D01*
X160898214Y-71662619D02*
X160802976Y-71615000D01*
X160802976Y-71615000D02*
X160755357Y-71567380D01*
%TO.C,H1*%
X119023095Y-53577619D02*
X119023095Y-52577619D01*
X119023095Y-53053809D02*
X119594523Y-53053809D01*
X119594523Y-53577619D02*
X119594523Y-52577619D01*
X120594523Y-53577619D02*
X120023095Y-53577619D01*
X120308809Y-53577619D02*
X120308809Y-52577619D01*
X120308809Y-52577619D02*
X120213571Y-52720476D01*
X120213571Y-52720476D02*
X120118333Y-52815714D01*
X120118333Y-52815714D02*
X120023095Y-52863333D01*
%TO.C,D3*%
X137861905Y-65025119D02*
X137861905Y-64025119D01*
X137861905Y-64025119D02*
X138100000Y-64025119D01*
X138100000Y-64025119D02*
X138242857Y-64072738D01*
X138242857Y-64072738D02*
X138338095Y-64167976D01*
X138338095Y-64167976D02*
X138385714Y-64263214D01*
X138385714Y-64263214D02*
X138433333Y-64453690D01*
X138433333Y-64453690D02*
X138433333Y-64596547D01*
X138433333Y-64596547D02*
X138385714Y-64787023D01*
X138385714Y-64787023D02*
X138338095Y-64882261D01*
X138338095Y-64882261D02*
X138242857Y-64977500D01*
X138242857Y-64977500D02*
X138100000Y-65025119D01*
X138100000Y-65025119D02*
X137861905Y-65025119D01*
X138766667Y-64025119D02*
X139385714Y-64025119D01*
X139385714Y-64025119D02*
X139052381Y-64406071D01*
X139052381Y-64406071D02*
X139195238Y-64406071D01*
X139195238Y-64406071D02*
X139290476Y-64453690D01*
X139290476Y-64453690D02*
X139338095Y-64501309D01*
X139338095Y-64501309D02*
X139385714Y-64596547D01*
X139385714Y-64596547D02*
X139385714Y-64834642D01*
X139385714Y-64834642D02*
X139338095Y-64929880D01*
X139338095Y-64929880D02*
X139290476Y-64977500D01*
X139290476Y-64977500D02*
X139195238Y-65025119D01*
X139195238Y-65025119D02*
X138909524Y-65025119D01*
X138909524Y-65025119D02*
X138814286Y-64977500D01*
X138814286Y-64977500D02*
X138766667Y-64929880D01*
D12*
%TO.C,IC3*%
X112365237Y-67232526D02*
X112365237Y-65962526D01*
X113695714Y-67111573D02*
X113635238Y-67172050D01*
X113635238Y-67172050D02*
X113453809Y-67232526D01*
X113453809Y-67232526D02*
X113332857Y-67232526D01*
X113332857Y-67232526D02*
X113151428Y-67172050D01*
X113151428Y-67172050D02*
X113030476Y-67051097D01*
X113030476Y-67051097D02*
X112969999Y-66930145D01*
X112969999Y-66930145D02*
X112909523Y-66688240D01*
X112909523Y-66688240D02*
X112909523Y-66506811D01*
X112909523Y-66506811D02*
X112969999Y-66264907D01*
X112969999Y-66264907D02*
X113030476Y-66143954D01*
X113030476Y-66143954D02*
X113151428Y-66023002D01*
X113151428Y-66023002D02*
X113332857Y-65962526D01*
X113332857Y-65962526D02*
X113453809Y-65962526D01*
X113453809Y-65962526D02*
X113635238Y-66023002D01*
X113635238Y-66023002D02*
X113695714Y-66083478D01*
X114119047Y-65962526D02*
X114905238Y-65962526D01*
X114905238Y-65962526D02*
X114481904Y-66446335D01*
X114481904Y-66446335D02*
X114663333Y-66446335D01*
X114663333Y-66446335D02*
X114784285Y-66506811D01*
X114784285Y-66506811D02*
X114844761Y-66567288D01*
X114844761Y-66567288D02*
X114905238Y-66688240D01*
X114905238Y-66688240D02*
X114905238Y-66990621D01*
X114905238Y-66990621D02*
X114844761Y-67111573D01*
X114844761Y-67111573D02*
X114784285Y-67172050D01*
X114784285Y-67172050D02*
X114663333Y-67232526D01*
X114663333Y-67232526D02*
X114300476Y-67232526D01*
X114300476Y-67232526D02*
X114179523Y-67172050D01*
X114179523Y-67172050D02*
X114119047Y-67111573D01*
D11*
%TO.C,C4*%
X115498333Y-77572380D02*
X115450714Y-77620000D01*
X115450714Y-77620000D02*
X115307857Y-77667619D01*
X115307857Y-77667619D02*
X115212619Y-77667619D01*
X115212619Y-77667619D02*
X115069762Y-77620000D01*
X115069762Y-77620000D02*
X114974524Y-77524761D01*
X114974524Y-77524761D02*
X114926905Y-77429523D01*
X114926905Y-77429523D02*
X114879286Y-77239047D01*
X114879286Y-77239047D02*
X114879286Y-77096190D01*
X114879286Y-77096190D02*
X114926905Y-76905714D01*
X114926905Y-76905714D02*
X114974524Y-76810476D01*
X114974524Y-76810476D02*
X115069762Y-76715238D01*
X115069762Y-76715238D02*
X115212619Y-76667619D01*
X115212619Y-76667619D02*
X115307857Y-76667619D01*
X115307857Y-76667619D02*
X115450714Y-76715238D01*
X115450714Y-76715238D02*
X115498333Y-76762857D01*
X116355476Y-77000952D02*
X116355476Y-77667619D01*
X116117381Y-76620000D02*
X115879286Y-77334285D01*
X115879286Y-77334285D02*
X116498333Y-77334285D01*
%TO.C,H6*%
X158588095Y-88172619D02*
X158588095Y-87172619D01*
X158588095Y-87648809D02*
X159159523Y-87648809D01*
X159159523Y-88172619D02*
X159159523Y-87172619D01*
X160064285Y-87172619D02*
X159873809Y-87172619D01*
X159873809Y-87172619D02*
X159778571Y-87220238D01*
X159778571Y-87220238D02*
X159730952Y-87267857D01*
X159730952Y-87267857D02*
X159635714Y-87410714D01*
X159635714Y-87410714D02*
X159588095Y-87601190D01*
X159588095Y-87601190D02*
X159588095Y-87982142D01*
X159588095Y-87982142D02*
X159635714Y-88077380D01*
X159635714Y-88077380D02*
X159683333Y-88125000D01*
X159683333Y-88125000D02*
X159778571Y-88172619D01*
X159778571Y-88172619D02*
X159969047Y-88172619D01*
X159969047Y-88172619D02*
X160064285Y-88125000D01*
X160064285Y-88125000D02*
X160111904Y-88077380D01*
X160111904Y-88077380D02*
X160159523Y-87982142D01*
X160159523Y-87982142D02*
X160159523Y-87744047D01*
X160159523Y-87744047D02*
X160111904Y-87648809D01*
X160111904Y-87648809D02*
X160064285Y-87601190D01*
X160064285Y-87601190D02*
X159969047Y-87553571D01*
X159969047Y-87553571D02*
X159778571Y-87553571D01*
X159778571Y-87553571D02*
X159683333Y-87601190D01*
X159683333Y-87601190D02*
X159635714Y-87648809D01*
X159635714Y-87648809D02*
X159588095Y-87744047D01*
%TO.C,C2*%
X122618333Y-84432380D02*
X122570714Y-84480000D01*
X122570714Y-84480000D02*
X122427857Y-84527619D01*
X122427857Y-84527619D02*
X122332619Y-84527619D01*
X122332619Y-84527619D02*
X122189762Y-84480000D01*
X122189762Y-84480000D02*
X122094524Y-84384761D01*
X122094524Y-84384761D02*
X122046905Y-84289523D01*
X122046905Y-84289523D02*
X121999286Y-84099047D01*
X121999286Y-84099047D02*
X121999286Y-83956190D01*
X121999286Y-83956190D02*
X122046905Y-83765714D01*
X122046905Y-83765714D02*
X122094524Y-83670476D01*
X122094524Y-83670476D02*
X122189762Y-83575238D01*
X122189762Y-83575238D02*
X122332619Y-83527619D01*
X122332619Y-83527619D02*
X122427857Y-83527619D01*
X122427857Y-83527619D02*
X122570714Y-83575238D01*
X122570714Y-83575238D02*
X122618333Y-83622857D01*
X122999286Y-83622857D02*
X123046905Y-83575238D01*
X123046905Y-83575238D02*
X123142143Y-83527619D01*
X123142143Y-83527619D02*
X123380238Y-83527619D01*
X123380238Y-83527619D02*
X123475476Y-83575238D01*
X123475476Y-83575238D02*
X123523095Y-83622857D01*
X123523095Y-83622857D02*
X123570714Y-83718095D01*
X123570714Y-83718095D02*
X123570714Y-83813333D01*
X123570714Y-83813333D02*
X123523095Y-83956190D01*
X123523095Y-83956190D02*
X122951667Y-84527619D01*
X122951667Y-84527619D02*
X123570714Y-84527619D01*
%TO.C,J4*%
X165026666Y-55962619D02*
X165026666Y-56676904D01*
X165026666Y-56676904D02*
X164979047Y-56819761D01*
X164979047Y-56819761D02*
X164883809Y-56915000D01*
X164883809Y-56915000D02*
X164740952Y-56962619D01*
X164740952Y-56962619D02*
X164645714Y-56962619D01*
X165931428Y-56295952D02*
X165931428Y-56962619D01*
X165693333Y-55915000D02*
X165455238Y-56629285D01*
X165455238Y-56629285D02*
X166074285Y-56629285D01*
%TO.C,C15*%
X136162142Y-85982380D02*
X136114523Y-86030000D01*
X136114523Y-86030000D02*
X135971666Y-86077619D01*
X135971666Y-86077619D02*
X135876428Y-86077619D01*
X135876428Y-86077619D02*
X135733571Y-86030000D01*
X135733571Y-86030000D02*
X135638333Y-85934761D01*
X135638333Y-85934761D02*
X135590714Y-85839523D01*
X135590714Y-85839523D02*
X135543095Y-85649047D01*
X135543095Y-85649047D02*
X135543095Y-85506190D01*
X135543095Y-85506190D02*
X135590714Y-85315714D01*
X135590714Y-85315714D02*
X135638333Y-85220476D01*
X135638333Y-85220476D02*
X135733571Y-85125238D01*
X135733571Y-85125238D02*
X135876428Y-85077619D01*
X135876428Y-85077619D02*
X135971666Y-85077619D01*
X135971666Y-85077619D02*
X136114523Y-85125238D01*
X136114523Y-85125238D02*
X136162142Y-85172857D01*
X137114523Y-86077619D02*
X136543095Y-86077619D01*
X136828809Y-86077619D02*
X136828809Y-85077619D01*
X136828809Y-85077619D02*
X136733571Y-85220476D01*
X136733571Y-85220476D02*
X136638333Y-85315714D01*
X136638333Y-85315714D02*
X136543095Y-85363333D01*
X138019285Y-85077619D02*
X137543095Y-85077619D01*
X137543095Y-85077619D02*
X137495476Y-85553809D01*
X137495476Y-85553809D02*
X137543095Y-85506190D01*
X137543095Y-85506190D02*
X137638333Y-85458571D01*
X137638333Y-85458571D02*
X137876428Y-85458571D01*
X137876428Y-85458571D02*
X137971666Y-85506190D01*
X137971666Y-85506190D02*
X138019285Y-85553809D01*
X138019285Y-85553809D02*
X138066904Y-85649047D01*
X138066904Y-85649047D02*
X138066904Y-85887142D01*
X138066904Y-85887142D02*
X138019285Y-85982380D01*
X138019285Y-85982380D02*
X137971666Y-86030000D01*
X137971666Y-86030000D02*
X137876428Y-86077619D01*
X137876428Y-86077619D02*
X137638333Y-86077619D01*
X137638333Y-86077619D02*
X137543095Y-86030000D01*
X137543095Y-86030000D02*
X137495476Y-85982380D01*
%TO.C,D1*%
X140561905Y-58352619D02*
X140561905Y-57352619D01*
X140561905Y-57352619D02*
X140800000Y-57352619D01*
X140800000Y-57352619D02*
X140942857Y-57400238D01*
X140942857Y-57400238D02*
X141038095Y-57495476D01*
X141038095Y-57495476D02*
X141085714Y-57590714D01*
X141085714Y-57590714D02*
X141133333Y-57781190D01*
X141133333Y-57781190D02*
X141133333Y-57924047D01*
X141133333Y-57924047D02*
X141085714Y-58114523D01*
X141085714Y-58114523D02*
X141038095Y-58209761D01*
X141038095Y-58209761D02*
X140942857Y-58305000D01*
X140942857Y-58305000D02*
X140800000Y-58352619D01*
X140800000Y-58352619D02*
X140561905Y-58352619D01*
X142085714Y-58352619D02*
X141514286Y-58352619D01*
X141800000Y-58352619D02*
X141800000Y-57352619D01*
X141800000Y-57352619D02*
X141704762Y-57495476D01*
X141704762Y-57495476D02*
X141609524Y-57590714D01*
X141609524Y-57590714D02*
X141514286Y-57638333D01*
%TO.C,SW1*%
X131815000Y-96103332D02*
X131862619Y-95960475D01*
X131862619Y-95960475D02*
X131862619Y-95722380D01*
X131862619Y-95722380D02*
X131815000Y-95627142D01*
X131815000Y-95627142D02*
X131767380Y-95579523D01*
X131767380Y-95579523D02*
X131672142Y-95531904D01*
X131672142Y-95531904D02*
X131576904Y-95531904D01*
X131576904Y-95531904D02*
X131481666Y-95579523D01*
X131481666Y-95579523D02*
X131434047Y-95627142D01*
X131434047Y-95627142D02*
X131386428Y-95722380D01*
X131386428Y-95722380D02*
X131338809Y-95912856D01*
X131338809Y-95912856D02*
X131291190Y-96008094D01*
X131291190Y-96008094D02*
X131243571Y-96055713D01*
X131243571Y-96055713D02*
X131148333Y-96103332D01*
X131148333Y-96103332D02*
X131053095Y-96103332D01*
X131053095Y-96103332D02*
X130957857Y-96055713D01*
X130957857Y-96055713D02*
X130910238Y-96008094D01*
X130910238Y-96008094D02*
X130862619Y-95912856D01*
X130862619Y-95912856D02*
X130862619Y-95674761D01*
X130862619Y-95674761D02*
X130910238Y-95531904D01*
X130862619Y-95198570D02*
X131862619Y-94960475D01*
X131862619Y-94960475D02*
X131148333Y-94769999D01*
X131148333Y-94769999D02*
X131862619Y-94579523D01*
X131862619Y-94579523D02*
X130862619Y-94341428D01*
X131862619Y-93436666D02*
X131862619Y-94008094D01*
X131862619Y-93722380D02*
X130862619Y-93722380D01*
X130862619Y-93722380D02*
X131005476Y-93817618D01*
X131005476Y-93817618D02*
X131100714Y-93912856D01*
X131100714Y-93912856D02*
X131148333Y-94008094D01*
%TO.C,R7*%
X153493333Y-67032619D02*
X153160000Y-66556428D01*
X152921905Y-67032619D02*
X152921905Y-66032619D01*
X152921905Y-66032619D02*
X153302857Y-66032619D01*
X153302857Y-66032619D02*
X153398095Y-66080238D01*
X153398095Y-66080238D02*
X153445714Y-66127857D01*
X153445714Y-66127857D02*
X153493333Y-66223095D01*
X153493333Y-66223095D02*
X153493333Y-66365952D01*
X153493333Y-66365952D02*
X153445714Y-66461190D01*
X153445714Y-66461190D02*
X153398095Y-66508809D01*
X153398095Y-66508809D02*
X153302857Y-66556428D01*
X153302857Y-66556428D02*
X152921905Y-66556428D01*
X153826667Y-66032619D02*
X154493333Y-66032619D01*
X154493333Y-66032619D02*
X154064762Y-67032619D01*
%TO.C,C14*%
X132262142Y-76402380D02*
X132214523Y-76450000D01*
X132214523Y-76450000D02*
X132071666Y-76497619D01*
X132071666Y-76497619D02*
X131976428Y-76497619D01*
X131976428Y-76497619D02*
X131833571Y-76450000D01*
X131833571Y-76450000D02*
X131738333Y-76354761D01*
X131738333Y-76354761D02*
X131690714Y-76259523D01*
X131690714Y-76259523D02*
X131643095Y-76069047D01*
X131643095Y-76069047D02*
X131643095Y-75926190D01*
X131643095Y-75926190D02*
X131690714Y-75735714D01*
X131690714Y-75735714D02*
X131738333Y-75640476D01*
X131738333Y-75640476D02*
X131833571Y-75545238D01*
X131833571Y-75545238D02*
X131976428Y-75497619D01*
X131976428Y-75497619D02*
X132071666Y-75497619D01*
X132071666Y-75497619D02*
X132214523Y-75545238D01*
X132214523Y-75545238D02*
X132262142Y-75592857D01*
X133214523Y-76497619D02*
X132643095Y-76497619D01*
X132928809Y-76497619D02*
X132928809Y-75497619D01*
X132928809Y-75497619D02*
X132833571Y-75640476D01*
X132833571Y-75640476D02*
X132738333Y-75735714D01*
X132738333Y-75735714D02*
X132643095Y-75783333D01*
X134071666Y-75830952D02*
X134071666Y-76497619D01*
X133833571Y-75450000D02*
X133595476Y-76164285D01*
X133595476Y-76164285D02*
X134214523Y-76164285D01*
%TO.C,R6*%
X134673333Y-82212619D02*
X134340000Y-81736428D01*
X134101905Y-82212619D02*
X134101905Y-81212619D01*
X134101905Y-81212619D02*
X134482857Y-81212619D01*
X134482857Y-81212619D02*
X134578095Y-81260238D01*
X134578095Y-81260238D02*
X134625714Y-81307857D01*
X134625714Y-81307857D02*
X134673333Y-81403095D01*
X134673333Y-81403095D02*
X134673333Y-81545952D01*
X134673333Y-81545952D02*
X134625714Y-81641190D01*
X134625714Y-81641190D02*
X134578095Y-81688809D01*
X134578095Y-81688809D02*
X134482857Y-81736428D01*
X134482857Y-81736428D02*
X134101905Y-81736428D01*
X135530476Y-81212619D02*
X135340000Y-81212619D01*
X135340000Y-81212619D02*
X135244762Y-81260238D01*
X135244762Y-81260238D02*
X135197143Y-81307857D01*
X135197143Y-81307857D02*
X135101905Y-81450714D01*
X135101905Y-81450714D02*
X135054286Y-81641190D01*
X135054286Y-81641190D02*
X135054286Y-82022142D01*
X135054286Y-82022142D02*
X135101905Y-82117380D01*
X135101905Y-82117380D02*
X135149524Y-82165000D01*
X135149524Y-82165000D02*
X135244762Y-82212619D01*
X135244762Y-82212619D02*
X135435238Y-82212619D01*
X135435238Y-82212619D02*
X135530476Y-82165000D01*
X135530476Y-82165000D02*
X135578095Y-82117380D01*
X135578095Y-82117380D02*
X135625714Y-82022142D01*
X135625714Y-82022142D02*
X135625714Y-81784047D01*
X135625714Y-81784047D02*
X135578095Y-81688809D01*
X135578095Y-81688809D02*
X135530476Y-81641190D01*
X135530476Y-81641190D02*
X135435238Y-81593571D01*
X135435238Y-81593571D02*
X135244762Y-81593571D01*
X135244762Y-81593571D02*
X135149524Y-81641190D01*
X135149524Y-81641190D02*
X135101905Y-81688809D01*
X135101905Y-81688809D02*
X135054286Y-81784047D01*
%TO.C,C8*%
X122688333Y-71312380D02*
X122640714Y-71360000D01*
X122640714Y-71360000D02*
X122497857Y-71407619D01*
X122497857Y-71407619D02*
X122402619Y-71407619D01*
X122402619Y-71407619D02*
X122259762Y-71360000D01*
X122259762Y-71360000D02*
X122164524Y-71264761D01*
X122164524Y-71264761D02*
X122116905Y-71169523D01*
X122116905Y-71169523D02*
X122069286Y-70979047D01*
X122069286Y-70979047D02*
X122069286Y-70836190D01*
X122069286Y-70836190D02*
X122116905Y-70645714D01*
X122116905Y-70645714D02*
X122164524Y-70550476D01*
X122164524Y-70550476D02*
X122259762Y-70455238D01*
X122259762Y-70455238D02*
X122402619Y-70407619D01*
X122402619Y-70407619D02*
X122497857Y-70407619D01*
X122497857Y-70407619D02*
X122640714Y-70455238D01*
X122640714Y-70455238D02*
X122688333Y-70502857D01*
X123259762Y-70836190D02*
X123164524Y-70788571D01*
X123164524Y-70788571D02*
X123116905Y-70740952D01*
X123116905Y-70740952D02*
X123069286Y-70645714D01*
X123069286Y-70645714D02*
X123069286Y-70598095D01*
X123069286Y-70598095D02*
X123116905Y-70502857D01*
X123116905Y-70502857D02*
X123164524Y-70455238D01*
X123164524Y-70455238D02*
X123259762Y-70407619D01*
X123259762Y-70407619D02*
X123450238Y-70407619D01*
X123450238Y-70407619D02*
X123545476Y-70455238D01*
X123545476Y-70455238D02*
X123593095Y-70502857D01*
X123593095Y-70502857D02*
X123640714Y-70598095D01*
X123640714Y-70598095D02*
X123640714Y-70645714D01*
X123640714Y-70645714D02*
X123593095Y-70740952D01*
X123593095Y-70740952D02*
X123545476Y-70788571D01*
X123545476Y-70788571D02*
X123450238Y-70836190D01*
X123450238Y-70836190D02*
X123259762Y-70836190D01*
X123259762Y-70836190D02*
X123164524Y-70883809D01*
X123164524Y-70883809D02*
X123116905Y-70931428D01*
X123116905Y-70931428D02*
X123069286Y-71026666D01*
X123069286Y-71026666D02*
X123069286Y-71217142D01*
X123069286Y-71217142D02*
X123116905Y-71312380D01*
X123116905Y-71312380D02*
X123164524Y-71360000D01*
X123164524Y-71360000D02*
X123259762Y-71407619D01*
X123259762Y-71407619D02*
X123450238Y-71407619D01*
X123450238Y-71407619D02*
X123545476Y-71360000D01*
X123545476Y-71360000D02*
X123593095Y-71312380D01*
X123593095Y-71312380D02*
X123640714Y-71217142D01*
X123640714Y-71217142D02*
X123640714Y-71026666D01*
X123640714Y-71026666D02*
X123593095Y-70931428D01*
X123593095Y-70931428D02*
X123545476Y-70883809D01*
X123545476Y-70883809D02*
X123450238Y-70836190D01*
%TO.C,H5*%
X164118095Y-88242619D02*
X164118095Y-87242619D01*
X164118095Y-87718809D02*
X164689523Y-87718809D01*
X164689523Y-88242619D02*
X164689523Y-87242619D01*
X165641904Y-87242619D02*
X165165714Y-87242619D01*
X165165714Y-87242619D02*
X165118095Y-87718809D01*
X165118095Y-87718809D02*
X165165714Y-87671190D01*
X165165714Y-87671190D02*
X165260952Y-87623571D01*
X165260952Y-87623571D02*
X165499047Y-87623571D01*
X165499047Y-87623571D02*
X165594285Y-87671190D01*
X165594285Y-87671190D02*
X165641904Y-87718809D01*
X165641904Y-87718809D02*
X165689523Y-87814047D01*
X165689523Y-87814047D02*
X165689523Y-88052142D01*
X165689523Y-88052142D02*
X165641904Y-88147380D01*
X165641904Y-88147380D02*
X165594285Y-88195000D01*
X165594285Y-88195000D02*
X165499047Y-88242619D01*
X165499047Y-88242619D02*
X165260952Y-88242619D01*
X165260952Y-88242619D02*
X165165714Y-88195000D01*
X165165714Y-88195000D02*
X165118095Y-88147380D01*
D12*
%TO.C,IC2*%
X115357526Y-85046762D02*
X114087526Y-85046762D01*
X115236573Y-83716285D02*
X115297050Y-83776761D01*
X115297050Y-83776761D02*
X115357526Y-83958190D01*
X115357526Y-83958190D02*
X115357526Y-84079142D01*
X115357526Y-84079142D02*
X115297050Y-84260571D01*
X115297050Y-84260571D02*
X115176097Y-84381523D01*
X115176097Y-84381523D02*
X115055145Y-84442000D01*
X115055145Y-84442000D02*
X114813240Y-84502476D01*
X114813240Y-84502476D02*
X114631811Y-84502476D01*
X114631811Y-84502476D02*
X114389907Y-84442000D01*
X114389907Y-84442000D02*
X114268954Y-84381523D01*
X114268954Y-84381523D02*
X114148002Y-84260571D01*
X114148002Y-84260571D02*
X114087526Y-84079142D01*
X114087526Y-84079142D02*
X114087526Y-83958190D01*
X114087526Y-83958190D02*
X114148002Y-83776761D01*
X114148002Y-83776761D02*
X114208478Y-83716285D01*
X114208478Y-83232476D02*
X114148002Y-83172000D01*
X114148002Y-83172000D02*
X114087526Y-83051047D01*
X114087526Y-83051047D02*
X114087526Y-82748666D01*
X114087526Y-82748666D02*
X114148002Y-82627714D01*
X114148002Y-82627714D02*
X114208478Y-82567238D01*
X114208478Y-82567238D02*
X114329430Y-82506761D01*
X114329430Y-82506761D02*
X114450383Y-82506761D01*
X114450383Y-82506761D02*
X114631811Y-82567238D01*
X114631811Y-82567238D02*
X115357526Y-83292952D01*
X115357526Y-83292952D02*
X115357526Y-82506761D01*
D11*
%TO.C,C22*%
X147904642Y-64432380D02*
X147857023Y-64480000D01*
X147857023Y-64480000D02*
X147714166Y-64527619D01*
X147714166Y-64527619D02*
X147618928Y-64527619D01*
X147618928Y-64527619D02*
X147476071Y-64480000D01*
X147476071Y-64480000D02*
X147380833Y-64384761D01*
X147380833Y-64384761D02*
X147333214Y-64289523D01*
X147333214Y-64289523D02*
X147285595Y-64099047D01*
X147285595Y-64099047D02*
X147285595Y-63956190D01*
X147285595Y-63956190D02*
X147333214Y-63765714D01*
X147333214Y-63765714D02*
X147380833Y-63670476D01*
X147380833Y-63670476D02*
X147476071Y-63575238D01*
X147476071Y-63575238D02*
X147618928Y-63527619D01*
X147618928Y-63527619D02*
X147714166Y-63527619D01*
X147714166Y-63527619D02*
X147857023Y-63575238D01*
X147857023Y-63575238D02*
X147904642Y-63622857D01*
X148285595Y-63622857D02*
X148333214Y-63575238D01*
X148333214Y-63575238D02*
X148428452Y-63527619D01*
X148428452Y-63527619D02*
X148666547Y-63527619D01*
X148666547Y-63527619D02*
X148761785Y-63575238D01*
X148761785Y-63575238D02*
X148809404Y-63622857D01*
X148809404Y-63622857D02*
X148857023Y-63718095D01*
X148857023Y-63718095D02*
X148857023Y-63813333D01*
X148857023Y-63813333D02*
X148809404Y-63956190D01*
X148809404Y-63956190D02*
X148237976Y-64527619D01*
X148237976Y-64527619D02*
X148857023Y-64527619D01*
X149237976Y-63622857D02*
X149285595Y-63575238D01*
X149285595Y-63575238D02*
X149380833Y-63527619D01*
X149380833Y-63527619D02*
X149618928Y-63527619D01*
X149618928Y-63527619D02*
X149714166Y-63575238D01*
X149714166Y-63575238D02*
X149761785Y-63622857D01*
X149761785Y-63622857D02*
X149809404Y-63718095D01*
X149809404Y-63718095D02*
X149809404Y-63813333D01*
X149809404Y-63813333D02*
X149761785Y-63956190D01*
X149761785Y-63956190D02*
X149190357Y-64527619D01*
X149190357Y-64527619D02*
X149809404Y-64527619D01*
%TO.C,J1*%
X157541666Y-59777619D02*
X157541666Y-60491904D01*
X157541666Y-60491904D02*
X157494047Y-60634761D01*
X157494047Y-60634761D02*
X157398809Y-60730000D01*
X157398809Y-60730000D02*
X157255952Y-60777619D01*
X157255952Y-60777619D02*
X157160714Y-60777619D01*
X158541666Y-60777619D02*
X157970238Y-60777619D01*
X158255952Y-60777619D02*
X158255952Y-59777619D01*
X158255952Y-59777619D02*
X158160714Y-59920476D01*
X158160714Y-59920476D02*
X158065476Y-60015714D01*
X158065476Y-60015714D02*
X157970238Y-60063333D01*
%TO.C,C9*%
X148573333Y-84307380D02*
X148525714Y-84355000D01*
X148525714Y-84355000D02*
X148382857Y-84402619D01*
X148382857Y-84402619D02*
X148287619Y-84402619D01*
X148287619Y-84402619D02*
X148144762Y-84355000D01*
X148144762Y-84355000D02*
X148049524Y-84259761D01*
X148049524Y-84259761D02*
X148001905Y-84164523D01*
X148001905Y-84164523D02*
X147954286Y-83974047D01*
X147954286Y-83974047D02*
X147954286Y-83831190D01*
X147954286Y-83831190D02*
X148001905Y-83640714D01*
X148001905Y-83640714D02*
X148049524Y-83545476D01*
X148049524Y-83545476D02*
X148144762Y-83450238D01*
X148144762Y-83450238D02*
X148287619Y-83402619D01*
X148287619Y-83402619D02*
X148382857Y-83402619D01*
X148382857Y-83402619D02*
X148525714Y-83450238D01*
X148525714Y-83450238D02*
X148573333Y-83497857D01*
X149049524Y-84402619D02*
X149240000Y-84402619D01*
X149240000Y-84402619D02*
X149335238Y-84355000D01*
X149335238Y-84355000D02*
X149382857Y-84307380D01*
X149382857Y-84307380D02*
X149478095Y-84164523D01*
X149478095Y-84164523D02*
X149525714Y-83974047D01*
X149525714Y-83974047D02*
X149525714Y-83593095D01*
X149525714Y-83593095D02*
X149478095Y-83497857D01*
X149478095Y-83497857D02*
X149430476Y-83450238D01*
X149430476Y-83450238D02*
X149335238Y-83402619D01*
X149335238Y-83402619D02*
X149144762Y-83402619D01*
X149144762Y-83402619D02*
X149049524Y-83450238D01*
X149049524Y-83450238D02*
X149001905Y-83497857D01*
X149001905Y-83497857D02*
X148954286Y-83593095D01*
X148954286Y-83593095D02*
X148954286Y-83831190D01*
X148954286Y-83831190D02*
X149001905Y-83926428D01*
X149001905Y-83926428D02*
X149049524Y-83974047D01*
X149049524Y-83974047D02*
X149144762Y-84021666D01*
X149144762Y-84021666D02*
X149335238Y-84021666D01*
X149335238Y-84021666D02*
X149430476Y-83974047D01*
X149430476Y-83974047D02*
X149478095Y-83926428D01*
X149478095Y-83926428D02*
X149525714Y-83831190D01*
%TO.C,R4*%
X123138333Y-56497619D02*
X122805000Y-56021428D01*
X122566905Y-56497619D02*
X122566905Y-55497619D01*
X122566905Y-55497619D02*
X122947857Y-55497619D01*
X122947857Y-55497619D02*
X123043095Y-55545238D01*
X123043095Y-55545238D02*
X123090714Y-55592857D01*
X123090714Y-55592857D02*
X123138333Y-55688095D01*
X123138333Y-55688095D02*
X123138333Y-55830952D01*
X123138333Y-55830952D02*
X123090714Y-55926190D01*
X123090714Y-55926190D02*
X123043095Y-55973809D01*
X123043095Y-55973809D02*
X122947857Y-56021428D01*
X122947857Y-56021428D02*
X122566905Y-56021428D01*
X123995476Y-55830952D02*
X123995476Y-56497619D01*
X123757381Y-55450000D02*
X123519286Y-56164285D01*
X123519286Y-56164285D02*
X124138333Y-56164285D01*
%TO.C,C19*%
X143402142Y-69642380D02*
X143354523Y-69690000D01*
X143354523Y-69690000D02*
X143211666Y-69737619D01*
X143211666Y-69737619D02*
X143116428Y-69737619D01*
X143116428Y-69737619D02*
X142973571Y-69690000D01*
X142973571Y-69690000D02*
X142878333Y-69594761D01*
X142878333Y-69594761D02*
X142830714Y-69499523D01*
X142830714Y-69499523D02*
X142783095Y-69309047D01*
X142783095Y-69309047D02*
X142783095Y-69166190D01*
X142783095Y-69166190D02*
X142830714Y-68975714D01*
X142830714Y-68975714D02*
X142878333Y-68880476D01*
X142878333Y-68880476D02*
X142973571Y-68785238D01*
X142973571Y-68785238D02*
X143116428Y-68737619D01*
X143116428Y-68737619D02*
X143211666Y-68737619D01*
X143211666Y-68737619D02*
X143354523Y-68785238D01*
X143354523Y-68785238D02*
X143402142Y-68832857D01*
X144354523Y-69737619D02*
X143783095Y-69737619D01*
X144068809Y-69737619D02*
X144068809Y-68737619D01*
X144068809Y-68737619D02*
X143973571Y-68880476D01*
X143973571Y-68880476D02*
X143878333Y-68975714D01*
X143878333Y-68975714D02*
X143783095Y-69023333D01*
X144830714Y-69737619D02*
X145021190Y-69737619D01*
X145021190Y-69737619D02*
X145116428Y-69690000D01*
X145116428Y-69690000D02*
X145164047Y-69642380D01*
X145164047Y-69642380D02*
X145259285Y-69499523D01*
X145259285Y-69499523D02*
X145306904Y-69309047D01*
X145306904Y-69309047D02*
X145306904Y-68928095D01*
X145306904Y-68928095D02*
X145259285Y-68832857D01*
X145259285Y-68832857D02*
X145211666Y-68785238D01*
X145211666Y-68785238D02*
X145116428Y-68737619D01*
X145116428Y-68737619D02*
X144925952Y-68737619D01*
X144925952Y-68737619D02*
X144830714Y-68785238D01*
X144830714Y-68785238D02*
X144783095Y-68832857D01*
X144783095Y-68832857D02*
X144735476Y-68928095D01*
X144735476Y-68928095D02*
X144735476Y-69166190D01*
X144735476Y-69166190D02*
X144783095Y-69261428D01*
X144783095Y-69261428D02*
X144830714Y-69309047D01*
X144830714Y-69309047D02*
X144925952Y-69356666D01*
X144925952Y-69356666D02*
X145116428Y-69356666D01*
X145116428Y-69356666D02*
X145211666Y-69309047D01*
X145211666Y-69309047D02*
X145259285Y-69261428D01*
X145259285Y-69261428D02*
X145306904Y-69166190D01*
D12*
%TO.C,IC1*%
X118205237Y-80162526D02*
X118205237Y-78892526D01*
X119535714Y-80041573D02*
X119475238Y-80102050D01*
X119475238Y-80102050D02*
X119293809Y-80162526D01*
X119293809Y-80162526D02*
X119172857Y-80162526D01*
X119172857Y-80162526D02*
X118991428Y-80102050D01*
X118991428Y-80102050D02*
X118870476Y-79981097D01*
X118870476Y-79981097D02*
X118809999Y-79860145D01*
X118809999Y-79860145D02*
X118749523Y-79618240D01*
X118749523Y-79618240D02*
X118749523Y-79436811D01*
X118749523Y-79436811D02*
X118809999Y-79194907D01*
X118809999Y-79194907D02*
X118870476Y-79073954D01*
X118870476Y-79073954D02*
X118991428Y-78953002D01*
X118991428Y-78953002D02*
X119172857Y-78892526D01*
X119172857Y-78892526D02*
X119293809Y-78892526D01*
X119293809Y-78892526D02*
X119475238Y-78953002D01*
X119475238Y-78953002D02*
X119535714Y-79013478D01*
X120745238Y-80162526D02*
X120019523Y-80162526D01*
X120382380Y-80162526D02*
X120382380Y-78892526D01*
X120382380Y-78892526D02*
X120261428Y-79073954D01*
X120261428Y-79073954D02*
X120140476Y-79194907D01*
X120140476Y-79194907D02*
X120019523Y-79255383D01*
D11*
%TO.C,D2*%
X135671905Y-58442619D02*
X135671905Y-57442619D01*
X135671905Y-57442619D02*
X135910000Y-57442619D01*
X135910000Y-57442619D02*
X136052857Y-57490238D01*
X136052857Y-57490238D02*
X136148095Y-57585476D01*
X136148095Y-57585476D02*
X136195714Y-57680714D01*
X136195714Y-57680714D02*
X136243333Y-57871190D01*
X136243333Y-57871190D02*
X136243333Y-58014047D01*
X136243333Y-58014047D02*
X136195714Y-58204523D01*
X136195714Y-58204523D02*
X136148095Y-58299761D01*
X136148095Y-58299761D02*
X136052857Y-58395000D01*
X136052857Y-58395000D02*
X135910000Y-58442619D01*
X135910000Y-58442619D02*
X135671905Y-58442619D01*
X136624286Y-57537857D02*
X136671905Y-57490238D01*
X136671905Y-57490238D02*
X136767143Y-57442619D01*
X136767143Y-57442619D02*
X137005238Y-57442619D01*
X137005238Y-57442619D02*
X137100476Y-57490238D01*
X137100476Y-57490238D02*
X137148095Y-57537857D01*
X137148095Y-57537857D02*
X137195714Y-57633095D01*
X137195714Y-57633095D02*
X137195714Y-57728333D01*
X137195714Y-57728333D02*
X137148095Y-57871190D01*
X137148095Y-57871190D02*
X136576667Y-58442619D01*
X136576667Y-58442619D02*
X137195714Y-58442619D01*
%TO.C,C1*%
X122568333Y-82262380D02*
X122520714Y-82310000D01*
X122520714Y-82310000D02*
X122377857Y-82357619D01*
X122377857Y-82357619D02*
X122282619Y-82357619D01*
X122282619Y-82357619D02*
X122139762Y-82310000D01*
X122139762Y-82310000D02*
X122044524Y-82214761D01*
X122044524Y-82214761D02*
X121996905Y-82119523D01*
X121996905Y-82119523D02*
X121949286Y-81929047D01*
X121949286Y-81929047D02*
X121949286Y-81786190D01*
X121949286Y-81786190D02*
X121996905Y-81595714D01*
X121996905Y-81595714D02*
X122044524Y-81500476D01*
X122044524Y-81500476D02*
X122139762Y-81405238D01*
X122139762Y-81405238D02*
X122282619Y-81357619D01*
X122282619Y-81357619D02*
X122377857Y-81357619D01*
X122377857Y-81357619D02*
X122520714Y-81405238D01*
X122520714Y-81405238D02*
X122568333Y-81452857D01*
X123520714Y-82357619D02*
X122949286Y-82357619D01*
X123235000Y-82357619D02*
X123235000Y-81357619D01*
X123235000Y-81357619D02*
X123139762Y-81500476D01*
X123139762Y-81500476D02*
X123044524Y-81595714D01*
X123044524Y-81595714D02*
X122949286Y-81643333D01*
%TO.C,D4*%
X125136905Y-56517619D02*
X125136905Y-55517619D01*
X125136905Y-55517619D02*
X125375000Y-55517619D01*
X125375000Y-55517619D02*
X125517857Y-55565238D01*
X125517857Y-55565238D02*
X125613095Y-55660476D01*
X125613095Y-55660476D02*
X125660714Y-55755714D01*
X125660714Y-55755714D02*
X125708333Y-55946190D01*
X125708333Y-55946190D02*
X125708333Y-56089047D01*
X125708333Y-56089047D02*
X125660714Y-56279523D01*
X125660714Y-56279523D02*
X125613095Y-56374761D01*
X125613095Y-56374761D02*
X125517857Y-56470000D01*
X125517857Y-56470000D02*
X125375000Y-56517619D01*
X125375000Y-56517619D02*
X125136905Y-56517619D01*
X126565476Y-55850952D02*
X126565476Y-56517619D01*
X126327381Y-55470000D02*
X126089286Y-56184285D01*
X126089286Y-56184285D02*
X126708333Y-56184285D01*
%TO.C,C24*%
X132477142Y-69087380D02*
X132429523Y-69135000D01*
X132429523Y-69135000D02*
X132286666Y-69182619D01*
X132286666Y-69182619D02*
X132191428Y-69182619D01*
X132191428Y-69182619D02*
X132048571Y-69135000D01*
X132048571Y-69135000D02*
X131953333Y-69039761D01*
X131953333Y-69039761D02*
X131905714Y-68944523D01*
X131905714Y-68944523D02*
X131858095Y-68754047D01*
X131858095Y-68754047D02*
X131858095Y-68611190D01*
X131858095Y-68611190D02*
X131905714Y-68420714D01*
X131905714Y-68420714D02*
X131953333Y-68325476D01*
X131953333Y-68325476D02*
X132048571Y-68230238D01*
X132048571Y-68230238D02*
X132191428Y-68182619D01*
X132191428Y-68182619D02*
X132286666Y-68182619D01*
X132286666Y-68182619D02*
X132429523Y-68230238D01*
X132429523Y-68230238D02*
X132477142Y-68277857D01*
X132858095Y-68277857D02*
X132905714Y-68230238D01*
X132905714Y-68230238D02*
X133000952Y-68182619D01*
X133000952Y-68182619D02*
X133239047Y-68182619D01*
X133239047Y-68182619D02*
X133334285Y-68230238D01*
X133334285Y-68230238D02*
X133381904Y-68277857D01*
X133381904Y-68277857D02*
X133429523Y-68373095D01*
X133429523Y-68373095D02*
X133429523Y-68468333D01*
X133429523Y-68468333D02*
X133381904Y-68611190D01*
X133381904Y-68611190D02*
X132810476Y-69182619D01*
X132810476Y-69182619D02*
X133429523Y-69182619D01*
X134286666Y-68515952D02*
X134286666Y-69182619D01*
X134048571Y-68135000D02*
X133810476Y-68849285D01*
X133810476Y-68849285D02*
X134429523Y-68849285D01*
%TO.C,C12*%
X142882142Y-75592380D02*
X142834523Y-75640000D01*
X142834523Y-75640000D02*
X142691666Y-75687619D01*
X142691666Y-75687619D02*
X142596428Y-75687619D01*
X142596428Y-75687619D02*
X142453571Y-75640000D01*
X142453571Y-75640000D02*
X142358333Y-75544761D01*
X142358333Y-75544761D02*
X142310714Y-75449523D01*
X142310714Y-75449523D02*
X142263095Y-75259047D01*
X142263095Y-75259047D02*
X142263095Y-75116190D01*
X142263095Y-75116190D02*
X142310714Y-74925714D01*
X142310714Y-74925714D02*
X142358333Y-74830476D01*
X142358333Y-74830476D02*
X142453571Y-74735238D01*
X142453571Y-74735238D02*
X142596428Y-74687619D01*
X142596428Y-74687619D02*
X142691666Y-74687619D01*
X142691666Y-74687619D02*
X142834523Y-74735238D01*
X142834523Y-74735238D02*
X142882142Y-74782857D01*
X143834523Y-75687619D02*
X143263095Y-75687619D01*
X143548809Y-75687619D02*
X143548809Y-74687619D01*
X143548809Y-74687619D02*
X143453571Y-74830476D01*
X143453571Y-74830476D02*
X143358333Y-74925714D01*
X143358333Y-74925714D02*
X143263095Y-74973333D01*
X144215476Y-74782857D02*
X144263095Y-74735238D01*
X144263095Y-74735238D02*
X144358333Y-74687619D01*
X144358333Y-74687619D02*
X144596428Y-74687619D01*
X144596428Y-74687619D02*
X144691666Y-74735238D01*
X144691666Y-74735238D02*
X144739285Y-74782857D01*
X144739285Y-74782857D02*
X144786904Y-74878095D01*
X144786904Y-74878095D02*
X144786904Y-74973333D01*
X144786904Y-74973333D02*
X144739285Y-75116190D01*
X144739285Y-75116190D02*
X144167857Y-75687619D01*
X144167857Y-75687619D02*
X144786904Y-75687619D01*
%TO.C,C20*%
X140402142Y-69682380D02*
X140354523Y-69730000D01*
X140354523Y-69730000D02*
X140211666Y-69777619D01*
X140211666Y-69777619D02*
X140116428Y-69777619D01*
X140116428Y-69777619D02*
X139973571Y-69730000D01*
X139973571Y-69730000D02*
X139878333Y-69634761D01*
X139878333Y-69634761D02*
X139830714Y-69539523D01*
X139830714Y-69539523D02*
X139783095Y-69349047D01*
X139783095Y-69349047D02*
X139783095Y-69206190D01*
X139783095Y-69206190D02*
X139830714Y-69015714D01*
X139830714Y-69015714D02*
X139878333Y-68920476D01*
X139878333Y-68920476D02*
X139973571Y-68825238D01*
X139973571Y-68825238D02*
X140116428Y-68777619D01*
X140116428Y-68777619D02*
X140211666Y-68777619D01*
X140211666Y-68777619D02*
X140354523Y-68825238D01*
X140354523Y-68825238D02*
X140402142Y-68872857D01*
X140783095Y-68872857D02*
X140830714Y-68825238D01*
X140830714Y-68825238D02*
X140925952Y-68777619D01*
X140925952Y-68777619D02*
X141164047Y-68777619D01*
X141164047Y-68777619D02*
X141259285Y-68825238D01*
X141259285Y-68825238D02*
X141306904Y-68872857D01*
X141306904Y-68872857D02*
X141354523Y-68968095D01*
X141354523Y-68968095D02*
X141354523Y-69063333D01*
X141354523Y-69063333D02*
X141306904Y-69206190D01*
X141306904Y-69206190D02*
X140735476Y-69777619D01*
X140735476Y-69777619D02*
X141354523Y-69777619D01*
X141973571Y-68777619D02*
X142068809Y-68777619D01*
X142068809Y-68777619D02*
X142164047Y-68825238D01*
X142164047Y-68825238D02*
X142211666Y-68872857D01*
X142211666Y-68872857D02*
X142259285Y-68968095D01*
X142259285Y-68968095D02*
X142306904Y-69158571D01*
X142306904Y-69158571D02*
X142306904Y-69396666D01*
X142306904Y-69396666D02*
X142259285Y-69587142D01*
X142259285Y-69587142D02*
X142211666Y-69682380D01*
X142211666Y-69682380D02*
X142164047Y-69730000D01*
X142164047Y-69730000D02*
X142068809Y-69777619D01*
X142068809Y-69777619D02*
X141973571Y-69777619D01*
X141973571Y-69777619D02*
X141878333Y-69730000D01*
X141878333Y-69730000D02*
X141830714Y-69682380D01*
X141830714Y-69682380D02*
X141783095Y-69587142D01*
X141783095Y-69587142D02*
X141735476Y-69396666D01*
X141735476Y-69396666D02*
X141735476Y-69158571D01*
X141735476Y-69158571D02*
X141783095Y-68968095D01*
X141783095Y-68968095D02*
X141830714Y-68872857D01*
X141830714Y-68872857D02*
X141878333Y-68825238D01*
X141878333Y-68825238D02*
X141973571Y-68777619D01*
%TO.C,C10*%
X119842142Y-60252380D02*
X119794523Y-60300000D01*
X119794523Y-60300000D02*
X119651666Y-60347619D01*
X119651666Y-60347619D02*
X119556428Y-60347619D01*
X119556428Y-60347619D02*
X119413571Y-60300000D01*
X119413571Y-60300000D02*
X119318333Y-60204761D01*
X119318333Y-60204761D02*
X119270714Y-60109523D01*
X119270714Y-60109523D02*
X119223095Y-59919047D01*
X119223095Y-59919047D02*
X119223095Y-59776190D01*
X119223095Y-59776190D02*
X119270714Y-59585714D01*
X119270714Y-59585714D02*
X119318333Y-59490476D01*
X119318333Y-59490476D02*
X119413571Y-59395238D01*
X119413571Y-59395238D02*
X119556428Y-59347619D01*
X119556428Y-59347619D02*
X119651666Y-59347619D01*
X119651666Y-59347619D02*
X119794523Y-59395238D01*
X119794523Y-59395238D02*
X119842142Y-59442857D01*
X120794523Y-60347619D02*
X120223095Y-60347619D01*
X120508809Y-60347619D02*
X120508809Y-59347619D01*
X120508809Y-59347619D02*
X120413571Y-59490476D01*
X120413571Y-59490476D02*
X120318333Y-59585714D01*
X120318333Y-59585714D02*
X120223095Y-59633333D01*
X121413571Y-59347619D02*
X121508809Y-59347619D01*
X121508809Y-59347619D02*
X121604047Y-59395238D01*
X121604047Y-59395238D02*
X121651666Y-59442857D01*
X121651666Y-59442857D02*
X121699285Y-59538095D01*
X121699285Y-59538095D02*
X121746904Y-59728571D01*
X121746904Y-59728571D02*
X121746904Y-59966666D01*
X121746904Y-59966666D02*
X121699285Y-60157142D01*
X121699285Y-60157142D02*
X121651666Y-60252380D01*
X121651666Y-60252380D02*
X121604047Y-60300000D01*
X121604047Y-60300000D02*
X121508809Y-60347619D01*
X121508809Y-60347619D02*
X121413571Y-60347619D01*
X121413571Y-60347619D02*
X121318333Y-60300000D01*
X121318333Y-60300000D02*
X121270714Y-60252380D01*
X121270714Y-60252380D02*
X121223095Y-60157142D01*
X121223095Y-60157142D02*
X121175476Y-59966666D01*
X121175476Y-59966666D02*
X121175476Y-59728571D01*
X121175476Y-59728571D02*
X121223095Y-59538095D01*
X121223095Y-59538095D02*
X121270714Y-59442857D01*
X121270714Y-59442857D02*
X121318333Y-59395238D01*
X121318333Y-59395238D02*
X121413571Y-59347619D01*
D12*
%TO.C,J2*%
X135791667Y-51257526D02*
X135791667Y-52164669D01*
X135791667Y-52164669D02*
X135731190Y-52346097D01*
X135731190Y-52346097D02*
X135610238Y-52467050D01*
X135610238Y-52467050D02*
X135428809Y-52527526D01*
X135428809Y-52527526D02*
X135307857Y-52527526D01*
X136335952Y-51378478D02*
X136396428Y-51318002D01*
X136396428Y-51318002D02*
X136517381Y-51257526D01*
X136517381Y-51257526D02*
X136819762Y-51257526D01*
X136819762Y-51257526D02*
X136940714Y-51318002D01*
X136940714Y-51318002D02*
X137001190Y-51378478D01*
X137001190Y-51378478D02*
X137061667Y-51499430D01*
X137061667Y-51499430D02*
X137061667Y-51620383D01*
X137061667Y-51620383D02*
X137001190Y-51801811D01*
X137001190Y-51801811D02*
X136275476Y-52527526D01*
X136275476Y-52527526D02*
X137061667Y-52527526D01*
D11*
%TO.C,R1*%
X111448333Y-77497619D02*
X111115000Y-77021428D01*
X110876905Y-77497619D02*
X110876905Y-76497619D01*
X110876905Y-76497619D02*
X111257857Y-76497619D01*
X111257857Y-76497619D02*
X111353095Y-76545238D01*
X111353095Y-76545238D02*
X111400714Y-76592857D01*
X111400714Y-76592857D02*
X111448333Y-76688095D01*
X111448333Y-76688095D02*
X111448333Y-76830952D01*
X111448333Y-76830952D02*
X111400714Y-76926190D01*
X111400714Y-76926190D02*
X111353095Y-76973809D01*
X111353095Y-76973809D02*
X111257857Y-77021428D01*
X111257857Y-77021428D02*
X110876905Y-77021428D01*
X112400714Y-77497619D02*
X111829286Y-77497619D01*
X112115000Y-77497619D02*
X112115000Y-76497619D01*
X112115000Y-76497619D02*
X112019762Y-76640476D01*
X112019762Y-76640476D02*
X111924524Y-76735714D01*
X111924524Y-76735714D02*
X111829286Y-76783333D01*
%TO.C,C3*%
X129620833Y-82142380D02*
X129573214Y-82190000D01*
X129573214Y-82190000D02*
X129430357Y-82237619D01*
X129430357Y-82237619D02*
X129335119Y-82237619D01*
X129335119Y-82237619D02*
X129192262Y-82190000D01*
X129192262Y-82190000D02*
X129097024Y-82094761D01*
X129097024Y-82094761D02*
X129049405Y-81999523D01*
X129049405Y-81999523D02*
X129001786Y-81809047D01*
X129001786Y-81809047D02*
X129001786Y-81666190D01*
X129001786Y-81666190D02*
X129049405Y-81475714D01*
X129049405Y-81475714D02*
X129097024Y-81380476D01*
X129097024Y-81380476D02*
X129192262Y-81285238D01*
X129192262Y-81285238D02*
X129335119Y-81237619D01*
X129335119Y-81237619D02*
X129430357Y-81237619D01*
X129430357Y-81237619D02*
X129573214Y-81285238D01*
X129573214Y-81285238D02*
X129620833Y-81332857D01*
X129954167Y-81237619D02*
X130573214Y-81237619D01*
X130573214Y-81237619D02*
X130239881Y-81618571D01*
X130239881Y-81618571D02*
X130382738Y-81618571D01*
X130382738Y-81618571D02*
X130477976Y-81666190D01*
X130477976Y-81666190D02*
X130525595Y-81713809D01*
X130525595Y-81713809D02*
X130573214Y-81809047D01*
X130573214Y-81809047D02*
X130573214Y-82047142D01*
X130573214Y-82047142D02*
X130525595Y-82142380D01*
X130525595Y-82142380D02*
X130477976Y-82190000D01*
X130477976Y-82190000D02*
X130382738Y-82237619D01*
X130382738Y-82237619D02*
X130097024Y-82237619D01*
X130097024Y-82237619D02*
X130001786Y-82190000D01*
X130001786Y-82190000D02*
X129954167Y-82142380D01*
%TO.C,C13*%
X132462142Y-70952380D02*
X132414523Y-71000000D01*
X132414523Y-71000000D02*
X132271666Y-71047619D01*
X132271666Y-71047619D02*
X132176428Y-71047619D01*
X132176428Y-71047619D02*
X132033571Y-71000000D01*
X132033571Y-71000000D02*
X131938333Y-70904761D01*
X131938333Y-70904761D02*
X131890714Y-70809523D01*
X131890714Y-70809523D02*
X131843095Y-70619047D01*
X131843095Y-70619047D02*
X131843095Y-70476190D01*
X131843095Y-70476190D02*
X131890714Y-70285714D01*
X131890714Y-70285714D02*
X131938333Y-70190476D01*
X131938333Y-70190476D02*
X132033571Y-70095238D01*
X132033571Y-70095238D02*
X132176428Y-70047619D01*
X132176428Y-70047619D02*
X132271666Y-70047619D01*
X132271666Y-70047619D02*
X132414523Y-70095238D01*
X132414523Y-70095238D02*
X132462142Y-70142857D01*
X133414523Y-71047619D02*
X132843095Y-71047619D01*
X133128809Y-71047619D02*
X133128809Y-70047619D01*
X133128809Y-70047619D02*
X133033571Y-70190476D01*
X133033571Y-70190476D02*
X132938333Y-70285714D01*
X132938333Y-70285714D02*
X132843095Y-70333333D01*
X133747857Y-70047619D02*
X134366904Y-70047619D01*
X134366904Y-70047619D02*
X134033571Y-70428571D01*
X134033571Y-70428571D02*
X134176428Y-70428571D01*
X134176428Y-70428571D02*
X134271666Y-70476190D01*
X134271666Y-70476190D02*
X134319285Y-70523809D01*
X134319285Y-70523809D02*
X134366904Y-70619047D01*
X134366904Y-70619047D02*
X134366904Y-70857142D01*
X134366904Y-70857142D02*
X134319285Y-70952380D01*
X134319285Y-70952380D02*
X134271666Y-71000000D01*
X134271666Y-71000000D02*
X134176428Y-71047619D01*
X134176428Y-71047619D02*
X133890714Y-71047619D01*
X133890714Y-71047619D02*
X133795476Y-71000000D01*
X133795476Y-71000000D02*
X133747857Y-70952380D01*
%TO.C,C6*%
X122638333Y-68642380D02*
X122590714Y-68690000D01*
X122590714Y-68690000D02*
X122447857Y-68737619D01*
X122447857Y-68737619D02*
X122352619Y-68737619D01*
X122352619Y-68737619D02*
X122209762Y-68690000D01*
X122209762Y-68690000D02*
X122114524Y-68594761D01*
X122114524Y-68594761D02*
X122066905Y-68499523D01*
X122066905Y-68499523D02*
X122019286Y-68309047D01*
X122019286Y-68309047D02*
X122019286Y-68166190D01*
X122019286Y-68166190D02*
X122066905Y-67975714D01*
X122066905Y-67975714D02*
X122114524Y-67880476D01*
X122114524Y-67880476D02*
X122209762Y-67785238D01*
X122209762Y-67785238D02*
X122352619Y-67737619D01*
X122352619Y-67737619D02*
X122447857Y-67737619D01*
X122447857Y-67737619D02*
X122590714Y-67785238D01*
X122590714Y-67785238D02*
X122638333Y-67832857D01*
X123495476Y-67737619D02*
X123305000Y-67737619D01*
X123305000Y-67737619D02*
X123209762Y-67785238D01*
X123209762Y-67785238D02*
X123162143Y-67832857D01*
X123162143Y-67832857D02*
X123066905Y-67975714D01*
X123066905Y-67975714D02*
X123019286Y-68166190D01*
X123019286Y-68166190D02*
X123019286Y-68547142D01*
X123019286Y-68547142D02*
X123066905Y-68642380D01*
X123066905Y-68642380D02*
X123114524Y-68690000D01*
X123114524Y-68690000D02*
X123209762Y-68737619D01*
X123209762Y-68737619D02*
X123400238Y-68737619D01*
X123400238Y-68737619D02*
X123495476Y-68690000D01*
X123495476Y-68690000D02*
X123543095Y-68642380D01*
X123543095Y-68642380D02*
X123590714Y-68547142D01*
X123590714Y-68547142D02*
X123590714Y-68309047D01*
X123590714Y-68309047D02*
X123543095Y-68213809D01*
X123543095Y-68213809D02*
X123495476Y-68166190D01*
X123495476Y-68166190D02*
X123400238Y-68118571D01*
X123400238Y-68118571D02*
X123209762Y-68118571D01*
X123209762Y-68118571D02*
X123114524Y-68166190D01*
X123114524Y-68166190D02*
X123066905Y-68213809D01*
X123066905Y-68213809D02*
X123019286Y-68309047D01*
%TO.C,SW2*%
X155295000Y-95873332D02*
X155342619Y-95730475D01*
X155342619Y-95730475D02*
X155342619Y-95492380D01*
X155342619Y-95492380D02*
X155295000Y-95397142D01*
X155295000Y-95397142D02*
X155247380Y-95349523D01*
X155247380Y-95349523D02*
X155152142Y-95301904D01*
X155152142Y-95301904D02*
X155056904Y-95301904D01*
X155056904Y-95301904D02*
X154961666Y-95349523D01*
X154961666Y-95349523D02*
X154914047Y-95397142D01*
X154914047Y-95397142D02*
X154866428Y-95492380D01*
X154866428Y-95492380D02*
X154818809Y-95682856D01*
X154818809Y-95682856D02*
X154771190Y-95778094D01*
X154771190Y-95778094D02*
X154723571Y-95825713D01*
X154723571Y-95825713D02*
X154628333Y-95873332D01*
X154628333Y-95873332D02*
X154533095Y-95873332D01*
X154533095Y-95873332D02*
X154437857Y-95825713D01*
X154437857Y-95825713D02*
X154390238Y-95778094D01*
X154390238Y-95778094D02*
X154342619Y-95682856D01*
X154342619Y-95682856D02*
X154342619Y-95444761D01*
X154342619Y-95444761D02*
X154390238Y-95301904D01*
X154342619Y-94968570D02*
X155342619Y-94730475D01*
X155342619Y-94730475D02*
X154628333Y-94539999D01*
X154628333Y-94539999D02*
X155342619Y-94349523D01*
X155342619Y-94349523D02*
X154342619Y-94111428D01*
X154437857Y-93778094D02*
X154390238Y-93730475D01*
X154390238Y-93730475D02*
X154342619Y-93635237D01*
X154342619Y-93635237D02*
X154342619Y-93397142D01*
X154342619Y-93397142D02*
X154390238Y-93301904D01*
X154390238Y-93301904D02*
X154437857Y-93254285D01*
X154437857Y-93254285D02*
X154533095Y-93206666D01*
X154533095Y-93206666D02*
X154628333Y-93206666D01*
X154628333Y-93206666D02*
X154771190Y-93254285D01*
X154771190Y-93254285D02*
X155342619Y-93825713D01*
X155342619Y-93825713D02*
X155342619Y-93206666D01*
%TO.C,R3*%
X151083333Y-66982619D02*
X150750000Y-66506428D01*
X150511905Y-66982619D02*
X150511905Y-65982619D01*
X150511905Y-65982619D02*
X150892857Y-65982619D01*
X150892857Y-65982619D02*
X150988095Y-66030238D01*
X150988095Y-66030238D02*
X151035714Y-66077857D01*
X151035714Y-66077857D02*
X151083333Y-66173095D01*
X151083333Y-66173095D02*
X151083333Y-66315952D01*
X151083333Y-66315952D02*
X151035714Y-66411190D01*
X151035714Y-66411190D02*
X150988095Y-66458809D01*
X150988095Y-66458809D02*
X150892857Y-66506428D01*
X150892857Y-66506428D02*
X150511905Y-66506428D01*
X151416667Y-65982619D02*
X152035714Y-65982619D01*
X152035714Y-65982619D02*
X151702381Y-66363571D01*
X151702381Y-66363571D02*
X151845238Y-66363571D01*
X151845238Y-66363571D02*
X151940476Y-66411190D01*
X151940476Y-66411190D02*
X151988095Y-66458809D01*
X151988095Y-66458809D02*
X152035714Y-66554047D01*
X152035714Y-66554047D02*
X152035714Y-66792142D01*
X152035714Y-66792142D02*
X151988095Y-66887380D01*
X151988095Y-66887380D02*
X151940476Y-66935000D01*
X151940476Y-66935000D02*
X151845238Y-66982619D01*
X151845238Y-66982619D02*
X151559524Y-66982619D01*
X151559524Y-66982619D02*
X151464286Y-66935000D01*
X151464286Y-66935000D02*
X151416667Y-66887380D01*
%TO.C,R2*%
X122753333Y-72792619D02*
X122420000Y-72316428D01*
X122181905Y-72792619D02*
X122181905Y-71792619D01*
X122181905Y-71792619D02*
X122562857Y-71792619D01*
X122562857Y-71792619D02*
X122658095Y-71840238D01*
X122658095Y-71840238D02*
X122705714Y-71887857D01*
X122705714Y-71887857D02*
X122753333Y-71983095D01*
X122753333Y-71983095D02*
X122753333Y-72125952D01*
X122753333Y-72125952D02*
X122705714Y-72221190D01*
X122705714Y-72221190D02*
X122658095Y-72268809D01*
X122658095Y-72268809D02*
X122562857Y-72316428D01*
X122562857Y-72316428D02*
X122181905Y-72316428D01*
X123134286Y-71887857D02*
X123181905Y-71840238D01*
X123181905Y-71840238D02*
X123277143Y-71792619D01*
X123277143Y-71792619D02*
X123515238Y-71792619D01*
X123515238Y-71792619D02*
X123610476Y-71840238D01*
X123610476Y-71840238D02*
X123658095Y-71887857D01*
X123658095Y-71887857D02*
X123705714Y-71983095D01*
X123705714Y-71983095D02*
X123705714Y-72078333D01*
X123705714Y-72078333D02*
X123658095Y-72221190D01*
X123658095Y-72221190D02*
X123086667Y-72792619D01*
X123086667Y-72792619D02*
X123705714Y-72792619D01*
%TO.C,U1*%
X155938095Y-69802619D02*
X155938095Y-70612142D01*
X155938095Y-70612142D02*
X155985714Y-70707380D01*
X155985714Y-70707380D02*
X156033333Y-70755000D01*
X156033333Y-70755000D02*
X156128571Y-70802619D01*
X156128571Y-70802619D02*
X156319047Y-70802619D01*
X156319047Y-70802619D02*
X156414285Y-70755000D01*
X156414285Y-70755000D02*
X156461904Y-70707380D01*
X156461904Y-70707380D02*
X156509523Y-70612142D01*
X156509523Y-70612142D02*
X156509523Y-69802619D01*
X157509523Y-70802619D02*
X156938095Y-70802619D01*
X157223809Y-70802619D02*
X157223809Y-69802619D01*
X157223809Y-69802619D02*
X157128571Y-69945476D01*
X157128571Y-69945476D02*
X157033333Y-70040714D01*
X157033333Y-70040714D02*
X156938095Y-70088333D01*
%TO.C,R5*%
X134593333Y-84272619D02*
X134260000Y-83796428D01*
X134021905Y-84272619D02*
X134021905Y-83272619D01*
X134021905Y-83272619D02*
X134402857Y-83272619D01*
X134402857Y-83272619D02*
X134498095Y-83320238D01*
X134498095Y-83320238D02*
X134545714Y-83367857D01*
X134545714Y-83367857D02*
X134593333Y-83463095D01*
X134593333Y-83463095D02*
X134593333Y-83605952D01*
X134593333Y-83605952D02*
X134545714Y-83701190D01*
X134545714Y-83701190D02*
X134498095Y-83748809D01*
X134498095Y-83748809D02*
X134402857Y-83796428D01*
X134402857Y-83796428D02*
X134021905Y-83796428D01*
X135498095Y-83272619D02*
X135021905Y-83272619D01*
X135021905Y-83272619D02*
X134974286Y-83748809D01*
X134974286Y-83748809D02*
X135021905Y-83701190D01*
X135021905Y-83701190D02*
X135117143Y-83653571D01*
X135117143Y-83653571D02*
X135355238Y-83653571D01*
X135355238Y-83653571D02*
X135450476Y-83701190D01*
X135450476Y-83701190D02*
X135498095Y-83748809D01*
X135498095Y-83748809D02*
X135545714Y-83844047D01*
X135545714Y-83844047D02*
X135545714Y-84082142D01*
X135545714Y-84082142D02*
X135498095Y-84177380D01*
X135498095Y-84177380D02*
X135450476Y-84225000D01*
X135450476Y-84225000D02*
X135355238Y-84272619D01*
X135355238Y-84272619D02*
X135117143Y-84272619D01*
X135117143Y-84272619D02*
X135021905Y-84225000D01*
X135021905Y-84225000D02*
X134974286Y-84177380D01*
%TO.C,J3*%
X165296666Y-72162619D02*
X165296666Y-72876904D01*
X165296666Y-72876904D02*
X165249047Y-73019761D01*
X165249047Y-73019761D02*
X165153809Y-73115000D01*
X165153809Y-73115000D02*
X165010952Y-73162619D01*
X165010952Y-73162619D02*
X164915714Y-73162619D01*
X165677619Y-72162619D02*
X166296666Y-72162619D01*
X166296666Y-72162619D02*
X165963333Y-72543571D01*
X165963333Y-72543571D02*
X166106190Y-72543571D01*
X166106190Y-72543571D02*
X166201428Y-72591190D01*
X166201428Y-72591190D02*
X166249047Y-72638809D01*
X166249047Y-72638809D02*
X166296666Y-72734047D01*
X166296666Y-72734047D02*
X166296666Y-72972142D01*
X166296666Y-72972142D02*
X166249047Y-73067380D01*
X166249047Y-73067380D02*
X166201428Y-73115000D01*
X166201428Y-73115000D02*
X166106190Y-73162619D01*
X166106190Y-73162619D02*
X165820476Y-73162619D01*
X165820476Y-73162619D02*
X165725238Y-73115000D01*
X165725238Y-73115000D02*
X165677619Y-73067380D01*
%TO.C,H4*%
X114448095Y-96462619D02*
X114448095Y-95462619D01*
X114448095Y-95938809D02*
X115019523Y-95938809D01*
X115019523Y-96462619D02*
X115019523Y-95462619D01*
X115924285Y-95795952D02*
X115924285Y-96462619D01*
X115686190Y-95415000D02*
X115448095Y-96129285D01*
X115448095Y-96129285D02*
X116067142Y-96129285D01*
%TO.C,C21*%
X147902142Y-67252380D02*
X147854523Y-67300000D01*
X147854523Y-67300000D02*
X147711666Y-67347619D01*
X147711666Y-67347619D02*
X147616428Y-67347619D01*
X147616428Y-67347619D02*
X147473571Y-67300000D01*
X147473571Y-67300000D02*
X147378333Y-67204761D01*
X147378333Y-67204761D02*
X147330714Y-67109523D01*
X147330714Y-67109523D02*
X147283095Y-66919047D01*
X147283095Y-66919047D02*
X147283095Y-66776190D01*
X147283095Y-66776190D02*
X147330714Y-66585714D01*
X147330714Y-66585714D02*
X147378333Y-66490476D01*
X147378333Y-66490476D02*
X147473571Y-66395238D01*
X147473571Y-66395238D02*
X147616428Y-66347619D01*
X147616428Y-66347619D02*
X147711666Y-66347619D01*
X147711666Y-66347619D02*
X147854523Y-66395238D01*
X147854523Y-66395238D02*
X147902142Y-66442857D01*
X148283095Y-66442857D02*
X148330714Y-66395238D01*
X148330714Y-66395238D02*
X148425952Y-66347619D01*
X148425952Y-66347619D02*
X148664047Y-66347619D01*
X148664047Y-66347619D02*
X148759285Y-66395238D01*
X148759285Y-66395238D02*
X148806904Y-66442857D01*
X148806904Y-66442857D02*
X148854523Y-66538095D01*
X148854523Y-66538095D02*
X148854523Y-66633333D01*
X148854523Y-66633333D02*
X148806904Y-66776190D01*
X148806904Y-66776190D02*
X148235476Y-67347619D01*
X148235476Y-67347619D02*
X148854523Y-67347619D01*
X149806904Y-67347619D02*
X149235476Y-67347619D01*
X149521190Y-67347619D02*
X149521190Y-66347619D01*
X149521190Y-66347619D02*
X149425952Y-66490476D01*
X149425952Y-66490476D02*
X149330714Y-66585714D01*
X149330714Y-66585714D02*
X149235476Y-66633333D01*
D13*
%TO.C,C5*%
X126618748Y-83325000D02*
X127141252Y-83325000D01*
X126618748Y-84795000D02*
X127141252Y-84795000D01*
%TO.C,Y1*%
X135355000Y-78665000D02*
X136625000Y-78665000D01*
X135355000Y-78665000D02*
X135355000Y-70825000D01*
X139695000Y-78665000D02*
X138425000Y-78665000D01*
X139695000Y-78665000D02*
X139695000Y-70825000D01*
X135355000Y-70825000D02*
X136625000Y-70825000D01*
X139695000Y-70825000D02*
X138425000Y-70825000D01*
%TO.C,SW3*%
X141480000Y-91130000D02*
X139980000Y-91130000D01*
X137480000Y-92380000D02*
X137480000Y-96880000D01*
X143980000Y-96880000D02*
X143980000Y-92380000D01*
X139980000Y-98130000D02*
X141480000Y-98130000D01*
%TO.C,C7*%
X119791252Y-70925000D02*
X119268748Y-70925000D01*
X119791252Y-69455000D02*
X119268748Y-69455000D01*
%TO.C,C11*%
X113925000Y-62371267D02*
X113925000Y-62078733D01*
X114945000Y-62371267D02*
X114945000Y-62078733D01*
%TO.C,C16*%
X154871267Y-85745000D02*
X154578733Y-85745000D01*
X154871267Y-84725000D02*
X154578733Y-84725000D01*
%TO.C,FB1*%
X128930242Y-65585000D02*
X127259758Y-65585000D01*
X128930242Y-63765000D02*
X127259758Y-63765000D01*
D14*
%TO.C,L1*%
X124375000Y-79245000D02*
X124375000Y-79245000D01*
X124375000Y-79145000D02*
X124375000Y-79145000D01*
D15*
X122375000Y-78645000D02*
X122375000Y-74645000D01*
X126375000Y-78645000D02*
X122375000Y-78645000D01*
X122375000Y-74645000D02*
X126375000Y-74645000D01*
X126375000Y-74645000D02*
X126375000Y-78645000D01*
D14*
X124375000Y-79145000D02*
G75*
G03*
X124375000Y-79245000I0J-50000D01*
G01*
X124375000Y-79245000D02*
G75*
G03*
X124375000Y-79145000I0J50000D01*
G01*
D13*
%TO.C,C17*%
X159966233Y-78470000D02*
X160258767Y-78470000D01*
X159966233Y-79490000D02*
X160258767Y-79490000D01*
%TO.C,C18*%
X159966233Y-75480000D02*
X160258767Y-75480000D01*
X159966233Y-76500000D02*
X160258767Y-76500000D01*
%TO.C,C23*%
X159966233Y-72120000D02*
X160258767Y-72120000D01*
X159966233Y-73140000D02*
X160258767Y-73140000D01*
%TO.C,D3*%
X137480000Y-63752500D02*
X135480000Y-63752500D01*
X137480000Y-63752500D02*
X137480000Y-67762500D01*
X135480000Y-63752500D02*
X135480000Y-67762500D01*
D16*
%TO.C,IC3*%
X119445000Y-65370000D02*
G75*
G03*
X119445000Y-65370000I-125000J0D01*
G01*
D13*
%TO.C,C4*%
X116785000Y-77820835D02*
X116785000Y-77589165D01*
X117505000Y-77820835D02*
X117505000Y-77589165D01*
%TO.C,C2*%
X120096252Y-83200000D02*
X119573748Y-83200000D01*
X120096252Y-84670000D02*
X119573748Y-84670000D01*
%TO.C,J4*%
X164030000Y-57500000D02*
X165360000Y-57500000D01*
X164030000Y-58830000D02*
X164030000Y-57500000D01*
X164030000Y-60100000D02*
X164030000Y-70320000D01*
X164030000Y-60100000D02*
X166690000Y-60100000D01*
X164030000Y-70320000D02*
X166690000Y-70320000D01*
X166690000Y-60100000D02*
X166690000Y-70320000D01*
%TO.C,C15*%
X133428733Y-85015000D02*
X133721267Y-85015000D01*
X133428733Y-86035000D02*
X133721267Y-86035000D01*
%TO.C,D1*%
X140505000Y-62905000D02*
X142125000Y-62905000D01*
X140505000Y-62905000D02*
X140505000Y-59665000D01*
X142125000Y-62905000D02*
X142125000Y-59665000D01*
%TO.C,SW1*%
X126330000Y-97990000D02*
X127830000Y-97990000D01*
X130330000Y-96740000D02*
X130330000Y-92240000D01*
X123830000Y-92240000D02*
X123830000Y-96740000D01*
X127830000Y-90990000D02*
X126330000Y-90990000D01*
%TO.C,R7*%
X154030000Y-68172379D02*
X154030000Y-68507621D01*
X153270000Y-68172379D02*
X153270000Y-68507621D01*
%TO.C,C14*%
X132758733Y-76955000D02*
X133051267Y-76955000D01*
X132758733Y-77975000D02*
X133051267Y-77975000D01*
%TO.C,R6*%
X132462379Y-81410000D02*
X132797621Y-81410000D01*
X132462379Y-82170000D02*
X132797621Y-82170000D01*
%TO.C,C8*%
X119811252Y-73015000D02*
X119288748Y-73015000D01*
X119811252Y-71545000D02*
X119288748Y-71545000D01*
D15*
%TO.C,IC2*%
X112165000Y-87282000D02*
X112165000Y-85757000D01*
X112320000Y-85407000D02*
X112320000Y-82207000D01*
X117220000Y-85407000D02*
X112320000Y-85407000D01*
X112320000Y-82207000D02*
X117220000Y-82207000D01*
X117220000Y-82207000D02*
X117220000Y-85407000D01*
D13*
%TO.C,C22*%
X148391233Y-64815000D02*
X148683767Y-64815000D01*
X148391233Y-65835000D02*
X148683767Y-65835000D01*
%TO.C,J1*%
X155105000Y-61475000D02*
X152295000Y-61475000D01*
X155105000Y-55415000D02*
X155105000Y-61475000D01*
X155105000Y-48255000D02*
X155105000Y-51315000D01*
X150995000Y-62665000D02*
X148995000Y-62665000D01*
X147695000Y-61475000D02*
X144885000Y-61475000D01*
X144885000Y-61475000D02*
X144885000Y-55415000D01*
X144885000Y-51315000D02*
X144885000Y-48255000D01*
X144885000Y-48255000D02*
X155105000Y-48255000D01*
%TO.C,C9*%
X148423733Y-84770000D02*
X148716267Y-84770000D01*
X148423733Y-85790000D02*
X148716267Y-85790000D01*
%TO.C,R4*%
X123485000Y-52562621D02*
X123485000Y-52227379D01*
X124245000Y-52562621D02*
X124245000Y-52227379D01*
%TO.C,C19*%
X143075000Y-71681267D02*
X143075000Y-71388733D01*
X144095000Y-71681267D02*
X144095000Y-71388733D01*
D14*
%TO.C,IC1*%
X118272000Y-74995000D02*
X118522000Y-74995000D01*
X118272000Y-75495000D02*
X118272000Y-74995000D01*
X118272000Y-77995000D02*
X118272000Y-77720000D01*
X118559000Y-77995000D02*
X118272000Y-77995000D01*
X120772000Y-74995000D02*
X120772000Y-75745000D01*
X120772000Y-77245000D02*
X120772000Y-77995000D01*
D15*
X117797000Y-75835000D02*
G75*
G03*
X117797000Y-75635000I0J100000D01*
G01*
X117797000Y-75635000D02*
G75*
G03*
X117797000Y-75835000I0J-100000D01*
G01*
D13*
%TO.C,D2*%
X135635000Y-62895000D02*
X137255000Y-62895000D01*
X135635000Y-62895000D02*
X135635000Y-59655000D01*
X137255000Y-62895000D02*
X137255000Y-59655000D01*
%TO.C,C1*%
X120086252Y-82500000D02*
X119563748Y-82500000D01*
X120086252Y-81030000D02*
X119563748Y-81030000D01*
%TO.C,D4*%
X124975000Y-55045000D02*
X126895000Y-55045000D01*
X126895000Y-55045000D02*
X126895000Y-52185000D01*
X124975000Y-52185000D02*
X124975000Y-55045000D01*
%TO.C,C24*%
X133640000Y-66023733D02*
X133640000Y-66316267D01*
X132620000Y-66023733D02*
X132620000Y-66316267D01*
%TO.C,C12*%
X143955000Y-77441233D02*
X143955000Y-77733767D01*
X142935000Y-77441233D02*
X142935000Y-77733767D01*
%TO.C,C20*%
X140555000Y-71771267D02*
X140555000Y-71478733D01*
X141575000Y-71771267D02*
X141575000Y-71478733D01*
%TO.C,C10*%
X119945000Y-62151267D02*
X119945000Y-61858733D01*
X120965000Y-62151267D02*
X120965000Y-61858733D01*
D14*
%TO.C,J2*%
X140115000Y-49915000D02*
X140115000Y-49915000D01*
X140115000Y-49915000D02*
X140115000Y-48915000D01*
X140115000Y-48915000D02*
X140115000Y-49915000D01*
X140115000Y-48915000D02*
X140115000Y-48915000D01*
X140115000Y-48915000D02*
X140115000Y-48915000D01*
X140115000Y-48915000D02*
X132315000Y-48915000D01*
D15*
X137615000Y-54915000D02*
X137615000Y-54915000D01*
X137615000Y-54915000D02*
X137615000Y-54915000D01*
X137515000Y-54915000D02*
X137515000Y-54915000D01*
D14*
X132315000Y-49665000D02*
X132315000Y-49665000D01*
X132315000Y-49665000D02*
X132315000Y-48915000D01*
X132315000Y-48915000D02*
X140115000Y-48915000D01*
X132315000Y-48915000D02*
X132315000Y-49665000D01*
X132315000Y-48915000D02*
X132315000Y-48915000D01*
X132315000Y-48915000D02*
X132315000Y-48915000D01*
D15*
X137515000Y-54915000D02*
G75*
G03*
X137615000Y-54915000I50000J0D01*
G01*
X137615000Y-54915000D02*
G75*
G03*
X137515000Y-54915000I-50000J0D01*
G01*
X137615000Y-54915000D02*
G75*
G03*
X137515000Y-54915000I-50000J0D01*
G01*
D13*
%TO.C,R1*%
X112525000Y-77762064D02*
X112525000Y-76307936D01*
X114345000Y-77762064D02*
X114345000Y-76307936D01*
%TO.C,C3*%
X126563748Y-81030000D02*
X127086252Y-81030000D01*
X126563748Y-82500000D02*
X127086252Y-82500000D01*
%TO.C,C13*%
X132958733Y-71505000D02*
X133251267Y-71505000D01*
X132958733Y-72525000D02*
X133251267Y-72525000D01*
%TO.C,C6*%
X119801252Y-68835000D02*
X119278748Y-68835000D01*
X119801252Y-67365000D02*
X119278748Y-67365000D01*
%TO.C,SW2*%
X151380000Y-91040000D02*
X149880000Y-91040000D01*
X147380000Y-92290000D02*
X147380000Y-96790000D01*
X153880000Y-96790000D02*
X153880000Y-92290000D01*
X149880000Y-98040000D02*
X151380000Y-98040000D01*
%TO.C,R3*%
X151630000Y-68092379D02*
X151630000Y-68427621D01*
X150870000Y-68092379D02*
X150870000Y-68427621D01*
%TO.C,R2*%
X119567379Y-73497015D02*
X119902621Y-73497015D01*
X119567379Y-74257015D02*
X119902621Y-74257015D01*
%TO.C,U1*%
X146400000Y-71145000D02*
X146400000Y-72095000D01*
X146400000Y-72095000D02*
X145060000Y-72095000D01*
X146400000Y-81365000D02*
X146400000Y-80415000D01*
X147350000Y-71145000D02*
X146400000Y-71145000D01*
X147350000Y-81365000D02*
X146400000Y-81365000D01*
X155670000Y-71145000D02*
X156620000Y-71145000D01*
X155670000Y-81365000D02*
X156620000Y-81365000D01*
X156620000Y-71145000D02*
X156620000Y-72095000D01*
X156620000Y-81365000D02*
X156620000Y-80415000D01*
%TO.C,R5*%
X132432379Y-83470000D02*
X132767621Y-83470000D01*
X132432379Y-84230000D02*
X132767621Y-84230000D01*
%TO.C,J3*%
X164260000Y-73330000D02*
X165590000Y-73330000D01*
X164260000Y-74660000D02*
X164260000Y-73330000D01*
X164260000Y-75930000D02*
X164260000Y-83610000D01*
X164260000Y-75930000D02*
X166920000Y-75930000D01*
X164260000Y-83610000D02*
X166920000Y-83610000D01*
X166920000Y-75930000D02*
X166920000Y-83610000D01*
%TO.C,C21*%
X148398733Y-67805000D02*
X148691267Y-67805000D01*
X148398733Y-68825000D02*
X148691267Y-68825000D01*
%TD*%
M02*
