%TF.GenerationSoftware,KiCad,Pcbnew,7.0.1*%
%TF.CreationDate,2023-07-11T02:04:21-05:00*%
%TF.ProjectId,Power_Supply,506f7765-725f-4537-9570-706c792e6b69,1*%
%TF.SameCoordinates,Original*%
%TF.FileFunction,Copper,L3,Inr*%
%TF.FilePolarity,Positive*%
%FSLAX46Y46*%
G04 Gerber Fmt 4.6, Leading zero omitted, Abs format (unit mm)*
G04 Created by KiCad (PCBNEW 7.0.1) date 2023-07-11 02:04:21*
%MOMM*%
%LPD*%
G01*
G04 APERTURE LIST*
%TA.AperFunction,ComponentPad*%
%ADD10C,2.000000*%
%TD*%
%TA.AperFunction,ComponentPad*%
%ADD11C,2.600000*%
%TD*%
%TA.AperFunction,ComponentPad*%
%ADD12R,1.700000X1.700000*%
%TD*%
%TA.AperFunction,ComponentPad*%
%ADD13O,1.700000X1.700000*%
%TD*%
%TA.AperFunction,ComponentPad*%
%ADD14R,4.000000X4.000000*%
%TD*%
%TA.AperFunction,ComponentPad*%
%ADD15C,3.300000*%
%TD*%
%TA.AperFunction,ComponentPad*%
%ADD16C,3.500000*%
%TD*%
%TA.AperFunction,ViaPad*%
%ADD17C,0.800000*%
%TD*%
G04 APERTURE END LIST*
D10*
%TO.N,POT_BTN_DWN*%
%TO.C,SW3*%
X142980000Y-91380000D03*
X142980000Y-97880000D03*
%TO.N,GND*%
X138480000Y-91380000D03*
X138480000Y-97880000D03*
%TD*%
D11*
%TO.N,GND*%
%TO.C,H6*%
X159350000Y-90610000D03*
%TD*%
D12*
%TO.N,+3.3V*%
%TO.C,J4*%
X165360000Y-58830000D03*
D13*
%TO.N,SWCLK*%
X165360000Y-61370000D03*
%TO.N,GND*%
X165360000Y-63910000D03*
%TO.N,SWDIO*%
X165360000Y-66450000D03*
%TO.N,SWO*%
X165360000Y-68990000D03*
%TD*%
D10*
%TO.N,GND*%
%TO.C,SW1*%
X124830000Y-97740000D03*
X124830000Y-91240000D03*
%TO.N,/NRST*%
X129330000Y-97740000D03*
X129330000Y-91240000D03*
%TD*%
D11*
%TO.N,ADC*%
%TO.C,H5*%
X164880000Y-90680000D03*
%TD*%
D14*
%TO.N,/MCU_POWER/JACK_OUT*%
%TO.C,J1*%
X149995000Y-60365000D03*
D15*
%TO.N,GND*%
X149995000Y-54365000D03*
D16*
%TO.N,N/C*%
X154495000Y-53365000D03*
X145495000Y-53365000D03*
%TD*%
D10*
%TO.N,POT_BTN_UP*%
%TO.C,SW2*%
X152880000Y-91290000D03*
X152880000Y-97790000D03*
%TO.N,GND*%
X148380000Y-91290000D03*
X148380000Y-97790000D03*
%TD*%
D12*
%TO.N,+3.3V*%
%TO.C,J3*%
X165590000Y-74660000D03*
D13*
%TO.N,SCL*%
X165590000Y-77200000D03*
%TO.N,SDA*%
X165590000Y-79740000D03*
%TO.N,GND*%
X165590000Y-82280000D03*
%TD*%
D12*
%TO.N,ADC*%
%TO.C,J10*%
X117295000Y-109155000D03*
D13*
X117295000Y-106615000D03*
%TO.N,GND*%
X114755000Y-109155000D03*
X114755000Y-106615000D03*
%TD*%
D12*
%TO.N,ADC*%
%TO.C,J5*%
X162275000Y-109365000D03*
D13*
X162275000Y-106825000D03*
%TO.N,GND*%
X159735000Y-109365000D03*
X159735000Y-106825000D03*
%TD*%
D17*
%TO.N,GND*%
X133295000Y-56725000D03*
X123825000Y-50335000D03*
X124750000Y-79720000D03*
X126590000Y-73910000D03*
X134655000Y-56735000D03*
X116280000Y-78190000D03*
X122810000Y-73860000D03*
X116755000Y-68355000D03*
X150905000Y-65285000D03*
X154492205Y-72567961D03*
X160972500Y-82220000D03*
X147411000Y-77209807D03*
X132695000Y-87075000D03*
X142000000Y-76740000D03*
X116425000Y-61490000D03*
X138445000Y-67855000D03*
X123080000Y-79700000D03*
X118400000Y-61445000D03*
X116455000Y-66050000D03*
X136015000Y-56765000D03*
X126460000Y-79710000D03*
X130676250Y-72055000D03*
X119110000Y-86290000D03*
X116280000Y-79200000D03*
X116775000Y-70365000D03*
X118120000Y-86280000D03*
X124680000Y-73860000D03*
X145655000Y-70665000D03*
X117445000Y-66030000D03*
X116755000Y-74275000D03*
X130695000Y-77495000D03*
X116755000Y-72455000D03*
X117410000Y-61465000D03*
X118430000Y-66005000D03*
X154265000Y-79615000D03*
%TO.N,+3.3V*%
X125915000Y-50335000D03*
X153650000Y-65300000D03*
X110855000Y-62840000D03*
X110835000Y-63720000D03*
X141960000Y-78980000D03*
X112035000Y-63710000D03*
X145935000Y-65325000D03*
X158254799Y-71504799D03*
X110855000Y-64650000D03*
X141055000Y-73780500D03*
X112055000Y-62830000D03*
X112055000Y-64640000D03*
X148860000Y-79104500D03*
X111385000Y-81115000D03*
%TO.N,PU*%
X112815000Y-88455000D03*
X150017037Y-78614500D03*
%TO.N,PD*%
X114195000Y-88425500D03*
X151395000Y-77955000D03*
%TO.N,SCL*%
X149835000Y-73495000D03*
X163400000Y-77175000D03*
%TO.N,SDA*%
X163440000Y-79735000D03*
X148435000Y-73635000D03*
%TO.N,SWDIO*%
X155230000Y-73505000D03*
%TO.N,SWO*%
X165444998Y-71195000D03*
X152610000Y-74000000D03*
%TO.N,POT_BTN_DWN*%
X151200000Y-84340000D03*
%TO.N,ADC*%
X115415000Y-87975999D03*
X115125000Y-78585000D03*
%TD*%
%TA.AperFunction,Conductor*%
%TO.N,+3.3V*%
G36*
X168420648Y-47535312D02*
G01*
X168482579Y-47551994D01*
X168527891Y-47597388D01*
X168544460Y-47659350D01*
X168533409Y-83501038D01*
X168516783Y-83563022D01*
X168471398Y-83608394D01*
X168409409Y-83625000D01*
X166416944Y-83625000D01*
X166356828Y-83609453D01*
X166311786Y-83566710D01*
X166293114Y-83507490D01*
X166305493Y-83446642D01*
X166345818Y-83399426D01*
X166461401Y-83318495D01*
X166628495Y-83151401D01*
X166764035Y-82957830D01*
X166863903Y-82743663D01*
X166925063Y-82515408D01*
X166945659Y-82280000D01*
X166925063Y-82044592D01*
X166863903Y-81816337D01*
X166764035Y-81602171D01*
X166628495Y-81408599D01*
X166461401Y-81241505D01*
X166275839Y-81111573D01*
X166236975Y-81067257D01*
X166222964Y-81010000D01*
X166236975Y-80952743D01*
X166275839Y-80908426D01*
X166461401Y-80778495D01*
X166628495Y-80611401D01*
X166764035Y-80417830D01*
X166863903Y-80203663D01*
X166925063Y-79975408D01*
X166945659Y-79740000D01*
X166925063Y-79504592D01*
X166863903Y-79276337D01*
X166764035Y-79062171D01*
X166628495Y-78868599D01*
X166461401Y-78701505D01*
X166275839Y-78571573D01*
X166236975Y-78527257D01*
X166222964Y-78470000D01*
X166236975Y-78412743D01*
X166275839Y-78368426D01*
X166461401Y-78238495D01*
X166628495Y-78071401D01*
X166764035Y-77877830D01*
X166863903Y-77663663D01*
X166925063Y-77435408D01*
X166945659Y-77200000D01*
X166943108Y-77170848D01*
X166925063Y-76964592D01*
X166892087Y-76841523D01*
X166863903Y-76736337D01*
X166764035Y-76522171D01*
X166628495Y-76328599D01*
X166506181Y-76206284D01*
X166474885Y-76153539D01*
X166472696Y-76092246D01*
X166500149Y-76037401D01*
X166550528Y-76002422D01*
X166682089Y-75953352D01*
X166797188Y-75867188D01*
X166883352Y-75752089D01*
X166933597Y-75617375D01*
X166940000Y-75557824D01*
X166940000Y-74910000D01*
X164240000Y-74910000D01*
X164240000Y-75557824D01*
X164246402Y-75617375D01*
X164296647Y-75752089D01*
X164382811Y-75867188D01*
X164497911Y-75953352D01*
X164629471Y-76002422D01*
X164679850Y-76037401D01*
X164707303Y-76092246D01*
X164705114Y-76153539D01*
X164673819Y-76206285D01*
X164551503Y-76328601D01*
X164415963Y-76522172D01*
X164358880Y-76644585D01*
X164315388Y-76695282D01*
X164251906Y-76716061D01*
X164186855Y-76700892D01*
X164139111Y-76654177D01*
X164132533Y-76642783D01*
X164005870Y-76502110D01*
X163852730Y-76390848D01*
X163679802Y-76313855D01*
X163494648Y-76274500D01*
X163494646Y-76274500D01*
X163305354Y-76274500D01*
X163305352Y-76274500D01*
X163120197Y-76313855D01*
X162947269Y-76390848D01*
X162794129Y-76502110D01*
X162667466Y-76642783D01*
X162572820Y-76806715D01*
X162514326Y-76986742D01*
X162494540Y-77175000D01*
X162514326Y-77363257D01*
X162572820Y-77543284D01*
X162667466Y-77707216D01*
X162794129Y-77847889D01*
X162947269Y-77959151D01*
X163120197Y-78036144D01*
X163305352Y-78075500D01*
X163305354Y-78075500D01*
X163494646Y-78075500D01*
X163494648Y-78075500D01*
X163618084Y-78049262D01*
X163679803Y-78036144D01*
X163852730Y-77959151D01*
X163858445Y-77954999D01*
X164005870Y-77847889D01*
X164141254Y-77697531D01*
X164144419Y-77700381D01*
X164173774Y-77671547D01*
X164238870Y-77656272D01*
X164302433Y-77677019D01*
X164345983Y-77727755D01*
X164380068Y-77800849D01*
X164415965Y-77877830D01*
X164551505Y-78071401D01*
X164718599Y-78238495D01*
X164904160Y-78368426D01*
X164943024Y-78412743D01*
X164957035Y-78470000D01*
X164943024Y-78527257D01*
X164904159Y-78571575D01*
X164884986Y-78585000D01*
X164823736Y-78627888D01*
X164718595Y-78701508D01*
X164551505Y-78868598D01*
X164415966Y-79062168D01*
X164368885Y-79163133D01*
X164330695Y-79210083D01*
X164274831Y-79233365D01*
X164214601Y-79227433D01*
X164164353Y-79193699D01*
X164045870Y-79062110D01*
X163892730Y-78950848D01*
X163719802Y-78873855D01*
X163534648Y-78834500D01*
X163534646Y-78834500D01*
X163345354Y-78834500D01*
X163345352Y-78834500D01*
X163160197Y-78873855D01*
X162987269Y-78950848D01*
X162834129Y-79062110D01*
X162707466Y-79202783D01*
X162612820Y-79366715D01*
X162554326Y-79546742D01*
X162534540Y-79735000D01*
X162554326Y-79923257D01*
X162612820Y-80103284D01*
X162707466Y-80267216D01*
X162834129Y-80407889D01*
X162987269Y-80519151D01*
X163160197Y-80596144D01*
X163345352Y-80635500D01*
X163345354Y-80635500D01*
X163534646Y-80635500D01*
X163534648Y-80635500D01*
X163699309Y-80600500D01*
X163719803Y-80596144D01*
X163892730Y-80519151D01*
X164045871Y-80407888D01*
X164161282Y-80279711D01*
X164211529Y-80245978D01*
X164271759Y-80240046D01*
X164327623Y-80263328D01*
X164365813Y-80310279D01*
X164415965Y-80417830D01*
X164551505Y-80611401D01*
X164718599Y-80778495D01*
X164904160Y-80908426D01*
X164943024Y-80952743D01*
X164957035Y-81010000D01*
X164943024Y-81067257D01*
X164904159Y-81111575D01*
X164718595Y-81241508D01*
X164551505Y-81408598D01*
X164415965Y-81602170D01*
X164316097Y-81816336D01*
X164254936Y-82044592D01*
X164234340Y-82280000D01*
X164254936Y-82515407D01*
X164299709Y-82682502D01*
X164316097Y-82743663D01*
X164415965Y-82957830D01*
X164551505Y-83151401D01*
X164718599Y-83318495D01*
X164834181Y-83399426D01*
X164874507Y-83446642D01*
X164886886Y-83507490D01*
X164868214Y-83566710D01*
X164823172Y-83609453D01*
X164763056Y-83625000D01*
X151788199Y-83625000D01*
X151749881Y-83618931D01*
X151715314Y-83601318D01*
X151652730Y-83555848D01*
X151479802Y-83478855D01*
X151294648Y-83439500D01*
X151294646Y-83439500D01*
X151105354Y-83439500D01*
X151105352Y-83439500D01*
X150920197Y-83478855D01*
X150747269Y-83555848D01*
X150684686Y-83601318D01*
X150650119Y-83618931D01*
X150611801Y-83625000D01*
X108959500Y-83625000D01*
X108897500Y-83608387D01*
X108852113Y-83563000D01*
X108835500Y-83501000D01*
X108835500Y-82220000D01*
X160067040Y-82220000D01*
X160086826Y-82408257D01*
X160145320Y-82588284D01*
X160239966Y-82752216D01*
X160366629Y-82892889D01*
X160519769Y-83004151D01*
X160692697Y-83081144D01*
X160877852Y-83120500D01*
X160877854Y-83120500D01*
X161067146Y-83120500D01*
X161067148Y-83120500D01*
X161190584Y-83094262D01*
X161252303Y-83081144D01*
X161425230Y-83004151D01*
X161578371Y-82892888D01*
X161705033Y-82752216D01*
X161799679Y-82588284D01*
X161858174Y-82408256D01*
X161877960Y-82220000D01*
X161858174Y-82031744D01*
X161799679Y-81851716D01*
X161799679Y-81851715D01*
X161705033Y-81687783D01*
X161578370Y-81547110D01*
X161425230Y-81435848D01*
X161252302Y-81358855D01*
X161067148Y-81319500D01*
X161067146Y-81319500D01*
X160877854Y-81319500D01*
X160877852Y-81319500D01*
X160692697Y-81358855D01*
X160519769Y-81435848D01*
X160366629Y-81547110D01*
X160239966Y-81687783D01*
X160145320Y-81851715D01*
X160086826Y-82031742D01*
X160067040Y-82220000D01*
X108835500Y-82220000D01*
X108835500Y-78585000D01*
X114219540Y-78585000D01*
X114224048Y-78627888D01*
X114239326Y-78773257D01*
X114297820Y-78953284D01*
X114392466Y-79117216D01*
X114519129Y-79257889D01*
X114672269Y-79369151D01*
X114845197Y-79446144D01*
X115030352Y-79485500D01*
X115030354Y-79485500D01*
X115219646Y-79485500D01*
X115303388Y-79467700D01*
X115363345Y-79469793D01*
X115415304Y-79499791D01*
X115447098Y-79550671D01*
X115452821Y-79568285D01*
X115547466Y-79732216D01*
X115674129Y-79872889D01*
X115827269Y-79984151D01*
X116000197Y-80061144D01*
X116185352Y-80100500D01*
X116185354Y-80100500D01*
X116374646Y-80100500D01*
X116374648Y-80100500D01*
X116498083Y-80074262D01*
X116559803Y-80061144D01*
X116732730Y-79984151D01*
X116816545Y-79923256D01*
X116885870Y-79872889D01*
X117012533Y-79732216D01*
X117031133Y-79700000D01*
X122174540Y-79700000D01*
X122194326Y-79888257D01*
X122252820Y-80068284D01*
X122347466Y-80232216D01*
X122474129Y-80372889D01*
X122627269Y-80484151D01*
X122800197Y-80561144D01*
X122985352Y-80600500D01*
X122985354Y-80600500D01*
X123174646Y-80600500D01*
X123174648Y-80600500D01*
X123312756Y-80571144D01*
X123359803Y-80561144D01*
X123532730Y-80484151D01*
X123543751Y-80476144D01*
X123685870Y-80372889D01*
X123685871Y-80372888D01*
X123812533Y-80232216D01*
X123812533Y-80232214D01*
X123816163Y-80228184D01*
X123863876Y-80195392D01*
X123921275Y-80187835D01*
X123975849Y-80207161D01*
X124015701Y-80249157D01*
X124017468Y-80252217D01*
X124144129Y-80392889D01*
X124297269Y-80504151D01*
X124470197Y-80581144D01*
X124655352Y-80620500D01*
X124655354Y-80620500D01*
X124844646Y-80620500D01*
X124844648Y-80620500D01*
X124968084Y-80594262D01*
X125029803Y-80581144D01*
X125202730Y-80504151D01*
X125230258Y-80484151D01*
X125355870Y-80392889D01*
X125482533Y-80252216D01*
X125484299Y-80249157D01*
X125500498Y-80221098D01*
X125545884Y-80175711D01*
X125607884Y-80159097D01*
X125669885Y-80175709D01*
X125715273Y-80221096D01*
X125727467Y-80242217D01*
X125854129Y-80382889D01*
X126007269Y-80494151D01*
X126180197Y-80571144D01*
X126365352Y-80610500D01*
X126365354Y-80610500D01*
X126554646Y-80610500D01*
X126554648Y-80610500D01*
X126692756Y-80581144D01*
X126739803Y-80571144D01*
X126912730Y-80494151D01*
X126937515Y-80476144D01*
X127065870Y-80382889D01*
X127192533Y-80242216D01*
X127287179Y-80078284D01*
X127313375Y-79997660D01*
X127345674Y-79898256D01*
X127365460Y-79710000D01*
X127355475Y-79615000D01*
X153359540Y-79615000D01*
X153379326Y-79803257D01*
X153437820Y-79983284D01*
X153532466Y-80147216D01*
X153659129Y-80287889D01*
X153812269Y-80399151D01*
X153985197Y-80476144D01*
X154170352Y-80515500D01*
X154170354Y-80515500D01*
X154359646Y-80515500D01*
X154359648Y-80515500D01*
X154483084Y-80489262D01*
X154544803Y-80476144D01*
X154717730Y-80399151D01*
X154753878Y-80372888D01*
X154870870Y-80287889D01*
X154997533Y-80147216D01*
X155092179Y-79983284D01*
X155123055Y-79888257D01*
X155150674Y-79803256D01*
X155170460Y-79615000D01*
X155150674Y-79426744D01*
X155100038Y-79270902D01*
X155092179Y-79246715D01*
X154997533Y-79082783D01*
X154870870Y-78942110D01*
X154717730Y-78830848D01*
X154544802Y-78753855D01*
X154359648Y-78714500D01*
X154359646Y-78714500D01*
X154170354Y-78714500D01*
X154170352Y-78714500D01*
X153985197Y-78753855D01*
X153812269Y-78830848D01*
X153659129Y-78942110D01*
X153532466Y-79082783D01*
X153437820Y-79246715D01*
X153379326Y-79426742D01*
X153359540Y-79615000D01*
X127355475Y-79615000D01*
X127345674Y-79521744D01*
X127308840Y-79408380D01*
X127287179Y-79341715D01*
X127192533Y-79177783D01*
X127065870Y-79037110D01*
X126912730Y-78925848D01*
X126739802Y-78848855D01*
X126554648Y-78809500D01*
X126554646Y-78809500D01*
X126365354Y-78809500D01*
X126365352Y-78809500D01*
X126180197Y-78848855D01*
X126007269Y-78925848D01*
X125854129Y-79037110D01*
X125727467Y-79177782D01*
X125709500Y-79208903D01*
X125664112Y-79254290D01*
X125602112Y-79270902D01*
X125540113Y-79254289D01*
X125494726Y-79208902D01*
X125482533Y-79187783D01*
X125355870Y-79047110D01*
X125202730Y-78935848D01*
X125029802Y-78858855D01*
X124844648Y-78819500D01*
X124844646Y-78819500D01*
X124655354Y-78819500D01*
X124655352Y-78819500D01*
X124470197Y-78858855D01*
X124297269Y-78935848D01*
X124144132Y-79047109D01*
X124144129Y-79047111D01*
X124144129Y-79047112D01*
X124130571Y-79062170D01*
X124013836Y-79191816D01*
X123966122Y-79224608D01*
X123908722Y-79232163D01*
X123854148Y-79212836D01*
X123814297Y-79170839D01*
X123812532Y-79167783D01*
X123685870Y-79027110D01*
X123532730Y-78915848D01*
X123359802Y-78838855D01*
X123174648Y-78799500D01*
X123174646Y-78799500D01*
X122985354Y-78799500D01*
X122985352Y-78799500D01*
X122800197Y-78838855D01*
X122627269Y-78915848D01*
X122474129Y-79027110D01*
X122347466Y-79167783D01*
X122252820Y-79331715D01*
X122194326Y-79511742D01*
X122174540Y-79700000D01*
X117031133Y-79700000D01*
X117107179Y-79568284D01*
X117122301Y-79521744D01*
X117165674Y-79388256D01*
X117185460Y-79200000D01*
X117165674Y-79011744D01*
X117117272Y-78862779D01*
X117107180Y-78831718D01*
X117100126Y-78819500D01*
X117064040Y-78756996D01*
X117047428Y-78694999D01*
X117064039Y-78633003D01*
X117074722Y-78614500D01*
X149111577Y-78614500D01*
X149131363Y-78802757D01*
X149189857Y-78982784D01*
X149284503Y-79146716D01*
X149411166Y-79287389D01*
X149564306Y-79398651D01*
X149737234Y-79475644D01*
X149922389Y-79515000D01*
X149922391Y-79515000D01*
X150111683Y-79515000D01*
X150111685Y-79515000D01*
X150250471Y-79485500D01*
X150296840Y-79475644D01*
X150469767Y-79398651D01*
X150484075Y-79388256D01*
X150622907Y-79287389D01*
X150652711Y-79254289D01*
X150749570Y-79146716D01*
X150844216Y-78982784D01*
X150883208Y-78862778D01*
X150921433Y-78806108D01*
X150983882Y-78778304D01*
X151051575Y-78787818D01*
X151115197Y-78816144D01*
X151300352Y-78855500D01*
X151300354Y-78855500D01*
X151489646Y-78855500D01*
X151489648Y-78855500D01*
X151613084Y-78829262D01*
X151674803Y-78816144D01*
X151847730Y-78739151D01*
X151899541Y-78701508D01*
X152000870Y-78627889D01*
X152039489Y-78584999D01*
X152127533Y-78487216D01*
X152222179Y-78323284D01*
X152280674Y-78143256D01*
X152300460Y-77955000D01*
X152280674Y-77766744D01*
X152222179Y-77586716D01*
X152222179Y-77586715D01*
X152127533Y-77422783D01*
X152000870Y-77282110D01*
X151847730Y-77170848D01*
X151674802Y-77093855D01*
X151489648Y-77054500D01*
X151489646Y-77054500D01*
X151300354Y-77054500D01*
X151300352Y-77054500D01*
X151115197Y-77093855D01*
X150942269Y-77170848D01*
X150789129Y-77282110D01*
X150662466Y-77422783D01*
X150567821Y-77586714D01*
X150528828Y-77706721D01*
X150490602Y-77763392D01*
X150428154Y-77791195D01*
X150360462Y-77781682D01*
X150296837Y-77753354D01*
X150111685Y-77714000D01*
X150111683Y-77714000D01*
X149922391Y-77714000D01*
X149922389Y-77714000D01*
X149737234Y-77753355D01*
X149564306Y-77830348D01*
X149411166Y-77941610D01*
X149284503Y-78082283D01*
X149189857Y-78246215D01*
X149131363Y-78426242D01*
X149111577Y-78614500D01*
X117074722Y-78614500D01*
X117107179Y-78558284D01*
X117165674Y-78378256D01*
X117185460Y-78190000D01*
X117165674Y-78001744D01*
X117125411Y-77877827D01*
X117107179Y-77821715D01*
X117012533Y-77657783D01*
X116885870Y-77517110D01*
X116855438Y-77495000D01*
X129789540Y-77495000D01*
X129809326Y-77683257D01*
X129867820Y-77863284D01*
X129962466Y-78027216D01*
X130089129Y-78167889D01*
X130242269Y-78279151D01*
X130415197Y-78356144D01*
X130600352Y-78395500D01*
X130600354Y-78395500D01*
X130789646Y-78395500D01*
X130789648Y-78395500D01*
X130917025Y-78368425D01*
X130974803Y-78356144D01*
X131147730Y-78279151D01*
X131193063Y-78246215D01*
X131300870Y-78167889D01*
X131427533Y-78027216D01*
X131522179Y-77863284D01*
X131532880Y-77830349D01*
X131580674Y-77683256D01*
X131600460Y-77495000D01*
X131580674Y-77306744D01*
X131536519Y-77170849D01*
X131522179Y-77126715D01*
X131427533Y-76962783D01*
X131300870Y-76822110D01*
X131187855Y-76740000D01*
X141094540Y-76740000D01*
X141114326Y-76928257D01*
X141172820Y-77108284D01*
X141267466Y-77272216D01*
X141394129Y-77412889D01*
X141547269Y-77524151D01*
X141720197Y-77601144D01*
X141905352Y-77640500D01*
X141905354Y-77640500D01*
X142094646Y-77640500D01*
X142094648Y-77640500D01*
X142218083Y-77614262D01*
X142279803Y-77601144D01*
X142452730Y-77524151D01*
X142574876Y-77435407D01*
X142605870Y-77412889D01*
X142619220Y-77398063D01*
X142732533Y-77272216D01*
X142768565Y-77209807D01*
X146505540Y-77209807D01*
X146525326Y-77398064D01*
X146583820Y-77578091D01*
X146678466Y-77742023D01*
X146805129Y-77882696D01*
X146958269Y-77993958D01*
X147131197Y-78070951D01*
X147316352Y-78110307D01*
X147316354Y-78110307D01*
X147505646Y-78110307D01*
X147505648Y-78110307D01*
X147669401Y-78075500D01*
X147690803Y-78070951D01*
X147863730Y-77993958D01*
X147917353Y-77954999D01*
X148016870Y-77882696D01*
X148044025Y-77852538D01*
X148143533Y-77742023D01*
X148238179Y-77578091D01*
X148296674Y-77398063D01*
X148316460Y-77209807D01*
X148296674Y-77021551D01*
X148238179Y-76841523D01*
X148238179Y-76841522D01*
X148143533Y-76677590D01*
X148016870Y-76536917D01*
X147863730Y-76425655D01*
X147690802Y-76348662D01*
X147505648Y-76309307D01*
X147505646Y-76309307D01*
X147316354Y-76309307D01*
X147316352Y-76309307D01*
X147131197Y-76348662D01*
X146958269Y-76425655D01*
X146805129Y-76536917D01*
X146678466Y-76677590D01*
X146583820Y-76841522D01*
X146525326Y-77021549D01*
X146505540Y-77209807D01*
X142768565Y-77209807D01*
X142827179Y-77108284D01*
X142885674Y-76928256D01*
X142905460Y-76740000D01*
X142885674Y-76551744D01*
X142833396Y-76390849D01*
X142827179Y-76371715D01*
X142732533Y-76207783D01*
X142605870Y-76067110D01*
X142452730Y-75955848D01*
X142279802Y-75878855D01*
X142094648Y-75839500D01*
X142094646Y-75839500D01*
X141905354Y-75839500D01*
X141905352Y-75839500D01*
X141720197Y-75878855D01*
X141547269Y-75955848D01*
X141394129Y-76067110D01*
X141267466Y-76207783D01*
X141172820Y-76371715D01*
X141114326Y-76551742D01*
X141094540Y-76740000D01*
X131187855Y-76740000D01*
X131147730Y-76710848D01*
X130974802Y-76633855D01*
X130789648Y-76594500D01*
X130789646Y-76594500D01*
X130600354Y-76594500D01*
X130600352Y-76594500D01*
X130415197Y-76633855D01*
X130242269Y-76710848D01*
X130089129Y-76822110D01*
X129962466Y-76962783D01*
X129867820Y-77126715D01*
X129809326Y-77306742D01*
X129789540Y-77495000D01*
X116855438Y-77495000D01*
X116732730Y-77405848D01*
X116559802Y-77328855D01*
X116374648Y-77289500D01*
X116374646Y-77289500D01*
X116185354Y-77289500D01*
X116185352Y-77289500D01*
X116000197Y-77328855D01*
X115827269Y-77405848D01*
X115674129Y-77517110D01*
X115547464Y-77657786D01*
X115542937Y-77665628D01*
X115508435Y-77703942D01*
X115461333Y-77724912D01*
X115409774Y-77724911D01*
X115219649Y-77684500D01*
X115219646Y-77684500D01*
X115030354Y-77684500D01*
X115030352Y-77684500D01*
X114845197Y-77723855D01*
X114672269Y-77800848D01*
X114519129Y-77912110D01*
X114392466Y-78052783D01*
X114297820Y-78216715D01*
X114239326Y-78396742D01*
X114220951Y-78571575D01*
X114219540Y-78585000D01*
X108835500Y-78585000D01*
X108835500Y-74275000D01*
X115849540Y-74275000D01*
X115869326Y-74463257D01*
X115927820Y-74643284D01*
X116022466Y-74807216D01*
X116149129Y-74947889D01*
X116302269Y-75059151D01*
X116475197Y-75136144D01*
X116660352Y-75175500D01*
X116660354Y-75175500D01*
X116849646Y-75175500D01*
X116849648Y-75175500D01*
X116973083Y-75149262D01*
X117034803Y-75136144D01*
X117207730Y-75059151D01*
X117360871Y-74947888D01*
X117487533Y-74807216D01*
X117582179Y-74643284D01*
X117640674Y-74463256D01*
X117660460Y-74275000D01*
X117640674Y-74086744D01*
X117582179Y-73906716D01*
X117582179Y-73906715D01*
X117555208Y-73860000D01*
X121904540Y-73860000D01*
X121924326Y-74048257D01*
X121982820Y-74228284D01*
X122077466Y-74392216D01*
X122204129Y-74532889D01*
X122357269Y-74644151D01*
X122530197Y-74721144D01*
X122715352Y-74760500D01*
X122715354Y-74760500D01*
X122904646Y-74760500D01*
X122904648Y-74760500D01*
X123028084Y-74734262D01*
X123089803Y-74721144D01*
X123262730Y-74644151D01*
X123415871Y-74532888D01*
X123542533Y-74392216D01*
X123591220Y-74307888D01*
X123637613Y-74227533D01*
X123683000Y-74182146D01*
X123745000Y-74165533D01*
X123807000Y-74182146D01*
X123852387Y-74227533D01*
X123947466Y-74392216D01*
X124074129Y-74532889D01*
X124227269Y-74644151D01*
X124400197Y-74721144D01*
X124585352Y-74760500D01*
X124585354Y-74760500D01*
X124774646Y-74760500D01*
X124774648Y-74760500D01*
X124898084Y-74734262D01*
X124959803Y-74721144D01*
X125132730Y-74644151D01*
X125285871Y-74532888D01*
X125412533Y-74392216D01*
X125461220Y-74307888D01*
X125507178Y-74228286D01*
X125508945Y-74222848D01*
X125541992Y-74170773D01*
X125596039Y-74141060D01*
X125657714Y-74141060D01*
X125711761Y-74170772D01*
X125744808Y-74222846D01*
X125762820Y-74278284D01*
X125857466Y-74442216D01*
X125984129Y-74582889D01*
X126137269Y-74694151D01*
X126310197Y-74771144D01*
X126495352Y-74810500D01*
X126495354Y-74810500D01*
X126684646Y-74810500D01*
X126684648Y-74810500D01*
X126808609Y-74784151D01*
X126869803Y-74771144D01*
X127042730Y-74694151D01*
X127071996Y-74672888D01*
X127195870Y-74582889D01*
X127322533Y-74442216D01*
X127417179Y-74278284D01*
X127435192Y-74222846D01*
X127475674Y-74098256D01*
X127495460Y-73910000D01*
X127475674Y-73721744D01*
X127447489Y-73634999D01*
X147529540Y-73634999D01*
X147549326Y-73823257D01*
X147607820Y-74003284D01*
X147702466Y-74167216D01*
X147829129Y-74307889D01*
X147982269Y-74419151D01*
X148155197Y-74496144D01*
X148340352Y-74535500D01*
X148340354Y-74535500D01*
X148529646Y-74535500D01*
X148529648Y-74535500D01*
X148653083Y-74509262D01*
X148714803Y-74496144D01*
X148887730Y-74419151D01*
X149040871Y-74307888D01*
X149116820Y-74223538D01*
X149166556Y-74189990D01*
X149226224Y-74183719D01*
X149281852Y-74206194D01*
X149382269Y-74279151D01*
X149555197Y-74356144D01*
X149740352Y-74395500D01*
X149740354Y-74395500D01*
X149929646Y-74395500D01*
X149929648Y-74395500D01*
X150067756Y-74366144D01*
X150114803Y-74356144D01*
X150287730Y-74279151D01*
X150357743Y-74228284D01*
X150440870Y-74167889D01*
X150478639Y-74125943D01*
X150567533Y-74027216D01*
X150583246Y-74000000D01*
X151704540Y-74000000D01*
X151724326Y-74188257D01*
X151782820Y-74368284D01*
X151877466Y-74532216D01*
X152004129Y-74672889D01*
X152157269Y-74784151D01*
X152330197Y-74861144D01*
X152515352Y-74900500D01*
X152515354Y-74900500D01*
X152704646Y-74900500D01*
X152704648Y-74900500D01*
X152828083Y-74874262D01*
X152889803Y-74861144D01*
X153062730Y-74784151D01*
X153215871Y-74672888D01*
X153342533Y-74532216D01*
X153413094Y-74410000D01*
X164240000Y-74410000D01*
X165340000Y-74410000D01*
X165340000Y-73310000D01*
X165840000Y-73310000D01*
X165840000Y-74410000D01*
X166940000Y-74410000D01*
X166940000Y-73762176D01*
X166933597Y-73702624D01*
X166883352Y-73567910D01*
X166797188Y-73452811D01*
X166682089Y-73366647D01*
X166547375Y-73316402D01*
X166487824Y-73310000D01*
X165840000Y-73310000D01*
X165340000Y-73310000D01*
X164692176Y-73310000D01*
X164632624Y-73316402D01*
X164497910Y-73366647D01*
X164382811Y-73452811D01*
X164296647Y-73567910D01*
X164246402Y-73702624D01*
X164240000Y-73762176D01*
X164240000Y-74410000D01*
X153413094Y-74410000D01*
X153437179Y-74368284D01*
X153495674Y-74188256D01*
X153515460Y-74000000D01*
X153495674Y-73811744D01*
X153453926Y-73683257D01*
X153437179Y-73631715D01*
X153342533Y-73467783D01*
X153215870Y-73327110D01*
X153062730Y-73215848D01*
X152889802Y-73138855D01*
X152704648Y-73099500D01*
X152704646Y-73099500D01*
X152515354Y-73099500D01*
X152515352Y-73099500D01*
X152330197Y-73138855D01*
X152157269Y-73215848D01*
X152004129Y-73327110D01*
X151877466Y-73467783D01*
X151782820Y-73631715D01*
X151724326Y-73811742D01*
X151704540Y-74000000D01*
X150583246Y-74000000D01*
X150662179Y-73863284D01*
X150720674Y-73683256D01*
X150740460Y-73495000D01*
X150720674Y-73306744D01*
X150666124Y-73138856D01*
X150662179Y-73126715D01*
X150567533Y-72962783D01*
X150440870Y-72822110D01*
X150287730Y-72710848D01*
X150114802Y-72633855D01*
X149929648Y-72594500D01*
X149929646Y-72594500D01*
X149740354Y-72594500D01*
X149740352Y-72594500D01*
X149555197Y-72633855D01*
X149382269Y-72710848D01*
X149229129Y-72822110D01*
X149153182Y-72906459D01*
X149103442Y-72940009D01*
X149043775Y-72946280D01*
X148988147Y-72923805D01*
X148887730Y-72850848D01*
X148714802Y-72773855D01*
X148529648Y-72734500D01*
X148529646Y-72734500D01*
X148340354Y-72734500D01*
X148340352Y-72734500D01*
X148155197Y-72773855D01*
X147982269Y-72850848D01*
X147829129Y-72962110D01*
X147702466Y-73102783D01*
X147607820Y-73266715D01*
X147549326Y-73446742D01*
X147529540Y-73634999D01*
X127447489Y-73634999D01*
X127418948Y-73547159D01*
X127417179Y-73541715D01*
X127322533Y-73377783D01*
X127195870Y-73237110D01*
X127042730Y-73125848D01*
X126869802Y-73048855D01*
X126684648Y-73009500D01*
X126684646Y-73009500D01*
X126495354Y-73009500D01*
X126495352Y-73009500D01*
X126310197Y-73048855D01*
X126137269Y-73125848D01*
X125984129Y-73237110D01*
X125857466Y-73377783D01*
X125762818Y-73541718D01*
X125761051Y-73547159D01*
X125728002Y-73599231D01*
X125673955Y-73628940D01*
X125612281Y-73628938D01*
X125558236Y-73599225D01*
X125525191Y-73547152D01*
X125523425Y-73541718D01*
X125507179Y-73491716D01*
X125484717Y-73452811D01*
X125412533Y-73327783D01*
X125285870Y-73187110D01*
X125132730Y-73075848D01*
X124959802Y-72998855D01*
X124774648Y-72959500D01*
X124774646Y-72959500D01*
X124585354Y-72959500D01*
X124585352Y-72959500D01*
X124400197Y-72998855D01*
X124227269Y-73075848D01*
X124074129Y-73187110D01*
X123947466Y-73327784D01*
X123852387Y-73492466D01*
X123807000Y-73537853D01*
X123745000Y-73554466D01*
X123683000Y-73537853D01*
X123637613Y-73492466D01*
X123542533Y-73327784D01*
X123415870Y-73187110D01*
X123262730Y-73075848D01*
X123089802Y-72998855D01*
X122904648Y-72959500D01*
X122904646Y-72959500D01*
X122715354Y-72959500D01*
X122715352Y-72959500D01*
X122530197Y-72998855D01*
X122357269Y-73075848D01*
X122204129Y-73187110D01*
X122077466Y-73327783D01*
X121982820Y-73491715D01*
X121924326Y-73671742D01*
X121904540Y-73860000D01*
X117555208Y-73860000D01*
X117487533Y-73742783D01*
X117360870Y-73602110D01*
X117207732Y-73490849D01*
X117179500Y-73478280D01*
X117134391Y-73444041D01*
X117109211Y-73393316D01*
X117109211Y-73336684D01*
X117134391Y-73285959D01*
X117179500Y-73251720D01*
X117207732Y-73239150D01*
X117360870Y-73127889D01*
X117487533Y-72987216D01*
X117582179Y-72823284D01*
X117598239Y-72773856D01*
X117640674Y-72643256D01*
X117660460Y-72455000D01*
X117640674Y-72266744D01*
X117582179Y-72086716D01*
X117582179Y-72086715D01*
X117563868Y-72054999D01*
X129770790Y-72054999D01*
X129790576Y-72243257D01*
X129849070Y-72423284D01*
X129943716Y-72587216D01*
X130070379Y-72727889D01*
X130223519Y-72839151D01*
X130396447Y-72916144D01*
X130581602Y-72955500D01*
X130581604Y-72955500D01*
X130770896Y-72955500D01*
X130770898Y-72955500D01*
X130894334Y-72929262D01*
X130956053Y-72916144D01*
X131128980Y-72839151D01*
X131243128Y-72756218D01*
X131282120Y-72727889D01*
X131408783Y-72587216D01*
X131419900Y-72567960D01*
X153586745Y-72567960D01*
X153606531Y-72756218D01*
X153665025Y-72936245D01*
X153759671Y-73100177D01*
X153886334Y-73240850D01*
X154039474Y-73352112D01*
X154212398Y-73429104D01*
X154212401Y-73429104D01*
X154212402Y-73429105D01*
X154230819Y-73433019D01*
X154277923Y-73453991D01*
X154312426Y-73492309D01*
X154328360Y-73541348D01*
X154344326Y-73693257D01*
X154402820Y-73873284D01*
X154497466Y-74037216D01*
X154624129Y-74177889D01*
X154777269Y-74289151D01*
X154950197Y-74366144D01*
X155135352Y-74405500D01*
X155135354Y-74405500D01*
X155324646Y-74405500D01*
X155324648Y-74405500D01*
X155448084Y-74379262D01*
X155509803Y-74366144D01*
X155682730Y-74289151D01*
X155773989Y-74222848D01*
X155835870Y-74177889D01*
X155846996Y-74165533D01*
X155962533Y-74037216D01*
X156057179Y-73873284D01*
X156115674Y-73693256D01*
X156135460Y-73505000D01*
X156115674Y-73316744D01*
X156073553Y-73187110D01*
X156057179Y-73136715D01*
X155962533Y-72972783D01*
X155835870Y-72832110D01*
X155682732Y-72720849D01*
X155509799Y-72643854D01*
X155491380Y-72639939D01*
X155444277Y-72618967D01*
X155409777Y-72580649D01*
X155393844Y-72531613D01*
X155377879Y-72379705D01*
X155319384Y-72199677D01*
X155319384Y-72199676D01*
X155224738Y-72035744D01*
X155098075Y-71895071D01*
X154944935Y-71783809D01*
X154772007Y-71706816D01*
X154586853Y-71667461D01*
X154586851Y-71667461D01*
X154397559Y-71667461D01*
X154397557Y-71667461D01*
X154212402Y-71706816D01*
X154039474Y-71783809D01*
X153886334Y-71895071D01*
X153759671Y-72035744D01*
X153665025Y-72199676D01*
X153606531Y-72379703D01*
X153586745Y-72567960D01*
X131419900Y-72567960D01*
X131503429Y-72423284D01*
X131554292Y-72266744D01*
X131561924Y-72243256D01*
X131581710Y-72055000D01*
X131561924Y-71866744D01*
X131531582Y-71773363D01*
X131503429Y-71686715D01*
X131408783Y-71522783D01*
X131282120Y-71382110D01*
X131128980Y-71270848D01*
X130956052Y-71193855D01*
X130770898Y-71154500D01*
X130770896Y-71154500D01*
X130581604Y-71154500D01*
X130581602Y-71154500D01*
X130396447Y-71193855D01*
X130223519Y-71270848D01*
X130070379Y-71382110D01*
X129943716Y-71522783D01*
X129849070Y-71686715D01*
X129790576Y-71866742D01*
X129770790Y-72054999D01*
X117563868Y-72054999D01*
X117487533Y-71922783D01*
X117360870Y-71782110D01*
X117207730Y-71670848D01*
X117034802Y-71593855D01*
X116849648Y-71554500D01*
X116849646Y-71554500D01*
X116660354Y-71554500D01*
X116660352Y-71554500D01*
X116475197Y-71593855D01*
X116302269Y-71670848D01*
X116149129Y-71782110D01*
X116022466Y-71922783D01*
X115927820Y-72086715D01*
X115869326Y-72266742D01*
X115849540Y-72455000D01*
X115869326Y-72643257D01*
X115927820Y-72823284D01*
X116022466Y-72987216D01*
X116149129Y-73127889D01*
X116302268Y-73239150D01*
X116330498Y-73251719D01*
X116375606Y-73285957D01*
X116400787Y-73336681D01*
X116400788Y-73393312D01*
X116375610Y-73444037D01*
X116330502Y-73478277D01*
X116302271Y-73490847D01*
X116149129Y-73602110D01*
X116022466Y-73742783D01*
X115927820Y-73906715D01*
X115869326Y-74086742D01*
X115849540Y-74275000D01*
X108835500Y-74275000D01*
X108835500Y-68354999D01*
X115849540Y-68354999D01*
X115869326Y-68543257D01*
X115927820Y-68723284D01*
X116022466Y-68887216D01*
X116149129Y-69027889D01*
X116302269Y-69139151D01*
X116475197Y-69216144D01*
X116591359Y-69240835D01*
X116650462Y-69271732D01*
X116685011Y-69328778D01*
X116685011Y-69395471D01*
X116650463Y-69452517D01*
X116591360Y-69483415D01*
X116495197Y-69503855D01*
X116322269Y-69580848D01*
X116169129Y-69692110D01*
X116042466Y-69832783D01*
X115947820Y-69996715D01*
X115889326Y-70176742D01*
X115869540Y-70364999D01*
X115889326Y-70553257D01*
X115947820Y-70733284D01*
X116042466Y-70897216D01*
X116169129Y-71037889D01*
X116322269Y-71149151D01*
X116495197Y-71226144D01*
X116680352Y-71265500D01*
X116680354Y-71265500D01*
X116869646Y-71265500D01*
X116869648Y-71265500D01*
X116993084Y-71239262D01*
X117054803Y-71226144D01*
X117227730Y-71149151D01*
X117380871Y-71037888D01*
X117507533Y-70897216D01*
X117602179Y-70733284D01*
X117624366Y-70665000D01*
X144749540Y-70665000D01*
X144769326Y-70853257D01*
X144827820Y-71033284D01*
X144922466Y-71197216D01*
X145049129Y-71337889D01*
X145202269Y-71449151D01*
X145375197Y-71526144D01*
X145560352Y-71565500D01*
X145560354Y-71565500D01*
X145749646Y-71565500D01*
X145749648Y-71565500D01*
X145873084Y-71539262D01*
X145934803Y-71526144D01*
X146107730Y-71449151D01*
X146200002Y-71382112D01*
X146260870Y-71337889D01*
X146387533Y-71197216D01*
X146482179Y-71033284D01*
X146526390Y-70897216D01*
X146540674Y-70853256D01*
X146560460Y-70665000D01*
X146540674Y-70476744D01*
X146491390Y-70325063D01*
X146482179Y-70296715D01*
X146387533Y-70132783D01*
X146260870Y-69992110D01*
X146107730Y-69880848D01*
X145934802Y-69803855D01*
X145749648Y-69764500D01*
X145749646Y-69764500D01*
X145560354Y-69764500D01*
X145560352Y-69764500D01*
X145375197Y-69803855D01*
X145202269Y-69880848D01*
X145049129Y-69992110D01*
X144922466Y-70132783D01*
X144827820Y-70296715D01*
X144769326Y-70476742D01*
X144749540Y-70665000D01*
X117624366Y-70665000D01*
X117660674Y-70553256D01*
X117680460Y-70365000D01*
X117660674Y-70176744D01*
X117612505Y-70028495D01*
X117602179Y-69996715D01*
X117507533Y-69832783D01*
X117380870Y-69692110D01*
X117227730Y-69580848D01*
X117054802Y-69503855D01*
X116938639Y-69479164D01*
X116879536Y-69448266D01*
X116844988Y-69391220D01*
X116844988Y-69324527D01*
X116879537Y-69267481D01*
X116938637Y-69236584D01*
X117034803Y-69216144D01*
X117207730Y-69139151D01*
X117360871Y-69027888D01*
X117394986Y-68990000D01*
X164004340Y-68990000D01*
X164024936Y-69225407D01*
X164069366Y-69391220D01*
X164086097Y-69453663D01*
X164185965Y-69667830D01*
X164321505Y-69861401D01*
X164488599Y-70028495D01*
X164682170Y-70164035D01*
X164887169Y-70259627D01*
X164936026Y-70300443D01*
X164958192Y-70360124D01*
X164947822Y-70422938D01*
X164907649Y-70472327D01*
X164839126Y-70522112D01*
X164712464Y-70662783D01*
X164617818Y-70826715D01*
X164559324Y-71006742D01*
X164539538Y-71195000D01*
X164559324Y-71383257D01*
X164617818Y-71563284D01*
X164712464Y-71727216D01*
X164839127Y-71867889D01*
X164992267Y-71979151D01*
X165165195Y-72056144D01*
X165350350Y-72095500D01*
X165350352Y-72095500D01*
X165539644Y-72095500D01*
X165539646Y-72095500D01*
X165663082Y-72069262D01*
X165724801Y-72056144D01*
X165897728Y-71979151D01*
X166050869Y-71867888D01*
X166177531Y-71727216D01*
X166272177Y-71563284D01*
X166330672Y-71383256D01*
X166350458Y-71195000D01*
X166330672Y-71006744D01*
X166280801Y-70853257D01*
X166272177Y-70826715D01*
X166177531Y-70662783D01*
X166050868Y-70522110D01*
X165915892Y-70424045D01*
X165875719Y-70374656D01*
X165865348Y-70311842D01*
X165887514Y-70252161D01*
X165936372Y-70211345D01*
X166037830Y-70164035D01*
X166231401Y-70028495D01*
X166398495Y-69861401D01*
X166534035Y-69667830D01*
X166633903Y-69453663D01*
X166695063Y-69225408D01*
X166715659Y-68990000D01*
X166695063Y-68754592D01*
X166633903Y-68526337D01*
X166534035Y-68312171D01*
X166398495Y-68118599D01*
X166231401Y-67951505D01*
X166045839Y-67821573D01*
X166006975Y-67777257D01*
X165992964Y-67720000D01*
X166006975Y-67662743D01*
X166045839Y-67618426D01*
X166231401Y-67488495D01*
X166398495Y-67321401D01*
X166534035Y-67127830D01*
X166633903Y-66913663D01*
X166695063Y-66685408D01*
X166715659Y-66450000D01*
X166695063Y-66214592D01*
X166633903Y-65986337D01*
X166534035Y-65772171D01*
X166398495Y-65578599D01*
X166231401Y-65411505D01*
X166045839Y-65281573D01*
X166006974Y-65237255D01*
X165992964Y-65179999D01*
X166006975Y-65122742D01*
X166045837Y-65078428D01*
X166231401Y-64948495D01*
X166398495Y-64781401D01*
X166534035Y-64587830D01*
X166633903Y-64373663D01*
X166695063Y-64145408D01*
X166715659Y-63910000D01*
X166695063Y-63674592D01*
X166633903Y-63446337D01*
X166534035Y-63232171D01*
X166398495Y-63038599D01*
X166231401Y-62871505D01*
X166045839Y-62741573D01*
X166006975Y-62697257D01*
X165992964Y-62640000D01*
X166006975Y-62582743D01*
X166045839Y-62538426D01*
X166231401Y-62408495D01*
X166398495Y-62241401D01*
X166534035Y-62047830D01*
X166633903Y-61833663D01*
X166695063Y-61605408D01*
X166715659Y-61370000D01*
X166695063Y-61134592D01*
X166633903Y-60906337D01*
X166534035Y-60692171D01*
X166398495Y-60498599D01*
X166276181Y-60376285D01*
X166244885Y-60323539D01*
X166242696Y-60262246D01*
X166270149Y-60207401D01*
X166320528Y-60172422D01*
X166452089Y-60123352D01*
X166567188Y-60037188D01*
X166653352Y-59922089D01*
X166703597Y-59787375D01*
X166710000Y-59727824D01*
X166710000Y-59080000D01*
X164010000Y-59080000D01*
X164010000Y-59727824D01*
X164016402Y-59787375D01*
X164066647Y-59922089D01*
X164152811Y-60037188D01*
X164267911Y-60123352D01*
X164399471Y-60172422D01*
X164449850Y-60207401D01*
X164477303Y-60262246D01*
X164475114Y-60323539D01*
X164443819Y-60376285D01*
X164321503Y-60498601D01*
X164185965Y-60692170D01*
X164086097Y-60906336D01*
X164024936Y-61134592D01*
X164004340Y-61370000D01*
X164024936Y-61605407D01*
X164069709Y-61772501D01*
X164086097Y-61833663D01*
X164185965Y-62047830D01*
X164321505Y-62241401D01*
X164488599Y-62408495D01*
X164674160Y-62538426D01*
X164713024Y-62582743D01*
X164727035Y-62640000D01*
X164713024Y-62697257D01*
X164674158Y-62741575D01*
X164497177Y-62865499D01*
X164488595Y-62871508D01*
X164321505Y-63038598D01*
X164185965Y-63232170D01*
X164086097Y-63446336D01*
X164024936Y-63674592D01*
X164004340Y-63910000D01*
X164024936Y-64145407D01*
X164069709Y-64312501D01*
X164086097Y-64373663D01*
X164185965Y-64587830D01*
X164321505Y-64781401D01*
X164488599Y-64948495D01*
X164674160Y-65078426D01*
X164713024Y-65122743D01*
X164727035Y-65180000D01*
X164713024Y-65237257D01*
X164674160Y-65281574D01*
X164537721Y-65377110D01*
X164488595Y-65411508D01*
X164321505Y-65578598D01*
X164185965Y-65772170D01*
X164086097Y-65986336D01*
X164024936Y-66214592D01*
X164004340Y-66450000D01*
X164024936Y-66685407D01*
X164064792Y-66834151D01*
X164086097Y-66913663D01*
X164185965Y-67127830D01*
X164321505Y-67321401D01*
X164488599Y-67488495D01*
X164674160Y-67618426D01*
X164713024Y-67662743D01*
X164727035Y-67720000D01*
X164713024Y-67777257D01*
X164674159Y-67821575D01*
X164488595Y-67951508D01*
X164321505Y-68118598D01*
X164185965Y-68312170D01*
X164086097Y-68526336D01*
X164024936Y-68754592D01*
X164004340Y-68990000D01*
X117394986Y-68990000D01*
X117487533Y-68887216D01*
X117582179Y-68723284D01*
X117640674Y-68543256D01*
X117660460Y-68355000D01*
X117640674Y-68166744D01*
X117610332Y-68073363D01*
X117582179Y-67986715D01*
X117506133Y-67855000D01*
X137539540Y-67855000D01*
X137559326Y-68043257D01*
X137617820Y-68223284D01*
X137712466Y-68387216D01*
X137839129Y-68527889D01*
X137992269Y-68639151D01*
X138165197Y-68716144D01*
X138350352Y-68755500D01*
X138350354Y-68755500D01*
X138539646Y-68755500D01*
X138539648Y-68755500D01*
X138663083Y-68729262D01*
X138724803Y-68716144D01*
X138897730Y-68639151D01*
X138897729Y-68639151D01*
X139050870Y-68527889D01*
X139052268Y-68526337D01*
X139177533Y-68387216D01*
X139272179Y-68223284D01*
X139330674Y-68043256D01*
X139350460Y-67855000D01*
X139330674Y-67666744D01*
X139272179Y-67486716D01*
X139272179Y-67486715D01*
X139177533Y-67322783D01*
X139050870Y-67182110D01*
X138897730Y-67070848D01*
X138724802Y-66993855D01*
X138539648Y-66954500D01*
X138539646Y-66954500D01*
X138350354Y-66954500D01*
X138350352Y-66954500D01*
X138165197Y-66993855D01*
X137992269Y-67070848D01*
X137839129Y-67182110D01*
X137712466Y-67322783D01*
X137617820Y-67486715D01*
X137559326Y-67666742D01*
X137539540Y-67855000D01*
X117506133Y-67855000D01*
X117487533Y-67822783D01*
X117360870Y-67682110D01*
X117207730Y-67570848D01*
X117034802Y-67493855D01*
X116849648Y-67454500D01*
X116849646Y-67454500D01*
X116660354Y-67454500D01*
X116660352Y-67454500D01*
X116475197Y-67493855D01*
X116302269Y-67570848D01*
X116149129Y-67682110D01*
X116022466Y-67822783D01*
X115927820Y-67986715D01*
X115869326Y-68166742D01*
X115849540Y-68354999D01*
X108835500Y-68354999D01*
X108835500Y-66049999D01*
X115549540Y-66049999D01*
X115569326Y-66238257D01*
X115627820Y-66418284D01*
X115722466Y-66582216D01*
X115849129Y-66722889D01*
X116002269Y-66834151D01*
X116175197Y-66911144D01*
X116360352Y-66950500D01*
X116360354Y-66950500D01*
X116549646Y-66950500D01*
X116549648Y-66950500D01*
X116673083Y-66924262D01*
X116734803Y-66911144D01*
X116907730Y-66834151D01*
X116907730Y-66834150D01*
X116919636Y-66828850D01*
X116921053Y-66832033D01*
X116958902Y-66817492D01*
X117022321Y-66827530D01*
X117109047Y-66866144D01*
X117165197Y-66891144D01*
X117350352Y-66930500D01*
X117350354Y-66930500D01*
X117539646Y-66930500D01*
X117539648Y-66930500D01*
X117663083Y-66904262D01*
X117724803Y-66891144D01*
X117897730Y-66814151D01*
X117897730Y-66814150D01*
X117909636Y-66808850D01*
X117910743Y-66811337D01*
X117951279Y-66795771D01*
X118014688Y-66805810D01*
X118150197Y-66866144D01*
X118335352Y-66905500D01*
X118335354Y-66905500D01*
X118524646Y-66905500D01*
X118524648Y-66905500D01*
X118648084Y-66879262D01*
X118709803Y-66866144D01*
X118882730Y-66789151D01*
X119035871Y-66677888D01*
X119162533Y-66537216D01*
X119257179Y-66373284D01*
X119315674Y-66193256D01*
X119335460Y-66005000D01*
X119315674Y-65816744D01*
X119285332Y-65723363D01*
X119257179Y-65636715D01*
X119162533Y-65472783D01*
X119035870Y-65332110D01*
X118971028Y-65285000D01*
X149999540Y-65285000D01*
X150019326Y-65473257D01*
X150077820Y-65653284D01*
X150172466Y-65817216D01*
X150299129Y-65957889D01*
X150452269Y-66069151D01*
X150625197Y-66146144D01*
X150810352Y-66185500D01*
X150810354Y-66185500D01*
X150999646Y-66185500D01*
X150999648Y-66185500D01*
X151123084Y-66159262D01*
X151184803Y-66146144D01*
X151357730Y-66069151D01*
X151510871Y-65957888D01*
X151637533Y-65817216D01*
X151732179Y-65653284D01*
X151790674Y-65473256D01*
X151810460Y-65285000D01*
X151790674Y-65096744D01*
X151742504Y-64948493D01*
X151732179Y-64916715D01*
X151637533Y-64752783D01*
X151510870Y-64612110D01*
X151357730Y-64500848D01*
X151184802Y-64423855D01*
X150999648Y-64384500D01*
X150999646Y-64384500D01*
X150810354Y-64384500D01*
X150810352Y-64384500D01*
X150625197Y-64423855D01*
X150452269Y-64500848D01*
X150299129Y-64612110D01*
X150172466Y-64752783D01*
X150077820Y-64916715D01*
X150019326Y-65096742D01*
X149999540Y-65285000D01*
X118971028Y-65285000D01*
X118882730Y-65220848D01*
X118709802Y-65143855D01*
X118524648Y-65104500D01*
X118524646Y-65104500D01*
X118335354Y-65104500D01*
X118335352Y-65104500D01*
X118150197Y-65143855D01*
X117965365Y-65226149D01*
X117964259Y-65223665D01*
X117923697Y-65239230D01*
X117860311Y-65229188D01*
X117724800Y-65168854D01*
X117539648Y-65129500D01*
X117539646Y-65129500D01*
X117350354Y-65129500D01*
X117350352Y-65129500D01*
X117165197Y-65168855D01*
X116980365Y-65251149D01*
X116978950Y-65247972D01*
X116941065Y-65262511D01*
X116877677Y-65252468D01*
X116734802Y-65188855D01*
X116549648Y-65149500D01*
X116549646Y-65149500D01*
X116360354Y-65149500D01*
X116360352Y-65149500D01*
X116175197Y-65188855D01*
X116002269Y-65265848D01*
X115849129Y-65377110D01*
X115722466Y-65517783D01*
X115627820Y-65681715D01*
X115569326Y-65861742D01*
X115549540Y-66049999D01*
X108835500Y-66049999D01*
X108835500Y-62412869D01*
X147494500Y-62412869D01*
X147500909Y-62472483D01*
X147551204Y-62607331D01*
X147637454Y-62722546D01*
X147752669Y-62808796D01*
X147887517Y-62859091D01*
X147947127Y-62865500D01*
X152042872Y-62865499D01*
X152102483Y-62859091D01*
X152237331Y-62808796D01*
X152352546Y-62722546D01*
X152438796Y-62607331D01*
X152489091Y-62472483D01*
X152495500Y-62412873D01*
X152495499Y-58580000D01*
X164010000Y-58580000D01*
X165110000Y-58580000D01*
X165110000Y-57480000D01*
X165610000Y-57480000D01*
X165610000Y-58580000D01*
X166710000Y-58580000D01*
X166710000Y-57932176D01*
X166703597Y-57872624D01*
X166653352Y-57737910D01*
X166567188Y-57622811D01*
X166452089Y-57536647D01*
X166317375Y-57486402D01*
X166257824Y-57480000D01*
X165610000Y-57480000D01*
X165110000Y-57480000D01*
X164462176Y-57480000D01*
X164402624Y-57486402D01*
X164267910Y-57536647D01*
X164152811Y-57622811D01*
X164066647Y-57737910D01*
X164016402Y-57872624D01*
X164010000Y-57932176D01*
X164010000Y-58580000D01*
X152495499Y-58580000D01*
X152495499Y-58317128D01*
X152489091Y-58257517D01*
X152438796Y-58122669D01*
X152352546Y-58007454D01*
X152237331Y-57921204D01*
X152102483Y-57870909D01*
X152042873Y-57864500D01*
X152042869Y-57864500D01*
X147947130Y-57864500D01*
X147887515Y-57870909D01*
X147752669Y-57921204D01*
X147637454Y-58007454D01*
X147551204Y-58122668D01*
X147500909Y-58257516D01*
X147494500Y-58317130D01*
X147494500Y-62412869D01*
X108835500Y-62412869D01*
X108835500Y-61489999D01*
X115519540Y-61489999D01*
X115539326Y-61678257D01*
X115597820Y-61858284D01*
X115692466Y-62022216D01*
X115819129Y-62162889D01*
X115972269Y-62274151D01*
X116145197Y-62351144D01*
X116330352Y-62390500D01*
X116330354Y-62390500D01*
X116519646Y-62390500D01*
X116519648Y-62390500D01*
X116643084Y-62364262D01*
X116704803Y-62351144D01*
X116877730Y-62274151D01*
X116877730Y-62274150D01*
X116889636Y-62268850D01*
X116890743Y-62271337D01*
X116931279Y-62255771D01*
X116994688Y-62265810D01*
X117085277Y-62306144D01*
X117130197Y-62326144D01*
X117315352Y-62365500D01*
X117315354Y-62365500D01*
X117504646Y-62365500D01*
X117504648Y-62365500D01*
X117628083Y-62339262D01*
X117689803Y-62326144D01*
X117862730Y-62249151D01*
X117862730Y-62249150D01*
X117874636Y-62243850D01*
X117876053Y-62247033D01*
X117913902Y-62232492D01*
X117977321Y-62242530D01*
X118120196Y-62306143D01*
X118120197Y-62306144D01*
X118305352Y-62345500D01*
X118305354Y-62345500D01*
X118494646Y-62345500D01*
X118494648Y-62345500D01*
X118618084Y-62319262D01*
X118679803Y-62306144D01*
X118852730Y-62229151D01*
X119005871Y-62117888D01*
X119132533Y-61977216D01*
X119227179Y-61813284D01*
X119285674Y-61633256D01*
X119305460Y-61445000D01*
X119285674Y-61256744D01*
X119245984Y-61134592D01*
X119227179Y-61076715D01*
X119132533Y-60912783D01*
X119005870Y-60772110D01*
X118852730Y-60660848D01*
X118679802Y-60583855D01*
X118494648Y-60544500D01*
X118494646Y-60544500D01*
X118305354Y-60544500D01*
X118305352Y-60544500D01*
X118120197Y-60583855D01*
X117935365Y-60666149D01*
X117933950Y-60662972D01*
X117896065Y-60677511D01*
X117832677Y-60667468D01*
X117689802Y-60603855D01*
X117504648Y-60564500D01*
X117504646Y-60564500D01*
X117315354Y-60564500D01*
X117315352Y-60564500D01*
X117130197Y-60603855D01*
X116945365Y-60686149D01*
X116944259Y-60683665D01*
X116903697Y-60699230D01*
X116840311Y-60689188D01*
X116704800Y-60628854D01*
X116519648Y-60589500D01*
X116519646Y-60589500D01*
X116330354Y-60589500D01*
X116330352Y-60589500D01*
X116145197Y-60628855D01*
X115972269Y-60705848D01*
X115819129Y-60817110D01*
X115692466Y-60957783D01*
X115597820Y-61121715D01*
X115539326Y-61301742D01*
X115519540Y-61489999D01*
X108835500Y-61489999D01*
X108835500Y-56724999D01*
X132389540Y-56724999D01*
X132409326Y-56913257D01*
X132467820Y-57093284D01*
X132562466Y-57257216D01*
X132689129Y-57397889D01*
X132842269Y-57509151D01*
X133015197Y-57586144D01*
X133200352Y-57625500D01*
X133200354Y-57625500D01*
X133389646Y-57625500D01*
X133389648Y-57625500D01*
X133527756Y-57596144D01*
X133574803Y-57586144D01*
X133685974Y-57536647D01*
X133747727Y-57509153D01*
X133779041Y-57486402D01*
X133895236Y-57401981D01*
X133942335Y-57381012D01*
X133993898Y-57381012D01*
X134041002Y-57401984D01*
X134202269Y-57519151D01*
X134375197Y-57596144D01*
X134560352Y-57635500D01*
X134560354Y-57635500D01*
X134749646Y-57635500D01*
X134749648Y-57635500D01*
X134873083Y-57609262D01*
X134934803Y-57596144D01*
X135107730Y-57519151D01*
X135243842Y-57420260D01*
X135299469Y-57397786D01*
X135359138Y-57404058D01*
X135398371Y-57430521D01*
X135398585Y-57430228D01*
X135407001Y-57436342D01*
X135408877Y-57437608D01*
X135409131Y-57437890D01*
X135562269Y-57549151D01*
X135735197Y-57626144D01*
X135920352Y-57665500D01*
X135920354Y-57665500D01*
X136109646Y-57665500D01*
X136109648Y-57665500D01*
X136250786Y-57635500D01*
X136294803Y-57626144D01*
X136467730Y-57549151D01*
X136522783Y-57509153D01*
X136620870Y-57437889D01*
X136672083Y-57381012D01*
X136747533Y-57297216D01*
X136842179Y-57133284D01*
X136900674Y-56953256D01*
X136920460Y-56765000D01*
X136900674Y-56576744D01*
X136842179Y-56396716D01*
X136842179Y-56396715D01*
X136747533Y-56232783D01*
X136620870Y-56092110D01*
X136467730Y-55980848D01*
X136294802Y-55903855D01*
X136109648Y-55864500D01*
X136109646Y-55864500D01*
X135920354Y-55864500D01*
X135920352Y-55864500D01*
X135735197Y-55903855D01*
X135562269Y-55980848D01*
X135426158Y-56079738D01*
X135370529Y-56102213D01*
X135310860Y-56095941D01*
X135271628Y-56069477D01*
X135271415Y-56069772D01*
X135262986Y-56063648D01*
X135261121Y-56062390D01*
X135260868Y-56062109D01*
X135107730Y-55950848D01*
X134934802Y-55873855D01*
X134749648Y-55834500D01*
X134749646Y-55834500D01*
X134560354Y-55834500D01*
X134560352Y-55834500D01*
X134375197Y-55873855D01*
X134202269Y-55950848D01*
X134054766Y-56058015D01*
X134007662Y-56078987D01*
X133956100Y-56078987D01*
X133908995Y-56058015D01*
X133900872Y-56052113D01*
X133900871Y-56052112D01*
X133747730Y-55940849D01*
X133747729Y-55940848D01*
X133747727Y-55940847D01*
X133574802Y-55863855D01*
X133389648Y-55824500D01*
X133389646Y-55824500D01*
X133200354Y-55824500D01*
X133200352Y-55824500D01*
X133015197Y-55863855D01*
X132842269Y-55940848D01*
X132689129Y-56052110D01*
X132562466Y-56192783D01*
X132467820Y-56356715D01*
X132409326Y-56536742D01*
X132389540Y-56724999D01*
X108835500Y-56724999D01*
X108835500Y-53122764D01*
X113010787Y-53122764D01*
X113040413Y-53392016D01*
X113056698Y-53454305D01*
X113108928Y-53654088D01*
X113185123Y-53833390D01*
X113214871Y-53903392D01*
X113355982Y-54134611D01*
X113529253Y-54342818D01*
X113529255Y-54342820D01*
X113730998Y-54523582D01*
X113956910Y-54673044D01*
X114052855Y-54718021D01*
X114202177Y-54788021D01*
X114461562Y-54866058D01*
X114461569Y-54866060D01*
X114729561Y-54905500D01*
X114932631Y-54905500D01*
X114932634Y-54905500D01*
X115135156Y-54890677D01*
X115135155Y-54890677D01*
X115399553Y-54831780D01*
X115652558Y-54735014D01*
X115888777Y-54602441D01*
X116103177Y-54436888D01*
X116291186Y-54241881D01*
X116448799Y-54021579D01*
X116572656Y-53780675D01*
X116660118Y-53524305D01*
X116689543Y-53365000D01*
X143239671Y-53365000D01*
X143241442Y-53392016D01*
X143258966Y-53659386D01*
X143316518Y-53948719D01*
X143411347Y-54228077D01*
X143541827Y-54492664D01*
X143705726Y-54737957D01*
X143788008Y-54831780D01*
X143900242Y-54959758D01*
X144018410Y-55063389D01*
X144122042Y-55154273D01*
X144367335Y-55318172D01*
X144631922Y-55448652D01*
X144725041Y-55480261D01*
X144911278Y-55543481D01*
X145056944Y-55572455D01*
X145200613Y-55601033D01*
X145200615Y-55601033D01*
X145200620Y-55601034D01*
X145495000Y-55620329D01*
X145789380Y-55601034D01*
X145789384Y-55601033D01*
X145789386Y-55601033D01*
X145860222Y-55586942D01*
X146078722Y-55543481D01*
X146358077Y-55448652D01*
X146622665Y-55318172D01*
X146867957Y-55154273D01*
X147089758Y-54959758D01*
X147284273Y-54737957D01*
X147448172Y-54492665D01*
X147578652Y-54228077D01*
X147610905Y-54133062D01*
X147642617Y-54083311D01*
X147693737Y-54053845D01*
X147752687Y-54051341D01*
X147806121Y-54076365D01*
X147841940Y-54123252D01*
X147852034Y-54181386D01*
X147839474Y-54364999D01*
X147859552Y-54658515D01*
X147919407Y-54946553D01*
X148017926Y-55223760D01*
X148153279Y-55484979D01*
X148322933Y-55725325D01*
X148489670Y-55903855D01*
X148523740Y-55940335D01*
X148573537Y-55980848D01*
X148751951Y-56125999D01*
X149003319Y-56278860D01*
X149162393Y-56347954D01*
X149273159Y-56396067D01*
X149556445Y-56475440D01*
X149847902Y-56515500D01*
X150142098Y-56515500D01*
X150433555Y-56475440D01*
X150716841Y-56396067D01*
X150986682Y-56278859D01*
X151238049Y-56125999D01*
X151466260Y-55940335D01*
X151667065Y-55725326D01*
X151741181Y-55620328D01*
X151836720Y-55484979D01*
X151836722Y-55484976D01*
X151972072Y-55223764D01*
X152070592Y-54946554D01*
X152130448Y-54658511D01*
X152150525Y-54365000D01*
X152137965Y-54181384D01*
X152148059Y-54123253D01*
X152183878Y-54076366D01*
X152237311Y-54051341D01*
X152296261Y-54053845D01*
X152347381Y-54083310D01*
X152379095Y-54133065D01*
X152411347Y-54228077D01*
X152541827Y-54492664D01*
X152705726Y-54737957D01*
X152788008Y-54831780D01*
X152900242Y-54959758D01*
X153018410Y-55063389D01*
X153122042Y-55154273D01*
X153367335Y-55318172D01*
X153631922Y-55448652D01*
X153725041Y-55480261D01*
X153911278Y-55543481D01*
X154056944Y-55572455D01*
X154200613Y-55601033D01*
X154200615Y-55601033D01*
X154200620Y-55601034D01*
X154495000Y-55620329D01*
X154789380Y-55601034D01*
X154789384Y-55601033D01*
X154789386Y-55601033D01*
X154860222Y-55586942D01*
X155078722Y-55543481D01*
X155358077Y-55448652D01*
X155622665Y-55318172D01*
X155867957Y-55154273D01*
X156089758Y-54959758D01*
X156284273Y-54737957D01*
X156448172Y-54492665D01*
X156578652Y-54228077D01*
X156673481Y-53948722D01*
X156723347Y-53698027D01*
X156731033Y-53659386D01*
X156731033Y-53659384D01*
X156731034Y-53659380D01*
X156750329Y-53365000D01*
X156731034Y-53070620D01*
X156727482Y-53052765D01*
X156727482Y-53052764D01*
X160800787Y-53052764D01*
X160830413Y-53322016D01*
X160848714Y-53392016D01*
X160898928Y-53584088D01*
X160982469Y-53780675D01*
X161004871Y-53833392D01*
X161145982Y-54064611D01*
X161293507Y-54241881D01*
X161319255Y-54272820D01*
X161520998Y-54453582D01*
X161746910Y-54603044D01*
X161853211Y-54652875D01*
X161992177Y-54718021D01*
X162251562Y-54796058D01*
X162251569Y-54796060D01*
X162519561Y-54835500D01*
X162722631Y-54835500D01*
X162722634Y-54835500D01*
X162925156Y-54820677D01*
X162925155Y-54820677D01*
X163189553Y-54761780D01*
X163442558Y-54665014D01*
X163678777Y-54532441D01*
X163893177Y-54366888D01*
X164081186Y-54171881D01*
X164238799Y-53951579D01*
X164362656Y-53710675D01*
X164450118Y-53454305D01*
X164499319Y-53187933D01*
X164509212Y-52917235D01*
X164479586Y-52647982D01*
X164411072Y-52385912D01*
X164305130Y-52136610D01*
X164164018Y-51905390D01*
X164164017Y-51905388D01*
X163990746Y-51697181D01*
X163885758Y-51603112D01*
X163789002Y-51516418D01*
X163563090Y-51366956D01*
X163563086Y-51366954D01*
X163317822Y-51251978D01*
X163058437Y-51173941D01*
X163058431Y-51173940D01*
X162790439Y-51134500D01*
X162587369Y-51134500D01*
X162587366Y-51134500D01*
X162384843Y-51149322D01*
X162120449Y-51208219D01*
X161867441Y-51304986D01*
X161631223Y-51437559D01*
X161416825Y-51603109D01*
X161228813Y-51798120D01*
X161071201Y-52018420D01*
X160947342Y-52259329D01*
X160859881Y-52515695D01*
X160810680Y-52782066D01*
X160800787Y-53052764D01*
X156727482Y-53052764D01*
X156700524Y-52917235D01*
X156673481Y-52781278D01*
X156578652Y-52501923D01*
X156495808Y-52333933D01*
X156448172Y-52237336D01*
X156284273Y-51992043D01*
X156208278Y-51905388D01*
X156089758Y-51770242D01*
X155979003Y-51673112D01*
X155867957Y-51575726D01*
X155622664Y-51411827D01*
X155358077Y-51281347D01*
X155078719Y-51186518D01*
X154789386Y-51128966D01*
X154495000Y-51109671D01*
X154200613Y-51128966D01*
X153911280Y-51186518D01*
X153631922Y-51281347D01*
X153367336Y-51411827D01*
X153122043Y-51575726D01*
X152900242Y-51770242D01*
X152705726Y-51992043D01*
X152541827Y-52237336D01*
X152411347Y-52501922D01*
X152316518Y-52781280D01*
X152258966Y-53070613D01*
X152258966Y-53070620D01*
X152239672Y-53364999D01*
X152239671Y-53365007D01*
X152253143Y-53570547D01*
X152243026Y-53628328D01*
X152207481Y-53674993D01*
X152154465Y-53700099D01*
X152095841Y-53698027D01*
X152044730Y-53669241D01*
X152012569Y-53620182D01*
X151972073Y-53506239D01*
X151972072Y-53506236D01*
X151836722Y-53245024D01*
X151836720Y-53245020D01*
X151667066Y-53004674D01*
X151466260Y-52789665D01*
X151238048Y-52604000D01*
X150986682Y-52451141D01*
X150741735Y-52344746D01*
X150692413Y-52306042D01*
X150668328Y-52248158D01*
X150675638Y-52185891D01*
X150712473Y-52135158D01*
X150741410Y-52111410D01*
X150760277Y-52088420D01*
X150872685Y-51951450D01*
X150970232Y-51768954D01*
X151030300Y-51570934D01*
X151050583Y-51365000D01*
X151030300Y-51159066D01*
X150970232Y-50961046D01*
X150872685Y-50778550D01*
X150807047Y-50698570D01*
X150741410Y-50618589D01*
X150643952Y-50538608D01*
X150581450Y-50487315D01*
X150398954Y-50389768D01*
X150299943Y-50359733D01*
X150200932Y-50329699D01*
X150063467Y-50316160D01*
X150046608Y-50314500D01*
X149943392Y-50314500D01*
X149928193Y-50315996D01*
X149789067Y-50329699D01*
X149591043Y-50389769D01*
X149408551Y-50487314D01*
X149248589Y-50618589D01*
X149117314Y-50778551D01*
X149019769Y-50961043D01*
X148959699Y-51159067D01*
X148939417Y-51365000D01*
X148959699Y-51570932D01*
X148961154Y-51575727D01*
X149019768Y-51768954D01*
X149117315Y-51951450D01*
X149136962Y-51975390D01*
X149248590Y-52111411D01*
X149277527Y-52135159D01*
X149314362Y-52185892D01*
X149321671Y-52248159D01*
X149297586Y-52306043D01*
X149248264Y-52344746D01*
X149003317Y-52451141D01*
X148751951Y-52604000D01*
X148523739Y-52789665D01*
X148322933Y-53004674D01*
X148153279Y-53245020D01*
X148017927Y-53506238D01*
X147977430Y-53620183D01*
X147945269Y-53669241D01*
X147894157Y-53698027D01*
X147835533Y-53700099D01*
X147782517Y-53674993D01*
X147746973Y-53628328D01*
X147736856Y-53570548D01*
X147750329Y-53365000D01*
X147731034Y-53070620D01*
X147727482Y-53052765D01*
X147700524Y-52917235D01*
X147673481Y-52781278D01*
X147578652Y-52501923D01*
X147495808Y-52333933D01*
X147448172Y-52237336D01*
X147284273Y-51992043D01*
X147208278Y-51905388D01*
X147089758Y-51770242D01*
X146979003Y-51673112D01*
X146867957Y-51575726D01*
X146622664Y-51411827D01*
X146358077Y-51281347D01*
X146078719Y-51186518D01*
X145789386Y-51128966D01*
X145495000Y-51109671D01*
X145200613Y-51128966D01*
X144911280Y-51186518D01*
X144631922Y-51281347D01*
X144367336Y-51411827D01*
X144122043Y-51575726D01*
X143900242Y-51770242D01*
X143705726Y-51992043D01*
X143541827Y-52237336D01*
X143411347Y-52501922D01*
X143316518Y-52781280D01*
X143258966Y-53070613D01*
X143242488Y-53322016D01*
X143239671Y-53365000D01*
X116689543Y-53365000D01*
X116709319Y-53257933D01*
X116719212Y-52987235D01*
X116689586Y-52717982D01*
X116621072Y-52455912D01*
X116515130Y-52206610D01*
X116374018Y-51975390D01*
X116374017Y-51975388D01*
X116200746Y-51767181D01*
X116095758Y-51673112D01*
X115999002Y-51586418D01*
X115773090Y-51436956D01*
X115773086Y-51436954D01*
X115527822Y-51321978D01*
X115268437Y-51243941D01*
X115268431Y-51243940D01*
X115000439Y-51204500D01*
X114797369Y-51204500D01*
X114797366Y-51204500D01*
X114594843Y-51219322D01*
X114330449Y-51278219D01*
X114077441Y-51374986D01*
X113841223Y-51507559D01*
X113626825Y-51673109D01*
X113438813Y-51868120D01*
X113281201Y-52088420D01*
X113157342Y-52329329D01*
X113069881Y-52585695D01*
X113020680Y-52852066D01*
X113010787Y-53122764D01*
X108835500Y-53122764D01*
X108835500Y-50335000D01*
X122919540Y-50335000D01*
X122939326Y-50523257D01*
X122997820Y-50703284D01*
X123092466Y-50867216D01*
X123219129Y-51007889D01*
X123372269Y-51119151D01*
X123545197Y-51196144D01*
X123730352Y-51235500D01*
X123730354Y-51235500D01*
X123919646Y-51235500D01*
X123919648Y-51235500D01*
X124047994Y-51208219D01*
X124104803Y-51196144D01*
X124277730Y-51119151D01*
X124430871Y-51007888D01*
X124557533Y-50867216D01*
X124652179Y-50703284D01*
X124710674Y-50523256D01*
X124730460Y-50335000D01*
X124710674Y-50146744D01*
X124652179Y-49966716D01*
X124652179Y-49966715D01*
X124557533Y-49802783D01*
X124430870Y-49662110D01*
X124277730Y-49550848D01*
X124104802Y-49473855D01*
X123919648Y-49434500D01*
X123919646Y-49434500D01*
X123730354Y-49434500D01*
X123730352Y-49434500D01*
X123545197Y-49473855D01*
X123372269Y-49550848D01*
X123219129Y-49662110D01*
X123092466Y-49802783D01*
X122997820Y-49966715D01*
X122939326Y-50146742D01*
X122919540Y-50335000D01*
X108835500Y-50335000D01*
X108835500Y-47569688D01*
X108852144Y-47507634D01*
X108897608Y-47462239D01*
X108959686Y-47445688D01*
X168420648Y-47535312D01*
G37*
%TD.AperFunction*%
%TD*%
M02*
