%TF.GenerationSoftware,KiCad,Pcbnew,7.0.1*%
%TF.CreationDate,2023-07-11T02:04:21-05:00*%
%TF.ProjectId,Power_Supply,506f7765-725f-4537-9570-706c792e6b69,1*%
%TF.SameCoordinates,Original*%
%TF.FileFunction,Soldermask,Bot*%
%TF.FilePolarity,Negative*%
%FSLAX46Y46*%
G04 Gerber Fmt 4.6, Leading zero omitted, Abs format (unit mm)*
G04 Created by KiCad (PCBNEW 7.0.1) date 2023-07-11 02:04:21*
%MOMM*%
%LPD*%
G01*
G04 APERTURE LIST*
%ADD10C,2.000000*%
%ADD11C,3.200000*%
%ADD12C,2.600000*%
%ADD13R,1.700000X1.700000*%
%ADD14O,1.700000X1.700000*%
%ADD15C,1.600000*%
%ADD16R,4.000000X4.000000*%
%ADD17C,3.300000*%
%ADD18C,3.500000*%
G04 APERTURE END LIST*
D10*
%TO.C,SW3*%
X142980000Y-91380000D03*
X142980000Y-97880000D03*
X138480000Y-91380000D03*
X138480000Y-97880000D03*
%TD*%
D11*
%TO.C,H2*%
X162655000Y-52985000D03*
%TD*%
%TO.C,H3*%
X161800000Y-100130000D03*
%TD*%
%TO.C,H1*%
X114865000Y-53055000D03*
%TD*%
D12*
%TO.C,H6*%
X159350000Y-90610000D03*
%TD*%
D13*
%TO.C,J4*%
X165360000Y-58830000D03*
D14*
X165360000Y-61370000D03*
X165360000Y-63910000D03*
X165360000Y-66450000D03*
X165360000Y-68990000D03*
%TD*%
D10*
%TO.C,SW1*%
X124830000Y-97740000D03*
X124830000Y-91240000D03*
X129330000Y-97740000D03*
X129330000Y-91240000D03*
%TD*%
D12*
%TO.C,H5*%
X164880000Y-90680000D03*
%TD*%
D15*
%TO.C,J1*%
X149995000Y-51365000D03*
D16*
X149995000Y-60365000D03*
D17*
X149995000Y-54365000D03*
D18*
X154495000Y-53365000D03*
X145495000Y-53365000D03*
%TD*%
D10*
%TO.C,SW2*%
X152880000Y-91290000D03*
X152880000Y-97790000D03*
X148380000Y-91290000D03*
X148380000Y-97790000D03*
%TD*%
D13*
%TO.C,J3*%
X165590000Y-74660000D03*
D14*
X165590000Y-77200000D03*
X165590000Y-79740000D03*
X165590000Y-82280000D03*
%TD*%
D11*
%TO.C,H4*%
X115210000Y-100200000D03*
%TD*%
D13*
%TO.C,J10*%
X117295000Y-109155000D03*
D14*
X117295000Y-106615000D03*
X114755000Y-109155000D03*
X114755000Y-106615000D03*
%TD*%
D13*
%TO.C,J5*%
X162275000Y-109365000D03*
D14*
X162275000Y-106825000D03*
X159735000Y-109365000D03*
X159735000Y-106825000D03*
%TD*%
M02*
