M48
; DRILL file {KiCad 7.0.1} date Tue Jul 11 02:04:07 2023
; FORMAT={-:-/ absolute / metric / decimal}
; #@! TF.CreationDate,2023-07-11T02:04:07-05:00
; #@! TF.GenerationSoftware,Kicad,Pcbnew,7.0.1
; #@! TF.FileFunction,MixedPlating,1,4
FMAT,2
METRIC
; #@! TA.AperFunction,Plated,PTH,ViaDrill
T1C0.400
; #@! TA.AperFunction,Plated,PTH,ComponentDrill
T2C1.000
; #@! TA.AperFunction,Plated,PTH,ComponentDrill
T3C1.100
; #@! TA.AperFunction,Plated,PTH,ComponentDrill
T4C2.200
; #@! TA.AperFunction,Plated,PTH,ComponentDrill
T5C2.300
; #@! TA.AperFunction,Plated,PTH,ComponentDrill
T6C2.500
; #@! TA.AperFunction,Plated,PTH,ComponentDrill
T7C3.000
; #@! TA.AperFunction,NonPlated,NPTH,ComponentDrill
T8C1.600
; #@! TA.AperFunction,NonPlated,NPTH,ComponentDrill
T9C3.200
%
G90
G05
T1
X110.835Y-63.72
X110.855Y-62.84
X110.855Y-64.65
X111.385Y-81.115
X112.035Y-63.71
X112.055Y-62.83
X112.055Y-64.64
X112.815Y-88.455
X114.195Y-88.425
X115.125Y-78.585
X115.415Y-87.976
X116.28Y-78.19
X116.28Y-79.2
X116.425Y-61.49
X116.455Y-66.05
X116.755Y-68.355
X116.755Y-72.455
X116.755Y-74.275
X116.775Y-70.365
X117.41Y-61.465
X117.445Y-66.03
X118.12Y-86.28
X118.4Y-61.445
X118.43Y-66.005
X119.11Y-86.29
X122.81Y-73.86
X123.08Y-79.7
X123.825Y-50.335
X124.68Y-73.86
X124.75Y-79.72
X125.915Y-50.335
X126.46Y-79.71
X126.59Y-73.91
X130.676Y-72.055
X130.695Y-77.495
X132.695Y-87.075
X133.295Y-56.725
X134.655Y-56.735
X136.015Y-56.765
X138.445Y-67.855
X141.055Y-73.781
X141.96Y-78.98
X142.0Y-76.74
X145.655Y-70.665
X145.935Y-65.325
X147.411Y-77.21
X148.435Y-73.635
X148.86Y-79.105
X149.835Y-73.495
X150.017Y-78.614
X150.905Y-65.285
X151.2Y-84.34
X151.395Y-77.955
X152.61Y-74.0
X153.65Y-65.3
X154.265Y-79.615
X154.492Y-72.568
X155.23Y-73.505
X158.255Y-71.505
X160.972Y-82.22
X163.4Y-77.175
X163.44Y-79.735
X165.445Y-71.195
T2
X114.755Y-106.615
X114.755Y-109.155
X117.295Y-106.615
X117.295Y-109.155
X159.735Y-106.825
X159.735Y-109.365
X162.275Y-106.825
X162.275Y-109.365
X165.36Y-58.83
X165.36Y-61.37
X165.36Y-63.91
X165.36Y-66.45
X165.36Y-68.99
X165.59Y-74.66
X165.59Y-77.2
X165.59Y-79.74
X165.59Y-82.28
T3
X124.83Y-91.24
X124.83Y-97.74
X129.33Y-91.24
X129.33Y-97.74
X138.48Y-91.38
X138.48Y-97.88
X142.98Y-91.38
X142.98Y-97.88
X148.38Y-91.29
X148.38Y-97.79
X152.88Y-91.29
X152.88Y-97.79
T4
X159.35Y-90.61
X164.88Y-90.68
T5
X149.995Y-54.365
T6
X145.495Y-53.365
X154.495Y-53.365
T7
X149.995Y-60.365
T8
X149.995Y-51.365
T9
X114.865Y-53.055
X115.21Y-100.2
X161.8Y-100.13
X162.655Y-52.985
T0
M30
