%TF.GenerationSoftware,KiCad,Pcbnew,7.0.1*%
%TF.CreationDate,2023-09-23T10:11:30-05:00*%
%TF.ProjectId,Power_Supply,506f7765-725f-4537-9570-706c792e6b69,1*%
%TF.SameCoordinates,Original*%
%TF.FileFunction,Paste,Top*%
%TF.FilePolarity,Positive*%
%FSLAX46Y46*%
G04 Gerber Fmt 4.6, Leading zero omitted, Abs format (unit mm)*
G04 Created by KiCad (PCBNEW 7.0.1) date 2023-09-23 10:11:30*
%MOMM*%
%LPD*%
G01*
G04 APERTURE LIST*
G04 Aperture macros list*
%AMRoundRect*
0 Rectangle with rounded corners*
0 $1 Rounding radius*
0 $2 $3 $4 $5 $6 $7 $8 $9 X,Y pos of 4 corners*
0 Add a 4 corners polygon primitive as box body*
4,1,4,$2,$3,$4,$5,$6,$7,$8,$9,$2,$3,0*
0 Add four circle primitives for the rounded corners*
1,1,$1+$1,$2,$3*
1,1,$1+$1,$4,$5*
1,1,$1+$1,$6,$7*
1,1,$1+$1,$8,$9*
0 Add four rect primitives between the rounded corners*
20,1,$1+$1,$2,$3,$4,$5,0*
20,1,$1+$1,$4,$5,$6,$7,0*
20,1,$1+$1,$6,$7,$8,$9,0*
20,1,$1+$1,$8,$9,$2,$3,0*%
G04 Aperture macros list end*
%ADD10RoundRect,0.250000X0.475000X-0.337500X0.475000X0.337500X-0.475000X0.337500X-0.475000X-0.337500X0*%
%ADD11RoundRect,0.237500X-0.300000X-0.237500X0.300000X-0.237500X0.300000X0.237500X-0.300000X0.237500X0*%
%ADD12R,1.750000X0.950000*%
%ADD13R,1.750000X3.200000*%
%ADD14RoundRect,0.250000X0.337500X0.475000X-0.337500X0.475000X-0.337500X-0.475000X0.337500X-0.475000X0*%
%ADD15RoundRect,0.237500X0.237500X-0.300000X0.237500X0.300000X-0.237500X0.300000X-0.237500X-0.300000X0*%
%ADD16RoundRect,0.250000X-0.700000X0.362500X-0.700000X-0.362500X0.700000X-0.362500X0.700000X0.362500X0*%
%ADD17R,0.600000X0.250000*%
%ADD18R,0.250000X0.600000*%
%ADD19R,1.350000X0.250000*%
%ADD20R,1.700000X0.250000*%
%ADD21R,0.250000X0.250000*%
%ADD22RoundRect,0.237500X-0.237500X0.300000X-0.237500X-0.300000X0.237500X-0.300000X0.237500X0.300000X0*%
%ADD23RoundRect,0.225000X0.225000X0.375000X-0.225000X0.375000X-0.225000X-0.375000X0.225000X-0.375000X0*%
%ADD24R,0.400000X1.350000*%
%ADD25R,1.450000X1.300000*%
%ADD26R,1.600000X1.400000*%
%ADD27R,1.900000X1.900000*%
%ADD28RoundRect,0.250000X-0.337500X-0.475000X0.337500X-0.475000X0.337500X0.475000X-0.337500X0.475000X0*%
%ADD29R,1.100000X2.000000*%
%ADD30R,0.800000X0.800000*%
%ADD31R,3.400000X0.980000*%
%ADD32R,2.000000X1.100000*%
%ADD33RoundRect,0.250000X-0.350000X-0.450000X0.350000X-0.450000X0.350000X0.450000X-0.350000X0.450000X0*%
%ADD34RoundRect,0.160000X-0.197500X-0.160000X0.197500X-0.160000X0.197500X0.160000X-0.197500X0.160000X0*%
%ADD35RoundRect,0.250000X0.325000X0.450000X-0.325000X0.450000X-0.325000X-0.450000X0.325000X-0.450000X0*%
%ADD36RoundRect,0.237500X0.300000X0.237500X-0.300000X0.237500X-0.300000X-0.237500X0.300000X-0.237500X0*%
%ADD37R,1.200000X3.500000*%
%ADD38RoundRect,0.075000X-0.700000X-0.075000X0.700000X-0.075000X0.700000X0.075000X-0.700000X0.075000X0*%
%ADD39RoundRect,0.075000X-0.075000X-0.700000X0.075000X-0.700000X0.075000X0.700000X-0.075000X0.700000X0*%
%ADD40RoundRect,0.250000X0.625000X-0.400000X0.625000X0.400000X-0.625000X0.400000X-0.625000X-0.400000X0*%
%ADD41RoundRect,0.160000X0.197500X0.160000X-0.197500X0.160000X-0.197500X-0.160000X0.197500X-0.160000X0*%
G04 APERTURE END LIST*
D10*
%TO.C,C4*%
X138250000Y-83287500D03*
X138250000Y-81212500D03*
%TD*%
D11*
%TO.C,C17*%
X126637500Y-85825000D03*
X128362500Y-85825000D03*
%TD*%
D12*
%TO.C,IC3*%
X158850000Y-80200000D03*
X158850000Y-82500000D03*
X158850000Y-84800000D03*
D13*
X165150000Y-82500000D03*
%TD*%
D14*
%TO.C,C2*%
X141287500Y-85500000D03*
X139212500Y-85500000D03*
%TD*%
D11*
%TO.C,C11*%
X163637500Y-63750000D03*
X165362500Y-63750000D03*
%TD*%
D15*
%TO.C,C25*%
X155500000Y-84362500D03*
X155500000Y-82637500D03*
%TD*%
D16*
%TO.C,FB1*%
X157250000Y-66837500D03*
X157250000Y-70162500D03*
%TD*%
D17*
%TO.C,IC1*%
X141074000Y-80600000D03*
X141074000Y-81100000D03*
X141074000Y-81600000D03*
X141074000Y-82100000D03*
D18*
X141500000Y-82750000D03*
X142000000Y-82750000D03*
X142500000Y-82750000D03*
X143000000Y-82750000D03*
D19*
X143000000Y-81850000D03*
D20*
X142825000Y-81350000D03*
D19*
X143000000Y-80850000D03*
D18*
X143000000Y-79950000D03*
X142500000Y-79950000D03*
X142000000Y-79950000D03*
X141500000Y-79950000D03*
D21*
X142750000Y-80125000D03*
X142750000Y-82575000D03*
%TD*%
D11*
%TO.C,C15*%
X122637500Y-94250000D03*
X124362500Y-94250000D03*
%TD*%
D22*
%TO.C,C27*%
X155500000Y-77887500D03*
X155500000Y-79612500D03*
%TD*%
D11*
%TO.C,C9*%
X114137500Y-83075000D03*
X115862500Y-83075000D03*
%TD*%
D23*
%TO.C,D3*%
X133150000Y-65750000D03*
X129850000Y-65750000D03*
%TD*%
D24*
%TO.C,J2*%
X133100000Y-52975000D03*
X132450000Y-52975000D03*
X131800000Y-52975000D03*
X131150000Y-52975000D03*
X130500000Y-52975000D03*
D25*
X135225000Y-50300000D03*
X128375000Y-50300000D03*
D26*
X135000000Y-52750000D03*
X128600000Y-52750000D03*
D27*
X133000000Y-50300000D03*
X130600000Y-50300000D03*
%TD*%
D28*
%TO.C,C3*%
X145462500Y-88750000D03*
X147537500Y-88750000D03*
%TD*%
D29*
%TO.C,D2*%
X136250000Y-64130000D03*
D30*
X136250000Y-62230000D03*
%TD*%
D31*
%TO.C,L1*%
X146750000Y-82435000D03*
X146750000Y-80065000D03*
%TD*%
D14*
%TO.C,C7*%
X141287500Y-75500000D03*
X139212500Y-75500000D03*
%TD*%
D32*
%TO.C,D5*%
X144620000Y-74750000D03*
D30*
X146520000Y-74750000D03*
%TD*%
D11*
%TO.C,C14*%
X109637500Y-81500000D03*
X111362500Y-81500000D03*
%TD*%
D33*
%TO.C,R4*%
X122750000Y-50500000D03*
X124750000Y-50500000D03*
%TD*%
D15*
%TO.C,C10*%
X152250000Y-84362500D03*
X152250000Y-82637500D03*
%TD*%
D34*
%TO.C,R5*%
X115652500Y-94500000D03*
X116847500Y-94500000D03*
%TD*%
D35*
%TO.C,D4*%
X120275000Y-50500000D03*
X118225000Y-50500000D03*
%TD*%
D28*
%TO.C,C8*%
X144212500Y-77000000D03*
X146287500Y-77000000D03*
%TD*%
D11*
%TO.C,C18*%
X130887500Y-73250000D03*
X132612500Y-73250000D03*
%TD*%
D36*
%TO.C,C23*%
X119862500Y-85825000D03*
X118137500Y-85825000D03*
%TD*%
D11*
%TO.C,C20*%
X119387500Y-67750000D03*
X121112500Y-67750000D03*
%TD*%
D34*
%TO.C,R7*%
X123152500Y-67750000D03*
X124347500Y-67750000D03*
%TD*%
D11*
%TO.C,C13*%
X109637500Y-69750000D03*
X111362500Y-69750000D03*
%TD*%
D37*
%TO.C,Y1*%
X111500000Y-78250000D03*
X111500000Y-72750000D03*
%TD*%
D11*
%TO.C,C24*%
X163637500Y-66750000D03*
X165362500Y-66750000D03*
%TD*%
D33*
%TO.C,R2*%
X139250000Y-78000000D03*
X141250000Y-78000000D03*
%TD*%
D11*
%TO.C,C16*%
X122637500Y-85825000D03*
X124362500Y-85825000D03*
%TD*%
D36*
%TO.C,C21*%
X117112500Y-67750000D03*
X115387500Y-67750000D03*
%TD*%
D29*
%TO.C,D1*%
X140250000Y-64130000D03*
D30*
X140250000Y-62230000D03*
%TD*%
D11*
%TO.C,C12*%
X114137500Y-85825000D03*
X115862500Y-85825000D03*
%TD*%
D28*
%TO.C,C1*%
X145462500Y-85500000D03*
X147537500Y-85500000D03*
%TD*%
D14*
%TO.C,C5*%
X141287500Y-88750000D03*
X139212500Y-88750000D03*
%TD*%
%TO.C,C6*%
X141287500Y-72750000D03*
X139212500Y-72750000D03*
%TD*%
D38*
%TO.C,U1*%
X117075000Y-73325000D03*
X117075000Y-73825000D03*
X117075000Y-74325000D03*
X117075000Y-74825000D03*
X117075000Y-75325000D03*
X117075000Y-75825000D03*
X117075000Y-76325000D03*
X117075000Y-76825000D03*
X117075000Y-77325000D03*
X117075000Y-77825000D03*
X117075000Y-78325000D03*
X117075000Y-78825000D03*
X117075000Y-79325000D03*
X117075000Y-79825000D03*
X117075000Y-80325000D03*
X117075000Y-80825000D03*
D39*
X119000000Y-82750000D03*
X119500000Y-82750000D03*
X120000000Y-82750000D03*
X120500000Y-82750000D03*
X121000000Y-82750000D03*
X121500000Y-82750000D03*
X122000000Y-82750000D03*
X122500000Y-82750000D03*
X123000000Y-82750000D03*
X123500000Y-82750000D03*
X124000000Y-82750000D03*
X124500000Y-82750000D03*
X125000000Y-82750000D03*
X125500000Y-82750000D03*
X126000000Y-82750000D03*
X126500000Y-82750000D03*
D38*
X128425000Y-80825000D03*
X128425000Y-80325000D03*
X128425000Y-79825000D03*
X128425000Y-79325000D03*
X128425000Y-78825000D03*
X128425000Y-78325000D03*
X128425000Y-77825000D03*
X128425000Y-77325000D03*
X128425000Y-76825000D03*
X128425000Y-76325000D03*
X128425000Y-75825000D03*
X128425000Y-75325000D03*
X128425000Y-74825000D03*
X128425000Y-74325000D03*
X128425000Y-73825000D03*
X128425000Y-73325000D03*
D39*
X126500000Y-71400000D03*
X126000000Y-71400000D03*
X125500000Y-71400000D03*
X125000000Y-71400000D03*
X124500000Y-71400000D03*
X124000000Y-71400000D03*
X123500000Y-71400000D03*
X123000000Y-71400000D03*
X122500000Y-71400000D03*
X122000000Y-71400000D03*
X121500000Y-71400000D03*
X121000000Y-71400000D03*
X120500000Y-71400000D03*
X120000000Y-71400000D03*
X119500000Y-71400000D03*
X119000000Y-71400000D03*
%TD*%
D34*
%TO.C,R3*%
X123152500Y-65000000D03*
X124347500Y-65000000D03*
%TD*%
D40*
%TO.C,R1*%
X135750000Y-83300000D03*
X135750000Y-80200000D03*
%TD*%
D22*
%TO.C,C26*%
X152250000Y-77887500D03*
X152250000Y-79612500D03*
%TD*%
D36*
%TO.C,C22*%
X117112500Y-70825000D03*
X115387500Y-70825000D03*
%TD*%
D41*
%TO.C,R6*%
X119847500Y-94500000D03*
X118652500Y-94500000D03*
%TD*%
D11*
%TO.C,C19*%
X130887500Y-76250000D03*
X132612500Y-76250000D03*
%TD*%
D33*
%TO.C,R8*%
X131080000Y-85852000D03*
X133080000Y-85852000D03*
%TD*%
M02*
