%TF.GenerationSoftware,KiCad,Pcbnew,7.0.1*%
%TF.CreationDate,2023-05-25T09:43:19-05:00*%
%TF.ProjectId,power_supply,706f7765-725f-4737-9570-706c792e6b69,rev?*%
%TF.SameCoordinates,Original*%
%TF.FileFunction,Paste,Top*%
%TF.FilePolarity,Positive*%
%FSLAX46Y46*%
G04 Gerber Fmt 4.6, Leading zero omitted, Abs format (unit mm)*
G04 Created by KiCad (PCBNEW 7.0.1) date 2023-05-25 09:43:19*
%MOMM*%
%LPD*%
G01*
G04 APERTURE LIST*
G04 Aperture macros list*
%AMRoundRect*
0 Rectangle with rounded corners*
0 $1 Rounding radius*
0 $2 $3 $4 $5 $6 $7 $8 $9 X,Y pos of 4 corners*
0 Add a 4 corners polygon primitive as box body*
4,1,4,$2,$3,$4,$5,$6,$7,$8,$9,$2,$3,0*
0 Add four circle primitives for the rounded corners*
1,1,$1+$1,$2,$3*
1,1,$1+$1,$4,$5*
1,1,$1+$1,$6,$7*
1,1,$1+$1,$8,$9*
0 Add four rect primitives between the rounded corners*
20,1,$1+$1,$2,$3,$4,$5,0*
20,1,$1+$1,$4,$5,$6,$7,0*
20,1,$1+$1,$6,$7,$8,$9,0*
20,1,$1+$1,$8,$9,$2,$3,0*%
G04 Aperture macros list end*
%ADD10RoundRect,0.140000X-0.170000X0.140000X-0.170000X-0.140000X0.170000X-0.140000X0.170000X0.140000X0*%
%ADD11RoundRect,0.250000X0.250000X0.475000X-0.250000X0.475000X-0.250000X-0.475000X0.250000X-0.475000X0*%
%ADD12RoundRect,0.140000X0.140000X0.170000X-0.140000X0.170000X-0.140000X-0.170000X0.140000X-0.170000X0*%
%ADD13RoundRect,0.225000X-0.225000X-0.250000X0.225000X-0.250000X0.225000X0.250000X-0.225000X0.250000X0*%
%ADD14RoundRect,0.140000X-0.140000X-0.170000X0.140000X-0.170000X0.140000X0.170000X-0.140000X0.170000X0*%
%ADD15RoundRect,0.250000X0.475000X-0.250000X0.475000X0.250000X-0.475000X0.250000X-0.475000X-0.250000X0*%
%ADD16RoundRect,0.135000X-0.185000X0.135000X-0.185000X-0.135000X0.185000X-0.135000X0.185000X0.135000X0*%
%ADD17RoundRect,0.250000X-0.475000X0.250000X-0.475000X-0.250000X0.475000X-0.250000X0.475000X0.250000X0*%
%ADD18RoundRect,0.250000X0.700000X-0.275000X0.700000X0.275000X-0.700000X0.275000X-0.700000X-0.275000X0*%
%ADD19RoundRect,0.135000X-0.135000X-0.185000X0.135000X-0.185000X0.135000X0.185000X-0.135000X0.185000X0*%
%ADD20R,0.600000X0.250000*%
%ADD21R,0.250000X0.600000*%
%ADD22R,1.350000X0.250000*%
%ADD23R,1.700000X0.250000*%
%ADD24R,0.250000X0.250000*%
%ADD25RoundRect,0.250000X-0.250000X-0.475000X0.250000X-0.475000X0.250000X0.475000X-0.250000X0.475000X0*%
%ADD26R,3.500000X1.200000*%
%ADD27RoundRect,0.140000X0.170000X-0.140000X0.170000X0.140000X-0.170000X0.140000X-0.170000X-0.140000X0*%
%ADD28RoundRect,0.225000X-0.375000X0.225000X-0.375000X-0.225000X0.375000X-0.225000X0.375000X0.225000X0*%
%ADD29RoundRect,0.075000X-0.700000X-0.075000X0.700000X-0.075000X0.700000X0.075000X-0.700000X0.075000X0*%
%ADD30RoundRect,0.075000X-0.075000X-0.700000X0.075000X-0.700000X0.075000X0.700000X-0.075000X0.700000X0*%
%ADD31R,0.450000X1.380000*%
%ADD32R,1.650000X1.300000*%
%ADD33R,1.425000X1.550000*%
%ADD34R,1.800000X1.900000*%
%ADD35R,1.000000X1.900000*%
%ADD36RoundRect,0.218750X0.256250X-0.218750X0.256250X0.218750X-0.256250X0.218750X-0.256250X-0.218750X0*%
%ADD37R,1.100000X1.450000*%
%ADD38R,0.800000X0.800000*%
%ADD39RoundRect,0.150000X0.512500X0.150000X-0.512500X0.150000X-0.512500X-0.150000X0.512500X-0.150000X0*%
%ADD40R,0.700000X1.525000*%
G04 APERTURE END LIST*
D10*
%TO.C,C5*%
X212430000Y-56320000D03*
X212430000Y-57280000D03*
%TD*%
D11*
%TO.C,C18*%
X195360000Y-87850000D03*
X193460000Y-87850000D03*
%TD*%
D12*
%TO.C,C21*%
X195560000Y-47920000D03*
X194600000Y-47920000D03*
%TD*%
D13*
%TO.C,C16*%
X202415000Y-74050000D03*
X203965000Y-74050000D03*
%TD*%
D14*
%TO.C,C10*%
X202420000Y-71230000D03*
X203380000Y-71230000D03*
%TD*%
D15*
%TO.C,C19*%
X205770000Y-45380000D03*
X205770000Y-43480000D03*
%TD*%
D16*
%TO.C,R1*%
X191070000Y-45200000D03*
X191070000Y-46220000D03*
%TD*%
D10*
%TO.C,C3*%
X209370000Y-60540000D03*
X209370000Y-61500000D03*
%TD*%
D17*
%TO.C,C24*%
X198910000Y-41730000D03*
X198910000Y-43630000D03*
%TD*%
D13*
%TO.C,C11*%
X198965000Y-71440000D03*
X200515000Y-71440000D03*
%TD*%
D17*
%TO.C,C34*%
X216520000Y-71980000D03*
X216520000Y-73880000D03*
%TD*%
D18*
%TO.C,FB2*%
X203040000Y-107220000D03*
X203040000Y-104070000D03*
%TD*%
D19*
%TO.C,R2*%
X193730000Y-84660000D03*
X194750000Y-84660000D03*
%TD*%
D14*
%TO.C,C27*%
X206780000Y-100330000D03*
X207740000Y-100330000D03*
%TD*%
D10*
%TO.C,C9*%
X218570000Y-56280000D03*
X218570000Y-57240000D03*
%TD*%
D17*
%TO.C,C1*%
X221080000Y-71920000D03*
X221080000Y-73820000D03*
%TD*%
D19*
%TO.C,R11*%
X193120000Y-71210000D03*
X194140000Y-71210000D03*
%TD*%
%TO.C,R13*%
X207260000Y-73090000D03*
X208280000Y-73090000D03*
%TD*%
D15*
%TO.C,C20*%
X214150000Y-45610000D03*
X214150000Y-43710000D03*
%TD*%
D20*
%TO.C,IC2*%
X205534000Y-77670000D03*
X205534000Y-78170000D03*
X205534000Y-78670000D03*
X205534000Y-79170000D03*
D21*
X205960000Y-79820000D03*
X206460000Y-79820000D03*
X206960000Y-79820000D03*
X207460000Y-79820000D03*
D22*
X207460000Y-78920000D03*
D23*
X207285000Y-78420000D03*
D22*
X207460000Y-77920000D03*
D21*
X207460000Y-77020000D03*
X206960000Y-77020000D03*
X206460000Y-77020000D03*
X205960000Y-77020000D03*
D24*
X207210000Y-77195000D03*
X207210000Y-79645000D03*
%TD*%
D10*
%TO.C,C6*%
X215520000Y-56260000D03*
X215520000Y-57220000D03*
%TD*%
D14*
%TO.C,C25*%
X203020000Y-110040000D03*
X203980000Y-110040000D03*
%TD*%
D19*
%TO.C,R9*%
X193030000Y-74230000D03*
X194050000Y-74230000D03*
%TD*%
D12*
%TO.C,C14*%
X189170000Y-49170000D03*
X188210000Y-49170000D03*
%TD*%
D25*
%TO.C,C31*%
X206730000Y-97820000D03*
X208630000Y-97820000D03*
%TD*%
D26*
%TO.C,Y1*%
X182030000Y-53530000D03*
X187530000Y-53530000D03*
%TD*%
D14*
%TO.C,C8*%
X196090000Y-71210000D03*
X197050000Y-71210000D03*
%TD*%
D27*
%TO.C,C2*%
X201810000Y-80770000D03*
X201810000Y-79810000D03*
%TD*%
D28*
%TO.C,D2*%
X217110000Y-43720000D03*
X217110000Y-47020000D03*
%TD*%
D12*
%TO.C,C12*%
X183190000Y-60570000D03*
X182230000Y-60570000D03*
%TD*%
D11*
%TO.C,C23*%
X195290000Y-91430000D03*
X193390000Y-91430000D03*
%TD*%
D19*
%TO.C,R3*%
X193830000Y-94420000D03*
X194850000Y-94420000D03*
%TD*%
D18*
%TO.C,FB1*%
X195100000Y-44885000D03*
X195100000Y-41735000D03*
%TD*%
D29*
%TO.C,U1*%
X193220000Y-56640000D03*
X193220000Y-57140000D03*
X193220000Y-57640000D03*
X193220000Y-58140000D03*
X193220000Y-58640000D03*
X193220000Y-59140000D03*
X193220000Y-59640000D03*
X193220000Y-60140000D03*
X193220000Y-60640000D03*
X193220000Y-61140000D03*
X193220000Y-61640000D03*
X193220000Y-62140000D03*
X193220000Y-62640000D03*
X193220000Y-63140000D03*
X193220000Y-63640000D03*
X193220000Y-64140000D03*
D30*
X195145000Y-66065000D03*
X195645000Y-66065000D03*
X196145000Y-66065000D03*
X196645000Y-66065000D03*
X197145000Y-66065000D03*
X197645000Y-66065000D03*
X198145000Y-66065000D03*
X198645000Y-66065000D03*
X199145000Y-66065000D03*
X199645000Y-66065000D03*
X200145000Y-66065000D03*
X200645000Y-66065000D03*
X201145000Y-66065000D03*
X201645000Y-66065000D03*
X202145000Y-66065000D03*
X202645000Y-66065000D03*
D29*
X204570000Y-64140000D03*
X204570000Y-63640000D03*
X204570000Y-63140000D03*
X204570000Y-62640000D03*
X204570000Y-62140000D03*
X204570000Y-61640000D03*
X204570000Y-61140000D03*
X204570000Y-60640000D03*
X204570000Y-60140000D03*
X204570000Y-59640000D03*
X204570000Y-59140000D03*
X204570000Y-58640000D03*
X204570000Y-58140000D03*
X204570000Y-57640000D03*
X204570000Y-57140000D03*
X204570000Y-56640000D03*
D30*
X202645000Y-54715000D03*
X202145000Y-54715000D03*
X201645000Y-54715000D03*
X201145000Y-54715000D03*
X200645000Y-54715000D03*
X200145000Y-54715000D03*
X199645000Y-54715000D03*
X199145000Y-54715000D03*
X198645000Y-54715000D03*
X198145000Y-54715000D03*
X197645000Y-54715000D03*
X197145000Y-54715000D03*
X196645000Y-54715000D03*
X196145000Y-54715000D03*
X195645000Y-54715000D03*
X195145000Y-54715000D03*
%TD*%
D31*
%TO.C,J2*%
X217805000Y-35900000D03*
X217155000Y-35900000D03*
X216505000Y-35900000D03*
X215855000Y-35900000D03*
X215205000Y-35900000D03*
D32*
X219880000Y-33240000D03*
D33*
X218992500Y-35815000D03*
D34*
X217655000Y-33240000D03*
D35*
X214955000Y-33240000D03*
D33*
X214017500Y-35815000D03*
D32*
X213130000Y-33240000D03*
%TD*%
D10*
%TO.C,C22*%
X202080000Y-41520000D03*
X202080000Y-42480000D03*
%TD*%
D36*
%TO.C,D3*%
X191300000Y-43195000D03*
X191300000Y-41620000D03*
%TD*%
D14*
%TO.C,C13*%
X196050000Y-74270000D03*
X197010000Y-74270000D03*
%TD*%
D36*
%TO.C,L2*%
X211600000Y-79227500D03*
X211600000Y-77652500D03*
%TD*%
D12*
%TO.C,C15*%
X182160000Y-49140000D03*
X181200000Y-49140000D03*
%TD*%
D10*
%TO.C,C4*%
X212470000Y-60520000D03*
X212470000Y-61480000D03*
%TD*%
%TO.C,C7*%
X209380000Y-56320000D03*
X209380000Y-57280000D03*
%TD*%
D37*
%TO.C,D1*%
X220120000Y-42055000D03*
D38*
X220120000Y-40430000D03*
%TD*%
D16*
%TO.C,R10*%
X200000000Y-76550000D03*
X200000000Y-77570000D03*
%TD*%
D14*
%TO.C,C29*%
X206780000Y-102900000D03*
X207740000Y-102900000D03*
%TD*%
D17*
%TO.C,C35*%
X211820000Y-72040000D03*
X211820000Y-73940000D03*
%TD*%
D39*
%TO.C,U3*%
X211007500Y-43097500D03*
X211007500Y-42147500D03*
X211007500Y-41197500D03*
X208732500Y-41197500D03*
X208732500Y-43097500D03*
%TD*%
D17*
%TO.C,C17*%
X205710000Y-39430000D03*
X205710000Y-41330000D03*
%TD*%
D40*
%TO.C,IC1*%
X204515000Y-91462000D03*
X205785000Y-91462000D03*
X207055000Y-91462000D03*
X208325000Y-91462000D03*
X208325000Y-86038000D03*
X207055000Y-86038000D03*
X205785000Y-86038000D03*
X204515000Y-86038000D03*
%TD*%
M02*
