M48
; DRILL file {KiCad 7.0.1} date Thu May 25 09:42:45 2023
; FORMAT={-:-/ absolute / metric / decimal}
; #@! TF.CreationDate,2023-05-25T09:42:45-05:00
; #@! TF.GenerationSoftware,Kicad,Pcbnew,7.0.1
; #@! TF.FileFunction,MixedPlating,1,4
FMAT,2
METRIC
; #@! TA.AperFunction,Plated,PTH,ViaDrill
T1C0.400
; #@! TA.AperFunction,Plated,PTH,ComponentDrill
T2C0.950
; #@! TA.AperFunction,Plated,PTH,ComponentDrill
T3C1.000
; #@! TA.AperFunction,Plated,PTH,ComponentDrill
T4C1.100
; #@! TA.AperFunction,NonPlated,NPTH,ComponentDrill
T5C2.100
; #@! TA.AperFunction,NonPlated,NPTH,ComponentDrill
T6C3.200
%
G90
G05
T1
X180.87Y-60.56
X183.35Y-49.15
X185.9Y-97.01
X185.91Y-67.53
X186.03Y-82.07
X189.79Y-89.59
X190.69Y-74.27
X190.74Y-62.4
X191.93Y-71.23
X192.1Y-50.67
X194.45Y-104.84
X195.58Y-48.96
X195.93Y-62.14
X196.07Y-75.7
X196.39Y-58.1
X198.11Y-74.27
X198.54Y-58.03
X199.55Y-49.63
X199.63Y-51.67
X199.64Y-52.72
X200.29Y-56.89
X200.4Y-58.8
X200.5Y-72.89
X201.71Y-56.91
X201.81Y-81.85
X202.39Y-75.35
X204.55Y-84.0
X205.4Y-74.04
X205.47Y-110.07
X206.85Y-83.28
X207.75Y-39.42
X207.87Y-82.4
X208.65Y-96.28
X209.68Y-94.05
X209.85Y-78.42
X209.88Y-44.56
X213.8Y-60.51
X215.17Y-38.09
X216.78Y-49.99
X220.11Y-46.25
X220.13Y-57.26
X220.59Y-56.29
X223.91Y-73.82
X224.16Y-71.71
T2
X192.91Y-34.7
X195.41Y-34.7
X197.91Y-34.7
X200.41Y-34.7
X202.91Y-34.7
T3
X182.04Y-126.89
X182.04Y-129.43
X184.58Y-126.89
X184.58Y-129.43
X215.26Y-63.5
X217.8Y-63.5
X220.34Y-63.5
X222.88Y-63.5
X226.41Y-127.13
X226.41Y-129.67
X228.95Y-127.13
X228.95Y-129.67
T4
X182.72Y-94.73
X182.72Y-99.23
X182.76Y-65.09
X182.76Y-69.59
X182.77Y-79.82
X182.77Y-84.32
X189.22Y-94.73
X189.22Y-99.23
X189.26Y-65.09
X189.26Y-69.59
X189.27Y-79.82
X189.27Y-84.32
T5
X208.4Y-50.35
X208.4Y-106.25
X229.76Y-106.52
X229.94Y-50.41
T6
X183.96Y-38.57
X229.77Y-38.49
T0
M30
