%TF.GenerationSoftware,KiCad,Pcbnew,7.0.1*%
%TF.CreationDate,2023-05-25T09:43:19-05:00*%
%TF.ProjectId,power_supply,706f7765-725f-4737-9570-706c792e6b69,rev?*%
%TF.SameCoordinates,Original*%
%TF.FileFunction,Copper,L2,Inr*%
%TF.FilePolarity,Positive*%
%FSLAX46Y46*%
G04 Gerber Fmt 4.6, Leading zero omitted, Abs format (unit mm)*
G04 Created by KiCad (PCBNEW 7.0.1) date 2023-05-25 09:43:19*
%MOMM*%
%LPD*%
G01*
G04 APERTURE LIST*
G04 Aperture macros list*
%AMRoundRect*
0 Rectangle with rounded corners*
0 $1 Rounding radius*
0 $2 $3 $4 $5 $6 $7 $8 $9 X,Y pos of 4 corners*
0 Add a 4 corners polygon primitive as box body*
4,1,4,$2,$3,$4,$5,$6,$7,$8,$9,$2,$3,0*
0 Add four circle primitives for the rounded corners*
1,1,$1+$1,$2,$3*
1,1,$1+$1,$4,$5*
1,1,$1+$1,$6,$7*
1,1,$1+$1,$8,$9*
0 Add four rect primitives between the rounded corners*
20,1,$1+$1,$2,$3,$4,$5,0*
20,1,$1+$1,$4,$5,$6,$7,0*
20,1,$1+$1,$6,$7,$8,$9,0*
20,1,$1+$1,$8,$9,$2,$3,0*%
G04 Aperture macros list end*
%TA.AperFunction,ComponentPad*%
%ADD10RoundRect,0.250000X-0.600000X-0.725000X0.600000X-0.725000X0.600000X0.725000X-0.600000X0.725000X0*%
%TD*%
%TA.AperFunction,ComponentPad*%
%ADD11O,1.700000X1.950000*%
%TD*%
%TA.AperFunction,ComponentPad*%
%ADD12C,2.000000*%
%TD*%
%TA.AperFunction,ComponentPad*%
%ADD13R,1.700000X1.700000*%
%TD*%
%TA.AperFunction,ComponentPad*%
%ADD14O,1.700000X1.700000*%
%TD*%
%TA.AperFunction,ViaPad*%
%ADD15C,0.800000*%
%TD*%
%TA.AperFunction,Conductor*%
%ADD16C,0.500000*%
%TD*%
%TA.AperFunction,Conductor*%
%ADD17C,0.300000*%
%TD*%
G04 APERTURE END LIST*
D10*
%TO.N,+3.3V*%
%TO.C,J3*%
X192910000Y-34700000D03*
D11*
%TO.N,SWCLCK*%
X195410000Y-34700000D03*
%TO.N,SWDIO*%
X197910000Y-34700000D03*
%TO.N,SWO*%
X200410000Y-34700000D03*
%TO.N,GND*%
X202910000Y-34700000D03*
%TD*%
D12*
%TO.N,GND*%
%TO.C,RST*%
X189260000Y-69590000D03*
X182760000Y-69590000D03*
%TO.N,/Nrst*%
X189260000Y-65090000D03*
X182760000Y-65090000D03*
%TD*%
%TO.N,GND*%
%TO.C,DWN*%
X189220000Y-99230000D03*
X182720000Y-99230000D03*
%TO.N,Net-(R3-Pad1)*%
X189220000Y-94730000D03*
X182720000Y-94730000D03*
%TD*%
D13*
%TO.N,+3.3V*%
%TO.C,J6*%
X222880000Y-63500000D03*
D14*
%TO.N,SDA*%
X220340000Y-63500000D03*
%TO.N,SCL*%
X217800000Y-63500000D03*
%TO.N,GND*%
X215260000Y-63500000D03*
%TD*%
D12*
%TO.N,GND*%
%TO.C,UP*%
X182770000Y-79820000D03*
X189270000Y-79820000D03*
%TO.N,Net-(R2-Pad1)*%
X182770000Y-84320000D03*
X189270000Y-84320000D03*
%TD*%
D13*
%TO.N,Main_Supply*%
%TO.C,J4*%
X228950000Y-127130000D03*
D14*
%TO.N,GND*%
X226410000Y-127130000D03*
%TO.N,Main_Supply*%
X228950000Y-129670000D03*
%TO.N,GND*%
X226410000Y-129670000D03*
%TD*%
D13*
%TO.N,Main_Supply*%
%TO.C,J5*%
X184580000Y-126890000D03*
D14*
%TO.N,GND*%
X182040000Y-126890000D03*
%TO.N,Main_Supply*%
X184580000Y-129430000D03*
%TO.N,GND*%
X182040000Y-129430000D03*
%TD*%
D15*
%TO.N,GND*%
X192100000Y-50670000D03*
%TO.N,Raw*%
X220110000Y-46250000D03*
X224160000Y-71710000D03*
%TO.N,GND*%
X190690000Y-74270000D03*
X209680000Y-94050000D03*
X196390000Y-58100000D03*
X200500000Y-72890000D03*
X207750000Y-39420000D03*
X201810000Y-81850000D03*
X198110000Y-74270000D03*
X209880000Y-44560000D03*
X215170000Y-38090000D03*
X195929999Y-62140001D03*
X205470000Y-110070000D03*
X220130000Y-57260000D03*
X183350000Y-49150000D03*
X201710000Y-56910000D03*
X223910000Y-73820000D03*
X185900000Y-97010000D03*
X209850000Y-78420000D03*
X208650000Y-96280000D03*
X189790000Y-89590000D03*
X186030000Y-82070000D03*
X180870000Y-60560000D03*
X216780000Y-49990000D03*
X205400000Y-74040000D03*
X185910000Y-67530000D03*
%TO.N,+3.3V*%
X196070000Y-75700000D03*
X213800000Y-60510000D03*
X190740000Y-62400000D03*
X195580000Y-48960000D03*
X204550000Y-84000000D03*
X220590000Y-56290000D03*
X202390000Y-75350000D03*
%TO.N,VOUT*%
X207870000Y-82400000D03*
X206850000Y-83280000D03*
%TO.N,Main_Supply*%
X191930000Y-71230000D03*
X194450000Y-104840000D03*
%TO.N,SWCLCK*%
X199630000Y-51670000D03*
%TO.N,SWDIO*%
X199550000Y-49630000D03*
X200290000Y-56890000D03*
%TO.N,SWO*%
X199640000Y-52720000D03*
%TO.N,SDA*%
X198540000Y-58030000D03*
%TO.N,SCL*%
X200400000Y-58800000D03*
%TD*%
D16*
%TO.N,Raw*%
X227180000Y-53320000D02*
X220110000Y-46250000D01*
X227180000Y-68690000D02*
X227180000Y-53320000D01*
X224160000Y-71710000D02*
X227180000Y-68690000D01*
%TO.N,Main_Supply*%
X191930000Y-71230000D02*
X191930000Y-102320000D01*
X191930000Y-102320000D02*
X194450000Y-104840000D01*
D17*
%TO.N,SWCLCK*%
X196550000Y-38080000D02*
X195410000Y-36940000D01*
X195410000Y-36940000D02*
X195410000Y-34700000D01*
X196550000Y-48590000D02*
X196550000Y-38080000D01*
X199630000Y-51670000D02*
X196550000Y-48590000D01*
%TO.N,SWDIO*%
X199500000Y-49630000D02*
X197650000Y-47780000D01*
X197650000Y-47780000D02*
X197650000Y-34960000D01*
X197650000Y-34960000D02*
X197910000Y-34700000D01*
%TO.N,SWO*%
X199640000Y-52720000D02*
X200410000Y-51950000D01*
X200410000Y-51950000D02*
X200410000Y-34700000D01*
%TO.N,SDA*%
X216590000Y-58030000D02*
X198540000Y-58030000D01*
X220340000Y-61780000D02*
X216590000Y-58030000D01*
X220340000Y-63500000D02*
X220340000Y-61780000D01*
%TO.N,SCL*%
X214370000Y-58800000D02*
X217800000Y-62230000D01*
X200400000Y-58800000D02*
X214370000Y-58800000D01*
X217800000Y-62230000D02*
X217800000Y-63500000D01*
%TD*%
M02*
