%TF.GenerationSoftware,KiCad,Pcbnew,7.0.1*%
%TF.CreationDate,2023-05-25T09:43:19-05:00*%
%TF.ProjectId,power_supply,706f7765-725f-4737-9570-706c792e6b69,rev?*%
%TF.SameCoordinates,Original*%
%TF.FileFunction,Copper,L3,Inr*%
%TF.FilePolarity,Positive*%
%FSLAX46Y46*%
G04 Gerber Fmt 4.6, Leading zero omitted, Abs format (unit mm)*
G04 Created by KiCad (PCBNEW 7.0.1) date 2023-05-25 09:43:19*
%MOMM*%
%LPD*%
G01*
G04 APERTURE LIST*
G04 Aperture macros list*
%AMRoundRect*
0 Rectangle with rounded corners*
0 $1 Rounding radius*
0 $2 $3 $4 $5 $6 $7 $8 $9 X,Y pos of 4 corners*
0 Add a 4 corners polygon primitive as box body*
4,1,4,$2,$3,$4,$5,$6,$7,$8,$9,$2,$3,0*
0 Add four circle primitives for the rounded corners*
1,1,$1+$1,$2,$3*
1,1,$1+$1,$4,$5*
1,1,$1+$1,$6,$7*
1,1,$1+$1,$8,$9*
0 Add four rect primitives between the rounded corners*
20,1,$1+$1,$2,$3,$4,$5,0*
20,1,$1+$1,$4,$5,$6,$7,0*
20,1,$1+$1,$6,$7,$8,$9,0*
20,1,$1+$1,$8,$9,$2,$3,0*%
G04 Aperture macros list end*
%TA.AperFunction,ComponentPad*%
%ADD10RoundRect,0.250000X-0.600000X-0.725000X0.600000X-0.725000X0.600000X0.725000X-0.600000X0.725000X0*%
%TD*%
%TA.AperFunction,ComponentPad*%
%ADD11O,1.700000X1.950000*%
%TD*%
%TA.AperFunction,ComponentPad*%
%ADD12C,2.000000*%
%TD*%
%TA.AperFunction,ComponentPad*%
%ADD13R,1.700000X1.700000*%
%TD*%
%TA.AperFunction,ComponentPad*%
%ADD14O,1.700000X1.700000*%
%TD*%
%TA.AperFunction,ViaPad*%
%ADD15C,0.800000*%
%TD*%
G04 APERTURE END LIST*
D10*
%TO.N,+3.3V*%
%TO.C,J3*%
X192910000Y-34700000D03*
D11*
%TO.N,SWCLCK*%
X195410000Y-34700000D03*
%TO.N,SWDIO*%
X197910000Y-34700000D03*
%TO.N,SWO*%
X200410000Y-34700000D03*
%TO.N,GND*%
X202910000Y-34700000D03*
%TD*%
D12*
%TO.N,GND*%
%TO.C,RST*%
X189260000Y-69590000D03*
X182760000Y-69590000D03*
%TO.N,/Nrst*%
X189260000Y-65090000D03*
X182760000Y-65090000D03*
%TD*%
%TO.N,GND*%
%TO.C,DWN*%
X189220000Y-99230000D03*
X182720000Y-99230000D03*
%TO.N,Net-(R3-Pad1)*%
X189220000Y-94730000D03*
X182720000Y-94730000D03*
%TD*%
D13*
%TO.N,+3.3V*%
%TO.C,J6*%
X222880000Y-63500000D03*
D14*
%TO.N,SDA*%
X220340000Y-63500000D03*
%TO.N,SCL*%
X217800000Y-63500000D03*
%TO.N,GND*%
X215260000Y-63500000D03*
%TD*%
D12*
%TO.N,GND*%
%TO.C,UP*%
X182770000Y-79820000D03*
X189270000Y-79820000D03*
%TO.N,Net-(R2-Pad1)*%
X182770000Y-84320000D03*
X189270000Y-84320000D03*
%TD*%
D13*
%TO.N,Main_Supply*%
%TO.C,J4*%
X228950000Y-127130000D03*
D14*
%TO.N,GND*%
X226410000Y-127130000D03*
%TO.N,Main_Supply*%
X228950000Y-129670000D03*
%TO.N,GND*%
X226410000Y-129670000D03*
%TD*%
D13*
%TO.N,Main_Supply*%
%TO.C,J5*%
X184580000Y-126890000D03*
D14*
%TO.N,GND*%
X182040000Y-126890000D03*
%TO.N,Main_Supply*%
X184580000Y-129430000D03*
%TO.N,GND*%
X182040000Y-129430000D03*
%TD*%
D15*
%TO.N,GND*%
X192100000Y-50670000D03*
%TO.N,Raw*%
X220110000Y-46250000D03*
X224160000Y-71710000D03*
%TO.N,GND*%
X190690000Y-74270000D03*
X209680000Y-94050000D03*
X196390000Y-58100000D03*
X200500000Y-72890000D03*
X207750000Y-39420000D03*
X201810000Y-81850000D03*
X198110000Y-74270000D03*
X209880000Y-44560000D03*
X215170000Y-38090000D03*
X195929999Y-62140001D03*
X205470000Y-110070000D03*
X220130000Y-57260000D03*
X183350000Y-49150000D03*
X201710000Y-56910000D03*
X223910000Y-73820000D03*
X185900000Y-97010000D03*
X209850000Y-78420000D03*
X208650000Y-96280000D03*
X189790000Y-89590000D03*
X186030000Y-82070000D03*
X180870000Y-60560000D03*
X216780000Y-49990000D03*
X205400000Y-74040000D03*
X185910000Y-67530000D03*
%TO.N,+3.3V*%
X196070000Y-75700000D03*
X213800000Y-60510000D03*
X190740000Y-62400000D03*
X195580000Y-48960000D03*
X204550000Y-84000000D03*
X220590000Y-56290000D03*
X202390000Y-75350000D03*
%TO.N,VOUT*%
X207870000Y-82400000D03*
X206850000Y-83280000D03*
%TO.N,Main_Supply*%
X191930000Y-71230000D03*
X194450000Y-104840000D03*
%TO.N,SWCLCK*%
X199630000Y-51670000D03*
%TO.N,SWDIO*%
X199550000Y-49630000D03*
X200290000Y-56890000D03*
%TO.N,SWO*%
X199640000Y-52720000D03*
%TO.N,SDA*%
X198540000Y-58030000D03*
%TO.N,SCL*%
X200400000Y-58800000D03*
%TD*%
%TA.AperFunction,Conductor*%
%TO.N,+3.3V*%
G36*
X228536091Y-31849439D02*
G01*
X228576319Y-31876319D01*
X234873681Y-38173681D01*
X234900561Y-38213909D01*
X234910000Y-38261362D01*
X234910000Y-102678638D01*
X234900561Y-102726091D01*
X234873681Y-102766319D01*
X234676319Y-102963681D01*
X234636091Y-102990561D01*
X234588638Y-103000000D01*
X177204000Y-103000000D01*
X177142000Y-102983387D01*
X177096613Y-102938000D01*
X177080000Y-102876000D01*
X177080000Y-99230000D01*
X181214356Y-99230000D01*
X181234891Y-99477816D01*
X181234891Y-99477819D01*
X181234892Y-99477821D01*
X181295937Y-99718881D01*
X181340960Y-99821523D01*
X181395825Y-99946604D01*
X181395827Y-99946607D01*
X181531836Y-100154785D01*
X181700256Y-100337738D01*
X181700259Y-100337740D01*
X181896485Y-100490470D01*
X181896487Y-100490471D01*
X181896491Y-100490474D01*
X182115190Y-100608828D01*
X182350386Y-100689571D01*
X182595665Y-100730500D01*
X182844335Y-100730500D01*
X183089614Y-100689571D01*
X183324810Y-100608828D01*
X183543509Y-100490474D01*
X183739744Y-100337738D01*
X183908164Y-100154785D01*
X184044173Y-99946607D01*
X184144063Y-99718881D01*
X184205108Y-99477821D01*
X184225643Y-99230000D01*
X187714356Y-99230000D01*
X187734891Y-99477816D01*
X187734891Y-99477819D01*
X187734892Y-99477821D01*
X187795937Y-99718881D01*
X187840960Y-99821523D01*
X187895825Y-99946604D01*
X187895827Y-99946607D01*
X188031836Y-100154785D01*
X188200256Y-100337738D01*
X188200259Y-100337740D01*
X188396485Y-100490470D01*
X188396487Y-100490471D01*
X188396491Y-100490474D01*
X188615190Y-100608828D01*
X188850386Y-100689571D01*
X189095665Y-100730500D01*
X189344335Y-100730500D01*
X189589614Y-100689571D01*
X189824810Y-100608828D01*
X190043509Y-100490474D01*
X190239744Y-100337738D01*
X190408164Y-100154785D01*
X190544173Y-99946607D01*
X190644063Y-99718881D01*
X190705108Y-99477821D01*
X190725643Y-99230000D01*
X190705108Y-98982179D01*
X190644063Y-98741119D01*
X190544173Y-98513393D01*
X190408164Y-98305215D01*
X190239744Y-98122262D01*
X190217612Y-98105036D01*
X190043514Y-97969529D01*
X190043510Y-97969526D01*
X190043509Y-97969526D01*
X189824810Y-97851172D01*
X189824806Y-97851170D01*
X189824805Y-97851170D01*
X189589615Y-97770429D01*
X189344335Y-97729500D01*
X189095665Y-97729500D01*
X188850384Y-97770429D01*
X188615194Y-97851170D01*
X188396485Y-97969529D01*
X188200259Y-98122259D01*
X188031837Y-98305214D01*
X187895825Y-98513395D01*
X187795938Y-98741117D01*
X187734891Y-98982183D01*
X187714356Y-99230000D01*
X184225643Y-99230000D01*
X184205108Y-98982179D01*
X184144063Y-98741119D01*
X184044173Y-98513393D01*
X183908164Y-98305215D01*
X183739744Y-98122262D01*
X183717612Y-98105036D01*
X183543514Y-97969529D01*
X183543510Y-97969526D01*
X183543509Y-97969526D01*
X183324810Y-97851172D01*
X183324806Y-97851170D01*
X183324805Y-97851170D01*
X183089615Y-97770429D01*
X182844335Y-97729500D01*
X182595665Y-97729500D01*
X182350384Y-97770429D01*
X182115194Y-97851170D01*
X181896485Y-97969529D01*
X181700259Y-98122259D01*
X181531837Y-98305214D01*
X181395825Y-98513395D01*
X181295938Y-98741117D01*
X181234891Y-98982183D01*
X181214356Y-99230000D01*
X177080000Y-99230000D01*
X177080000Y-97010000D01*
X184994540Y-97010000D01*
X185014326Y-97198257D01*
X185072820Y-97378284D01*
X185167466Y-97542216D01*
X185294129Y-97682889D01*
X185447269Y-97794151D01*
X185620197Y-97871144D01*
X185805352Y-97910500D01*
X185805354Y-97910500D01*
X185994646Y-97910500D01*
X185994648Y-97910500D01*
X186118083Y-97884262D01*
X186179803Y-97871144D01*
X186352730Y-97794151D01*
X186505871Y-97682888D01*
X186632533Y-97542216D01*
X186727179Y-97378284D01*
X186785674Y-97198256D01*
X186805460Y-97010000D01*
X186785674Y-96821744D01*
X186727179Y-96641716D01*
X186727179Y-96641715D01*
X186632533Y-96477783D01*
X186505870Y-96337110D01*
X186427264Y-96280000D01*
X207744540Y-96280000D01*
X207764326Y-96468257D01*
X207822820Y-96648284D01*
X207917466Y-96812216D01*
X208044129Y-96952889D01*
X208197269Y-97064151D01*
X208370197Y-97141144D01*
X208555352Y-97180500D01*
X208555354Y-97180500D01*
X208744646Y-97180500D01*
X208744648Y-97180500D01*
X208868084Y-97154262D01*
X208929803Y-97141144D01*
X209102730Y-97064151D01*
X209255871Y-96952888D01*
X209382533Y-96812216D01*
X209477179Y-96648284D01*
X209535674Y-96468256D01*
X209555460Y-96280000D01*
X209535674Y-96091744D01*
X209477179Y-95911716D01*
X209477179Y-95911715D01*
X209382533Y-95747783D01*
X209255870Y-95607110D01*
X209102730Y-95495848D01*
X208929802Y-95418855D01*
X208744648Y-95379500D01*
X208744646Y-95379500D01*
X208555354Y-95379500D01*
X208555352Y-95379500D01*
X208370197Y-95418855D01*
X208197269Y-95495848D01*
X208044129Y-95607110D01*
X207917466Y-95747783D01*
X207822820Y-95911715D01*
X207764326Y-96091742D01*
X207744540Y-96280000D01*
X186427264Y-96280000D01*
X186352730Y-96225848D01*
X186179802Y-96148855D01*
X185994648Y-96109500D01*
X185994646Y-96109500D01*
X185805354Y-96109500D01*
X185805352Y-96109500D01*
X185620197Y-96148855D01*
X185447269Y-96225848D01*
X185294129Y-96337110D01*
X185167466Y-96477783D01*
X185072820Y-96641715D01*
X185014326Y-96821742D01*
X184994540Y-97010000D01*
X177080000Y-97010000D01*
X177080000Y-94730000D01*
X181214356Y-94730000D01*
X181234891Y-94977816D01*
X181234891Y-94977819D01*
X181234892Y-94977821D01*
X181295937Y-95218881D01*
X181340960Y-95321523D01*
X181395825Y-95446604D01*
X181395827Y-95446607D01*
X181531836Y-95654785D01*
X181700256Y-95837738D01*
X181700259Y-95837740D01*
X181896485Y-95990470D01*
X181896487Y-95990471D01*
X181896491Y-95990474D01*
X182115190Y-96108828D01*
X182350386Y-96189571D01*
X182595665Y-96230500D01*
X182844335Y-96230500D01*
X183089614Y-96189571D01*
X183324810Y-96108828D01*
X183543509Y-95990474D01*
X183739744Y-95837738D01*
X183908164Y-95654785D01*
X184044173Y-95446607D01*
X184144063Y-95218881D01*
X184205108Y-94977821D01*
X184225643Y-94730000D01*
X187714356Y-94730000D01*
X187734891Y-94977816D01*
X187734891Y-94977819D01*
X187734892Y-94977821D01*
X187795937Y-95218881D01*
X187840960Y-95321523D01*
X187895825Y-95446604D01*
X187895827Y-95446607D01*
X188031836Y-95654785D01*
X188200256Y-95837738D01*
X188200259Y-95837740D01*
X188396485Y-95990470D01*
X188396487Y-95990471D01*
X188396491Y-95990474D01*
X188615190Y-96108828D01*
X188850386Y-96189571D01*
X189095665Y-96230500D01*
X189344335Y-96230500D01*
X189589614Y-96189571D01*
X189824810Y-96108828D01*
X190043509Y-95990474D01*
X190239744Y-95837738D01*
X190408164Y-95654785D01*
X190544173Y-95446607D01*
X190644063Y-95218881D01*
X190705108Y-94977821D01*
X190725643Y-94730000D01*
X190705108Y-94482179D01*
X190644063Y-94241119D01*
X190560230Y-94050000D01*
X208774540Y-94050000D01*
X208794326Y-94238257D01*
X208852820Y-94418284D01*
X208947466Y-94582216D01*
X209074129Y-94722889D01*
X209227269Y-94834151D01*
X209400197Y-94911144D01*
X209585352Y-94950500D01*
X209585354Y-94950500D01*
X209774646Y-94950500D01*
X209774648Y-94950500D01*
X209898084Y-94924262D01*
X209959803Y-94911144D01*
X210132730Y-94834151D01*
X210285871Y-94722888D01*
X210412533Y-94582216D01*
X210507179Y-94418284D01*
X210565674Y-94238256D01*
X210585460Y-94050000D01*
X210565674Y-93861744D01*
X210507179Y-93681716D01*
X210507179Y-93681715D01*
X210412533Y-93517783D01*
X210285870Y-93377110D01*
X210132730Y-93265848D01*
X209959802Y-93188855D01*
X209774648Y-93149500D01*
X209774646Y-93149500D01*
X209585354Y-93149500D01*
X209585352Y-93149500D01*
X209400197Y-93188855D01*
X209227269Y-93265848D01*
X209074129Y-93377110D01*
X208947466Y-93517783D01*
X208852820Y-93681715D01*
X208794326Y-93861742D01*
X208774540Y-94050000D01*
X190560230Y-94050000D01*
X190544173Y-94013393D01*
X190408164Y-93805215D01*
X190239744Y-93622262D01*
X190217612Y-93605036D01*
X190043514Y-93469529D01*
X190043510Y-93469526D01*
X190043509Y-93469526D01*
X189824810Y-93351172D01*
X189824806Y-93351170D01*
X189824805Y-93351170D01*
X189589615Y-93270429D01*
X189344335Y-93229500D01*
X189095665Y-93229500D01*
X188850384Y-93270429D01*
X188615194Y-93351170D01*
X188396485Y-93469529D01*
X188200259Y-93622259D01*
X188031837Y-93805214D01*
X187895825Y-94013395D01*
X187805780Y-94218678D01*
X187795937Y-94241119D01*
X187734892Y-94482179D01*
X187734891Y-94482183D01*
X187714356Y-94730000D01*
X184225643Y-94730000D01*
X184205108Y-94482179D01*
X184144063Y-94241119D01*
X184044173Y-94013393D01*
X183908164Y-93805215D01*
X183739744Y-93622262D01*
X183717612Y-93605036D01*
X183543514Y-93469529D01*
X183543510Y-93469526D01*
X183543509Y-93469526D01*
X183324810Y-93351172D01*
X183324806Y-93351170D01*
X183324805Y-93351170D01*
X183089615Y-93270429D01*
X182844335Y-93229500D01*
X182595665Y-93229500D01*
X182350384Y-93270429D01*
X182115194Y-93351170D01*
X181896485Y-93469529D01*
X181700259Y-93622259D01*
X181531837Y-93805214D01*
X181395825Y-94013395D01*
X181305780Y-94218678D01*
X181295937Y-94241119D01*
X181234892Y-94482179D01*
X181234891Y-94482183D01*
X181214356Y-94730000D01*
X177080000Y-94730000D01*
X177080000Y-89589999D01*
X188884540Y-89589999D01*
X188904326Y-89778257D01*
X188962820Y-89958284D01*
X189057466Y-90122216D01*
X189184129Y-90262889D01*
X189337269Y-90374151D01*
X189510197Y-90451144D01*
X189695352Y-90490500D01*
X189695354Y-90490500D01*
X189884646Y-90490500D01*
X189884648Y-90490500D01*
X190008084Y-90464262D01*
X190069803Y-90451144D01*
X190242730Y-90374151D01*
X190395871Y-90262888D01*
X190522533Y-90122216D01*
X190617179Y-89958284D01*
X190675674Y-89778256D01*
X190695460Y-89590000D01*
X190675674Y-89401744D01*
X190617179Y-89221716D01*
X190617179Y-89221715D01*
X190522533Y-89057783D01*
X190395870Y-88917110D01*
X190242730Y-88805848D01*
X190069802Y-88728855D01*
X189884648Y-88689500D01*
X189884646Y-88689500D01*
X189695354Y-88689500D01*
X189695352Y-88689500D01*
X189510197Y-88728855D01*
X189337269Y-88805848D01*
X189184129Y-88917110D01*
X189057466Y-89057783D01*
X188962820Y-89221715D01*
X188904326Y-89401742D01*
X188884540Y-89589999D01*
X177080000Y-89589999D01*
X177080000Y-84319999D01*
X181264356Y-84319999D01*
X181284891Y-84567816D01*
X181284891Y-84567819D01*
X181284892Y-84567821D01*
X181345937Y-84808881D01*
X181390960Y-84911523D01*
X181445825Y-85036604D01*
X181445827Y-85036607D01*
X181581836Y-85244785D01*
X181750256Y-85427738D01*
X181750259Y-85427740D01*
X181946485Y-85580470D01*
X181946487Y-85580471D01*
X181946491Y-85580474D01*
X182165190Y-85698828D01*
X182400386Y-85779571D01*
X182645665Y-85820500D01*
X182894335Y-85820500D01*
X183139614Y-85779571D01*
X183374810Y-85698828D01*
X183593509Y-85580474D01*
X183789744Y-85427738D01*
X183958164Y-85244785D01*
X184094173Y-85036607D01*
X184194063Y-84808881D01*
X184255108Y-84567821D01*
X184275643Y-84320000D01*
X184275643Y-84319999D01*
X187764356Y-84319999D01*
X187784891Y-84567816D01*
X187784891Y-84567819D01*
X187784892Y-84567821D01*
X187845937Y-84808881D01*
X187890960Y-84911523D01*
X187945825Y-85036604D01*
X187945827Y-85036607D01*
X188081836Y-85244785D01*
X188250256Y-85427738D01*
X188250259Y-85427740D01*
X188446485Y-85580470D01*
X188446487Y-85580471D01*
X188446491Y-85580474D01*
X188665190Y-85698828D01*
X188900386Y-85779571D01*
X189145665Y-85820500D01*
X189394335Y-85820500D01*
X189639614Y-85779571D01*
X189874810Y-85698828D01*
X190093509Y-85580474D01*
X190289744Y-85427738D01*
X190458164Y-85244785D01*
X190594173Y-85036607D01*
X190694063Y-84808881D01*
X190755108Y-84567821D01*
X190775643Y-84320000D01*
X190755108Y-84072179D01*
X190694063Y-83831119D01*
X190594173Y-83603393D01*
X190458164Y-83395215D01*
X190352101Y-83280000D01*
X205944540Y-83280000D01*
X205964326Y-83468257D01*
X206022820Y-83648284D01*
X206117466Y-83812216D01*
X206244129Y-83952889D01*
X206397269Y-84064151D01*
X206570197Y-84141144D01*
X206755352Y-84180500D01*
X206755354Y-84180500D01*
X206944646Y-84180500D01*
X206944648Y-84180500D01*
X207068083Y-84154262D01*
X207129803Y-84141144D01*
X207302730Y-84064151D01*
X207455871Y-83952888D01*
X207582533Y-83812216D01*
X207677179Y-83648284D01*
X207735674Y-83468256D01*
X207741635Y-83411537D01*
X207762156Y-83355160D01*
X207806742Y-83315014D01*
X207864956Y-83300500D01*
X207964648Y-83300500D01*
X208088083Y-83274262D01*
X208149803Y-83261144D01*
X208322730Y-83184151D01*
X208475871Y-83072888D01*
X208602533Y-82932216D01*
X208697179Y-82768284D01*
X208755674Y-82588256D01*
X208775460Y-82400000D01*
X208755674Y-82211744D01*
X208709618Y-82069999D01*
X208697179Y-82031715D01*
X208602533Y-81867783D01*
X208475870Y-81727110D01*
X208322730Y-81615848D01*
X208149802Y-81538855D01*
X207964648Y-81499500D01*
X207964646Y-81499500D01*
X207775354Y-81499500D01*
X207775352Y-81499500D01*
X207590197Y-81538855D01*
X207417269Y-81615848D01*
X207264129Y-81727110D01*
X207137466Y-81867783D01*
X207042820Y-82031715D01*
X206984326Y-82211742D01*
X206982314Y-82230885D01*
X206979438Y-82258256D01*
X206978365Y-82268462D01*
X206957844Y-82324840D01*
X206913258Y-82364986D01*
X206855044Y-82379500D01*
X206755352Y-82379500D01*
X206570197Y-82418855D01*
X206397269Y-82495848D01*
X206244129Y-82607110D01*
X206117466Y-82747783D01*
X206022820Y-82911715D01*
X205964326Y-83091742D01*
X205944540Y-83280000D01*
X190352101Y-83280000D01*
X190289744Y-83212262D01*
X190253627Y-83184151D01*
X190093514Y-83059529D01*
X190093510Y-83059526D01*
X190093509Y-83059526D01*
X189874810Y-82941172D01*
X189874806Y-82941170D01*
X189874805Y-82941170D01*
X189639615Y-82860429D01*
X189394335Y-82819500D01*
X189145665Y-82819500D01*
X188900384Y-82860429D01*
X188665194Y-82941170D01*
X188446485Y-83059529D01*
X188250259Y-83212259D01*
X188081837Y-83395214D01*
X187945825Y-83603395D01*
X187855780Y-83808678D01*
X187845937Y-83831119D01*
X187786925Y-84064151D01*
X187784891Y-84072183D01*
X187764356Y-84319999D01*
X184275643Y-84319999D01*
X184255108Y-84072179D01*
X184194063Y-83831119D01*
X184094173Y-83603393D01*
X183958164Y-83395215D01*
X183789744Y-83212262D01*
X183753627Y-83184151D01*
X183593514Y-83059529D01*
X183593510Y-83059526D01*
X183593509Y-83059526D01*
X183374810Y-82941172D01*
X183374806Y-82941170D01*
X183374805Y-82941170D01*
X183139615Y-82860429D01*
X182894335Y-82819500D01*
X182645665Y-82819500D01*
X182400384Y-82860429D01*
X182165194Y-82941170D01*
X181946485Y-83059529D01*
X181750259Y-83212259D01*
X181581837Y-83395214D01*
X181445825Y-83603395D01*
X181355780Y-83808678D01*
X181345937Y-83831119D01*
X181286925Y-84064151D01*
X181284891Y-84072183D01*
X181264356Y-84319999D01*
X177080000Y-84319999D01*
X177080000Y-82069999D01*
X185124540Y-82069999D01*
X185144326Y-82258257D01*
X185202820Y-82438284D01*
X185297466Y-82602216D01*
X185424129Y-82742889D01*
X185577269Y-82854151D01*
X185750197Y-82931144D01*
X185935352Y-82970500D01*
X185935354Y-82970500D01*
X186124646Y-82970500D01*
X186124648Y-82970500D01*
X186248084Y-82944262D01*
X186309803Y-82931144D01*
X186482730Y-82854151D01*
X186530423Y-82819500D01*
X186635870Y-82742889D01*
X186664454Y-82711144D01*
X186762533Y-82602216D01*
X186857179Y-82438284D01*
X186915674Y-82258256D01*
X186935460Y-82070000D01*
X186915674Y-81881744D01*
X186905359Y-81849999D01*
X200904540Y-81849999D01*
X200924326Y-82038257D01*
X200982820Y-82218284D01*
X201077466Y-82382216D01*
X201204129Y-82522889D01*
X201357269Y-82634151D01*
X201530197Y-82711144D01*
X201715352Y-82750500D01*
X201715354Y-82750500D01*
X201904646Y-82750500D01*
X201904648Y-82750500D01*
X202028083Y-82724262D01*
X202089803Y-82711144D01*
X202262730Y-82634151D01*
X202415871Y-82522888D01*
X202542533Y-82382216D01*
X202637179Y-82218284D01*
X202695674Y-82038256D01*
X202715460Y-81850000D01*
X202695674Y-81661744D01*
X202655396Y-81537783D01*
X202637179Y-81481715D01*
X202542533Y-81317783D01*
X202415870Y-81177110D01*
X202262730Y-81065848D01*
X202089802Y-80988855D01*
X201904648Y-80949500D01*
X201904646Y-80949500D01*
X201715354Y-80949500D01*
X201715352Y-80949500D01*
X201530197Y-80988855D01*
X201357269Y-81065848D01*
X201204129Y-81177110D01*
X201077466Y-81317783D01*
X200982820Y-81481715D01*
X200924326Y-81661742D01*
X200904540Y-81849999D01*
X186905359Y-81849999D01*
X186857179Y-81701716D01*
X186857179Y-81701715D01*
X186762533Y-81537783D01*
X186635870Y-81397110D01*
X186482730Y-81285848D01*
X186309802Y-81208855D01*
X186124648Y-81169500D01*
X186124646Y-81169500D01*
X185935354Y-81169500D01*
X185935352Y-81169500D01*
X185750197Y-81208855D01*
X185577269Y-81285848D01*
X185424129Y-81397110D01*
X185297466Y-81537783D01*
X185202820Y-81701715D01*
X185144326Y-81881742D01*
X185124540Y-82069999D01*
X177080000Y-82069999D01*
X177080000Y-79819999D01*
X181264356Y-79819999D01*
X181284891Y-80067816D01*
X181284891Y-80067819D01*
X181284892Y-80067821D01*
X181345937Y-80308881D01*
X181390960Y-80411523D01*
X181445825Y-80536604D01*
X181445827Y-80536607D01*
X181581836Y-80744785D01*
X181750256Y-80927738D01*
X181750259Y-80927740D01*
X181946485Y-81080470D01*
X181946487Y-81080471D01*
X181946491Y-81080474D01*
X182165190Y-81198828D01*
X182400386Y-81279571D01*
X182645665Y-81320500D01*
X182894335Y-81320500D01*
X183139614Y-81279571D01*
X183374810Y-81198828D01*
X183593509Y-81080474D01*
X183789744Y-80927738D01*
X183958164Y-80744785D01*
X184094173Y-80536607D01*
X184194063Y-80308881D01*
X184255108Y-80067821D01*
X184275643Y-79820000D01*
X184275643Y-79819999D01*
X187764356Y-79819999D01*
X187784891Y-80067816D01*
X187784891Y-80067819D01*
X187784892Y-80067821D01*
X187845937Y-80308881D01*
X187890960Y-80411523D01*
X187945825Y-80536604D01*
X187945827Y-80536607D01*
X188081836Y-80744785D01*
X188250256Y-80927738D01*
X188250259Y-80927740D01*
X188446485Y-81080470D01*
X188446487Y-81080471D01*
X188446491Y-81080474D01*
X188665190Y-81198828D01*
X188900386Y-81279571D01*
X189145665Y-81320500D01*
X189394335Y-81320500D01*
X189639614Y-81279571D01*
X189874810Y-81198828D01*
X190093509Y-81080474D01*
X190289744Y-80927738D01*
X190458164Y-80744785D01*
X190594173Y-80536607D01*
X190694063Y-80308881D01*
X190755108Y-80067821D01*
X190775643Y-79820000D01*
X190755108Y-79572179D01*
X190694063Y-79331119D01*
X190594173Y-79103393D01*
X190458164Y-78895215D01*
X190289744Y-78712262D01*
X190156119Y-78608257D01*
X190093514Y-78559529D01*
X190093510Y-78559526D01*
X190093509Y-78559526D01*
X189874810Y-78441172D01*
X189874806Y-78441170D01*
X189874805Y-78441170D01*
X189813139Y-78420000D01*
X208944540Y-78420000D01*
X208964326Y-78608257D01*
X209022820Y-78788284D01*
X209117466Y-78952216D01*
X209244129Y-79092889D01*
X209397269Y-79204151D01*
X209570197Y-79281144D01*
X209755352Y-79320500D01*
X209755354Y-79320500D01*
X209944646Y-79320500D01*
X209944648Y-79320500D01*
X210068083Y-79294262D01*
X210129803Y-79281144D01*
X210302730Y-79204151D01*
X210302729Y-79204151D01*
X210455870Y-79092889D01*
X210582533Y-78952216D01*
X210677179Y-78788284D01*
X210701881Y-78712259D01*
X210735674Y-78608256D01*
X210755460Y-78420000D01*
X210735674Y-78231744D01*
X210677179Y-78051716D01*
X210677179Y-78051715D01*
X210582533Y-77887783D01*
X210455870Y-77747110D01*
X210302730Y-77635848D01*
X210129802Y-77558855D01*
X209944648Y-77519500D01*
X209944646Y-77519500D01*
X209755354Y-77519500D01*
X209755352Y-77519500D01*
X209570197Y-77558855D01*
X209397269Y-77635848D01*
X209244129Y-77747110D01*
X209117466Y-77887783D01*
X209022820Y-78051715D01*
X208964326Y-78231742D01*
X208944540Y-78420000D01*
X189813139Y-78420000D01*
X189639615Y-78360429D01*
X189394335Y-78319500D01*
X189145665Y-78319500D01*
X188900384Y-78360429D01*
X188665194Y-78441170D01*
X188446485Y-78559529D01*
X188250259Y-78712259D01*
X188081837Y-78895214D01*
X187945825Y-79103395D01*
X187845938Y-79331117D01*
X187784891Y-79572183D01*
X187764356Y-79819999D01*
X184275643Y-79819999D01*
X184255108Y-79572179D01*
X184194063Y-79331119D01*
X184094173Y-79103393D01*
X183958164Y-78895215D01*
X183789744Y-78712262D01*
X183656119Y-78608257D01*
X183593514Y-78559529D01*
X183593510Y-78559526D01*
X183593509Y-78559526D01*
X183374810Y-78441172D01*
X183374806Y-78441170D01*
X183374805Y-78441170D01*
X183139615Y-78360429D01*
X182894335Y-78319500D01*
X182645665Y-78319500D01*
X182400384Y-78360429D01*
X182165194Y-78441170D01*
X181946485Y-78559529D01*
X181750259Y-78712259D01*
X181581837Y-78895214D01*
X181445825Y-79103395D01*
X181345938Y-79331117D01*
X181284891Y-79572183D01*
X181264356Y-79819999D01*
X177080000Y-79819999D01*
X177080000Y-74270000D01*
X189784540Y-74270000D01*
X189804326Y-74458257D01*
X189862820Y-74638284D01*
X189957466Y-74802216D01*
X190084129Y-74942889D01*
X190237269Y-75054151D01*
X190410197Y-75131144D01*
X190595352Y-75170500D01*
X190595354Y-75170500D01*
X190784646Y-75170500D01*
X190784648Y-75170500D01*
X190908083Y-75144262D01*
X190969803Y-75131144D01*
X191142730Y-75054151D01*
X191295871Y-74942888D01*
X191422533Y-74802216D01*
X191517179Y-74638284D01*
X191575674Y-74458256D01*
X191595460Y-74270000D01*
X197204540Y-74270000D01*
X197224326Y-74458257D01*
X197282820Y-74638284D01*
X197377466Y-74802216D01*
X197504129Y-74942889D01*
X197657269Y-75054151D01*
X197830197Y-75131144D01*
X198015352Y-75170500D01*
X198015354Y-75170500D01*
X198204646Y-75170500D01*
X198204648Y-75170500D01*
X198328083Y-75144262D01*
X198389803Y-75131144D01*
X198562730Y-75054151D01*
X198715871Y-74942888D01*
X198842533Y-74802216D01*
X198937179Y-74638284D01*
X198995674Y-74458256D01*
X199015460Y-74270000D01*
X198995674Y-74081744D01*
X198982110Y-74040000D01*
X204494540Y-74040000D01*
X204514326Y-74228257D01*
X204572820Y-74408284D01*
X204667466Y-74572216D01*
X204794129Y-74712889D01*
X204947269Y-74824151D01*
X205120197Y-74901144D01*
X205305352Y-74940500D01*
X205305354Y-74940500D01*
X205494646Y-74940500D01*
X205494648Y-74940500D01*
X205618083Y-74914262D01*
X205679803Y-74901144D01*
X205852730Y-74824151D01*
X206005871Y-74712888D01*
X206132533Y-74572216D01*
X206227179Y-74408284D01*
X206285674Y-74228256D01*
X206305460Y-74040000D01*
X206285674Y-73851744D01*
X206275359Y-73819999D01*
X223004540Y-73819999D01*
X223024326Y-74008257D01*
X223082820Y-74188284D01*
X223177466Y-74352216D01*
X223304129Y-74492889D01*
X223457269Y-74604151D01*
X223630197Y-74681144D01*
X223815352Y-74720500D01*
X223815354Y-74720500D01*
X224004646Y-74720500D01*
X224004648Y-74720500D01*
X224128084Y-74694262D01*
X224189803Y-74681144D01*
X224362730Y-74604151D01*
X224515871Y-74492888D01*
X224642533Y-74352216D01*
X224737179Y-74188284D01*
X224795674Y-74008256D01*
X224815460Y-73820000D01*
X224795674Y-73631744D01*
X224737179Y-73451716D01*
X224737179Y-73451715D01*
X224642533Y-73287783D01*
X224515870Y-73147110D01*
X224362730Y-73035848D01*
X224189802Y-72958855D01*
X224004648Y-72919500D01*
X224004646Y-72919500D01*
X223815354Y-72919500D01*
X223815352Y-72919500D01*
X223630197Y-72958855D01*
X223457269Y-73035848D01*
X223304129Y-73147110D01*
X223177466Y-73287783D01*
X223082820Y-73451715D01*
X223024326Y-73631742D01*
X223004540Y-73819999D01*
X206275359Y-73819999D01*
X206248646Y-73737783D01*
X206227179Y-73671715D01*
X206132533Y-73507783D01*
X206005870Y-73367110D01*
X205852730Y-73255848D01*
X205679802Y-73178855D01*
X205494648Y-73139500D01*
X205494646Y-73139500D01*
X205305354Y-73139500D01*
X205305352Y-73139500D01*
X205120197Y-73178855D01*
X204947269Y-73255848D01*
X204794129Y-73367110D01*
X204667466Y-73507783D01*
X204572820Y-73671715D01*
X204514326Y-73851742D01*
X204494540Y-74040000D01*
X198982110Y-74040000D01*
X198937179Y-73901716D01*
X198937179Y-73901715D01*
X198842533Y-73737783D01*
X198715870Y-73597110D01*
X198562730Y-73485848D01*
X198389802Y-73408855D01*
X198204648Y-73369500D01*
X198204646Y-73369500D01*
X198015354Y-73369500D01*
X198015352Y-73369500D01*
X197830197Y-73408855D01*
X197657269Y-73485848D01*
X197504129Y-73597110D01*
X197377466Y-73737783D01*
X197282820Y-73901715D01*
X197224326Y-74081742D01*
X197204540Y-74270000D01*
X191595460Y-74270000D01*
X191575674Y-74081744D01*
X191517179Y-73901716D01*
X191517179Y-73901715D01*
X191422533Y-73737783D01*
X191295870Y-73597110D01*
X191142730Y-73485848D01*
X190969802Y-73408855D01*
X190784648Y-73369500D01*
X190784646Y-73369500D01*
X190595354Y-73369500D01*
X190595352Y-73369500D01*
X190410197Y-73408855D01*
X190237269Y-73485848D01*
X190084129Y-73597110D01*
X189957466Y-73737783D01*
X189862820Y-73901715D01*
X189804326Y-74081742D01*
X189784540Y-74270000D01*
X177080000Y-74270000D01*
X177080000Y-72890000D01*
X199594540Y-72890000D01*
X199614326Y-73078257D01*
X199672820Y-73258284D01*
X199767466Y-73422216D01*
X199894129Y-73562889D01*
X200047269Y-73674151D01*
X200220197Y-73751144D01*
X200405352Y-73790500D01*
X200405354Y-73790500D01*
X200594646Y-73790500D01*
X200594648Y-73790500D01*
X200718084Y-73764262D01*
X200779803Y-73751144D01*
X200952730Y-73674151D01*
X200956083Y-73671715D01*
X201105870Y-73562889D01*
X201232533Y-73422216D01*
X201327179Y-73258284D01*
X201363301Y-73147112D01*
X201385674Y-73078256D01*
X201405460Y-72890000D01*
X201385674Y-72701744D01*
X201327179Y-72521716D01*
X201327179Y-72521715D01*
X201232533Y-72357783D01*
X201105870Y-72217110D01*
X200952730Y-72105848D01*
X200779802Y-72028855D01*
X200594648Y-71989500D01*
X200594646Y-71989500D01*
X200405354Y-71989500D01*
X200405352Y-71989500D01*
X200220197Y-72028855D01*
X200047269Y-72105848D01*
X199894129Y-72217110D01*
X199767466Y-72357783D01*
X199672820Y-72521715D01*
X199614326Y-72701742D01*
X199594540Y-72890000D01*
X177080000Y-72890000D01*
X177080000Y-71230000D01*
X191024540Y-71230000D01*
X191044326Y-71418257D01*
X191102820Y-71598284D01*
X191197466Y-71762216D01*
X191324129Y-71902889D01*
X191477269Y-72014151D01*
X191650197Y-72091144D01*
X191835352Y-72130500D01*
X191835354Y-72130500D01*
X192024646Y-72130500D01*
X192024648Y-72130500D01*
X192148083Y-72104262D01*
X192209803Y-72091144D01*
X192382730Y-72014151D01*
X192535871Y-71902888D01*
X192662533Y-71762216D01*
X192692680Y-71709999D01*
X223254540Y-71709999D01*
X223274326Y-71898257D01*
X223332820Y-72078284D01*
X223427466Y-72242216D01*
X223554129Y-72382889D01*
X223707269Y-72494151D01*
X223880197Y-72571144D01*
X224065352Y-72610500D01*
X224065354Y-72610500D01*
X224254646Y-72610500D01*
X224254648Y-72610500D01*
X224378084Y-72584262D01*
X224439803Y-72571144D01*
X224612730Y-72494151D01*
X224765871Y-72382888D01*
X224892533Y-72242216D01*
X224987179Y-72078284D01*
X225045674Y-71898256D01*
X225065460Y-71710000D01*
X225045674Y-71521744D01*
X224987179Y-71341716D01*
X224987179Y-71341715D01*
X224892533Y-71177783D01*
X224765870Y-71037110D01*
X224612730Y-70925848D01*
X224439802Y-70848855D01*
X224254648Y-70809500D01*
X224254646Y-70809500D01*
X224065354Y-70809500D01*
X224065352Y-70809500D01*
X223880197Y-70848855D01*
X223707269Y-70925848D01*
X223554129Y-71037110D01*
X223427466Y-71177783D01*
X223332820Y-71341715D01*
X223274326Y-71521742D01*
X223254540Y-71709999D01*
X192692680Y-71709999D01*
X192757179Y-71598284D01*
X192815674Y-71418256D01*
X192835460Y-71230000D01*
X192815674Y-71041744D01*
X192757179Y-70861716D01*
X192757179Y-70861715D01*
X192662533Y-70697783D01*
X192535870Y-70557110D01*
X192382730Y-70445848D01*
X192209802Y-70368855D01*
X192024648Y-70329500D01*
X192024646Y-70329500D01*
X191835354Y-70329500D01*
X191835352Y-70329500D01*
X191650197Y-70368855D01*
X191477269Y-70445848D01*
X191324129Y-70557110D01*
X191197466Y-70697783D01*
X191102820Y-70861715D01*
X191044326Y-71041742D01*
X191024540Y-71230000D01*
X177080000Y-71230000D01*
X177080000Y-69590000D01*
X181254356Y-69590000D01*
X181274891Y-69837816D01*
X181274891Y-69837819D01*
X181274892Y-69837821D01*
X181335937Y-70078881D01*
X181380960Y-70181523D01*
X181435825Y-70306604D01*
X181435827Y-70306607D01*
X181571836Y-70514785D01*
X181740256Y-70697738D01*
X181805667Y-70748650D01*
X181936485Y-70850470D01*
X181936487Y-70850471D01*
X181936491Y-70850474D01*
X182155190Y-70968828D01*
X182390386Y-71049571D01*
X182635665Y-71090500D01*
X182884335Y-71090500D01*
X183129614Y-71049571D01*
X183364810Y-70968828D01*
X183583509Y-70850474D01*
X183779744Y-70697738D01*
X183948164Y-70514785D01*
X184084173Y-70306607D01*
X184184063Y-70078881D01*
X184245108Y-69837821D01*
X184265643Y-69590000D01*
X187754356Y-69590000D01*
X187774891Y-69837816D01*
X187774891Y-69837819D01*
X187774892Y-69837821D01*
X187835937Y-70078881D01*
X187880960Y-70181523D01*
X187935825Y-70306604D01*
X187935827Y-70306607D01*
X188071836Y-70514785D01*
X188240256Y-70697738D01*
X188305667Y-70748650D01*
X188436485Y-70850470D01*
X188436487Y-70850471D01*
X188436491Y-70850474D01*
X188655190Y-70968828D01*
X188890386Y-71049571D01*
X189135665Y-71090500D01*
X189384335Y-71090500D01*
X189629614Y-71049571D01*
X189864810Y-70968828D01*
X190083509Y-70850474D01*
X190279744Y-70697738D01*
X190448164Y-70514785D01*
X190584173Y-70306607D01*
X190684063Y-70078881D01*
X190745108Y-69837821D01*
X190765643Y-69590000D01*
X190745108Y-69342179D01*
X190684063Y-69101119D01*
X190584173Y-68873393D01*
X190448164Y-68665215D01*
X190279744Y-68482262D01*
X190257612Y-68465036D01*
X190083514Y-68329529D01*
X190083510Y-68329526D01*
X190083509Y-68329526D01*
X189864810Y-68211172D01*
X189864806Y-68211170D01*
X189864805Y-68211170D01*
X189629615Y-68130429D01*
X189384335Y-68089500D01*
X189135665Y-68089500D01*
X188890384Y-68130429D01*
X188655194Y-68211170D01*
X188436485Y-68329529D01*
X188240259Y-68482259D01*
X188071837Y-68665214D01*
X187935825Y-68873395D01*
X187835938Y-69101117D01*
X187774891Y-69342183D01*
X187754356Y-69590000D01*
X184265643Y-69590000D01*
X184245108Y-69342179D01*
X184184063Y-69101119D01*
X184084173Y-68873393D01*
X183948164Y-68665215D01*
X183779744Y-68482262D01*
X183757612Y-68465036D01*
X183583514Y-68329529D01*
X183583510Y-68329526D01*
X183583509Y-68329526D01*
X183364810Y-68211172D01*
X183364806Y-68211170D01*
X183364805Y-68211170D01*
X183129615Y-68130429D01*
X182884335Y-68089500D01*
X182635665Y-68089500D01*
X182390384Y-68130429D01*
X182155194Y-68211170D01*
X181936485Y-68329529D01*
X181740259Y-68482259D01*
X181571837Y-68665214D01*
X181435825Y-68873395D01*
X181335938Y-69101117D01*
X181274891Y-69342183D01*
X181254356Y-69590000D01*
X177080000Y-69590000D01*
X177080000Y-67529999D01*
X185004540Y-67529999D01*
X185024326Y-67718257D01*
X185082820Y-67898284D01*
X185177466Y-68062216D01*
X185304129Y-68202889D01*
X185457269Y-68314151D01*
X185630197Y-68391144D01*
X185815352Y-68430500D01*
X185815354Y-68430500D01*
X186004646Y-68430500D01*
X186004648Y-68430500D01*
X186128083Y-68404262D01*
X186189803Y-68391144D01*
X186362730Y-68314151D01*
X186515871Y-68202888D01*
X186642533Y-68062216D01*
X186737179Y-67898284D01*
X186795674Y-67718256D01*
X186815460Y-67530000D01*
X186795674Y-67341744D01*
X186737179Y-67161716D01*
X186737179Y-67161715D01*
X186642533Y-66997783D01*
X186515870Y-66857110D01*
X186362730Y-66745848D01*
X186189802Y-66668855D01*
X186004648Y-66629500D01*
X186004646Y-66629500D01*
X185815354Y-66629500D01*
X185815352Y-66629500D01*
X185630197Y-66668855D01*
X185457269Y-66745848D01*
X185304129Y-66857110D01*
X185177466Y-66997783D01*
X185082820Y-67161715D01*
X185024326Y-67341742D01*
X185004540Y-67529999D01*
X177080000Y-67529999D01*
X177080000Y-65089999D01*
X181254356Y-65089999D01*
X181274891Y-65337816D01*
X181274891Y-65337819D01*
X181274892Y-65337821D01*
X181335937Y-65578881D01*
X181380960Y-65681523D01*
X181435825Y-65806604D01*
X181435827Y-65806607D01*
X181571836Y-66014785D01*
X181740256Y-66197738D01*
X181740259Y-66197740D01*
X181936485Y-66350470D01*
X181936487Y-66350471D01*
X181936491Y-66350474D01*
X182155190Y-66468828D01*
X182390386Y-66549571D01*
X182635665Y-66590500D01*
X182884335Y-66590500D01*
X183129614Y-66549571D01*
X183364810Y-66468828D01*
X183583509Y-66350474D01*
X183779744Y-66197738D01*
X183948164Y-66014785D01*
X184084173Y-65806607D01*
X184184063Y-65578881D01*
X184245108Y-65337821D01*
X184265643Y-65090000D01*
X184265643Y-65089999D01*
X187754356Y-65089999D01*
X187774891Y-65337816D01*
X187774891Y-65337819D01*
X187774892Y-65337821D01*
X187835937Y-65578881D01*
X187880960Y-65681523D01*
X187935825Y-65806604D01*
X187935827Y-65806607D01*
X188071836Y-66014785D01*
X188240256Y-66197738D01*
X188240259Y-66197740D01*
X188436485Y-66350470D01*
X188436487Y-66350471D01*
X188436491Y-66350474D01*
X188655190Y-66468828D01*
X188890386Y-66549571D01*
X189135665Y-66590500D01*
X189384335Y-66590500D01*
X189629614Y-66549571D01*
X189864810Y-66468828D01*
X190083509Y-66350474D01*
X190279744Y-66197738D01*
X190448164Y-66014785D01*
X190584173Y-65806607D01*
X190684063Y-65578881D01*
X190745108Y-65337821D01*
X190765643Y-65090000D01*
X190745108Y-64842179D01*
X190684063Y-64601119D01*
X190584173Y-64373393D01*
X190448164Y-64165215D01*
X190279744Y-63982262D01*
X190255847Y-63963662D01*
X190083514Y-63829529D01*
X190083510Y-63829526D01*
X190083509Y-63829526D01*
X189864810Y-63711172D01*
X189864806Y-63711170D01*
X189864805Y-63711170D01*
X189629615Y-63630429D01*
X189384335Y-63589500D01*
X189135665Y-63589500D01*
X188890384Y-63630429D01*
X188655194Y-63711170D01*
X188436485Y-63829529D01*
X188240259Y-63982259D01*
X188240256Y-63982261D01*
X188240256Y-63982262D01*
X188071836Y-64165215D01*
X188026499Y-64234607D01*
X187935825Y-64373395D01*
X187835938Y-64601117D01*
X187774891Y-64842183D01*
X187754356Y-65089999D01*
X184265643Y-65089999D01*
X184245108Y-64842179D01*
X184184063Y-64601119D01*
X184084173Y-64373393D01*
X183948164Y-64165215D01*
X183779744Y-63982262D01*
X183755847Y-63963662D01*
X183583514Y-63829529D01*
X183583510Y-63829526D01*
X183583509Y-63829526D01*
X183364810Y-63711172D01*
X183364806Y-63711170D01*
X183364805Y-63711170D01*
X183129615Y-63630429D01*
X182884335Y-63589500D01*
X182635665Y-63589500D01*
X182390384Y-63630429D01*
X182155194Y-63711170D01*
X181936485Y-63829529D01*
X181740259Y-63982259D01*
X181740256Y-63982261D01*
X181740256Y-63982262D01*
X181571836Y-64165215D01*
X181526499Y-64234607D01*
X181435825Y-64373395D01*
X181335938Y-64601117D01*
X181274891Y-64842183D01*
X181254356Y-65089999D01*
X177080000Y-65089999D01*
X177080000Y-63500000D01*
X213904340Y-63500000D01*
X213924936Y-63735407D01*
X213950156Y-63829529D01*
X213986097Y-63963663D01*
X214085965Y-64177830D01*
X214221505Y-64371401D01*
X214388599Y-64538495D01*
X214582170Y-64674035D01*
X214796337Y-64773903D01*
X215024592Y-64835063D01*
X215260000Y-64855659D01*
X215495408Y-64835063D01*
X215723663Y-64773903D01*
X215937830Y-64674035D01*
X216131401Y-64538495D01*
X216298495Y-64371401D01*
X216428426Y-64185839D01*
X216472743Y-64146975D01*
X216530000Y-64132964D01*
X216587257Y-64146975D01*
X216631573Y-64185839D01*
X216761505Y-64371401D01*
X216928599Y-64538495D01*
X217122170Y-64674035D01*
X217336337Y-64773903D01*
X217564592Y-64835063D01*
X217800000Y-64855659D01*
X218035408Y-64835063D01*
X218263663Y-64773903D01*
X218477830Y-64674035D01*
X218671401Y-64538495D01*
X218838495Y-64371401D01*
X218968426Y-64185839D01*
X219012743Y-64146975D01*
X219070000Y-64132964D01*
X219127257Y-64146975D01*
X219171573Y-64185839D01*
X219301505Y-64371401D01*
X219468599Y-64538495D01*
X219662170Y-64674035D01*
X219876337Y-64773903D01*
X220104592Y-64835063D01*
X220340000Y-64855659D01*
X220575408Y-64835063D01*
X220803663Y-64773903D01*
X221017830Y-64674035D01*
X221211401Y-64538495D01*
X221333717Y-64416178D01*
X221386460Y-64384885D01*
X221447752Y-64382696D01*
X221502597Y-64410149D01*
X221537577Y-64460528D01*
X221586647Y-64592088D01*
X221672811Y-64707188D01*
X221787910Y-64793352D01*
X221922624Y-64843597D01*
X221982176Y-64850000D01*
X222630000Y-64850000D01*
X222630000Y-63750000D01*
X223130000Y-63750000D01*
X223130000Y-64850000D01*
X223777824Y-64850000D01*
X223837375Y-64843597D01*
X223972089Y-64793352D01*
X224087188Y-64707188D01*
X224173352Y-64592089D01*
X224223597Y-64457375D01*
X224230000Y-64397824D01*
X224230000Y-63750000D01*
X223130000Y-63750000D01*
X222630000Y-63750000D01*
X222630000Y-62150000D01*
X223130000Y-62150000D01*
X223130000Y-63250000D01*
X224230000Y-63250000D01*
X224230000Y-62602176D01*
X224223597Y-62542624D01*
X224173352Y-62407910D01*
X224087188Y-62292811D01*
X223972089Y-62206647D01*
X223837375Y-62156402D01*
X223777824Y-62150000D01*
X223130000Y-62150000D01*
X222630000Y-62150000D01*
X221982176Y-62150000D01*
X221922624Y-62156402D01*
X221787910Y-62206647D01*
X221672811Y-62292811D01*
X221586646Y-62407913D01*
X221537576Y-62539472D01*
X221502597Y-62589850D01*
X221447753Y-62617303D01*
X221386460Y-62615114D01*
X221333714Y-62583818D01*
X221211404Y-62461508D01*
X221211404Y-62461507D01*
X221211401Y-62461505D01*
X221017830Y-62325965D01*
X220803663Y-62226097D01*
X220731074Y-62206647D01*
X220575407Y-62164936D01*
X220340000Y-62144340D01*
X220104592Y-62164936D01*
X219876336Y-62226097D01*
X219662170Y-62325965D01*
X219468598Y-62461505D01*
X219301505Y-62628598D01*
X219171575Y-62814159D01*
X219127257Y-62853025D01*
X219070000Y-62867036D01*
X219012743Y-62853025D01*
X218968425Y-62814159D01*
X218953449Y-62792771D01*
X218838495Y-62628599D01*
X218671401Y-62461505D01*
X218477830Y-62325965D01*
X218263663Y-62226097D01*
X218191074Y-62206647D01*
X218035407Y-62164936D01*
X217800000Y-62144340D01*
X217564592Y-62164936D01*
X217336336Y-62226097D01*
X217122170Y-62325965D01*
X216928598Y-62461505D01*
X216761505Y-62628598D01*
X216631575Y-62814159D01*
X216587257Y-62853025D01*
X216530000Y-62867036D01*
X216472743Y-62853025D01*
X216428425Y-62814159D01*
X216413449Y-62792771D01*
X216298495Y-62628599D01*
X216131401Y-62461505D01*
X215937830Y-62325965D01*
X215723663Y-62226097D01*
X215651074Y-62206647D01*
X215495407Y-62164936D01*
X215260000Y-62144340D01*
X215024592Y-62164936D01*
X214796336Y-62226097D01*
X214582170Y-62325965D01*
X214388598Y-62461505D01*
X214221505Y-62628598D01*
X214085965Y-62822170D01*
X213986097Y-63036336D01*
X213924936Y-63264592D01*
X213904340Y-63500000D01*
X177080000Y-63500000D01*
X177080000Y-62140001D01*
X195024539Y-62140001D01*
X195044325Y-62328258D01*
X195102819Y-62508285D01*
X195197465Y-62672217D01*
X195324128Y-62812890D01*
X195477268Y-62924152D01*
X195650196Y-63001145D01*
X195835351Y-63040501D01*
X195835353Y-63040501D01*
X196024645Y-63040501D01*
X196024647Y-63040501D01*
X196148082Y-63014263D01*
X196209802Y-63001145D01*
X196382729Y-62924152D01*
X196461343Y-62867036D01*
X196535869Y-62812890D01*
X196662532Y-62672217D01*
X196757178Y-62508285D01*
X196789792Y-62407910D01*
X196815673Y-62328257D01*
X196835459Y-62140001D01*
X196815673Y-61951745D01*
X196757178Y-61771717D01*
X196757178Y-61771716D01*
X196662532Y-61607784D01*
X196535869Y-61467111D01*
X196382729Y-61355849D01*
X196209801Y-61278856D01*
X196024647Y-61239501D01*
X196024645Y-61239501D01*
X195835353Y-61239501D01*
X195835351Y-61239501D01*
X195650196Y-61278856D01*
X195477268Y-61355849D01*
X195324128Y-61467111D01*
X195197465Y-61607784D01*
X195102819Y-61771716D01*
X195044325Y-61951743D01*
X195024539Y-62140001D01*
X177080000Y-62140001D01*
X177080000Y-60559999D01*
X179964540Y-60559999D01*
X179984326Y-60748257D01*
X180042820Y-60928284D01*
X180137466Y-61092216D01*
X180264129Y-61232889D01*
X180417269Y-61344151D01*
X180590197Y-61421144D01*
X180775352Y-61460500D01*
X180775354Y-61460500D01*
X180964646Y-61460500D01*
X180964648Y-61460500D01*
X181088083Y-61434262D01*
X181149803Y-61421144D01*
X181322730Y-61344151D01*
X181475871Y-61232888D01*
X181602533Y-61092216D01*
X181697179Y-60928284D01*
X181755674Y-60748256D01*
X181775460Y-60560000D01*
X181755674Y-60371744D01*
X181697179Y-60191716D01*
X181697179Y-60191715D01*
X181602533Y-60027783D01*
X181475870Y-59887110D01*
X181322730Y-59775848D01*
X181149802Y-59698855D01*
X180964648Y-59659500D01*
X180964646Y-59659500D01*
X180775354Y-59659500D01*
X180775352Y-59659500D01*
X180590197Y-59698855D01*
X180417269Y-59775848D01*
X180264129Y-59887110D01*
X180137466Y-60027783D01*
X180042820Y-60191715D01*
X179984326Y-60371742D01*
X179964540Y-60559999D01*
X177080000Y-60559999D01*
X177080000Y-58100000D01*
X195484540Y-58100000D01*
X195504326Y-58288257D01*
X195562820Y-58468284D01*
X195657466Y-58632216D01*
X195784129Y-58772889D01*
X195937269Y-58884151D01*
X196110197Y-58961144D01*
X196295352Y-59000500D01*
X196295354Y-59000500D01*
X196484646Y-59000500D01*
X196484648Y-59000500D01*
X196608084Y-58974262D01*
X196669803Y-58961144D01*
X196842730Y-58884151D01*
X196939077Y-58814151D01*
X196995870Y-58772889D01*
X197122533Y-58632216D01*
X197217179Y-58468284D01*
X197229061Y-58431715D01*
X197275674Y-58288256D01*
X197295460Y-58100000D01*
X197288103Y-58029999D01*
X197634540Y-58029999D01*
X197654326Y-58218257D01*
X197712820Y-58398284D01*
X197807466Y-58562216D01*
X197934129Y-58702889D01*
X198087269Y-58814151D01*
X198260197Y-58891144D01*
X198445352Y-58930500D01*
X198445354Y-58930500D01*
X198634646Y-58930500D01*
X198634648Y-58930500D01*
X198758084Y-58904262D01*
X198819803Y-58891144D01*
X198992730Y-58814151D01*
X199145871Y-58702888D01*
X199272533Y-58562216D01*
X199282817Y-58544402D01*
X199330464Y-58497742D01*
X199395395Y-58482512D01*
X199458823Y-58503120D01*
X199502402Y-58553605D01*
X199513525Y-58619364D01*
X199494540Y-58799999D01*
X199514326Y-58988257D01*
X199572820Y-59168284D01*
X199667466Y-59332216D01*
X199794129Y-59472889D01*
X199947269Y-59584151D01*
X200120197Y-59661144D01*
X200305352Y-59700500D01*
X200305354Y-59700500D01*
X200494646Y-59700500D01*
X200494648Y-59700500D01*
X200618084Y-59674262D01*
X200679803Y-59661144D01*
X200852730Y-59584151D01*
X201005871Y-59472888D01*
X201132533Y-59332216D01*
X201227179Y-59168284D01*
X201285674Y-58988256D01*
X201305460Y-58800000D01*
X201285674Y-58611744D01*
X201227179Y-58431716D01*
X201227179Y-58431715D01*
X201132533Y-58267783D01*
X201005870Y-58127110D01*
X200852734Y-58015850D01*
X200743613Y-57967266D01*
X200679803Y-57938856D01*
X200679801Y-57938855D01*
X200668428Y-57933792D01*
X200623320Y-57899552D01*
X200598140Y-57848827D01*
X200598140Y-57792196D01*
X200623321Y-57741471D01*
X200668427Y-57707232D01*
X200742730Y-57674151D01*
X200895871Y-57562888D01*
X200898846Y-57559583D01*
X200956814Y-57523360D01*
X201025173Y-57523359D01*
X201083144Y-57559583D01*
X201104128Y-57582888D01*
X201257269Y-57694151D01*
X201430197Y-57771144D01*
X201615352Y-57810500D01*
X201615354Y-57810500D01*
X201804646Y-57810500D01*
X201804648Y-57810500D01*
X201928084Y-57784262D01*
X201989803Y-57771144D01*
X202162730Y-57694151D01*
X202315871Y-57582888D01*
X202442533Y-57442216D01*
X202537179Y-57278284D01*
X202543120Y-57259999D01*
X219224540Y-57259999D01*
X219244326Y-57448257D01*
X219302820Y-57628284D01*
X219397466Y-57792216D01*
X219524129Y-57932889D01*
X219677269Y-58044151D01*
X219850197Y-58121144D01*
X220035352Y-58160500D01*
X220035354Y-58160500D01*
X220224646Y-58160500D01*
X220224648Y-58160500D01*
X220348083Y-58134262D01*
X220409803Y-58121144D01*
X220582730Y-58044151D01*
X220735871Y-57932888D01*
X220862533Y-57792216D01*
X220957179Y-57628284D01*
X221015674Y-57448256D01*
X221035460Y-57260000D01*
X221015674Y-57071744D01*
X220957179Y-56891716D01*
X220957179Y-56891715D01*
X220862533Y-56727783D01*
X220735870Y-56587110D01*
X220582730Y-56475848D01*
X220409802Y-56398855D01*
X220224648Y-56359500D01*
X220224646Y-56359500D01*
X220035354Y-56359500D01*
X220035352Y-56359500D01*
X219850197Y-56398855D01*
X219677269Y-56475848D01*
X219524129Y-56587110D01*
X219397466Y-56727783D01*
X219302820Y-56891715D01*
X219244326Y-57071742D01*
X219224540Y-57259999D01*
X202543120Y-57259999D01*
X202595674Y-57098256D01*
X202615460Y-56910000D01*
X202595674Y-56721744D01*
X202551929Y-56587112D01*
X202537179Y-56541715D01*
X202442533Y-56377783D01*
X202315870Y-56237110D01*
X202162730Y-56125848D01*
X201989802Y-56048855D01*
X201804648Y-56009500D01*
X201804646Y-56009500D01*
X201615354Y-56009500D01*
X201615352Y-56009500D01*
X201430197Y-56048855D01*
X201257269Y-56125848D01*
X201104130Y-56237110D01*
X201101152Y-56240418D01*
X201043181Y-56276640D01*
X200974825Y-56276639D01*
X200916855Y-56240416D01*
X200895870Y-56217111D01*
X200742730Y-56105848D01*
X200569802Y-56028855D01*
X200384648Y-55989500D01*
X200384646Y-55989500D01*
X200195354Y-55989500D01*
X200195352Y-55989500D01*
X200010197Y-56028855D01*
X199837269Y-56105848D01*
X199684129Y-56217110D01*
X199557466Y-56357783D01*
X199462820Y-56521715D01*
X199404326Y-56701742D01*
X199384540Y-56889999D01*
X199404326Y-57078257D01*
X199462820Y-57258284D01*
X199557466Y-57422216D01*
X199684129Y-57562889D01*
X199837267Y-57674150D01*
X199882190Y-57694151D01*
X200010197Y-57751144D01*
X200010199Y-57751144D01*
X200021570Y-57756207D01*
X200066678Y-57790446D01*
X200091859Y-57841171D01*
X200091859Y-57897802D01*
X200066679Y-57948527D01*
X200021572Y-57982766D01*
X199947268Y-58015849D01*
X199794129Y-58127110D01*
X199667466Y-58267784D01*
X199657181Y-58285598D01*
X199609531Y-58332259D01*
X199544601Y-58347487D01*
X199481174Y-58326878D01*
X199437596Y-58276392D01*
X199426474Y-58210637D01*
X199445460Y-58030000D01*
X199425674Y-57841744D01*
X199377718Y-57694151D01*
X199367179Y-57661715D01*
X199272533Y-57497783D01*
X199145870Y-57357110D01*
X198992730Y-57245848D01*
X198819802Y-57168855D01*
X198634648Y-57129500D01*
X198634646Y-57129500D01*
X198445354Y-57129500D01*
X198445352Y-57129500D01*
X198260197Y-57168855D01*
X198087269Y-57245848D01*
X197934129Y-57357110D01*
X197807466Y-57497783D01*
X197712820Y-57661715D01*
X197654326Y-57841742D01*
X197634540Y-58029999D01*
X197288103Y-58029999D01*
X197275674Y-57911744D01*
X197217179Y-57731716D01*
X197217179Y-57731715D01*
X197122533Y-57567783D01*
X196995870Y-57427110D01*
X196842730Y-57315848D01*
X196669802Y-57238855D01*
X196484648Y-57199500D01*
X196484646Y-57199500D01*
X196295354Y-57199500D01*
X196295352Y-57199500D01*
X196110197Y-57238855D01*
X195937269Y-57315848D01*
X195784129Y-57427110D01*
X195657466Y-57567783D01*
X195562820Y-57731715D01*
X195504326Y-57911742D01*
X195484540Y-58100000D01*
X177080000Y-58100000D01*
X177080000Y-51669999D01*
X198724540Y-51669999D01*
X198744326Y-51858257D01*
X198802820Y-52038284D01*
X198862504Y-52141659D01*
X198879117Y-52203658D01*
X198862505Y-52265658D01*
X198812820Y-52351716D01*
X198754326Y-52531742D01*
X198734540Y-52720000D01*
X198754326Y-52908257D01*
X198812820Y-53088284D01*
X198907466Y-53252216D01*
X199034129Y-53392889D01*
X199187269Y-53504151D01*
X199360197Y-53581144D01*
X199545352Y-53620500D01*
X199545354Y-53620500D01*
X199734646Y-53620500D01*
X199734648Y-53620500D01*
X199858083Y-53594262D01*
X199919803Y-53581144D01*
X200092730Y-53504151D01*
X200245871Y-53392888D01*
X200372533Y-53252216D01*
X200467179Y-53088284D01*
X200525674Y-52908256D01*
X200545460Y-52720000D01*
X200525674Y-52531744D01*
X200467179Y-52351716D01*
X200467179Y-52351715D01*
X200407494Y-52248339D01*
X200390881Y-52186339D01*
X200407493Y-52124341D01*
X200457179Y-52038284D01*
X200515674Y-51858256D01*
X200535460Y-51670000D01*
X200515674Y-51481744D01*
X200477990Y-51365765D01*
X200457179Y-51301715D01*
X200362533Y-51137783D01*
X200235870Y-50997110D01*
X200082730Y-50885848D01*
X199909802Y-50808855D01*
X199724648Y-50769500D01*
X199724646Y-50769500D01*
X199700021Y-50769500D01*
X199641806Y-50754985D01*
X199597220Y-50714840D01*
X199593094Y-50703504D01*
X199559684Y-50749490D01*
X199505760Y-50775790D01*
X199350197Y-50808855D01*
X199177269Y-50885848D01*
X199024129Y-50997110D01*
X198897466Y-51137783D01*
X198802820Y-51301715D01*
X198744326Y-51481742D01*
X198724540Y-51669999D01*
X177080000Y-51669999D01*
X177080000Y-50670000D01*
X191194540Y-50670000D01*
X191214326Y-50858257D01*
X191272820Y-51038284D01*
X191367466Y-51202216D01*
X191494129Y-51342889D01*
X191647269Y-51454151D01*
X191820197Y-51531144D01*
X192005352Y-51570500D01*
X192005354Y-51570500D01*
X192194646Y-51570500D01*
X192194648Y-51570500D01*
X192318083Y-51544262D01*
X192379803Y-51531144D01*
X192552730Y-51454151D01*
X192674382Y-51365766D01*
X192705870Y-51342889D01*
X192742943Y-51301716D01*
X192832533Y-51202216D01*
X192927179Y-51038284D01*
X192985674Y-50858256D01*
X193005460Y-50670000D01*
X192985674Y-50481744D01*
X192927179Y-50301716D01*
X192927179Y-50301715D01*
X192832533Y-50137783D01*
X192705870Y-49997110D01*
X192552730Y-49885848D01*
X192379802Y-49808855D01*
X192194648Y-49769500D01*
X192194646Y-49769500D01*
X192005354Y-49769500D01*
X192005352Y-49769500D01*
X191820197Y-49808855D01*
X191647269Y-49885848D01*
X191494129Y-49997110D01*
X191367466Y-50137783D01*
X191272820Y-50301715D01*
X191214326Y-50481742D01*
X191194540Y-50670000D01*
X177080000Y-50670000D01*
X177080000Y-49150000D01*
X182444540Y-49150000D01*
X182464326Y-49338257D01*
X182522820Y-49518284D01*
X182617466Y-49682216D01*
X182744129Y-49822889D01*
X182897269Y-49934151D01*
X183070197Y-50011144D01*
X183255352Y-50050500D01*
X183255354Y-50050500D01*
X183444646Y-50050500D01*
X183444648Y-50050500D01*
X183568083Y-50024262D01*
X183629803Y-50011144D01*
X183802730Y-49934151D01*
X183909557Y-49856537D01*
X183955870Y-49822889D01*
X183968506Y-49808856D01*
X184082533Y-49682216D01*
X184112680Y-49630000D01*
X198644540Y-49630000D01*
X198664326Y-49818257D01*
X198722820Y-49998284D01*
X198817466Y-50162216D01*
X198944129Y-50302889D01*
X199097269Y-50414151D01*
X199270197Y-50491144D01*
X199455352Y-50530500D01*
X199479979Y-50530500D01*
X199538194Y-50545015D01*
X199582780Y-50585160D01*
X199586905Y-50596495D01*
X199620316Y-50550510D01*
X199674240Y-50524210D01*
X199770529Y-50503742D01*
X199829803Y-50491144D01*
X200002730Y-50414151D01*
X200013495Y-50406330D01*
X200013498Y-50406328D01*
X207145709Y-50406328D01*
X207175925Y-50629388D01*
X207234237Y-50808855D01*
X207245483Y-50843464D01*
X207352148Y-51041681D01*
X207428787Y-51137783D01*
X207472678Y-51192821D01*
X207492492Y-51217666D01*
X207662004Y-51365765D01*
X207662006Y-51365766D01*
X207855237Y-51481216D01*
X207973214Y-51525493D01*
X208065976Y-51560307D01*
X208287453Y-51600500D01*
X208456153Y-51600500D01*
X208456155Y-51600500D01*
X208624188Y-51585377D01*
X208841170Y-51525493D01*
X209043973Y-51427829D01*
X209226078Y-51295522D01*
X209381632Y-51132825D01*
X209505635Y-50944968D01*
X209594103Y-50737988D01*
X209644191Y-50518537D01*
X209654290Y-50293670D01*
X209624075Y-50070613D01*
X209597882Y-49990000D01*
X215874540Y-49990000D01*
X215875411Y-49998284D01*
X215894326Y-50178257D01*
X215952820Y-50358284D01*
X216047466Y-50522216D01*
X216174129Y-50662889D01*
X216327269Y-50774151D01*
X216500197Y-50851144D01*
X216685352Y-50890500D01*
X216685354Y-50890500D01*
X216874646Y-50890500D01*
X216874648Y-50890500D01*
X216998083Y-50864262D01*
X217059803Y-50851144D01*
X217232730Y-50774151D01*
X217385871Y-50662888D01*
X217512533Y-50522216D01*
X217544800Y-50466328D01*
X228685709Y-50466328D01*
X228715925Y-50689388D01*
X228781270Y-50890500D01*
X228785483Y-50903464D01*
X228892148Y-51101681D01*
X229032492Y-51277666D01*
X229202004Y-51425765D01*
X229265051Y-51463434D01*
X229395237Y-51541216D01*
X229513214Y-51585493D01*
X229605976Y-51620307D01*
X229827453Y-51660500D01*
X229996153Y-51660500D01*
X229996155Y-51660500D01*
X230164188Y-51645377D01*
X230381170Y-51585493D01*
X230583973Y-51487829D01*
X230766078Y-51355522D01*
X230921632Y-51192825D01*
X231045635Y-51004968D01*
X231134103Y-50797988D01*
X231184191Y-50578537D01*
X231194290Y-50353670D01*
X231164075Y-50130613D01*
X231094517Y-49916536D01*
X230987852Y-49718319D01*
X230847508Y-49542334D01*
X230677996Y-49394235D01*
X230677993Y-49394233D01*
X230484762Y-49278783D01*
X230274025Y-49199693D01*
X230052547Y-49159500D01*
X229883845Y-49159500D01*
X229816631Y-49165549D01*
X229715809Y-49174623D01*
X229498828Y-49234507D01*
X229296027Y-49332170D01*
X229113925Y-49464475D01*
X228958365Y-49627178D01*
X228834365Y-49815031D01*
X228745896Y-50022012D01*
X228695809Y-50241462D01*
X228685709Y-50466328D01*
X217544800Y-50466328D01*
X217607179Y-50358284D01*
X217665674Y-50178256D01*
X217685460Y-49990000D01*
X217665674Y-49801744D01*
X217607179Y-49621716D01*
X217607179Y-49621715D01*
X217512533Y-49457783D01*
X217385870Y-49317110D01*
X217232730Y-49205848D01*
X217059802Y-49128855D01*
X216874648Y-49089500D01*
X216874646Y-49089500D01*
X216685354Y-49089500D01*
X216685352Y-49089500D01*
X216500197Y-49128855D01*
X216327269Y-49205848D01*
X216174129Y-49317110D01*
X216047466Y-49457783D01*
X215952820Y-49621715D01*
X215894326Y-49801742D01*
X215874540Y-49989999D01*
X215874540Y-49990000D01*
X209597882Y-49990000D01*
X209554517Y-49856536D01*
X209447852Y-49658319D01*
X209307508Y-49482334D01*
X209137996Y-49334235D01*
X209137993Y-49334233D01*
X208944762Y-49218783D01*
X208734025Y-49139693D01*
X208512547Y-49099500D01*
X208343845Y-49099500D01*
X208276631Y-49105549D01*
X208175809Y-49114623D01*
X207958828Y-49174507D01*
X207756027Y-49272170D01*
X207573925Y-49404475D01*
X207418365Y-49567178D01*
X207294365Y-49755031D01*
X207205896Y-49962012D01*
X207155809Y-50181462D01*
X207145709Y-50406328D01*
X200013498Y-50406328D01*
X200155870Y-50302889D01*
X200282533Y-50162216D01*
X200377179Y-49998284D01*
X200379871Y-49989999D01*
X200435674Y-49818256D01*
X200455460Y-49630000D01*
X200435674Y-49441744D01*
X200382725Y-49278785D01*
X200377179Y-49261715D01*
X200282533Y-49097783D01*
X200155870Y-48957110D01*
X200002730Y-48845848D01*
X199829802Y-48768855D01*
X199644648Y-48729500D01*
X199644646Y-48729500D01*
X199455354Y-48729500D01*
X199455352Y-48729500D01*
X199270197Y-48768855D01*
X199097269Y-48845848D01*
X198944129Y-48957110D01*
X198817466Y-49097783D01*
X198722820Y-49261715D01*
X198664326Y-49441742D01*
X198644540Y-49630000D01*
X184112680Y-49630000D01*
X184177179Y-49518284D01*
X184235674Y-49338256D01*
X184255460Y-49150000D01*
X184235674Y-48961744D01*
X184177179Y-48781716D01*
X184177179Y-48781715D01*
X184082533Y-48617783D01*
X183955870Y-48477110D01*
X183802730Y-48365848D01*
X183629802Y-48288855D01*
X183444648Y-48249500D01*
X183444646Y-48249500D01*
X183255354Y-48249500D01*
X183255352Y-48249500D01*
X183070197Y-48288855D01*
X182897269Y-48365848D01*
X182744129Y-48477110D01*
X182617466Y-48617783D01*
X182522820Y-48781715D01*
X182464326Y-48961742D01*
X182444540Y-49150000D01*
X177080000Y-49150000D01*
X177080000Y-46250000D01*
X219204540Y-46250000D01*
X219224326Y-46438257D01*
X219282820Y-46618284D01*
X219377466Y-46782216D01*
X219504129Y-46922889D01*
X219657269Y-47034151D01*
X219830197Y-47111144D01*
X220015352Y-47150500D01*
X220015354Y-47150500D01*
X220204646Y-47150500D01*
X220204648Y-47150500D01*
X220328084Y-47124262D01*
X220389803Y-47111144D01*
X220562730Y-47034151D01*
X220715871Y-46922888D01*
X220842533Y-46782216D01*
X220937179Y-46618284D01*
X220995674Y-46438256D01*
X221015460Y-46250000D01*
X220995674Y-46061744D01*
X220937179Y-45881716D01*
X220937179Y-45881715D01*
X220842533Y-45717783D01*
X220715870Y-45577110D01*
X220562730Y-45465848D01*
X220389802Y-45388855D01*
X220204648Y-45349500D01*
X220204646Y-45349500D01*
X220015354Y-45349500D01*
X220015352Y-45349500D01*
X219830197Y-45388855D01*
X219657269Y-45465848D01*
X219504129Y-45577110D01*
X219377466Y-45717783D01*
X219282820Y-45881715D01*
X219224326Y-46061742D01*
X219204540Y-46250000D01*
X177080000Y-46250000D01*
X177080000Y-44559999D01*
X208974540Y-44559999D01*
X208994326Y-44748257D01*
X209052820Y-44928284D01*
X209147466Y-45092216D01*
X209274129Y-45232889D01*
X209427269Y-45344151D01*
X209600197Y-45421144D01*
X209785352Y-45460500D01*
X209785354Y-45460500D01*
X209974646Y-45460500D01*
X209974648Y-45460500D01*
X210098083Y-45434262D01*
X210159803Y-45421144D01*
X210332730Y-45344151D01*
X210485871Y-45232888D01*
X210612533Y-45092216D01*
X210707179Y-44928284D01*
X210765674Y-44748256D01*
X210785460Y-44560000D01*
X210765674Y-44371744D01*
X210707179Y-44191716D01*
X210707179Y-44191715D01*
X210612533Y-44027783D01*
X210485870Y-43887110D01*
X210332730Y-43775848D01*
X210159802Y-43698855D01*
X209974648Y-43659500D01*
X209974646Y-43659500D01*
X209785354Y-43659500D01*
X209785352Y-43659500D01*
X209600197Y-43698855D01*
X209427269Y-43775848D01*
X209274129Y-43887110D01*
X209147466Y-44027783D01*
X209052820Y-44191715D01*
X208994326Y-44371742D01*
X208974540Y-44559999D01*
X177080000Y-44559999D01*
X177080000Y-38704929D01*
X182159500Y-38704929D01*
X182199719Y-38971771D01*
X182279262Y-39229640D01*
X182396347Y-39472771D01*
X182396348Y-39472772D01*
X182396349Y-39472774D01*
X182548365Y-39695741D01*
X182731915Y-39893561D01*
X182942898Y-40061815D01*
X183176602Y-40196743D01*
X183427805Y-40295334D01*
X183690897Y-40355383D01*
X183748533Y-40359702D01*
X183892619Y-40370500D01*
X183892624Y-40370500D01*
X184027376Y-40370500D01*
X184027381Y-40370500D01*
X184153455Y-40361051D01*
X184229103Y-40355383D01*
X184492195Y-40295334D01*
X184743398Y-40196743D01*
X184977102Y-40061815D01*
X185188085Y-39893561D01*
X185371635Y-39695741D01*
X185523651Y-39472775D01*
X185549066Y-39420000D01*
X206844540Y-39420000D01*
X206864326Y-39608257D01*
X206922820Y-39788284D01*
X207017466Y-39952216D01*
X207144129Y-40092889D01*
X207297269Y-40204151D01*
X207470197Y-40281144D01*
X207655352Y-40320500D01*
X207655354Y-40320500D01*
X207844646Y-40320500D01*
X207844648Y-40320500D01*
X207985786Y-40290500D01*
X208029803Y-40281144D01*
X208202730Y-40204151D01*
X208212928Y-40196742D01*
X208355870Y-40092889D01*
X208482533Y-39952216D01*
X208577179Y-39788284D01*
X208577178Y-39788284D01*
X208635674Y-39608256D01*
X208655460Y-39420000D01*
X208635674Y-39231744D01*
X208577179Y-39051716D01*
X208577179Y-39051715D01*
X208482533Y-38887783D01*
X208355870Y-38747110D01*
X208202730Y-38635848D01*
X208029802Y-38558855D01*
X207844648Y-38519500D01*
X207844646Y-38519500D01*
X207655354Y-38519500D01*
X207655352Y-38519500D01*
X207470197Y-38558855D01*
X207297269Y-38635848D01*
X207144129Y-38747110D01*
X207017466Y-38887783D01*
X206922820Y-39051715D01*
X206864326Y-39231742D01*
X206844540Y-39420000D01*
X185549066Y-39420000D01*
X185640738Y-39229641D01*
X185720280Y-38971772D01*
X185760500Y-38704929D01*
X185760500Y-38435071D01*
X185720280Y-38168228D01*
X185696150Y-38090000D01*
X214264540Y-38090000D01*
X214284326Y-38278257D01*
X214342820Y-38458284D01*
X214437466Y-38622216D01*
X214564129Y-38762889D01*
X214717269Y-38874151D01*
X214890197Y-38951144D01*
X215075352Y-38990500D01*
X215075354Y-38990500D01*
X215264646Y-38990500D01*
X215264648Y-38990500D01*
X215388084Y-38964262D01*
X215449803Y-38951144D01*
X215622730Y-38874151D01*
X215775871Y-38762888D01*
X215900090Y-38624929D01*
X227969500Y-38624929D01*
X228009719Y-38891771D01*
X228089262Y-39149640D01*
X228206347Y-39392771D01*
X228206348Y-39392772D01*
X228206349Y-39392774D01*
X228358365Y-39615741D01*
X228541915Y-39813561D01*
X228752898Y-39981815D01*
X228986602Y-40116743D01*
X229237805Y-40215334D01*
X229500897Y-40275383D01*
X229558533Y-40279702D01*
X229702619Y-40290500D01*
X229702624Y-40290500D01*
X229837376Y-40290500D01*
X229837381Y-40290500D01*
X229963455Y-40281051D01*
X230039103Y-40275383D01*
X230302195Y-40215334D01*
X230553398Y-40116743D01*
X230787102Y-39981815D01*
X230998085Y-39813561D01*
X231181635Y-39615741D01*
X231333651Y-39392775D01*
X231450738Y-39149641D01*
X231530280Y-38891772D01*
X231570500Y-38624929D01*
X231570500Y-38355071D01*
X231530280Y-38088228D01*
X231450738Y-37830359D01*
X231333651Y-37587226D01*
X231181635Y-37364259D01*
X230998085Y-37166439D01*
X230787102Y-36998185D01*
X230553398Y-36863257D01*
X230302195Y-36764666D01*
X230039100Y-36704616D01*
X229837381Y-36689500D01*
X229837376Y-36689500D01*
X229702624Y-36689500D01*
X229702619Y-36689500D01*
X229500899Y-36704616D01*
X229237804Y-36764666D01*
X228986601Y-36863257D01*
X228752899Y-36998184D01*
X228541914Y-37166439D01*
X228358366Y-37364256D01*
X228206348Y-37587227D01*
X228089262Y-37830359D01*
X228009719Y-38088228D01*
X227969500Y-38355071D01*
X227969500Y-38624929D01*
X215900090Y-38624929D01*
X215902533Y-38622216D01*
X215997179Y-38458284D01*
X216055674Y-38278256D01*
X216075460Y-38090000D01*
X216055674Y-37901744D01*
X215997179Y-37721716D01*
X215997179Y-37721715D01*
X215902533Y-37557783D01*
X215775870Y-37417110D01*
X215622730Y-37305848D01*
X215449802Y-37228855D01*
X215264648Y-37189500D01*
X215264646Y-37189500D01*
X215075354Y-37189500D01*
X215075352Y-37189500D01*
X214890197Y-37228855D01*
X214717269Y-37305848D01*
X214564129Y-37417110D01*
X214437466Y-37557783D01*
X214342820Y-37721715D01*
X214284326Y-37901742D01*
X214264540Y-38090000D01*
X185696150Y-38090000D01*
X185640738Y-37910359D01*
X185523651Y-37667226D01*
X185371635Y-37444259D01*
X185188085Y-37246439D01*
X184977102Y-37078185D01*
X184743398Y-36943257D01*
X184492195Y-36844666D01*
X184229100Y-36784616D01*
X184027381Y-36769500D01*
X184027376Y-36769500D01*
X183892624Y-36769500D01*
X183892619Y-36769500D01*
X183690899Y-36784616D01*
X183427804Y-36844666D01*
X183176601Y-36943257D01*
X182942899Y-37078184D01*
X182731914Y-37246439D01*
X182548366Y-37444256D01*
X182396348Y-37667227D01*
X182279262Y-37910359D01*
X182199719Y-38168228D01*
X182159500Y-38435071D01*
X182159500Y-38704929D01*
X177080000Y-38704929D01*
X177080000Y-37980133D01*
X177089439Y-37932680D01*
X177116319Y-37892452D01*
X177156548Y-37865572D01*
X177169999Y-37860000D01*
X177170000Y-37860000D01*
X180079999Y-34950000D01*
X191560001Y-34950000D01*
X191560001Y-35474979D01*
X191570493Y-35577695D01*
X191625642Y-35744122D01*
X191717683Y-35893345D01*
X191841654Y-36017316D01*
X191990877Y-36109357D01*
X192157303Y-36164506D01*
X192260021Y-36175000D01*
X192660000Y-36175000D01*
X192660000Y-36174999D01*
X193160000Y-36174999D01*
X193559979Y-36174999D01*
X193662695Y-36164506D01*
X193829122Y-36109357D01*
X193978345Y-36017316D01*
X194102316Y-35893345D01*
X194197815Y-35738516D01*
X194236728Y-35699032D01*
X194288958Y-35680451D01*
X194344065Y-35686486D01*
X194391035Y-35715931D01*
X194538599Y-35863495D01*
X194732170Y-35999035D01*
X194946337Y-36098903D01*
X195174591Y-36160062D01*
X195174592Y-36160063D01*
X195409999Y-36180659D01*
X195409999Y-36180658D01*
X195410000Y-36180659D01*
X195645408Y-36160063D01*
X195873663Y-36098903D01*
X196087829Y-35999035D01*
X196281401Y-35863495D01*
X196448495Y-35696401D01*
X196558426Y-35539401D01*
X196602743Y-35500537D01*
X196660000Y-35486526D01*
X196717257Y-35500537D01*
X196761573Y-35539401D01*
X196871505Y-35696401D01*
X197038599Y-35863495D01*
X197232170Y-35999035D01*
X197446337Y-36098903D01*
X197674591Y-36160062D01*
X197674592Y-36160063D01*
X197909999Y-36180659D01*
X197909999Y-36180658D01*
X197910000Y-36180659D01*
X198145408Y-36160063D01*
X198373663Y-36098903D01*
X198587829Y-35999035D01*
X198781401Y-35863495D01*
X198948495Y-35696401D01*
X199058426Y-35539401D01*
X199102743Y-35500537D01*
X199160000Y-35486526D01*
X199217257Y-35500537D01*
X199261573Y-35539401D01*
X199371505Y-35696401D01*
X199538599Y-35863495D01*
X199732170Y-35999035D01*
X199946337Y-36098903D01*
X200174591Y-36160062D01*
X200174592Y-36160063D01*
X200409999Y-36180659D01*
X200409999Y-36180658D01*
X200410000Y-36180659D01*
X200645408Y-36160063D01*
X200873663Y-36098903D01*
X201087829Y-35999035D01*
X201281401Y-35863495D01*
X201448495Y-35696401D01*
X201558426Y-35539401D01*
X201602743Y-35500537D01*
X201660000Y-35486526D01*
X201717257Y-35500537D01*
X201761573Y-35539401D01*
X201871505Y-35696401D01*
X202038599Y-35863495D01*
X202232170Y-35999035D01*
X202446337Y-36098903D01*
X202674591Y-36160062D01*
X202674592Y-36160063D01*
X202909999Y-36180659D01*
X202909999Y-36180658D01*
X202910000Y-36180659D01*
X203145408Y-36160063D01*
X203373663Y-36098903D01*
X203587829Y-35999035D01*
X203781401Y-35863495D01*
X203948495Y-35696401D01*
X204084035Y-35502829D01*
X204183903Y-35288663D01*
X204245063Y-35060408D01*
X204260500Y-34883966D01*
X204260500Y-34516034D01*
X204245063Y-34339592D01*
X204183903Y-34111337D01*
X204084035Y-33897171D01*
X203948495Y-33703599D01*
X203781401Y-33536505D01*
X203587830Y-33400965D01*
X203373663Y-33301097D01*
X203312501Y-33284709D01*
X203145407Y-33239936D01*
X202910000Y-33219340D01*
X202674592Y-33239936D01*
X202446336Y-33301097D01*
X202232170Y-33400965D01*
X202038598Y-33536505D01*
X201871505Y-33703598D01*
X201761575Y-33860596D01*
X201717257Y-33899462D01*
X201660000Y-33913473D01*
X201602743Y-33899462D01*
X201558425Y-33860596D01*
X201531612Y-33822303D01*
X201448495Y-33703599D01*
X201281401Y-33536505D01*
X201087830Y-33400965D01*
X200873663Y-33301097D01*
X200812501Y-33284709D01*
X200645407Y-33239936D01*
X200410000Y-33219340D01*
X200174592Y-33239936D01*
X199946336Y-33301097D01*
X199732170Y-33400965D01*
X199538598Y-33536505D01*
X199371505Y-33703598D01*
X199261575Y-33860596D01*
X199217257Y-33899462D01*
X199160000Y-33913473D01*
X199102743Y-33899462D01*
X199058425Y-33860596D01*
X199031612Y-33822303D01*
X198948495Y-33703599D01*
X198781401Y-33536505D01*
X198587830Y-33400965D01*
X198373663Y-33301097D01*
X198312501Y-33284709D01*
X198145407Y-33239936D01*
X197910000Y-33219340D01*
X197674592Y-33239936D01*
X197446336Y-33301097D01*
X197232170Y-33400965D01*
X197038598Y-33536505D01*
X196871505Y-33703598D01*
X196761575Y-33860596D01*
X196717257Y-33899462D01*
X196660000Y-33913473D01*
X196602743Y-33899462D01*
X196558425Y-33860596D01*
X196531612Y-33822303D01*
X196448495Y-33703599D01*
X196281401Y-33536505D01*
X196087830Y-33400965D01*
X195873663Y-33301097D01*
X195812501Y-33284709D01*
X195645407Y-33239936D01*
X195410000Y-33219340D01*
X195174592Y-33239936D01*
X194946336Y-33301097D01*
X194732170Y-33400965D01*
X194538601Y-33536503D01*
X194391035Y-33684069D01*
X194344065Y-33713514D01*
X194288958Y-33719548D01*
X194236728Y-33700967D01*
X194197815Y-33661484D01*
X194102315Y-33506653D01*
X193978345Y-33382683D01*
X193829122Y-33290642D01*
X193662696Y-33235493D01*
X193559979Y-33225000D01*
X193160000Y-33225000D01*
X193160000Y-36174999D01*
X192660000Y-36174999D01*
X192660000Y-34950000D01*
X191560001Y-34950000D01*
X180079999Y-34950000D01*
X180579999Y-34450000D01*
X191560000Y-34450000D01*
X192660000Y-34450000D01*
X192660000Y-33225001D01*
X192260021Y-33225001D01*
X192157304Y-33235493D01*
X191990877Y-33290642D01*
X191841654Y-33382683D01*
X191717683Y-33506654D01*
X191625642Y-33655877D01*
X191570493Y-33822303D01*
X191560000Y-33925021D01*
X191560000Y-34450000D01*
X180579999Y-34450000D01*
X182817596Y-32212403D01*
X182825201Y-32205411D01*
X183223172Y-31869266D01*
X183260583Y-31847547D01*
X183303182Y-31840000D01*
X228488638Y-31840000D01*
X228536091Y-31849439D01*
G37*
%TD.AperFunction*%
%TD*%
M02*
